G04 #@! TF.GenerationSoftware,KiCad,Pcbnew,5.1.6*
G04 #@! TF.CreationDate,2020-05-21T19:24:45+02:00*
G04 #@! TF.ProjectId,F010_rpi_logic_level_shifter_hat,46303130-5f72-4706-995f-6c6f6769635f,rev?*
G04 #@! TF.SameCoordinates,PXa52d280PY2b953a0*
G04 #@! TF.FileFunction,Soldermask,Top*
G04 #@! TF.FilePolarity,Negative*
%FSLAX46Y46*%
G04 Gerber Fmt 4.6, Leading zero omitted, Abs format (unit mm)*
G04 Created by KiCad (PCBNEW 5.1.6) date 2020-05-21 19:24:45*
%MOMM*%
%LPD*%
G01*
G04 APERTURE LIST*
%ADD10C,0.100000*%
G04 APERTURE END LIST*
D10*
G36*
X-4926488Y-48103927D02*
G01*
X-4777188Y-48133624D01*
X-4613216Y-48201544D01*
X-4465646Y-48300147D01*
X-4340147Y-48425646D01*
X-4241544Y-48573216D01*
X-4173624Y-48737188D01*
X-4139000Y-48911259D01*
X-4139000Y-49088741D01*
X-4173624Y-49262812D01*
X-4241544Y-49426784D01*
X-4340147Y-49574354D01*
X-4465646Y-49699853D01*
X-4613216Y-49798456D01*
X-4777188Y-49866376D01*
X-4926488Y-49896073D01*
X-4951258Y-49901000D01*
X-5128742Y-49901000D01*
X-5153512Y-49896073D01*
X-5302812Y-49866376D01*
X-5466784Y-49798456D01*
X-5614354Y-49699853D01*
X-5739853Y-49574354D01*
X-5838456Y-49426784D01*
X-5906376Y-49262812D01*
X-5941000Y-49088741D01*
X-5941000Y-48911259D01*
X-5906376Y-48737188D01*
X-5838456Y-48573216D01*
X-5739853Y-48425646D01*
X-5614354Y-48300147D01*
X-5466784Y-48201544D01*
X-5302812Y-48133624D01*
X-5153512Y-48103927D01*
X-5128742Y-48099000D01*
X-4951258Y-48099000D01*
X-4926488Y-48103927D01*
G37*
G36*
X-30326488Y-48103927D02*
G01*
X-30177188Y-48133624D01*
X-30013216Y-48201544D01*
X-29865646Y-48300147D01*
X-29740147Y-48425646D01*
X-29641544Y-48573216D01*
X-29573624Y-48737188D01*
X-29539000Y-48911259D01*
X-29539000Y-49088741D01*
X-29573624Y-49262812D01*
X-29641544Y-49426784D01*
X-29740147Y-49574354D01*
X-29865646Y-49699853D01*
X-30013216Y-49798456D01*
X-30177188Y-49866376D01*
X-30326488Y-49896073D01*
X-30351258Y-49901000D01*
X-30528742Y-49901000D01*
X-30553512Y-49896073D01*
X-30702812Y-49866376D01*
X-30866784Y-49798456D01*
X-31014354Y-49699853D01*
X-31139853Y-49574354D01*
X-31238456Y-49426784D01*
X-31306376Y-49262812D01*
X-31341000Y-49088741D01*
X-31341000Y-48911259D01*
X-31306376Y-48737188D01*
X-31238456Y-48573216D01*
X-31139853Y-48425646D01*
X-31014354Y-48300147D01*
X-30866784Y-48201544D01*
X-30702812Y-48133624D01*
X-30553512Y-48103927D01*
X-30528742Y-48099000D01*
X-30351258Y-48099000D01*
X-30326488Y-48103927D01*
G37*
G36*
X-12546488Y-48103927D02*
G01*
X-12397188Y-48133624D01*
X-12233216Y-48201544D01*
X-12085646Y-48300147D01*
X-11960147Y-48425646D01*
X-11861544Y-48573216D01*
X-11793624Y-48737188D01*
X-11759000Y-48911259D01*
X-11759000Y-49088741D01*
X-11793624Y-49262812D01*
X-11861544Y-49426784D01*
X-11960147Y-49574354D01*
X-12085646Y-49699853D01*
X-12233216Y-49798456D01*
X-12397188Y-49866376D01*
X-12546488Y-49896073D01*
X-12571258Y-49901000D01*
X-12748742Y-49901000D01*
X-12773512Y-49896073D01*
X-12922812Y-49866376D01*
X-13086784Y-49798456D01*
X-13234354Y-49699853D01*
X-13359853Y-49574354D01*
X-13458456Y-49426784D01*
X-13526376Y-49262812D01*
X-13561000Y-49088741D01*
X-13561000Y-48911259D01*
X-13526376Y-48737188D01*
X-13458456Y-48573216D01*
X-13359853Y-48425646D01*
X-13234354Y-48300147D01*
X-13086784Y-48201544D01*
X-12922812Y-48133624D01*
X-12773512Y-48103927D01*
X-12748742Y-48099000D01*
X-12571258Y-48099000D01*
X-12546488Y-48103927D01*
G37*
G36*
X-10006488Y-48103927D02*
G01*
X-9857188Y-48133624D01*
X-9693216Y-48201544D01*
X-9545646Y-48300147D01*
X-9420147Y-48425646D01*
X-9321544Y-48573216D01*
X-9253624Y-48737188D01*
X-9219000Y-48911259D01*
X-9219000Y-49088741D01*
X-9253624Y-49262812D01*
X-9321544Y-49426784D01*
X-9420147Y-49574354D01*
X-9545646Y-49699853D01*
X-9693216Y-49798456D01*
X-9857188Y-49866376D01*
X-10006488Y-49896073D01*
X-10031258Y-49901000D01*
X-10208742Y-49901000D01*
X-10233512Y-49896073D01*
X-10382812Y-49866376D01*
X-10546784Y-49798456D01*
X-10694354Y-49699853D01*
X-10819853Y-49574354D01*
X-10918456Y-49426784D01*
X-10986376Y-49262812D01*
X-11021000Y-49088741D01*
X-11021000Y-48911259D01*
X-10986376Y-48737188D01*
X-10918456Y-48573216D01*
X-10819853Y-48425646D01*
X-10694354Y-48300147D01*
X-10546784Y-48201544D01*
X-10382812Y-48133624D01*
X-10233512Y-48103927D01*
X-10208742Y-48099000D01*
X-10031258Y-48099000D01*
X-10006488Y-48103927D01*
G37*
G36*
X-15086488Y-48103927D02*
G01*
X-14937188Y-48133624D01*
X-14773216Y-48201544D01*
X-14625646Y-48300147D01*
X-14500147Y-48425646D01*
X-14401544Y-48573216D01*
X-14333624Y-48737188D01*
X-14299000Y-48911259D01*
X-14299000Y-49088741D01*
X-14333624Y-49262812D01*
X-14401544Y-49426784D01*
X-14500147Y-49574354D01*
X-14625646Y-49699853D01*
X-14773216Y-49798456D01*
X-14937188Y-49866376D01*
X-15086488Y-49896073D01*
X-15111258Y-49901000D01*
X-15288742Y-49901000D01*
X-15313512Y-49896073D01*
X-15462812Y-49866376D01*
X-15626784Y-49798456D01*
X-15774354Y-49699853D01*
X-15899853Y-49574354D01*
X-15998456Y-49426784D01*
X-16066376Y-49262812D01*
X-16101000Y-49088741D01*
X-16101000Y-48911259D01*
X-16066376Y-48737188D01*
X-15998456Y-48573216D01*
X-15899853Y-48425646D01*
X-15774354Y-48300147D01*
X-15626784Y-48201544D01*
X-15462812Y-48133624D01*
X-15313512Y-48103927D01*
X-15288742Y-48099000D01*
X-15111258Y-48099000D01*
X-15086488Y-48103927D01*
G37*
G36*
X-17626488Y-48103927D02*
G01*
X-17477188Y-48133624D01*
X-17313216Y-48201544D01*
X-17165646Y-48300147D01*
X-17040147Y-48425646D01*
X-16941544Y-48573216D01*
X-16873624Y-48737188D01*
X-16839000Y-48911259D01*
X-16839000Y-49088741D01*
X-16873624Y-49262812D01*
X-16941544Y-49426784D01*
X-17040147Y-49574354D01*
X-17165646Y-49699853D01*
X-17313216Y-49798456D01*
X-17477188Y-49866376D01*
X-17626488Y-49896073D01*
X-17651258Y-49901000D01*
X-17828742Y-49901000D01*
X-17853512Y-49896073D01*
X-18002812Y-49866376D01*
X-18166784Y-49798456D01*
X-18314354Y-49699853D01*
X-18439853Y-49574354D01*
X-18538456Y-49426784D01*
X-18606376Y-49262812D01*
X-18641000Y-49088741D01*
X-18641000Y-48911259D01*
X-18606376Y-48737188D01*
X-18538456Y-48573216D01*
X-18439853Y-48425646D01*
X-18314354Y-48300147D01*
X-18166784Y-48201544D01*
X-18002812Y-48133624D01*
X-17853512Y-48103927D01*
X-17828742Y-48099000D01*
X-17651258Y-48099000D01*
X-17626488Y-48103927D01*
G37*
G36*
X-20166488Y-48103927D02*
G01*
X-20017188Y-48133624D01*
X-19853216Y-48201544D01*
X-19705646Y-48300147D01*
X-19580147Y-48425646D01*
X-19481544Y-48573216D01*
X-19413624Y-48737188D01*
X-19379000Y-48911259D01*
X-19379000Y-49088741D01*
X-19413624Y-49262812D01*
X-19481544Y-49426784D01*
X-19580147Y-49574354D01*
X-19705646Y-49699853D01*
X-19853216Y-49798456D01*
X-20017188Y-49866376D01*
X-20166488Y-49896073D01*
X-20191258Y-49901000D01*
X-20368742Y-49901000D01*
X-20393512Y-49896073D01*
X-20542812Y-49866376D01*
X-20706784Y-49798456D01*
X-20854354Y-49699853D01*
X-20979853Y-49574354D01*
X-21078456Y-49426784D01*
X-21146376Y-49262812D01*
X-21181000Y-49088741D01*
X-21181000Y-48911259D01*
X-21146376Y-48737188D01*
X-21078456Y-48573216D01*
X-20979853Y-48425646D01*
X-20854354Y-48300147D01*
X-20706784Y-48201544D01*
X-20542812Y-48133624D01*
X-20393512Y-48103927D01*
X-20368742Y-48099000D01*
X-20191258Y-48099000D01*
X-20166488Y-48103927D01*
G37*
G36*
X-22706488Y-48103927D02*
G01*
X-22557188Y-48133624D01*
X-22393216Y-48201544D01*
X-22245646Y-48300147D01*
X-22120147Y-48425646D01*
X-22021544Y-48573216D01*
X-21953624Y-48737188D01*
X-21919000Y-48911259D01*
X-21919000Y-49088741D01*
X-21953624Y-49262812D01*
X-22021544Y-49426784D01*
X-22120147Y-49574354D01*
X-22245646Y-49699853D01*
X-22393216Y-49798456D01*
X-22557188Y-49866376D01*
X-22706488Y-49896073D01*
X-22731258Y-49901000D01*
X-22908742Y-49901000D01*
X-22933512Y-49896073D01*
X-23082812Y-49866376D01*
X-23246784Y-49798456D01*
X-23394354Y-49699853D01*
X-23519853Y-49574354D01*
X-23618456Y-49426784D01*
X-23686376Y-49262812D01*
X-23721000Y-49088741D01*
X-23721000Y-48911259D01*
X-23686376Y-48737188D01*
X-23618456Y-48573216D01*
X-23519853Y-48425646D01*
X-23394354Y-48300147D01*
X-23246784Y-48201544D01*
X-23082812Y-48133624D01*
X-22933512Y-48103927D01*
X-22908742Y-48099000D01*
X-22731258Y-48099000D01*
X-22706488Y-48103927D01*
G37*
G36*
X-25246488Y-48103927D02*
G01*
X-25097188Y-48133624D01*
X-24933216Y-48201544D01*
X-24785646Y-48300147D01*
X-24660147Y-48425646D01*
X-24561544Y-48573216D01*
X-24493624Y-48737188D01*
X-24459000Y-48911259D01*
X-24459000Y-49088741D01*
X-24493624Y-49262812D01*
X-24561544Y-49426784D01*
X-24660147Y-49574354D01*
X-24785646Y-49699853D01*
X-24933216Y-49798456D01*
X-25097188Y-49866376D01*
X-25246488Y-49896073D01*
X-25271258Y-49901000D01*
X-25448742Y-49901000D01*
X-25473512Y-49896073D01*
X-25622812Y-49866376D01*
X-25786784Y-49798456D01*
X-25934354Y-49699853D01*
X-26059853Y-49574354D01*
X-26158456Y-49426784D01*
X-26226376Y-49262812D01*
X-26261000Y-49088741D01*
X-26261000Y-48911259D01*
X-26226376Y-48737188D01*
X-26158456Y-48573216D01*
X-26059853Y-48425646D01*
X-25934354Y-48300147D01*
X-25786784Y-48201544D01*
X-25622812Y-48133624D01*
X-25473512Y-48103927D01*
X-25448742Y-48099000D01*
X-25271258Y-48099000D01*
X-25246488Y-48103927D01*
G37*
G36*
X-27786488Y-48103927D02*
G01*
X-27637188Y-48133624D01*
X-27473216Y-48201544D01*
X-27325646Y-48300147D01*
X-27200147Y-48425646D01*
X-27101544Y-48573216D01*
X-27033624Y-48737188D01*
X-26999000Y-48911259D01*
X-26999000Y-49088741D01*
X-27033624Y-49262812D01*
X-27101544Y-49426784D01*
X-27200147Y-49574354D01*
X-27325646Y-49699853D01*
X-27473216Y-49798456D01*
X-27637188Y-49866376D01*
X-27786488Y-49896073D01*
X-27811258Y-49901000D01*
X-27988742Y-49901000D01*
X-28013512Y-49896073D01*
X-28162812Y-49866376D01*
X-28326784Y-49798456D01*
X-28474354Y-49699853D01*
X-28599853Y-49574354D01*
X-28698456Y-49426784D01*
X-28766376Y-49262812D01*
X-28801000Y-49088741D01*
X-28801000Y-48911259D01*
X-28766376Y-48737188D01*
X-28698456Y-48573216D01*
X-28599853Y-48425646D01*
X-28474354Y-48300147D01*
X-28326784Y-48201544D01*
X-28162812Y-48133624D01*
X-28013512Y-48103927D01*
X-27988742Y-48099000D01*
X-27811258Y-48099000D01*
X-27786488Y-48103927D01*
G37*
G36*
X-7466488Y-48103927D02*
G01*
X-7317188Y-48133624D01*
X-7153216Y-48201544D01*
X-7005646Y-48300147D01*
X-6880147Y-48425646D01*
X-6781544Y-48573216D01*
X-6713624Y-48737188D01*
X-6679000Y-48911259D01*
X-6679000Y-49088741D01*
X-6713624Y-49262812D01*
X-6781544Y-49426784D01*
X-6880147Y-49574354D01*
X-7005646Y-49699853D01*
X-7153216Y-49798456D01*
X-7317188Y-49866376D01*
X-7466488Y-49896073D01*
X-7491258Y-49901000D01*
X-7668742Y-49901000D01*
X-7693512Y-49896073D01*
X-7842812Y-49866376D01*
X-8006784Y-49798456D01*
X-8154354Y-49699853D01*
X-8279853Y-49574354D01*
X-8378456Y-49426784D01*
X-8446376Y-49262812D01*
X-8481000Y-49088741D01*
X-8481000Y-48911259D01*
X-8446376Y-48737188D01*
X-8378456Y-48573216D01*
X-8279853Y-48425646D01*
X-8154354Y-48300147D01*
X-8006784Y-48201544D01*
X-7842812Y-48133624D01*
X-7693512Y-48103927D01*
X-7668742Y-48099000D01*
X-7491258Y-48099000D01*
X-7466488Y-48103927D01*
G37*
G36*
X-35406488Y-48103927D02*
G01*
X-35257188Y-48133624D01*
X-35093216Y-48201544D01*
X-34945646Y-48300147D01*
X-34820147Y-48425646D01*
X-34721544Y-48573216D01*
X-34653624Y-48737188D01*
X-34619000Y-48911259D01*
X-34619000Y-49088741D01*
X-34653624Y-49262812D01*
X-34721544Y-49426784D01*
X-34820147Y-49574354D01*
X-34945646Y-49699853D01*
X-35093216Y-49798456D01*
X-35257188Y-49866376D01*
X-35406488Y-49896073D01*
X-35431258Y-49901000D01*
X-35608742Y-49901000D01*
X-35633512Y-49896073D01*
X-35782812Y-49866376D01*
X-35946784Y-49798456D01*
X-36094354Y-49699853D01*
X-36219853Y-49574354D01*
X-36318456Y-49426784D01*
X-36386376Y-49262812D01*
X-36421000Y-49088741D01*
X-36421000Y-48911259D01*
X-36386376Y-48737188D01*
X-36318456Y-48573216D01*
X-36219853Y-48425646D01*
X-36094354Y-48300147D01*
X-35946784Y-48201544D01*
X-35782812Y-48133624D01*
X-35633512Y-48103927D01*
X-35608742Y-48099000D01*
X-35431258Y-48099000D01*
X-35406488Y-48103927D01*
G37*
G36*
X-32866488Y-48103927D02*
G01*
X-32717188Y-48133624D01*
X-32553216Y-48201544D01*
X-32405646Y-48300147D01*
X-32280147Y-48425646D01*
X-32181544Y-48573216D01*
X-32113624Y-48737188D01*
X-32079000Y-48911259D01*
X-32079000Y-49088741D01*
X-32113624Y-49262812D01*
X-32181544Y-49426784D01*
X-32280147Y-49574354D01*
X-32405646Y-49699853D01*
X-32553216Y-49798456D01*
X-32717188Y-49866376D01*
X-32866488Y-49896073D01*
X-32891258Y-49901000D01*
X-33068742Y-49901000D01*
X-33093512Y-49896073D01*
X-33242812Y-49866376D01*
X-33406784Y-49798456D01*
X-33554354Y-49699853D01*
X-33679853Y-49574354D01*
X-33778456Y-49426784D01*
X-33846376Y-49262812D01*
X-33881000Y-49088741D01*
X-33881000Y-48911259D01*
X-33846376Y-48737188D01*
X-33778456Y-48573216D01*
X-33679853Y-48425646D01*
X-33554354Y-48300147D01*
X-33406784Y-48201544D01*
X-33242812Y-48133624D01*
X-33093512Y-48103927D01*
X-33068742Y-48099000D01*
X-32891258Y-48099000D01*
X-32866488Y-48103927D01*
G37*
G36*
X-52399000Y-49901000D02*
G01*
X-54201000Y-49901000D01*
X-54201000Y-48099000D01*
X-52399000Y-48099000D01*
X-52399000Y-49901000D01*
G37*
G36*
X-50646488Y-48103927D02*
G01*
X-50497188Y-48133624D01*
X-50333216Y-48201544D01*
X-50185646Y-48300147D01*
X-50060147Y-48425646D01*
X-49961544Y-48573216D01*
X-49893624Y-48737188D01*
X-49859000Y-48911259D01*
X-49859000Y-49088741D01*
X-49893624Y-49262812D01*
X-49961544Y-49426784D01*
X-50060147Y-49574354D01*
X-50185646Y-49699853D01*
X-50333216Y-49798456D01*
X-50497188Y-49866376D01*
X-50646488Y-49896073D01*
X-50671258Y-49901000D01*
X-50848742Y-49901000D01*
X-50873512Y-49896073D01*
X-51022812Y-49866376D01*
X-51186784Y-49798456D01*
X-51334354Y-49699853D01*
X-51459853Y-49574354D01*
X-51558456Y-49426784D01*
X-51626376Y-49262812D01*
X-51661000Y-49088741D01*
X-51661000Y-48911259D01*
X-51626376Y-48737188D01*
X-51558456Y-48573216D01*
X-51459853Y-48425646D01*
X-51334354Y-48300147D01*
X-51186784Y-48201544D01*
X-51022812Y-48133624D01*
X-50873512Y-48103927D01*
X-50848742Y-48099000D01*
X-50671258Y-48099000D01*
X-50646488Y-48103927D01*
G37*
G36*
X-48106488Y-48103927D02*
G01*
X-47957188Y-48133624D01*
X-47793216Y-48201544D01*
X-47645646Y-48300147D01*
X-47520147Y-48425646D01*
X-47421544Y-48573216D01*
X-47353624Y-48737188D01*
X-47319000Y-48911259D01*
X-47319000Y-49088741D01*
X-47353624Y-49262812D01*
X-47421544Y-49426784D01*
X-47520147Y-49574354D01*
X-47645646Y-49699853D01*
X-47793216Y-49798456D01*
X-47957188Y-49866376D01*
X-48106488Y-49896073D01*
X-48131258Y-49901000D01*
X-48308742Y-49901000D01*
X-48333512Y-49896073D01*
X-48482812Y-49866376D01*
X-48646784Y-49798456D01*
X-48794354Y-49699853D01*
X-48919853Y-49574354D01*
X-49018456Y-49426784D01*
X-49086376Y-49262812D01*
X-49121000Y-49088741D01*
X-49121000Y-48911259D01*
X-49086376Y-48737188D01*
X-49018456Y-48573216D01*
X-48919853Y-48425646D01*
X-48794354Y-48300147D01*
X-48646784Y-48201544D01*
X-48482812Y-48133624D01*
X-48333512Y-48103927D01*
X-48308742Y-48099000D01*
X-48131258Y-48099000D01*
X-48106488Y-48103927D01*
G37*
G36*
X-45566488Y-48103927D02*
G01*
X-45417188Y-48133624D01*
X-45253216Y-48201544D01*
X-45105646Y-48300147D01*
X-44980147Y-48425646D01*
X-44881544Y-48573216D01*
X-44813624Y-48737188D01*
X-44779000Y-48911259D01*
X-44779000Y-49088741D01*
X-44813624Y-49262812D01*
X-44881544Y-49426784D01*
X-44980147Y-49574354D01*
X-45105646Y-49699853D01*
X-45253216Y-49798456D01*
X-45417188Y-49866376D01*
X-45566488Y-49896073D01*
X-45591258Y-49901000D01*
X-45768742Y-49901000D01*
X-45793512Y-49896073D01*
X-45942812Y-49866376D01*
X-46106784Y-49798456D01*
X-46254354Y-49699853D01*
X-46379853Y-49574354D01*
X-46478456Y-49426784D01*
X-46546376Y-49262812D01*
X-46581000Y-49088741D01*
X-46581000Y-48911259D01*
X-46546376Y-48737188D01*
X-46478456Y-48573216D01*
X-46379853Y-48425646D01*
X-46254354Y-48300147D01*
X-46106784Y-48201544D01*
X-45942812Y-48133624D01*
X-45793512Y-48103927D01*
X-45768742Y-48099000D01*
X-45591258Y-48099000D01*
X-45566488Y-48103927D01*
G37*
G36*
X-43026488Y-48103927D02*
G01*
X-42877188Y-48133624D01*
X-42713216Y-48201544D01*
X-42565646Y-48300147D01*
X-42440147Y-48425646D01*
X-42341544Y-48573216D01*
X-42273624Y-48737188D01*
X-42239000Y-48911259D01*
X-42239000Y-49088741D01*
X-42273624Y-49262812D01*
X-42341544Y-49426784D01*
X-42440147Y-49574354D01*
X-42565646Y-49699853D01*
X-42713216Y-49798456D01*
X-42877188Y-49866376D01*
X-43026488Y-49896073D01*
X-43051258Y-49901000D01*
X-43228742Y-49901000D01*
X-43253512Y-49896073D01*
X-43402812Y-49866376D01*
X-43566784Y-49798456D01*
X-43714354Y-49699853D01*
X-43839853Y-49574354D01*
X-43938456Y-49426784D01*
X-44006376Y-49262812D01*
X-44041000Y-49088741D01*
X-44041000Y-48911259D01*
X-44006376Y-48737188D01*
X-43938456Y-48573216D01*
X-43839853Y-48425646D01*
X-43714354Y-48300147D01*
X-43566784Y-48201544D01*
X-43402812Y-48133624D01*
X-43253512Y-48103927D01*
X-43228742Y-48099000D01*
X-43051258Y-48099000D01*
X-43026488Y-48103927D01*
G37*
G36*
X-40486488Y-48103927D02*
G01*
X-40337188Y-48133624D01*
X-40173216Y-48201544D01*
X-40025646Y-48300147D01*
X-39900147Y-48425646D01*
X-39801544Y-48573216D01*
X-39733624Y-48737188D01*
X-39699000Y-48911259D01*
X-39699000Y-49088741D01*
X-39733624Y-49262812D01*
X-39801544Y-49426784D01*
X-39900147Y-49574354D01*
X-40025646Y-49699853D01*
X-40173216Y-49798456D01*
X-40337188Y-49866376D01*
X-40486488Y-49896073D01*
X-40511258Y-49901000D01*
X-40688742Y-49901000D01*
X-40713512Y-49896073D01*
X-40862812Y-49866376D01*
X-41026784Y-49798456D01*
X-41174354Y-49699853D01*
X-41299853Y-49574354D01*
X-41398456Y-49426784D01*
X-41466376Y-49262812D01*
X-41501000Y-49088741D01*
X-41501000Y-48911259D01*
X-41466376Y-48737188D01*
X-41398456Y-48573216D01*
X-41299853Y-48425646D01*
X-41174354Y-48300147D01*
X-41026784Y-48201544D01*
X-40862812Y-48133624D01*
X-40713512Y-48103927D01*
X-40688742Y-48099000D01*
X-40511258Y-48099000D01*
X-40486488Y-48103927D01*
G37*
G36*
X-37946488Y-48103927D02*
G01*
X-37797188Y-48133624D01*
X-37633216Y-48201544D01*
X-37485646Y-48300147D01*
X-37360147Y-48425646D01*
X-37261544Y-48573216D01*
X-37193624Y-48737188D01*
X-37159000Y-48911259D01*
X-37159000Y-49088741D01*
X-37193624Y-49262812D01*
X-37261544Y-49426784D01*
X-37360147Y-49574354D01*
X-37485646Y-49699853D01*
X-37633216Y-49798456D01*
X-37797188Y-49866376D01*
X-37946488Y-49896073D01*
X-37971258Y-49901000D01*
X-38148742Y-49901000D01*
X-38173512Y-49896073D01*
X-38322812Y-49866376D01*
X-38486784Y-49798456D01*
X-38634354Y-49699853D01*
X-38759853Y-49574354D01*
X-38858456Y-49426784D01*
X-38926376Y-49262812D01*
X-38961000Y-49088741D01*
X-38961000Y-48911259D01*
X-38926376Y-48737188D01*
X-38858456Y-48573216D01*
X-38759853Y-48425646D01*
X-38634354Y-48300147D01*
X-38486784Y-48201544D01*
X-38322812Y-48133624D01*
X-38173512Y-48103927D01*
X-38148742Y-48099000D01*
X-37971258Y-48099000D01*
X-37946488Y-48103927D01*
G37*
G36*
X-53186488Y-45563927D02*
G01*
X-53037188Y-45593624D01*
X-52873216Y-45661544D01*
X-52725646Y-45760147D01*
X-52600147Y-45885646D01*
X-52501544Y-46033216D01*
X-52433624Y-46197188D01*
X-52399000Y-46371259D01*
X-52399000Y-46548741D01*
X-52433624Y-46722812D01*
X-52501544Y-46886784D01*
X-52600147Y-47034354D01*
X-52725646Y-47159853D01*
X-52873216Y-47258456D01*
X-53037188Y-47326376D01*
X-53186488Y-47356073D01*
X-53211258Y-47361000D01*
X-53388742Y-47361000D01*
X-53413512Y-47356073D01*
X-53562812Y-47326376D01*
X-53726784Y-47258456D01*
X-53874354Y-47159853D01*
X-53999853Y-47034354D01*
X-54098456Y-46886784D01*
X-54166376Y-46722812D01*
X-54201000Y-46548741D01*
X-54201000Y-46371259D01*
X-54166376Y-46197188D01*
X-54098456Y-46033216D01*
X-53999853Y-45885646D01*
X-53874354Y-45760147D01*
X-53726784Y-45661544D01*
X-53562812Y-45593624D01*
X-53413512Y-45563927D01*
X-53388742Y-45559000D01*
X-53211258Y-45559000D01*
X-53186488Y-45563927D01*
G37*
G36*
X-50646488Y-45563927D02*
G01*
X-50497188Y-45593624D01*
X-50333216Y-45661544D01*
X-50185646Y-45760147D01*
X-50060147Y-45885646D01*
X-49961544Y-46033216D01*
X-49893624Y-46197188D01*
X-49859000Y-46371259D01*
X-49859000Y-46548741D01*
X-49893624Y-46722812D01*
X-49961544Y-46886784D01*
X-50060147Y-47034354D01*
X-50185646Y-47159853D01*
X-50333216Y-47258456D01*
X-50497188Y-47326376D01*
X-50646488Y-47356073D01*
X-50671258Y-47361000D01*
X-50848742Y-47361000D01*
X-50873512Y-47356073D01*
X-51022812Y-47326376D01*
X-51186784Y-47258456D01*
X-51334354Y-47159853D01*
X-51459853Y-47034354D01*
X-51558456Y-46886784D01*
X-51626376Y-46722812D01*
X-51661000Y-46548741D01*
X-51661000Y-46371259D01*
X-51626376Y-46197188D01*
X-51558456Y-46033216D01*
X-51459853Y-45885646D01*
X-51334354Y-45760147D01*
X-51186784Y-45661544D01*
X-51022812Y-45593624D01*
X-50873512Y-45563927D01*
X-50848742Y-45559000D01*
X-50671258Y-45559000D01*
X-50646488Y-45563927D01*
G37*
G36*
X-48106488Y-45563927D02*
G01*
X-47957188Y-45593624D01*
X-47793216Y-45661544D01*
X-47645646Y-45760147D01*
X-47520147Y-45885646D01*
X-47421544Y-46033216D01*
X-47353624Y-46197188D01*
X-47319000Y-46371259D01*
X-47319000Y-46548741D01*
X-47353624Y-46722812D01*
X-47421544Y-46886784D01*
X-47520147Y-47034354D01*
X-47645646Y-47159853D01*
X-47793216Y-47258456D01*
X-47957188Y-47326376D01*
X-48106488Y-47356073D01*
X-48131258Y-47361000D01*
X-48308742Y-47361000D01*
X-48333512Y-47356073D01*
X-48482812Y-47326376D01*
X-48646784Y-47258456D01*
X-48794354Y-47159853D01*
X-48919853Y-47034354D01*
X-49018456Y-46886784D01*
X-49086376Y-46722812D01*
X-49121000Y-46548741D01*
X-49121000Y-46371259D01*
X-49086376Y-46197188D01*
X-49018456Y-46033216D01*
X-48919853Y-45885646D01*
X-48794354Y-45760147D01*
X-48646784Y-45661544D01*
X-48482812Y-45593624D01*
X-48333512Y-45563927D01*
X-48308742Y-45559000D01*
X-48131258Y-45559000D01*
X-48106488Y-45563927D01*
G37*
G36*
X-45566488Y-45563927D02*
G01*
X-45417188Y-45593624D01*
X-45253216Y-45661544D01*
X-45105646Y-45760147D01*
X-44980147Y-45885646D01*
X-44881544Y-46033216D01*
X-44813624Y-46197188D01*
X-44779000Y-46371259D01*
X-44779000Y-46548741D01*
X-44813624Y-46722812D01*
X-44881544Y-46886784D01*
X-44980147Y-47034354D01*
X-45105646Y-47159853D01*
X-45253216Y-47258456D01*
X-45417188Y-47326376D01*
X-45566488Y-47356073D01*
X-45591258Y-47361000D01*
X-45768742Y-47361000D01*
X-45793512Y-47356073D01*
X-45942812Y-47326376D01*
X-46106784Y-47258456D01*
X-46254354Y-47159853D01*
X-46379853Y-47034354D01*
X-46478456Y-46886784D01*
X-46546376Y-46722812D01*
X-46581000Y-46548741D01*
X-46581000Y-46371259D01*
X-46546376Y-46197188D01*
X-46478456Y-46033216D01*
X-46379853Y-45885646D01*
X-46254354Y-45760147D01*
X-46106784Y-45661544D01*
X-45942812Y-45593624D01*
X-45793512Y-45563927D01*
X-45768742Y-45559000D01*
X-45591258Y-45559000D01*
X-45566488Y-45563927D01*
G37*
G36*
X-43026488Y-45563927D02*
G01*
X-42877188Y-45593624D01*
X-42713216Y-45661544D01*
X-42565646Y-45760147D01*
X-42440147Y-45885646D01*
X-42341544Y-46033216D01*
X-42273624Y-46197188D01*
X-42239000Y-46371259D01*
X-42239000Y-46548741D01*
X-42273624Y-46722812D01*
X-42341544Y-46886784D01*
X-42440147Y-47034354D01*
X-42565646Y-47159853D01*
X-42713216Y-47258456D01*
X-42877188Y-47326376D01*
X-43026488Y-47356073D01*
X-43051258Y-47361000D01*
X-43228742Y-47361000D01*
X-43253512Y-47356073D01*
X-43402812Y-47326376D01*
X-43566784Y-47258456D01*
X-43714354Y-47159853D01*
X-43839853Y-47034354D01*
X-43938456Y-46886784D01*
X-44006376Y-46722812D01*
X-44041000Y-46548741D01*
X-44041000Y-46371259D01*
X-44006376Y-46197188D01*
X-43938456Y-46033216D01*
X-43839853Y-45885646D01*
X-43714354Y-45760147D01*
X-43566784Y-45661544D01*
X-43402812Y-45593624D01*
X-43253512Y-45563927D01*
X-43228742Y-45559000D01*
X-43051258Y-45559000D01*
X-43026488Y-45563927D01*
G37*
G36*
X-40486488Y-45563927D02*
G01*
X-40337188Y-45593624D01*
X-40173216Y-45661544D01*
X-40025646Y-45760147D01*
X-39900147Y-45885646D01*
X-39801544Y-46033216D01*
X-39733624Y-46197188D01*
X-39699000Y-46371259D01*
X-39699000Y-46548741D01*
X-39733624Y-46722812D01*
X-39801544Y-46886784D01*
X-39900147Y-47034354D01*
X-40025646Y-47159853D01*
X-40173216Y-47258456D01*
X-40337188Y-47326376D01*
X-40486488Y-47356073D01*
X-40511258Y-47361000D01*
X-40688742Y-47361000D01*
X-40713512Y-47356073D01*
X-40862812Y-47326376D01*
X-41026784Y-47258456D01*
X-41174354Y-47159853D01*
X-41299853Y-47034354D01*
X-41398456Y-46886784D01*
X-41466376Y-46722812D01*
X-41501000Y-46548741D01*
X-41501000Y-46371259D01*
X-41466376Y-46197188D01*
X-41398456Y-46033216D01*
X-41299853Y-45885646D01*
X-41174354Y-45760147D01*
X-41026784Y-45661544D01*
X-40862812Y-45593624D01*
X-40713512Y-45563927D01*
X-40688742Y-45559000D01*
X-40511258Y-45559000D01*
X-40486488Y-45563927D01*
G37*
G36*
X-37946488Y-45563927D02*
G01*
X-37797188Y-45593624D01*
X-37633216Y-45661544D01*
X-37485646Y-45760147D01*
X-37360147Y-45885646D01*
X-37261544Y-46033216D01*
X-37193624Y-46197188D01*
X-37159000Y-46371259D01*
X-37159000Y-46548741D01*
X-37193624Y-46722812D01*
X-37261544Y-46886784D01*
X-37360147Y-47034354D01*
X-37485646Y-47159853D01*
X-37633216Y-47258456D01*
X-37797188Y-47326376D01*
X-37946488Y-47356073D01*
X-37971258Y-47361000D01*
X-38148742Y-47361000D01*
X-38173512Y-47356073D01*
X-38322812Y-47326376D01*
X-38486784Y-47258456D01*
X-38634354Y-47159853D01*
X-38759853Y-47034354D01*
X-38858456Y-46886784D01*
X-38926376Y-46722812D01*
X-38961000Y-46548741D01*
X-38961000Y-46371259D01*
X-38926376Y-46197188D01*
X-38858456Y-46033216D01*
X-38759853Y-45885646D01*
X-38634354Y-45760147D01*
X-38486784Y-45661544D01*
X-38322812Y-45593624D01*
X-38173512Y-45563927D01*
X-38148742Y-45559000D01*
X-37971258Y-45559000D01*
X-37946488Y-45563927D01*
G37*
G36*
X-35406488Y-45563927D02*
G01*
X-35257188Y-45593624D01*
X-35093216Y-45661544D01*
X-34945646Y-45760147D01*
X-34820147Y-45885646D01*
X-34721544Y-46033216D01*
X-34653624Y-46197188D01*
X-34619000Y-46371259D01*
X-34619000Y-46548741D01*
X-34653624Y-46722812D01*
X-34721544Y-46886784D01*
X-34820147Y-47034354D01*
X-34945646Y-47159853D01*
X-35093216Y-47258456D01*
X-35257188Y-47326376D01*
X-35406488Y-47356073D01*
X-35431258Y-47361000D01*
X-35608742Y-47361000D01*
X-35633512Y-47356073D01*
X-35782812Y-47326376D01*
X-35946784Y-47258456D01*
X-36094354Y-47159853D01*
X-36219853Y-47034354D01*
X-36318456Y-46886784D01*
X-36386376Y-46722812D01*
X-36421000Y-46548741D01*
X-36421000Y-46371259D01*
X-36386376Y-46197188D01*
X-36318456Y-46033216D01*
X-36219853Y-45885646D01*
X-36094354Y-45760147D01*
X-35946784Y-45661544D01*
X-35782812Y-45593624D01*
X-35633512Y-45563927D01*
X-35608742Y-45559000D01*
X-35431258Y-45559000D01*
X-35406488Y-45563927D01*
G37*
G36*
X-32866488Y-45563927D02*
G01*
X-32717188Y-45593624D01*
X-32553216Y-45661544D01*
X-32405646Y-45760147D01*
X-32280147Y-45885646D01*
X-32181544Y-46033216D01*
X-32113624Y-46197188D01*
X-32079000Y-46371259D01*
X-32079000Y-46548741D01*
X-32113624Y-46722812D01*
X-32181544Y-46886784D01*
X-32280147Y-47034354D01*
X-32405646Y-47159853D01*
X-32553216Y-47258456D01*
X-32717188Y-47326376D01*
X-32866488Y-47356073D01*
X-32891258Y-47361000D01*
X-33068742Y-47361000D01*
X-33093512Y-47356073D01*
X-33242812Y-47326376D01*
X-33406784Y-47258456D01*
X-33554354Y-47159853D01*
X-33679853Y-47034354D01*
X-33778456Y-46886784D01*
X-33846376Y-46722812D01*
X-33881000Y-46548741D01*
X-33881000Y-46371259D01*
X-33846376Y-46197188D01*
X-33778456Y-46033216D01*
X-33679853Y-45885646D01*
X-33554354Y-45760147D01*
X-33406784Y-45661544D01*
X-33242812Y-45593624D01*
X-33093512Y-45563927D01*
X-33068742Y-45559000D01*
X-32891258Y-45559000D01*
X-32866488Y-45563927D01*
G37*
G36*
X-30326488Y-45563927D02*
G01*
X-30177188Y-45593624D01*
X-30013216Y-45661544D01*
X-29865646Y-45760147D01*
X-29740147Y-45885646D01*
X-29641544Y-46033216D01*
X-29573624Y-46197188D01*
X-29539000Y-46371259D01*
X-29539000Y-46548741D01*
X-29573624Y-46722812D01*
X-29641544Y-46886784D01*
X-29740147Y-47034354D01*
X-29865646Y-47159853D01*
X-30013216Y-47258456D01*
X-30177188Y-47326376D01*
X-30326488Y-47356073D01*
X-30351258Y-47361000D01*
X-30528742Y-47361000D01*
X-30553512Y-47356073D01*
X-30702812Y-47326376D01*
X-30866784Y-47258456D01*
X-31014354Y-47159853D01*
X-31139853Y-47034354D01*
X-31238456Y-46886784D01*
X-31306376Y-46722812D01*
X-31341000Y-46548741D01*
X-31341000Y-46371259D01*
X-31306376Y-46197188D01*
X-31238456Y-46033216D01*
X-31139853Y-45885646D01*
X-31014354Y-45760147D01*
X-30866784Y-45661544D01*
X-30702812Y-45593624D01*
X-30553512Y-45563927D01*
X-30528742Y-45559000D01*
X-30351258Y-45559000D01*
X-30326488Y-45563927D01*
G37*
G36*
X-25246488Y-45563927D02*
G01*
X-25097188Y-45593624D01*
X-24933216Y-45661544D01*
X-24785646Y-45760147D01*
X-24660147Y-45885646D01*
X-24561544Y-46033216D01*
X-24493624Y-46197188D01*
X-24459000Y-46371259D01*
X-24459000Y-46548741D01*
X-24493624Y-46722812D01*
X-24561544Y-46886784D01*
X-24660147Y-47034354D01*
X-24785646Y-47159853D01*
X-24933216Y-47258456D01*
X-25097188Y-47326376D01*
X-25246488Y-47356073D01*
X-25271258Y-47361000D01*
X-25448742Y-47361000D01*
X-25473512Y-47356073D01*
X-25622812Y-47326376D01*
X-25786784Y-47258456D01*
X-25934354Y-47159853D01*
X-26059853Y-47034354D01*
X-26158456Y-46886784D01*
X-26226376Y-46722812D01*
X-26261000Y-46548741D01*
X-26261000Y-46371259D01*
X-26226376Y-46197188D01*
X-26158456Y-46033216D01*
X-26059853Y-45885646D01*
X-25934354Y-45760147D01*
X-25786784Y-45661544D01*
X-25622812Y-45593624D01*
X-25473512Y-45563927D01*
X-25448742Y-45559000D01*
X-25271258Y-45559000D01*
X-25246488Y-45563927D01*
G37*
G36*
X-22706488Y-45563927D02*
G01*
X-22557188Y-45593624D01*
X-22393216Y-45661544D01*
X-22245646Y-45760147D01*
X-22120147Y-45885646D01*
X-22021544Y-46033216D01*
X-21953624Y-46197188D01*
X-21919000Y-46371259D01*
X-21919000Y-46548741D01*
X-21953624Y-46722812D01*
X-22021544Y-46886784D01*
X-22120147Y-47034354D01*
X-22245646Y-47159853D01*
X-22393216Y-47258456D01*
X-22557188Y-47326376D01*
X-22706488Y-47356073D01*
X-22731258Y-47361000D01*
X-22908742Y-47361000D01*
X-22933512Y-47356073D01*
X-23082812Y-47326376D01*
X-23246784Y-47258456D01*
X-23394354Y-47159853D01*
X-23519853Y-47034354D01*
X-23618456Y-46886784D01*
X-23686376Y-46722812D01*
X-23721000Y-46548741D01*
X-23721000Y-46371259D01*
X-23686376Y-46197188D01*
X-23618456Y-46033216D01*
X-23519853Y-45885646D01*
X-23394354Y-45760147D01*
X-23246784Y-45661544D01*
X-23082812Y-45593624D01*
X-22933512Y-45563927D01*
X-22908742Y-45559000D01*
X-22731258Y-45559000D01*
X-22706488Y-45563927D01*
G37*
G36*
X-10006488Y-45563927D02*
G01*
X-9857188Y-45593624D01*
X-9693216Y-45661544D01*
X-9545646Y-45760147D01*
X-9420147Y-45885646D01*
X-9321544Y-46033216D01*
X-9253624Y-46197188D01*
X-9219000Y-46371259D01*
X-9219000Y-46548741D01*
X-9253624Y-46722812D01*
X-9321544Y-46886784D01*
X-9420147Y-47034354D01*
X-9545646Y-47159853D01*
X-9693216Y-47258456D01*
X-9857188Y-47326376D01*
X-10006488Y-47356073D01*
X-10031258Y-47361000D01*
X-10208742Y-47361000D01*
X-10233512Y-47356073D01*
X-10382812Y-47326376D01*
X-10546784Y-47258456D01*
X-10694354Y-47159853D01*
X-10819853Y-47034354D01*
X-10918456Y-46886784D01*
X-10986376Y-46722812D01*
X-11021000Y-46548741D01*
X-11021000Y-46371259D01*
X-10986376Y-46197188D01*
X-10918456Y-46033216D01*
X-10819853Y-45885646D01*
X-10694354Y-45760147D01*
X-10546784Y-45661544D01*
X-10382812Y-45593624D01*
X-10233512Y-45563927D01*
X-10208742Y-45559000D01*
X-10031258Y-45559000D01*
X-10006488Y-45563927D01*
G37*
G36*
X-20166488Y-45563927D02*
G01*
X-20017188Y-45593624D01*
X-19853216Y-45661544D01*
X-19705646Y-45760147D01*
X-19580147Y-45885646D01*
X-19481544Y-46033216D01*
X-19413624Y-46197188D01*
X-19379000Y-46371259D01*
X-19379000Y-46548741D01*
X-19413624Y-46722812D01*
X-19481544Y-46886784D01*
X-19580147Y-47034354D01*
X-19705646Y-47159853D01*
X-19853216Y-47258456D01*
X-20017188Y-47326376D01*
X-20166488Y-47356073D01*
X-20191258Y-47361000D01*
X-20368742Y-47361000D01*
X-20393512Y-47356073D01*
X-20542812Y-47326376D01*
X-20706784Y-47258456D01*
X-20854354Y-47159853D01*
X-20979853Y-47034354D01*
X-21078456Y-46886784D01*
X-21146376Y-46722812D01*
X-21181000Y-46548741D01*
X-21181000Y-46371259D01*
X-21146376Y-46197188D01*
X-21078456Y-46033216D01*
X-20979853Y-45885646D01*
X-20854354Y-45760147D01*
X-20706784Y-45661544D01*
X-20542812Y-45593624D01*
X-20393512Y-45563927D01*
X-20368742Y-45559000D01*
X-20191258Y-45559000D01*
X-20166488Y-45563927D01*
G37*
G36*
X-7466488Y-45563927D02*
G01*
X-7317188Y-45593624D01*
X-7153216Y-45661544D01*
X-7005646Y-45760147D01*
X-6880147Y-45885646D01*
X-6781544Y-46033216D01*
X-6713624Y-46197188D01*
X-6679000Y-46371259D01*
X-6679000Y-46548741D01*
X-6713624Y-46722812D01*
X-6781544Y-46886784D01*
X-6880147Y-47034354D01*
X-7005646Y-47159853D01*
X-7153216Y-47258456D01*
X-7317188Y-47326376D01*
X-7466488Y-47356073D01*
X-7491258Y-47361000D01*
X-7668742Y-47361000D01*
X-7693512Y-47356073D01*
X-7842812Y-47326376D01*
X-8006784Y-47258456D01*
X-8154354Y-47159853D01*
X-8279853Y-47034354D01*
X-8378456Y-46886784D01*
X-8446376Y-46722812D01*
X-8481000Y-46548741D01*
X-8481000Y-46371259D01*
X-8446376Y-46197188D01*
X-8378456Y-46033216D01*
X-8279853Y-45885646D01*
X-8154354Y-45760147D01*
X-8006784Y-45661544D01*
X-7842812Y-45593624D01*
X-7693512Y-45563927D01*
X-7668742Y-45559000D01*
X-7491258Y-45559000D01*
X-7466488Y-45563927D01*
G37*
G36*
X-17626488Y-45563927D02*
G01*
X-17477188Y-45593624D01*
X-17313216Y-45661544D01*
X-17165646Y-45760147D01*
X-17040147Y-45885646D01*
X-16941544Y-46033216D01*
X-16873624Y-46197188D01*
X-16839000Y-46371259D01*
X-16839000Y-46548741D01*
X-16873624Y-46722812D01*
X-16941544Y-46886784D01*
X-17040147Y-47034354D01*
X-17165646Y-47159853D01*
X-17313216Y-47258456D01*
X-17477188Y-47326376D01*
X-17626488Y-47356073D01*
X-17651258Y-47361000D01*
X-17828742Y-47361000D01*
X-17853512Y-47356073D01*
X-18002812Y-47326376D01*
X-18166784Y-47258456D01*
X-18314354Y-47159853D01*
X-18439853Y-47034354D01*
X-18538456Y-46886784D01*
X-18606376Y-46722812D01*
X-18641000Y-46548741D01*
X-18641000Y-46371259D01*
X-18606376Y-46197188D01*
X-18538456Y-46033216D01*
X-18439853Y-45885646D01*
X-18314354Y-45760147D01*
X-18166784Y-45661544D01*
X-18002812Y-45593624D01*
X-17853512Y-45563927D01*
X-17828742Y-45559000D01*
X-17651258Y-45559000D01*
X-17626488Y-45563927D01*
G37*
G36*
X-4926488Y-45563927D02*
G01*
X-4777188Y-45593624D01*
X-4613216Y-45661544D01*
X-4465646Y-45760147D01*
X-4340147Y-45885646D01*
X-4241544Y-46033216D01*
X-4173624Y-46197188D01*
X-4139000Y-46371259D01*
X-4139000Y-46548741D01*
X-4173624Y-46722812D01*
X-4241544Y-46886784D01*
X-4340147Y-47034354D01*
X-4465646Y-47159853D01*
X-4613216Y-47258456D01*
X-4777188Y-47326376D01*
X-4926488Y-47356073D01*
X-4951258Y-47361000D01*
X-5128742Y-47361000D01*
X-5153512Y-47356073D01*
X-5302812Y-47326376D01*
X-5466784Y-47258456D01*
X-5614354Y-47159853D01*
X-5739853Y-47034354D01*
X-5838456Y-46886784D01*
X-5906376Y-46722812D01*
X-5941000Y-46548741D01*
X-5941000Y-46371259D01*
X-5906376Y-46197188D01*
X-5838456Y-46033216D01*
X-5739853Y-45885646D01*
X-5614354Y-45760147D01*
X-5466784Y-45661544D01*
X-5302812Y-45593624D01*
X-5153512Y-45563927D01*
X-5128742Y-45559000D01*
X-4951258Y-45559000D01*
X-4926488Y-45563927D01*
G37*
G36*
X-12546488Y-45563927D02*
G01*
X-12397188Y-45593624D01*
X-12233216Y-45661544D01*
X-12085646Y-45760147D01*
X-11960147Y-45885646D01*
X-11861544Y-46033216D01*
X-11793624Y-46197188D01*
X-11759000Y-46371259D01*
X-11759000Y-46548741D01*
X-11793624Y-46722812D01*
X-11861544Y-46886784D01*
X-11960147Y-47034354D01*
X-12085646Y-47159853D01*
X-12233216Y-47258456D01*
X-12397188Y-47326376D01*
X-12546488Y-47356073D01*
X-12571258Y-47361000D01*
X-12748742Y-47361000D01*
X-12773512Y-47356073D01*
X-12922812Y-47326376D01*
X-13086784Y-47258456D01*
X-13234354Y-47159853D01*
X-13359853Y-47034354D01*
X-13458456Y-46886784D01*
X-13526376Y-46722812D01*
X-13561000Y-46548741D01*
X-13561000Y-46371259D01*
X-13526376Y-46197188D01*
X-13458456Y-46033216D01*
X-13359853Y-45885646D01*
X-13234354Y-45760147D01*
X-13086784Y-45661544D01*
X-12922812Y-45593624D01*
X-12773512Y-45563927D01*
X-12748742Y-45559000D01*
X-12571258Y-45559000D01*
X-12546488Y-45563927D01*
G37*
G36*
X-15086488Y-45563927D02*
G01*
X-14937188Y-45593624D01*
X-14773216Y-45661544D01*
X-14625646Y-45760147D01*
X-14500147Y-45885646D01*
X-14401544Y-46033216D01*
X-14333624Y-46197188D01*
X-14299000Y-46371259D01*
X-14299000Y-46548741D01*
X-14333624Y-46722812D01*
X-14401544Y-46886784D01*
X-14500147Y-47034354D01*
X-14625646Y-47159853D01*
X-14773216Y-47258456D01*
X-14937188Y-47326376D01*
X-15086488Y-47356073D01*
X-15111258Y-47361000D01*
X-15288742Y-47361000D01*
X-15313512Y-47356073D01*
X-15462812Y-47326376D01*
X-15626784Y-47258456D01*
X-15774354Y-47159853D01*
X-15899853Y-47034354D01*
X-15998456Y-46886784D01*
X-16066376Y-46722812D01*
X-16101000Y-46548741D01*
X-16101000Y-46371259D01*
X-16066376Y-46197188D01*
X-15998456Y-46033216D01*
X-15899853Y-45885646D01*
X-15774354Y-45760147D01*
X-15626784Y-45661544D01*
X-15462812Y-45593624D01*
X-15313512Y-45563927D01*
X-15288742Y-45559000D01*
X-15111258Y-45559000D01*
X-15086488Y-45563927D01*
G37*
G36*
X-27786488Y-45563927D02*
G01*
X-27637188Y-45593624D01*
X-27473216Y-45661544D01*
X-27325646Y-45760147D01*
X-27200147Y-45885646D01*
X-27101544Y-46033216D01*
X-27033624Y-46197188D01*
X-26999000Y-46371259D01*
X-26999000Y-46548741D01*
X-27033624Y-46722812D01*
X-27101544Y-46886784D01*
X-27200147Y-47034354D01*
X-27325646Y-47159853D01*
X-27473216Y-47258456D01*
X-27637188Y-47326376D01*
X-27786488Y-47356073D01*
X-27811258Y-47361000D01*
X-27988742Y-47361000D01*
X-28013512Y-47356073D01*
X-28162812Y-47326376D01*
X-28326784Y-47258456D01*
X-28474354Y-47159853D01*
X-28599853Y-47034354D01*
X-28698456Y-46886784D01*
X-28766376Y-46722812D01*
X-28801000Y-46548741D01*
X-28801000Y-46371259D01*
X-28766376Y-46197188D01*
X-28698456Y-46033216D01*
X-28599853Y-45885646D01*
X-28474354Y-45760147D01*
X-28326784Y-45661544D01*
X-28162812Y-45593624D01*
X-28013512Y-45563927D01*
X-27988742Y-45559000D01*
X-27811258Y-45559000D01*
X-27786488Y-45563927D01*
G37*
G36*
X-1061326Y-43353465D02*
G01*
X-1023633Y-43364899D01*
X-988897Y-43383466D01*
X-958452Y-43408452D01*
X-933466Y-43438897D01*
X-914899Y-43473633D01*
X-903465Y-43511326D01*
X-899000Y-43556661D01*
X-899000Y-44643339D01*
X-903465Y-44688674D01*
X-914899Y-44726367D01*
X-933466Y-44761103D01*
X-958452Y-44791548D01*
X-988897Y-44816534D01*
X-1023633Y-44835101D01*
X-1061326Y-44846535D01*
X-1106661Y-44851000D01*
X-1943339Y-44851000D01*
X-1988674Y-44846535D01*
X-2026367Y-44835101D01*
X-2061103Y-44816534D01*
X-2091548Y-44791548D01*
X-2116534Y-44761103D01*
X-2135101Y-44726367D01*
X-2146535Y-44688674D01*
X-2151000Y-44643339D01*
X-2151000Y-43556661D01*
X-2146535Y-43511326D01*
X-2135101Y-43473633D01*
X-2116534Y-43438897D01*
X-2091548Y-43408452D01*
X-2061103Y-43383466D01*
X-2026367Y-43364899D01*
X-1988674Y-43353465D01*
X-1943339Y-43349000D01*
X-1106661Y-43349000D01*
X-1061326Y-43353465D01*
G37*
G36*
X988674Y-43353465D02*
G01*
X1026367Y-43364899D01*
X1061103Y-43383466D01*
X1091548Y-43408452D01*
X1116534Y-43438897D01*
X1135101Y-43473633D01*
X1146535Y-43511326D01*
X1151000Y-43556661D01*
X1151000Y-44643339D01*
X1146535Y-44688674D01*
X1135101Y-44726367D01*
X1116534Y-44761103D01*
X1091548Y-44791548D01*
X1061103Y-44816534D01*
X1026367Y-44835101D01*
X988674Y-44846535D01*
X943339Y-44851000D01*
X106661Y-44851000D01*
X61326Y-44846535D01*
X23633Y-44835101D01*
X-11103Y-44816534D01*
X-41548Y-44791548D01*
X-66534Y-44761103D01*
X-85101Y-44726367D01*
X-96535Y-44688674D01*
X-101000Y-44643339D01*
X-101000Y-43556661D01*
X-96535Y-43511326D01*
X-85101Y-43473633D01*
X-66534Y-43438897D01*
X-41548Y-43408452D01*
X-11103Y-43383466D01*
X23633Y-43364899D01*
X61326Y-43353465D01*
X106661Y-43349000D01*
X943339Y-43349000D01*
X988674Y-43353465D01*
G37*
G36*
X988674Y-40853465D02*
G01*
X1026367Y-40864899D01*
X1061103Y-40883466D01*
X1091548Y-40908452D01*
X1116534Y-40938897D01*
X1135101Y-40973633D01*
X1146535Y-41011326D01*
X1151000Y-41056661D01*
X1151000Y-42143339D01*
X1146535Y-42188674D01*
X1135101Y-42226367D01*
X1116534Y-42261103D01*
X1091548Y-42291548D01*
X1061103Y-42316534D01*
X1026367Y-42335101D01*
X988674Y-42346535D01*
X943339Y-42351000D01*
X106661Y-42351000D01*
X61326Y-42346535D01*
X23633Y-42335101D01*
X-11103Y-42316534D01*
X-41548Y-42291548D01*
X-66534Y-42261103D01*
X-85101Y-42226367D01*
X-96535Y-42188674D01*
X-101000Y-42143339D01*
X-101000Y-41056661D01*
X-96535Y-41011326D01*
X-85101Y-40973633D01*
X-66534Y-40938897D01*
X-41548Y-40908452D01*
X-11103Y-40883466D01*
X23633Y-40864899D01*
X61326Y-40853465D01*
X106661Y-40849000D01*
X943339Y-40849000D01*
X988674Y-40853465D01*
G37*
G36*
X-1061326Y-40853465D02*
G01*
X-1023633Y-40864899D01*
X-988897Y-40883466D01*
X-958452Y-40908452D01*
X-933466Y-40938897D01*
X-914899Y-40973633D01*
X-903465Y-41011326D01*
X-899000Y-41056661D01*
X-899000Y-42143339D01*
X-903465Y-42188674D01*
X-914899Y-42226367D01*
X-933466Y-42261103D01*
X-958452Y-42291548D01*
X-988897Y-42316534D01*
X-1023633Y-42335101D01*
X-1061326Y-42346535D01*
X-1106661Y-42351000D01*
X-1943339Y-42351000D01*
X-1988674Y-42346535D01*
X-2026367Y-42335101D01*
X-2061103Y-42316534D01*
X-2091548Y-42291548D01*
X-2116534Y-42261103D01*
X-2135101Y-42226367D01*
X-2146535Y-42188674D01*
X-2151000Y-42143339D01*
X-2151000Y-41056661D01*
X-2146535Y-41011326D01*
X-2135101Y-40973633D01*
X-2116534Y-40938897D01*
X-2091548Y-40908452D01*
X-2061103Y-40883466D01*
X-2026367Y-40864899D01*
X-1988674Y-40853465D01*
X-1943339Y-40849000D01*
X-1106661Y-40849000D01*
X-1061326Y-40853465D01*
G37*
G36*
X-54511326Y-39303465D02*
G01*
X-54473633Y-39314899D01*
X-54438897Y-39333466D01*
X-54408452Y-39358452D01*
X-54383466Y-39388897D01*
X-54364899Y-39423633D01*
X-54353465Y-39461326D01*
X-54349000Y-39506661D01*
X-54349000Y-40343339D01*
X-54353465Y-40388674D01*
X-54364899Y-40426367D01*
X-54383466Y-40461103D01*
X-54408452Y-40491548D01*
X-54438897Y-40516534D01*
X-54473633Y-40535101D01*
X-54511326Y-40546535D01*
X-54556661Y-40551000D01*
X-55643339Y-40551000D01*
X-55688674Y-40546535D01*
X-55726367Y-40535101D01*
X-55761103Y-40516534D01*
X-55791548Y-40491548D01*
X-55816534Y-40461103D01*
X-55835101Y-40426367D01*
X-55846535Y-40388674D01*
X-55851000Y-40343339D01*
X-55851000Y-39506661D01*
X-55846535Y-39461326D01*
X-55835101Y-39423633D01*
X-55816534Y-39388897D01*
X-55791548Y-39358452D01*
X-55761103Y-39333466D01*
X-55726367Y-39314899D01*
X-55688674Y-39303465D01*
X-55643339Y-39299000D01*
X-54556661Y-39299000D01*
X-54511326Y-39303465D01*
G37*
G36*
X-42261326Y-39303465D02*
G01*
X-42223633Y-39314899D01*
X-42188897Y-39333466D01*
X-42158452Y-39358452D01*
X-42133466Y-39388897D01*
X-42114899Y-39423633D01*
X-42103465Y-39461326D01*
X-42099000Y-39506661D01*
X-42099000Y-40343339D01*
X-42103465Y-40388674D01*
X-42114899Y-40426367D01*
X-42133466Y-40461103D01*
X-42158452Y-40491548D01*
X-42188897Y-40516534D01*
X-42223633Y-40535101D01*
X-42261326Y-40546535D01*
X-42306661Y-40551000D01*
X-43393339Y-40551000D01*
X-43438674Y-40546535D01*
X-43476367Y-40535101D01*
X-43511103Y-40516534D01*
X-43541548Y-40491548D01*
X-43566534Y-40461103D01*
X-43585101Y-40426367D01*
X-43596535Y-40388674D01*
X-43601000Y-40343339D01*
X-43601000Y-39506661D01*
X-43596535Y-39461326D01*
X-43585101Y-39423633D01*
X-43566534Y-39388897D01*
X-43541548Y-39358452D01*
X-43511103Y-39333466D01*
X-43476367Y-39314899D01*
X-43438674Y-39303465D01*
X-43393339Y-39299000D01*
X-42306661Y-39299000D01*
X-42261326Y-39303465D01*
G37*
G36*
X-45761326Y-39303465D02*
G01*
X-45723633Y-39314899D01*
X-45688897Y-39333466D01*
X-45658452Y-39358452D01*
X-45633466Y-39388897D01*
X-45614899Y-39423633D01*
X-45603465Y-39461326D01*
X-45599000Y-39506661D01*
X-45599000Y-40343339D01*
X-45603465Y-40388674D01*
X-45614899Y-40426367D01*
X-45633466Y-40461103D01*
X-45658452Y-40491548D01*
X-45688897Y-40516534D01*
X-45723633Y-40535101D01*
X-45761326Y-40546535D01*
X-45806661Y-40551000D01*
X-46893339Y-40551000D01*
X-46938674Y-40546535D01*
X-46976367Y-40535101D01*
X-47011103Y-40516534D01*
X-47041548Y-40491548D01*
X-47066534Y-40461103D01*
X-47085101Y-40426367D01*
X-47096535Y-40388674D01*
X-47101000Y-40343339D01*
X-47101000Y-39506661D01*
X-47096535Y-39461326D01*
X-47085101Y-39423633D01*
X-47066534Y-39388897D01*
X-47041548Y-39358452D01*
X-47011103Y-39333466D01*
X-46976367Y-39314899D01*
X-46938674Y-39303465D01*
X-46893339Y-39299000D01*
X-45806661Y-39299000D01*
X-45761326Y-39303465D01*
G37*
G36*
X-51011326Y-39303465D02*
G01*
X-50973633Y-39314899D01*
X-50938897Y-39333466D01*
X-50908452Y-39358452D01*
X-50883466Y-39388897D01*
X-50864899Y-39423633D01*
X-50853465Y-39461326D01*
X-50849000Y-39506661D01*
X-50849000Y-40343339D01*
X-50853465Y-40388674D01*
X-50864899Y-40426367D01*
X-50883466Y-40461103D01*
X-50908452Y-40491548D01*
X-50938897Y-40516534D01*
X-50973633Y-40535101D01*
X-51011326Y-40546535D01*
X-51056661Y-40551000D01*
X-52143339Y-40551000D01*
X-52188674Y-40546535D01*
X-52226367Y-40535101D01*
X-52261103Y-40516534D01*
X-52291548Y-40491548D01*
X-52316534Y-40461103D01*
X-52335101Y-40426367D01*
X-52346535Y-40388674D01*
X-52351000Y-40343339D01*
X-52351000Y-39506661D01*
X-52346535Y-39461326D01*
X-52335101Y-39423633D01*
X-52316534Y-39388897D01*
X-52291548Y-39358452D01*
X-52261103Y-39333466D01*
X-52226367Y-39314899D01*
X-52188674Y-39303465D01*
X-52143339Y-39299000D01*
X-51056661Y-39299000D01*
X-51011326Y-39303465D01*
G37*
G36*
X-15911326Y-39303465D02*
G01*
X-15873633Y-39314899D01*
X-15838897Y-39333466D01*
X-15808452Y-39358452D01*
X-15783466Y-39388897D01*
X-15764899Y-39423633D01*
X-15753465Y-39461326D01*
X-15749000Y-39506661D01*
X-15749000Y-40343339D01*
X-15753465Y-40388674D01*
X-15764899Y-40426367D01*
X-15783466Y-40461103D01*
X-15808452Y-40491548D01*
X-15838897Y-40516534D01*
X-15873633Y-40535101D01*
X-15911326Y-40546535D01*
X-15956661Y-40551000D01*
X-17043339Y-40551000D01*
X-17088674Y-40546535D01*
X-17126367Y-40535101D01*
X-17161103Y-40516534D01*
X-17191548Y-40491548D01*
X-17216534Y-40461103D01*
X-17235101Y-40426367D01*
X-17246535Y-40388674D01*
X-17251000Y-40343339D01*
X-17251000Y-39506661D01*
X-17246535Y-39461326D01*
X-17235101Y-39423633D01*
X-17216534Y-39388897D01*
X-17191548Y-39358452D01*
X-17161103Y-39333466D01*
X-17126367Y-39314899D01*
X-17088674Y-39303465D01*
X-17043339Y-39299000D01*
X-15956661Y-39299000D01*
X-15911326Y-39303465D01*
G37*
G36*
X-35411326Y-39303465D02*
G01*
X-35373633Y-39314899D01*
X-35338897Y-39333466D01*
X-35308452Y-39358452D01*
X-35283466Y-39388897D01*
X-35264899Y-39423633D01*
X-35253465Y-39461326D01*
X-35249000Y-39506661D01*
X-35249000Y-40343339D01*
X-35253465Y-40388674D01*
X-35264899Y-40426367D01*
X-35283466Y-40461103D01*
X-35308452Y-40491548D01*
X-35338897Y-40516534D01*
X-35373633Y-40535101D01*
X-35411326Y-40546535D01*
X-35456661Y-40551000D01*
X-36543339Y-40551000D01*
X-36588674Y-40546535D01*
X-36626367Y-40535101D01*
X-36661103Y-40516534D01*
X-36691548Y-40491548D01*
X-36716534Y-40461103D01*
X-36735101Y-40426367D01*
X-36746535Y-40388674D01*
X-36751000Y-40343339D01*
X-36751000Y-39506661D01*
X-36746535Y-39461326D01*
X-36735101Y-39423633D01*
X-36716534Y-39388897D01*
X-36691548Y-39358452D01*
X-36661103Y-39333466D01*
X-36626367Y-39314899D01*
X-36588674Y-39303465D01*
X-36543339Y-39299000D01*
X-35456661Y-39299000D01*
X-35411326Y-39303465D01*
G37*
G36*
X-31911326Y-39303465D02*
G01*
X-31873633Y-39314899D01*
X-31838897Y-39333466D01*
X-31808452Y-39358452D01*
X-31783466Y-39388897D01*
X-31764899Y-39423633D01*
X-31753465Y-39461326D01*
X-31749000Y-39506661D01*
X-31749000Y-40343339D01*
X-31753465Y-40388674D01*
X-31764899Y-40426367D01*
X-31783466Y-40461103D01*
X-31808452Y-40491548D01*
X-31838897Y-40516534D01*
X-31873633Y-40535101D01*
X-31911326Y-40546535D01*
X-31956661Y-40551000D01*
X-33043339Y-40551000D01*
X-33088674Y-40546535D01*
X-33126367Y-40535101D01*
X-33161103Y-40516534D01*
X-33191548Y-40491548D01*
X-33216534Y-40461103D01*
X-33235101Y-40426367D01*
X-33246535Y-40388674D01*
X-33251000Y-40343339D01*
X-33251000Y-39506661D01*
X-33246535Y-39461326D01*
X-33235101Y-39423633D01*
X-33216534Y-39388897D01*
X-33191548Y-39358452D01*
X-33161103Y-39333466D01*
X-33126367Y-39314899D01*
X-33088674Y-39303465D01*
X-33043339Y-39299000D01*
X-31956661Y-39299000D01*
X-31911326Y-39303465D01*
G37*
G36*
X-26411326Y-39303465D02*
G01*
X-26373633Y-39314899D01*
X-26338897Y-39333466D01*
X-26308452Y-39358452D01*
X-26283466Y-39388897D01*
X-26264899Y-39423633D01*
X-26253465Y-39461326D01*
X-26249000Y-39506661D01*
X-26249000Y-40343339D01*
X-26253465Y-40388674D01*
X-26264899Y-40426367D01*
X-26283466Y-40461103D01*
X-26308452Y-40491548D01*
X-26338897Y-40516534D01*
X-26373633Y-40535101D01*
X-26411326Y-40546535D01*
X-26456661Y-40551000D01*
X-27543339Y-40551000D01*
X-27588674Y-40546535D01*
X-27626367Y-40535101D01*
X-27661103Y-40516534D01*
X-27691548Y-40491548D01*
X-27716534Y-40461103D01*
X-27735101Y-40426367D01*
X-27746535Y-40388674D01*
X-27751000Y-40343339D01*
X-27751000Y-39506661D01*
X-27746535Y-39461326D01*
X-27735101Y-39423633D01*
X-27716534Y-39388897D01*
X-27691548Y-39358452D01*
X-27661103Y-39333466D01*
X-27626367Y-39314899D01*
X-27588674Y-39303465D01*
X-27543339Y-39299000D01*
X-26456661Y-39299000D01*
X-26411326Y-39303465D01*
G37*
G36*
X-22861326Y-39303465D02*
G01*
X-22823633Y-39314899D01*
X-22788897Y-39333466D01*
X-22758452Y-39358452D01*
X-22733466Y-39388897D01*
X-22714899Y-39423633D01*
X-22703465Y-39461326D01*
X-22699000Y-39506661D01*
X-22699000Y-40343339D01*
X-22703465Y-40388674D01*
X-22714899Y-40426367D01*
X-22733466Y-40461103D01*
X-22758452Y-40491548D01*
X-22788897Y-40516534D01*
X-22823633Y-40535101D01*
X-22861326Y-40546535D01*
X-22906661Y-40551000D01*
X-23993339Y-40551000D01*
X-24038674Y-40546535D01*
X-24076367Y-40535101D01*
X-24111103Y-40516534D01*
X-24141548Y-40491548D01*
X-24166534Y-40461103D01*
X-24185101Y-40426367D01*
X-24196535Y-40388674D01*
X-24201000Y-40343339D01*
X-24201000Y-39506661D01*
X-24196535Y-39461326D01*
X-24185101Y-39423633D01*
X-24166534Y-39388897D01*
X-24141548Y-39358452D01*
X-24111103Y-39333466D01*
X-24076367Y-39314899D01*
X-24038674Y-39303465D01*
X-23993339Y-39299000D01*
X-22906661Y-39299000D01*
X-22861326Y-39303465D01*
G37*
G36*
X-19361326Y-39303465D02*
G01*
X-19323633Y-39314899D01*
X-19288897Y-39333466D01*
X-19258452Y-39358452D01*
X-19233466Y-39388897D01*
X-19214899Y-39423633D01*
X-19203465Y-39461326D01*
X-19199000Y-39506661D01*
X-19199000Y-40343339D01*
X-19203465Y-40388674D01*
X-19214899Y-40426367D01*
X-19233466Y-40461103D01*
X-19258452Y-40491548D01*
X-19288897Y-40516534D01*
X-19323633Y-40535101D01*
X-19361326Y-40546535D01*
X-19406661Y-40551000D01*
X-20493339Y-40551000D01*
X-20538674Y-40546535D01*
X-20576367Y-40535101D01*
X-20611103Y-40516534D01*
X-20641548Y-40491548D01*
X-20666534Y-40461103D01*
X-20685101Y-40426367D01*
X-20696535Y-40388674D01*
X-20701000Y-40343339D01*
X-20701000Y-39506661D01*
X-20696535Y-39461326D01*
X-20685101Y-39423633D01*
X-20666534Y-39388897D01*
X-20641548Y-39358452D01*
X-20611103Y-39333466D01*
X-20576367Y-39314899D01*
X-20538674Y-39303465D01*
X-20493339Y-39299000D01*
X-19406661Y-39299000D01*
X-19361326Y-39303465D01*
G37*
G36*
X-11511326Y-39303465D02*
G01*
X-11473633Y-39314899D01*
X-11438897Y-39333466D01*
X-11408452Y-39358452D01*
X-11383466Y-39388897D01*
X-11364899Y-39423633D01*
X-11353465Y-39461326D01*
X-11349000Y-39506661D01*
X-11349000Y-40343339D01*
X-11353465Y-40388674D01*
X-11364899Y-40426367D01*
X-11383466Y-40461103D01*
X-11408452Y-40491548D01*
X-11438897Y-40516534D01*
X-11473633Y-40535101D01*
X-11511326Y-40546535D01*
X-11556661Y-40551000D01*
X-12643339Y-40551000D01*
X-12688674Y-40546535D01*
X-12726367Y-40535101D01*
X-12761103Y-40516534D01*
X-12791548Y-40491548D01*
X-12816534Y-40461103D01*
X-12835101Y-40426367D01*
X-12846535Y-40388674D01*
X-12851000Y-40343339D01*
X-12851000Y-39506661D01*
X-12846535Y-39461326D01*
X-12835101Y-39423633D01*
X-12816534Y-39388897D01*
X-12791548Y-39358452D01*
X-12761103Y-39333466D01*
X-12726367Y-39314899D01*
X-12688674Y-39303465D01*
X-12643339Y-39299000D01*
X-11556661Y-39299000D01*
X-11511326Y-39303465D01*
G37*
G36*
X-7811326Y-39303465D02*
G01*
X-7773633Y-39314899D01*
X-7738897Y-39333466D01*
X-7708452Y-39358452D01*
X-7683466Y-39388897D01*
X-7664899Y-39423633D01*
X-7653465Y-39461326D01*
X-7649000Y-39506661D01*
X-7649000Y-40343339D01*
X-7653465Y-40388674D01*
X-7664899Y-40426367D01*
X-7683466Y-40461103D01*
X-7708452Y-40491548D01*
X-7738897Y-40516534D01*
X-7773633Y-40535101D01*
X-7811326Y-40546535D01*
X-7856661Y-40551000D01*
X-8943339Y-40551000D01*
X-8988674Y-40546535D01*
X-9026367Y-40535101D01*
X-9061103Y-40516534D01*
X-9091548Y-40491548D01*
X-9116534Y-40461103D01*
X-9135101Y-40426367D01*
X-9146535Y-40388674D01*
X-9151000Y-40343339D01*
X-9151000Y-39506661D01*
X-9146535Y-39461326D01*
X-9135101Y-39423633D01*
X-9116534Y-39388897D01*
X-9091548Y-39358452D01*
X-9061103Y-39333466D01*
X-9026367Y-39314899D01*
X-8988674Y-39303465D01*
X-8943339Y-39299000D01*
X-7856661Y-39299000D01*
X-7811326Y-39303465D01*
G37*
G36*
X-4161326Y-39303465D02*
G01*
X-4123633Y-39314899D01*
X-4088897Y-39333466D01*
X-4058452Y-39358452D01*
X-4033466Y-39388897D01*
X-4014899Y-39423633D01*
X-4003465Y-39461326D01*
X-3999000Y-39506661D01*
X-3999000Y-40343339D01*
X-4003465Y-40388674D01*
X-4014899Y-40426367D01*
X-4033466Y-40461103D01*
X-4058452Y-40491548D01*
X-4088897Y-40516534D01*
X-4123633Y-40535101D01*
X-4161326Y-40546535D01*
X-4206661Y-40551000D01*
X-5293339Y-40551000D01*
X-5338674Y-40546535D01*
X-5376367Y-40535101D01*
X-5411103Y-40516534D01*
X-5441548Y-40491548D01*
X-5466534Y-40461103D01*
X-5485101Y-40426367D01*
X-5496535Y-40388674D01*
X-5501000Y-40343339D01*
X-5501000Y-39506661D01*
X-5496535Y-39461326D01*
X-5485101Y-39423633D01*
X-5466534Y-39388897D01*
X-5441548Y-39358452D01*
X-5411103Y-39333466D01*
X-5376367Y-39314899D01*
X-5338674Y-39303465D01*
X-5293339Y-39299000D01*
X-4206661Y-39299000D01*
X-4161326Y-39303465D01*
G37*
G36*
X-38811326Y-39303465D02*
G01*
X-38773633Y-39314899D01*
X-38738897Y-39333466D01*
X-38708452Y-39358452D01*
X-38683466Y-39388897D01*
X-38664899Y-39423633D01*
X-38653465Y-39461326D01*
X-38649000Y-39506661D01*
X-38649000Y-40343339D01*
X-38653465Y-40388674D01*
X-38664899Y-40426367D01*
X-38683466Y-40461103D01*
X-38708452Y-40491548D01*
X-38738897Y-40516534D01*
X-38773633Y-40535101D01*
X-38811326Y-40546535D01*
X-38856661Y-40551000D01*
X-39943339Y-40551000D01*
X-39988674Y-40546535D01*
X-40026367Y-40535101D01*
X-40061103Y-40516534D01*
X-40091548Y-40491548D01*
X-40116534Y-40461103D01*
X-40135101Y-40426367D01*
X-40146535Y-40388674D01*
X-40151000Y-40343339D01*
X-40151000Y-39506661D01*
X-40146535Y-39461326D01*
X-40135101Y-39423633D01*
X-40116534Y-39388897D01*
X-40091548Y-39358452D01*
X-40061103Y-39333466D01*
X-40026367Y-39314899D01*
X-39988674Y-39303465D01*
X-39943339Y-39299000D01*
X-38856661Y-39299000D01*
X-38811326Y-39303465D01*
G37*
G36*
X1001000Y-39501000D02*
G01*
X-1000Y-39501000D01*
X-1000Y-38599000D01*
X1001000Y-38599000D01*
X1001000Y-39501000D01*
G37*
G36*
X-999000Y-38551000D02*
G01*
X-2001000Y-38551000D01*
X-2001000Y-37649000D01*
X-999000Y-37649000D01*
X-999000Y-38551000D01*
G37*
G36*
X-26411326Y-37253465D02*
G01*
X-26373633Y-37264899D01*
X-26338897Y-37283466D01*
X-26308452Y-37308452D01*
X-26283466Y-37338897D01*
X-26264899Y-37373633D01*
X-26253465Y-37411326D01*
X-26249000Y-37456661D01*
X-26249000Y-38293339D01*
X-26253465Y-38338674D01*
X-26264899Y-38376367D01*
X-26283466Y-38411103D01*
X-26308452Y-38441548D01*
X-26338897Y-38466534D01*
X-26373633Y-38485101D01*
X-26411326Y-38496535D01*
X-26456661Y-38501000D01*
X-27543339Y-38501000D01*
X-27588674Y-38496535D01*
X-27626367Y-38485101D01*
X-27661103Y-38466534D01*
X-27691548Y-38441548D01*
X-27716534Y-38411103D01*
X-27735101Y-38376367D01*
X-27746535Y-38338674D01*
X-27751000Y-38293339D01*
X-27751000Y-37456661D01*
X-27746535Y-37411326D01*
X-27735101Y-37373633D01*
X-27716534Y-37338897D01*
X-27691548Y-37308452D01*
X-27661103Y-37283466D01*
X-27626367Y-37264899D01*
X-27588674Y-37253465D01*
X-27543339Y-37249000D01*
X-26456661Y-37249000D01*
X-26411326Y-37253465D01*
G37*
G36*
X-4161326Y-37253465D02*
G01*
X-4123633Y-37264899D01*
X-4088897Y-37283466D01*
X-4058452Y-37308452D01*
X-4033466Y-37338897D01*
X-4014899Y-37373633D01*
X-4003465Y-37411326D01*
X-3999000Y-37456661D01*
X-3999000Y-38293339D01*
X-4003465Y-38338674D01*
X-4014899Y-38376367D01*
X-4033466Y-38411103D01*
X-4058452Y-38441548D01*
X-4088897Y-38466534D01*
X-4123633Y-38485101D01*
X-4161326Y-38496535D01*
X-4206661Y-38501000D01*
X-5293339Y-38501000D01*
X-5338674Y-38496535D01*
X-5376367Y-38485101D01*
X-5411103Y-38466534D01*
X-5441548Y-38441548D01*
X-5466534Y-38411103D01*
X-5485101Y-38376367D01*
X-5496535Y-38338674D01*
X-5501000Y-38293339D01*
X-5501000Y-37456661D01*
X-5496535Y-37411326D01*
X-5485101Y-37373633D01*
X-5466534Y-37338897D01*
X-5441548Y-37308452D01*
X-5411103Y-37283466D01*
X-5376367Y-37264899D01*
X-5338674Y-37253465D01*
X-5293339Y-37249000D01*
X-4206661Y-37249000D01*
X-4161326Y-37253465D01*
G37*
G36*
X-38811326Y-37253465D02*
G01*
X-38773633Y-37264899D01*
X-38738897Y-37283466D01*
X-38708452Y-37308452D01*
X-38683466Y-37338897D01*
X-38664899Y-37373633D01*
X-38653465Y-37411326D01*
X-38649000Y-37456661D01*
X-38649000Y-38293339D01*
X-38653465Y-38338674D01*
X-38664899Y-38376367D01*
X-38683466Y-38411103D01*
X-38708452Y-38441548D01*
X-38738897Y-38466534D01*
X-38773633Y-38485101D01*
X-38811326Y-38496535D01*
X-38856661Y-38501000D01*
X-39943339Y-38501000D01*
X-39988674Y-38496535D01*
X-40026367Y-38485101D01*
X-40061103Y-38466534D01*
X-40091548Y-38441548D01*
X-40116534Y-38411103D01*
X-40135101Y-38376367D01*
X-40146535Y-38338674D01*
X-40151000Y-38293339D01*
X-40151000Y-37456661D01*
X-40146535Y-37411326D01*
X-40135101Y-37373633D01*
X-40116534Y-37338897D01*
X-40091548Y-37308452D01*
X-40061103Y-37283466D01*
X-40026367Y-37264899D01*
X-39988674Y-37253465D01*
X-39943339Y-37249000D01*
X-38856661Y-37249000D01*
X-38811326Y-37253465D01*
G37*
G36*
X-22861326Y-37253465D02*
G01*
X-22823633Y-37264899D01*
X-22788897Y-37283466D01*
X-22758452Y-37308452D01*
X-22733466Y-37338897D01*
X-22714899Y-37373633D01*
X-22703465Y-37411326D01*
X-22699000Y-37456661D01*
X-22699000Y-38293339D01*
X-22703465Y-38338674D01*
X-22714899Y-38376367D01*
X-22733466Y-38411103D01*
X-22758452Y-38441548D01*
X-22788897Y-38466534D01*
X-22823633Y-38485101D01*
X-22861326Y-38496535D01*
X-22906661Y-38501000D01*
X-23993339Y-38501000D01*
X-24038674Y-38496535D01*
X-24076367Y-38485101D01*
X-24111103Y-38466534D01*
X-24141548Y-38441548D01*
X-24166534Y-38411103D01*
X-24185101Y-38376367D01*
X-24196535Y-38338674D01*
X-24201000Y-38293339D01*
X-24201000Y-37456661D01*
X-24196535Y-37411326D01*
X-24185101Y-37373633D01*
X-24166534Y-37338897D01*
X-24141548Y-37308452D01*
X-24111103Y-37283466D01*
X-24076367Y-37264899D01*
X-24038674Y-37253465D01*
X-23993339Y-37249000D01*
X-22906661Y-37249000D01*
X-22861326Y-37253465D01*
G37*
G36*
X-42261326Y-37253465D02*
G01*
X-42223633Y-37264899D01*
X-42188897Y-37283466D01*
X-42158452Y-37308452D01*
X-42133466Y-37338897D01*
X-42114899Y-37373633D01*
X-42103465Y-37411326D01*
X-42099000Y-37456661D01*
X-42099000Y-38293339D01*
X-42103465Y-38338674D01*
X-42114899Y-38376367D01*
X-42133466Y-38411103D01*
X-42158452Y-38441548D01*
X-42188897Y-38466534D01*
X-42223633Y-38485101D01*
X-42261326Y-38496535D01*
X-42306661Y-38501000D01*
X-43393339Y-38501000D01*
X-43438674Y-38496535D01*
X-43476367Y-38485101D01*
X-43511103Y-38466534D01*
X-43541548Y-38441548D01*
X-43566534Y-38411103D01*
X-43585101Y-38376367D01*
X-43596535Y-38338674D01*
X-43601000Y-38293339D01*
X-43601000Y-37456661D01*
X-43596535Y-37411326D01*
X-43585101Y-37373633D01*
X-43566534Y-37338897D01*
X-43541548Y-37308452D01*
X-43511103Y-37283466D01*
X-43476367Y-37264899D01*
X-43438674Y-37253465D01*
X-43393339Y-37249000D01*
X-42306661Y-37249000D01*
X-42261326Y-37253465D01*
G37*
G36*
X-15911326Y-37253465D02*
G01*
X-15873633Y-37264899D01*
X-15838897Y-37283466D01*
X-15808452Y-37308452D01*
X-15783466Y-37338897D01*
X-15764899Y-37373633D01*
X-15753465Y-37411326D01*
X-15749000Y-37456661D01*
X-15749000Y-38293339D01*
X-15753465Y-38338674D01*
X-15764899Y-38376367D01*
X-15783466Y-38411103D01*
X-15808452Y-38441548D01*
X-15838897Y-38466534D01*
X-15873633Y-38485101D01*
X-15911326Y-38496535D01*
X-15956661Y-38501000D01*
X-17043339Y-38501000D01*
X-17088674Y-38496535D01*
X-17126367Y-38485101D01*
X-17161103Y-38466534D01*
X-17191548Y-38441548D01*
X-17216534Y-38411103D01*
X-17235101Y-38376367D01*
X-17246535Y-38338674D01*
X-17251000Y-38293339D01*
X-17251000Y-37456661D01*
X-17246535Y-37411326D01*
X-17235101Y-37373633D01*
X-17216534Y-37338897D01*
X-17191548Y-37308452D01*
X-17161103Y-37283466D01*
X-17126367Y-37264899D01*
X-17088674Y-37253465D01*
X-17043339Y-37249000D01*
X-15956661Y-37249000D01*
X-15911326Y-37253465D01*
G37*
G36*
X-35411326Y-37253465D02*
G01*
X-35373633Y-37264899D01*
X-35338897Y-37283466D01*
X-35308452Y-37308452D01*
X-35283466Y-37338897D01*
X-35264899Y-37373633D01*
X-35253465Y-37411326D01*
X-35249000Y-37456661D01*
X-35249000Y-38293339D01*
X-35253465Y-38338674D01*
X-35264899Y-38376367D01*
X-35283466Y-38411103D01*
X-35308452Y-38441548D01*
X-35338897Y-38466534D01*
X-35373633Y-38485101D01*
X-35411326Y-38496535D01*
X-35456661Y-38501000D01*
X-36543339Y-38501000D01*
X-36588674Y-38496535D01*
X-36626367Y-38485101D01*
X-36661103Y-38466534D01*
X-36691548Y-38441548D01*
X-36716534Y-38411103D01*
X-36735101Y-38376367D01*
X-36746535Y-38338674D01*
X-36751000Y-38293339D01*
X-36751000Y-37456661D01*
X-36746535Y-37411326D01*
X-36735101Y-37373633D01*
X-36716534Y-37338897D01*
X-36691548Y-37308452D01*
X-36661103Y-37283466D01*
X-36626367Y-37264899D01*
X-36588674Y-37253465D01*
X-36543339Y-37249000D01*
X-35456661Y-37249000D01*
X-35411326Y-37253465D01*
G37*
G36*
X-51011326Y-37253465D02*
G01*
X-50973633Y-37264899D01*
X-50938897Y-37283466D01*
X-50908452Y-37308452D01*
X-50883466Y-37338897D01*
X-50864899Y-37373633D01*
X-50853465Y-37411326D01*
X-50849000Y-37456661D01*
X-50849000Y-38293339D01*
X-50853465Y-38338674D01*
X-50864899Y-38376367D01*
X-50883466Y-38411103D01*
X-50908452Y-38441548D01*
X-50938897Y-38466534D01*
X-50973633Y-38485101D01*
X-51011326Y-38496535D01*
X-51056661Y-38501000D01*
X-52143339Y-38501000D01*
X-52188674Y-38496535D01*
X-52226367Y-38485101D01*
X-52261103Y-38466534D01*
X-52291548Y-38441548D01*
X-52316534Y-38411103D01*
X-52335101Y-38376367D01*
X-52346535Y-38338674D01*
X-52351000Y-38293339D01*
X-52351000Y-37456661D01*
X-52346535Y-37411326D01*
X-52335101Y-37373633D01*
X-52316534Y-37338897D01*
X-52291548Y-37308452D01*
X-52261103Y-37283466D01*
X-52226367Y-37264899D01*
X-52188674Y-37253465D01*
X-52143339Y-37249000D01*
X-51056661Y-37249000D01*
X-51011326Y-37253465D01*
G37*
G36*
X-11511326Y-37253465D02*
G01*
X-11473633Y-37264899D01*
X-11438897Y-37283466D01*
X-11408452Y-37308452D01*
X-11383466Y-37338897D01*
X-11364899Y-37373633D01*
X-11353465Y-37411326D01*
X-11349000Y-37456661D01*
X-11349000Y-38293339D01*
X-11353465Y-38338674D01*
X-11364899Y-38376367D01*
X-11383466Y-38411103D01*
X-11408452Y-38441548D01*
X-11438897Y-38466534D01*
X-11473633Y-38485101D01*
X-11511326Y-38496535D01*
X-11556661Y-38501000D01*
X-12643339Y-38501000D01*
X-12688674Y-38496535D01*
X-12726367Y-38485101D01*
X-12761103Y-38466534D01*
X-12791548Y-38441548D01*
X-12816534Y-38411103D01*
X-12835101Y-38376367D01*
X-12846535Y-38338674D01*
X-12851000Y-38293339D01*
X-12851000Y-37456661D01*
X-12846535Y-37411326D01*
X-12835101Y-37373633D01*
X-12816534Y-37338897D01*
X-12791548Y-37308452D01*
X-12761103Y-37283466D01*
X-12726367Y-37264899D01*
X-12688674Y-37253465D01*
X-12643339Y-37249000D01*
X-11556661Y-37249000D01*
X-11511326Y-37253465D01*
G37*
G36*
X-54511326Y-37253465D02*
G01*
X-54473633Y-37264899D01*
X-54438897Y-37283466D01*
X-54408452Y-37308452D01*
X-54383466Y-37338897D01*
X-54364899Y-37373633D01*
X-54353465Y-37411326D01*
X-54349000Y-37456661D01*
X-54349000Y-38293339D01*
X-54353465Y-38338674D01*
X-54364899Y-38376367D01*
X-54383466Y-38411103D01*
X-54408452Y-38441548D01*
X-54438897Y-38466534D01*
X-54473633Y-38485101D01*
X-54511326Y-38496535D01*
X-54556661Y-38501000D01*
X-55643339Y-38501000D01*
X-55688674Y-38496535D01*
X-55726367Y-38485101D01*
X-55761103Y-38466534D01*
X-55791548Y-38441548D01*
X-55816534Y-38411103D01*
X-55835101Y-38376367D01*
X-55846535Y-38338674D01*
X-55851000Y-38293339D01*
X-55851000Y-37456661D01*
X-55846535Y-37411326D01*
X-55835101Y-37373633D01*
X-55816534Y-37338897D01*
X-55791548Y-37308452D01*
X-55761103Y-37283466D01*
X-55726367Y-37264899D01*
X-55688674Y-37253465D01*
X-55643339Y-37249000D01*
X-54556661Y-37249000D01*
X-54511326Y-37253465D01*
G37*
G36*
X-45761326Y-37253465D02*
G01*
X-45723633Y-37264899D01*
X-45688897Y-37283466D01*
X-45658452Y-37308452D01*
X-45633466Y-37338897D01*
X-45614899Y-37373633D01*
X-45603465Y-37411326D01*
X-45599000Y-37456661D01*
X-45599000Y-38293339D01*
X-45603465Y-38338674D01*
X-45614899Y-38376367D01*
X-45633466Y-38411103D01*
X-45658452Y-38441548D01*
X-45688897Y-38466534D01*
X-45723633Y-38485101D01*
X-45761326Y-38496535D01*
X-45806661Y-38501000D01*
X-46893339Y-38501000D01*
X-46938674Y-38496535D01*
X-46976367Y-38485101D01*
X-47011103Y-38466534D01*
X-47041548Y-38441548D01*
X-47066534Y-38411103D01*
X-47085101Y-38376367D01*
X-47096535Y-38338674D01*
X-47101000Y-38293339D01*
X-47101000Y-37456661D01*
X-47096535Y-37411326D01*
X-47085101Y-37373633D01*
X-47066534Y-37338897D01*
X-47041548Y-37308452D01*
X-47011103Y-37283466D01*
X-46976367Y-37264899D01*
X-46938674Y-37253465D01*
X-46893339Y-37249000D01*
X-45806661Y-37249000D01*
X-45761326Y-37253465D01*
G37*
G36*
X-19361326Y-37253465D02*
G01*
X-19323633Y-37264899D01*
X-19288897Y-37283466D01*
X-19258452Y-37308452D01*
X-19233466Y-37338897D01*
X-19214899Y-37373633D01*
X-19203465Y-37411326D01*
X-19199000Y-37456661D01*
X-19199000Y-38293339D01*
X-19203465Y-38338674D01*
X-19214899Y-38376367D01*
X-19233466Y-38411103D01*
X-19258452Y-38441548D01*
X-19288897Y-38466534D01*
X-19323633Y-38485101D01*
X-19361326Y-38496535D01*
X-19406661Y-38501000D01*
X-20493339Y-38501000D01*
X-20538674Y-38496535D01*
X-20576367Y-38485101D01*
X-20611103Y-38466534D01*
X-20641548Y-38441548D01*
X-20666534Y-38411103D01*
X-20685101Y-38376367D01*
X-20696535Y-38338674D01*
X-20701000Y-38293339D01*
X-20701000Y-37456661D01*
X-20696535Y-37411326D01*
X-20685101Y-37373633D01*
X-20666534Y-37338897D01*
X-20641548Y-37308452D01*
X-20611103Y-37283466D01*
X-20576367Y-37264899D01*
X-20538674Y-37253465D01*
X-20493339Y-37249000D01*
X-19406661Y-37249000D01*
X-19361326Y-37253465D01*
G37*
G36*
X-31911326Y-37253465D02*
G01*
X-31873633Y-37264899D01*
X-31838897Y-37283466D01*
X-31808452Y-37308452D01*
X-31783466Y-37338897D01*
X-31764899Y-37373633D01*
X-31753465Y-37411326D01*
X-31749000Y-37456661D01*
X-31749000Y-38293339D01*
X-31753465Y-38338674D01*
X-31764899Y-38376367D01*
X-31783466Y-38411103D01*
X-31808452Y-38441548D01*
X-31838897Y-38466534D01*
X-31873633Y-38485101D01*
X-31911326Y-38496535D01*
X-31956661Y-38501000D01*
X-33043339Y-38501000D01*
X-33088674Y-38496535D01*
X-33126367Y-38485101D01*
X-33161103Y-38466534D01*
X-33191548Y-38441548D01*
X-33216534Y-38411103D01*
X-33235101Y-38376367D01*
X-33246535Y-38338674D01*
X-33251000Y-38293339D01*
X-33251000Y-37456661D01*
X-33246535Y-37411326D01*
X-33235101Y-37373633D01*
X-33216534Y-37338897D01*
X-33191548Y-37308452D01*
X-33161103Y-37283466D01*
X-33126367Y-37264899D01*
X-33088674Y-37253465D01*
X-33043339Y-37249000D01*
X-31956661Y-37249000D01*
X-31911326Y-37253465D01*
G37*
G36*
X-7811326Y-37253465D02*
G01*
X-7773633Y-37264899D01*
X-7738897Y-37283466D01*
X-7708452Y-37308452D01*
X-7683466Y-37338897D01*
X-7664899Y-37373633D01*
X-7653465Y-37411326D01*
X-7649000Y-37456661D01*
X-7649000Y-38293339D01*
X-7653465Y-38338674D01*
X-7664899Y-38376367D01*
X-7683466Y-38411103D01*
X-7708452Y-38441548D01*
X-7738897Y-38466534D01*
X-7773633Y-38485101D01*
X-7811326Y-38496535D01*
X-7856661Y-38501000D01*
X-8943339Y-38501000D01*
X-8988674Y-38496535D01*
X-9026367Y-38485101D01*
X-9061103Y-38466534D01*
X-9091548Y-38441548D01*
X-9116534Y-38411103D01*
X-9135101Y-38376367D01*
X-9146535Y-38338674D01*
X-9151000Y-38293339D01*
X-9151000Y-37456661D01*
X-9146535Y-37411326D01*
X-9135101Y-37373633D01*
X-9116534Y-37338897D01*
X-9091548Y-37308452D01*
X-9061103Y-37283466D01*
X-9026367Y-37264899D01*
X-8988674Y-37253465D01*
X-8943339Y-37249000D01*
X-7856661Y-37249000D01*
X-7811326Y-37253465D01*
G37*
G36*
X1001000Y-37601000D02*
G01*
X-1000Y-37601000D01*
X-1000Y-36699000D01*
X1001000Y-36699000D01*
X1001000Y-37601000D01*
G37*
G36*
X-19361326Y-33553465D02*
G01*
X-19323633Y-33564899D01*
X-19288897Y-33583466D01*
X-19258452Y-33608452D01*
X-19233466Y-33638897D01*
X-19214899Y-33673633D01*
X-19203465Y-33711326D01*
X-19199000Y-33756661D01*
X-19199000Y-34593339D01*
X-19203465Y-34638674D01*
X-19214899Y-34676367D01*
X-19233466Y-34711103D01*
X-19258452Y-34741548D01*
X-19288897Y-34766534D01*
X-19323633Y-34785101D01*
X-19361326Y-34796535D01*
X-19406661Y-34801000D01*
X-20493339Y-34801000D01*
X-20538674Y-34796535D01*
X-20576367Y-34785101D01*
X-20611103Y-34766534D01*
X-20641548Y-34741548D01*
X-20666534Y-34711103D01*
X-20685101Y-34676367D01*
X-20696535Y-34638674D01*
X-20701000Y-34593339D01*
X-20701000Y-33756661D01*
X-20696535Y-33711326D01*
X-20685101Y-33673633D01*
X-20666534Y-33638897D01*
X-20641548Y-33608452D01*
X-20611103Y-33583466D01*
X-20576367Y-33564899D01*
X-20538674Y-33553465D01*
X-20493339Y-33549000D01*
X-19406661Y-33549000D01*
X-19361326Y-33553465D01*
G37*
G36*
X-45761326Y-33553465D02*
G01*
X-45723633Y-33564899D01*
X-45688897Y-33583466D01*
X-45658452Y-33608452D01*
X-45633466Y-33638897D01*
X-45614899Y-33673633D01*
X-45603465Y-33711326D01*
X-45599000Y-33756661D01*
X-45599000Y-34593339D01*
X-45603465Y-34638674D01*
X-45614899Y-34676367D01*
X-45633466Y-34711103D01*
X-45658452Y-34741548D01*
X-45688897Y-34766534D01*
X-45723633Y-34785101D01*
X-45761326Y-34796535D01*
X-45806661Y-34801000D01*
X-46893339Y-34801000D01*
X-46938674Y-34796535D01*
X-46976367Y-34785101D01*
X-47011103Y-34766534D01*
X-47041548Y-34741548D01*
X-47066534Y-34711103D01*
X-47085101Y-34676367D01*
X-47096535Y-34638674D01*
X-47101000Y-34593339D01*
X-47101000Y-33756661D01*
X-47096535Y-33711326D01*
X-47085101Y-33673633D01*
X-47066534Y-33638897D01*
X-47041548Y-33608452D01*
X-47011103Y-33583466D01*
X-46976367Y-33564899D01*
X-46938674Y-33553465D01*
X-46893339Y-33549000D01*
X-45806661Y-33549000D01*
X-45761326Y-33553465D01*
G37*
G36*
X-54511326Y-33553465D02*
G01*
X-54473633Y-33564899D01*
X-54438897Y-33583466D01*
X-54408452Y-33608452D01*
X-54383466Y-33638897D01*
X-54364899Y-33673633D01*
X-54353465Y-33711326D01*
X-54349000Y-33756661D01*
X-54349000Y-34593339D01*
X-54353465Y-34638674D01*
X-54364899Y-34676367D01*
X-54383466Y-34711103D01*
X-54408452Y-34741548D01*
X-54438897Y-34766534D01*
X-54473633Y-34785101D01*
X-54511326Y-34796535D01*
X-54556661Y-34801000D01*
X-55643339Y-34801000D01*
X-55688674Y-34796535D01*
X-55726367Y-34785101D01*
X-55761103Y-34766534D01*
X-55791548Y-34741548D01*
X-55816534Y-34711103D01*
X-55835101Y-34676367D01*
X-55846535Y-34638674D01*
X-55851000Y-34593339D01*
X-55851000Y-33756661D01*
X-55846535Y-33711326D01*
X-55835101Y-33673633D01*
X-55816534Y-33638897D01*
X-55791548Y-33608452D01*
X-55761103Y-33583466D01*
X-55726367Y-33564899D01*
X-55688674Y-33553465D01*
X-55643339Y-33549000D01*
X-54556661Y-33549000D01*
X-54511326Y-33553465D01*
G37*
G36*
X-51011326Y-33553465D02*
G01*
X-50973633Y-33564899D01*
X-50938897Y-33583466D01*
X-50908452Y-33608452D01*
X-50883466Y-33638897D01*
X-50864899Y-33673633D01*
X-50853465Y-33711326D01*
X-50849000Y-33756661D01*
X-50849000Y-34593339D01*
X-50853465Y-34638674D01*
X-50864899Y-34676367D01*
X-50883466Y-34711103D01*
X-50908452Y-34741548D01*
X-50938897Y-34766534D01*
X-50973633Y-34785101D01*
X-51011326Y-34796535D01*
X-51056661Y-34801000D01*
X-52143339Y-34801000D01*
X-52188674Y-34796535D01*
X-52226367Y-34785101D01*
X-52261103Y-34766534D01*
X-52291548Y-34741548D01*
X-52316534Y-34711103D01*
X-52335101Y-34676367D01*
X-52346535Y-34638674D01*
X-52351000Y-34593339D01*
X-52351000Y-33756661D01*
X-52346535Y-33711326D01*
X-52335101Y-33673633D01*
X-52316534Y-33638897D01*
X-52291548Y-33608452D01*
X-52261103Y-33583466D01*
X-52226367Y-33564899D01*
X-52188674Y-33553465D01*
X-52143339Y-33549000D01*
X-51056661Y-33549000D01*
X-51011326Y-33553465D01*
G37*
G36*
X-4161326Y-33553465D02*
G01*
X-4123633Y-33564899D01*
X-4088897Y-33583466D01*
X-4058452Y-33608452D01*
X-4033466Y-33638897D01*
X-4014899Y-33673633D01*
X-4003465Y-33711326D01*
X-3999000Y-33756661D01*
X-3999000Y-34593339D01*
X-4003465Y-34638674D01*
X-4014899Y-34676367D01*
X-4033466Y-34711103D01*
X-4058452Y-34741548D01*
X-4088897Y-34766534D01*
X-4123633Y-34785101D01*
X-4161326Y-34796535D01*
X-4206661Y-34801000D01*
X-5293339Y-34801000D01*
X-5338674Y-34796535D01*
X-5376367Y-34785101D01*
X-5411103Y-34766534D01*
X-5441548Y-34741548D01*
X-5466534Y-34711103D01*
X-5485101Y-34676367D01*
X-5496535Y-34638674D01*
X-5501000Y-34593339D01*
X-5501000Y-33756661D01*
X-5496535Y-33711326D01*
X-5485101Y-33673633D01*
X-5466534Y-33638897D01*
X-5441548Y-33608452D01*
X-5411103Y-33583466D01*
X-5376367Y-33564899D01*
X-5338674Y-33553465D01*
X-5293339Y-33549000D01*
X-4206661Y-33549000D01*
X-4161326Y-33553465D01*
G37*
G36*
X-7811326Y-33553465D02*
G01*
X-7773633Y-33564899D01*
X-7738897Y-33583466D01*
X-7708452Y-33608452D01*
X-7683466Y-33638897D01*
X-7664899Y-33673633D01*
X-7653465Y-33711326D01*
X-7649000Y-33756661D01*
X-7649000Y-34593339D01*
X-7653465Y-34638674D01*
X-7664899Y-34676367D01*
X-7683466Y-34711103D01*
X-7708452Y-34741548D01*
X-7738897Y-34766534D01*
X-7773633Y-34785101D01*
X-7811326Y-34796535D01*
X-7856661Y-34801000D01*
X-8943339Y-34801000D01*
X-8988674Y-34796535D01*
X-9026367Y-34785101D01*
X-9061103Y-34766534D01*
X-9091548Y-34741548D01*
X-9116534Y-34711103D01*
X-9135101Y-34676367D01*
X-9146535Y-34638674D01*
X-9151000Y-34593339D01*
X-9151000Y-33756661D01*
X-9146535Y-33711326D01*
X-9135101Y-33673633D01*
X-9116534Y-33638897D01*
X-9091548Y-33608452D01*
X-9061103Y-33583466D01*
X-9026367Y-33564899D01*
X-8988674Y-33553465D01*
X-8943339Y-33549000D01*
X-7856661Y-33549000D01*
X-7811326Y-33553465D01*
G37*
G36*
X-11511326Y-33553465D02*
G01*
X-11473633Y-33564899D01*
X-11438897Y-33583466D01*
X-11408452Y-33608452D01*
X-11383466Y-33638897D01*
X-11364899Y-33673633D01*
X-11353465Y-33711326D01*
X-11349000Y-33756661D01*
X-11349000Y-34593339D01*
X-11353465Y-34638674D01*
X-11364899Y-34676367D01*
X-11383466Y-34711103D01*
X-11408452Y-34741548D01*
X-11438897Y-34766534D01*
X-11473633Y-34785101D01*
X-11511326Y-34796535D01*
X-11556661Y-34801000D01*
X-12643339Y-34801000D01*
X-12688674Y-34796535D01*
X-12726367Y-34785101D01*
X-12761103Y-34766534D01*
X-12791548Y-34741548D01*
X-12816534Y-34711103D01*
X-12835101Y-34676367D01*
X-12846535Y-34638674D01*
X-12851000Y-34593339D01*
X-12851000Y-33756661D01*
X-12846535Y-33711326D01*
X-12835101Y-33673633D01*
X-12816534Y-33638897D01*
X-12791548Y-33608452D01*
X-12761103Y-33583466D01*
X-12726367Y-33564899D01*
X-12688674Y-33553465D01*
X-12643339Y-33549000D01*
X-11556661Y-33549000D01*
X-11511326Y-33553465D01*
G37*
G36*
X-15911326Y-33553465D02*
G01*
X-15873633Y-33564899D01*
X-15838897Y-33583466D01*
X-15808452Y-33608452D01*
X-15783466Y-33638897D01*
X-15764899Y-33673633D01*
X-15753465Y-33711326D01*
X-15749000Y-33756661D01*
X-15749000Y-34593339D01*
X-15753465Y-34638674D01*
X-15764899Y-34676367D01*
X-15783466Y-34711103D01*
X-15808452Y-34741548D01*
X-15838897Y-34766534D01*
X-15873633Y-34785101D01*
X-15911326Y-34796535D01*
X-15956661Y-34801000D01*
X-17043339Y-34801000D01*
X-17088674Y-34796535D01*
X-17126367Y-34785101D01*
X-17161103Y-34766534D01*
X-17191548Y-34741548D01*
X-17216534Y-34711103D01*
X-17235101Y-34676367D01*
X-17246535Y-34638674D01*
X-17251000Y-34593339D01*
X-17251000Y-33756661D01*
X-17246535Y-33711326D01*
X-17235101Y-33673633D01*
X-17216534Y-33638897D01*
X-17191548Y-33608452D01*
X-17161103Y-33583466D01*
X-17126367Y-33564899D01*
X-17088674Y-33553465D01*
X-17043339Y-33549000D01*
X-15956661Y-33549000D01*
X-15911326Y-33553465D01*
G37*
G36*
X-22861326Y-33553465D02*
G01*
X-22823633Y-33564899D01*
X-22788897Y-33583466D01*
X-22758452Y-33608452D01*
X-22733466Y-33638897D01*
X-22714899Y-33673633D01*
X-22703465Y-33711326D01*
X-22699000Y-33756661D01*
X-22699000Y-34593339D01*
X-22703465Y-34638674D01*
X-22714899Y-34676367D01*
X-22733466Y-34711103D01*
X-22758452Y-34741548D01*
X-22788897Y-34766534D01*
X-22823633Y-34785101D01*
X-22861326Y-34796535D01*
X-22906661Y-34801000D01*
X-23993339Y-34801000D01*
X-24038674Y-34796535D01*
X-24076367Y-34785101D01*
X-24111103Y-34766534D01*
X-24141548Y-34741548D01*
X-24166534Y-34711103D01*
X-24185101Y-34676367D01*
X-24196535Y-34638674D01*
X-24201000Y-34593339D01*
X-24201000Y-33756661D01*
X-24196535Y-33711326D01*
X-24185101Y-33673633D01*
X-24166534Y-33638897D01*
X-24141548Y-33608452D01*
X-24111103Y-33583466D01*
X-24076367Y-33564899D01*
X-24038674Y-33553465D01*
X-23993339Y-33549000D01*
X-22906661Y-33549000D01*
X-22861326Y-33553465D01*
G37*
G36*
X-26411326Y-33553465D02*
G01*
X-26373633Y-33564899D01*
X-26338897Y-33583466D01*
X-26308452Y-33608452D01*
X-26283466Y-33638897D01*
X-26264899Y-33673633D01*
X-26253465Y-33711326D01*
X-26249000Y-33756661D01*
X-26249000Y-34593339D01*
X-26253465Y-34638674D01*
X-26264899Y-34676367D01*
X-26283466Y-34711103D01*
X-26308452Y-34741548D01*
X-26338897Y-34766534D01*
X-26373633Y-34785101D01*
X-26411326Y-34796535D01*
X-26456661Y-34801000D01*
X-27543339Y-34801000D01*
X-27588674Y-34796535D01*
X-27626367Y-34785101D01*
X-27661103Y-34766534D01*
X-27691548Y-34741548D01*
X-27716534Y-34711103D01*
X-27735101Y-34676367D01*
X-27746535Y-34638674D01*
X-27751000Y-34593339D01*
X-27751000Y-33756661D01*
X-27746535Y-33711326D01*
X-27735101Y-33673633D01*
X-27716534Y-33638897D01*
X-27691548Y-33608452D01*
X-27661103Y-33583466D01*
X-27626367Y-33564899D01*
X-27588674Y-33553465D01*
X-27543339Y-33549000D01*
X-26456661Y-33549000D01*
X-26411326Y-33553465D01*
G37*
G36*
X-31911326Y-33553465D02*
G01*
X-31873633Y-33564899D01*
X-31838897Y-33583466D01*
X-31808452Y-33608452D01*
X-31783466Y-33638897D01*
X-31764899Y-33673633D01*
X-31753465Y-33711326D01*
X-31749000Y-33756661D01*
X-31749000Y-34593339D01*
X-31753465Y-34638674D01*
X-31764899Y-34676367D01*
X-31783466Y-34711103D01*
X-31808452Y-34741548D01*
X-31838897Y-34766534D01*
X-31873633Y-34785101D01*
X-31911326Y-34796535D01*
X-31956661Y-34801000D01*
X-33043339Y-34801000D01*
X-33088674Y-34796535D01*
X-33126367Y-34785101D01*
X-33161103Y-34766534D01*
X-33191548Y-34741548D01*
X-33216534Y-34711103D01*
X-33235101Y-34676367D01*
X-33246535Y-34638674D01*
X-33251000Y-34593339D01*
X-33251000Y-33756661D01*
X-33246535Y-33711326D01*
X-33235101Y-33673633D01*
X-33216534Y-33638897D01*
X-33191548Y-33608452D01*
X-33161103Y-33583466D01*
X-33126367Y-33564899D01*
X-33088674Y-33553465D01*
X-33043339Y-33549000D01*
X-31956661Y-33549000D01*
X-31911326Y-33553465D01*
G37*
G36*
X-35411326Y-33553465D02*
G01*
X-35373633Y-33564899D01*
X-35338897Y-33583466D01*
X-35308452Y-33608452D01*
X-35283466Y-33638897D01*
X-35264899Y-33673633D01*
X-35253465Y-33711326D01*
X-35249000Y-33756661D01*
X-35249000Y-34593339D01*
X-35253465Y-34638674D01*
X-35264899Y-34676367D01*
X-35283466Y-34711103D01*
X-35308452Y-34741548D01*
X-35338897Y-34766534D01*
X-35373633Y-34785101D01*
X-35411326Y-34796535D01*
X-35456661Y-34801000D01*
X-36543339Y-34801000D01*
X-36588674Y-34796535D01*
X-36626367Y-34785101D01*
X-36661103Y-34766534D01*
X-36691548Y-34741548D01*
X-36716534Y-34711103D01*
X-36735101Y-34676367D01*
X-36746535Y-34638674D01*
X-36751000Y-34593339D01*
X-36751000Y-33756661D01*
X-36746535Y-33711326D01*
X-36735101Y-33673633D01*
X-36716534Y-33638897D01*
X-36691548Y-33608452D01*
X-36661103Y-33583466D01*
X-36626367Y-33564899D01*
X-36588674Y-33553465D01*
X-36543339Y-33549000D01*
X-35456661Y-33549000D01*
X-35411326Y-33553465D01*
G37*
G36*
X-38811326Y-33503465D02*
G01*
X-38773633Y-33514899D01*
X-38738897Y-33533466D01*
X-38708452Y-33558452D01*
X-38683466Y-33588897D01*
X-38664899Y-33623633D01*
X-38653465Y-33661326D01*
X-38649000Y-33706661D01*
X-38649000Y-34543339D01*
X-38653465Y-34588674D01*
X-38664899Y-34626367D01*
X-38683466Y-34661103D01*
X-38708452Y-34691548D01*
X-38738897Y-34716534D01*
X-38773633Y-34735101D01*
X-38811326Y-34746535D01*
X-38856661Y-34751000D01*
X-39943339Y-34751000D01*
X-39988674Y-34746535D01*
X-40026367Y-34735101D01*
X-40061103Y-34716534D01*
X-40091548Y-34691548D01*
X-40116534Y-34661103D01*
X-40135101Y-34626367D01*
X-40146535Y-34588674D01*
X-40151000Y-34543339D01*
X-40151000Y-33706661D01*
X-40146535Y-33661326D01*
X-40135101Y-33623633D01*
X-40116534Y-33588897D01*
X-40091548Y-33558452D01*
X-40061103Y-33533466D01*
X-40026367Y-33514899D01*
X-39988674Y-33503465D01*
X-39943339Y-33499000D01*
X-38856661Y-33499000D01*
X-38811326Y-33503465D01*
G37*
G36*
X-42261326Y-33503465D02*
G01*
X-42223633Y-33514899D01*
X-42188897Y-33533466D01*
X-42158452Y-33558452D01*
X-42133466Y-33588897D01*
X-42114899Y-33623633D01*
X-42103465Y-33661326D01*
X-42099000Y-33706661D01*
X-42099000Y-34543339D01*
X-42103465Y-34588674D01*
X-42114899Y-34626367D01*
X-42133466Y-34661103D01*
X-42158452Y-34691548D01*
X-42188897Y-34716534D01*
X-42223633Y-34735101D01*
X-42261326Y-34746535D01*
X-42306661Y-34751000D01*
X-43393339Y-34751000D01*
X-43438674Y-34746535D01*
X-43476367Y-34735101D01*
X-43511103Y-34716534D01*
X-43541548Y-34691548D01*
X-43566534Y-34661103D01*
X-43585101Y-34626367D01*
X-43596535Y-34588674D01*
X-43601000Y-34543339D01*
X-43601000Y-33706661D01*
X-43596535Y-33661326D01*
X-43585101Y-33623633D01*
X-43566534Y-33588897D01*
X-43541548Y-33558452D01*
X-43511103Y-33533466D01*
X-43476367Y-33514899D01*
X-43438674Y-33503465D01*
X-43393339Y-33499000D01*
X-42306661Y-33499000D01*
X-42261326Y-33503465D01*
G37*
G36*
X-45761326Y-31503465D02*
G01*
X-45723633Y-31514899D01*
X-45688897Y-31533466D01*
X-45658452Y-31558452D01*
X-45633466Y-31588897D01*
X-45614899Y-31623633D01*
X-45603465Y-31661326D01*
X-45599000Y-31706661D01*
X-45599000Y-32543339D01*
X-45603465Y-32588674D01*
X-45614899Y-32626367D01*
X-45633466Y-32661103D01*
X-45658452Y-32691548D01*
X-45688897Y-32716534D01*
X-45723633Y-32735101D01*
X-45761326Y-32746535D01*
X-45806661Y-32751000D01*
X-46893339Y-32751000D01*
X-46938674Y-32746535D01*
X-46976367Y-32735101D01*
X-47011103Y-32716534D01*
X-47041548Y-32691548D01*
X-47066534Y-32661103D01*
X-47085101Y-32626367D01*
X-47096535Y-32588674D01*
X-47101000Y-32543339D01*
X-47101000Y-31706661D01*
X-47096535Y-31661326D01*
X-47085101Y-31623633D01*
X-47066534Y-31588897D01*
X-47041548Y-31558452D01*
X-47011103Y-31533466D01*
X-46976367Y-31514899D01*
X-46938674Y-31503465D01*
X-46893339Y-31499000D01*
X-45806661Y-31499000D01*
X-45761326Y-31503465D01*
G37*
G36*
X-4161326Y-31503465D02*
G01*
X-4123633Y-31514899D01*
X-4088897Y-31533466D01*
X-4058452Y-31558452D01*
X-4033466Y-31588897D01*
X-4014899Y-31623633D01*
X-4003465Y-31661326D01*
X-3999000Y-31706661D01*
X-3999000Y-32543339D01*
X-4003465Y-32588674D01*
X-4014899Y-32626367D01*
X-4033466Y-32661103D01*
X-4058452Y-32691548D01*
X-4088897Y-32716534D01*
X-4123633Y-32735101D01*
X-4161326Y-32746535D01*
X-4206661Y-32751000D01*
X-5293339Y-32751000D01*
X-5338674Y-32746535D01*
X-5376367Y-32735101D01*
X-5411103Y-32716534D01*
X-5441548Y-32691548D01*
X-5466534Y-32661103D01*
X-5485101Y-32626367D01*
X-5496535Y-32588674D01*
X-5501000Y-32543339D01*
X-5501000Y-31706661D01*
X-5496535Y-31661326D01*
X-5485101Y-31623633D01*
X-5466534Y-31588897D01*
X-5441548Y-31558452D01*
X-5411103Y-31533466D01*
X-5376367Y-31514899D01*
X-5338674Y-31503465D01*
X-5293339Y-31499000D01*
X-4206661Y-31499000D01*
X-4161326Y-31503465D01*
G37*
G36*
X-11511326Y-31503465D02*
G01*
X-11473633Y-31514899D01*
X-11438897Y-31533466D01*
X-11408452Y-31558452D01*
X-11383466Y-31588897D01*
X-11364899Y-31623633D01*
X-11353465Y-31661326D01*
X-11349000Y-31706661D01*
X-11349000Y-32543339D01*
X-11353465Y-32588674D01*
X-11364899Y-32626367D01*
X-11383466Y-32661103D01*
X-11408452Y-32691548D01*
X-11438897Y-32716534D01*
X-11473633Y-32735101D01*
X-11511326Y-32746535D01*
X-11556661Y-32751000D01*
X-12643339Y-32751000D01*
X-12688674Y-32746535D01*
X-12726367Y-32735101D01*
X-12761103Y-32716534D01*
X-12791548Y-32691548D01*
X-12816534Y-32661103D01*
X-12835101Y-32626367D01*
X-12846535Y-32588674D01*
X-12851000Y-32543339D01*
X-12851000Y-31706661D01*
X-12846535Y-31661326D01*
X-12835101Y-31623633D01*
X-12816534Y-31588897D01*
X-12791548Y-31558452D01*
X-12761103Y-31533466D01*
X-12726367Y-31514899D01*
X-12688674Y-31503465D01*
X-12643339Y-31499000D01*
X-11556661Y-31499000D01*
X-11511326Y-31503465D01*
G37*
G36*
X-19361326Y-31503465D02*
G01*
X-19323633Y-31514899D01*
X-19288897Y-31533466D01*
X-19258452Y-31558452D01*
X-19233466Y-31588897D01*
X-19214899Y-31623633D01*
X-19203465Y-31661326D01*
X-19199000Y-31706661D01*
X-19199000Y-32543339D01*
X-19203465Y-32588674D01*
X-19214899Y-32626367D01*
X-19233466Y-32661103D01*
X-19258452Y-32691548D01*
X-19288897Y-32716534D01*
X-19323633Y-32735101D01*
X-19361326Y-32746535D01*
X-19406661Y-32751000D01*
X-20493339Y-32751000D01*
X-20538674Y-32746535D01*
X-20576367Y-32735101D01*
X-20611103Y-32716534D01*
X-20641548Y-32691548D01*
X-20666534Y-32661103D01*
X-20685101Y-32626367D01*
X-20696535Y-32588674D01*
X-20701000Y-32543339D01*
X-20701000Y-31706661D01*
X-20696535Y-31661326D01*
X-20685101Y-31623633D01*
X-20666534Y-31588897D01*
X-20641548Y-31558452D01*
X-20611103Y-31533466D01*
X-20576367Y-31514899D01*
X-20538674Y-31503465D01*
X-20493339Y-31499000D01*
X-19406661Y-31499000D01*
X-19361326Y-31503465D01*
G37*
G36*
X-22861326Y-31503465D02*
G01*
X-22823633Y-31514899D01*
X-22788897Y-31533466D01*
X-22758452Y-31558452D01*
X-22733466Y-31588897D01*
X-22714899Y-31623633D01*
X-22703465Y-31661326D01*
X-22699000Y-31706661D01*
X-22699000Y-32543339D01*
X-22703465Y-32588674D01*
X-22714899Y-32626367D01*
X-22733466Y-32661103D01*
X-22758452Y-32691548D01*
X-22788897Y-32716534D01*
X-22823633Y-32735101D01*
X-22861326Y-32746535D01*
X-22906661Y-32751000D01*
X-23993339Y-32751000D01*
X-24038674Y-32746535D01*
X-24076367Y-32735101D01*
X-24111103Y-32716534D01*
X-24141548Y-32691548D01*
X-24166534Y-32661103D01*
X-24185101Y-32626367D01*
X-24196535Y-32588674D01*
X-24201000Y-32543339D01*
X-24201000Y-31706661D01*
X-24196535Y-31661326D01*
X-24185101Y-31623633D01*
X-24166534Y-31588897D01*
X-24141548Y-31558452D01*
X-24111103Y-31533466D01*
X-24076367Y-31514899D01*
X-24038674Y-31503465D01*
X-23993339Y-31499000D01*
X-22906661Y-31499000D01*
X-22861326Y-31503465D01*
G37*
G36*
X-26411326Y-31503465D02*
G01*
X-26373633Y-31514899D01*
X-26338897Y-31533466D01*
X-26308452Y-31558452D01*
X-26283466Y-31588897D01*
X-26264899Y-31623633D01*
X-26253465Y-31661326D01*
X-26249000Y-31706661D01*
X-26249000Y-32543339D01*
X-26253465Y-32588674D01*
X-26264899Y-32626367D01*
X-26283466Y-32661103D01*
X-26308452Y-32691548D01*
X-26338897Y-32716534D01*
X-26373633Y-32735101D01*
X-26411326Y-32746535D01*
X-26456661Y-32751000D01*
X-27543339Y-32751000D01*
X-27588674Y-32746535D01*
X-27626367Y-32735101D01*
X-27661103Y-32716534D01*
X-27691548Y-32691548D01*
X-27716534Y-32661103D01*
X-27735101Y-32626367D01*
X-27746535Y-32588674D01*
X-27751000Y-32543339D01*
X-27751000Y-31706661D01*
X-27746535Y-31661326D01*
X-27735101Y-31623633D01*
X-27716534Y-31588897D01*
X-27691548Y-31558452D01*
X-27661103Y-31533466D01*
X-27626367Y-31514899D01*
X-27588674Y-31503465D01*
X-27543339Y-31499000D01*
X-26456661Y-31499000D01*
X-26411326Y-31503465D01*
G37*
G36*
X-54511326Y-31503465D02*
G01*
X-54473633Y-31514899D01*
X-54438897Y-31533466D01*
X-54408452Y-31558452D01*
X-54383466Y-31588897D01*
X-54364899Y-31623633D01*
X-54353465Y-31661326D01*
X-54349000Y-31706661D01*
X-54349000Y-32543339D01*
X-54353465Y-32588674D01*
X-54364899Y-32626367D01*
X-54383466Y-32661103D01*
X-54408452Y-32691548D01*
X-54438897Y-32716534D01*
X-54473633Y-32735101D01*
X-54511326Y-32746535D01*
X-54556661Y-32751000D01*
X-55643339Y-32751000D01*
X-55688674Y-32746535D01*
X-55726367Y-32735101D01*
X-55761103Y-32716534D01*
X-55791548Y-32691548D01*
X-55816534Y-32661103D01*
X-55835101Y-32626367D01*
X-55846535Y-32588674D01*
X-55851000Y-32543339D01*
X-55851000Y-31706661D01*
X-55846535Y-31661326D01*
X-55835101Y-31623633D01*
X-55816534Y-31588897D01*
X-55791548Y-31558452D01*
X-55761103Y-31533466D01*
X-55726367Y-31514899D01*
X-55688674Y-31503465D01*
X-55643339Y-31499000D01*
X-54556661Y-31499000D01*
X-54511326Y-31503465D01*
G37*
G36*
X-35411326Y-31503465D02*
G01*
X-35373633Y-31514899D01*
X-35338897Y-31533466D01*
X-35308452Y-31558452D01*
X-35283466Y-31588897D01*
X-35264899Y-31623633D01*
X-35253465Y-31661326D01*
X-35249000Y-31706661D01*
X-35249000Y-32543339D01*
X-35253465Y-32588674D01*
X-35264899Y-32626367D01*
X-35283466Y-32661103D01*
X-35308452Y-32691548D01*
X-35338897Y-32716534D01*
X-35373633Y-32735101D01*
X-35411326Y-32746535D01*
X-35456661Y-32751000D01*
X-36543339Y-32751000D01*
X-36588674Y-32746535D01*
X-36626367Y-32735101D01*
X-36661103Y-32716534D01*
X-36691548Y-32691548D01*
X-36716534Y-32661103D01*
X-36735101Y-32626367D01*
X-36746535Y-32588674D01*
X-36751000Y-32543339D01*
X-36751000Y-31706661D01*
X-36746535Y-31661326D01*
X-36735101Y-31623633D01*
X-36716534Y-31588897D01*
X-36691548Y-31558452D01*
X-36661103Y-31533466D01*
X-36626367Y-31514899D01*
X-36588674Y-31503465D01*
X-36543339Y-31499000D01*
X-35456661Y-31499000D01*
X-35411326Y-31503465D01*
G37*
G36*
X-15911326Y-31503465D02*
G01*
X-15873633Y-31514899D01*
X-15838897Y-31533466D01*
X-15808452Y-31558452D01*
X-15783466Y-31588897D01*
X-15764899Y-31623633D01*
X-15753465Y-31661326D01*
X-15749000Y-31706661D01*
X-15749000Y-32543339D01*
X-15753465Y-32588674D01*
X-15764899Y-32626367D01*
X-15783466Y-32661103D01*
X-15808452Y-32691548D01*
X-15838897Y-32716534D01*
X-15873633Y-32735101D01*
X-15911326Y-32746535D01*
X-15956661Y-32751000D01*
X-17043339Y-32751000D01*
X-17088674Y-32746535D01*
X-17126367Y-32735101D01*
X-17161103Y-32716534D01*
X-17191548Y-32691548D01*
X-17216534Y-32661103D01*
X-17235101Y-32626367D01*
X-17246535Y-32588674D01*
X-17251000Y-32543339D01*
X-17251000Y-31706661D01*
X-17246535Y-31661326D01*
X-17235101Y-31623633D01*
X-17216534Y-31588897D01*
X-17191548Y-31558452D01*
X-17161103Y-31533466D01*
X-17126367Y-31514899D01*
X-17088674Y-31503465D01*
X-17043339Y-31499000D01*
X-15956661Y-31499000D01*
X-15911326Y-31503465D01*
G37*
G36*
X-51011326Y-31503465D02*
G01*
X-50973633Y-31514899D01*
X-50938897Y-31533466D01*
X-50908452Y-31558452D01*
X-50883466Y-31588897D01*
X-50864899Y-31623633D01*
X-50853465Y-31661326D01*
X-50849000Y-31706661D01*
X-50849000Y-32543339D01*
X-50853465Y-32588674D01*
X-50864899Y-32626367D01*
X-50883466Y-32661103D01*
X-50908452Y-32691548D01*
X-50938897Y-32716534D01*
X-50973633Y-32735101D01*
X-51011326Y-32746535D01*
X-51056661Y-32751000D01*
X-52143339Y-32751000D01*
X-52188674Y-32746535D01*
X-52226367Y-32735101D01*
X-52261103Y-32716534D01*
X-52291548Y-32691548D01*
X-52316534Y-32661103D01*
X-52335101Y-32626367D01*
X-52346535Y-32588674D01*
X-52351000Y-32543339D01*
X-52351000Y-31706661D01*
X-52346535Y-31661326D01*
X-52335101Y-31623633D01*
X-52316534Y-31588897D01*
X-52291548Y-31558452D01*
X-52261103Y-31533466D01*
X-52226367Y-31514899D01*
X-52188674Y-31503465D01*
X-52143339Y-31499000D01*
X-51056661Y-31499000D01*
X-51011326Y-31503465D01*
G37*
G36*
X-31911326Y-31503465D02*
G01*
X-31873633Y-31514899D01*
X-31838897Y-31533466D01*
X-31808452Y-31558452D01*
X-31783466Y-31588897D01*
X-31764899Y-31623633D01*
X-31753465Y-31661326D01*
X-31749000Y-31706661D01*
X-31749000Y-32543339D01*
X-31753465Y-32588674D01*
X-31764899Y-32626367D01*
X-31783466Y-32661103D01*
X-31808452Y-32691548D01*
X-31838897Y-32716534D01*
X-31873633Y-32735101D01*
X-31911326Y-32746535D01*
X-31956661Y-32751000D01*
X-33043339Y-32751000D01*
X-33088674Y-32746535D01*
X-33126367Y-32735101D01*
X-33161103Y-32716534D01*
X-33191548Y-32691548D01*
X-33216534Y-32661103D01*
X-33235101Y-32626367D01*
X-33246535Y-32588674D01*
X-33251000Y-32543339D01*
X-33251000Y-31706661D01*
X-33246535Y-31661326D01*
X-33235101Y-31623633D01*
X-33216534Y-31588897D01*
X-33191548Y-31558452D01*
X-33161103Y-31533466D01*
X-33126367Y-31514899D01*
X-33088674Y-31503465D01*
X-33043339Y-31499000D01*
X-31956661Y-31499000D01*
X-31911326Y-31503465D01*
G37*
G36*
X-7811326Y-31503465D02*
G01*
X-7773633Y-31514899D01*
X-7738897Y-31533466D01*
X-7708452Y-31558452D01*
X-7683466Y-31588897D01*
X-7664899Y-31623633D01*
X-7653465Y-31661326D01*
X-7649000Y-31706661D01*
X-7649000Y-32543339D01*
X-7653465Y-32588674D01*
X-7664899Y-32626367D01*
X-7683466Y-32661103D01*
X-7708452Y-32691548D01*
X-7738897Y-32716534D01*
X-7773633Y-32735101D01*
X-7811326Y-32746535D01*
X-7856661Y-32751000D01*
X-8943339Y-32751000D01*
X-8988674Y-32746535D01*
X-9026367Y-32735101D01*
X-9061103Y-32716534D01*
X-9091548Y-32691548D01*
X-9116534Y-32661103D01*
X-9135101Y-32626367D01*
X-9146535Y-32588674D01*
X-9151000Y-32543339D01*
X-9151000Y-31706661D01*
X-9146535Y-31661326D01*
X-9135101Y-31623633D01*
X-9116534Y-31588897D01*
X-9091548Y-31558452D01*
X-9061103Y-31533466D01*
X-9026367Y-31514899D01*
X-8988674Y-31503465D01*
X-8943339Y-31499000D01*
X-7856661Y-31499000D01*
X-7811326Y-31503465D01*
G37*
G36*
X-38811326Y-31453465D02*
G01*
X-38773633Y-31464899D01*
X-38738897Y-31483466D01*
X-38708452Y-31508452D01*
X-38683466Y-31538897D01*
X-38664899Y-31573633D01*
X-38653465Y-31611326D01*
X-38649000Y-31656661D01*
X-38649000Y-32493339D01*
X-38653465Y-32538674D01*
X-38664899Y-32576367D01*
X-38683466Y-32611103D01*
X-38708452Y-32641548D01*
X-38738897Y-32666534D01*
X-38773633Y-32685101D01*
X-38811326Y-32696535D01*
X-38856661Y-32701000D01*
X-39943339Y-32701000D01*
X-39988674Y-32696535D01*
X-40026367Y-32685101D01*
X-40061103Y-32666534D01*
X-40091548Y-32641548D01*
X-40116534Y-32611103D01*
X-40135101Y-32576367D01*
X-40146535Y-32538674D01*
X-40151000Y-32493339D01*
X-40151000Y-31656661D01*
X-40146535Y-31611326D01*
X-40135101Y-31573633D01*
X-40116534Y-31538897D01*
X-40091548Y-31508452D01*
X-40061103Y-31483466D01*
X-40026367Y-31464899D01*
X-39988674Y-31453465D01*
X-39943339Y-31449000D01*
X-38856661Y-31449000D01*
X-38811326Y-31453465D01*
G37*
G36*
X-42261326Y-31453465D02*
G01*
X-42223633Y-31464899D01*
X-42188897Y-31483466D01*
X-42158452Y-31508452D01*
X-42133466Y-31538897D01*
X-42114899Y-31573633D01*
X-42103465Y-31611326D01*
X-42099000Y-31656661D01*
X-42099000Y-32493339D01*
X-42103465Y-32538674D01*
X-42114899Y-32576367D01*
X-42133466Y-32611103D01*
X-42158452Y-32641548D01*
X-42188897Y-32666534D01*
X-42223633Y-32685101D01*
X-42261326Y-32696535D01*
X-42306661Y-32701000D01*
X-43393339Y-32701000D01*
X-43438674Y-32696535D01*
X-43476367Y-32685101D01*
X-43511103Y-32666534D01*
X-43541548Y-32641548D01*
X-43566534Y-32611103D01*
X-43585101Y-32576367D01*
X-43596535Y-32538674D01*
X-43601000Y-32493339D01*
X-43601000Y-31656661D01*
X-43596535Y-31611326D01*
X-43585101Y-31573633D01*
X-43566534Y-31538897D01*
X-43541548Y-31508452D01*
X-43511103Y-31483466D01*
X-43476367Y-31464899D01*
X-43438674Y-31453465D01*
X-43393339Y-31449000D01*
X-42306661Y-31449000D01*
X-42261326Y-31453465D01*
G37*
G36*
X1201000Y-30601000D02*
G01*
X-1201000Y-30601000D01*
X-1201000Y-28999000D01*
X1201000Y-28999000D01*
X1201000Y-30601000D01*
G37*
G36*
X-37024000Y-30326000D02*
G01*
X-38026000Y-30326000D01*
X-38026000Y-29424000D01*
X-37024000Y-29424000D01*
X-37024000Y-30326000D01*
G37*
G36*
X-35024000Y-29376000D02*
G01*
X-36026000Y-29376000D01*
X-36026000Y-28474000D01*
X-35024000Y-28474000D01*
X-35024000Y-29376000D01*
G37*
G36*
X-19561326Y-27028465D02*
G01*
X-19523633Y-27039899D01*
X-19488897Y-27058466D01*
X-19458452Y-27083452D01*
X-19433466Y-27113897D01*
X-19414899Y-27148633D01*
X-19403465Y-27186326D01*
X-19399000Y-27231661D01*
X-19399000Y-28318339D01*
X-19403465Y-28363674D01*
X-19414899Y-28401367D01*
X-19433466Y-28436103D01*
X-19458452Y-28466548D01*
X-19488897Y-28491534D01*
X-19523633Y-28510101D01*
X-19561326Y-28521535D01*
X-19606661Y-28526000D01*
X-20443339Y-28526000D01*
X-20488674Y-28521535D01*
X-20526367Y-28510101D01*
X-20561103Y-28491534D01*
X-20591548Y-28466548D01*
X-20616534Y-28436103D01*
X-20635101Y-28401367D01*
X-20646535Y-28363674D01*
X-20651000Y-28318339D01*
X-20651000Y-27231661D01*
X-20646535Y-27186326D01*
X-20635101Y-27148633D01*
X-20616534Y-27113897D01*
X-20591548Y-27083452D01*
X-20561103Y-27058466D01*
X-20526367Y-27039899D01*
X-20488674Y-27028465D01*
X-20443339Y-27024000D01*
X-19606661Y-27024000D01*
X-19561326Y-27028465D01*
G37*
G36*
X-21611326Y-27028465D02*
G01*
X-21573633Y-27039899D01*
X-21538897Y-27058466D01*
X-21508452Y-27083452D01*
X-21483466Y-27113897D01*
X-21464899Y-27148633D01*
X-21453465Y-27186326D01*
X-21449000Y-27231661D01*
X-21449000Y-28318339D01*
X-21453465Y-28363674D01*
X-21464899Y-28401367D01*
X-21483466Y-28436103D01*
X-21508452Y-28466548D01*
X-21538897Y-28491534D01*
X-21573633Y-28510101D01*
X-21611326Y-28521535D01*
X-21656661Y-28526000D01*
X-22493339Y-28526000D01*
X-22538674Y-28521535D01*
X-22576367Y-28510101D01*
X-22611103Y-28491534D01*
X-22641548Y-28466548D01*
X-22666534Y-28436103D01*
X-22685101Y-28401367D01*
X-22696535Y-28363674D01*
X-22701000Y-28318339D01*
X-22701000Y-27231661D01*
X-22696535Y-27186326D01*
X-22685101Y-27148633D01*
X-22666534Y-27113897D01*
X-22641548Y-27083452D01*
X-22611103Y-27058466D01*
X-22576367Y-27039899D01*
X-22538674Y-27028465D01*
X-22493339Y-27024000D01*
X-21656661Y-27024000D01*
X-21611326Y-27028465D01*
G37*
G36*
X-37024000Y-28426000D02*
G01*
X-38026000Y-28426000D01*
X-38026000Y-27524000D01*
X-37024000Y-27524000D01*
X-37024000Y-28426000D01*
G37*
G36*
X-55499000Y-28176000D02*
G01*
X-57701000Y-28176000D01*
X-57701000Y-25974000D01*
X-55499000Y-25974000D01*
X-55499000Y-28176000D01*
G37*
G36*
X-45949000Y-27626000D02*
G01*
X-47151000Y-27626000D01*
X-47151000Y-19974000D01*
X-45949000Y-19974000D01*
X-45949000Y-27626000D01*
G37*
G36*
X-25249000Y-27626000D02*
G01*
X-26451000Y-27626000D01*
X-26451000Y-19974000D01*
X-25249000Y-19974000D01*
X-25249000Y-27626000D01*
G37*
G36*
X-15949000Y-27626000D02*
G01*
X-17151000Y-27626000D01*
X-17151000Y-19974000D01*
X-15949000Y-19974000D01*
X-15949000Y-27626000D01*
G37*
G36*
X-10249000Y-27626000D02*
G01*
X-11451000Y-27626000D01*
X-11451000Y-19974000D01*
X-10249000Y-19974000D01*
X-10249000Y-27626000D01*
G37*
G36*
X-40249000Y-27626000D02*
G01*
X-41451000Y-27626000D01*
X-41451000Y-19974000D01*
X-40249000Y-19974000D01*
X-40249000Y-27626000D01*
G37*
G36*
X-30949000Y-27626000D02*
G01*
X-32151000Y-27626000D01*
X-32151000Y-19974000D01*
X-30949000Y-19974000D01*
X-30949000Y-27626000D01*
G37*
G36*
X-35011326Y-24653465D02*
G01*
X-34973633Y-24664899D01*
X-34938897Y-24683466D01*
X-34908452Y-24708452D01*
X-34883466Y-24738897D01*
X-34864899Y-24773633D01*
X-34853465Y-24811326D01*
X-34849000Y-24856661D01*
X-34849000Y-25943339D01*
X-34853465Y-25988674D01*
X-34864899Y-26026367D01*
X-34883466Y-26061103D01*
X-34908452Y-26091548D01*
X-34938897Y-26116534D01*
X-34973633Y-26135101D01*
X-35011326Y-26146535D01*
X-35056661Y-26151000D01*
X-35893339Y-26151000D01*
X-35938674Y-26146535D01*
X-35976367Y-26135101D01*
X-36011103Y-26116534D01*
X-36041548Y-26091548D01*
X-36066534Y-26061103D01*
X-36085101Y-26026367D01*
X-36096535Y-25988674D01*
X-36101000Y-25943339D01*
X-36101000Y-24856661D01*
X-36096535Y-24811326D01*
X-36085101Y-24773633D01*
X-36066534Y-24738897D01*
X-36041548Y-24708452D01*
X-36011103Y-24683466D01*
X-35976367Y-24664899D01*
X-35938674Y-24653465D01*
X-35893339Y-24649000D01*
X-35056661Y-24649000D01*
X-35011326Y-24653465D01*
G37*
G36*
X-37061326Y-24653465D02*
G01*
X-37023633Y-24664899D01*
X-36988897Y-24683466D01*
X-36958452Y-24708452D01*
X-36933466Y-24738897D01*
X-36914899Y-24773633D01*
X-36903465Y-24811326D01*
X-36899000Y-24856661D01*
X-36899000Y-25943339D01*
X-36903465Y-25988674D01*
X-36914899Y-26026367D01*
X-36933466Y-26061103D01*
X-36958452Y-26091548D01*
X-36988897Y-26116534D01*
X-37023633Y-26135101D01*
X-37061326Y-26146535D01*
X-37106661Y-26151000D01*
X-37943339Y-26151000D01*
X-37988674Y-26146535D01*
X-38026367Y-26135101D01*
X-38061103Y-26116534D01*
X-38091548Y-26091548D01*
X-38116534Y-26061103D01*
X-38135101Y-26026367D01*
X-38146535Y-25988674D01*
X-38151000Y-25943339D01*
X-38151000Y-24856661D01*
X-38146535Y-24811326D01*
X-38135101Y-24773633D01*
X-38116534Y-24738897D01*
X-38091548Y-24708452D01*
X-38061103Y-24683466D01*
X-38026367Y-24664899D01*
X-37988674Y-24653465D01*
X-37943339Y-24649000D01*
X-37106661Y-24649000D01*
X-37061326Y-24653465D01*
G37*
G36*
X-3636326Y-24603465D02*
G01*
X-3598633Y-24614899D01*
X-3563897Y-24633466D01*
X-3533452Y-24658452D01*
X-3508466Y-24688897D01*
X-3489899Y-24723633D01*
X-3478465Y-24761326D01*
X-3474000Y-24806661D01*
X-3474000Y-25893339D01*
X-3478465Y-25938674D01*
X-3489899Y-25976367D01*
X-3508466Y-26011103D01*
X-3533452Y-26041548D01*
X-3563897Y-26066534D01*
X-3598633Y-26085101D01*
X-3636326Y-26096535D01*
X-3681661Y-26101000D01*
X-4518339Y-26101000D01*
X-4563674Y-26096535D01*
X-4601367Y-26085101D01*
X-4636103Y-26066534D01*
X-4666548Y-26041548D01*
X-4691534Y-26011103D01*
X-4710101Y-25976367D01*
X-4721535Y-25938674D01*
X-4726000Y-25893339D01*
X-4726000Y-24806661D01*
X-4721535Y-24761326D01*
X-4710101Y-24723633D01*
X-4691534Y-24688897D01*
X-4666548Y-24658452D01*
X-4636103Y-24633466D01*
X-4601367Y-24614899D01*
X-4563674Y-24603465D01*
X-4518339Y-24599000D01*
X-3681661Y-24599000D01*
X-3636326Y-24603465D01*
G37*
G36*
X-5686326Y-24603465D02*
G01*
X-5648633Y-24614899D01*
X-5613897Y-24633466D01*
X-5583452Y-24658452D01*
X-5558466Y-24688897D01*
X-5539899Y-24723633D01*
X-5528465Y-24761326D01*
X-5524000Y-24806661D01*
X-5524000Y-25893339D01*
X-5528465Y-25938674D01*
X-5539899Y-25976367D01*
X-5558466Y-26011103D01*
X-5583452Y-26041548D01*
X-5613897Y-26066534D01*
X-5648633Y-26085101D01*
X-5686326Y-26096535D01*
X-5731661Y-26101000D01*
X-6568339Y-26101000D01*
X-6613674Y-26096535D01*
X-6651367Y-26085101D01*
X-6686103Y-26066534D01*
X-6716548Y-26041548D01*
X-6741534Y-26011103D01*
X-6760101Y-25976367D01*
X-6771535Y-25938674D01*
X-6776000Y-25893339D01*
X-6776000Y-24806661D01*
X-6771535Y-24761326D01*
X-6760101Y-24723633D01*
X-6741534Y-24688897D01*
X-6716548Y-24658452D01*
X-6686103Y-24633466D01*
X-6651367Y-24614899D01*
X-6613674Y-24603465D01*
X-6568339Y-24599000D01*
X-5731661Y-24599000D01*
X-5686326Y-24603465D01*
G37*
G36*
X-299000Y-26026000D02*
G01*
X-1601000Y-26026000D01*
X-1601000Y-24724000D01*
X-299000Y-24724000D01*
X-299000Y-26026000D01*
G37*
G36*
X1801000Y-26026000D02*
G01*
X499000Y-26026000D01*
X499000Y-24724000D01*
X1801000Y-24724000D01*
X1801000Y-26026000D01*
G37*
G36*
X-21586326Y-24428465D02*
G01*
X-21548633Y-24439899D01*
X-21513897Y-24458466D01*
X-21483452Y-24483452D01*
X-21458466Y-24513897D01*
X-21439899Y-24548633D01*
X-21428465Y-24586326D01*
X-21424000Y-24631661D01*
X-21424000Y-25718339D01*
X-21428465Y-25763674D01*
X-21439899Y-25801367D01*
X-21458466Y-25836103D01*
X-21483452Y-25866548D01*
X-21513897Y-25891534D01*
X-21548633Y-25910101D01*
X-21586326Y-25921535D01*
X-21631661Y-25926000D01*
X-22468339Y-25926000D01*
X-22513674Y-25921535D01*
X-22551367Y-25910101D01*
X-22586103Y-25891534D01*
X-22616548Y-25866548D01*
X-22641534Y-25836103D01*
X-22660101Y-25801367D01*
X-22671535Y-25763674D01*
X-22676000Y-25718339D01*
X-22676000Y-24631661D01*
X-22671535Y-24586326D01*
X-22660101Y-24548633D01*
X-22641534Y-24513897D01*
X-22616548Y-24483452D01*
X-22586103Y-24458466D01*
X-22551367Y-24439899D01*
X-22513674Y-24428465D01*
X-22468339Y-24424000D01*
X-21631661Y-24424000D01*
X-21586326Y-24428465D01*
G37*
G36*
X-19536326Y-24428465D02*
G01*
X-19498633Y-24439899D01*
X-19463897Y-24458466D01*
X-19433452Y-24483452D01*
X-19408466Y-24513897D01*
X-19389899Y-24548633D01*
X-19378465Y-24586326D01*
X-19374000Y-24631661D01*
X-19374000Y-25718339D01*
X-19378465Y-25763674D01*
X-19389899Y-25801367D01*
X-19408466Y-25836103D01*
X-19433452Y-25866548D01*
X-19463897Y-25891534D01*
X-19498633Y-25910101D01*
X-19536326Y-25921535D01*
X-19581661Y-25926000D01*
X-20418339Y-25926000D01*
X-20463674Y-25921535D01*
X-20501367Y-25910101D01*
X-20536103Y-25891534D01*
X-20566548Y-25866548D01*
X-20591534Y-25836103D01*
X-20610101Y-25801367D01*
X-20621535Y-25763674D01*
X-20626000Y-25718339D01*
X-20626000Y-24631661D01*
X-20621535Y-24586326D01*
X-20610101Y-24548633D01*
X-20591534Y-24513897D01*
X-20566548Y-24483452D01*
X-20536103Y-24458466D01*
X-20501367Y-24439899D01*
X-20463674Y-24428465D01*
X-20418339Y-24424000D01*
X-19581661Y-24424000D01*
X-19536326Y-24428465D01*
G37*
G36*
X-21611326Y-22203465D02*
G01*
X-21573633Y-22214899D01*
X-21538897Y-22233466D01*
X-21508452Y-22258452D01*
X-21483466Y-22288897D01*
X-21464899Y-22323633D01*
X-21453465Y-22361326D01*
X-21449000Y-22406661D01*
X-21449000Y-23493339D01*
X-21453465Y-23538674D01*
X-21464899Y-23576367D01*
X-21483466Y-23611103D01*
X-21508452Y-23641548D01*
X-21538897Y-23666534D01*
X-21573633Y-23685101D01*
X-21611326Y-23696535D01*
X-21656661Y-23701000D01*
X-22493339Y-23701000D01*
X-22538674Y-23696535D01*
X-22576367Y-23685101D01*
X-22611103Y-23666534D01*
X-22641548Y-23641548D01*
X-22666534Y-23611103D01*
X-22685101Y-23576367D01*
X-22696535Y-23538674D01*
X-22701000Y-23493339D01*
X-22701000Y-22406661D01*
X-22696535Y-22361326D01*
X-22685101Y-22323633D01*
X-22666534Y-22288897D01*
X-22641548Y-22258452D01*
X-22611103Y-22233466D01*
X-22576367Y-22214899D01*
X-22538674Y-22203465D01*
X-22493339Y-22199000D01*
X-21656661Y-22199000D01*
X-21611326Y-22203465D01*
G37*
G36*
X-34911326Y-22203465D02*
G01*
X-34873633Y-22214899D01*
X-34838897Y-22233466D01*
X-34808452Y-22258452D01*
X-34783466Y-22288897D01*
X-34764899Y-22323633D01*
X-34753465Y-22361326D01*
X-34749000Y-22406661D01*
X-34749000Y-23493339D01*
X-34753465Y-23538674D01*
X-34764899Y-23576367D01*
X-34783466Y-23611103D01*
X-34808452Y-23641548D01*
X-34838897Y-23666534D01*
X-34873633Y-23685101D01*
X-34911326Y-23696535D01*
X-34956661Y-23701000D01*
X-35793339Y-23701000D01*
X-35838674Y-23696535D01*
X-35876367Y-23685101D01*
X-35911103Y-23666534D01*
X-35941548Y-23641548D01*
X-35966534Y-23611103D01*
X-35985101Y-23576367D01*
X-35996535Y-23538674D01*
X-36001000Y-23493339D01*
X-36001000Y-22406661D01*
X-35996535Y-22361326D01*
X-35985101Y-22323633D01*
X-35966534Y-22288897D01*
X-35941548Y-22258452D01*
X-35911103Y-22233466D01*
X-35876367Y-22214899D01*
X-35838674Y-22203465D01*
X-35793339Y-22199000D01*
X-34956661Y-22199000D01*
X-34911326Y-22203465D01*
G37*
G36*
X-5636326Y-22203465D02*
G01*
X-5598633Y-22214899D01*
X-5563897Y-22233466D01*
X-5533452Y-22258452D01*
X-5508466Y-22288897D01*
X-5489899Y-22323633D01*
X-5478465Y-22361326D01*
X-5474000Y-22406661D01*
X-5474000Y-23493339D01*
X-5478465Y-23538674D01*
X-5489899Y-23576367D01*
X-5508466Y-23611103D01*
X-5533452Y-23641548D01*
X-5563897Y-23666534D01*
X-5598633Y-23685101D01*
X-5636326Y-23696535D01*
X-5681661Y-23701000D01*
X-6518339Y-23701000D01*
X-6563674Y-23696535D01*
X-6601367Y-23685101D01*
X-6636103Y-23666534D01*
X-6666548Y-23641548D01*
X-6691534Y-23611103D01*
X-6710101Y-23576367D01*
X-6721535Y-23538674D01*
X-6726000Y-23493339D01*
X-6726000Y-22406661D01*
X-6721535Y-22361326D01*
X-6710101Y-22323633D01*
X-6691534Y-22288897D01*
X-6666548Y-22258452D01*
X-6636103Y-22233466D01*
X-6601367Y-22214899D01*
X-6563674Y-22203465D01*
X-6518339Y-22199000D01*
X-5681661Y-22199000D01*
X-5636326Y-22203465D01*
G37*
G36*
X-19561326Y-22203465D02*
G01*
X-19523633Y-22214899D01*
X-19488897Y-22233466D01*
X-19458452Y-22258452D01*
X-19433466Y-22288897D01*
X-19414899Y-22323633D01*
X-19403465Y-22361326D01*
X-19399000Y-22406661D01*
X-19399000Y-23493339D01*
X-19403465Y-23538674D01*
X-19414899Y-23576367D01*
X-19433466Y-23611103D01*
X-19458452Y-23641548D01*
X-19488897Y-23666534D01*
X-19523633Y-23685101D01*
X-19561326Y-23696535D01*
X-19606661Y-23701000D01*
X-20443339Y-23701000D01*
X-20488674Y-23696535D01*
X-20526367Y-23685101D01*
X-20561103Y-23666534D01*
X-20591548Y-23641548D01*
X-20616534Y-23611103D01*
X-20635101Y-23576367D01*
X-20646535Y-23538674D01*
X-20651000Y-23493339D01*
X-20651000Y-22406661D01*
X-20646535Y-22361326D01*
X-20635101Y-22323633D01*
X-20616534Y-22288897D01*
X-20591548Y-22258452D01*
X-20561103Y-22233466D01*
X-20526367Y-22214899D01*
X-20488674Y-22203465D01*
X-20443339Y-22199000D01*
X-19606661Y-22199000D01*
X-19561326Y-22203465D01*
G37*
G36*
X-36961326Y-22203465D02*
G01*
X-36923633Y-22214899D01*
X-36888897Y-22233466D01*
X-36858452Y-22258452D01*
X-36833466Y-22288897D01*
X-36814899Y-22323633D01*
X-36803465Y-22361326D01*
X-36799000Y-22406661D01*
X-36799000Y-23493339D01*
X-36803465Y-23538674D01*
X-36814899Y-23576367D01*
X-36833466Y-23611103D01*
X-36858452Y-23641548D01*
X-36888897Y-23666534D01*
X-36923633Y-23685101D01*
X-36961326Y-23696535D01*
X-37006661Y-23701000D01*
X-37843339Y-23701000D01*
X-37888674Y-23696535D01*
X-37926367Y-23685101D01*
X-37961103Y-23666534D01*
X-37991548Y-23641548D01*
X-38016534Y-23611103D01*
X-38035101Y-23576367D01*
X-38046535Y-23538674D01*
X-38051000Y-23493339D01*
X-38051000Y-22406661D01*
X-38046535Y-22361326D01*
X-38035101Y-22323633D01*
X-38016534Y-22288897D01*
X-37991548Y-22258452D01*
X-37961103Y-22233466D01*
X-37926367Y-22214899D01*
X-37888674Y-22203465D01*
X-37843339Y-22199000D01*
X-37006661Y-22199000D01*
X-36961326Y-22203465D01*
G37*
G36*
X-3586326Y-22203465D02*
G01*
X-3548633Y-22214899D01*
X-3513897Y-22233466D01*
X-3483452Y-22258452D01*
X-3458466Y-22288897D01*
X-3439899Y-22323633D01*
X-3428465Y-22361326D01*
X-3424000Y-22406661D01*
X-3424000Y-23493339D01*
X-3428465Y-23538674D01*
X-3439899Y-23576367D01*
X-3458466Y-23611103D01*
X-3483452Y-23641548D01*
X-3513897Y-23666534D01*
X-3548633Y-23685101D01*
X-3586326Y-23696535D01*
X-3631661Y-23701000D01*
X-4468339Y-23701000D01*
X-4513674Y-23696535D01*
X-4551367Y-23685101D01*
X-4586103Y-23666534D01*
X-4616548Y-23641548D01*
X-4641534Y-23611103D01*
X-4660101Y-23576367D01*
X-4671535Y-23538674D01*
X-4676000Y-23493339D01*
X-4676000Y-22406661D01*
X-4671535Y-22361326D01*
X-4660101Y-22323633D01*
X-4641534Y-22288897D01*
X-4616548Y-22258452D01*
X-4586103Y-22233466D01*
X-4551367Y-22214899D01*
X-4513674Y-22203465D01*
X-4468339Y-22199000D01*
X-3631661Y-22199000D01*
X-3586326Y-22203465D01*
G37*
G36*
X1801000Y-23626000D02*
G01*
X499000Y-23626000D01*
X499000Y-22324000D01*
X1801000Y-22324000D01*
X1801000Y-23626000D01*
G37*
G36*
X-299000Y-23626000D02*
G01*
X-1601000Y-23626000D01*
X-1601000Y-22324000D01*
X-299000Y-22324000D01*
X-299000Y-23626000D01*
G37*
G36*
X-56385205Y-20995156D02*
G01*
X-56278850Y-21016311D01*
X-56180800Y-21056925D01*
X-56078480Y-21099307D01*
X-55898156Y-21219795D01*
X-55744795Y-21373156D01*
X-55624307Y-21553480D01*
X-55541311Y-21753851D01*
X-55499000Y-21966560D01*
X-55499000Y-22183440D01*
X-55505258Y-22214899D01*
X-55541311Y-22396150D01*
X-55572387Y-22471173D01*
X-55624307Y-22596520D01*
X-55744795Y-22776844D01*
X-55898156Y-22930205D01*
X-56078480Y-23050693D01*
X-56139577Y-23076000D01*
X-56278850Y-23133689D01*
X-56385206Y-23154845D01*
X-56491560Y-23176000D01*
X-56708440Y-23176000D01*
X-56814794Y-23154845D01*
X-56921150Y-23133689D01*
X-57060423Y-23076000D01*
X-57121520Y-23050693D01*
X-57301844Y-22930205D01*
X-57455205Y-22776844D01*
X-57575693Y-22596520D01*
X-57627613Y-22471173D01*
X-57658689Y-22396150D01*
X-57694742Y-22214899D01*
X-57701000Y-22183440D01*
X-57701000Y-21966560D01*
X-57658689Y-21753851D01*
X-57575693Y-21553480D01*
X-57455205Y-21373156D01*
X-57301844Y-21219795D01*
X-57121520Y-21099307D01*
X-57019200Y-21056925D01*
X-56921150Y-21016311D01*
X-56814795Y-20995156D01*
X-56708440Y-20974000D01*
X-56491560Y-20974000D01*
X-56385205Y-20995156D01*
G37*
G36*
X-34911326Y-19778465D02*
G01*
X-34873633Y-19789899D01*
X-34838897Y-19808466D01*
X-34808452Y-19833452D01*
X-34783466Y-19863897D01*
X-34764899Y-19898633D01*
X-34753465Y-19936326D01*
X-34749000Y-19981661D01*
X-34749000Y-21068339D01*
X-34753465Y-21113674D01*
X-34764899Y-21151367D01*
X-34783466Y-21186103D01*
X-34808452Y-21216548D01*
X-34838897Y-21241534D01*
X-34873633Y-21260101D01*
X-34911326Y-21271535D01*
X-34956661Y-21276000D01*
X-35793339Y-21276000D01*
X-35838674Y-21271535D01*
X-35876367Y-21260101D01*
X-35911103Y-21241534D01*
X-35941548Y-21216548D01*
X-35966534Y-21186103D01*
X-35985101Y-21151367D01*
X-35996535Y-21113674D01*
X-36001000Y-21068339D01*
X-36001000Y-19981661D01*
X-35996535Y-19936326D01*
X-35985101Y-19898633D01*
X-35966534Y-19863897D01*
X-35941548Y-19833452D01*
X-35911103Y-19808466D01*
X-35876367Y-19789899D01*
X-35838674Y-19778465D01*
X-35793339Y-19774000D01*
X-34956661Y-19774000D01*
X-34911326Y-19778465D01*
G37*
G36*
X-36961326Y-19778465D02*
G01*
X-36923633Y-19789899D01*
X-36888897Y-19808466D01*
X-36858452Y-19833452D01*
X-36833466Y-19863897D01*
X-36814899Y-19898633D01*
X-36803465Y-19936326D01*
X-36799000Y-19981661D01*
X-36799000Y-21068339D01*
X-36803465Y-21113674D01*
X-36814899Y-21151367D01*
X-36833466Y-21186103D01*
X-36858452Y-21216548D01*
X-36888897Y-21241534D01*
X-36923633Y-21260101D01*
X-36961326Y-21271535D01*
X-37006661Y-21276000D01*
X-37843339Y-21276000D01*
X-37888674Y-21271535D01*
X-37926367Y-21260101D01*
X-37961103Y-21241534D01*
X-37991548Y-21216548D01*
X-38016534Y-21186103D01*
X-38035101Y-21151367D01*
X-38046535Y-21113674D01*
X-38051000Y-21068339D01*
X-38051000Y-19981661D01*
X-38046535Y-19936326D01*
X-38035101Y-19898633D01*
X-38016534Y-19863897D01*
X-37991548Y-19833452D01*
X-37961103Y-19808466D01*
X-37926367Y-19789899D01*
X-37888674Y-19778465D01*
X-37843339Y-19774000D01*
X-37006661Y-19774000D01*
X-36961326Y-19778465D01*
G37*
G36*
X-19561326Y-19778465D02*
G01*
X-19523633Y-19789899D01*
X-19488897Y-19808466D01*
X-19458452Y-19833452D01*
X-19433466Y-19863897D01*
X-19414899Y-19898633D01*
X-19403465Y-19936326D01*
X-19399000Y-19981661D01*
X-19399000Y-21068339D01*
X-19403465Y-21113674D01*
X-19414899Y-21151367D01*
X-19433466Y-21186103D01*
X-19458452Y-21216548D01*
X-19488897Y-21241534D01*
X-19523633Y-21260101D01*
X-19561326Y-21271535D01*
X-19606661Y-21276000D01*
X-20443339Y-21276000D01*
X-20488674Y-21271535D01*
X-20526367Y-21260101D01*
X-20561103Y-21241534D01*
X-20591548Y-21216548D01*
X-20616534Y-21186103D01*
X-20635101Y-21151367D01*
X-20646535Y-21113674D01*
X-20651000Y-21068339D01*
X-20651000Y-19981661D01*
X-20646535Y-19936326D01*
X-20635101Y-19898633D01*
X-20616534Y-19863897D01*
X-20591548Y-19833452D01*
X-20561103Y-19808466D01*
X-20526367Y-19789899D01*
X-20488674Y-19778465D01*
X-20443339Y-19774000D01*
X-19606661Y-19774000D01*
X-19561326Y-19778465D01*
G37*
G36*
X-3586326Y-19778465D02*
G01*
X-3548633Y-19789899D01*
X-3513897Y-19808466D01*
X-3483452Y-19833452D01*
X-3458466Y-19863897D01*
X-3439899Y-19898633D01*
X-3428465Y-19936326D01*
X-3424000Y-19981661D01*
X-3424000Y-21068339D01*
X-3428465Y-21113674D01*
X-3439899Y-21151367D01*
X-3458466Y-21186103D01*
X-3483452Y-21216548D01*
X-3513897Y-21241534D01*
X-3548633Y-21260101D01*
X-3586326Y-21271535D01*
X-3631661Y-21276000D01*
X-4468339Y-21276000D01*
X-4513674Y-21271535D01*
X-4551367Y-21260101D01*
X-4586103Y-21241534D01*
X-4616548Y-21216548D01*
X-4641534Y-21186103D01*
X-4660101Y-21151367D01*
X-4671535Y-21113674D01*
X-4676000Y-21068339D01*
X-4676000Y-19981661D01*
X-4671535Y-19936326D01*
X-4660101Y-19898633D01*
X-4641534Y-19863897D01*
X-4616548Y-19833452D01*
X-4586103Y-19808466D01*
X-4551367Y-19789899D01*
X-4513674Y-19778465D01*
X-4468339Y-19774000D01*
X-3631661Y-19774000D01*
X-3586326Y-19778465D01*
G37*
G36*
X-5636326Y-19778465D02*
G01*
X-5598633Y-19789899D01*
X-5563897Y-19808466D01*
X-5533452Y-19833452D01*
X-5508466Y-19863897D01*
X-5489899Y-19898633D01*
X-5478465Y-19936326D01*
X-5474000Y-19981661D01*
X-5474000Y-21068339D01*
X-5478465Y-21113674D01*
X-5489899Y-21151367D01*
X-5508466Y-21186103D01*
X-5533452Y-21216548D01*
X-5563897Y-21241534D01*
X-5598633Y-21260101D01*
X-5636326Y-21271535D01*
X-5681661Y-21276000D01*
X-6518339Y-21276000D01*
X-6563674Y-21271535D01*
X-6601367Y-21260101D01*
X-6636103Y-21241534D01*
X-6666548Y-21216548D01*
X-6691534Y-21186103D01*
X-6710101Y-21151367D01*
X-6721535Y-21113674D01*
X-6726000Y-21068339D01*
X-6726000Y-19981661D01*
X-6721535Y-19936326D01*
X-6710101Y-19898633D01*
X-6691534Y-19863897D01*
X-6666548Y-19833452D01*
X-6636103Y-19808466D01*
X-6601367Y-19789899D01*
X-6563674Y-19778465D01*
X-6518339Y-19774000D01*
X-5681661Y-19774000D01*
X-5636326Y-19778465D01*
G37*
G36*
X-21611326Y-19778465D02*
G01*
X-21573633Y-19789899D01*
X-21538897Y-19808466D01*
X-21508452Y-19833452D01*
X-21483466Y-19863897D01*
X-21464899Y-19898633D01*
X-21453465Y-19936326D01*
X-21449000Y-19981661D01*
X-21449000Y-21068339D01*
X-21453465Y-21113674D01*
X-21464899Y-21151367D01*
X-21483466Y-21186103D01*
X-21508452Y-21216548D01*
X-21538897Y-21241534D01*
X-21573633Y-21260101D01*
X-21611326Y-21271535D01*
X-21656661Y-21276000D01*
X-22493339Y-21276000D01*
X-22538674Y-21271535D01*
X-22576367Y-21260101D01*
X-22611103Y-21241534D01*
X-22641548Y-21216548D01*
X-22666534Y-21186103D01*
X-22685101Y-21151367D01*
X-22696535Y-21113674D01*
X-22701000Y-21068339D01*
X-22701000Y-19981661D01*
X-22696535Y-19936326D01*
X-22685101Y-19898633D01*
X-22666534Y-19863897D01*
X-22641548Y-19833452D01*
X-22611103Y-19808466D01*
X-22576367Y-19789899D01*
X-22538674Y-19778465D01*
X-22493339Y-19774000D01*
X-21656661Y-19774000D01*
X-21611326Y-19778465D01*
G37*
G36*
X-9906488Y-8403927D02*
G01*
X-9757188Y-8433624D01*
X-9593216Y-8501544D01*
X-9445646Y-8600147D01*
X-9320147Y-8725646D01*
X-9221544Y-8873216D01*
X-9153624Y-9037188D01*
X-9119000Y-9211259D01*
X-9119000Y-9388741D01*
X-9153624Y-9562812D01*
X-9221544Y-9726784D01*
X-9320147Y-9874354D01*
X-9445646Y-9999853D01*
X-9593216Y-10098456D01*
X-9757188Y-10166376D01*
X-9906488Y-10196073D01*
X-9931258Y-10201000D01*
X-10108742Y-10201000D01*
X-10133512Y-10196073D01*
X-10282812Y-10166376D01*
X-10446784Y-10098456D01*
X-10594354Y-9999853D01*
X-10719853Y-9874354D01*
X-10818456Y-9726784D01*
X-10886376Y-9562812D01*
X-10921000Y-9388741D01*
X-10921000Y-9211259D01*
X-10886376Y-9037188D01*
X-10818456Y-8873216D01*
X-10719853Y-8725646D01*
X-10594354Y-8600147D01*
X-10446784Y-8501544D01*
X-10282812Y-8433624D01*
X-10133512Y-8403927D01*
X-10108742Y-8399000D01*
X-9931258Y-8399000D01*
X-9906488Y-8403927D01*
G37*
G36*
X-42926488Y-8403927D02*
G01*
X-42777188Y-8433624D01*
X-42613216Y-8501544D01*
X-42465646Y-8600147D01*
X-42340147Y-8725646D01*
X-42241544Y-8873216D01*
X-42173624Y-9037188D01*
X-42139000Y-9211259D01*
X-42139000Y-9388741D01*
X-42173624Y-9562812D01*
X-42241544Y-9726784D01*
X-42340147Y-9874354D01*
X-42465646Y-9999853D01*
X-42613216Y-10098456D01*
X-42777188Y-10166376D01*
X-42926488Y-10196073D01*
X-42951258Y-10201000D01*
X-43128742Y-10201000D01*
X-43153512Y-10196073D01*
X-43302812Y-10166376D01*
X-43466784Y-10098456D01*
X-43614354Y-9999853D01*
X-43739853Y-9874354D01*
X-43838456Y-9726784D01*
X-43906376Y-9562812D01*
X-43941000Y-9388741D01*
X-43941000Y-9211259D01*
X-43906376Y-9037188D01*
X-43838456Y-8873216D01*
X-43739853Y-8725646D01*
X-43614354Y-8600147D01*
X-43466784Y-8501544D01*
X-43302812Y-8433624D01*
X-43153512Y-8403927D01*
X-43128742Y-8399000D01*
X-42951258Y-8399000D01*
X-42926488Y-8403927D01*
G37*
G36*
X-45466488Y-8403927D02*
G01*
X-45317188Y-8433624D01*
X-45153216Y-8501544D01*
X-45005646Y-8600147D01*
X-44880147Y-8725646D01*
X-44781544Y-8873216D01*
X-44713624Y-9037188D01*
X-44679000Y-9211259D01*
X-44679000Y-9388741D01*
X-44713624Y-9562812D01*
X-44781544Y-9726784D01*
X-44880147Y-9874354D01*
X-45005646Y-9999853D01*
X-45153216Y-10098456D01*
X-45317188Y-10166376D01*
X-45466488Y-10196073D01*
X-45491258Y-10201000D01*
X-45668742Y-10201000D01*
X-45693512Y-10196073D01*
X-45842812Y-10166376D01*
X-46006784Y-10098456D01*
X-46154354Y-9999853D01*
X-46279853Y-9874354D01*
X-46378456Y-9726784D01*
X-46446376Y-9562812D01*
X-46481000Y-9388741D01*
X-46481000Y-9211259D01*
X-46446376Y-9037188D01*
X-46378456Y-8873216D01*
X-46279853Y-8725646D01*
X-46154354Y-8600147D01*
X-46006784Y-8501544D01*
X-45842812Y-8433624D01*
X-45693512Y-8403927D01*
X-45668742Y-8399000D01*
X-45491258Y-8399000D01*
X-45466488Y-8403927D01*
G37*
G36*
X-48006488Y-8403927D02*
G01*
X-47857188Y-8433624D01*
X-47693216Y-8501544D01*
X-47545646Y-8600147D01*
X-47420147Y-8725646D01*
X-47321544Y-8873216D01*
X-47253624Y-9037188D01*
X-47219000Y-9211259D01*
X-47219000Y-9388741D01*
X-47253624Y-9562812D01*
X-47321544Y-9726784D01*
X-47420147Y-9874354D01*
X-47545646Y-9999853D01*
X-47693216Y-10098456D01*
X-47857188Y-10166376D01*
X-48006488Y-10196073D01*
X-48031258Y-10201000D01*
X-48208742Y-10201000D01*
X-48233512Y-10196073D01*
X-48382812Y-10166376D01*
X-48546784Y-10098456D01*
X-48694354Y-9999853D01*
X-48819853Y-9874354D01*
X-48918456Y-9726784D01*
X-48986376Y-9562812D01*
X-49021000Y-9388741D01*
X-49021000Y-9211259D01*
X-48986376Y-9037188D01*
X-48918456Y-8873216D01*
X-48819853Y-8725646D01*
X-48694354Y-8600147D01*
X-48546784Y-8501544D01*
X-48382812Y-8433624D01*
X-48233512Y-8403927D01*
X-48208742Y-8399000D01*
X-48031258Y-8399000D01*
X-48006488Y-8403927D01*
G37*
G36*
X-52299000Y-10201000D02*
G01*
X-54101000Y-10201000D01*
X-54101000Y-8399000D01*
X-52299000Y-8399000D01*
X-52299000Y-10201000D01*
G37*
G36*
X-22606488Y-8403927D02*
G01*
X-22457188Y-8433624D01*
X-22293216Y-8501544D01*
X-22145646Y-8600147D01*
X-22020147Y-8725646D01*
X-21921544Y-8873216D01*
X-21853624Y-9037188D01*
X-21819000Y-9211259D01*
X-21819000Y-9388741D01*
X-21853624Y-9562812D01*
X-21921544Y-9726784D01*
X-22020147Y-9874354D01*
X-22145646Y-9999853D01*
X-22293216Y-10098456D01*
X-22457188Y-10166376D01*
X-22606488Y-10196073D01*
X-22631258Y-10201000D01*
X-22808742Y-10201000D01*
X-22833512Y-10196073D01*
X-22982812Y-10166376D01*
X-23146784Y-10098456D01*
X-23294354Y-9999853D01*
X-23419853Y-9874354D01*
X-23518456Y-9726784D01*
X-23586376Y-9562812D01*
X-23621000Y-9388741D01*
X-23621000Y-9211259D01*
X-23586376Y-9037188D01*
X-23518456Y-8873216D01*
X-23419853Y-8725646D01*
X-23294354Y-8600147D01*
X-23146784Y-8501544D01*
X-22982812Y-8433624D01*
X-22833512Y-8403927D01*
X-22808742Y-8399000D01*
X-22631258Y-8399000D01*
X-22606488Y-8403927D01*
G37*
G36*
X-25146488Y-8403927D02*
G01*
X-24997188Y-8433624D01*
X-24833216Y-8501544D01*
X-24685646Y-8600147D01*
X-24560147Y-8725646D01*
X-24461544Y-8873216D01*
X-24393624Y-9037188D01*
X-24359000Y-9211259D01*
X-24359000Y-9388741D01*
X-24393624Y-9562812D01*
X-24461544Y-9726784D01*
X-24560147Y-9874354D01*
X-24685646Y-9999853D01*
X-24833216Y-10098456D01*
X-24997188Y-10166376D01*
X-25146488Y-10196073D01*
X-25171258Y-10201000D01*
X-25348742Y-10201000D01*
X-25373512Y-10196073D01*
X-25522812Y-10166376D01*
X-25686784Y-10098456D01*
X-25834354Y-9999853D01*
X-25959853Y-9874354D01*
X-26058456Y-9726784D01*
X-26126376Y-9562812D01*
X-26161000Y-9388741D01*
X-26161000Y-9211259D01*
X-26126376Y-9037188D01*
X-26058456Y-8873216D01*
X-25959853Y-8725646D01*
X-25834354Y-8600147D01*
X-25686784Y-8501544D01*
X-25522812Y-8433624D01*
X-25373512Y-8403927D01*
X-25348742Y-8399000D01*
X-25171258Y-8399000D01*
X-25146488Y-8403927D01*
G37*
G36*
X-40386488Y-8403927D02*
G01*
X-40237188Y-8433624D01*
X-40073216Y-8501544D01*
X-39925646Y-8600147D01*
X-39800147Y-8725646D01*
X-39701544Y-8873216D01*
X-39633624Y-9037188D01*
X-39599000Y-9211259D01*
X-39599000Y-9388741D01*
X-39633624Y-9562812D01*
X-39701544Y-9726784D01*
X-39800147Y-9874354D01*
X-39925646Y-9999853D01*
X-40073216Y-10098456D01*
X-40237188Y-10166376D01*
X-40386488Y-10196073D01*
X-40411258Y-10201000D01*
X-40588742Y-10201000D01*
X-40613512Y-10196073D01*
X-40762812Y-10166376D01*
X-40926784Y-10098456D01*
X-41074354Y-9999853D01*
X-41199853Y-9874354D01*
X-41298456Y-9726784D01*
X-41366376Y-9562812D01*
X-41401000Y-9388741D01*
X-41401000Y-9211259D01*
X-41366376Y-9037188D01*
X-41298456Y-8873216D01*
X-41199853Y-8725646D01*
X-41074354Y-8600147D01*
X-40926784Y-8501544D01*
X-40762812Y-8433624D01*
X-40613512Y-8403927D01*
X-40588742Y-8399000D01*
X-40411258Y-8399000D01*
X-40386488Y-8403927D01*
G37*
G36*
X-30226488Y-8403927D02*
G01*
X-30077188Y-8433624D01*
X-29913216Y-8501544D01*
X-29765646Y-8600147D01*
X-29640147Y-8725646D01*
X-29541544Y-8873216D01*
X-29473624Y-9037188D01*
X-29439000Y-9211259D01*
X-29439000Y-9388741D01*
X-29473624Y-9562812D01*
X-29541544Y-9726784D01*
X-29640147Y-9874354D01*
X-29765646Y-9999853D01*
X-29913216Y-10098456D01*
X-30077188Y-10166376D01*
X-30226488Y-10196073D01*
X-30251258Y-10201000D01*
X-30428742Y-10201000D01*
X-30453512Y-10196073D01*
X-30602812Y-10166376D01*
X-30766784Y-10098456D01*
X-30914354Y-9999853D01*
X-31039853Y-9874354D01*
X-31138456Y-9726784D01*
X-31206376Y-9562812D01*
X-31241000Y-9388741D01*
X-31241000Y-9211259D01*
X-31206376Y-9037188D01*
X-31138456Y-8873216D01*
X-31039853Y-8725646D01*
X-30914354Y-8600147D01*
X-30766784Y-8501544D01*
X-30602812Y-8433624D01*
X-30453512Y-8403927D01*
X-30428742Y-8399000D01*
X-30251258Y-8399000D01*
X-30226488Y-8403927D01*
G37*
G36*
X-32766488Y-8403927D02*
G01*
X-32617188Y-8433624D01*
X-32453216Y-8501544D01*
X-32305646Y-8600147D01*
X-32180147Y-8725646D01*
X-32081544Y-8873216D01*
X-32013624Y-9037188D01*
X-31979000Y-9211259D01*
X-31979000Y-9388741D01*
X-32013624Y-9562812D01*
X-32081544Y-9726784D01*
X-32180147Y-9874354D01*
X-32305646Y-9999853D01*
X-32453216Y-10098456D01*
X-32617188Y-10166376D01*
X-32766488Y-10196073D01*
X-32791258Y-10201000D01*
X-32968742Y-10201000D01*
X-32993512Y-10196073D01*
X-33142812Y-10166376D01*
X-33306784Y-10098456D01*
X-33454354Y-9999853D01*
X-33579853Y-9874354D01*
X-33678456Y-9726784D01*
X-33746376Y-9562812D01*
X-33781000Y-9388741D01*
X-33781000Y-9211259D01*
X-33746376Y-9037188D01*
X-33678456Y-8873216D01*
X-33579853Y-8725646D01*
X-33454354Y-8600147D01*
X-33306784Y-8501544D01*
X-33142812Y-8433624D01*
X-32993512Y-8403927D01*
X-32968742Y-8399000D01*
X-32791258Y-8399000D01*
X-32766488Y-8403927D01*
G37*
G36*
X-35306488Y-8403927D02*
G01*
X-35157188Y-8433624D01*
X-34993216Y-8501544D01*
X-34845646Y-8600147D01*
X-34720147Y-8725646D01*
X-34621544Y-8873216D01*
X-34553624Y-9037188D01*
X-34519000Y-9211259D01*
X-34519000Y-9388741D01*
X-34553624Y-9562812D01*
X-34621544Y-9726784D01*
X-34720147Y-9874354D01*
X-34845646Y-9999853D01*
X-34993216Y-10098456D01*
X-35157188Y-10166376D01*
X-35306488Y-10196073D01*
X-35331258Y-10201000D01*
X-35508742Y-10201000D01*
X-35533512Y-10196073D01*
X-35682812Y-10166376D01*
X-35846784Y-10098456D01*
X-35994354Y-9999853D01*
X-36119853Y-9874354D01*
X-36218456Y-9726784D01*
X-36286376Y-9562812D01*
X-36321000Y-9388741D01*
X-36321000Y-9211259D01*
X-36286376Y-9037188D01*
X-36218456Y-8873216D01*
X-36119853Y-8725646D01*
X-35994354Y-8600147D01*
X-35846784Y-8501544D01*
X-35682812Y-8433624D01*
X-35533512Y-8403927D01*
X-35508742Y-8399000D01*
X-35331258Y-8399000D01*
X-35306488Y-8403927D01*
G37*
G36*
X-17526488Y-8403927D02*
G01*
X-17377188Y-8433624D01*
X-17213216Y-8501544D01*
X-17065646Y-8600147D01*
X-16940147Y-8725646D01*
X-16841544Y-8873216D01*
X-16773624Y-9037188D01*
X-16739000Y-9211259D01*
X-16739000Y-9388741D01*
X-16773624Y-9562812D01*
X-16841544Y-9726784D01*
X-16940147Y-9874354D01*
X-17065646Y-9999853D01*
X-17213216Y-10098456D01*
X-17377188Y-10166376D01*
X-17526488Y-10196073D01*
X-17551258Y-10201000D01*
X-17728742Y-10201000D01*
X-17753512Y-10196073D01*
X-17902812Y-10166376D01*
X-18066784Y-10098456D01*
X-18214354Y-9999853D01*
X-18339853Y-9874354D01*
X-18438456Y-9726784D01*
X-18506376Y-9562812D01*
X-18541000Y-9388741D01*
X-18541000Y-9211259D01*
X-18506376Y-9037188D01*
X-18438456Y-8873216D01*
X-18339853Y-8725646D01*
X-18214354Y-8600147D01*
X-18066784Y-8501544D01*
X-17902812Y-8433624D01*
X-17753512Y-8403927D01*
X-17728742Y-8399000D01*
X-17551258Y-8399000D01*
X-17526488Y-8403927D01*
G37*
G36*
X-37846488Y-8403927D02*
G01*
X-37697188Y-8433624D01*
X-37533216Y-8501544D01*
X-37385646Y-8600147D01*
X-37260147Y-8725646D01*
X-37161544Y-8873216D01*
X-37093624Y-9037188D01*
X-37059000Y-9211259D01*
X-37059000Y-9388741D01*
X-37093624Y-9562812D01*
X-37161544Y-9726784D01*
X-37260147Y-9874354D01*
X-37385646Y-9999853D01*
X-37533216Y-10098456D01*
X-37697188Y-10166376D01*
X-37846488Y-10196073D01*
X-37871258Y-10201000D01*
X-38048742Y-10201000D01*
X-38073512Y-10196073D01*
X-38222812Y-10166376D01*
X-38386784Y-10098456D01*
X-38534354Y-9999853D01*
X-38659853Y-9874354D01*
X-38758456Y-9726784D01*
X-38826376Y-9562812D01*
X-38861000Y-9388741D01*
X-38861000Y-9211259D01*
X-38826376Y-9037188D01*
X-38758456Y-8873216D01*
X-38659853Y-8725646D01*
X-38534354Y-8600147D01*
X-38386784Y-8501544D01*
X-38222812Y-8433624D01*
X-38073512Y-8403927D01*
X-38048742Y-8399000D01*
X-37871258Y-8399000D01*
X-37846488Y-8403927D01*
G37*
G36*
X-20066488Y-8403927D02*
G01*
X-19917188Y-8433624D01*
X-19753216Y-8501544D01*
X-19605646Y-8600147D01*
X-19480147Y-8725646D01*
X-19381544Y-8873216D01*
X-19313624Y-9037188D01*
X-19279000Y-9211259D01*
X-19279000Y-9388741D01*
X-19313624Y-9562812D01*
X-19381544Y-9726784D01*
X-19480147Y-9874354D01*
X-19605646Y-9999853D01*
X-19753216Y-10098456D01*
X-19917188Y-10166376D01*
X-20066488Y-10196073D01*
X-20091258Y-10201000D01*
X-20268742Y-10201000D01*
X-20293512Y-10196073D01*
X-20442812Y-10166376D01*
X-20606784Y-10098456D01*
X-20754354Y-9999853D01*
X-20879853Y-9874354D01*
X-20978456Y-9726784D01*
X-21046376Y-9562812D01*
X-21081000Y-9388741D01*
X-21081000Y-9211259D01*
X-21046376Y-9037188D01*
X-20978456Y-8873216D01*
X-20879853Y-8725646D01*
X-20754354Y-8600147D01*
X-20606784Y-8501544D01*
X-20442812Y-8433624D01*
X-20293512Y-8403927D01*
X-20268742Y-8399000D01*
X-20091258Y-8399000D01*
X-20066488Y-8403927D01*
G37*
G36*
X-27686488Y-8403927D02*
G01*
X-27537188Y-8433624D01*
X-27373216Y-8501544D01*
X-27225646Y-8600147D01*
X-27100147Y-8725646D01*
X-27001544Y-8873216D01*
X-26933624Y-9037188D01*
X-26899000Y-9211259D01*
X-26899000Y-9388741D01*
X-26933624Y-9562812D01*
X-27001544Y-9726784D01*
X-27100147Y-9874354D01*
X-27225646Y-9999853D01*
X-27373216Y-10098456D01*
X-27537188Y-10166376D01*
X-27686488Y-10196073D01*
X-27711258Y-10201000D01*
X-27888742Y-10201000D01*
X-27913512Y-10196073D01*
X-28062812Y-10166376D01*
X-28226784Y-10098456D01*
X-28374354Y-9999853D01*
X-28499853Y-9874354D01*
X-28598456Y-9726784D01*
X-28666376Y-9562812D01*
X-28701000Y-9388741D01*
X-28701000Y-9211259D01*
X-28666376Y-9037188D01*
X-28598456Y-8873216D01*
X-28499853Y-8725646D01*
X-28374354Y-8600147D01*
X-28226784Y-8501544D01*
X-28062812Y-8433624D01*
X-27913512Y-8403927D01*
X-27888742Y-8399000D01*
X-27711258Y-8399000D01*
X-27686488Y-8403927D01*
G37*
G36*
X-50546488Y-8403927D02*
G01*
X-50397188Y-8433624D01*
X-50233216Y-8501544D01*
X-50085646Y-8600147D01*
X-49960147Y-8725646D01*
X-49861544Y-8873216D01*
X-49793624Y-9037188D01*
X-49759000Y-9211259D01*
X-49759000Y-9388741D01*
X-49793624Y-9562812D01*
X-49861544Y-9726784D01*
X-49960147Y-9874354D01*
X-50085646Y-9999853D01*
X-50233216Y-10098456D01*
X-50397188Y-10166376D01*
X-50546488Y-10196073D01*
X-50571258Y-10201000D01*
X-50748742Y-10201000D01*
X-50773512Y-10196073D01*
X-50922812Y-10166376D01*
X-51086784Y-10098456D01*
X-51234354Y-9999853D01*
X-51359853Y-9874354D01*
X-51458456Y-9726784D01*
X-51526376Y-9562812D01*
X-51561000Y-9388741D01*
X-51561000Y-9211259D01*
X-51526376Y-9037188D01*
X-51458456Y-8873216D01*
X-51359853Y-8725646D01*
X-51234354Y-8600147D01*
X-51086784Y-8501544D01*
X-50922812Y-8433624D01*
X-50773512Y-8403927D01*
X-50748742Y-8399000D01*
X-50571258Y-8399000D01*
X-50546488Y-8403927D01*
G37*
G36*
X-4826488Y-8403927D02*
G01*
X-4677188Y-8433624D01*
X-4513216Y-8501544D01*
X-4365646Y-8600147D01*
X-4240147Y-8725646D01*
X-4141544Y-8873216D01*
X-4073624Y-9037188D01*
X-4039000Y-9211259D01*
X-4039000Y-9388741D01*
X-4073624Y-9562812D01*
X-4141544Y-9726784D01*
X-4240147Y-9874354D01*
X-4365646Y-9999853D01*
X-4513216Y-10098456D01*
X-4677188Y-10166376D01*
X-4826488Y-10196073D01*
X-4851258Y-10201000D01*
X-5028742Y-10201000D01*
X-5053512Y-10196073D01*
X-5202812Y-10166376D01*
X-5366784Y-10098456D01*
X-5514354Y-9999853D01*
X-5639853Y-9874354D01*
X-5738456Y-9726784D01*
X-5806376Y-9562812D01*
X-5841000Y-9388741D01*
X-5841000Y-9211259D01*
X-5806376Y-9037188D01*
X-5738456Y-8873216D01*
X-5639853Y-8725646D01*
X-5514354Y-8600147D01*
X-5366784Y-8501544D01*
X-5202812Y-8433624D01*
X-5053512Y-8403927D01*
X-5028742Y-8399000D01*
X-4851258Y-8399000D01*
X-4826488Y-8403927D01*
G37*
G36*
X-7366488Y-8403927D02*
G01*
X-7217188Y-8433624D01*
X-7053216Y-8501544D01*
X-6905646Y-8600147D01*
X-6780147Y-8725646D01*
X-6681544Y-8873216D01*
X-6613624Y-9037188D01*
X-6579000Y-9211259D01*
X-6579000Y-9388741D01*
X-6613624Y-9562812D01*
X-6681544Y-9726784D01*
X-6780147Y-9874354D01*
X-6905646Y-9999853D01*
X-7053216Y-10098456D01*
X-7217188Y-10166376D01*
X-7366488Y-10196073D01*
X-7391258Y-10201000D01*
X-7568742Y-10201000D01*
X-7593512Y-10196073D01*
X-7742812Y-10166376D01*
X-7906784Y-10098456D01*
X-8054354Y-9999853D01*
X-8179853Y-9874354D01*
X-8278456Y-9726784D01*
X-8346376Y-9562812D01*
X-8381000Y-9388741D01*
X-8381000Y-9211259D01*
X-8346376Y-9037188D01*
X-8278456Y-8873216D01*
X-8179853Y-8725646D01*
X-8054354Y-8600147D01*
X-7906784Y-8501544D01*
X-7742812Y-8433624D01*
X-7593512Y-8403927D01*
X-7568742Y-8399000D01*
X-7391258Y-8399000D01*
X-7366488Y-8403927D01*
G37*
G36*
X-12446488Y-8403927D02*
G01*
X-12297188Y-8433624D01*
X-12133216Y-8501544D01*
X-11985646Y-8600147D01*
X-11860147Y-8725646D01*
X-11761544Y-8873216D01*
X-11693624Y-9037188D01*
X-11659000Y-9211259D01*
X-11659000Y-9388741D01*
X-11693624Y-9562812D01*
X-11761544Y-9726784D01*
X-11860147Y-9874354D01*
X-11985646Y-9999853D01*
X-12133216Y-10098456D01*
X-12297188Y-10166376D01*
X-12446488Y-10196073D01*
X-12471258Y-10201000D01*
X-12648742Y-10201000D01*
X-12673512Y-10196073D01*
X-12822812Y-10166376D01*
X-12986784Y-10098456D01*
X-13134354Y-9999853D01*
X-13259853Y-9874354D01*
X-13358456Y-9726784D01*
X-13426376Y-9562812D01*
X-13461000Y-9388741D01*
X-13461000Y-9211259D01*
X-13426376Y-9037188D01*
X-13358456Y-8873216D01*
X-13259853Y-8725646D01*
X-13134354Y-8600147D01*
X-12986784Y-8501544D01*
X-12822812Y-8433624D01*
X-12673512Y-8403927D01*
X-12648742Y-8399000D01*
X-12471258Y-8399000D01*
X-12446488Y-8403927D01*
G37*
G36*
X-14986488Y-8403927D02*
G01*
X-14837188Y-8433624D01*
X-14673216Y-8501544D01*
X-14525646Y-8600147D01*
X-14400147Y-8725646D01*
X-14301544Y-8873216D01*
X-14233624Y-9037188D01*
X-14199000Y-9211259D01*
X-14199000Y-9388741D01*
X-14233624Y-9562812D01*
X-14301544Y-9726784D01*
X-14400147Y-9874354D01*
X-14525646Y-9999853D01*
X-14673216Y-10098456D01*
X-14837188Y-10166376D01*
X-14986488Y-10196073D01*
X-15011258Y-10201000D01*
X-15188742Y-10201000D01*
X-15213512Y-10196073D01*
X-15362812Y-10166376D01*
X-15526784Y-10098456D01*
X-15674354Y-9999853D01*
X-15799853Y-9874354D01*
X-15898456Y-9726784D01*
X-15966376Y-9562812D01*
X-16001000Y-9388741D01*
X-16001000Y-9211259D01*
X-15966376Y-9037188D01*
X-15898456Y-8873216D01*
X-15799853Y-8725646D01*
X-15674354Y-8600147D01*
X-15526784Y-8501544D01*
X-15362812Y-8433624D01*
X-15213512Y-8403927D01*
X-15188742Y-8399000D01*
X-15011258Y-8399000D01*
X-14986488Y-8403927D01*
G37*
G36*
X-53086488Y-5863927D02*
G01*
X-52937188Y-5893624D01*
X-52773216Y-5961544D01*
X-52625646Y-6060147D01*
X-52500147Y-6185646D01*
X-52401544Y-6333216D01*
X-52333624Y-6497188D01*
X-52299000Y-6671259D01*
X-52299000Y-6848741D01*
X-52333624Y-7022812D01*
X-52401544Y-7186784D01*
X-52500147Y-7334354D01*
X-52625646Y-7459853D01*
X-52773216Y-7558456D01*
X-52937188Y-7626376D01*
X-53086488Y-7656073D01*
X-53111258Y-7661000D01*
X-53288742Y-7661000D01*
X-53313512Y-7656073D01*
X-53462812Y-7626376D01*
X-53626784Y-7558456D01*
X-53774354Y-7459853D01*
X-53899853Y-7334354D01*
X-53998456Y-7186784D01*
X-54066376Y-7022812D01*
X-54101000Y-6848741D01*
X-54101000Y-6671259D01*
X-54066376Y-6497188D01*
X-53998456Y-6333216D01*
X-53899853Y-6185646D01*
X-53774354Y-6060147D01*
X-53626784Y-5961544D01*
X-53462812Y-5893624D01*
X-53313512Y-5863927D01*
X-53288742Y-5859000D01*
X-53111258Y-5859000D01*
X-53086488Y-5863927D01*
G37*
G36*
X-32766488Y-5863927D02*
G01*
X-32617188Y-5893624D01*
X-32453216Y-5961544D01*
X-32305646Y-6060147D01*
X-32180147Y-6185646D01*
X-32081544Y-6333216D01*
X-32013624Y-6497188D01*
X-31979000Y-6671259D01*
X-31979000Y-6848741D01*
X-32013624Y-7022812D01*
X-32081544Y-7186784D01*
X-32180147Y-7334354D01*
X-32305646Y-7459853D01*
X-32453216Y-7558456D01*
X-32617188Y-7626376D01*
X-32766488Y-7656073D01*
X-32791258Y-7661000D01*
X-32968742Y-7661000D01*
X-32993512Y-7656073D01*
X-33142812Y-7626376D01*
X-33306784Y-7558456D01*
X-33454354Y-7459853D01*
X-33579853Y-7334354D01*
X-33678456Y-7186784D01*
X-33746376Y-7022812D01*
X-33781000Y-6848741D01*
X-33781000Y-6671259D01*
X-33746376Y-6497188D01*
X-33678456Y-6333216D01*
X-33579853Y-6185646D01*
X-33454354Y-6060147D01*
X-33306784Y-5961544D01*
X-33142812Y-5893624D01*
X-32993512Y-5863927D01*
X-32968742Y-5859000D01*
X-32791258Y-5859000D01*
X-32766488Y-5863927D01*
G37*
G36*
X-35306488Y-5863927D02*
G01*
X-35157188Y-5893624D01*
X-34993216Y-5961544D01*
X-34845646Y-6060147D01*
X-34720147Y-6185646D01*
X-34621544Y-6333216D01*
X-34553624Y-6497188D01*
X-34519000Y-6671259D01*
X-34519000Y-6848741D01*
X-34553624Y-7022812D01*
X-34621544Y-7186784D01*
X-34720147Y-7334354D01*
X-34845646Y-7459853D01*
X-34993216Y-7558456D01*
X-35157188Y-7626376D01*
X-35306488Y-7656073D01*
X-35331258Y-7661000D01*
X-35508742Y-7661000D01*
X-35533512Y-7656073D01*
X-35682812Y-7626376D01*
X-35846784Y-7558456D01*
X-35994354Y-7459853D01*
X-36119853Y-7334354D01*
X-36218456Y-7186784D01*
X-36286376Y-7022812D01*
X-36321000Y-6848741D01*
X-36321000Y-6671259D01*
X-36286376Y-6497188D01*
X-36218456Y-6333216D01*
X-36119853Y-6185646D01*
X-35994354Y-6060147D01*
X-35846784Y-5961544D01*
X-35682812Y-5893624D01*
X-35533512Y-5863927D01*
X-35508742Y-5859000D01*
X-35331258Y-5859000D01*
X-35306488Y-5863927D01*
G37*
G36*
X-37846488Y-5863927D02*
G01*
X-37697188Y-5893624D01*
X-37533216Y-5961544D01*
X-37385646Y-6060147D01*
X-37260147Y-6185646D01*
X-37161544Y-6333216D01*
X-37093624Y-6497188D01*
X-37059000Y-6671259D01*
X-37059000Y-6848741D01*
X-37093624Y-7022812D01*
X-37161544Y-7186784D01*
X-37260147Y-7334354D01*
X-37385646Y-7459853D01*
X-37533216Y-7558456D01*
X-37697188Y-7626376D01*
X-37846488Y-7656073D01*
X-37871258Y-7661000D01*
X-38048742Y-7661000D01*
X-38073512Y-7656073D01*
X-38222812Y-7626376D01*
X-38386784Y-7558456D01*
X-38534354Y-7459853D01*
X-38659853Y-7334354D01*
X-38758456Y-7186784D01*
X-38826376Y-7022812D01*
X-38861000Y-6848741D01*
X-38861000Y-6671259D01*
X-38826376Y-6497188D01*
X-38758456Y-6333216D01*
X-38659853Y-6185646D01*
X-38534354Y-6060147D01*
X-38386784Y-5961544D01*
X-38222812Y-5893624D01*
X-38073512Y-5863927D01*
X-38048742Y-5859000D01*
X-37871258Y-5859000D01*
X-37846488Y-5863927D01*
G37*
G36*
X-14986488Y-5863927D02*
G01*
X-14837188Y-5893624D01*
X-14673216Y-5961544D01*
X-14525646Y-6060147D01*
X-14400147Y-6185646D01*
X-14301544Y-6333216D01*
X-14233624Y-6497188D01*
X-14199000Y-6671259D01*
X-14199000Y-6848741D01*
X-14233624Y-7022812D01*
X-14301544Y-7186784D01*
X-14400147Y-7334354D01*
X-14525646Y-7459853D01*
X-14673216Y-7558456D01*
X-14837188Y-7626376D01*
X-14986488Y-7656073D01*
X-15011258Y-7661000D01*
X-15188742Y-7661000D01*
X-15213512Y-7656073D01*
X-15362812Y-7626376D01*
X-15526784Y-7558456D01*
X-15674354Y-7459853D01*
X-15799853Y-7334354D01*
X-15898456Y-7186784D01*
X-15966376Y-7022812D01*
X-16001000Y-6848741D01*
X-16001000Y-6671259D01*
X-15966376Y-6497188D01*
X-15898456Y-6333216D01*
X-15799853Y-6185646D01*
X-15674354Y-6060147D01*
X-15526784Y-5961544D01*
X-15362812Y-5893624D01*
X-15213512Y-5863927D01*
X-15188742Y-5859000D01*
X-15011258Y-5859000D01*
X-14986488Y-5863927D01*
G37*
G36*
X-40386488Y-5863927D02*
G01*
X-40237188Y-5893624D01*
X-40073216Y-5961544D01*
X-39925646Y-6060147D01*
X-39800147Y-6185646D01*
X-39701544Y-6333216D01*
X-39633624Y-6497188D01*
X-39599000Y-6671259D01*
X-39599000Y-6848741D01*
X-39633624Y-7022812D01*
X-39701544Y-7186784D01*
X-39800147Y-7334354D01*
X-39925646Y-7459853D01*
X-40073216Y-7558456D01*
X-40237188Y-7626376D01*
X-40386488Y-7656073D01*
X-40411258Y-7661000D01*
X-40588742Y-7661000D01*
X-40613512Y-7656073D01*
X-40762812Y-7626376D01*
X-40926784Y-7558456D01*
X-41074354Y-7459853D01*
X-41199853Y-7334354D01*
X-41298456Y-7186784D01*
X-41366376Y-7022812D01*
X-41401000Y-6848741D01*
X-41401000Y-6671259D01*
X-41366376Y-6497188D01*
X-41298456Y-6333216D01*
X-41199853Y-6185646D01*
X-41074354Y-6060147D01*
X-40926784Y-5961544D01*
X-40762812Y-5893624D01*
X-40613512Y-5863927D01*
X-40588742Y-5859000D01*
X-40411258Y-5859000D01*
X-40386488Y-5863927D01*
G37*
G36*
X-42926488Y-5863927D02*
G01*
X-42777188Y-5893624D01*
X-42613216Y-5961544D01*
X-42465646Y-6060147D01*
X-42340147Y-6185646D01*
X-42241544Y-6333216D01*
X-42173624Y-6497188D01*
X-42139000Y-6671259D01*
X-42139000Y-6848741D01*
X-42173624Y-7022812D01*
X-42241544Y-7186784D01*
X-42340147Y-7334354D01*
X-42465646Y-7459853D01*
X-42613216Y-7558456D01*
X-42777188Y-7626376D01*
X-42926488Y-7656073D01*
X-42951258Y-7661000D01*
X-43128742Y-7661000D01*
X-43153512Y-7656073D01*
X-43302812Y-7626376D01*
X-43466784Y-7558456D01*
X-43614354Y-7459853D01*
X-43739853Y-7334354D01*
X-43838456Y-7186784D01*
X-43906376Y-7022812D01*
X-43941000Y-6848741D01*
X-43941000Y-6671259D01*
X-43906376Y-6497188D01*
X-43838456Y-6333216D01*
X-43739853Y-6185646D01*
X-43614354Y-6060147D01*
X-43466784Y-5961544D01*
X-43302812Y-5893624D01*
X-43153512Y-5863927D01*
X-43128742Y-5859000D01*
X-42951258Y-5859000D01*
X-42926488Y-5863927D01*
G37*
G36*
X-45466488Y-5863927D02*
G01*
X-45317188Y-5893624D01*
X-45153216Y-5961544D01*
X-45005646Y-6060147D01*
X-44880147Y-6185646D01*
X-44781544Y-6333216D01*
X-44713624Y-6497188D01*
X-44679000Y-6671259D01*
X-44679000Y-6848741D01*
X-44713624Y-7022812D01*
X-44781544Y-7186784D01*
X-44880147Y-7334354D01*
X-45005646Y-7459853D01*
X-45153216Y-7558456D01*
X-45317188Y-7626376D01*
X-45466488Y-7656073D01*
X-45491258Y-7661000D01*
X-45668742Y-7661000D01*
X-45693512Y-7656073D01*
X-45842812Y-7626376D01*
X-46006784Y-7558456D01*
X-46154354Y-7459853D01*
X-46279853Y-7334354D01*
X-46378456Y-7186784D01*
X-46446376Y-7022812D01*
X-46481000Y-6848741D01*
X-46481000Y-6671259D01*
X-46446376Y-6497188D01*
X-46378456Y-6333216D01*
X-46279853Y-6185646D01*
X-46154354Y-6060147D01*
X-46006784Y-5961544D01*
X-45842812Y-5893624D01*
X-45693512Y-5863927D01*
X-45668742Y-5859000D01*
X-45491258Y-5859000D01*
X-45466488Y-5863927D01*
G37*
G36*
X-4826488Y-5863927D02*
G01*
X-4677188Y-5893624D01*
X-4513216Y-5961544D01*
X-4365646Y-6060147D01*
X-4240147Y-6185646D01*
X-4141544Y-6333216D01*
X-4073624Y-6497188D01*
X-4039000Y-6671259D01*
X-4039000Y-6848741D01*
X-4073624Y-7022812D01*
X-4141544Y-7186784D01*
X-4240147Y-7334354D01*
X-4365646Y-7459853D01*
X-4513216Y-7558456D01*
X-4677188Y-7626376D01*
X-4826488Y-7656073D01*
X-4851258Y-7661000D01*
X-5028742Y-7661000D01*
X-5053512Y-7656073D01*
X-5202812Y-7626376D01*
X-5366784Y-7558456D01*
X-5514354Y-7459853D01*
X-5639853Y-7334354D01*
X-5738456Y-7186784D01*
X-5806376Y-7022812D01*
X-5841000Y-6848741D01*
X-5841000Y-6671259D01*
X-5806376Y-6497188D01*
X-5738456Y-6333216D01*
X-5639853Y-6185646D01*
X-5514354Y-6060147D01*
X-5366784Y-5961544D01*
X-5202812Y-5893624D01*
X-5053512Y-5863927D01*
X-5028742Y-5859000D01*
X-4851258Y-5859000D01*
X-4826488Y-5863927D01*
G37*
G36*
X-50546488Y-5863927D02*
G01*
X-50397188Y-5893624D01*
X-50233216Y-5961544D01*
X-50085646Y-6060147D01*
X-49960147Y-6185646D01*
X-49861544Y-6333216D01*
X-49793624Y-6497188D01*
X-49759000Y-6671259D01*
X-49759000Y-6848741D01*
X-49793624Y-7022812D01*
X-49861544Y-7186784D01*
X-49960147Y-7334354D01*
X-50085646Y-7459853D01*
X-50233216Y-7558456D01*
X-50397188Y-7626376D01*
X-50546488Y-7656073D01*
X-50571258Y-7661000D01*
X-50748742Y-7661000D01*
X-50773512Y-7656073D01*
X-50922812Y-7626376D01*
X-51086784Y-7558456D01*
X-51234354Y-7459853D01*
X-51359853Y-7334354D01*
X-51458456Y-7186784D01*
X-51526376Y-7022812D01*
X-51561000Y-6848741D01*
X-51561000Y-6671259D01*
X-51526376Y-6497188D01*
X-51458456Y-6333216D01*
X-51359853Y-6185646D01*
X-51234354Y-6060147D01*
X-51086784Y-5961544D01*
X-50922812Y-5893624D01*
X-50773512Y-5863927D01*
X-50748742Y-5859000D01*
X-50571258Y-5859000D01*
X-50546488Y-5863927D01*
G37*
G36*
X-25146488Y-5863927D02*
G01*
X-24997188Y-5893624D01*
X-24833216Y-5961544D01*
X-24685646Y-6060147D01*
X-24560147Y-6185646D01*
X-24461544Y-6333216D01*
X-24393624Y-6497188D01*
X-24359000Y-6671259D01*
X-24359000Y-6848741D01*
X-24393624Y-7022812D01*
X-24461544Y-7186784D01*
X-24560147Y-7334354D01*
X-24685646Y-7459853D01*
X-24833216Y-7558456D01*
X-24997188Y-7626376D01*
X-25146488Y-7656073D01*
X-25171258Y-7661000D01*
X-25348742Y-7661000D01*
X-25373512Y-7656073D01*
X-25522812Y-7626376D01*
X-25686784Y-7558456D01*
X-25834354Y-7459853D01*
X-25959853Y-7334354D01*
X-26058456Y-7186784D01*
X-26126376Y-7022812D01*
X-26161000Y-6848741D01*
X-26161000Y-6671259D01*
X-26126376Y-6497188D01*
X-26058456Y-6333216D01*
X-25959853Y-6185646D01*
X-25834354Y-6060147D01*
X-25686784Y-5961544D01*
X-25522812Y-5893624D01*
X-25373512Y-5863927D01*
X-25348742Y-5859000D01*
X-25171258Y-5859000D01*
X-25146488Y-5863927D01*
G37*
G36*
X-22606488Y-5863927D02*
G01*
X-22457188Y-5893624D01*
X-22293216Y-5961544D01*
X-22145646Y-6060147D01*
X-22020147Y-6185646D01*
X-21921544Y-6333216D01*
X-21853624Y-6497188D01*
X-21819000Y-6671259D01*
X-21819000Y-6848741D01*
X-21853624Y-7022812D01*
X-21921544Y-7186784D01*
X-22020147Y-7334354D01*
X-22145646Y-7459853D01*
X-22293216Y-7558456D01*
X-22457188Y-7626376D01*
X-22606488Y-7656073D01*
X-22631258Y-7661000D01*
X-22808742Y-7661000D01*
X-22833512Y-7656073D01*
X-22982812Y-7626376D01*
X-23146784Y-7558456D01*
X-23294354Y-7459853D01*
X-23419853Y-7334354D01*
X-23518456Y-7186784D01*
X-23586376Y-7022812D01*
X-23621000Y-6848741D01*
X-23621000Y-6671259D01*
X-23586376Y-6497188D01*
X-23518456Y-6333216D01*
X-23419853Y-6185646D01*
X-23294354Y-6060147D01*
X-23146784Y-5961544D01*
X-22982812Y-5893624D01*
X-22833512Y-5863927D01*
X-22808742Y-5859000D01*
X-22631258Y-5859000D01*
X-22606488Y-5863927D01*
G37*
G36*
X-20066488Y-5863927D02*
G01*
X-19917188Y-5893624D01*
X-19753216Y-5961544D01*
X-19605646Y-6060147D01*
X-19480147Y-6185646D01*
X-19381544Y-6333216D01*
X-19313624Y-6497188D01*
X-19279000Y-6671259D01*
X-19279000Y-6848741D01*
X-19313624Y-7022812D01*
X-19381544Y-7186784D01*
X-19480147Y-7334354D01*
X-19605646Y-7459853D01*
X-19753216Y-7558456D01*
X-19917188Y-7626376D01*
X-20066488Y-7656073D01*
X-20091258Y-7661000D01*
X-20268742Y-7661000D01*
X-20293512Y-7656073D01*
X-20442812Y-7626376D01*
X-20606784Y-7558456D01*
X-20754354Y-7459853D01*
X-20879853Y-7334354D01*
X-20978456Y-7186784D01*
X-21046376Y-7022812D01*
X-21081000Y-6848741D01*
X-21081000Y-6671259D01*
X-21046376Y-6497188D01*
X-20978456Y-6333216D01*
X-20879853Y-6185646D01*
X-20754354Y-6060147D01*
X-20606784Y-5961544D01*
X-20442812Y-5893624D01*
X-20293512Y-5863927D01*
X-20268742Y-5859000D01*
X-20091258Y-5859000D01*
X-20066488Y-5863927D01*
G37*
G36*
X-17526488Y-5863927D02*
G01*
X-17377188Y-5893624D01*
X-17213216Y-5961544D01*
X-17065646Y-6060147D01*
X-16940147Y-6185646D01*
X-16841544Y-6333216D01*
X-16773624Y-6497188D01*
X-16739000Y-6671259D01*
X-16739000Y-6848741D01*
X-16773624Y-7022812D01*
X-16841544Y-7186784D01*
X-16940147Y-7334354D01*
X-17065646Y-7459853D01*
X-17213216Y-7558456D01*
X-17377188Y-7626376D01*
X-17526488Y-7656073D01*
X-17551258Y-7661000D01*
X-17728742Y-7661000D01*
X-17753512Y-7656073D01*
X-17902812Y-7626376D01*
X-18066784Y-7558456D01*
X-18214354Y-7459853D01*
X-18339853Y-7334354D01*
X-18438456Y-7186784D01*
X-18506376Y-7022812D01*
X-18541000Y-6848741D01*
X-18541000Y-6671259D01*
X-18506376Y-6497188D01*
X-18438456Y-6333216D01*
X-18339853Y-6185646D01*
X-18214354Y-6060147D01*
X-18066784Y-5961544D01*
X-17902812Y-5893624D01*
X-17753512Y-5863927D01*
X-17728742Y-5859000D01*
X-17551258Y-5859000D01*
X-17526488Y-5863927D01*
G37*
G36*
X-12446488Y-5863927D02*
G01*
X-12297188Y-5893624D01*
X-12133216Y-5961544D01*
X-11985646Y-6060147D01*
X-11860147Y-6185646D01*
X-11761544Y-6333216D01*
X-11693624Y-6497188D01*
X-11659000Y-6671259D01*
X-11659000Y-6848741D01*
X-11693624Y-7022812D01*
X-11761544Y-7186784D01*
X-11860147Y-7334354D01*
X-11985646Y-7459853D01*
X-12133216Y-7558456D01*
X-12297188Y-7626376D01*
X-12446488Y-7656073D01*
X-12471258Y-7661000D01*
X-12648742Y-7661000D01*
X-12673512Y-7656073D01*
X-12822812Y-7626376D01*
X-12986784Y-7558456D01*
X-13134354Y-7459853D01*
X-13259853Y-7334354D01*
X-13358456Y-7186784D01*
X-13426376Y-7022812D01*
X-13461000Y-6848741D01*
X-13461000Y-6671259D01*
X-13426376Y-6497188D01*
X-13358456Y-6333216D01*
X-13259853Y-6185646D01*
X-13134354Y-6060147D01*
X-12986784Y-5961544D01*
X-12822812Y-5893624D01*
X-12673512Y-5863927D01*
X-12648742Y-5859000D01*
X-12471258Y-5859000D01*
X-12446488Y-5863927D01*
G37*
G36*
X-9906488Y-5863927D02*
G01*
X-9757188Y-5893624D01*
X-9593216Y-5961544D01*
X-9445646Y-6060147D01*
X-9320147Y-6185646D01*
X-9221544Y-6333216D01*
X-9153624Y-6497188D01*
X-9119000Y-6671259D01*
X-9119000Y-6848741D01*
X-9153624Y-7022812D01*
X-9221544Y-7186784D01*
X-9320147Y-7334354D01*
X-9445646Y-7459853D01*
X-9593216Y-7558456D01*
X-9757188Y-7626376D01*
X-9906488Y-7656073D01*
X-9931258Y-7661000D01*
X-10108742Y-7661000D01*
X-10133512Y-7656073D01*
X-10282812Y-7626376D01*
X-10446784Y-7558456D01*
X-10594354Y-7459853D01*
X-10719853Y-7334354D01*
X-10818456Y-7186784D01*
X-10886376Y-7022812D01*
X-10921000Y-6848741D01*
X-10921000Y-6671259D01*
X-10886376Y-6497188D01*
X-10818456Y-6333216D01*
X-10719853Y-6185646D01*
X-10594354Y-6060147D01*
X-10446784Y-5961544D01*
X-10282812Y-5893624D01*
X-10133512Y-5863927D01*
X-10108742Y-5859000D01*
X-9931258Y-5859000D01*
X-9906488Y-5863927D01*
G37*
G36*
X-7366488Y-5863927D02*
G01*
X-7217188Y-5893624D01*
X-7053216Y-5961544D01*
X-6905646Y-6060147D01*
X-6780147Y-6185646D01*
X-6681544Y-6333216D01*
X-6613624Y-6497188D01*
X-6579000Y-6671259D01*
X-6579000Y-6848741D01*
X-6613624Y-7022812D01*
X-6681544Y-7186784D01*
X-6780147Y-7334354D01*
X-6905646Y-7459853D01*
X-7053216Y-7558456D01*
X-7217188Y-7626376D01*
X-7366488Y-7656073D01*
X-7391258Y-7661000D01*
X-7568742Y-7661000D01*
X-7593512Y-7656073D01*
X-7742812Y-7626376D01*
X-7906784Y-7558456D01*
X-8054354Y-7459853D01*
X-8179853Y-7334354D01*
X-8278456Y-7186784D01*
X-8346376Y-7022812D01*
X-8381000Y-6848741D01*
X-8381000Y-6671259D01*
X-8346376Y-6497188D01*
X-8278456Y-6333216D01*
X-8179853Y-6185646D01*
X-8054354Y-6060147D01*
X-7906784Y-5961544D01*
X-7742812Y-5893624D01*
X-7593512Y-5863927D01*
X-7568742Y-5859000D01*
X-7391258Y-5859000D01*
X-7366488Y-5863927D01*
G37*
G36*
X-30226488Y-5863927D02*
G01*
X-30077188Y-5893624D01*
X-29913216Y-5961544D01*
X-29765646Y-6060147D01*
X-29640147Y-6185646D01*
X-29541544Y-6333216D01*
X-29473624Y-6497188D01*
X-29439000Y-6671259D01*
X-29439000Y-6848741D01*
X-29473624Y-7022812D01*
X-29541544Y-7186784D01*
X-29640147Y-7334354D01*
X-29765646Y-7459853D01*
X-29913216Y-7558456D01*
X-30077188Y-7626376D01*
X-30226488Y-7656073D01*
X-30251258Y-7661000D01*
X-30428742Y-7661000D01*
X-30453512Y-7656073D01*
X-30602812Y-7626376D01*
X-30766784Y-7558456D01*
X-30914354Y-7459853D01*
X-31039853Y-7334354D01*
X-31138456Y-7186784D01*
X-31206376Y-7022812D01*
X-31241000Y-6848741D01*
X-31241000Y-6671259D01*
X-31206376Y-6497188D01*
X-31138456Y-6333216D01*
X-31039853Y-6185646D01*
X-30914354Y-6060147D01*
X-30766784Y-5961544D01*
X-30602812Y-5893624D01*
X-30453512Y-5863927D01*
X-30428742Y-5859000D01*
X-30251258Y-5859000D01*
X-30226488Y-5863927D01*
G37*
G36*
X-48006488Y-5863927D02*
G01*
X-47857188Y-5893624D01*
X-47693216Y-5961544D01*
X-47545646Y-6060147D01*
X-47420147Y-6185646D01*
X-47321544Y-6333216D01*
X-47253624Y-6497188D01*
X-47219000Y-6671259D01*
X-47219000Y-6848741D01*
X-47253624Y-7022812D01*
X-47321544Y-7186784D01*
X-47420147Y-7334354D01*
X-47545646Y-7459853D01*
X-47693216Y-7558456D01*
X-47857188Y-7626376D01*
X-48006488Y-7656073D01*
X-48031258Y-7661000D01*
X-48208742Y-7661000D01*
X-48233512Y-7656073D01*
X-48382812Y-7626376D01*
X-48546784Y-7558456D01*
X-48694354Y-7459853D01*
X-48819853Y-7334354D01*
X-48918456Y-7186784D01*
X-48986376Y-7022812D01*
X-49021000Y-6848741D01*
X-49021000Y-6671259D01*
X-48986376Y-6497188D01*
X-48918456Y-6333216D01*
X-48819853Y-6185646D01*
X-48694354Y-6060147D01*
X-48546784Y-5961544D01*
X-48382812Y-5893624D01*
X-48233512Y-5863927D01*
X-48208742Y-5859000D01*
X-48031258Y-5859000D01*
X-48006488Y-5863927D01*
G37*
G36*
X-27686488Y-5863927D02*
G01*
X-27537188Y-5893624D01*
X-27373216Y-5961544D01*
X-27225646Y-6060147D01*
X-27100147Y-6185646D01*
X-27001544Y-6333216D01*
X-26933624Y-6497188D01*
X-26899000Y-6671259D01*
X-26899000Y-6848741D01*
X-26933624Y-7022812D01*
X-27001544Y-7186784D01*
X-27100147Y-7334354D01*
X-27225646Y-7459853D01*
X-27373216Y-7558456D01*
X-27537188Y-7626376D01*
X-27686488Y-7656073D01*
X-27711258Y-7661000D01*
X-27888742Y-7661000D01*
X-27913512Y-7656073D01*
X-28062812Y-7626376D01*
X-28226784Y-7558456D01*
X-28374354Y-7459853D01*
X-28499853Y-7334354D01*
X-28598456Y-7186784D01*
X-28666376Y-7022812D01*
X-28701000Y-6848741D01*
X-28701000Y-6671259D01*
X-28666376Y-6497188D01*
X-28598456Y-6333216D01*
X-28499853Y-6185646D01*
X-28374354Y-6060147D01*
X-28226784Y-5961544D01*
X-28062812Y-5893624D01*
X-27913512Y-5863927D01*
X-27888742Y-5859000D01*
X-27711258Y-5859000D01*
X-27686488Y-5863927D01*
G37*
G36*
X-14986488Y-903927D02*
G01*
X-14837188Y-933624D01*
X-14673216Y-1001544D01*
X-14525646Y-1100147D01*
X-14400147Y-1225646D01*
X-14301544Y-1373216D01*
X-14233624Y-1537188D01*
X-14199000Y-1711259D01*
X-14199000Y-1888741D01*
X-14233624Y-2062812D01*
X-14301544Y-2226784D01*
X-14400147Y-2374354D01*
X-14525646Y-2499853D01*
X-14673216Y-2598456D01*
X-14837188Y-2666376D01*
X-14986488Y-2696073D01*
X-15011258Y-2701000D01*
X-15188742Y-2701000D01*
X-15213512Y-2696073D01*
X-15362812Y-2666376D01*
X-15526784Y-2598456D01*
X-15674354Y-2499853D01*
X-15799853Y-2374354D01*
X-15898456Y-2226784D01*
X-15966376Y-2062812D01*
X-16001000Y-1888741D01*
X-16001000Y-1711259D01*
X-15966376Y-1537188D01*
X-15898456Y-1373216D01*
X-15799853Y-1225646D01*
X-15674354Y-1100147D01*
X-15526784Y-1001544D01*
X-15362812Y-933624D01*
X-15213512Y-903927D01*
X-15188742Y-899000D01*
X-15011258Y-899000D01*
X-14986488Y-903927D01*
G37*
G36*
X-30226488Y-903927D02*
G01*
X-30077188Y-933624D01*
X-29913216Y-1001544D01*
X-29765646Y-1100147D01*
X-29640147Y-1225646D01*
X-29541544Y-1373216D01*
X-29473624Y-1537188D01*
X-29439000Y-1711259D01*
X-29439000Y-1888741D01*
X-29473624Y-2062812D01*
X-29541544Y-2226784D01*
X-29640147Y-2374354D01*
X-29765646Y-2499853D01*
X-29913216Y-2598456D01*
X-30077188Y-2666376D01*
X-30226488Y-2696073D01*
X-30251258Y-2701000D01*
X-30428742Y-2701000D01*
X-30453512Y-2696073D01*
X-30602812Y-2666376D01*
X-30766784Y-2598456D01*
X-30914354Y-2499853D01*
X-31039853Y-2374354D01*
X-31138456Y-2226784D01*
X-31206376Y-2062812D01*
X-31241000Y-1888741D01*
X-31241000Y-1711259D01*
X-31206376Y-1537188D01*
X-31138456Y-1373216D01*
X-31039853Y-1225646D01*
X-30914354Y-1100147D01*
X-30766784Y-1001544D01*
X-30602812Y-933624D01*
X-30453512Y-903927D01*
X-30428742Y-899000D01*
X-30251258Y-899000D01*
X-30226488Y-903927D01*
G37*
G36*
X-37846488Y-903927D02*
G01*
X-37697188Y-933624D01*
X-37533216Y-1001544D01*
X-37385646Y-1100147D01*
X-37260147Y-1225646D01*
X-37161544Y-1373216D01*
X-37093624Y-1537188D01*
X-37059000Y-1711259D01*
X-37059000Y-1888741D01*
X-37093624Y-2062812D01*
X-37161544Y-2226784D01*
X-37260147Y-2374354D01*
X-37385646Y-2499853D01*
X-37533216Y-2598456D01*
X-37697188Y-2666376D01*
X-37846488Y-2696073D01*
X-37871258Y-2701000D01*
X-38048742Y-2701000D01*
X-38073512Y-2696073D01*
X-38222812Y-2666376D01*
X-38386784Y-2598456D01*
X-38534354Y-2499853D01*
X-38659853Y-2374354D01*
X-38758456Y-2226784D01*
X-38826376Y-2062812D01*
X-38861000Y-1888741D01*
X-38861000Y-1711259D01*
X-38826376Y-1537188D01*
X-38758456Y-1373216D01*
X-38659853Y-1225646D01*
X-38534354Y-1100147D01*
X-38386784Y-1001544D01*
X-38222812Y-933624D01*
X-38073512Y-903927D01*
X-38048742Y-899000D01*
X-37871258Y-899000D01*
X-37846488Y-903927D01*
G37*
G36*
X-35306488Y-903927D02*
G01*
X-35157188Y-933624D01*
X-34993216Y-1001544D01*
X-34845646Y-1100147D01*
X-34720147Y-1225646D01*
X-34621544Y-1373216D01*
X-34553624Y-1537188D01*
X-34519000Y-1711259D01*
X-34519000Y-1888741D01*
X-34553624Y-2062812D01*
X-34621544Y-2226784D01*
X-34720147Y-2374354D01*
X-34845646Y-2499853D01*
X-34993216Y-2598456D01*
X-35157188Y-2666376D01*
X-35306488Y-2696073D01*
X-35331258Y-2701000D01*
X-35508742Y-2701000D01*
X-35533512Y-2696073D01*
X-35682812Y-2666376D01*
X-35846784Y-2598456D01*
X-35994354Y-2499853D01*
X-36119853Y-2374354D01*
X-36218456Y-2226784D01*
X-36286376Y-2062812D01*
X-36321000Y-1888741D01*
X-36321000Y-1711259D01*
X-36286376Y-1537188D01*
X-36218456Y-1373216D01*
X-36119853Y-1225646D01*
X-35994354Y-1100147D01*
X-35846784Y-1001544D01*
X-35682812Y-933624D01*
X-35533512Y-903927D01*
X-35508742Y-899000D01*
X-35331258Y-899000D01*
X-35306488Y-903927D01*
G37*
G36*
X-17526488Y-903927D02*
G01*
X-17377188Y-933624D01*
X-17213216Y-1001544D01*
X-17065646Y-1100147D01*
X-16940147Y-1225646D01*
X-16841544Y-1373216D01*
X-16773624Y-1537188D01*
X-16739000Y-1711259D01*
X-16739000Y-1888741D01*
X-16773624Y-2062812D01*
X-16841544Y-2226784D01*
X-16940147Y-2374354D01*
X-17065646Y-2499853D01*
X-17213216Y-2598456D01*
X-17377188Y-2666376D01*
X-17526488Y-2696073D01*
X-17551258Y-2701000D01*
X-17728742Y-2701000D01*
X-17753512Y-2696073D01*
X-17902812Y-2666376D01*
X-18066784Y-2598456D01*
X-18214354Y-2499853D01*
X-18339853Y-2374354D01*
X-18438456Y-2226784D01*
X-18506376Y-2062812D01*
X-18541000Y-1888741D01*
X-18541000Y-1711259D01*
X-18506376Y-1537188D01*
X-18438456Y-1373216D01*
X-18339853Y-1225646D01*
X-18214354Y-1100147D01*
X-18066784Y-1001544D01*
X-17902812Y-933624D01*
X-17753512Y-903927D01*
X-17728742Y-899000D01*
X-17551258Y-899000D01*
X-17526488Y-903927D01*
G37*
G36*
X-32766488Y-903927D02*
G01*
X-32617188Y-933624D01*
X-32453216Y-1001544D01*
X-32305646Y-1100147D01*
X-32180147Y-1225646D01*
X-32081544Y-1373216D01*
X-32013624Y-1537188D01*
X-31979000Y-1711259D01*
X-31979000Y-1888741D01*
X-32013624Y-2062812D01*
X-32081544Y-2226784D01*
X-32180147Y-2374354D01*
X-32305646Y-2499853D01*
X-32453216Y-2598456D01*
X-32617188Y-2666376D01*
X-32766488Y-2696073D01*
X-32791258Y-2701000D01*
X-32968742Y-2701000D01*
X-32993512Y-2696073D01*
X-33142812Y-2666376D01*
X-33306784Y-2598456D01*
X-33454354Y-2499853D01*
X-33579853Y-2374354D01*
X-33678456Y-2226784D01*
X-33746376Y-2062812D01*
X-33781000Y-1888741D01*
X-33781000Y-1711259D01*
X-33746376Y-1537188D01*
X-33678456Y-1373216D01*
X-33579853Y-1225646D01*
X-33454354Y-1100147D01*
X-33306784Y-1001544D01*
X-33142812Y-933624D01*
X-32993512Y-903927D01*
X-32968742Y-899000D01*
X-32791258Y-899000D01*
X-32766488Y-903927D01*
G37*
G36*
X-20066488Y-903927D02*
G01*
X-19917188Y-933624D01*
X-19753216Y-1001544D01*
X-19605646Y-1100147D01*
X-19480147Y-1225646D01*
X-19381544Y-1373216D01*
X-19313624Y-1537188D01*
X-19279000Y-1711259D01*
X-19279000Y-1888741D01*
X-19313624Y-2062812D01*
X-19381544Y-2226784D01*
X-19480147Y-2374354D01*
X-19605646Y-2499853D01*
X-19753216Y-2598456D01*
X-19917188Y-2666376D01*
X-20066488Y-2696073D01*
X-20091258Y-2701000D01*
X-20268742Y-2701000D01*
X-20293512Y-2696073D01*
X-20442812Y-2666376D01*
X-20606784Y-2598456D01*
X-20754354Y-2499853D01*
X-20879853Y-2374354D01*
X-20978456Y-2226784D01*
X-21046376Y-2062812D01*
X-21081000Y-1888741D01*
X-21081000Y-1711259D01*
X-21046376Y-1537188D01*
X-20978456Y-1373216D01*
X-20879853Y-1225646D01*
X-20754354Y-1100147D01*
X-20606784Y-1001544D01*
X-20442812Y-933624D01*
X-20293512Y-903927D01*
X-20268742Y-899000D01*
X-20091258Y-899000D01*
X-20066488Y-903927D01*
G37*
G36*
X-27686488Y-903927D02*
G01*
X-27537188Y-933624D01*
X-27373216Y-1001544D01*
X-27225646Y-1100147D01*
X-27100147Y-1225646D01*
X-27001544Y-1373216D01*
X-26933624Y-1537188D01*
X-26899000Y-1711259D01*
X-26899000Y-1888741D01*
X-26933624Y-2062812D01*
X-27001544Y-2226784D01*
X-27100147Y-2374354D01*
X-27225646Y-2499853D01*
X-27373216Y-2598456D01*
X-27537188Y-2666376D01*
X-27686488Y-2696073D01*
X-27711258Y-2701000D01*
X-27888742Y-2701000D01*
X-27913512Y-2696073D01*
X-28062812Y-2666376D01*
X-28226784Y-2598456D01*
X-28374354Y-2499853D01*
X-28499853Y-2374354D01*
X-28598456Y-2226784D01*
X-28666376Y-2062812D01*
X-28701000Y-1888741D01*
X-28701000Y-1711259D01*
X-28666376Y-1537188D01*
X-28598456Y-1373216D01*
X-28499853Y-1225646D01*
X-28374354Y-1100147D01*
X-28226784Y-1001544D01*
X-28062812Y-933624D01*
X-27913512Y-903927D01*
X-27888742Y-899000D01*
X-27711258Y-899000D01*
X-27686488Y-903927D01*
G37*
G36*
X-25146488Y-903927D02*
G01*
X-24997188Y-933624D01*
X-24833216Y-1001544D01*
X-24685646Y-1100147D01*
X-24560147Y-1225646D01*
X-24461544Y-1373216D01*
X-24393624Y-1537188D01*
X-24359000Y-1711259D01*
X-24359000Y-1888741D01*
X-24393624Y-2062812D01*
X-24461544Y-2226784D01*
X-24560147Y-2374354D01*
X-24685646Y-2499853D01*
X-24833216Y-2598456D01*
X-24997188Y-2666376D01*
X-25146488Y-2696073D01*
X-25171258Y-2701000D01*
X-25348742Y-2701000D01*
X-25373512Y-2696073D01*
X-25522812Y-2666376D01*
X-25686784Y-2598456D01*
X-25834354Y-2499853D01*
X-25959853Y-2374354D01*
X-26058456Y-2226784D01*
X-26126376Y-2062812D01*
X-26161000Y-1888741D01*
X-26161000Y-1711259D01*
X-26126376Y-1537188D01*
X-26058456Y-1373216D01*
X-25959853Y-1225646D01*
X-25834354Y-1100147D01*
X-25686784Y-1001544D01*
X-25522812Y-933624D01*
X-25373512Y-903927D01*
X-25348742Y-899000D01*
X-25171258Y-899000D01*
X-25146488Y-903927D01*
G37*
G36*
X-4826488Y-903927D02*
G01*
X-4677188Y-933624D01*
X-4513216Y-1001544D01*
X-4365646Y-1100147D01*
X-4240147Y-1225646D01*
X-4141544Y-1373216D01*
X-4073624Y-1537188D01*
X-4039000Y-1711259D01*
X-4039000Y-1888741D01*
X-4073624Y-2062812D01*
X-4141544Y-2226784D01*
X-4240147Y-2374354D01*
X-4365646Y-2499853D01*
X-4513216Y-2598456D01*
X-4677188Y-2666376D01*
X-4826488Y-2696073D01*
X-4851258Y-2701000D01*
X-5028742Y-2701000D01*
X-5053512Y-2696073D01*
X-5202812Y-2666376D01*
X-5366784Y-2598456D01*
X-5514354Y-2499853D01*
X-5639853Y-2374354D01*
X-5738456Y-2226784D01*
X-5806376Y-2062812D01*
X-5841000Y-1888741D01*
X-5841000Y-1711259D01*
X-5806376Y-1537188D01*
X-5738456Y-1373216D01*
X-5639853Y-1225646D01*
X-5514354Y-1100147D01*
X-5366784Y-1001544D01*
X-5202812Y-933624D01*
X-5053512Y-903927D01*
X-5028742Y-899000D01*
X-4851258Y-899000D01*
X-4826488Y-903927D01*
G37*
G36*
X-42926488Y-903927D02*
G01*
X-42777188Y-933624D01*
X-42613216Y-1001544D01*
X-42465646Y-1100147D01*
X-42340147Y-1225646D01*
X-42241544Y-1373216D01*
X-42173624Y-1537188D01*
X-42139000Y-1711259D01*
X-42139000Y-1888741D01*
X-42173624Y-2062812D01*
X-42241544Y-2226784D01*
X-42340147Y-2374354D01*
X-42465646Y-2499853D01*
X-42613216Y-2598456D01*
X-42777188Y-2666376D01*
X-42926488Y-2696073D01*
X-42951258Y-2701000D01*
X-43128742Y-2701000D01*
X-43153512Y-2696073D01*
X-43302812Y-2666376D01*
X-43466784Y-2598456D01*
X-43614354Y-2499853D01*
X-43739853Y-2374354D01*
X-43838456Y-2226784D01*
X-43906376Y-2062812D01*
X-43941000Y-1888741D01*
X-43941000Y-1711259D01*
X-43906376Y-1537188D01*
X-43838456Y-1373216D01*
X-43739853Y-1225646D01*
X-43614354Y-1100147D01*
X-43466784Y-1001544D01*
X-43302812Y-933624D01*
X-43153512Y-903927D01*
X-43128742Y-899000D01*
X-42951258Y-899000D01*
X-42926488Y-903927D01*
G37*
G36*
X-40386488Y-903927D02*
G01*
X-40237188Y-933624D01*
X-40073216Y-1001544D01*
X-39925646Y-1100147D01*
X-39800147Y-1225646D01*
X-39701544Y-1373216D01*
X-39633624Y-1537188D01*
X-39599000Y-1711259D01*
X-39599000Y-1888741D01*
X-39633624Y-2062812D01*
X-39701544Y-2226784D01*
X-39800147Y-2374354D01*
X-39925646Y-2499853D01*
X-40073216Y-2598456D01*
X-40237188Y-2666376D01*
X-40386488Y-2696073D01*
X-40411258Y-2701000D01*
X-40588742Y-2701000D01*
X-40613512Y-2696073D01*
X-40762812Y-2666376D01*
X-40926784Y-2598456D01*
X-41074354Y-2499853D01*
X-41199853Y-2374354D01*
X-41298456Y-2226784D01*
X-41366376Y-2062812D01*
X-41401000Y-1888741D01*
X-41401000Y-1711259D01*
X-41366376Y-1537188D01*
X-41298456Y-1373216D01*
X-41199853Y-1225646D01*
X-41074354Y-1100147D01*
X-40926784Y-1001544D01*
X-40762812Y-933624D01*
X-40613512Y-903927D01*
X-40588742Y-899000D01*
X-40411258Y-899000D01*
X-40386488Y-903927D01*
G37*
G36*
X-22606488Y-903927D02*
G01*
X-22457188Y-933624D01*
X-22293216Y-1001544D01*
X-22145646Y-1100147D01*
X-22020147Y-1225646D01*
X-21921544Y-1373216D01*
X-21853624Y-1537188D01*
X-21819000Y-1711259D01*
X-21819000Y-1888741D01*
X-21853624Y-2062812D01*
X-21921544Y-2226784D01*
X-22020147Y-2374354D01*
X-22145646Y-2499853D01*
X-22293216Y-2598456D01*
X-22457188Y-2666376D01*
X-22606488Y-2696073D01*
X-22631258Y-2701000D01*
X-22808742Y-2701000D01*
X-22833512Y-2696073D01*
X-22982812Y-2666376D01*
X-23146784Y-2598456D01*
X-23294354Y-2499853D01*
X-23419853Y-2374354D01*
X-23518456Y-2226784D01*
X-23586376Y-2062812D01*
X-23621000Y-1888741D01*
X-23621000Y-1711259D01*
X-23586376Y-1537188D01*
X-23518456Y-1373216D01*
X-23419853Y-1225646D01*
X-23294354Y-1100147D01*
X-23146784Y-1001544D01*
X-22982812Y-933624D01*
X-22833512Y-903927D01*
X-22808742Y-899000D01*
X-22631258Y-899000D01*
X-22606488Y-903927D01*
G37*
G36*
X-7366488Y-903927D02*
G01*
X-7217188Y-933624D01*
X-7053216Y-1001544D01*
X-6905646Y-1100147D01*
X-6780147Y-1225646D01*
X-6681544Y-1373216D01*
X-6613624Y-1537188D01*
X-6579000Y-1711259D01*
X-6579000Y-1888741D01*
X-6613624Y-2062812D01*
X-6681544Y-2226784D01*
X-6780147Y-2374354D01*
X-6905646Y-2499853D01*
X-7053216Y-2598456D01*
X-7217188Y-2666376D01*
X-7366488Y-2696073D01*
X-7391258Y-2701000D01*
X-7568742Y-2701000D01*
X-7593512Y-2696073D01*
X-7742812Y-2666376D01*
X-7906784Y-2598456D01*
X-8054354Y-2499853D01*
X-8179853Y-2374354D01*
X-8278456Y-2226784D01*
X-8346376Y-2062812D01*
X-8381000Y-1888741D01*
X-8381000Y-1711259D01*
X-8346376Y-1537188D01*
X-8278456Y-1373216D01*
X-8179853Y-1225646D01*
X-8054354Y-1100147D01*
X-7906784Y-1001544D01*
X-7742812Y-933624D01*
X-7593512Y-903927D01*
X-7568742Y-899000D01*
X-7391258Y-899000D01*
X-7366488Y-903927D01*
G37*
G36*
X-52299000Y-2701000D02*
G01*
X-54101000Y-2701000D01*
X-54101000Y-899000D01*
X-52299000Y-899000D01*
X-52299000Y-2701000D01*
G37*
G36*
X-50546488Y-903927D02*
G01*
X-50397188Y-933624D01*
X-50233216Y-1001544D01*
X-50085646Y-1100147D01*
X-49960147Y-1225646D01*
X-49861544Y-1373216D01*
X-49793624Y-1537188D01*
X-49759000Y-1711259D01*
X-49759000Y-1888741D01*
X-49793624Y-2062812D01*
X-49861544Y-2226784D01*
X-49960147Y-2374354D01*
X-50085646Y-2499853D01*
X-50233216Y-2598456D01*
X-50397188Y-2666376D01*
X-50546488Y-2696073D01*
X-50571258Y-2701000D01*
X-50748742Y-2701000D01*
X-50773512Y-2696073D01*
X-50922812Y-2666376D01*
X-51086784Y-2598456D01*
X-51234354Y-2499853D01*
X-51359853Y-2374354D01*
X-51458456Y-2226784D01*
X-51526376Y-2062812D01*
X-51561000Y-1888741D01*
X-51561000Y-1711259D01*
X-51526376Y-1537188D01*
X-51458456Y-1373216D01*
X-51359853Y-1225646D01*
X-51234354Y-1100147D01*
X-51086784Y-1001544D01*
X-50922812Y-933624D01*
X-50773512Y-903927D01*
X-50748742Y-899000D01*
X-50571258Y-899000D01*
X-50546488Y-903927D01*
G37*
G36*
X-9906488Y-903927D02*
G01*
X-9757188Y-933624D01*
X-9593216Y-1001544D01*
X-9445646Y-1100147D01*
X-9320147Y-1225646D01*
X-9221544Y-1373216D01*
X-9153624Y-1537188D01*
X-9119000Y-1711259D01*
X-9119000Y-1888741D01*
X-9153624Y-2062812D01*
X-9221544Y-2226784D01*
X-9320147Y-2374354D01*
X-9445646Y-2499853D01*
X-9593216Y-2598456D01*
X-9757188Y-2666376D01*
X-9906488Y-2696073D01*
X-9931258Y-2701000D01*
X-10108742Y-2701000D01*
X-10133512Y-2696073D01*
X-10282812Y-2666376D01*
X-10446784Y-2598456D01*
X-10594354Y-2499853D01*
X-10719853Y-2374354D01*
X-10818456Y-2226784D01*
X-10886376Y-2062812D01*
X-10921000Y-1888741D01*
X-10921000Y-1711259D01*
X-10886376Y-1537188D01*
X-10818456Y-1373216D01*
X-10719853Y-1225646D01*
X-10594354Y-1100147D01*
X-10446784Y-1001544D01*
X-10282812Y-933624D01*
X-10133512Y-903927D01*
X-10108742Y-899000D01*
X-9931258Y-899000D01*
X-9906488Y-903927D01*
G37*
G36*
X-48006488Y-903927D02*
G01*
X-47857188Y-933624D01*
X-47693216Y-1001544D01*
X-47545646Y-1100147D01*
X-47420147Y-1225646D01*
X-47321544Y-1373216D01*
X-47253624Y-1537188D01*
X-47219000Y-1711259D01*
X-47219000Y-1888741D01*
X-47253624Y-2062812D01*
X-47321544Y-2226784D01*
X-47420147Y-2374354D01*
X-47545646Y-2499853D01*
X-47693216Y-2598456D01*
X-47857188Y-2666376D01*
X-48006488Y-2696073D01*
X-48031258Y-2701000D01*
X-48208742Y-2701000D01*
X-48233512Y-2696073D01*
X-48382812Y-2666376D01*
X-48546784Y-2598456D01*
X-48694354Y-2499853D01*
X-48819853Y-2374354D01*
X-48918456Y-2226784D01*
X-48986376Y-2062812D01*
X-49021000Y-1888741D01*
X-49021000Y-1711259D01*
X-48986376Y-1537188D01*
X-48918456Y-1373216D01*
X-48819853Y-1225646D01*
X-48694354Y-1100147D01*
X-48546784Y-1001544D01*
X-48382812Y-933624D01*
X-48233512Y-903927D01*
X-48208742Y-899000D01*
X-48031258Y-899000D01*
X-48006488Y-903927D01*
G37*
G36*
X-45466488Y-903927D02*
G01*
X-45317188Y-933624D01*
X-45153216Y-1001544D01*
X-45005646Y-1100147D01*
X-44880147Y-1225646D01*
X-44781544Y-1373216D01*
X-44713624Y-1537188D01*
X-44679000Y-1711259D01*
X-44679000Y-1888741D01*
X-44713624Y-2062812D01*
X-44781544Y-2226784D01*
X-44880147Y-2374354D01*
X-45005646Y-2499853D01*
X-45153216Y-2598456D01*
X-45317188Y-2666376D01*
X-45466488Y-2696073D01*
X-45491258Y-2701000D01*
X-45668742Y-2701000D01*
X-45693512Y-2696073D01*
X-45842812Y-2666376D01*
X-46006784Y-2598456D01*
X-46154354Y-2499853D01*
X-46279853Y-2374354D01*
X-46378456Y-2226784D01*
X-46446376Y-2062812D01*
X-46481000Y-1888741D01*
X-46481000Y-1711259D01*
X-46446376Y-1537188D01*
X-46378456Y-1373216D01*
X-46279853Y-1225646D01*
X-46154354Y-1100147D01*
X-46006784Y-1001544D01*
X-45842812Y-933624D01*
X-45693512Y-903927D01*
X-45668742Y-899000D01*
X-45491258Y-899000D01*
X-45466488Y-903927D01*
G37*
G36*
X-12446488Y-903927D02*
G01*
X-12297188Y-933624D01*
X-12133216Y-1001544D01*
X-11985646Y-1100147D01*
X-11860147Y-1225646D01*
X-11761544Y-1373216D01*
X-11693624Y-1537188D01*
X-11659000Y-1711259D01*
X-11659000Y-1888741D01*
X-11693624Y-2062812D01*
X-11761544Y-2226784D01*
X-11860147Y-2374354D01*
X-11985646Y-2499853D01*
X-12133216Y-2598456D01*
X-12297188Y-2666376D01*
X-12446488Y-2696073D01*
X-12471258Y-2701000D01*
X-12648742Y-2701000D01*
X-12673512Y-2696073D01*
X-12822812Y-2666376D01*
X-12986784Y-2598456D01*
X-13134354Y-2499853D01*
X-13259853Y-2374354D01*
X-13358456Y-2226784D01*
X-13426376Y-2062812D01*
X-13461000Y-1888741D01*
X-13461000Y-1711259D01*
X-13426376Y-1537188D01*
X-13358456Y-1373216D01*
X-13259853Y-1225646D01*
X-13134354Y-1100147D01*
X-12986784Y-1001544D01*
X-12822812Y-933624D01*
X-12673512Y-903927D01*
X-12648742Y-899000D01*
X-12471258Y-899000D01*
X-12446488Y-903927D01*
G37*
G36*
X-53086488Y1636073D02*
G01*
X-52937188Y1606376D01*
X-52773216Y1538456D01*
X-52625646Y1439853D01*
X-52500147Y1314354D01*
X-52401544Y1166784D01*
X-52333624Y1002812D01*
X-52299000Y828741D01*
X-52299000Y651259D01*
X-52333624Y477188D01*
X-52401544Y313216D01*
X-52500147Y165646D01*
X-52625646Y40147D01*
X-52773216Y-58456D01*
X-52937188Y-126376D01*
X-53086488Y-156073D01*
X-53111258Y-161000D01*
X-53288742Y-161000D01*
X-53313512Y-156073D01*
X-53462812Y-126376D01*
X-53626784Y-58456D01*
X-53774354Y40147D01*
X-53899853Y165646D01*
X-53998456Y313216D01*
X-54066376Y477188D01*
X-54101000Y651259D01*
X-54101000Y828741D01*
X-54066376Y1002812D01*
X-53998456Y1166784D01*
X-53899853Y1314354D01*
X-53774354Y1439853D01*
X-53626784Y1538456D01*
X-53462812Y1606376D01*
X-53313512Y1636073D01*
X-53288742Y1641000D01*
X-53111258Y1641000D01*
X-53086488Y1636073D01*
G37*
G36*
X-50546488Y1636073D02*
G01*
X-50397188Y1606376D01*
X-50233216Y1538456D01*
X-50085646Y1439853D01*
X-49960147Y1314354D01*
X-49861544Y1166784D01*
X-49793624Y1002812D01*
X-49759000Y828741D01*
X-49759000Y651259D01*
X-49793624Y477188D01*
X-49861544Y313216D01*
X-49960147Y165646D01*
X-50085646Y40147D01*
X-50233216Y-58456D01*
X-50397188Y-126376D01*
X-50546488Y-156073D01*
X-50571258Y-161000D01*
X-50748742Y-161000D01*
X-50773512Y-156073D01*
X-50922812Y-126376D01*
X-51086784Y-58456D01*
X-51234354Y40147D01*
X-51359853Y165646D01*
X-51458456Y313216D01*
X-51526376Y477188D01*
X-51561000Y651259D01*
X-51561000Y828741D01*
X-51526376Y1002812D01*
X-51458456Y1166784D01*
X-51359853Y1314354D01*
X-51234354Y1439853D01*
X-51086784Y1538456D01*
X-50922812Y1606376D01*
X-50773512Y1636073D01*
X-50748742Y1641000D01*
X-50571258Y1641000D01*
X-50546488Y1636073D01*
G37*
G36*
X-42926488Y1636073D02*
G01*
X-42777188Y1606376D01*
X-42613216Y1538456D01*
X-42465646Y1439853D01*
X-42340147Y1314354D01*
X-42241544Y1166784D01*
X-42173624Y1002812D01*
X-42139000Y828741D01*
X-42139000Y651259D01*
X-42173624Y477188D01*
X-42241544Y313216D01*
X-42340147Y165646D01*
X-42465646Y40147D01*
X-42613216Y-58456D01*
X-42777188Y-126376D01*
X-42926488Y-156073D01*
X-42951258Y-161000D01*
X-43128742Y-161000D01*
X-43153512Y-156073D01*
X-43302812Y-126376D01*
X-43466784Y-58456D01*
X-43614354Y40147D01*
X-43739853Y165646D01*
X-43838456Y313216D01*
X-43906376Y477188D01*
X-43941000Y651259D01*
X-43941000Y828741D01*
X-43906376Y1002812D01*
X-43838456Y1166784D01*
X-43739853Y1314354D01*
X-43614354Y1439853D01*
X-43466784Y1538456D01*
X-43302812Y1606376D01*
X-43153512Y1636073D01*
X-43128742Y1641000D01*
X-42951258Y1641000D01*
X-42926488Y1636073D01*
G37*
G36*
X-40386488Y1636073D02*
G01*
X-40237188Y1606376D01*
X-40073216Y1538456D01*
X-39925646Y1439853D01*
X-39800147Y1314354D01*
X-39701544Y1166784D01*
X-39633624Y1002812D01*
X-39599000Y828741D01*
X-39599000Y651259D01*
X-39633624Y477188D01*
X-39701544Y313216D01*
X-39800147Y165646D01*
X-39925646Y40147D01*
X-40073216Y-58456D01*
X-40237188Y-126376D01*
X-40386488Y-156073D01*
X-40411258Y-161000D01*
X-40588742Y-161000D01*
X-40613512Y-156073D01*
X-40762812Y-126376D01*
X-40926784Y-58456D01*
X-41074354Y40147D01*
X-41199853Y165646D01*
X-41298456Y313216D01*
X-41366376Y477188D01*
X-41401000Y651259D01*
X-41401000Y828741D01*
X-41366376Y1002812D01*
X-41298456Y1166784D01*
X-41199853Y1314354D01*
X-41074354Y1439853D01*
X-40926784Y1538456D01*
X-40762812Y1606376D01*
X-40613512Y1636073D01*
X-40588742Y1641000D01*
X-40411258Y1641000D01*
X-40386488Y1636073D01*
G37*
G36*
X-37846488Y1636073D02*
G01*
X-37697188Y1606376D01*
X-37533216Y1538456D01*
X-37385646Y1439853D01*
X-37260147Y1314354D01*
X-37161544Y1166784D01*
X-37093624Y1002812D01*
X-37059000Y828741D01*
X-37059000Y651259D01*
X-37093624Y477188D01*
X-37161544Y313216D01*
X-37260147Y165646D01*
X-37385646Y40147D01*
X-37533216Y-58456D01*
X-37697188Y-126376D01*
X-37846488Y-156073D01*
X-37871258Y-161000D01*
X-38048742Y-161000D01*
X-38073512Y-156073D01*
X-38222812Y-126376D01*
X-38386784Y-58456D01*
X-38534354Y40147D01*
X-38659853Y165646D01*
X-38758456Y313216D01*
X-38826376Y477188D01*
X-38861000Y651259D01*
X-38861000Y828741D01*
X-38826376Y1002812D01*
X-38758456Y1166784D01*
X-38659853Y1314354D01*
X-38534354Y1439853D01*
X-38386784Y1538456D01*
X-38222812Y1606376D01*
X-38073512Y1636073D01*
X-38048742Y1641000D01*
X-37871258Y1641000D01*
X-37846488Y1636073D01*
G37*
G36*
X-35306488Y1636073D02*
G01*
X-35157188Y1606376D01*
X-34993216Y1538456D01*
X-34845646Y1439853D01*
X-34720147Y1314354D01*
X-34621544Y1166784D01*
X-34553624Y1002812D01*
X-34519000Y828741D01*
X-34519000Y651259D01*
X-34553624Y477188D01*
X-34621544Y313216D01*
X-34720147Y165646D01*
X-34845646Y40147D01*
X-34993216Y-58456D01*
X-35157188Y-126376D01*
X-35306488Y-156073D01*
X-35331258Y-161000D01*
X-35508742Y-161000D01*
X-35533512Y-156073D01*
X-35682812Y-126376D01*
X-35846784Y-58456D01*
X-35994354Y40147D01*
X-36119853Y165646D01*
X-36218456Y313216D01*
X-36286376Y477188D01*
X-36321000Y651259D01*
X-36321000Y828741D01*
X-36286376Y1002812D01*
X-36218456Y1166784D01*
X-36119853Y1314354D01*
X-35994354Y1439853D01*
X-35846784Y1538456D01*
X-35682812Y1606376D01*
X-35533512Y1636073D01*
X-35508742Y1641000D01*
X-35331258Y1641000D01*
X-35306488Y1636073D01*
G37*
G36*
X-32766488Y1636073D02*
G01*
X-32617188Y1606376D01*
X-32453216Y1538456D01*
X-32305646Y1439853D01*
X-32180147Y1314354D01*
X-32081544Y1166784D01*
X-32013624Y1002812D01*
X-31979000Y828741D01*
X-31979000Y651259D01*
X-32013624Y477188D01*
X-32081544Y313216D01*
X-32180147Y165646D01*
X-32305646Y40147D01*
X-32453216Y-58456D01*
X-32617188Y-126376D01*
X-32766488Y-156073D01*
X-32791258Y-161000D01*
X-32968742Y-161000D01*
X-32993512Y-156073D01*
X-33142812Y-126376D01*
X-33306784Y-58456D01*
X-33454354Y40147D01*
X-33579853Y165646D01*
X-33678456Y313216D01*
X-33746376Y477188D01*
X-33781000Y651259D01*
X-33781000Y828741D01*
X-33746376Y1002812D01*
X-33678456Y1166784D01*
X-33579853Y1314354D01*
X-33454354Y1439853D01*
X-33306784Y1538456D01*
X-33142812Y1606376D01*
X-32993512Y1636073D01*
X-32968742Y1641000D01*
X-32791258Y1641000D01*
X-32766488Y1636073D01*
G37*
G36*
X-30226488Y1636073D02*
G01*
X-30077188Y1606376D01*
X-29913216Y1538456D01*
X-29765646Y1439853D01*
X-29640147Y1314354D01*
X-29541544Y1166784D01*
X-29473624Y1002812D01*
X-29439000Y828741D01*
X-29439000Y651259D01*
X-29473624Y477188D01*
X-29541544Y313216D01*
X-29640147Y165646D01*
X-29765646Y40147D01*
X-29913216Y-58456D01*
X-30077188Y-126376D01*
X-30226488Y-156073D01*
X-30251258Y-161000D01*
X-30428742Y-161000D01*
X-30453512Y-156073D01*
X-30602812Y-126376D01*
X-30766784Y-58456D01*
X-30914354Y40147D01*
X-31039853Y165646D01*
X-31138456Y313216D01*
X-31206376Y477188D01*
X-31241000Y651259D01*
X-31241000Y828741D01*
X-31206376Y1002812D01*
X-31138456Y1166784D01*
X-31039853Y1314354D01*
X-30914354Y1439853D01*
X-30766784Y1538456D01*
X-30602812Y1606376D01*
X-30453512Y1636073D01*
X-30428742Y1641000D01*
X-30251258Y1641000D01*
X-30226488Y1636073D01*
G37*
G36*
X-27686488Y1636073D02*
G01*
X-27537188Y1606376D01*
X-27373216Y1538456D01*
X-27225646Y1439853D01*
X-27100147Y1314354D01*
X-27001544Y1166784D01*
X-26933624Y1002812D01*
X-26899000Y828741D01*
X-26899000Y651259D01*
X-26933624Y477188D01*
X-27001544Y313216D01*
X-27100147Y165646D01*
X-27225646Y40147D01*
X-27373216Y-58456D01*
X-27537188Y-126376D01*
X-27686488Y-156073D01*
X-27711258Y-161000D01*
X-27888742Y-161000D01*
X-27913512Y-156073D01*
X-28062812Y-126376D01*
X-28226784Y-58456D01*
X-28374354Y40147D01*
X-28499853Y165646D01*
X-28598456Y313216D01*
X-28666376Y477188D01*
X-28701000Y651259D01*
X-28701000Y828741D01*
X-28666376Y1002812D01*
X-28598456Y1166784D01*
X-28499853Y1314354D01*
X-28374354Y1439853D01*
X-28226784Y1538456D01*
X-28062812Y1606376D01*
X-27913512Y1636073D01*
X-27888742Y1641000D01*
X-27711258Y1641000D01*
X-27686488Y1636073D01*
G37*
G36*
X-25146488Y1636073D02*
G01*
X-24997188Y1606376D01*
X-24833216Y1538456D01*
X-24685646Y1439853D01*
X-24560147Y1314354D01*
X-24461544Y1166784D01*
X-24393624Y1002812D01*
X-24359000Y828741D01*
X-24359000Y651259D01*
X-24393624Y477188D01*
X-24461544Y313216D01*
X-24560147Y165646D01*
X-24685646Y40147D01*
X-24833216Y-58456D01*
X-24997188Y-126376D01*
X-25146488Y-156073D01*
X-25171258Y-161000D01*
X-25348742Y-161000D01*
X-25373512Y-156073D01*
X-25522812Y-126376D01*
X-25686784Y-58456D01*
X-25834354Y40147D01*
X-25959853Y165646D01*
X-26058456Y313216D01*
X-26126376Y477188D01*
X-26161000Y651259D01*
X-26161000Y828741D01*
X-26126376Y1002812D01*
X-26058456Y1166784D01*
X-25959853Y1314354D01*
X-25834354Y1439853D01*
X-25686784Y1538456D01*
X-25522812Y1606376D01*
X-25373512Y1636073D01*
X-25348742Y1641000D01*
X-25171258Y1641000D01*
X-25146488Y1636073D01*
G37*
G36*
X-45466488Y1636073D02*
G01*
X-45317188Y1606376D01*
X-45153216Y1538456D01*
X-45005646Y1439853D01*
X-44880147Y1314354D01*
X-44781544Y1166784D01*
X-44713624Y1002812D01*
X-44679000Y828741D01*
X-44679000Y651259D01*
X-44713624Y477188D01*
X-44781544Y313216D01*
X-44880147Y165646D01*
X-45005646Y40147D01*
X-45153216Y-58456D01*
X-45317188Y-126376D01*
X-45466488Y-156073D01*
X-45491258Y-161000D01*
X-45668742Y-161000D01*
X-45693512Y-156073D01*
X-45842812Y-126376D01*
X-46006784Y-58456D01*
X-46154354Y40147D01*
X-46279853Y165646D01*
X-46378456Y313216D01*
X-46446376Y477188D01*
X-46481000Y651259D01*
X-46481000Y828741D01*
X-46446376Y1002812D01*
X-46378456Y1166784D01*
X-46279853Y1314354D01*
X-46154354Y1439853D01*
X-46006784Y1538456D01*
X-45842812Y1606376D01*
X-45693512Y1636073D01*
X-45668742Y1641000D01*
X-45491258Y1641000D01*
X-45466488Y1636073D01*
G37*
G36*
X-9906488Y1636073D02*
G01*
X-9757188Y1606376D01*
X-9593216Y1538456D01*
X-9445646Y1439853D01*
X-9320147Y1314354D01*
X-9221544Y1166784D01*
X-9153624Y1002812D01*
X-9119000Y828741D01*
X-9119000Y651259D01*
X-9153624Y477188D01*
X-9221544Y313216D01*
X-9320147Y165646D01*
X-9445646Y40147D01*
X-9593216Y-58456D01*
X-9757188Y-126376D01*
X-9906488Y-156073D01*
X-9931258Y-161000D01*
X-10108742Y-161000D01*
X-10133512Y-156073D01*
X-10282812Y-126376D01*
X-10446784Y-58456D01*
X-10594354Y40147D01*
X-10719853Y165646D01*
X-10818456Y313216D01*
X-10886376Y477188D01*
X-10921000Y651259D01*
X-10921000Y828741D01*
X-10886376Y1002812D01*
X-10818456Y1166784D01*
X-10719853Y1314354D01*
X-10594354Y1439853D01*
X-10446784Y1538456D01*
X-10282812Y1606376D01*
X-10133512Y1636073D01*
X-10108742Y1641000D01*
X-9931258Y1641000D01*
X-9906488Y1636073D01*
G37*
G36*
X-12446488Y1636073D02*
G01*
X-12297188Y1606376D01*
X-12133216Y1538456D01*
X-11985646Y1439853D01*
X-11860147Y1314354D01*
X-11761544Y1166784D01*
X-11693624Y1002812D01*
X-11659000Y828741D01*
X-11659000Y651259D01*
X-11693624Y477188D01*
X-11761544Y313216D01*
X-11860147Y165646D01*
X-11985646Y40147D01*
X-12133216Y-58456D01*
X-12297188Y-126376D01*
X-12446488Y-156073D01*
X-12471258Y-161000D01*
X-12648742Y-161000D01*
X-12673512Y-156073D01*
X-12822812Y-126376D01*
X-12986784Y-58456D01*
X-13134354Y40147D01*
X-13259853Y165646D01*
X-13358456Y313216D01*
X-13426376Y477188D01*
X-13461000Y651259D01*
X-13461000Y828741D01*
X-13426376Y1002812D01*
X-13358456Y1166784D01*
X-13259853Y1314354D01*
X-13134354Y1439853D01*
X-12986784Y1538456D01*
X-12822812Y1606376D01*
X-12673512Y1636073D01*
X-12648742Y1641000D01*
X-12471258Y1641000D01*
X-12446488Y1636073D01*
G37*
G36*
X-4826488Y1636073D02*
G01*
X-4677188Y1606376D01*
X-4513216Y1538456D01*
X-4365646Y1439853D01*
X-4240147Y1314354D01*
X-4141544Y1166784D01*
X-4073624Y1002812D01*
X-4039000Y828741D01*
X-4039000Y651259D01*
X-4073624Y477188D01*
X-4141544Y313216D01*
X-4240147Y165646D01*
X-4365646Y40147D01*
X-4513216Y-58456D01*
X-4677188Y-126376D01*
X-4826488Y-156073D01*
X-4851258Y-161000D01*
X-5028742Y-161000D01*
X-5053512Y-156073D01*
X-5202812Y-126376D01*
X-5366784Y-58456D01*
X-5514354Y40147D01*
X-5639853Y165646D01*
X-5738456Y313216D01*
X-5806376Y477188D01*
X-5841000Y651259D01*
X-5841000Y828741D01*
X-5806376Y1002812D01*
X-5738456Y1166784D01*
X-5639853Y1314354D01*
X-5514354Y1439853D01*
X-5366784Y1538456D01*
X-5202812Y1606376D01*
X-5053512Y1636073D01*
X-5028742Y1641000D01*
X-4851258Y1641000D01*
X-4826488Y1636073D01*
G37*
G36*
X-14986488Y1636073D02*
G01*
X-14837188Y1606376D01*
X-14673216Y1538456D01*
X-14525646Y1439853D01*
X-14400147Y1314354D01*
X-14301544Y1166784D01*
X-14233624Y1002812D01*
X-14199000Y828741D01*
X-14199000Y651259D01*
X-14233624Y477188D01*
X-14301544Y313216D01*
X-14400147Y165646D01*
X-14525646Y40147D01*
X-14673216Y-58456D01*
X-14837188Y-126376D01*
X-14986488Y-156073D01*
X-15011258Y-161000D01*
X-15188742Y-161000D01*
X-15213512Y-156073D01*
X-15362812Y-126376D01*
X-15526784Y-58456D01*
X-15674354Y40147D01*
X-15799853Y165646D01*
X-15898456Y313216D01*
X-15966376Y477188D01*
X-16001000Y651259D01*
X-16001000Y828741D01*
X-15966376Y1002812D01*
X-15898456Y1166784D01*
X-15799853Y1314354D01*
X-15674354Y1439853D01*
X-15526784Y1538456D01*
X-15362812Y1606376D01*
X-15213512Y1636073D01*
X-15188742Y1641000D01*
X-15011258Y1641000D01*
X-14986488Y1636073D01*
G37*
G36*
X-17526488Y1636073D02*
G01*
X-17377188Y1606376D01*
X-17213216Y1538456D01*
X-17065646Y1439853D01*
X-16940147Y1314354D01*
X-16841544Y1166784D01*
X-16773624Y1002812D01*
X-16739000Y828741D01*
X-16739000Y651259D01*
X-16773624Y477188D01*
X-16841544Y313216D01*
X-16940147Y165646D01*
X-17065646Y40147D01*
X-17213216Y-58456D01*
X-17377188Y-126376D01*
X-17526488Y-156073D01*
X-17551258Y-161000D01*
X-17728742Y-161000D01*
X-17753512Y-156073D01*
X-17902812Y-126376D01*
X-18066784Y-58456D01*
X-18214354Y40147D01*
X-18339853Y165646D01*
X-18438456Y313216D01*
X-18506376Y477188D01*
X-18541000Y651259D01*
X-18541000Y828741D01*
X-18506376Y1002812D01*
X-18438456Y1166784D01*
X-18339853Y1314354D01*
X-18214354Y1439853D01*
X-18066784Y1538456D01*
X-17902812Y1606376D01*
X-17753512Y1636073D01*
X-17728742Y1641000D01*
X-17551258Y1641000D01*
X-17526488Y1636073D01*
G37*
G36*
X-20066488Y1636073D02*
G01*
X-19917188Y1606376D01*
X-19753216Y1538456D01*
X-19605646Y1439853D01*
X-19480147Y1314354D01*
X-19381544Y1166784D01*
X-19313624Y1002812D01*
X-19279000Y828741D01*
X-19279000Y651259D01*
X-19313624Y477188D01*
X-19381544Y313216D01*
X-19480147Y165646D01*
X-19605646Y40147D01*
X-19753216Y-58456D01*
X-19917188Y-126376D01*
X-20066488Y-156073D01*
X-20091258Y-161000D01*
X-20268742Y-161000D01*
X-20293512Y-156073D01*
X-20442812Y-126376D01*
X-20606784Y-58456D01*
X-20754354Y40147D01*
X-20879853Y165646D01*
X-20978456Y313216D01*
X-21046376Y477188D01*
X-21081000Y651259D01*
X-21081000Y828741D01*
X-21046376Y1002812D01*
X-20978456Y1166784D01*
X-20879853Y1314354D01*
X-20754354Y1439853D01*
X-20606784Y1538456D01*
X-20442812Y1606376D01*
X-20293512Y1636073D01*
X-20268742Y1641000D01*
X-20091258Y1641000D01*
X-20066488Y1636073D01*
G37*
G36*
X-48006488Y1636073D02*
G01*
X-47857188Y1606376D01*
X-47693216Y1538456D01*
X-47545646Y1439853D01*
X-47420147Y1314354D01*
X-47321544Y1166784D01*
X-47253624Y1002812D01*
X-47219000Y828741D01*
X-47219000Y651259D01*
X-47253624Y477188D01*
X-47321544Y313216D01*
X-47420147Y165646D01*
X-47545646Y40147D01*
X-47693216Y-58456D01*
X-47857188Y-126376D01*
X-48006488Y-156073D01*
X-48031258Y-161000D01*
X-48208742Y-161000D01*
X-48233512Y-156073D01*
X-48382812Y-126376D01*
X-48546784Y-58456D01*
X-48694354Y40147D01*
X-48819853Y165646D01*
X-48918456Y313216D01*
X-48986376Y477188D01*
X-49021000Y651259D01*
X-49021000Y828741D01*
X-48986376Y1002812D01*
X-48918456Y1166784D01*
X-48819853Y1314354D01*
X-48694354Y1439853D01*
X-48546784Y1538456D01*
X-48382812Y1606376D01*
X-48233512Y1636073D01*
X-48208742Y1641000D01*
X-48031258Y1641000D01*
X-48006488Y1636073D01*
G37*
G36*
X-7366488Y1636073D02*
G01*
X-7217188Y1606376D01*
X-7053216Y1538456D01*
X-6905646Y1439853D01*
X-6780147Y1314354D01*
X-6681544Y1166784D01*
X-6613624Y1002812D01*
X-6579000Y828741D01*
X-6579000Y651259D01*
X-6613624Y477188D01*
X-6681544Y313216D01*
X-6780147Y165646D01*
X-6905646Y40147D01*
X-7053216Y-58456D01*
X-7217188Y-126376D01*
X-7366488Y-156073D01*
X-7391258Y-161000D01*
X-7568742Y-161000D01*
X-7593512Y-156073D01*
X-7742812Y-126376D01*
X-7906784Y-58456D01*
X-8054354Y40147D01*
X-8179853Y165646D01*
X-8278456Y313216D01*
X-8346376Y477188D01*
X-8381000Y651259D01*
X-8381000Y828741D01*
X-8346376Y1002812D01*
X-8278456Y1166784D01*
X-8179853Y1314354D01*
X-8054354Y1439853D01*
X-7906784Y1538456D01*
X-7742812Y1606376D01*
X-7593512Y1636073D01*
X-7568742Y1641000D01*
X-7391258Y1641000D01*
X-7366488Y1636073D01*
G37*
G36*
X-22606488Y1636073D02*
G01*
X-22457188Y1606376D01*
X-22293216Y1538456D01*
X-22145646Y1439853D01*
X-22020147Y1314354D01*
X-21921544Y1166784D01*
X-21853624Y1002812D01*
X-21819000Y828741D01*
X-21819000Y651259D01*
X-21853624Y477188D01*
X-21921544Y313216D01*
X-22020147Y165646D01*
X-22145646Y40147D01*
X-22293216Y-58456D01*
X-22457188Y-126376D01*
X-22606488Y-156073D01*
X-22631258Y-161000D01*
X-22808742Y-161000D01*
X-22833512Y-156073D01*
X-22982812Y-126376D01*
X-23146784Y-58456D01*
X-23294354Y40147D01*
X-23419853Y165646D01*
X-23518456Y313216D01*
X-23586376Y477188D01*
X-23621000Y651259D01*
X-23621000Y828741D01*
X-23586376Y1002812D01*
X-23518456Y1166784D01*
X-23419853Y1314354D01*
X-23294354Y1439853D01*
X-23146784Y1538456D01*
X-22982812Y1606376D01*
X-22833512Y1636073D01*
X-22808742Y1641000D01*
X-22631258Y1641000D01*
X-22606488Y1636073D01*
G37*
M02*
