G04 #@! TF.GenerationSoftware,KiCad,Pcbnew,5.1.6*
G04 #@! TF.CreationDate,2020-05-21T19:24:45+02:00*
G04 #@! TF.ProjectId,F010_rpi_logic_level_shifter_hat,46303130-5f72-4706-995f-6c6f6769635f,rev?*
G04 #@! TF.SameCoordinates,PXa52d280PY2b953a0*
G04 #@! TF.FileFunction,Legend,Top*
G04 #@! TF.FilePolarity,Positive*
%FSLAX46Y46*%
G04 Gerber Fmt 4.6, Leading zero omitted, Abs format (unit mm)*
G04 Created by KiCad (PCBNEW 5.1.6) date 2020-05-21 19:24:45*
%MOMM*%
%LPD*%
G01*
G04 APERTURE LIST*
%ADD10C,0.150000*%
%ADD11C,0.200000*%
%ADD12C,0.120000*%
G04 APERTURE END LIST*
D10*
X-12683215Y-29250000D02*
X-12807024Y-29188095D01*
X-12992739Y-29188095D01*
X-13178453Y-29250000D01*
X-13302262Y-29373809D01*
X-13364167Y-29497619D01*
X-13426072Y-29745238D01*
X-13426072Y-29930952D01*
X-13364167Y-30178571D01*
X-13302262Y-30302380D01*
X-13178453Y-30426190D01*
X-12992739Y-30488095D01*
X-12868929Y-30488095D01*
X-12683215Y-30426190D01*
X-12621310Y-30364285D01*
X-12621310Y-29930952D01*
X-12868929Y-29930952D01*
X-12064167Y-30488095D02*
X-12064167Y-29188095D01*
X-11568929Y-29188095D01*
X-11445120Y-29250000D01*
X-11383215Y-29311904D01*
X-11321310Y-29435714D01*
X-11321310Y-29621428D01*
X-11383215Y-29745238D01*
X-11445120Y-29807142D01*
X-11568929Y-29869047D01*
X-12064167Y-29869047D01*
X-10764167Y-30488095D02*
X-10764167Y-29188095D01*
X-9897500Y-29188095D02*
X-9649881Y-29188095D01*
X-9526072Y-29250000D01*
X-9402262Y-29373809D01*
X-9340358Y-29621428D01*
X-9340358Y-30054761D01*
X-9402262Y-30302380D01*
X-9526072Y-30426190D01*
X-9649881Y-30488095D01*
X-9897500Y-30488095D01*
X-10021310Y-30426190D01*
X-10145120Y-30302380D01*
X-10207024Y-30054761D01*
X-10207024Y-29621428D01*
X-10145120Y-29373809D01*
X-10021310Y-29250000D01*
X-9897500Y-29188095D01*
X-7854643Y-29311904D02*
X-7792739Y-29250000D01*
X-7668929Y-29188095D01*
X-7359405Y-29188095D01*
X-7235596Y-29250000D01*
X-7173691Y-29311904D01*
X-7111786Y-29435714D01*
X-7111786Y-29559523D01*
X-7173691Y-29745238D01*
X-7916548Y-30488095D01*
X-7111786Y-30488095D01*
X-5997500Y-29188095D02*
X-6245120Y-29188095D01*
X-6368929Y-29250000D01*
X-6430834Y-29311904D01*
X-6554643Y-29497619D01*
X-6616548Y-29745238D01*
X-6616548Y-30240476D01*
X-6554643Y-30364285D01*
X-6492739Y-30426190D01*
X-6368929Y-30488095D01*
X-6121310Y-30488095D01*
X-5997500Y-30426190D01*
X-5935596Y-30364285D01*
X-5873691Y-30240476D01*
X-5873691Y-29930952D01*
X-5935596Y-29807142D01*
X-5997500Y-29745238D01*
X-6121310Y-29683333D01*
X-6368929Y-29683333D01*
X-6492739Y-29745238D01*
X-6554643Y-29807142D01*
X-6616548Y-29930952D01*
X-4326072Y-29807142D02*
X-3892739Y-29807142D01*
X-3707024Y-30488095D02*
X-4326072Y-30488095D01*
X-4326072Y-29188095D01*
X-3707024Y-29188095D01*
X-3149881Y-30488095D02*
X-3149881Y-29188095D01*
X-2407024Y-30488095D01*
X-2407024Y-29188095D01*
X-55464286Y-9777380D02*
X-56035715Y-9777380D01*
X-55750000Y-9777380D02*
X-55750000Y-8777380D01*
X-55845239Y-8920238D01*
X-55940477Y-9015476D01*
X-56035715Y-9063095D01*
D11*
X-960477Y-20907142D02*
X-527143Y-20907142D01*
X-341429Y-21588095D02*
X-960477Y-21588095D01*
X-960477Y-20288095D01*
X-341429Y-20288095D01*
X215714Y-21588095D02*
X215714Y-20288095D01*
X958571Y-21588095D01*
X958571Y-20288095D01*
X-1560477Y-27963095D02*
X-1560477Y-26663095D01*
X-1065239Y-26663095D01*
X-941429Y-26725000D01*
X-879524Y-26786904D01*
X-817620Y-26910714D01*
X-817620Y-27096428D01*
X-879524Y-27220238D01*
X-941429Y-27282142D01*
X-1065239Y-27344047D01*
X-1560477Y-27344047D01*
X-384286Y-26663095D02*
X-74762Y-27963095D01*
X172857Y-27034523D01*
X420476Y-27963095D01*
X730000Y-26663095D01*
X1968095Y-27963095D02*
X1534761Y-27344047D01*
X1225238Y-27963095D02*
X1225238Y-26663095D01*
X1720476Y-26663095D01*
X1844285Y-26725000D01*
X1906190Y-26786904D01*
X1968095Y-26910714D01*
X1968095Y-27096428D01*
X1906190Y-27220238D01*
X1844285Y-27282142D01*
X1720476Y-27344047D01*
X1225238Y-27344047D01*
D10*
X-47872620Y-29771547D02*
X-47920239Y-29866785D01*
X-47967858Y-29914404D01*
X-48063096Y-29962023D01*
X-48348810Y-29962023D01*
X-48444048Y-29914404D01*
X-48491667Y-29866785D01*
X-48539286Y-29771547D01*
X-48539286Y-29628690D01*
X-48491667Y-29533452D01*
X-48444048Y-29485833D01*
X-48348810Y-29438214D01*
X-48063096Y-29438214D01*
X-47967858Y-29485833D01*
X-47920239Y-29533452D01*
X-47872620Y-29628690D01*
X-47872620Y-29771547D01*
X-48539286Y-29009642D02*
X-47539286Y-29009642D01*
X-48491667Y-29009642D02*
X-48539286Y-28914404D01*
X-48539286Y-28723928D01*
X-48491667Y-28628690D01*
X-48444048Y-28581071D01*
X-48348810Y-28533452D01*
X-48063096Y-28533452D01*
X-47967858Y-28581071D01*
X-47920239Y-28628690D01*
X-47872620Y-28723928D01*
X-47872620Y-28914404D01*
X-47920239Y-29009642D01*
X-48539286Y-28247738D02*
X-48539286Y-27866785D01*
X-48872620Y-28104880D02*
X-48015477Y-28104880D01*
X-47920239Y-28057261D01*
X-47872620Y-27962023D01*
X-47872620Y-27866785D01*
X-47872620Y-27533452D02*
X-48539286Y-27533452D01*
X-48872620Y-27533452D02*
X-48825000Y-27581071D01*
X-48777381Y-27533452D01*
X-48825000Y-27485833D01*
X-48872620Y-27533452D01*
X-48777381Y-27533452D01*
X-47872620Y-26914404D02*
X-47920239Y-27009642D01*
X-47967858Y-27057261D01*
X-48063096Y-27104880D01*
X-48348810Y-27104880D01*
X-48444048Y-27057261D01*
X-48491667Y-27009642D01*
X-48539286Y-26914404D01*
X-48539286Y-26771547D01*
X-48491667Y-26676309D01*
X-48444048Y-26628690D01*
X-48348810Y-26581071D01*
X-48063096Y-26581071D01*
X-47967858Y-26628690D01*
X-47920239Y-26676309D01*
X-47872620Y-26771547D01*
X-47872620Y-26914404D01*
X-48539286Y-26152500D02*
X-47872620Y-26152500D01*
X-48444048Y-26152500D02*
X-48491667Y-26104880D01*
X-48539286Y-26009642D01*
X-48539286Y-25866785D01*
X-48491667Y-25771547D01*
X-48396429Y-25723928D01*
X-47872620Y-25723928D01*
X-47872620Y-24819166D02*
X-48396429Y-24819166D01*
X-48491667Y-24866785D01*
X-48539286Y-24962023D01*
X-48539286Y-25152500D01*
X-48491667Y-25247738D01*
X-47920239Y-24819166D02*
X-47872620Y-24914404D01*
X-47872620Y-25152500D01*
X-47920239Y-25247738D01*
X-48015477Y-25295357D01*
X-48110715Y-25295357D01*
X-48205953Y-25247738D01*
X-48253572Y-25152500D01*
X-48253572Y-24914404D01*
X-48301191Y-24819166D01*
X-47872620Y-24200119D02*
X-47920239Y-24295357D01*
X-48015477Y-24342976D01*
X-48872620Y-24342976D01*
X-48872620Y-22581071D02*
X-48872620Y-23057261D01*
X-48396429Y-23104880D01*
X-48444048Y-23057261D01*
X-48491667Y-22962023D01*
X-48491667Y-22723928D01*
X-48444048Y-22628690D01*
X-48396429Y-22581071D01*
X-48301191Y-22533452D01*
X-48063096Y-22533452D01*
X-47967858Y-22581071D01*
X-47920239Y-22628690D01*
X-47872620Y-22723928D01*
X-47872620Y-22962023D01*
X-47920239Y-23057261D01*
X-47967858Y-23104880D01*
X-48872620Y-22247738D02*
X-47872620Y-21914404D01*
X-48872620Y-21581071D01*
X-47872620Y-20485833D02*
X-48539286Y-20485833D01*
X-48872620Y-20485833D02*
X-48825000Y-20533452D01*
X-48777381Y-20485833D01*
X-48825000Y-20438214D01*
X-48872620Y-20485833D01*
X-48777381Y-20485833D01*
X-48539286Y-20009642D02*
X-47872620Y-20009642D01*
X-48444048Y-20009642D02*
X-48491667Y-19962023D01*
X-48539286Y-19866785D01*
X-48539286Y-19723928D01*
X-48491667Y-19628690D01*
X-48396429Y-19581071D01*
X-47872620Y-19581071D01*
X-53991786Y-15797619D02*
X-54348929Y-15797619D01*
X-54384643Y-16321428D01*
X-54348929Y-16269047D01*
X-54277500Y-16216666D01*
X-54098929Y-16216666D01*
X-54027500Y-16269047D01*
X-53991786Y-16321428D01*
X-53956072Y-16426190D01*
X-53956072Y-16688095D01*
X-53991786Y-16792857D01*
X-54027500Y-16845238D01*
X-54098929Y-16897619D01*
X-54277500Y-16897619D01*
X-54348929Y-16845238D01*
X-54384643Y-16792857D01*
X-53741786Y-15797619D02*
X-53491786Y-16897619D01*
X-53241786Y-15797619D01*
X-51491786Y-15797619D02*
X-51848929Y-15797619D01*
X-51884643Y-16321428D01*
X-51848929Y-16269047D01*
X-51777500Y-16216666D01*
X-51598929Y-16216666D01*
X-51527500Y-16269047D01*
X-51491786Y-16321428D01*
X-51456072Y-16426190D01*
X-51456072Y-16688095D01*
X-51491786Y-16792857D01*
X-51527500Y-16845238D01*
X-51598929Y-16897619D01*
X-51777500Y-16897619D01*
X-51848929Y-16845238D01*
X-51884643Y-16792857D01*
X-51241786Y-15797619D02*
X-50991786Y-16897619D01*
X-50741786Y-15797619D01*
X-48956072Y-15850000D02*
X-49027500Y-15797619D01*
X-49134643Y-15797619D01*
X-49241786Y-15850000D01*
X-49313215Y-15954761D01*
X-49348929Y-16059523D01*
X-49384643Y-16269047D01*
X-49384643Y-16426190D01*
X-49348929Y-16635714D01*
X-49313215Y-16740476D01*
X-49241786Y-16845238D01*
X-49134643Y-16897619D01*
X-49063215Y-16897619D01*
X-48956072Y-16845238D01*
X-48920358Y-16792857D01*
X-48920358Y-16426190D01*
X-49063215Y-16426190D01*
X-48598929Y-16897619D02*
X-48598929Y-15797619D01*
X-48170358Y-16897619D01*
X-48170358Y-15797619D01*
X-47813215Y-16897619D02*
X-47813215Y-15797619D01*
X-47634643Y-15797619D01*
X-47527500Y-15850000D01*
X-47456072Y-15954761D01*
X-47420358Y-16059523D01*
X-47384643Y-16269047D01*
X-47384643Y-16426190D01*
X-47420358Y-16635714D01*
X-47456072Y-16740476D01*
X-47527500Y-16845238D01*
X-47634643Y-16897619D01*
X-47813215Y-16897619D01*
X-46098929Y-16897619D02*
X-46527500Y-16897619D01*
X-46313215Y-16897619D02*
X-46313215Y-15797619D01*
X-46384643Y-15954761D01*
X-46456072Y-16059523D01*
X-46527500Y-16111904D01*
X-45456072Y-16164285D02*
X-45456072Y-16897619D01*
X-45634643Y-15745238D02*
X-45813215Y-16530952D01*
X-45348929Y-16530952D01*
X-43527500Y-16897619D02*
X-43956072Y-16897619D01*
X-43741786Y-16897619D02*
X-43741786Y-15797619D01*
X-43813215Y-15954761D01*
X-43884643Y-16059523D01*
X-43956072Y-16111904D01*
X-42848929Y-15797619D02*
X-43206072Y-15797619D01*
X-43241786Y-16321428D01*
X-43206072Y-16269047D01*
X-43134643Y-16216666D01*
X-42956072Y-16216666D01*
X-42884643Y-16269047D01*
X-42848929Y-16321428D01*
X-42813215Y-16426190D01*
X-42813215Y-16688095D01*
X-42848929Y-16792857D01*
X-42884643Y-16845238D01*
X-42956072Y-16897619D01*
X-43134643Y-16897619D01*
X-43206072Y-16845238D01*
X-43241786Y-16792857D01*
X-40956072Y-16897619D02*
X-41384643Y-16897619D01*
X-41170358Y-16897619D02*
X-41170358Y-15797619D01*
X-41241786Y-15954761D01*
X-41313215Y-16059523D01*
X-41384643Y-16111904D01*
X-40527500Y-16269047D02*
X-40598929Y-16216666D01*
X-40634643Y-16164285D01*
X-40670358Y-16059523D01*
X-40670358Y-16007142D01*
X-40634643Y-15902380D01*
X-40598929Y-15850000D01*
X-40527500Y-15797619D01*
X-40384643Y-15797619D01*
X-40313215Y-15850000D01*
X-40277500Y-15902380D01*
X-40241786Y-16007142D01*
X-40241786Y-16059523D01*
X-40277500Y-16164285D01*
X-40313215Y-16216666D01*
X-40384643Y-16269047D01*
X-40527500Y-16269047D01*
X-40598929Y-16321428D01*
X-40634643Y-16373809D01*
X-40670358Y-16478571D01*
X-40670358Y-16688095D01*
X-40634643Y-16792857D01*
X-40598929Y-16845238D01*
X-40527500Y-16897619D01*
X-40384643Y-16897619D01*
X-40313215Y-16845238D01*
X-40277500Y-16792857D01*
X-40241786Y-16688095D01*
X-40241786Y-16478571D01*
X-40277500Y-16373809D01*
X-40313215Y-16321428D01*
X-40384643Y-16269047D01*
X-38384643Y-15850000D02*
X-38456072Y-15797619D01*
X-38563215Y-15797619D01*
X-38670358Y-15850000D01*
X-38741786Y-15954761D01*
X-38777500Y-16059523D01*
X-38813215Y-16269047D01*
X-38813215Y-16426190D01*
X-38777500Y-16635714D01*
X-38741786Y-16740476D01*
X-38670358Y-16845238D01*
X-38563215Y-16897619D01*
X-38491786Y-16897619D01*
X-38384643Y-16845238D01*
X-38348929Y-16792857D01*
X-38348929Y-16426190D01*
X-38491786Y-16426190D01*
X-38027500Y-16897619D02*
X-38027500Y-15797619D01*
X-37598929Y-16897619D01*
X-37598929Y-15797619D01*
X-37241786Y-16897619D02*
X-37241786Y-15797619D01*
X-37063215Y-15797619D01*
X-36956072Y-15850000D01*
X-36884643Y-15954761D01*
X-36848929Y-16059523D01*
X-36813215Y-16269047D01*
X-36813215Y-16426190D01*
X-36848929Y-16635714D01*
X-36884643Y-16740476D01*
X-36956072Y-16845238D01*
X-37063215Y-16897619D01*
X-37241786Y-16897619D01*
X-35956072Y-15902380D02*
X-35920358Y-15850000D01*
X-35848929Y-15797619D01*
X-35670358Y-15797619D01*
X-35598929Y-15850000D01*
X-35563215Y-15902380D01*
X-35527500Y-16007142D01*
X-35527500Y-16111904D01*
X-35563215Y-16269047D01*
X-35991786Y-16897619D01*
X-35527500Y-16897619D01*
X-35277500Y-15797619D02*
X-34813215Y-15797619D01*
X-35063215Y-16216666D01*
X-34956072Y-16216666D01*
X-34884643Y-16269047D01*
X-34848929Y-16321428D01*
X-34813215Y-16426190D01*
X-34813215Y-16688095D01*
X-34848929Y-16792857D01*
X-34884643Y-16845238D01*
X-34956072Y-16897619D01*
X-35170358Y-16897619D01*
X-35241786Y-16845238D01*
X-35277500Y-16792857D01*
X-33384643Y-15902380D02*
X-33348929Y-15850000D01*
X-33277500Y-15797619D01*
X-33098929Y-15797619D01*
X-33027500Y-15850000D01*
X-32991786Y-15902380D01*
X-32956072Y-16007142D01*
X-32956072Y-16111904D01*
X-32991786Y-16269047D01*
X-33420358Y-16897619D01*
X-32956072Y-16897619D01*
X-32313215Y-16164285D02*
X-32313215Y-16897619D01*
X-32491786Y-15745238D02*
X-32670358Y-16530952D01*
X-32206072Y-16530952D01*
X-30384643Y-15850000D02*
X-30456072Y-15797619D01*
X-30563215Y-15797619D01*
X-30670358Y-15850000D01*
X-30741786Y-15954761D01*
X-30777500Y-16059523D01*
X-30813215Y-16269047D01*
X-30813215Y-16426190D01*
X-30777500Y-16635714D01*
X-30741786Y-16740476D01*
X-30670358Y-16845238D01*
X-30563215Y-16897619D01*
X-30491786Y-16897619D01*
X-30384643Y-16845238D01*
X-30348929Y-16792857D01*
X-30348929Y-16426190D01*
X-30491786Y-16426190D01*
X-30027500Y-16897619D02*
X-30027500Y-15797619D01*
X-29598929Y-16897619D01*
X-29598929Y-15797619D01*
X-29241786Y-16897619D02*
X-29241786Y-15797619D01*
X-29063215Y-15797619D01*
X-28956072Y-15850000D01*
X-28884643Y-15954761D01*
X-28848929Y-16059523D01*
X-28813215Y-16269047D01*
X-28813215Y-16426190D01*
X-28848929Y-16635714D01*
X-28884643Y-16740476D01*
X-28956072Y-16845238D01*
X-29063215Y-16897619D01*
X-29241786Y-16897619D01*
X-27956072Y-15902380D02*
X-27920358Y-15850000D01*
X-27848929Y-15797619D01*
X-27670358Y-15797619D01*
X-27598929Y-15850000D01*
X-27563215Y-15902380D01*
X-27527500Y-16007142D01*
X-27527500Y-16111904D01*
X-27563215Y-16269047D01*
X-27991786Y-16897619D01*
X-27527500Y-16897619D01*
X-26848929Y-15797619D02*
X-27206072Y-15797619D01*
X-27241786Y-16321428D01*
X-27206072Y-16269047D01*
X-27134643Y-16216666D01*
X-26956072Y-16216666D01*
X-26884643Y-16269047D01*
X-26848929Y-16321428D01*
X-26813215Y-16426190D01*
X-26813215Y-16688095D01*
X-26848929Y-16792857D01*
X-26884643Y-16845238D01*
X-26956072Y-16897619D01*
X-27134643Y-16897619D01*
X-27206072Y-16845238D01*
X-27241786Y-16792857D01*
X-25206072Y-15797619D02*
X-25134643Y-15797619D01*
X-25063215Y-15850000D01*
X-25027500Y-15902380D01*
X-24991786Y-16007142D01*
X-24956072Y-16216666D01*
X-24956072Y-16478571D01*
X-24991786Y-16688095D01*
X-25027500Y-16792857D01*
X-25063215Y-16845238D01*
X-25134643Y-16897619D01*
X-25206072Y-16897619D01*
X-25277500Y-16845238D01*
X-25313215Y-16792857D01*
X-25348929Y-16688095D01*
X-25384643Y-16478571D01*
X-25384643Y-16216666D01*
X-25348929Y-16007142D01*
X-25313215Y-15902380D01*
X-25277500Y-15850000D01*
X-25206072Y-15797619D01*
X-24527500Y-16269047D02*
X-24598929Y-16216666D01*
X-24634643Y-16164285D01*
X-24670358Y-16059523D01*
X-24670358Y-16007142D01*
X-24634643Y-15902380D01*
X-24598929Y-15850000D01*
X-24527500Y-15797619D01*
X-24384643Y-15797619D01*
X-24313215Y-15850000D01*
X-24277500Y-15902380D01*
X-24241786Y-16007142D01*
X-24241786Y-16059523D01*
X-24277500Y-16164285D01*
X-24313215Y-16216666D01*
X-24384643Y-16269047D01*
X-24527500Y-16269047D01*
X-24598929Y-16321428D01*
X-24634643Y-16373809D01*
X-24670358Y-16478571D01*
X-24670358Y-16688095D01*
X-24634643Y-16792857D01*
X-24598929Y-16845238D01*
X-24527500Y-16897619D01*
X-24384643Y-16897619D01*
X-24313215Y-16845238D01*
X-24277500Y-16792857D01*
X-24241786Y-16688095D01*
X-24241786Y-16478571D01*
X-24277500Y-16373809D01*
X-24313215Y-16321428D01*
X-24384643Y-16269047D01*
X-22634643Y-15797619D02*
X-22563215Y-15797619D01*
X-22491786Y-15850000D01*
X-22456072Y-15902380D01*
X-22420358Y-16007142D01*
X-22384643Y-16216666D01*
X-22384643Y-16478571D01*
X-22420358Y-16688095D01*
X-22456072Y-16792857D01*
X-22491786Y-16845238D01*
X-22563215Y-16897619D01*
X-22634643Y-16897619D01*
X-22706072Y-16845238D01*
X-22741786Y-16792857D01*
X-22777501Y-16688095D01*
X-22813215Y-16478571D01*
X-22813215Y-16216666D01*
X-22777501Y-16007142D01*
X-22741786Y-15902380D01*
X-22706072Y-15850000D01*
X-22634643Y-15797619D01*
X-22134643Y-15797619D02*
X-21634643Y-15797619D01*
X-21956072Y-16897619D01*
X-20063215Y-15797619D02*
X-19991786Y-15797619D01*
X-19920358Y-15850000D01*
X-19884643Y-15902380D01*
X-19848929Y-16007142D01*
X-19813215Y-16216666D01*
X-19813215Y-16478571D01*
X-19848929Y-16688095D01*
X-19884643Y-16792857D01*
X-19920358Y-16845238D01*
X-19991786Y-16897619D01*
X-20063215Y-16897619D01*
X-20134643Y-16845238D01*
X-20170358Y-16792857D01*
X-20206072Y-16688095D01*
X-20241786Y-16478571D01*
X-20241786Y-16216666D01*
X-20206072Y-16007142D01*
X-20170358Y-15902380D01*
X-20134643Y-15850000D01*
X-20063215Y-15797619D01*
X-19098929Y-16897619D02*
X-19527500Y-16897619D01*
X-19313215Y-16897619D02*
X-19313215Y-15797619D01*
X-19384643Y-15954761D01*
X-19456072Y-16059523D01*
X-19527500Y-16111904D01*
X-17813215Y-15850000D02*
X-17884643Y-15797619D01*
X-17991786Y-15797619D01*
X-18098929Y-15850000D01*
X-18170358Y-15954761D01*
X-18206072Y-16059523D01*
X-18241786Y-16269047D01*
X-18241786Y-16426190D01*
X-18206072Y-16635714D01*
X-18170358Y-16740476D01*
X-18098929Y-16845238D01*
X-17991786Y-16897619D01*
X-17920358Y-16897619D01*
X-17813215Y-16845238D01*
X-17777500Y-16792857D01*
X-17777500Y-16426190D01*
X-17920358Y-16426190D01*
X-17456072Y-16897619D02*
X-17456072Y-15797619D01*
X-17027500Y-16897619D01*
X-17027500Y-15797619D01*
X-16670358Y-16897619D02*
X-16670358Y-15797619D01*
X-16491786Y-15797619D01*
X-16384643Y-15850000D01*
X-16313215Y-15954761D01*
X-16277500Y-16059523D01*
X-16241786Y-16269047D01*
X-16241786Y-16426190D01*
X-16277500Y-16635714D01*
X-16313215Y-16740476D01*
X-16384643Y-16845238D01*
X-16491786Y-16897619D01*
X-16670358Y-16897619D01*
X-14956072Y-16897619D02*
X-15384643Y-16897619D01*
X-15170358Y-16897619D02*
X-15170358Y-15797619D01*
X-15241786Y-15954761D01*
X-15313215Y-16059523D01*
X-15384643Y-16111904D01*
X-14670358Y-15902380D02*
X-14634643Y-15850000D01*
X-14563215Y-15797619D01*
X-14384643Y-15797619D01*
X-14313215Y-15850000D01*
X-14277500Y-15902380D01*
X-14241786Y-16007142D01*
X-14241786Y-16111904D01*
X-14277500Y-16269047D01*
X-14706072Y-16897619D01*
X-14241786Y-16897619D01*
X-12384643Y-15850000D02*
X-12456072Y-15797619D01*
X-12563215Y-15797619D01*
X-12670358Y-15850000D01*
X-12741786Y-15954761D01*
X-12777500Y-16059523D01*
X-12813215Y-16269047D01*
X-12813215Y-16426190D01*
X-12777500Y-16635714D01*
X-12741786Y-16740476D01*
X-12670358Y-16845238D01*
X-12563215Y-16897619D01*
X-12491786Y-16897619D01*
X-12384643Y-16845238D01*
X-12348929Y-16792857D01*
X-12348929Y-16426190D01*
X-12491786Y-16426190D01*
X-12027500Y-16897619D02*
X-12027500Y-15797619D01*
X-11598929Y-16897619D01*
X-11598929Y-15797619D01*
X-11241786Y-16897619D02*
X-11241786Y-15797619D01*
X-11063215Y-15797619D01*
X-10956072Y-15850000D01*
X-10884643Y-15954761D01*
X-10848929Y-16059523D01*
X-10813215Y-16269047D01*
X-10813215Y-16426190D01*
X-10848929Y-16635714D01*
X-10884643Y-16740476D01*
X-10956072Y-16845238D01*
X-11063215Y-16897619D01*
X-11241786Y-16897619D01*
X-9527500Y-16897619D02*
X-9956072Y-16897619D01*
X-9741786Y-16897619D02*
X-9741786Y-15797619D01*
X-9813215Y-15954761D01*
X-9884643Y-16059523D01*
X-9956072Y-16111904D01*
X-8884643Y-15797619D02*
X-9027500Y-15797619D01*
X-9098929Y-15850000D01*
X-9134643Y-15902380D01*
X-9206072Y-16059523D01*
X-9241786Y-16269047D01*
X-9241786Y-16688095D01*
X-9206072Y-16792857D01*
X-9170358Y-16845238D01*
X-9098929Y-16897619D01*
X-8956072Y-16897619D01*
X-8884643Y-16845238D01*
X-8848929Y-16792857D01*
X-8813215Y-16688095D01*
X-8813215Y-16426190D01*
X-8848929Y-16321428D01*
X-8884643Y-16269047D01*
X-8956072Y-16216666D01*
X-9098929Y-16216666D01*
X-9170358Y-16269047D01*
X-9206072Y-16321428D01*
X-9241786Y-16426190D01*
X-7384643Y-15902380D02*
X-7348929Y-15850000D01*
X-7277500Y-15797619D01*
X-7098929Y-15797619D01*
X-7027500Y-15850000D01*
X-6991786Y-15902380D01*
X-6956072Y-16007142D01*
X-6956072Y-16111904D01*
X-6991786Y-16269047D01*
X-7420358Y-16897619D01*
X-6956072Y-16897619D01*
X-6491786Y-15797619D02*
X-6420358Y-15797619D01*
X-6348929Y-15850000D01*
X-6313215Y-15902380D01*
X-6277500Y-16007142D01*
X-6241786Y-16216666D01*
X-6241786Y-16478571D01*
X-6277500Y-16688095D01*
X-6313215Y-16792857D01*
X-6348929Y-16845238D01*
X-6420358Y-16897619D01*
X-6491786Y-16897619D01*
X-6563215Y-16845238D01*
X-6598929Y-16792857D01*
X-6634643Y-16688095D01*
X-6670358Y-16478571D01*
X-6670358Y-16216666D01*
X-6634643Y-16007142D01*
X-6598929Y-15902380D01*
X-6563215Y-15850000D01*
X-6491786Y-15797619D01*
X-4813215Y-15902380D02*
X-4777500Y-15850000D01*
X-4706072Y-15797619D01*
X-4527500Y-15797619D01*
X-4456072Y-15850000D01*
X-4420358Y-15902380D01*
X-4384643Y-16007142D01*
X-4384643Y-16111904D01*
X-4420358Y-16269047D01*
X-4848929Y-16897619D01*
X-4384643Y-16897619D01*
X-3670358Y-16897619D02*
X-4098929Y-16897619D01*
X-3884643Y-16897619D02*
X-3884643Y-15797619D01*
X-3956072Y-15954761D01*
X-4027500Y-16059523D01*
X-4098929Y-16111904D01*
X-54420358Y-17597619D02*
X-53956072Y-17597619D01*
X-54206072Y-18016666D01*
X-54098929Y-18016666D01*
X-54027500Y-18069047D01*
X-53991786Y-18121428D01*
X-53956072Y-18226190D01*
X-53956072Y-18488095D01*
X-53991786Y-18592857D01*
X-54027500Y-18645238D01*
X-54098929Y-18697619D01*
X-54313215Y-18697619D01*
X-54384643Y-18645238D01*
X-54420358Y-18592857D01*
X-53741786Y-17597619D02*
X-53491786Y-18697619D01*
X-53241786Y-17597619D01*
X-53063215Y-17597619D02*
X-52598929Y-17597619D01*
X-52848929Y-18016666D01*
X-52741786Y-18016666D01*
X-52670358Y-18069047D01*
X-52634643Y-18121428D01*
X-52598929Y-18226190D01*
X-52598929Y-18488095D01*
X-52634643Y-18592857D01*
X-52670358Y-18645238D01*
X-52741786Y-18697619D01*
X-52956072Y-18697619D01*
X-53027500Y-18645238D01*
X-53063215Y-18592857D01*
X-51563215Y-17597619D02*
X-51491786Y-17597619D01*
X-51420358Y-17650000D01*
X-51384643Y-17702380D01*
X-51348929Y-17807142D01*
X-51313215Y-18016666D01*
X-51313215Y-18278571D01*
X-51348929Y-18488095D01*
X-51384643Y-18592857D01*
X-51420358Y-18645238D01*
X-51491786Y-18697619D01*
X-51563215Y-18697619D01*
X-51634643Y-18645238D01*
X-51670358Y-18592857D01*
X-51706072Y-18488095D01*
X-51741786Y-18278571D01*
X-51741786Y-18016666D01*
X-51706072Y-17807142D01*
X-51670358Y-17702380D01*
X-51634643Y-17650000D01*
X-51563215Y-17597619D01*
X-51027500Y-17702380D02*
X-50991786Y-17650000D01*
X-50920358Y-17597619D01*
X-50741786Y-17597619D01*
X-50670358Y-17650000D01*
X-50634643Y-17702380D01*
X-50598929Y-17807142D01*
X-50598929Y-17911904D01*
X-50634643Y-18069047D01*
X-51063215Y-18697619D01*
X-50598929Y-18697619D01*
X-48991786Y-17597619D02*
X-48920358Y-17597619D01*
X-48848929Y-17650000D01*
X-48813215Y-17702380D01*
X-48777500Y-17807142D01*
X-48741786Y-18016666D01*
X-48741786Y-18278571D01*
X-48777500Y-18488095D01*
X-48813215Y-18592857D01*
X-48848929Y-18645238D01*
X-48920358Y-18697619D01*
X-48991786Y-18697619D01*
X-49063215Y-18645238D01*
X-49098929Y-18592857D01*
X-49134643Y-18488095D01*
X-49170358Y-18278571D01*
X-49170358Y-18016666D01*
X-49134643Y-17807142D01*
X-49098929Y-17702380D01*
X-49063215Y-17650000D01*
X-48991786Y-17597619D01*
X-48491786Y-17597619D02*
X-48027500Y-17597619D01*
X-48277500Y-18016666D01*
X-48170358Y-18016666D01*
X-48098929Y-18069047D01*
X-48063215Y-18121428D01*
X-48027500Y-18226190D01*
X-48027500Y-18488095D01*
X-48063215Y-18592857D01*
X-48098929Y-18645238D01*
X-48170358Y-18697619D01*
X-48384643Y-18697619D01*
X-48456072Y-18645238D01*
X-48491786Y-18592857D01*
X-46420358Y-17597619D02*
X-46348929Y-17597619D01*
X-46277500Y-17650000D01*
X-46241786Y-17702380D01*
X-46206072Y-17807142D01*
X-46170358Y-18016666D01*
X-46170358Y-18278571D01*
X-46206072Y-18488095D01*
X-46241786Y-18592857D01*
X-46277500Y-18645238D01*
X-46348929Y-18697619D01*
X-46420358Y-18697619D01*
X-46491786Y-18645238D01*
X-46527500Y-18592857D01*
X-46563215Y-18488095D01*
X-46598929Y-18278571D01*
X-46598929Y-18016666D01*
X-46563215Y-17807142D01*
X-46527500Y-17702380D01*
X-46491786Y-17650000D01*
X-46420358Y-17597619D01*
X-45527500Y-17964285D02*
X-45527500Y-18697619D01*
X-45706072Y-17545238D02*
X-45884643Y-18330952D01*
X-45420358Y-18330952D01*
X-43598929Y-17650000D02*
X-43670358Y-17597619D01*
X-43777500Y-17597619D01*
X-43884643Y-17650000D01*
X-43956072Y-17754761D01*
X-43991786Y-17859523D01*
X-44027500Y-18069047D01*
X-44027500Y-18226190D01*
X-43991786Y-18435714D01*
X-43956072Y-18540476D01*
X-43884643Y-18645238D01*
X-43777500Y-18697619D01*
X-43706072Y-18697619D01*
X-43598929Y-18645238D01*
X-43563215Y-18592857D01*
X-43563215Y-18226190D01*
X-43706072Y-18226190D01*
X-43241786Y-18697619D02*
X-43241786Y-17597619D01*
X-42813215Y-18697619D01*
X-42813215Y-17597619D01*
X-42456072Y-18697619D02*
X-42456072Y-17597619D01*
X-42277500Y-17597619D01*
X-42170358Y-17650000D01*
X-42098929Y-17754761D01*
X-42063215Y-17859523D01*
X-42027500Y-18069047D01*
X-42027500Y-18226190D01*
X-42063215Y-18435714D01*
X-42098929Y-18540476D01*
X-42170358Y-18645238D01*
X-42277500Y-18697619D01*
X-42456072Y-18697619D01*
X-40741786Y-18697619D02*
X-41170358Y-18697619D01*
X-40956072Y-18697619D02*
X-40956072Y-17597619D01*
X-41027500Y-17754761D01*
X-41098929Y-17859523D01*
X-41170358Y-17911904D01*
X-40491786Y-17597619D02*
X-39991786Y-17597619D01*
X-40313215Y-18697619D01*
X-38598929Y-17702380D02*
X-38563215Y-17650000D01*
X-38491786Y-17597619D01*
X-38313215Y-17597619D01*
X-38241786Y-17650000D01*
X-38206072Y-17702380D01*
X-38170358Y-17807142D01*
X-38170358Y-17911904D01*
X-38206072Y-18069047D01*
X-38634643Y-18697619D01*
X-38170358Y-18697619D01*
X-37920358Y-17597619D02*
X-37420358Y-17597619D01*
X-37741786Y-18697619D01*
X-36027500Y-17702380D02*
X-35991786Y-17650000D01*
X-35920358Y-17597619D01*
X-35741786Y-17597619D01*
X-35670358Y-17650000D01*
X-35634643Y-17702380D01*
X-35598929Y-17807142D01*
X-35598929Y-17911904D01*
X-35634643Y-18069047D01*
X-36063215Y-18697619D01*
X-35598929Y-18697619D01*
X-35313215Y-17702380D02*
X-35277500Y-17650000D01*
X-35206072Y-17597619D01*
X-35027500Y-17597619D01*
X-34956072Y-17650000D01*
X-34920358Y-17702380D01*
X-34884643Y-17807142D01*
X-34884643Y-17911904D01*
X-34920358Y-18069047D01*
X-35348929Y-18697619D01*
X-34884643Y-18697619D01*
X-33491786Y-17597619D02*
X-33027500Y-17597619D01*
X-33277500Y-18016666D01*
X-33170358Y-18016666D01*
X-33098929Y-18069047D01*
X-33063215Y-18121428D01*
X-33027500Y-18226190D01*
X-33027500Y-18488095D01*
X-33063215Y-18592857D01*
X-33098929Y-18645238D01*
X-33170358Y-18697619D01*
X-33384643Y-18697619D01*
X-33456072Y-18645238D01*
X-33491786Y-18592857D01*
X-32813215Y-17597619D02*
X-32563215Y-18697619D01*
X-32313215Y-17597619D01*
X-32134643Y-17597619D02*
X-31670358Y-17597619D01*
X-31920358Y-18016666D01*
X-31813215Y-18016666D01*
X-31741786Y-18069047D01*
X-31706072Y-18121428D01*
X-31670358Y-18226190D01*
X-31670358Y-18488095D01*
X-31706072Y-18592857D01*
X-31741786Y-18645238D01*
X-31813215Y-18697619D01*
X-32027500Y-18697619D01*
X-32098929Y-18645238D01*
X-32134643Y-18592857D01*
X-30384643Y-18697619D02*
X-30813215Y-18697619D01*
X-30598929Y-18697619D02*
X-30598929Y-17597619D01*
X-30670358Y-17754761D01*
X-30741786Y-17859523D01*
X-30813215Y-17911904D01*
X-29920358Y-17597619D02*
X-29848929Y-17597619D01*
X-29777501Y-17650000D01*
X-29741786Y-17702380D01*
X-29706072Y-17807142D01*
X-29670358Y-18016666D01*
X-29670358Y-18278571D01*
X-29706072Y-18488095D01*
X-29741786Y-18592857D01*
X-29777501Y-18645238D01*
X-29848929Y-18697619D01*
X-29920358Y-18697619D01*
X-29991786Y-18645238D01*
X-30027501Y-18592857D01*
X-30063215Y-18488095D01*
X-30098929Y-18278571D01*
X-30098929Y-18016666D01*
X-30063215Y-17807142D01*
X-30027501Y-17702380D01*
X-29991786Y-17650000D01*
X-29920358Y-17597619D01*
X-28063215Y-17597619D02*
X-27991786Y-17597619D01*
X-27920358Y-17650000D01*
X-27884643Y-17702380D01*
X-27848929Y-17807142D01*
X-27813215Y-18016666D01*
X-27813215Y-18278571D01*
X-27848929Y-18488095D01*
X-27884643Y-18592857D01*
X-27920358Y-18645238D01*
X-27991786Y-18697619D01*
X-28063215Y-18697619D01*
X-28134643Y-18645238D01*
X-28170358Y-18592857D01*
X-28206072Y-18488095D01*
X-28241786Y-18278571D01*
X-28241786Y-18016666D01*
X-28206072Y-17807142D01*
X-28170358Y-17702380D01*
X-28134643Y-17650000D01*
X-28063215Y-17597619D01*
X-27456072Y-18697619D02*
X-27313215Y-18697619D01*
X-27241786Y-18645238D01*
X-27206072Y-18592857D01*
X-27134643Y-18435714D01*
X-27098929Y-18226190D01*
X-27098929Y-17807142D01*
X-27134643Y-17702380D01*
X-27170358Y-17650000D01*
X-27241786Y-17597619D01*
X-27384643Y-17597619D01*
X-27456072Y-17650000D01*
X-27491786Y-17702380D01*
X-27527501Y-17807142D01*
X-27527501Y-18069047D01*
X-27491786Y-18173809D01*
X-27456072Y-18226190D01*
X-27384643Y-18278571D01*
X-27241786Y-18278571D01*
X-27170358Y-18226190D01*
X-27134643Y-18173809D01*
X-27098929Y-18069047D01*
X-25241786Y-18697619D02*
X-25670358Y-18697619D01*
X-25456072Y-18697619D02*
X-25456072Y-17597619D01*
X-25527501Y-17754761D01*
X-25598929Y-17859523D01*
X-25670358Y-17911904D01*
X-24527501Y-18697619D02*
X-24956072Y-18697619D01*
X-24741786Y-18697619D02*
X-24741786Y-17597619D01*
X-24813215Y-17754761D01*
X-24884643Y-17859523D01*
X-24956072Y-17911904D01*
X-22670358Y-17650000D02*
X-22741786Y-17597619D01*
X-22848929Y-17597619D01*
X-22956072Y-17650000D01*
X-23027501Y-17754761D01*
X-23063215Y-17859523D01*
X-23098929Y-18069047D01*
X-23098929Y-18226190D01*
X-23063215Y-18435714D01*
X-23027501Y-18540476D01*
X-22956072Y-18645238D01*
X-22848929Y-18697619D01*
X-22777501Y-18697619D01*
X-22670358Y-18645238D01*
X-22634643Y-18592857D01*
X-22634643Y-18226190D01*
X-22777501Y-18226190D01*
X-22313215Y-18697619D02*
X-22313215Y-17597619D01*
X-21884643Y-18697619D01*
X-21884643Y-17597619D01*
X-21527501Y-18697619D02*
X-21527501Y-17597619D01*
X-21348929Y-17597619D01*
X-21241786Y-17650000D01*
X-21170358Y-17754761D01*
X-21134643Y-17859523D01*
X-21098929Y-18069047D01*
X-21098929Y-18226190D01*
X-21134643Y-18435714D01*
X-21170358Y-18540476D01*
X-21241786Y-18645238D01*
X-21348929Y-18697619D01*
X-21527501Y-18697619D01*
X-20063215Y-17597619D02*
X-19991786Y-17597619D01*
X-19920358Y-17650000D01*
X-19884643Y-17702380D01*
X-19848929Y-17807142D01*
X-19813215Y-18016666D01*
X-19813215Y-18278571D01*
X-19848929Y-18488095D01*
X-19884643Y-18592857D01*
X-19920358Y-18645238D01*
X-19991786Y-18697619D01*
X-20063215Y-18697619D01*
X-20134643Y-18645238D01*
X-20170358Y-18592857D01*
X-20206072Y-18488095D01*
X-20241786Y-18278571D01*
X-20241786Y-18016666D01*
X-20206072Y-17807142D01*
X-20170358Y-17702380D01*
X-20134643Y-17650000D01*
X-20063215Y-17597619D01*
X-19348929Y-17597619D02*
X-19277501Y-17597619D01*
X-19206072Y-17650000D01*
X-19170358Y-17702380D01*
X-19134643Y-17807142D01*
X-19098929Y-18016666D01*
X-19098929Y-18278571D01*
X-19134643Y-18488095D01*
X-19170358Y-18592857D01*
X-19206072Y-18645238D01*
X-19277501Y-18697619D01*
X-19348929Y-18697619D01*
X-19420358Y-18645238D01*
X-19456072Y-18592857D01*
X-19491786Y-18488095D01*
X-19527501Y-18278571D01*
X-19527501Y-18016666D01*
X-19491786Y-17807142D01*
X-19456072Y-17702380D01*
X-19420358Y-17650000D01*
X-19348929Y-17597619D01*
X-17491786Y-17597619D02*
X-17420358Y-17597619D01*
X-17348929Y-17650000D01*
X-17313215Y-17702380D01*
X-17277500Y-17807142D01*
X-17241786Y-18016666D01*
X-17241786Y-18278571D01*
X-17277500Y-18488095D01*
X-17313215Y-18592857D01*
X-17348929Y-18645238D01*
X-17420358Y-18697619D01*
X-17491786Y-18697619D01*
X-17563215Y-18645238D01*
X-17598929Y-18592857D01*
X-17634643Y-18488095D01*
X-17670358Y-18278571D01*
X-17670358Y-18016666D01*
X-17634643Y-17807142D01*
X-17598929Y-17702380D01*
X-17563215Y-17650000D01*
X-17491786Y-17597619D01*
X-16563215Y-17597619D02*
X-16920358Y-17597619D01*
X-16956072Y-18121428D01*
X-16920358Y-18069047D01*
X-16848929Y-18016666D01*
X-16670358Y-18016666D01*
X-16598929Y-18069047D01*
X-16563215Y-18121428D01*
X-16527500Y-18226190D01*
X-16527500Y-18488095D01*
X-16563215Y-18592857D01*
X-16598929Y-18645238D01*
X-16670358Y-18697619D01*
X-16848929Y-18697619D01*
X-16920358Y-18645238D01*
X-16956072Y-18592857D01*
X-14920358Y-17597619D02*
X-14848929Y-17597619D01*
X-14777500Y-17650000D01*
X-14741786Y-17702380D01*
X-14706072Y-17807142D01*
X-14670358Y-18016666D01*
X-14670358Y-18278571D01*
X-14706072Y-18488095D01*
X-14741786Y-18592857D01*
X-14777500Y-18645238D01*
X-14848929Y-18697619D01*
X-14920358Y-18697619D01*
X-14991786Y-18645238D01*
X-15027500Y-18592857D01*
X-15063215Y-18488095D01*
X-15098929Y-18278571D01*
X-15098929Y-18016666D01*
X-15063215Y-17807142D01*
X-15027500Y-17702380D01*
X-14991786Y-17650000D01*
X-14920358Y-17597619D01*
X-14027500Y-17597619D02*
X-14170358Y-17597619D01*
X-14241786Y-17650000D01*
X-14277500Y-17702380D01*
X-14348929Y-17859523D01*
X-14384643Y-18069047D01*
X-14384643Y-18488095D01*
X-14348929Y-18592857D01*
X-14313215Y-18645238D01*
X-14241786Y-18697619D01*
X-14098929Y-18697619D01*
X-14027500Y-18645238D01*
X-13991786Y-18592857D01*
X-13956072Y-18488095D01*
X-13956072Y-18226190D01*
X-13991786Y-18121428D01*
X-14027500Y-18069047D01*
X-14098929Y-18016666D01*
X-14241786Y-18016666D01*
X-14313215Y-18069047D01*
X-14348929Y-18121428D01*
X-14384643Y-18226190D01*
X-12098929Y-18697619D02*
X-12527500Y-18697619D01*
X-12313215Y-18697619D02*
X-12313215Y-17597619D01*
X-12384643Y-17754761D01*
X-12456072Y-17859523D01*
X-12527500Y-17911904D01*
X-11848929Y-17597619D02*
X-11384643Y-17597619D01*
X-11634643Y-18016666D01*
X-11527500Y-18016666D01*
X-11456072Y-18069047D01*
X-11420358Y-18121428D01*
X-11384643Y-18226190D01*
X-11384643Y-18488095D01*
X-11420358Y-18592857D01*
X-11456072Y-18645238D01*
X-11527500Y-18697619D01*
X-11741786Y-18697619D01*
X-11813215Y-18645238D01*
X-11848929Y-18592857D01*
X-9527500Y-18697619D02*
X-9956072Y-18697619D01*
X-9741786Y-18697619D02*
X-9741786Y-17597619D01*
X-9813215Y-17754761D01*
X-9884643Y-17859523D01*
X-9956072Y-17911904D01*
X-9170358Y-18697619D02*
X-9027500Y-18697619D01*
X-8956072Y-18645238D01*
X-8920358Y-18592857D01*
X-8848929Y-18435714D01*
X-8813215Y-18226190D01*
X-8813215Y-17807142D01*
X-8848929Y-17702380D01*
X-8884643Y-17650000D01*
X-8956072Y-17597619D01*
X-9098929Y-17597619D01*
X-9170358Y-17650000D01*
X-9206072Y-17702380D01*
X-9241786Y-17807142D01*
X-9241786Y-18069047D01*
X-9206072Y-18173809D01*
X-9170358Y-18226190D01*
X-9098929Y-18278571D01*
X-8956072Y-18278571D01*
X-8884643Y-18226190D01*
X-8848929Y-18173809D01*
X-8813215Y-18069047D01*
X-7384643Y-17702380D02*
X-7348929Y-17650000D01*
X-7277500Y-17597619D01*
X-7098929Y-17597619D01*
X-7027500Y-17650000D01*
X-6991786Y-17702380D01*
X-6956072Y-17807142D01*
X-6956072Y-17911904D01*
X-6991786Y-18069047D01*
X-7420358Y-18697619D01*
X-6956072Y-18697619D01*
X-6313215Y-17597619D02*
X-6456072Y-17597619D01*
X-6527500Y-17650000D01*
X-6563215Y-17702380D01*
X-6634643Y-17859523D01*
X-6670358Y-18069047D01*
X-6670358Y-18488095D01*
X-6634643Y-18592857D01*
X-6598929Y-18645238D01*
X-6527500Y-18697619D01*
X-6384643Y-18697619D01*
X-6313215Y-18645238D01*
X-6277500Y-18592857D01*
X-6241786Y-18488095D01*
X-6241786Y-18226190D01*
X-6277500Y-18121428D01*
X-6313215Y-18069047D01*
X-6384643Y-18016666D01*
X-6527500Y-18016666D01*
X-6598929Y-18069047D01*
X-6634643Y-18121428D01*
X-6670358Y-18226190D01*
X-4384643Y-17650000D02*
X-4456072Y-17597619D01*
X-4563215Y-17597619D01*
X-4670358Y-17650000D01*
X-4741786Y-17754761D01*
X-4777500Y-17859523D01*
X-4813215Y-18069047D01*
X-4813215Y-18226190D01*
X-4777500Y-18435714D01*
X-4741786Y-18540476D01*
X-4670358Y-18645238D01*
X-4563215Y-18697619D01*
X-4491786Y-18697619D01*
X-4384643Y-18645238D01*
X-4348929Y-18592857D01*
X-4348929Y-18226190D01*
X-4491786Y-18226190D01*
X-4027500Y-18697619D02*
X-4027500Y-17597619D01*
X-3598929Y-18697619D01*
X-3598929Y-17597619D01*
X-3241786Y-18697619D02*
X-3241786Y-17597619D01*
X-3063215Y-17597619D01*
X-2956072Y-17650000D01*
X-2884643Y-17754761D01*
X-2848929Y-17859523D01*
X-2813215Y-18069047D01*
X-2813215Y-18226190D01*
X-2848929Y-18435714D01*
X-2884643Y-18540476D01*
X-2956072Y-18645238D01*
X-3063215Y-18697619D01*
X-3241786Y-18697619D01*
D12*
X-59600000Y-15100000D02*
X-3150000Y-15100000D01*
D10*
X-59042977Y-12547619D02*
X-59376310Y-12023809D01*
X-59614405Y-12547619D02*
X-59614405Y-11447619D01*
X-59233453Y-11447619D01*
X-59138215Y-11500000D01*
X-59090596Y-11552380D01*
X-59042977Y-11657142D01*
X-59042977Y-11814285D01*
X-59090596Y-11919047D01*
X-59138215Y-11971428D01*
X-59233453Y-12023809D01*
X-59614405Y-12023809D01*
X-58614405Y-12547619D02*
X-58614405Y-11447619D01*
X-58233453Y-11447619D01*
X-58138215Y-11500000D01*
X-58090596Y-11552380D01*
X-58042977Y-11657142D01*
X-58042977Y-11814285D01*
X-58090596Y-11919047D01*
X-58138215Y-11971428D01*
X-58233453Y-12023809D01*
X-58614405Y-12023809D01*
X-57614405Y-12547619D02*
X-57614405Y-11447619D01*
X-59614405Y-14347619D02*
X-59614405Y-13247619D01*
X-59233453Y-13247619D01*
X-59138215Y-13300000D01*
X-59090596Y-13352380D01*
X-59042977Y-13457142D01*
X-59042977Y-13614285D01*
X-59090596Y-13719047D01*
X-59138215Y-13771428D01*
X-59233453Y-13823809D01*
X-59614405Y-13823809D01*
X-58614405Y-14347619D02*
X-58614405Y-13247619D01*
X-58138215Y-14347619D02*
X-58138215Y-13247619D01*
X-57566786Y-14347619D01*
X-57566786Y-13247619D01*
X-59215596Y-15850000D02*
X-59310834Y-15797619D01*
X-59453691Y-15797619D01*
X-59596548Y-15850000D01*
X-59691786Y-15954761D01*
X-59739405Y-16059523D01*
X-59787024Y-16269047D01*
X-59787024Y-16426190D01*
X-59739405Y-16635714D01*
X-59691786Y-16740476D01*
X-59596548Y-16845238D01*
X-59453691Y-16897619D01*
X-59358453Y-16897619D01*
X-59215596Y-16845238D01*
X-59167977Y-16792857D01*
X-59167977Y-16426190D01*
X-59358453Y-16426190D01*
X-58739405Y-16897619D02*
X-58739405Y-15797619D01*
X-58358453Y-15797619D01*
X-58263215Y-15850000D01*
X-58215596Y-15902380D01*
X-58167977Y-16007142D01*
X-58167977Y-16164285D01*
X-58215596Y-16269047D01*
X-58263215Y-16321428D01*
X-58358453Y-16373809D01*
X-58739405Y-16373809D01*
X-57739405Y-16897619D02*
X-57739405Y-15797619D01*
X-57072739Y-15797619D02*
X-56882262Y-15797619D01*
X-56787024Y-15850000D01*
X-56691786Y-15954761D01*
X-56644167Y-16164285D01*
X-56644167Y-16530952D01*
X-56691786Y-16740476D01*
X-56787024Y-16845238D01*
X-56882262Y-16897619D01*
X-57072739Y-16897619D01*
X-57167977Y-16845238D01*
X-57263215Y-16740476D01*
X-57310834Y-16530952D01*
X-57310834Y-16164285D01*
X-57263215Y-15954761D01*
X-57167977Y-15850000D01*
X-57072739Y-15797619D01*
X-59739405Y-18697619D02*
X-59739405Y-17597619D01*
X-59358453Y-17597619D01*
X-59263215Y-17650000D01*
X-59215596Y-17702380D01*
X-59167977Y-17807142D01*
X-59167977Y-17964285D01*
X-59215596Y-18069047D01*
X-59263215Y-18121428D01*
X-59358453Y-18173809D01*
X-59739405Y-18173809D01*
X-58739405Y-18697619D02*
X-58739405Y-17597619D01*
X-58263215Y-18697619D02*
X-58263215Y-17597619D01*
X-57691786Y-18697619D01*
X-57691786Y-17597619D01*
X-53539286Y-11502380D02*
X-53493334Y-11450000D01*
X-53401429Y-11397619D01*
X-53171667Y-11397619D01*
X-53079762Y-11450000D01*
X-53033810Y-11502380D01*
X-52987858Y-11607142D01*
X-52987858Y-11711904D01*
X-53033810Y-11869047D01*
X-53585239Y-12497619D01*
X-52987858Y-12497619D01*
X-50690239Y-11764285D02*
X-50690239Y-12497619D01*
X-50920000Y-11345238D02*
X-51149762Y-12130952D01*
X-50552381Y-12130952D01*
X-48300715Y-11397619D02*
X-48484524Y-11397619D01*
X-48576429Y-11450000D01*
X-48622381Y-11502380D01*
X-48714286Y-11659523D01*
X-48760239Y-11869047D01*
X-48760239Y-12288095D01*
X-48714286Y-12392857D01*
X-48668334Y-12445238D01*
X-48576429Y-12497619D01*
X-48392620Y-12497619D01*
X-48300715Y-12445238D01*
X-48254762Y-12392857D01*
X-48208810Y-12288095D01*
X-48208810Y-12026190D01*
X-48254762Y-11921428D01*
X-48300715Y-11869047D01*
X-48392620Y-11816666D01*
X-48576429Y-11816666D01*
X-48668334Y-11869047D01*
X-48714286Y-11921428D01*
X-48760239Y-12026190D01*
X-46186905Y-11869047D02*
X-46278810Y-11816666D01*
X-46324762Y-11764285D01*
X-46370715Y-11659523D01*
X-46370715Y-11607142D01*
X-46324762Y-11502380D01*
X-46278810Y-11450000D01*
X-46186905Y-11397619D01*
X-46003096Y-11397619D01*
X-45911191Y-11450000D01*
X-45865239Y-11502380D01*
X-45819286Y-11607142D01*
X-45819286Y-11659523D01*
X-45865239Y-11764285D01*
X-45911191Y-11816666D01*
X-46003096Y-11869047D01*
X-46186905Y-11869047D01*
X-46278810Y-11921428D01*
X-46324762Y-11973809D01*
X-46370715Y-12078571D01*
X-46370715Y-12288095D01*
X-46324762Y-12392857D01*
X-46278810Y-12445238D01*
X-46186905Y-12497619D01*
X-46003096Y-12497619D01*
X-45911191Y-12445238D01*
X-45865239Y-12392857D01*
X-45819286Y-12288095D01*
X-45819286Y-12078571D01*
X-45865239Y-11973809D01*
X-45911191Y-11921428D01*
X-46003096Y-11869047D01*
X-43429762Y-12497619D02*
X-43981191Y-12497619D01*
X-43705477Y-12497619D02*
X-43705477Y-11397619D01*
X-43797381Y-11554761D01*
X-43889286Y-11659523D01*
X-43981191Y-11711904D01*
X-42832381Y-11397619D02*
X-42740477Y-11397619D01*
X-42648572Y-11450000D01*
X-42602620Y-11502380D01*
X-42556667Y-11607142D01*
X-42510715Y-11816666D01*
X-42510715Y-12078571D01*
X-42556667Y-12288095D01*
X-42602620Y-12392857D01*
X-42648572Y-12445238D01*
X-42740477Y-12497619D01*
X-42832381Y-12497619D01*
X-42924286Y-12445238D01*
X-42970239Y-12392857D01*
X-43016191Y-12288095D01*
X-43062143Y-12078571D01*
X-43062143Y-11816666D01*
X-43016191Y-11607142D01*
X-42970239Y-11502380D01*
X-42924286Y-11450000D01*
X-42832381Y-11397619D01*
X-40856429Y-12497619D02*
X-41407858Y-12497619D01*
X-41132143Y-12497619D02*
X-41132143Y-11397619D01*
X-41224048Y-11554761D01*
X-41315953Y-11659523D01*
X-41407858Y-11711904D01*
X-40488810Y-11502380D02*
X-40442858Y-11450000D01*
X-40350953Y-11397619D01*
X-40121191Y-11397619D01*
X-40029286Y-11450000D01*
X-39983334Y-11502380D01*
X-39937381Y-11607142D01*
X-39937381Y-11711904D01*
X-39983334Y-11869047D01*
X-40534762Y-12497619D01*
X-39937381Y-12497619D01*
X-38283096Y-12497619D02*
X-38834524Y-12497619D01*
X-38558810Y-12497619D02*
X-38558810Y-11397619D01*
X-38650715Y-11554761D01*
X-38742620Y-11659523D01*
X-38834524Y-11711904D01*
X-37455953Y-11764285D02*
X-37455953Y-12497619D01*
X-37685715Y-11345238D02*
X-37915477Y-12130952D01*
X-37318096Y-12130952D01*
X-35709762Y-12497619D02*
X-36261191Y-12497619D01*
X-35985477Y-12497619D02*
X-35985477Y-11397619D01*
X-36077381Y-11554761D01*
X-36169286Y-11659523D01*
X-36261191Y-11711904D01*
X-34882620Y-11397619D02*
X-35066429Y-11397619D01*
X-35158334Y-11450000D01*
X-35204286Y-11502380D01*
X-35296191Y-11659523D01*
X-35342143Y-11869047D01*
X-35342143Y-12288095D01*
X-35296191Y-12392857D01*
X-35250239Y-12445238D01*
X-35158334Y-12497619D01*
X-34974524Y-12497619D01*
X-34882620Y-12445238D01*
X-34836667Y-12392857D01*
X-34790715Y-12288095D01*
X-34790715Y-12026190D01*
X-34836667Y-11921428D01*
X-34882620Y-11869047D01*
X-34974524Y-11816666D01*
X-35158334Y-11816666D01*
X-35250239Y-11869047D01*
X-35296191Y-11921428D01*
X-35342143Y-12026190D01*
X-33136429Y-12497619D02*
X-33687858Y-12497619D01*
X-33412143Y-12497619D02*
X-33412143Y-11397619D01*
X-33504048Y-11554761D01*
X-33595953Y-11659523D01*
X-33687858Y-11711904D01*
X-32585000Y-11869047D02*
X-32676905Y-11816666D01*
X-32722858Y-11764285D01*
X-32768810Y-11659523D01*
X-32768810Y-11607142D01*
X-32722858Y-11502380D01*
X-32676905Y-11450000D01*
X-32585000Y-11397619D01*
X-32401191Y-11397619D01*
X-32309286Y-11450000D01*
X-32263334Y-11502380D01*
X-32217381Y-11607142D01*
X-32217381Y-11659523D01*
X-32263334Y-11764285D01*
X-32309286Y-11816666D01*
X-32401191Y-11869047D01*
X-32585000Y-11869047D01*
X-32676905Y-11921428D01*
X-32722858Y-11973809D01*
X-32768810Y-12078571D01*
X-32768810Y-12288095D01*
X-32722858Y-12392857D01*
X-32676905Y-12445238D01*
X-32585000Y-12497619D01*
X-32401191Y-12497619D01*
X-32309286Y-12445238D01*
X-32263334Y-12392857D01*
X-32217381Y-12288095D01*
X-32217381Y-12078571D01*
X-32263334Y-11973809D01*
X-32309286Y-11921428D01*
X-32401191Y-11869047D01*
X-31114524Y-11502380D02*
X-31068572Y-11450000D01*
X-30976667Y-11397619D01*
X-30746905Y-11397619D01*
X-30655000Y-11450000D01*
X-30609048Y-11502380D01*
X-30563096Y-11607142D01*
X-30563096Y-11711904D01*
X-30609048Y-11869047D01*
X-31160477Y-12497619D01*
X-30563096Y-12497619D01*
X-29965715Y-11397619D02*
X-29873810Y-11397619D01*
X-29781905Y-11450000D01*
X-29735953Y-11502380D01*
X-29690000Y-11607142D01*
X-29644048Y-11816666D01*
X-29644048Y-12078571D01*
X-29690000Y-12288095D01*
X-29735953Y-12392857D01*
X-29781905Y-12445238D01*
X-29873810Y-12497619D01*
X-29965715Y-12497619D01*
X-30057620Y-12445238D01*
X-30103572Y-12392857D01*
X-30149524Y-12288095D01*
X-30195477Y-12078571D01*
X-30195477Y-11816666D01*
X-30149524Y-11607142D01*
X-30103572Y-11502380D01*
X-30057620Y-11450000D01*
X-29965715Y-11397619D01*
X-28541191Y-11502380D02*
X-28495239Y-11450000D01*
X-28403334Y-11397619D01*
X-28173572Y-11397619D01*
X-28081667Y-11450000D01*
X-28035715Y-11502380D01*
X-27989762Y-11607142D01*
X-27989762Y-11711904D01*
X-28035715Y-11869047D01*
X-28587143Y-12497619D01*
X-27989762Y-12497619D01*
X-27622143Y-11502380D02*
X-27576191Y-11450000D01*
X-27484286Y-11397619D01*
X-27254524Y-11397619D01*
X-27162620Y-11450000D01*
X-27116667Y-11502380D01*
X-27070715Y-11607142D01*
X-27070715Y-11711904D01*
X-27116667Y-11869047D01*
X-27668096Y-12497619D01*
X-27070715Y-12497619D01*
X-25967858Y-11502380D02*
X-25921905Y-11450000D01*
X-25830000Y-11397619D01*
X-25600239Y-11397619D01*
X-25508334Y-11450000D01*
X-25462381Y-11502380D01*
X-25416429Y-11607142D01*
X-25416429Y-11711904D01*
X-25462381Y-11869047D01*
X-26013810Y-12497619D01*
X-25416429Y-12497619D01*
X-24589286Y-11764285D02*
X-24589286Y-12497619D01*
X-24819048Y-11345238D02*
X-25048810Y-12130952D01*
X-24451429Y-12130952D01*
X-23394524Y-11502380D02*
X-23348572Y-11450000D01*
X-23256667Y-11397619D01*
X-23026905Y-11397619D01*
X-22935000Y-11450000D01*
X-22889048Y-11502380D01*
X-22843096Y-11607142D01*
X-22843096Y-11711904D01*
X-22889048Y-11869047D01*
X-23440477Y-12497619D01*
X-22843096Y-12497619D01*
X-22015953Y-11397619D02*
X-22199762Y-11397619D01*
X-22291667Y-11450000D01*
X-22337620Y-11502380D01*
X-22429524Y-11659523D01*
X-22475477Y-11869047D01*
X-22475477Y-12288095D01*
X-22429524Y-12392857D01*
X-22383572Y-12445238D01*
X-22291667Y-12497619D01*
X-22107858Y-12497619D01*
X-22015953Y-12445238D01*
X-21970000Y-12392857D01*
X-21924048Y-12288095D01*
X-21924048Y-12026190D01*
X-21970000Y-11921428D01*
X-22015953Y-11869047D01*
X-22107858Y-11816666D01*
X-22291667Y-11816666D01*
X-22383572Y-11869047D01*
X-22429524Y-11921428D01*
X-22475477Y-12026190D01*
X-20821191Y-11502380D02*
X-20775239Y-11450000D01*
X-20683334Y-11397619D01*
X-20453572Y-11397619D01*
X-20361667Y-11450000D01*
X-20315715Y-11502380D01*
X-20269762Y-11607142D01*
X-20269762Y-11711904D01*
X-20315715Y-11869047D01*
X-20867143Y-12497619D01*
X-20269762Y-12497619D01*
X-19718334Y-11869047D02*
X-19810239Y-11816666D01*
X-19856191Y-11764285D01*
X-19902143Y-11659523D01*
X-19902143Y-11607142D01*
X-19856191Y-11502380D01*
X-19810239Y-11450000D01*
X-19718334Y-11397619D01*
X-19534524Y-11397619D01*
X-19442620Y-11450000D01*
X-19396667Y-11502380D01*
X-19350715Y-11607142D01*
X-19350715Y-11659523D01*
X-19396667Y-11764285D01*
X-19442620Y-11816666D01*
X-19534524Y-11869047D01*
X-19718334Y-11869047D01*
X-19810239Y-11921428D01*
X-19856191Y-11973809D01*
X-19902143Y-12078571D01*
X-19902143Y-12288095D01*
X-19856191Y-12392857D01*
X-19810239Y-12445238D01*
X-19718334Y-12497619D01*
X-19534524Y-12497619D01*
X-19442620Y-12445238D01*
X-19396667Y-12392857D01*
X-19350715Y-12288095D01*
X-19350715Y-12078571D01*
X-19396667Y-11973809D01*
X-19442620Y-11921428D01*
X-19534524Y-11869047D01*
X-18293810Y-11397619D02*
X-17696429Y-11397619D01*
X-18018096Y-11816666D01*
X-17880239Y-11816666D01*
X-17788334Y-11869047D01*
X-17742381Y-11921428D01*
X-17696429Y-12026190D01*
X-17696429Y-12288095D01*
X-17742381Y-12392857D01*
X-17788334Y-12445238D01*
X-17880239Y-12497619D01*
X-18155953Y-12497619D01*
X-18247858Y-12445238D01*
X-18293810Y-12392857D01*
X-17099048Y-11397619D02*
X-17007143Y-11397619D01*
X-16915239Y-11450000D01*
X-16869286Y-11502380D01*
X-16823334Y-11607142D01*
X-16777381Y-11816666D01*
X-16777381Y-12078571D01*
X-16823334Y-12288095D01*
X-16869286Y-12392857D01*
X-16915239Y-12445238D01*
X-17007143Y-12497619D01*
X-17099048Y-12497619D01*
X-17190953Y-12445238D01*
X-17236905Y-12392857D01*
X-17282858Y-12288095D01*
X-17328810Y-12078571D01*
X-17328810Y-11816666D01*
X-17282858Y-11607142D01*
X-17236905Y-11502380D01*
X-17190953Y-11450000D01*
X-17099048Y-11397619D01*
X-15720477Y-11397619D02*
X-15123096Y-11397619D01*
X-15444762Y-11816666D01*
X-15306905Y-11816666D01*
X-15215000Y-11869047D01*
X-15169048Y-11921428D01*
X-15123096Y-12026190D01*
X-15123096Y-12288095D01*
X-15169048Y-12392857D01*
X-15215000Y-12445238D01*
X-15306905Y-12497619D01*
X-15582620Y-12497619D01*
X-15674524Y-12445238D01*
X-15720477Y-12392857D01*
X-14755477Y-11502380D02*
X-14709524Y-11450000D01*
X-14617620Y-11397619D01*
X-14387858Y-11397619D01*
X-14295953Y-11450000D01*
X-14250000Y-11502380D01*
X-14204048Y-11607142D01*
X-14204048Y-11711904D01*
X-14250000Y-11869047D01*
X-14801429Y-12497619D01*
X-14204048Y-12497619D01*
X-13147143Y-11397619D02*
X-12549762Y-11397619D01*
X-12871429Y-11816666D01*
X-12733572Y-11816666D01*
X-12641667Y-11869047D01*
X-12595715Y-11921428D01*
X-12549762Y-12026190D01*
X-12549762Y-12288095D01*
X-12595715Y-12392857D01*
X-12641667Y-12445238D01*
X-12733572Y-12497619D01*
X-13009286Y-12497619D01*
X-13101191Y-12445238D01*
X-13147143Y-12392857D01*
X-11722620Y-11764285D02*
X-11722620Y-12497619D01*
X-11952381Y-11345238D02*
X-12182143Y-12130952D01*
X-11584762Y-12130952D01*
X-10573810Y-11397619D02*
X-9976429Y-11397619D01*
X-10298096Y-11816666D01*
X-10160239Y-11816666D01*
X-10068334Y-11869047D01*
X-10022381Y-11921428D01*
X-9976429Y-12026190D01*
X-9976429Y-12288095D01*
X-10022381Y-12392857D01*
X-10068334Y-12445238D01*
X-10160239Y-12497619D01*
X-10435953Y-12497619D01*
X-10527858Y-12445238D01*
X-10573810Y-12392857D01*
X-9149286Y-11397619D02*
X-9333096Y-11397619D01*
X-9425000Y-11450000D01*
X-9470953Y-11502380D01*
X-9562858Y-11659523D01*
X-9608810Y-11869047D01*
X-9608810Y-12288095D01*
X-9562858Y-12392857D01*
X-9516905Y-12445238D01*
X-9425000Y-12497619D01*
X-9241191Y-12497619D01*
X-9149286Y-12445238D01*
X-9103334Y-12392857D01*
X-9057381Y-12288095D01*
X-9057381Y-12026190D01*
X-9103334Y-11921428D01*
X-9149286Y-11869047D01*
X-9241191Y-11816666D01*
X-9425000Y-11816666D01*
X-9516905Y-11869047D01*
X-9562858Y-11921428D01*
X-9608810Y-12026190D01*
X-8000477Y-11397619D02*
X-7403096Y-11397619D01*
X-7724762Y-11816666D01*
X-7586905Y-11816666D01*
X-7495000Y-11869047D01*
X-7449048Y-11921428D01*
X-7403096Y-12026190D01*
X-7403096Y-12288095D01*
X-7449048Y-12392857D01*
X-7495000Y-12445238D01*
X-7586905Y-12497619D01*
X-7862620Y-12497619D01*
X-7954524Y-12445238D01*
X-8000477Y-12392857D01*
X-6851667Y-11869047D02*
X-6943572Y-11816666D01*
X-6989524Y-11764285D01*
X-7035477Y-11659523D01*
X-7035477Y-11607142D01*
X-6989524Y-11502380D01*
X-6943572Y-11450000D01*
X-6851667Y-11397619D01*
X-6667858Y-11397619D01*
X-6575953Y-11450000D01*
X-6530000Y-11502380D01*
X-6484048Y-11607142D01*
X-6484048Y-11659523D01*
X-6530000Y-11764285D01*
X-6575953Y-11816666D01*
X-6667858Y-11869047D01*
X-6851667Y-11869047D01*
X-6943572Y-11921428D01*
X-6989524Y-11973809D01*
X-7035477Y-12078571D01*
X-7035477Y-12288095D01*
X-6989524Y-12392857D01*
X-6943572Y-12445238D01*
X-6851667Y-12497619D01*
X-6667858Y-12497619D01*
X-6575953Y-12445238D01*
X-6530000Y-12392857D01*
X-6484048Y-12288095D01*
X-6484048Y-12078571D01*
X-6530000Y-11973809D01*
X-6575953Y-11921428D01*
X-6667858Y-11869047D01*
X-4921667Y-11764285D02*
X-4921667Y-12497619D01*
X-5151429Y-11345238D02*
X-5381191Y-12130952D01*
X-4783810Y-12130952D01*
X-4232381Y-11397619D02*
X-4140477Y-11397619D01*
X-4048572Y-11450000D01*
X-4002620Y-11502380D01*
X-3956667Y-11607142D01*
X-3910715Y-11816666D01*
X-3910715Y-12078571D01*
X-3956667Y-12288095D01*
X-4002620Y-12392857D01*
X-4048572Y-12445238D01*
X-4140477Y-12497619D01*
X-4232381Y-12497619D01*
X-4324286Y-12445238D01*
X-4370239Y-12392857D01*
X-4416191Y-12288095D01*
X-4462143Y-12078571D01*
X-4462143Y-11816666D01*
X-4416191Y-11607142D01*
X-4370239Y-11502380D01*
X-4324286Y-11450000D01*
X-4232381Y-11397619D01*
X-52895953Y-14297619D02*
X-53447381Y-14297619D01*
X-53171667Y-14297619D02*
X-53171667Y-13197619D01*
X-53263572Y-13354761D01*
X-53355477Y-13459523D01*
X-53447381Y-13511904D01*
X-51103810Y-13197619D02*
X-50506429Y-13197619D01*
X-50828096Y-13616666D01*
X-50690239Y-13616666D01*
X-50598334Y-13669047D01*
X-50552381Y-13721428D01*
X-50506429Y-13826190D01*
X-50506429Y-14088095D01*
X-50552381Y-14192857D01*
X-50598334Y-14245238D01*
X-50690239Y-14297619D01*
X-50965953Y-14297619D01*
X-51057858Y-14245238D01*
X-51103810Y-14192857D01*
X-48162858Y-13197619D02*
X-48622381Y-13197619D01*
X-48668334Y-13721428D01*
X-48622381Y-13669047D01*
X-48530477Y-13616666D01*
X-48300715Y-13616666D01*
X-48208810Y-13669047D01*
X-48162858Y-13721428D01*
X-48116905Y-13826190D01*
X-48116905Y-14088095D01*
X-48162858Y-14192857D01*
X-48208810Y-14245238D01*
X-48300715Y-14297619D01*
X-48530477Y-14297619D01*
X-48622381Y-14245238D01*
X-48668334Y-14192857D01*
X-46324762Y-13197619D02*
X-45681429Y-13197619D01*
X-46095000Y-14297619D01*
X-43797381Y-14297619D02*
X-43613572Y-14297619D01*
X-43521667Y-14245238D01*
X-43475715Y-14192857D01*
X-43383810Y-14035714D01*
X-43337858Y-13826190D01*
X-43337858Y-13407142D01*
X-43383810Y-13302380D01*
X-43429762Y-13250000D01*
X-43521667Y-13197619D01*
X-43705477Y-13197619D01*
X-43797381Y-13250000D01*
X-43843334Y-13302380D01*
X-43889286Y-13407142D01*
X-43889286Y-13669047D01*
X-43843334Y-13773809D01*
X-43797381Y-13826190D01*
X-43705477Y-13878571D01*
X-43521667Y-13878571D01*
X-43429762Y-13826190D01*
X-43383810Y-13773809D01*
X-43337858Y-13669047D01*
X-40948334Y-14297619D02*
X-41499762Y-14297619D01*
X-41224048Y-14297619D02*
X-41224048Y-13197619D01*
X-41315953Y-13354761D01*
X-41407858Y-13459523D01*
X-41499762Y-13511904D01*
X-40029286Y-14297619D02*
X-40580715Y-14297619D01*
X-40305000Y-14297619D02*
X-40305000Y-13197619D01*
X-40396905Y-13354761D01*
X-40488810Y-13459523D01*
X-40580715Y-13511904D01*
X-38375000Y-14297619D02*
X-38926429Y-14297619D01*
X-38650715Y-14297619D02*
X-38650715Y-13197619D01*
X-38742620Y-13354761D01*
X-38834524Y-13459523D01*
X-38926429Y-13511904D01*
X-38053334Y-13197619D02*
X-37455953Y-13197619D01*
X-37777620Y-13616666D01*
X-37639762Y-13616666D01*
X-37547858Y-13669047D01*
X-37501905Y-13721428D01*
X-37455953Y-13826190D01*
X-37455953Y-14088095D01*
X-37501905Y-14192857D01*
X-37547858Y-14245238D01*
X-37639762Y-14297619D01*
X-37915477Y-14297619D01*
X-38007381Y-14245238D01*
X-38053334Y-14192857D01*
X-35801667Y-14297619D02*
X-36353096Y-14297619D01*
X-36077381Y-14297619D02*
X-36077381Y-13197619D01*
X-36169286Y-13354761D01*
X-36261191Y-13459523D01*
X-36353096Y-13511904D01*
X-34928572Y-13197619D02*
X-35388096Y-13197619D01*
X-35434048Y-13721428D01*
X-35388096Y-13669047D01*
X-35296191Y-13616666D01*
X-35066429Y-13616666D01*
X-34974524Y-13669047D01*
X-34928572Y-13721428D01*
X-34882620Y-13826190D01*
X-34882620Y-14088095D01*
X-34928572Y-14192857D01*
X-34974524Y-14245238D01*
X-35066429Y-14297619D01*
X-35296191Y-14297619D01*
X-35388096Y-14245238D01*
X-35434048Y-14192857D01*
X-33228334Y-14297619D02*
X-33779762Y-14297619D01*
X-33504048Y-14297619D02*
X-33504048Y-13197619D01*
X-33595953Y-13354761D01*
X-33687858Y-13459523D01*
X-33779762Y-13511904D01*
X-32906667Y-13197619D02*
X-32263334Y-13197619D01*
X-32676905Y-14297619D01*
X-30655000Y-14297619D02*
X-31206429Y-14297619D01*
X-30930715Y-14297619D02*
X-30930715Y-13197619D01*
X-31022620Y-13354761D01*
X-31114524Y-13459523D01*
X-31206429Y-13511904D01*
X-30195477Y-14297619D02*
X-30011667Y-14297619D01*
X-29919762Y-14245238D01*
X-29873810Y-14192857D01*
X-29781905Y-14035714D01*
X-29735953Y-13826190D01*
X-29735953Y-13407142D01*
X-29781905Y-13302380D01*
X-29827858Y-13250000D01*
X-29919762Y-13197619D01*
X-30103572Y-13197619D01*
X-30195477Y-13250000D01*
X-30241429Y-13302380D01*
X-30287381Y-13407142D01*
X-30287381Y-13669047D01*
X-30241429Y-13773809D01*
X-30195477Y-13826190D01*
X-30103572Y-13878571D01*
X-29919762Y-13878571D01*
X-29827858Y-13826190D01*
X-29781905Y-13773809D01*
X-29735953Y-13669047D01*
X-28633096Y-13302380D02*
X-28587143Y-13250000D01*
X-28495239Y-13197619D01*
X-28265477Y-13197619D01*
X-28173572Y-13250000D01*
X-28127620Y-13302380D01*
X-28081667Y-13407142D01*
X-28081667Y-13511904D01*
X-28127620Y-13669047D01*
X-28679048Y-14297619D01*
X-28081667Y-14297619D01*
X-27162620Y-14297619D02*
X-27714048Y-14297619D01*
X-27438334Y-14297619D02*
X-27438334Y-13197619D01*
X-27530239Y-13354761D01*
X-27622143Y-13459523D01*
X-27714048Y-13511904D01*
X-26059762Y-13302380D02*
X-26013810Y-13250000D01*
X-25921905Y-13197619D01*
X-25692143Y-13197619D01*
X-25600239Y-13250000D01*
X-25554286Y-13302380D01*
X-25508334Y-13407142D01*
X-25508334Y-13511904D01*
X-25554286Y-13669047D01*
X-26105715Y-14297619D01*
X-25508334Y-14297619D01*
X-25186667Y-13197619D02*
X-24589286Y-13197619D01*
X-24910953Y-13616666D01*
X-24773096Y-13616666D01*
X-24681191Y-13669047D01*
X-24635239Y-13721428D01*
X-24589286Y-13826190D01*
X-24589286Y-14088095D01*
X-24635239Y-14192857D01*
X-24681191Y-14245238D01*
X-24773096Y-14297619D01*
X-25048810Y-14297619D01*
X-25140715Y-14245238D01*
X-25186667Y-14192857D01*
X-23486429Y-13302380D02*
X-23440477Y-13250000D01*
X-23348572Y-13197619D01*
X-23118810Y-13197619D01*
X-23026905Y-13250000D01*
X-22980953Y-13302380D01*
X-22935000Y-13407142D01*
X-22935000Y-13511904D01*
X-22980953Y-13669047D01*
X-23532381Y-14297619D01*
X-22935000Y-14297619D01*
X-22061905Y-13197619D02*
X-22521429Y-13197619D01*
X-22567381Y-13721428D01*
X-22521429Y-13669047D01*
X-22429524Y-13616666D01*
X-22199762Y-13616666D01*
X-22107858Y-13669047D01*
X-22061905Y-13721428D01*
X-22015953Y-13826190D01*
X-22015953Y-14088095D01*
X-22061905Y-14192857D01*
X-22107858Y-14245238D01*
X-22199762Y-14297619D01*
X-22429524Y-14297619D01*
X-22521429Y-14245238D01*
X-22567381Y-14192857D01*
X-20913096Y-13302380D02*
X-20867143Y-13250000D01*
X-20775239Y-13197619D01*
X-20545477Y-13197619D01*
X-20453572Y-13250000D01*
X-20407620Y-13302380D01*
X-20361667Y-13407142D01*
X-20361667Y-13511904D01*
X-20407620Y-13669047D01*
X-20959048Y-14297619D01*
X-20361667Y-14297619D01*
X-20040000Y-13197619D02*
X-19396667Y-13197619D01*
X-19810239Y-14297619D01*
X-18339762Y-13302380D02*
X-18293810Y-13250000D01*
X-18201905Y-13197619D01*
X-17972143Y-13197619D01*
X-17880239Y-13250000D01*
X-17834286Y-13302380D01*
X-17788334Y-13407142D01*
X-17788334Y-13511904D01*
X-17834286Y-13669047D01*
X-18385715Y-14297619D01*
X-17788334Y-14297619D01*
X-17328810Y-14297619D02*
X-17145000Y-14297619D01*
X-17053096Y-14245238D01*
X-17007143Y-14192857D01*
X-16915239Y-14035714D01*
X-16869286Y-13826190D01*
X-16869286Y-13407142D01*
X-16915239Y-13302380D01*
X-16961191Y-13250000D01*
X-17053096Y-13197619D01*
X-17236905Y-13197619D01*
X-17328810Y-13250000D01*
X-17374762Y-13302380D01*
X-17420715Y-13407142D01*
X-17420715Y-13669047D01*
X-17374762Y-13773809D01*
X-17328810Y-13826190D01*
X-17236905Y-13878571D01*
X-17053096Y-13878571D01*
X-16961191Y-13826190D01*
X-16915239Y-13773809D01*
X-16869286Y-13669047D01*
X-15812381Y-13197619D02*
X-15215000Y-13197619D01*
X-15536667Y-13616666D01*
X-15398810Y-13616666D01*
X-15306905Y-13669047D01*
X-15260953Y-13721428D01*
X-15215000Y-13826190D01*
X-15215000Y-14088095D01*
X-15260953Y-14192857D01*
X-15306905Y-14245238D01*
X-15398810Y-14297619D01*
X-15674524Y-14297619D01*
X-15766429Y-14245238D01*
X-15812381Y-14192857D01*
X-14295953Y-14297619D02*
X-14847381Y-14297619D01*
X-14571667Y-14297619D02*
X-14571667Y-13197619D01*
X-14663572Y-13354761D01*
X-14755477Y-13459523D01*
X-14847381Y-13511904D01*
X-13239048Y-13197619D02*
X-12641667Y-13197619D01*
X-12963334Y-13616666D01*
X-12825477Y-13616666D01*
X-12733572Y-13669047D01*
X-12687620Y-13721428D01*
X-12641667Y-13826190D01*
X-12641667Y-14088095D01*
X-12687620Y-14192857D01*
X-12733572Y-14245238D01*
X-12825477Y-14297619D01*
X-13101191Y-14297619D01*
X-13193096Y-14245238D01*
X-13239048Y-14192857D01*
X-12320000Y-13197619D02*
X-11722620Y-13197619D01*
X-12044286Y-13616666D01*
X-11906429Y-13616666D01*
X-11814524Y-13669047D01*
X-11768572Y-13721428D01*
X-11722620Y-13826190D01*
X-11722620Y-14088095D01*
X-11768572Y-14192857D01*
X-11814524Y-14245238D01*
X-11906429Y-14297619D01*
X-12182143Y-14297619D01*
X-12274048Y-14245238D01*
X-12320000Y-14192857D01*
X-10665715Y-13197619D02*
X-10068334Y-13197619D01*
X-10390000Y-13616666D01*
X-10252143Y-13616666D01*
X-10160239Y-13669047D01*
X-10114286Y-13721428D01*
X-10068334Y-13826190D01*
X-10068334Y-14088095D01*
X-10114286Y-14192857D01*
X-10160239Y-14245238D01*
X-10252143Y-14297619D01*
X-10527858Y-14297619D01*
X-10619762Y-14245238D01*
X-10665715Y-14192857D01*
X-9195239Y-13197619D02*
X-9654762Y-13197619D01*
X-9700715Y-13721428D01*
X-9654762Y-13669047D01*
X-9562858Y-13616666D01*
X-9333096Y-13616666D01*
X-9241191Y-13669047D01*
X-9195239Y-13721428D01*
X-9149286Y-13826190D01*
X-9149286Y-14088095D01*
X-9195239Y-14192857D01*
X-9241191Y-14245238D01*
X-9333096Y-14297619D01*
X-9562858Y-14297619D01*
X-9654762Y-14245238D01*
X-9700715Y-14192857D01*
X-8092381Y-13197619D02*
X-7495000Y-13197619D01*
X-7816667Y-13616666D01*
X-7678810Y-13616666D01*
X-7586905Y-13669047D01*
X-7540953Y-13721428D01*
X-7495000Y-13826190D01*
X-7495000Y-14088095D01*
X-7540953Y-14192857D01*
X-7586905Y-14245238D01*
X-7678810Y-14297619D01*
X-7954524Y-14297619D01*
X-8046429Y-14245238D01*
X-8092381Y-14192857D01*
X-7173334Y-13197619D02*
X-6530000Y-13197619D01*
X-6943572Y-14297619D01*
X-5519048Y-13197619D02*
X-4921667Y-13197619D01*
X-5243334Y-13616666D01*
X-5105477Y-13616666D01*
X-5013572Y-13669047D01*
X-4967620Y-13721428D01*
X-4921667Y-13826190D01*
X-4921667Y-14088095D01*
X-4967620Y-14192857D01*
X-5013572Y-14245238D01*
X-5105477Y-14297619D01*
X-5381191Y-14297619D01*
X-5473096Y-14245238D01*
X-5519048Y-14192857D01*
X-4462143Y-14297619D02*
X-4278334Y-14297619D01*
X-4186429Y-14245238D01*
X-4140477Y-14192857D01*
X-4048572Y-14035714D01*
X-4002620Y-13826190D01*
X-4002620Y-13407142D01*
X-4048572Y-13302380D01*
X-4094524Y-13250000D01*
X-4186429Y-13197619D01*
X-4370239Y-13197619D01*
X-4462143Y-13250000D01*
X-4508096Y-13302380D01*
X-4554048Y-13407142D01*
X-4554048Y-13669047D01*
X-4508096Y-13773809D01*
X-4462143Y-13826190D01*
X-4370239Y-13878571D01*
X-4186429Y-13878571D01*
X-4094524Y-13826190D01*
X-4048572Y-13773809D01*
X-4002620Y-13669047D01*
D11*
X-1734524Y-3238095D02*
X-929762Y-3238095D01*
X-1363096Y-3733333D01*
X-1177381Y-3733333D01*
X-1053572Y-3795238D01*
X-991667Y-3857142D01*
X-929762Y-3980952D01*
X-929762Y-4290476D01*
X-991667Y-4414285D01*
X-1053572Y-4476190D01*
X-1177381Y-4538095D01*
X-1548810Y-4538095D01*
X-1672620Y-4476190D01*
X-1734524Y-4414285D01*
X-558334Y-3238095D02*
X-125000Y-4538095D01*
X308333Y-3238095D01*
X617857Y-3238095D02*
X1422619Y-3238095D01*
X989285Y-3733333D01*
X1175000Y-3733333D01*
X1298809Y-3795238D01*
X1360714Y-3857142D01*
X1422619Y-3980952D01*
X1422619Y-4290476D01*
X1360714Y-4414285D01*
X1298809Y-4476190D01*
X1175000Y-4538095D01*
X803571Y-4538095D01*
X679761Y-4476190D01*
X617857Y-4414285D01*
X-58422620Y-42863095D02*
X-59041667Y-42863095D01*
X-59103572Y-43482142D01*
X-59041667Y-43420238D01*
X-58917858Y-43358333D01*
X-58608334Y-43358333D01*
X-58484524Y-43420238D01*
X-58422620Y-43482142D01*
X-58360715Y-43605952D01*
X-58360715Y-43915476D01*
X-58422620Y-44039285D01*
X-58484524Y-44101190D01*
X-58608334Y-44163095D01*
X-58917858Y-44163095D01*
X-59041667Y-44101190D01*
X-59103572Y-44039285D01*
X-57989286Y-42863095D02*
X-57555953Y-44163095D01*
X-57122620Y-42863095D01*
X-611905Y-17417619D02*
X-1230953Y-17850952D01*
X-611905Y-18160476D02*
X-1911905Y-18160476D01*
X-1911905Y-17665238D01*
X-1850000Y-17541428D01*
X-1788096Y-17479523D01*
X-1664286Y-17417619D01*
X-1478572Y-17417619D01*
X-1354762Y-17479523D01*
X-1292858Y-17541428D01*
X-1230953Y-17665238D01*
X-1230953Y-18160476D01*
X-611905Y-16860476D02*
X-1911905Y-16860476D01*
X-1911905Y-16365238D01*
X-1850000Y-16241428D01*
X-1788096Y-16179523D01*
X-1664286Y-16117619D01*
X-1478572Y-16117619D01*
X-1354762Y-16179523D01*
X-1292858Y-16241428D01*
X-1230953Y-16365238D01*
X-1230953Y-16860476D01*
X-611905Y-15560476D02*
X-1911905Y-15560476D01*
X-611905Y-13331904D02*
X-611905Y-13950952D01*
X-1911905Y-13950952D01*
X-673810Y-12403333D02*
X-611905Y-12527142D01*
X-611905Y-12774761D01*
X-673810Y-12898571D01*
X-797620Y-12960476D01*
X-1292858Y-12960476D01*
X-1416667Y-12898571D01*
X-1478572Y-12774761D01*
X-1478572Y-12527142D01*
X-1416667Y-12403333D01*
X-1292858Y-12341428D01*
X-1169048Y-12341428D01*
X-1045239Y-12960476D01*
X-1478572Y-11908095D02*
X-611905Y-11598571D01*
X-1478572Y-11289047D01*
X-673810Y-10298571D02*
X-611905Y-10422380D01*
X-611905Y-10670000D01*
X-673810Y-10793809D01*
X-797620Y-10855714D01*
X-1292858Y-10855714D01*
X-1416667Y-10793809D01*
X-1478572Y-10670000D01*
X-1478572Y-10422380D01*
X-1416667Y-10298571D01*
X-1292858Y-10236666D01*
X-1169048Y-10236666D01*
X-1045239Y-10855714D01*
X-611905Y-9493809D02*
X-673810Y-9617619D01*
X-797620Y-9679523D01*
X-1911905Y-9679523D01*
X-1107143Y-8008095D02*
X-1107143Y-7017619D01*
X1476190Y-18222380D02*
X1538095Y-18036666D01*
X1538095Y-17727142D01*
X1476190Y-17603333D01*
X1414285Y-17541428D01*
X1290476Y-17479523D01*
X1166666Y-17479523D01*
X1042857Y-17541428D01*
X980952Y-17603333D01*
X919047Y-17727142D01*
X857142Y-17974761D01*
X795238Y-18098571D01*
X733333Y-18160476D01*
X609523Y-18222380D01*
X485714Y-18222380D01*
X361904Y-18160476D01*
X300000Y-18098571D01*
X238095Y-17974761D01*
X238095Y-17665238D01*
X300000Y-17479523D01*
X1538095Y-16922380D02*
X238095Y-16922380D01*
X1538095Y-16365238D02*
X857142Y-16365238D01*
X733333Y-16427142D01*
X671428Y-16550952D01*
X671428Y-16736666D01*
X733333Y-16860476D01*
X795238Y-16922380D01*
X1538095Y-15746190D02*
X671428Y-15746190D01*
X238095Y-15746190D02*
X300000Y-15808095D01*
X361904Y-15746190D01*
X300000Y-15684285D01*
X238095Y-15746190D01*
X361904Y-15746190D01*
X671428Y-15312857D02*
X671428Y-14817619D01*
X1538095Y-15127142D02*
X423809Y-15127142D01*
X300000Y-15065238D01*
X238095Y-14941428D01*
X238095Y-14817619D01*
X671428Y-14570000D02*
X671428Y-14074761D01*
X238095Y-14384285D02*
X1352380Y-14384285D01*
X1476190Y-14322380D01*
X1538095Y-14198571D01*
X1538095Y-14074761D01*
X1476190Y-13146190D02*
X1538095Y-13270000D01*
X1538095Y-13517619D01*
X1476190Y-13641428D01*
X1352380Y-13703333D01*
X857142Y-13703333D01*
X733333Y-13641428D01*
X671428Y-13517619D01*
X671428Y-13270000D01*
X733333Y-13146190D01*
X857142Y-13084285D01*
X980952Y-13084285D01*
X1104761Y-13703333D01*
X1538095Y-12527142D02*
X671428Y-12527142D01*
X919047Y-12527142D02*
X795238Y-12465238D01*
X733333Y-12403333D01*
X671428Y-12279523D01*
X671428Y-12155714D01*
X1538095Y-10731904D02*
X238095Y-10731904D01*
X857142Y-10731904D02*
X857142Y-9989047D01*
X1538095Y-9989047D02*
X238095Y-9989047D01*
X1538095Y-8812857D02*
X857142Y-8812857D01*
X733333Y-8874761D01*
X671428Y-8998571D01*
X671428Y-9246190D01*
X733333Y-9370000D01*
X1476190Y-8812857D02*
X1538095Y-8936666D01*
X1538095Y-9246190D01*
X1476190Y-9370000D01*
X1352380Y-9431904D01*
X1228571Y-9431904D01*
X1104761Y-9370000D01*
X1042857Y-9246190D01*
X1042857Y-8936666D01*
X980952Y-8812857D01*
X671428Y-8379523D02*
X671428Y-7884285D01*
X238095Y-8193809D02*
X1352380Y-8193809D01*
X1476190Y-8131904D01*
X1538095Y-8008095D01*
X1538095Y-7884285D01*
D10*
X-53814286Y-41702380D02*
X-53768334Y-41650000D01*
X-53676429Y-41597619D01*
X-53446667Y-41597619D01*
X-53354762Y-41650000D01*
X-53308810Y-41702380D01*
X-53262858Y-41807142D01*
X-53262858Y-41911904D01*
X-53308810Y-42069047D01*
X-53860239Y-42697619D01*
X-53262858Y-42697619D01*
X-50965239Y-41964285D02*
X-50965239Y-42697619D01*
X-51195000Y-41545238D02*
X-51424762Y-42330952D01*
X-50827381Y-42330952D01*
X-48575715Y-41597619D02*
X-48759524Y-41597619D01*
X-48851429Y-41650000D01*
X-48897381Y-41702380D01*
X-48989286Y-41859523D01*
X-49035239Y-42069047D01*
X-49035239Y-42488095D01*
X-48989286Y-42592857D01*
X-48943334Y-42645238D01*
X-48851429Y-42697619D01*
X-48667620Y-42697619D01*
X-48575715Y-42645238D01*
X-48529762Y-42592857D01*
X-48483810Y-42488095D01*
X-48483810Y-42226190D01*
X-48529762Y-42121428D01*
X-48575715Y-42069047D01*
X-48667620Y-42016666D01*
X-48851429Y-42016666D01*
X-48943334Y-42069047D01*
X-48989286Y-42121428D01*
X-49035239Y-42226190D01*
X-46461905Y-42069047D02*
X-46553810Y-42016666D01*
X-46599762Y-41964285D01*
X-46645715Y-41859523D01*
X-46645715Y-41807142D01*
X-46599762Y-41702380D01*
X-46553810Y-41650000D01*
X-46461905Y-41597619D01*
X-46278096Y-41597619D01*
X-46186191Y-41650000D01*
X-46140239Y-41702380D01*
X-46094286Y-41807142D01*
X-46094286Y-41859523D01*
X-46140239Y-41964285D01*
X-46186191Y-42016666D01*
X-46278096Y-42069047D01*
X-46461905Y-42069047D01*
X-46553810Y-42121428D01*
X-46599762Y-42173809D01*
X-46645715Y-42278571D01*
X-46645715Y-42488095D01*
X-46599762Y-42592857D01*
X-46553810Y-42645238D01*
X-46461905Y-42697619D01*
X-46278096Y-42697619D01*
X-46186191Y-42645238D01*
X-46140239Y-42592857D01*
X-46094286Y-42488095D01*
X-46094286Y-42278571D01*
X-46140239Y-42173809D01*
X-46186191Y-42121428D01*
X-46278096Y-42069047D01*
X-43704762Y-42697619D02*
X-44256191Y-42697619D01*
X-43980477Y-42697619D02*
X-43980477Y-41597619D01*
X-44072381Y-41754761D01*
X-44164286Y-41859523D01*
X-44256191Y-41911904D01*
X-43107381Y-41597619D02*
X-43015477Y-41597619D01*
X-42923572Y-41650000D01*
X-42877620Y-41702380D01*
X-42831667Y-41807142D01*
X-42785715Y-42016666D01*
X-42785715Y-42278571D01*
X-42831667Y-42488095D01*
X-42877620Y-42592857D01*
X-42923572Y-42645238D01*
X-43015477Y-42697619D01*
X-43107381Y-42697619D01*
X-43199286Y-42645238D01*
X-43245239Y-42592857D01*
X-43291191Y-42488095D01*
X-43337143Y-42278571D01*
X-43337143Y-42016666D01*
X-43291191Y-41807142D01*
X-43245239Y-41702380D01*
X-43199286Y-41650000D01*
X-43107381Y-41597619D01*
X-41131429Y-42697619D02*
X-41682858Y-42697619D01*
X-41407143Y-42697619D02*
X-41407143Y-41597619D01*
X-41499048Y-41754761D01*
X-41590953Y-41859523D01*
X-41682858Y-41911904D01*
X-40763810Y-41702380D02*
X-40717858Y-41650000D01*
X-40625953Y-41597619D01*
X-40396191Y-41597619D01*
X-40304286Y-41650000D01*
X-40258334Y-41702380D01*
X-40212381Y-41807142D01*
X-40212381Y-41911904D01*
X-40258334Y-42069047D01*
X-40809762Y-42697619D01*
X-40212381Y-42697619D01*
X-38558096Y-42697619D02*
X-39109524Y-42697619D01*
X-38833810Y-42697619D02*
X-38833810Y-41597619D01*
X-38925715Y-41754761D01*
X-39017620Y-41859523D01*
X-39109524Y-41911904D01*
X-37730953Y-41964285D02*
X-37730953Y-42697619D01*
X-37960715Y-41545238D02*
X-38190477Y-42330952D01*
X-37593096Y-42330952D01*
X-35984762Y-42697619D02*
X-36536191Y-42697619D01*
X-36260477Y-42697619D02*
X-36260477Y-41597619D01*
X-36352381Y-41754761D01*
X-36444286Y-41859523D01*
X-36536191Y-41911904D01*
X-35157620Y-41597619D02*
X-35341429Y-41597619D01*
X-35433334Y-41650000D01*
X-35479286Y-41702380D01*
X-35571191Y-41859523D01*
X-35617143Y-42069047D01*
X-35617143Y-42488095D01*
X-35571191Y-42592857D01*
X-35525239Y-42645238D01*
X-35433334Y-42697619D01*
X-35249524Y-42697619D01*
X-35157620Y-42645238D01*
X-35111667Y-42592857D01*
X-35065715Y-42488095D01*
X-35065715Y-42226190D01*
X-35111667Y-42121428D01*
X-35157620Y-42069047D01*
X-35249524Y-42016666D01*
X-35433334Y-42016666D01*
X-35525239Y-42069047D01*
X-35571191Y-42121428D01*
X-35617143Y-42226190D01*
X-33411429Y-42697619D02*
X-33962858Y-42697619D01*
X-33687143Y-42697619D02*
X-33687143Y-41597619D01*
X-33779048Y-41754761D01*
X-33870953Y-41859523D01*
X-33962858Y-41911904D01*
X-32860000Y-42069047D02*
X-32951905Y-42016666D01*
X-32997858Y-41964285D01*
X-33043810Y-41859523D01*
X-33043810Y-41807142D01*
X-32997858Y-41702380D01*
X-32951905Y-41650000D01*
X-32860000Y-41597619D01*
X-32676191Y-41597619D01*
X-32584286Y-41650000D01*
X-32538334Y-41702380D01*
X-32492381Y-41807142D01*
X-32492381Y-41859523D01*
X-32538334Y-41964285D01*
X-32584286Y-42016666D01*
X-32676191Y-42069047D01*
X-32860000Y-42069047D01*
X-32951905Y-42121428D01*
X-32997858Y-42173809D01*
X-33043810Y-42278571D01*
X-33043810Y-42488095D01*
X-32997858Y-42592857D01*
X-32951905Y-42645238D01*
X-32860000Y-42697619D01*
X-32676191Y-42697619D01*
X-32584286Y-42645238D01*
X-32538334Y-42592857D01*
X-32492381Y-42488095D01*
X-32492381Y-42278571D01*
X-32538334Y-42173809D01*
X-32584286Y-42121428D01*
X-32676191Y-42069047D01*
X-31389524Y-41702380D02*
X-31343572Y-41650000D01*
X-31251667Y-41597619D01*
X-31021905Y-41597619D01*
X-30930000Y-41650000D01*
X-30884048Y-41702380D01*
X-30838096Y-41807142D01*
X-30838096Y-41911904D01*
X-30884048Y-42069047D01*
X-31435477Y-42697619D01*
X-30838096Y-42697619D01*
X-30240715Y-41597619D02*
X-30148810Y-41597619D01*
X-30056905Y-41650000D01*
X-30010953Y-41702380D01*
X-29965000Y-41807142D01*
X-29919048Y-42016666D01*
X-29919048Y-42278571D01*
X-29965000Y-42488095D01*
X-30010953Y-42592857D01*
X-30056905Y-42645238D01*
X-30148810Y-42697619D01*
X-30240715Y-42697619D01*
X-30332620Y-42645238D01*
X-30378572Y-42592857D01*
X-30424524Y-42488095D01*
X-30470477Y-42278571D01*
X-30470477Y-42016666D01*
X-30424524Y-41807142D01*
X-30378572Y-41702380D01*
X-30332620Y-41650000D01*
X-30240715Y-41597619D01*
X-28816191Y-41702380D02*
X-28770239Y-41650000D01*
X-28678334Y-41597619D01*
X-28448572Y-41597619D01*
X-28356667Y-41650000D01*
X-28310715Y-41702380D01*
X-28264762Y-41807142D01*
X-28264762Y-41911904D01*
X-28310715Y-42069047D01*
X-28862143Y-42697619D01*
X-28264762Y-42697619D01*
X-27897143Y-41702380D02*
X-27851191Y-41650000D01*
X-27759286Y-41597619D01*
X-27529524Y-41597619D01*
X-27437620Y-41650000D01*
X-27391667Y-41702380D01*
X-27345715Y-41807142D01*
X-27345715Y-41911904D01*
X-27391667Y-42069047D01*
X-27943096Y-42697619D01*
X-27345715Y-42697619D01*
X-26242858Y-41702380D02*
X-26196905Y-41650000D01*
X-26105000Y-41597619D01*
X-25875239Y-41597619D01*
X-25783334Y-41650000D01*
X-25737381Y-41702380D01*
X-25691429Y-41807142D01*
X-25691429Y-41911904D01*
X-25737381Y-42069047D01*
X-26288810Y-42697619D01*
X-25691429Y-42697619D01*
X-24864286Y-41964285D02*
X-24864286Y-42697619D01*
X-25094048Y-41545238D02*
X-25323810Y-42330952D01*
X-24726429Y-42330952D01*
X-23669524Y-41702380D02*
X-23623572Y-41650000D01*
X-23531667Y-41597619D01*
X-23301905Y-41597619D01*
X-23210000Y-41650000D01*
X-23164048Y-41702380D01*
X-23118096Y-41807142D01*
X-23118096Y-41911904D01*
X-23164048Y-42069047D01*
X-23715477Y-42697619D01*
X-23118096Y-42697619D01*
X-22290953Y-41597619D02*
X-22474762Y-41597619D01*
X-22566667Y-41650000D01*
X-22612620Y-41702380D01*
X-22704524Y-41859523D01*
X-22750477Y-42069047D01*
X-22750477Y-42488095D01*
X-22704524Y-42592857D01*
X-22658572Y-42645238D01*
X-22566667Y-42697619D01*
X-22382858Y-42697619D01*
X-22290953Y-42645238D01*
X-22245000Y-42592857D01*
X-22199048Y-42488095D01*
X-22199048Y-42226190D01*
X-22245000Y-42121428D01*
X-22290953Y-42069047D01*
X-22382858Y-42016666D01*
X-22566667Y-42016666D01*
X-22658572Y-42069047D01*
X-22704524Y-42121428D01*
X-22750477Y-42226190D01*
X-21096191Y-41702380D02*
X-21050239Y-41650000D01*
X-20958334Y-41597619D01*
X-20728572Y-41597619D01*
X-20636667Y-41650000D01*
X-20590715Y-41702380D01*
X-20544762Y-41807142D01*
X-20544762Y-41911904D01*
X-20590715Y-42069047D01*
X-21142143Y-42697619D01*
X-20544762Y-42697619D01*
X-19993334Y-42069047D02*
X-20085239Y-42016666D01*
X-20131191Y-41964285D01*
X-20177143Y-41859523D01*
X-20177143Y-41807142D01*
X-20131191Y-41702380D01*
X-20085239Y-41650000D01*
X-19993334Y-41597619D01*
X-19809524Y-41597619D01*
X-19717620Y-41650000D01*
X-19671667Y-41702380D01*
X-19625715Y-41807142D01*
X-19625715Y-41859523D01*
X-19671667Y-41964285D01*
X-19717620Y-42016666D01*
X-19809524Y-42069047D01*
X-19993334Y-42069047D01*
X-20085239Y-42121428D01*
X-20131191Y-42173809D01*
X-20177143Y-42278571D01*
X-20177143Y-42488095D01*
X-20131191Y-42592857D01*
X-20085239Y-42645238D01*
X-19993334Y-42697619D01*
X-19809524Y-42697619D01*
X-19717620Y-42645238D01*
X-19671667Y-42592857D01*
X-19625715Y-42488095D01*
X-19625715Y-42278571D01*
X-19671667Y-42173809D01*
X-19717620Y-42121428D01*
X-19809524Y-42069047D01*
X-18568810Y-41597619D02*
X-17971429Y-41597619D01*
X-18293096Y-42016666D01*
X-18155239Y-42016666D01*
X-18063334Y-42069047D01*
X-18017381Y-42121428D01*
X-17971429Y-42226190D01*
X-17971429Y-42488095D01*
X-18017381Y-42592857D01*
X-18063334Y-42645238D01*
X-18155239Y-42697619D01*
X-18430953Y-42697619D01*
X-18522858Y-42645238D01*
X-18568810Y-42592857D01*
X-17374048Y-41597619D02*
X-17282143Y-41597619D01*
X-17190239Y-41650000D01*
X-17144286Y-41702380D01*
X-17098334Y-41807142D01*
X-17052381Y-42016666D01*
X-17052381Y-42278571D01*
X-17098334Y-42488095D01*
X-17144286Y-42592857D01*
X-17190239Y-42645238D01*
X-17282143Y-42697619D01*
X-17374048Y-42697619D01*
X-17465953Y-42645238D01*
X-17511905Y-42592857D01*
X-17557858Y-42488095D01*
X-17603810Y-42278571D01*
X-17603810Y-42016666D01*
X-17557858Y-41807142D01*
X-17511905Y-41702380D01*
X-17465953Y-41650000D01*
X-17374048Y-41597619D01*
X-15995477Y-41597619D02*
X-15398096Y-41597619D01*
X-15719762Y-42016666D01*
X-15581905Y-42016666D01*
X-15490000Y-42069047D01*
X-15444048Y-42121428D01*
X-15398096Y-42226190D01*
X-15398096Y-42488095D01*
X-15444048Y-42592857D01*
X-15490000Y-42645238D01*
X-15581905Y-42697619D01*
X-15857620Y-42697619D01*
X-15949524Y-42645238D01*
X-15995477Y-42592857D01*
X-15030477Y-41702380D02*
X-14984524Y-41650000D01*
X-14892620Y-41597619D01*
X-14662858Y-41597619D01*
X-14570953Y-41650000D01*
X-14525000Y-41702380D01*
X-14479048Y-41807142D01*
X-14479048Y-41911904D01*
X-14525000Y-42069047D01*
X-15076429Y-42697619D01*
X-14479048Y-42697619D01*
X-13422143Y-41597619D02*
X-12824762Y-41597619D01*
X-13146429Y-42016666D01*
X-13008572Y-42016666D01*
X-12916667Y-42069047D01*
X-12870715Y-42121428D01*
X-12824762Y-42226190D01*
X-12824762Y-42488095D01*
X-12870715Y-42592857D01*
X-12916667Y-42645238D01*
X-13008572Y-42697619D01*
X-13284286Y-42697619D01*
X-13376191Y-42645238D01*
X-13422143Y-42592857D01*
X-11997620Y-41964285D02*
X-11997620Y-42697619D01*
X-12227381Y-41545238D02*
X-12457143Y-42330952D01*
X-11859762Y-42330952D01*
X-10848810Y-41597619D02*
X-10251429Y-41597619D01*
X-10573096Y-42016666D01*
X-10435239Y-42016666D01*
X-10343334Y-42069047D01*
X-10297381Y-42121428D01*
X-10251429Y-42226190D01*
X-10251429Y-42488095D01*
X-10297381Y-42592857D01*
X-10343334Y-42645238D01*
X-10435239Y-42697619D01*
X-10710953Y-42697619D01*
X-10802858Y-42645238D01*
X-10848810Y-42592857D01*
X-9424286Y-41597619D02*
X-9608096Y-41597619D01*
X-9700000Y-41650000D01*
X-9745953Y-41702380D01*
X-9837858Y-41859523D01*
X-9883810Y-42069047D01*
X-9883810Y-42488095D01*
X-9837858Y-42592857D01*
X-9791905Y-42645238D01*
X-9700000Y-42697619D01*
X-9516191Y-42697619D01*
X-9424286Y-42645238D01*
X-9378334Y-42592857D01*
X-9332381Y-42488095D01*
X-9332381Y-42226190D01*
X-9378334Y-42121428D01*
X-9424286Y-42069047D01*
X-9516191Y-42016666D01*
X-9700000Y-42016666D01*
X-9791905Y-42069047D01*
X-9837858Y-42121428D01*
X-9883810Y-42226190D01*
X-8275477Y-41597619D02*
X-7678096Y-41597619D01*
X-7999762Y-42016666D01*
X-7861905Y-42016666D01*
X-7770000Y-42069047D01*
X-7724048Y-42121428D01*
X-7678096Y-42226190D01*
X-7678096Y-42488095D01*
X-7724048Y-42592857D01*
X-7770000Y-42645238D01*
X-7861905Y-42697619D01*
X-8137620Y-42697619D01*
X-8229524Y-42645238D01*
X-8275477Y-42592857D01*
X-7126667Y-42069047D02*
X-7218572Y-42016666D01*
X-7264524Y-41964285D01*
X-7310477Y-41859523D01*
X-7310477Y-41807142D01*
X-7264524Y-41702380D01*
X-7218572Y-41650000D01*
X-7126667Y-41597619D01*
X-6942858Y-41597619D01*
X-6850953Y-41650000D01*
X-6805000Y-41702380D01*
X-6759048Y-41807142D01*
X-6759048Y-41859523D01*
X-6805000Y-41964285D01*
X-6850953Y-42016666D01*
X-6942858Y-42069047D01*
X-7126667Y-42069047D01*
X-7218572Y-42121428D01*
X-7264524Y-42173809D01*
X-7310477Y-42278571D01*
X-7310477Y-42488095D01*
X-7264524Y-42592857D01*
X-7218572Y-42645238D01*
X-7126667Y-42697619D01*
X-6942858Y-42697619D01*
X-6850953Y-42645238D01*
X-6805000Y-42592857D01*
X-6759048Y-42488095D01*
X-6759048Y-42278571D01*
X-6805000Y-42173809D01*
X-6850953Y-42121428D01*
X-6942858Y-42069047D01*
X-5196667Y-41964285D02*
X-5196667Y-42697619D01*
X-5426429Y-41545238D02*
X-5656191Y-42330952D01*
X-5058810Y-42330952D01*
X-4507381Y-41597619D02*
X-4415477Y-41597619D01*
X-4323572Y-41650000D01*
X-4277620Y-41702380D01*
X-4231667Y-41807142D01*
X-4185715Y-42016666D01*
X-4185715Y-42278571D01*
X-4231667Y-42488095D01*
X-4277620Y-42592857D01*
X-4323572Y-42645238D01*
X-4415477Y-42697619D01*
X-4507381Y-42697619D01*
X-4599286Y-42645238D01*
X-4645239Y-42592857D01*
X-4691191Y-42488095D01*
X-4737143Y-42278571D01*
X-4737143Y-42016666D01*
X-4691191Y-41807142D01*
X-4645239Y-41702380D01*
X-4599286Y-41650000D01*
X-4507381Y-41597619D01*
X-53170953Y-44497619D02*
X-53722381Y-44497619D01*
X-53446667Y-44497619D02*
X-53446667Y-43397619D01*
X-53538572Y-43554761D01*
X-53630477Y-43659523D01*
X-53722381Y-43711904D01*
X-51378810Y-43397619D02*
X-50781429Y-43397619D01*
X-51103096Y-43816666D01*
X-50965239Y-43816666D01*
X-50873334Y-43869047D01*
X-50827381Y-43921428D01*
X-50781429Y-44026190D01*
X-50781429Y-44288095D01*
X-50827381Y-44392857D01*
X-50873334Y-44445238D01*
X-50965239Y-44497619D01*
X-51240953Y-44497619D01*
X-51332858Y-44445238D01*
X-51378810Y-44392857D01*
X-48437858Y-43397619D02*
X-48897381Y-43397619D01*
X-48943334Y-43921428D01*
X-48897381Y-43869047D01*
X-48805477Y-43816666D01*
X-48575715Y-43816666D01*
X-48483810Y-43869047D01*
X-48437858Y-43921428D01*
X-48391905Y-44026190D01*
X-48391905Y-44288095D01*
X-48437858Y-44392857D01*
X-48483810Y-44445238D01*
X-48575715Y-44497619D01*
X-48805477Y-44497619D01*
X-48897381Y-44445238D01*
X-48943334Y-44392857D01*
X-46599762Y-43397619D02*
X-45956429Y-43397619D01*
X-46370000Y-44497619D01*
X-44072381Y-44497619D02*
X-43888572Y-44497619D01*
X-43796667Y-44445238D01*
X-43750715Y-44392857D01*
X-43658810Y-44235714D01*
X-43612858Y-44026190D01*
X-43612858Y-43607142D01*
X-43658810Y-43502380D01*
X-43704762Y-43450000D01*
X-43796667Y-43397619D01*
X-43980477Y-43397619D01*
X-44072381Y-43450000D01*
X-44118334Y-43502380D01*
X-44164286Y-43607142D01*
X-44164286Y-43869047D01*
X-44118334Y-43973809D01*
X-44072381Y-44026190D01*
X-43980477Y-44078571D01*
X-43796667Y-44078571D01*
X-43704762Y-44026190D01*
X-43658810Y-43973809D01*
X-43612858Y-43869047D01*
X-41223334Y-44497619D02*
X-41774762Y-44497619D01*
X-41499048Y-44497619D02*
X-41499048Y-43397619D01*
X-41590953Y-43554761D01*
X-41682858Y-43659523D01*
X-41774762Y-43711904D01*
X-40304286Y-44497619D02*
X-40855715Y-44497619D01*
X-40580000Y-44497619D02*
X-40580000Y-43397619D01*
X-40671905Y-43554761D01*
X-40763810Y-43659523D01*
X-40855715Y-43711904D01*
X-38650000Y-44497619D02*
X-39201429Y-44497619D01*
X-38925715Y-44497619D02*
X-38925715Y-43397619D01*
X-39017620Y-43554761D01*
X-39109524Y-43659523D01*
X-39201429Y-43711904D01*
X-38328334Y-43397619D02*
X-37730953Y-43397619D01*
X-38052620Y-43816666D01*
X-37914762Y-43816666D01*
X-37822858Y-43869047D01*
X-37776905Y-43921428D01*
X-37730953Y-44026190D01*
X-37730953Y-44288095D01*
X-37776905Y-44392857D01*
X-37822858Y-44445238D01*
X-37914762Y-44497619D01*
X-38190477Y-44497619D01*
X-38282381Y-44445238D01*
X-38328334Y-44392857D01*
X-36076667Y-44497619D02*
X-36628096Y-44497619D01*
X-36352381Y-44497619D02*
X-36352381Y-43397619D01*
X-36444286Y-43554761D01*
X-36536191Y-43659523D01*
X-36628096Y-43711904D01*
X-35203572Y-43397619D02*
X-35663096Y-43397619D01*
X-35709048Y-43921428D01*
X-35663096Y-43869047D01*
X-35571191Y-43816666D01*
X-35341429Y-43816666D01*
X-35249524Y-43869047D01*
X-35203572Y-43921428D01*
X-35157620Y-44026190D01*
X-35157620Y-44288095D01*
X-35203572Y-44392857D01*
X-35249524Y-44445238D01*
X-35341429Y-44497619D01*
X-35571191Y-44497619D01*
X-35663096Y-44445238D01*
X-35709048Y-44392857D01*
X-33503334Y-44497619D02*
X-34054762Y-44497619D01*
X-33779048Y-44497619D02*
X-33779048Y-43397619D01*
X-33870953Y-43554761D01*
X-33962858Y-43659523D01*
X-34054762Y-43711904D01*
X-33181667Y-43397619D02*
X-32538334Y-43397619D01*
X-32951905Y-44497619D01*
X-30930000Y-44497619D02*
X-31481429Y-44497619D01*
X-31205715Y-44497619D02*
X-31205715Y-43397619D01*
X-31297620Y-43554761D01*
X-31389524Y-43659523D01*
X-31481429Y-43711904D01*
X-30470477Y-44497619D02*
X-30286667Y-44497619D01*
X-30194762Y-44445238D01*
X-30148810Y-44392857D01*
X-30056905Y-44235714D01*
X-30010953Y-44026190D01*
X-30010953Y-43607142D01*
X-30056905Y-43502380D01*
X-30102858Y-43450000D01*
X-30194762Y-43397619D01*
X-30378572Y-43397619D01*
X-30470477Y-43450000D01*
X-30516429Y-43502380D01*
X-30562381Y-43607142D01*
X-30562381Y-43869047D01*
X-30516429Y-43973809D01*
X-30470477Y-44026190D01*
X-30378572Y-44078571D01*
X-30194762Y-44078571D01*
X-30102858Y-44026190D01*
X-30056905Y-43973809D01*
X-30010953Y-43869047D01*
X-28908096Y-43502380D02*
X-28862143Y-43450000D01*
X-28770239Y-43397619D01*
X-28540477Y-43397619D01*
X-28448572Y-43450000D01*
X-28402620Y-43502380D01*
X-28356667Y-43607142D01*
X-28356667Y-43711904D01*
X-28402620Y-43869047D01*
X-28954048Y-44497619D01*
X-28356667Y-44497619D01*
X-27437620Y-44497619D02*
X-27989048Y-44497619D01*
X-27713334Y-44497619D02*
X-27713334Y-43397619D01*
X-27805239Y-43554761D01*
X-27897143Y-43659523D01*
X-27989048Y-43711904D01*
X-26334762Y-43502380D02*
X-26288810Y-43450000D01*
X-26196905Y-43397619D01*
X-25967143Y-43397619D01*
X-25875239Y-43450000D01*
X-25829286Y-43502380D01*
X-25783334Y-43607142D01*
X-25783334Y-43711904D01*
X-25829286Y-43869047D01*
X-26380715Y-44497619D01*
X-25783334Y-44497619D01*
X-25461667Y-43397619D02*
X-24864286Y-43397619D01*
X-25185953Y-43816666D01*
X-25048096Y-43816666D01*
X-24956191Y-43869047D01*
X-24910239Y-43921428D01*
X-24864286Y-44026190D01*
X-24864286Y-44288095D01*
X-24910239Y-44392857D01*
X-24956191Y-44445238D01*
X-25048096Y-44497619D01*
X-25323810Y-44497619D01*
X-25415715Y-44445238D01*
X-25461667Y-44392857D01*
X-23761429Y-43502380D02*
X-23715477Y-43450000D01*
X-23623572Y-43397619D01*
X-23393810Y-43397619D01*
X-23301905Y-43450000D01*
X-23255953Y-43502380D01*
X-23210000Y-43607142D01*
X-23210000Y-43711904D01*
X-23255953Y-43869047D01*
X-23807381Y-44497619D01*
X-23210000Y-44497619D01*
X-22336905Y-43397619D02*
X-22796429Y-43397619D01*
X-22842381Y-43921428D01*
X-22796429Y-43869047D01*
X-22704524Y-43816666D01*
X-22474762Y-43816666D01*
X-22382858Y-43869047D01*
X-22336905Y-43921428D01*
X-22290953Y-44026190D01*
X-22290953Y-44288095D01*
X-22336905Y-44392857D01*
X-22382858Y-44445238D01*
X-22474762Y-44497619D01*
X-22704524Y-44497619D01*
X-22796429Y-44445238D01*
X-22842381Y-44392857D01*
X-21188096Y-43502380D02*
X-21142143Y-43450000D01*
X-21050239Y-43397619D01*
X-20820477Y-43397619D01*
X-20728572Y-43450000D01*
X-20682620Y-43502380D01*
X-20636667Y-43607142D01*
X-20636667Y-43711904D01*
X-20682620Y-43869047D01*
X-21234048Y-44497619D01*
X-20636667Y-44497619D01*
X-20315000Y-43397619D02*
X-19671667Y-43397619D01*
X-20085239Y-44497619D01*
X-18614762Y-43502380D02*
X-18568810Y-43450000D01*
X-18476905Y-43397619D01*
X-18247143Y-43397619D01*
X-18155239Y-43450000D01*
X-18109286Y-43502380D01*
X-18063334Y-43607142D01*
X-18063334Y-43711904D01*
X-18109286Y-43869047D01*
X-18660715Y-44497619D01*
X-18063334Y-44497619D01*
X-17603810Y-44497619D02*
X-17420000Y-44497619D01*
X-17328096Y-44445238D01*
X-17282143Y-44392857D01*
X-17190239Y-44235714D01*
X-17144286Y-44026190D01*
X-17144286Y-43607142D01*
X-17190239Y-43502380D01*
X-17236191Y-43450000D01*
X-17328096Y-43397619D01*
X-17511905Y-43397619D01*
X-17603810Y-43450000D01*
X-17649762Y-43502380D01*
X-17695715Y-43607142D01*
X-17695715Y-43869047D01*
X-17649762Y-43973809D01*
X-17603810Y-44026190D01*
X-17511905Y-44078571D01*
X-17328096Y-44078571D01*
X-17236191Y-44026190D01*
X-17190239Y-43973809D01*
X-17144286Y-43869047D01*
X-16087381Y-43397619D02*
X-15490000Y-43397619D01*
X-15811667Y-43816666D01*
X-15673810Y-43816666D01*
X-15581905Y-43869047D01*
X-15535953Y-43921428D01*
X-15490000Y-44026190D01*
X-15490000Y-44288095D01*
X-15535953Y-44392857D01*
X-15581905Y-44445238D01*
X-15673810Y-44497619D01*
X-15949524Y-44497619D01*
X-16041429Y-44445238D01*
X-16087381Y-44392857D01*
X-14570953Y-44497619D02*
X-15122381Y-44497619D01*
X-14846667Y-44497619D02*
X-14846667Y-43397619D01*
X-14938572Y-43554761D01*
X-15030477Y-43659523D01*
X-15122381Y-43711904D01*
X-13514048Y-43397619D02*
X-12916667Y-43397619D01*
X-13238334Y-43816666D01*
X-13100477Y-43816666D01*
X-13008572Y-43869047D01*
X-12962620Y-43921428D01*
X-12916667Y-44026190D01*
X-12916667Y-44288095D01*
X-12962620Y-44392857D01*
X-13008572Y-44445238D01*
X-13100477Y-44497619D01*
X-13376191Y-44497619D01*
X-13468096Y-44445238D01*
X-13514048Y-44392857D01*
X-12595000Y-43397619D02*
X-11997620Y-43397619D01*
X-12319286Y-43816666D01*
X-12181429Y-43816666D01*
X-12089524Y-43869047D01*
X-12043572Y-43921428D01*
X-11997620Y-44026190D01*
X-11997620Y-44288095D01*
X-12043572Y-44392857D01*
X-12089524Y-44445238D01*
X-12181429Y-44497619D01*
X-12457143Y-44497619D01*
X-12549048Y-44445238D01*
X-12595000Y-44392857D01*
X-10940715Y-43397619D02*
X-10343334Y-43397619D01*
X-10665000Y-43816666D01*
X-10527143Y-43816666D01*
X-10435239Y-43869047D01*
X-10389286Y-43921428D01*
X-10343334Y-44026190D01*
X-10343334Y-44288095D01*
X-10389286Y-44392857D01*
X-10435239Y-44445238D01*
X-10527143Y-44497619D01*
X-10802858Y-44497619D01*
X-10894762Y-44445238D01*
X-10940715Y-44392857D01*
X-9470239Y-43397619D02*
X-9929762Y-43397619D01*
X-9975715Y-43921428D01*
X-9929762Y-43869047D01*
X-9837858Y-43816666D01*
X-9608096Y-43816666D01*
X-9516191Y-43869047D01*
X-9470239Y-43921428D01*
X-9424286Y-44026190D01*
X-9424286Y-44288095D01*
X-9470239Y-44392857D01*
X-9516191Y-44445238D01*
X-9608096Y-44497619D01*
X-9837858Y-44497619D01*
X-9929762Y-44445238D01*
X-9975715Y-44392857D01*
X-8367381Y-43397619D02*
X-7770000Y-43397619D01*
X-8091667Y-43816666D01*
X-7953810Y-43816666D01*
X-7861905Y-43869047D01*
X-7815953Y-43921428D01*
X-7770000Y-44026190D01*
X-7770000Y-44288095D01*
X-7815953Y-44392857D01*
X-7861905Y-44445238D01*
X-7953810Y-44497619D01*
X-8229524Y-44497619D01*
X-8321429Y-44445238D01*
X-8367381Y-44392857D01*
X-7448334Y-43397619D02*
X-6805000Y-43397619D01*
X-7218572Y-44497619D01*
X-5794048Y-43397619D02*
X-5196667Y-43397619D01*
X-5518334Y-43816666D01*
X-5380477Y-43816666D01*
X-5288572Y-43869047D01*
X-5242620Y-43921428D01*
X-5196667Y-44026190D01*
X-5196667Y-44288095D01*
X-5242620Y-44392857D01*
X-5288572Y-44445238D01*
X-5380477Y-44497619D01*
X-5656191Y-44497619D01*
X-5748096Y-44445238D01*
X-5794048Y-44392857D01*
X-4737143Y-44497619D02*
X-4553334Y-44497619D01*
X-4461429Y-44445238D01*
X-4415477Y-44392857D01*
X-4323572Y-44235714D01*
X-4277620Y-44026190D01*
X-4277620Y-43607142D01*
X-4323572Y-43502380D01*
X-4369524Y-43450000D01*
X-4461429Y-43397619D01*
X-4645239Y-43397619D01*
X-4737143Y-43450000D01*
X-4783096Y-43502380D01*
X-4829048Y-43607142D01*
X-4829048Y-43869047D01*
X-4783096Y-43973809D01*
X-4737143Y-44026190D01*
X-4645239Y-44078571D01*
X-4461429Y-44078571D01*
X-4369524Y-44026190D01*
X-4323572Y-43973809D01*
X-4277620Y-43869047D01*
X-51171429Y-21492857D02*
X-50028572Y-21492857D01*
X-50885715Y-23404761D02*
X-51600000Y-23404761D01*
X-51671429Y-24357142D01*
X-51600000Y-24261904D01*
X-51457143Y-24166666D01*
X-51100000Y-24166666D01*
X-50957143Y-24261904D01*
X-50885715Y-24357142D01*
X-50814286Y-24547619D01*
X-50814286Y-25023809D01*
X-50885715Y-25214285D01*
X-50957143Y-25309523D01*
X-51100000Y-25404761D01*
X-51457143Y-25404761D01*
X-51600000Y-25309523D01*
X-51671429Y-25214285D01*
X-50385715Y-23404761D02*
X-49885715Y-25404761D01*
X-49385715Y-23404761D01*
X-51171429Y-27792857D02*
X-50028572Y-27792857D01*
X-50600000Y-28554761D02*
X-50600000Y-27030952D01*
X-58872620Y-9927380D02*
X-59348810Y-10260714D01*
X-58872620Y-10498809D02*
X-59872620Y-10498809D01*
X-59872620Y-10117857D01*
X-59825000Y-10022619D01*
X-59777381Y-9975000D01*
X-59682143Y-9927380D01*
X-59539286Y-9927380D01*
X-59444048Y-9975000D01*
X-59396429Y-10022619D01*
X-59348810Y-10117857D01*
X-59348810Y-10498809D01*
X-58872620Y-9498809D02*
X-59872620Y-9498809D01*
X-59872620Y-9117857D01*
X-59825000Y-9022619D01*
X-59777381Y-8975000D01*
X-59682143Y-8927380D01*
X-59539286Y-8927380D01*
X-59444048Y-8975000D01*
X-59396429Y-9022619D01*
X-59348810Y-9117857D01*
X-59348810Y-9498809D01*
X-58872620Y-8498809D02*
X-59872620Y-8498809D01*
X-59825000Y-6736904D02*
X-59872620Y-6832142D01*
X-59872620Y-6975000D01*
X-59825000Y-7117857D01*
X-59729762Y-7213095D01*
X-59634524Y-7260714D01*
X-59444048Y-7308333D01*
X-59301191Y-7308333D01*
X-59110715Y-7260714D01*
X-59015477Y-7213095D01*
X-58920239Y-7117857D01*
X-58872620Y-6975000D01*
X-58872620Y-6879761D01*
X-58920239Y-6736904D01*
X-58967858Y-6689285D01*
X-59301191Y-6689285D01*
X-59301191Y-6879761D01*
X-58872620Y-6260714D02*
X-59872620Y-6260714D01*
X-59872620Y-5879761D01*
X-59825000Y-5784523D01*
X-59777381Y-5736904D01*
X-59682143Y-5689285D01*
X-59539286Y-5689285D01*
X-59444048Y-5736904D01*
X-59396429Y-5784523D01*
X-59348810Y-5879761D01*
X-59348810Y-6260714D01*
X-58872620Y-5260714D02*
X-59872620Y-5260714D01*
X-59872620Y-4594047D02*
X-59872620Y-4403571D01*
X-59825000Y-4308333D01*
X-59729762Y-4213095D01*
X-59539286Y-4165476D01*
X-59205953Y-4165476D01*
X-59015477Y-4213095D01*
X-58920239Y-4308333D01*
X-58872620Y-4403571D01*
X-58872620Y-4594047D01*
X-58920239Y-4689285D01*
X-59015477Y-4784523D01*
X-59205953Y-4832142D01*
X-59539286Y-4832142D01*
X-59729762Y-4784523D01*
X-59825000Y-4689285D01*
X-59872620Y-4594047D01*
X-57746429Y-10308333D02*
X-57746429Y-9975000D01*
X-57222620Y-9832142D02*
X-57222620Y-10308333D01*
X-58222620Y-10308333D01*
X-58222620Y-9832142D01*
X-57222620Y-9498809D02*
X-57889286Y-8975000D01*
X-57889286Y-9498809D02*
X-57222620Y-8975000D01*
X-57889286Y-8736904D02*
X-57889286Y-8355952D01*
X-58222620Y-8594047D02*
X-57365477Y-8594047D01*
X-57270239Y-8546428D01*
X-57222620Y-8451190D01*
X-57222620Y-8355952D01*
X-57270239Y-7641666D02*
X-57222620Y-7736904D01*
X-57222620Y-7927380D01*
X-57270239Y-8022619D01*
X-57365477Y-8070238D01*
X-57746429Y-8070238D01*
X-57841667Y-8022619D01*
X-57889286Y-7927380D01*
X-57889286Y-7736904D01*
X-57841667Y-7641666D01*
X-57746429Y-7594047D01*
X-57651191Y-7594047D01*
X-57555953Y-8070238D01*
X-57889286Y-7165476D02*
X-57222620Y-7165476D01*
X-57794048Y-7165476D02*
X-57841667Y-7117857D01*
X-57889286Y-7022619D01*
X-57889286Y-6879761D01*
X-57841667Y-6784523D01*
X-57746429Y-6736904D01*
X-57222620Y-6736904D01*
X-57270239Y-6308333D02*
X-57222620Y-6213095D01*
X-57222620Y-6022619D01*
X-57270239Y-5927380D01*
X-57365477Y-5879761D01*
X-57413096Y-5879761D01*
X-57508334Y-5927380D01*
X-57555953Y-6022619D01*
X-57555953Y-6165476D01*
X-57603572Y-6260714D01*
X-57698810Y-6308333D01*
X-57746429Y-6308333D01*
X-57841667Y-6260714D01*
X-57889286Y-6165476D01*
X-57889286Y-6022619D01*
X-57841667Y-5927380D01*
X-57222620Y-5451190D02*
X-57889286Y-5451190D01*
X-58222620Y-5451190D02*
X-58175000Y-5498809D01*
X-58127381Y-5451190D01*
X-58175000Y-5403571D01*
X-58222620Y-5451190D01*
X-58127381Y-5451190D01*
X-57222620Y-4832142D02*
X-57270239Y-4927380D01*
X-57317858Y-4975000D01*
X-57413096Y-5022619D01*
X-57698810Y-5022619D01*
X-57794048Y-4975000D01*
X-57841667Y-4927380D01*
X-57889286Y-4832142D01*
X-57889286Y-4689285D01*
X-57841667Y-4594047D01*
X-57794048Y-4546428D01*
X-57698810Y-4498809D01*
X-57413096Y-4498809D01*
X-57317858Y-4546428D01*
X-57270239Y-4594047D01*
X-57222620Y-4689285D01*
X-57222620Y-4832142D01*
X-57889286Y-4070238D02*
X-57222620Y-4070238D01*
X-57794048Y-4070238D02*
X-57841667Y-4022619D01*
X-57889286Y-3927380D01*
X-57889286Y-3784523D01*
X-57841667Y-3689285D01*
X-57746429Y-3641666D01*
X-57222620Y-3641666D01*
D12*
G04 #@! TO.C,R15*
X-761252Y-40890000D02*
X-238748Y-40890000D01*
X-761252Y-42310000D02*
X-238748Y-42310000D01*
G04 #@! TO.C,R14*
X-36238748Y-26110000D02*
X-36761252Y-26110000D01*
X-36238748Y-24690000D02*
X-36761252Y-24690000D01*
G04 #@! TO.C,R13*
X-761252Y-43390000D02*
X-238748Y-43390000D01*
X-761252Y-44810000D02*
X-238748Y-44810000D01*
G04 #@! TO.C,Q2*
X-1260000Y-36520000D02*
X-1260000Y-37450000D01*
X-1260000Y-39680000D02*
X-1260000Y-38750000D01*
X-1260000Y-39680000D02*
X900000Y-39680000D01*
X-1260000Y-36520000D02*
X200000Y-36520000D01*
G04 #@! TO.C,JP1*
X-1400000Y-28800000D02*
X1400000Y-28800000D01*
X1400000Y-28800000D02*
X1400000Y-30800000D01*
X1400000Y-30800000D02*
X-1400000Y-30800000D01*
X-1400000Y-30800000D02*
X-1400000Y-28800000D01*
G04 #@! TO.C,R17*
X-20788748Y-27065000D02*
X-21311252Y-27065000D01*
X-20788748Y-28485000D02*
X-21311252Y-28485000D01*
G04 #@! TO.C,R16*
X-20763748Y-24465000D02*
X-21286252Y-24465000D01*
X-20763748Y-25885000D02*
X-21286252Y-25885000D01*
G04 #@! TO.C,R12*
X-4863748Y-24640000D02*
X-5386252Y-24640000D01*
X-4863748Y-26060000D02*
X-5386252Y-26060000D01*
G04 #@! TO.C,Q1*
X-35765000Y-30505000D02*
X-37225000Y-30505000D01*
X-35765000Y-27345000D02*
X-37925000Y-27345000D01*
X-35765000Y-27345000D02*
X-35765000Y-28275000D01*
X-35765000Y-30505000D02*
X-35765000Y-29575000D01*
G04 #@! TO.C,D2*
X-200000Y-22175000D02*
X400000Y-22175000D01*
X-220000Y-23775000D02*
X380000Y-23775000D01*
G04 #@! TO.C,D1*
X-200000Y-24575000D02*
X400000Y-24575000D01*
X-220000Y-26175000D02*
X380000Y-26175000D01*
G04 #@! TO.C,J3*
X-3610000Y-10630000D02*
X-3610000Y-5430000D01*
X-51930000Y-10630000D02*
X-3610000Y-10630000D01*
X-54530000Y-5430000D02*
X-3610000Y-5430000D01*
X-51930000Y-10630000D02*
X-51930000Y-8030000D01*
X-51930000Y-8030000D02*
X-54530000Y-8030000D01*
X-54530000Y-8030000D02*
X-54530000Y-5430000D01*
X-53200000Y-10630000D02*
X-54530000Y-10630000D01*
X-54530000Y-10630000D02*
X-54530000Y-9300000D01*
G04 #@! TO.C,J4*
X-3710000Y-50330000D02*
X-3710000Y-45130000D01*
X-52030000Y-50330000D02*
X-3710000Y-50330000D01*
X-54630000Y-45130000D02*
X-3710000Y-45130000D01*
X-52030000Y-50330000D02*
X-52030000Y-47730000D01*
X-52030000Y-47730000D02*
X-54630000Y-47730000D01*
X-54630000Y-47730000D02*
X-54630000Y-45130000D01*
X-53300000Y-50330000D02*
X-54630000Y-50330000D01*
X-54630000Y-50330000D02*
X-54630000Y-49000000D01*
D10*
G04 #@! TO.C,U2*
X-26375000Y-19775000D02*
X-26375000Y-19800000D01*
X-26375000Y-27825000D02*
X-26375000Y-27800000D01*
X-31025000Y-27825000D02*
X-31025000Y-27800000D01*
X-32100000Y-19725000D02*
X-26375000Y-19725000D01*
X-31025000Y-27825000D02*
X-26375000Y-27825000D01*
G04 #@! TO.C,U3*
X-11375000Y-19775000D02*
X-11375000Y-19800000D01*
X-11375000Y-27825000D02*
X-11375000Y-27800000D01*
X-16025000Y-27825000D02*
X-16025000Y-27800000D01*
X-17100000Y-19725000D02*
X-11375000Y-19725000D01*
X-16025000Y-27825000D02*
X-11375000Y-27825000D01*
G04 #@! TO.C,U1*
X-41375000Y-19775000D02*
X-41375000Y-19800000D01*
X-41375000Y-27825000D02*
X-41375000Y-27800000D01*
X-46025000Y-27825000D02*
X-46025000Y-27800000D01*
X-47100000Y-19725000D02*
X-41375000Y-19725000D01*
X-46025000Y-27825000D02*
X-41375000Y-27825000D01*
D12*
G04 #@! TO.C,R28*
X-20660000Y-39161252D02*
X-20660000Y-38638748D01*
X-19240000Y-39161252D02*
X-19240000Y-38638748D01*
G04 #@! TO.C,R11*
X-40110000Y-39161252D02*
X-40110000Y-38638748D01*
X-38690000Y-39161252D02*
X-38690000Y-38638748D01*
G04 #@! TO.C,R27*
X-24160000Y-39161252D02*
X-24160000Y-38638748D01*
X-22740000Y-39161252D02*
X-22740000Y-38638748D01*
G04 #@! TO.C,R10*
X-43560000Y-39161252D02*
X-43560000Y-38638748D01*
X-42140000Y-39161252D02*
X-42140000Y-38638748D01*
G04 #@! TO.C,R37*
X-5460000Y-39161252D02*
X-5460000Y-38638748D01*
X-4040000Y-39161252D02*
X-4040000Y-38638748D01*
G04 #@! TO.C,R26*
X-27710000Y-39161252D02*
X-27710000Y-38638748D01*
X-26290000Y-39161252D02*
X-26290000Y-38638748D01*
G04 #@! TO.C,R9*
X-47060000Y-39161252D02*
X-47060000Y-38638748D01*
X-45640000Y-39161252D02*
X-45640000Y-38638748D01*
G04 #@! TO.C,R36*
X-9110000Y-39161252D02*
X-9110000Y-38638748D01*
X-7690000Y-39161252D02*
X-7690000Y-38638748D01*
G04 #@! TO.C,R25*
X-33210000Y-39161252D02*
X-33210000Y-38638748D01*
X-31790000Y-39161252D02*
X-31790000Y-38638748D01*
G04 #@! TO.C,R8*
X-52310000Y-39161252D02*
X-52310000Y-38638748D01*
X-50890000Y-39161252D02*
X-50890000Y-38638748D01*
G04 #@! TO.C,R35*
X-12810000Y-39161252D02*
X-12810000Y-38638748D01*
X-11390000Y-39161252D02*
X-11390000Y-38638748D01*
G04 #@! TO.C,R24*
X-36710000Y-39161252D02*
X-36710000Y-38638748D01*
X-35290000Y-39161252D02*
X-35290000Y-38638748D01*
G04 #@! TO.C,R7*
X-55810000Y-39161252D02*
X-55810000Y-38638748D01*
X-54390000Y-39161252D02*
X-54390000Y-38638748D01*
G04 #@! TO.C,R34*
X-17210000Y-39161252D02*
X-17210000Y-38638748D01*
X-15790000Y-39161252D02*
X-15790000Y-38638748D01*
G04 #@! TO.C,R23*
X-20660000Y-33411252D02*
X-20660000Y-32888748D01*
X-19240000Y-33411252D02*
X-19240000Y-32888748D01*
G04 #@! TO.C,R6*
X-47060000Y-33411252D02*
X-47060000Y-32888748D01*
X-45640000Y-33411252D02*
X-45640000Y-32888748D01*
G04 #@! TO.C,R33*
X-9110000Y-33411252D02*
X-9110000Y-32888748D01*
X-7690000Y-33411252D02*
X-7690000Y-32888748D01*
G04 #@! TO.C,R22*
X-27710000Y-33411252D02*
X-27710000Y-32888748D01*
X-26290000Y-33411252D02*
X-26290000Y-32888748D01*
G04 #@! TO.C,R5*
X-43560000Y-33361252D02*
X-43560000Y-32838748D01*
X-42140000Y-33361252D02*
X-42140000Y-32838748D01*
G04 #@! TO.C,R32*
X-5460000Y-33411252D02*
X-5460000Y-32888748D01*
X-4040000Y-33411252D02*
X-4040000Y-32888748D01*
G04 #@! TO.C,R21*
X-24160000Y-33411252D02*
X-24160000Y-32888748D01*
X-22740000Y-33411252D02*
X-22740000Y-32888748D01*
G04 #@! TO.C,R4*
X-40110000Y-33361252D02*
X-40110000Y-32838748D01*
X-38690000Y-33361252D02*
X-38690000Y-32838748D01*
G04 #@! TO.C,R29*
X-4813748Y-21235000D02*
X-5336252Y-21235000D01*
X-4813748Y-19815000D02*
X-5336252Y-19815000D01*
G04 #@! TO.C,R18*
X-20788748Y-21235000D02*
X-21311252Y-21235000D01*
X-20788748Y-19815000D02*
X-21311252Y-19815000D01*
G04 #@! TO.C,R1*
X-36138748Y-21235000D02*
X-36661252Y-21235000D01*
X-36138748Y-19815000D02*
X-36661252Y-19815000D01*
G04 #@! TO.C,R31*
X-12810000Y-33411252D02*
X-12810000Y-32888748D01*
X-11390000Y-33411252D02*
X-11390000Y-32888748D01*
G04 #@! TO.C,R20*
X-33210000Y-33411252D02*
X-33210000Y-32888748D01*
X-31790000Y-33411252D02*
X-31790000Y-32888748D01*
G04 #@! TO.C,R3*
X-52310000Y-33411252D02*
X-52310000Y-32888748D01*
X-50890000Y-33411252D02*
X-50890000Y-32888748D01*
G04 #@! TO.C,R30*
X-17210000Y-33411252D02*
X-17210000Y-32888748D01*
X-15790000Y-33411252D02*
X-15790000Y-32888748D01*
G04 #@! TO.C,R19*
X-36710000Y-33411252D02*
X-36710000Y-32888748D01*
X-35290000Y-33411252D02*
X-35290000Y-32888748D01*
G04 #@! TO.C,R2*
X-55810000Y-33411252D02*
X-55810000Y-32888748D01*
X-54390000Y-33411252D02*
X-54390000Y-32888748D01*
G04 #@! TO.C,J2*
X-54920000Y-22075000D02*
G75*
G03*
X-54920000Y-22075000I-1680000J0D01*
G01*
X-53150000Y-29635000D02*
X-53150000Y-19515000D01*
X-53750000Y-29635000D02*
X-53750000Y-19515000D01*
X-58650000Y-29635000D02*
X-58650000Y-19515000D01*
X-60710000Y-29635000D02*
X-60710000Y-19515000D01*
X-52490000Y-29635000D02*
X-52490000Y-19515000D01*
X-60710000Y-29635000D02*
X-52490000Y-29635000D01*
X-60710000Y-19515000D02*
X-52490000Y-19515000D01*
X-60650000Y-28325000D02*
X-60650000Y-25825000D01*
X-59650000Y-28325000D02*
X-59650000Y-25825000D01*
X-60650000Y-28325000D02*
X-59650000Y-28325000D01*
X-60650000Y-25825000D02*
X-59650000Y-25825000D01*
X-57669000Y-20800000D02*
X-57423000Y-21046000D01*
X-55525000Y-22945000D02*
X-55326000Y-23144000D01*
X-57875000Y-21005000D02*
X-57664000Y-21216000D01*
X-55777000Y-23103000D02*
X-55531000Y-23349000D01*
X-60650000Y-23325000D02*
X-60650000Y-20825000D01*
X-59650000Y-23325000D02*
X-59650000Y-20825000D01*
X-60650000Y-23325000D02*
X-59650000Y-23325000D01*
X-60650000Y-20825000D02*
X-59650000Y-20825000D01*
X-53090000Y-29875000D02*
X-52250000Y-29875000D01*
X-52250000Y-29875000D02*
X-52250000Y-29275000D01*
X-54919489Y-27046493D02*
G75*
G02*
X-55313000Y-28156000I-1680511J-28507D01*
G01*
X-55520266Y-28363063D02*
G75*
G02*
X-57681000Y-28362000I-1079734J1288063D01*
G01*
X-57887078Y-28154908D02*
G75*
G02*
X-57887000Y-25995000I1287078J1079908D01*
G01*
X-57679908Y-25787922D02*
G75*
G02*
X-55520000Y-25788000I1079908J-1287078D01*
G01*
X-55313045Y-25995117D02*
G75*
G02*
X-54920000Y-27075000I-1286955J-1079883D01*
G01*
G04 #@! TO.C,C3*
X-5336252Y-22240000D02*
X-4813748Y-22240000D01*
X-5336252Y-23660000D02*
X-4813748Y-23660000D01*
G04 #@! TO.C,C2*
X-21311252Y-22240000D02*
X-20788748Y-22240000D01*
X-21311252Y-23660000D02*
X-20788748Y-23660000D01*
G04 #@! TO.C,C1*
X-36661252Y-22240000D02*
X-36138748Y-22240000D01*
X-36661252Y-23660000D02*
X-36138748Y-23660000D01*
G04 #@! TO.C,R15*
D10*
X-2647620Y-42342857D02*
X-3123810Y-42676190D01*
X-2647620Y-42914285D02*
X-3647620Y-42914285D01*
X-3647620Y-42533333D01*
X-3600000Y-42438095D01*
X-3552381Y-42390476D01*
X-3457143Y-42342857D01*
X-3314286Y-42342857D01*
X-3219048Y-42390476D01*
X-3171429Y-42438095D01*
X-3123810Y-42533333D01*
X-3123810Y-42914285D01*
X-2647620Y-41390476D02*
X-2647620Y-41961904D01*
X-2647620Y-41676190D02*
X-3647620Y-41676190D01*
X-3504762Y-41771428D01*
X-3409524Y-41866666D01*
X-3361905Y-41961904D01*
X-3647620Y-40485714D02*
X-3647620Y-40961904D01*
X-3171429Y-41009523D01*
X-3219048Y-40961904D01*
X-3266667Y-40866666D01*
X-3266667Y-40628571D01*
X-3219048Y-40533333D01*
X-3171429Y-40485714D01*
X-3076191Y-40438095D01*
X-2838096Y-40438095D01*
X-2742858Y-40485714D01*
X-2695239Y-40533333D01*
X-2647620Y-40628571D01*
X-2647620Y-40866666D01*
X-2695239Y-40961904D01*
X-2742858Y-41009523D01*
G04 #@! TO.C,R14*
X-33147620Y-26142857D02*
X-33623810Y-26476190D01*
X-33147620Y-26714285D02*
X-34147620Y-26714285D01*
X-34147620Y-26333333D01*
X-34100000Y-26238095D01*
X-34052381Y-26190476D01*
X-33957143Y-26142857D01*
X-33814286Y-26142857D01*
X-33719048Y-26190476D01*
X-33671429Y-26238095D01*
X-33623810Y-26333333D01*
X-33623810Y-26714285D01*
X-33147620Y-25190476D02*
X-33147620Y-25761904D01*
X-33147620Y-25476190D02*
X-34147620Y-25476190D01*
X-34004762Y-25571428D01*
X-33909524Y-25666666D01*
X-33861905Y-25761904D01*
X-33814286Y-24333333D02*
X-33147620Y-24333333D01*
X-34195239Y-24571428D02*
X-33480953Y-24809523D01*
X-33480953Y-24190476D01*
G04 #@! TO.C,R13*
X-1142858Y-46552380D02*
X-1476191Y-46076190D01*
X-1714286Y-46552380D02*
X-1714286Y-45552380D01*
X-1333334Y-45552380D01*
X-1238096Y-45600000D01*
X-1190477Y-45647619D01*
X-1142858Y-45742857D01*
X-1142858Y-45885714D01*
X-1190477Y-45980952D01*
X-1238096Y-46028571D01*
X-1333334Y-46076190D01*
X-1714286Y-46076190D01*
X-190477Y-46552380D02*
X-761905Y-46552380D01*
X-476191Y-46552380D02*
X-476191Y-45552380D01*
X-571429Y-45695238D01*
X-666667Y-45790476D01*
X-761905Y-45838095D01*
X142857Y-45552380D02*
X761904Y-45552380D01*
X428571Y-45933333D01*
X571428Y-45933333D01*
X666666Y-45980952D01*
X714285Y-46028571D01*
X761904Y-46123809D01*
X761904Y-46361904D01*
X714285Y-46457142D01*
X666666Y-46504761D01*
X571428Y-46552380D01*
X285714Y-46552380D01*
X190476Y-46504761D01*
X142857Y-46457142D01*
G04 #@! TO.C,Q2*
X-2452381Y-38195238D02*
X-2500000Y-38290476D01*
X-2595239Y-38385714D01*
X-2738096Y-38528571D01*
X-2785715Y-38623809D01*
X-2785715Y-38719047D01*
X-2547620Y-38671428D02*
X-2595239Y-38766666D01*
X-2690477Y-38861904D01*
X-2880953Y-38909523D01*
X-3214286Y-38909523D01*
X-3404762Y-38861904D01*
X-3500000Y-38766666D01*
X-3547620Y-38671428D01*
X-3547620Y-38480952D01*
X-3500000Y-38385714D01*
X-3404762Y-38290476D01*
X-3214286Y-38242857D01*
X-2880953Y-38242857D01*
X-2690477Y-38290476D01*
X-2595239Y-38385714D01*
X-2547620Y-38480952D01*
X-2547620Y-38671428D01*
X-3452381Y-37861904D02*
X-3500000Y-37814285D01*
X-3547620Y-37719047D01*
X-3547620Y-37480952D01*
X-3500000Y-37385714D01*
X-3452381Y-37338095D01*
X-3357143Y-37290476D01*
X-3261905Y-37290476D01*
X-3119048Y-37338095D01*
X-2547620Y-37909523D01*
X-2547620Y-37290476D01*
G04 #@! TO.C,JP1*
X-833334Y-31352380D02*
X-833334Y-32066666D01*
X-880953Y-32209523D01*
X-976191Y-32304761D01*
X-1119048Y-32352380D01*
X-1214286Y-32352380D01*
X-357143Y-32352380D02*
X-357143Y-31352380D01*
X23809Y-31352380D01*
X119047Y-31400000D01*
X166666Y-31447619D01*
X214285Y-31542857D01*
X214285Y-31685714D01*
X166666Y-31780952D01*
X119047Y-31828571D01*
X23809Y-31876190D01*
X-357143Y-31876190D01*
X1166666Y-32352380D02*
X595238Y-32352380D01*
X880952Y-32352380D02*
X880952Y-31352380D01*
X785714Y-31495238D01*
X690476Y-31590476D01*
X595238Y-31638095D01*
G04 #@! TO.C,R17*
X-23197620Y-28442857D02*
X-23673810Y-28776190D01*
X-23197620Y-29014285D02*
X-24197620Y-29014285D01*
X-24197620Y-28633333D01*
X-24150000Y-28538095D01*
X-24102381Y-28490476D01*
X-24007143Y-28442857D01*
X-23864286Y-28442857D01*
X-23769048Y-28490476D01*
X-23721429Y-28538095D01*
X-23673810Y-28633333D01*
X-23673810Y-29014285D01*
X-23197620Y-27490476D02*
X-23197620Y-28061904D01*
X-23197620Y-27776190D02*
X-24197620Y-27776190D01*
X-24054762Y-27871428D01*
X-23959524Y-27966666D01*
X-23911905Y-28061904D01*
X-24197620Y-27157142D02*
X-24197620Y-26490476D01*
X-23197620Y-26919047D01*
G04 #@! TO.C,R16*
X-17822620Y-25942857D02*
X-18298810Y-26276190D01*
X-17822620Y-26514285D02*
X-18822620Y-26514285D01*
X-18822620Y-26133333D01*
X-18775000Y-26038095D01*
X-18727381Y-25990476D01*
X-18632143Y-25942857D01*
X-18489286Y-25942857D01*
X-18394048Y-25990476D01*
X-18346429Y-26038095D01*
X-18298810Y-26133333D01*
X-18298810Y-26514285D01*
X-17822620Y-24990476D02*
X-17822620Y-25561904D01*
X-17822620Y-25276190D02*
X-18822620Y-25276190D01*
X-18679762Y-25371428D01*
X-18584524Y-25466666D01*
X-18536905Y-25561904D01*
X-18822620Y-24133333D02*
X-18822620Y-24323809D01*
X-18775000Y-24419047D01*
X-18727381Y-24466666D01*
X-18584524Y-24561904D01*
X-18394048Y-24609523D01*
X-18013096Y-24609523D01*
X-17917858Y-24561904D01*
X-17870239Y-24514285D01*
X-17822620Y-24419047D01*
X-17822620Y-24228571D01*
X-17870239Y-24133333D01*
X-17917858Y-24085714D01*
X-18013096Y-24038095D01*
X-18251191Y-24038095D01*
X-18346429Y-24085714D01*
X-18394048Y-24133333D01*
X-18441667Y-24228571D01*
X-18441667Y-24419047D01*
X-18394048Y-24514285D01*
X-18346429Y-24561904D01*
X-18251191Y-24609523D01*
G04 #@! TO.C,R12*
X-7297620Y-26642857D02*
X-7773810Y-26976190D01*
X-7297620Y-27214285D02*
X-8297620Y-27214285D01*
X-8297620Y-26833333D01*
X-8250000Y-26738095D01*
X-8202381Y-26690476D01*
X-8107143Y-26642857D01*
X-7964286Y-26642857D01*
X-7869048Y-26690476D01*
X-7821429Y-26738095D01*
X-7773810Y-26833333D01*
X-7773810Y-27214285D01*
X-7297620Y-25690476D02*
X-7297620Y-26261904D01*
X-7297620Y-25976190D02*
X-8297620Y-25976190D01*
X-8154762Y-26071428D01*
X-8059524Y-26166666D01*
X-8011905Y-26261904D01*
X-8202381Y-25309523D02*
X-8250000Y-25261904D01*
X-8297620Y-25166666D01*
X-8297620Y-24928571D01*
X-8250000Y-24833333D01*
X-8202381Y-24785714D01*
X-8107143Y-24738095D01*
X-8011905Y-24738095D01*
X-7869048Y-24785714D01*
X-7297620Y-25357142D01*
X-7297620Y-24738095D01*
G04 #@! TO.C,Q1*
X-33102381Y-28920238D02*
X-33150000Y-29015476D01*
X-33245239Y-29110714D01*
X-33388096Y-29253571D01*
X-33435715Y-29348809D01*
X-33435715Y-29444047D01*
X-33197620Y-29396428D02*
X-33245239Y-29491666D01*
X-33340477Y-29586904D01*
X-33530953Y-29634523D01*
X-33864286Y-29634523D01*
X-34054762Y-29586904D01*
X-34150000Y-29491666D01*
X-34197620Y-29396428D01*
X-34197620Y-29205952D01*
X-34150000Y-29110714D01*
X-34054762Y-29015476D01*
X-33864286Y-28967857D01*
X-33530953Y-28967857D01*
X-33340477Y-29015476D01*
X-33245239Y-29110714D01*
X-33197620Y-29205952D01*
X-33197620Y-29396428D01*
X-33197620Y-28015476D02*
X-33197620Y-28586904D01*
X-33197620Y-28301190D02*
X-34197620Y-28301190D01*
X-34054762Y-28396428D01*
X-33959524Y-28491666D01*
X-33911905Y-28586904D01*
G04 #@! TO.C,D2*
X-1972620Y-23713095D02*
X-2972620Y-23713095D01*
X-2972620Y-23475000D01*
X-2925000Y-23332142D01*
X-2829762Y-23236904D01*
X-2734524Y-23189285D01*
X-2544048Y-23141666D01*
X-2401191Y-23141666D01*
X-2210715Y-23189285D01*
X-2115477Y-23236904D01*
X-2020239Y-23332142D01*
X-1972620Y-23475000D01*
X-1972620Y-23713095D01*
X-2877381Y-22760714D02*
X-2925000Y-22713095D01*
X-2972620Y-22617857D01*
X-2972620Y-22379761D01*
X-2925000Y-22284523D01*
X-2877381Y-22236904D01*
X-2782143Y-22189285D01*
X-2686905Y-22189285D01*
X-2544048Y-22236904D01*
X-1972620Y-22808333D01*
X-1972620Y-22189285D01*
G04 #@! TO.C,D1*
X-2047620Y-26063095D02*
X-3047620Y-26063095D01*
X-3047620Y-25825000D01*
X-3000000Y-25682142D01*
X-2904762Y-25586904D01*
X-2809524Y-25539285D01*
X-2619048Y-25491666D01*
X-2476191Y-25491666D01*
X-2285715Y-25539285D01*
X-2190477Y-25586904D01*
X-2095239Y-25682142D01*
X-2047620Y-25825000D01*
X-2047620Y-26063095D01*
X-2047620Y-24539285D02*
X-2047620Y-25110714D01*
X-2047620Y-24825000D02*
X-3047620Y-24825000D01*
X-2904762Y-24920238D01*
X-2809524Y-25015476D01*
X-2761905Y-25110714D01*
G04 #@! TO.C,J3*
X-56297620Y-7133333D02*
X-55583334Y-7133333D01*
X-55440477Y-7180952D01*
X-55345239Y-7276190D01*
X-55297620Y-7419047D01*
X-55297620Y-7514285D01*
X-56297620Y-6752380D02*
X-56297620Y-6133333D01*
X-55916667Y-6466666D01*
X-55916667Y-6323809D01*
X-55869048Y-6228571D01*
X-55821429Y-6180952D01*
X-55726191Y-6133333D01*
X-55488096Y-6133333D01*
X-55392858Y-6180952D01*
X-55345239Y-6228571D01*
X-55297620Y-6323809D01*
X-55297620Y-6609523D01*
X-55345239Y-6704761D01*
X-55392858Y-6752380D01*
G04 #@! TO.C,J4*
X-56722620Y-46683333D02*
X-56008334Y-46683333D01*
X-55865477Y-46730952D01*
X-55770239Y-46826190D01*
X-55722620Y-46969047D01*
X-55722620Y-47064285D01*
X-56389286Y-45778571D02*
X-55722620Y-45778571D01*
X-56770239Y-46016666D02*
X-56055953Y-46254761D01*
X-56055953Y-45635714D01*
G04 #@! TO.C,U2*
X-32061905Y-28352380D02*
X-32061905Y-29161904D01*
X-32014286Y-29257142D01*
X-31966667Y-29304761D01*
X-31871429Y-29352380D01*
X-31680953Y-29352380D01*
X-31585715Y-29304761D01*
X-31538096Y-29257142D01*
X-31490477Y-29161904D01*
X-31490477Y-28352380D01*
X-31061905Y-28447619D02*
X-31014286Y-28400000D01*
X-30919048Y-28352380D01*
X-30680953Y-28352380D01*
X-30585715Y-28400000D01*
X-30538096Y-28447619D01*
X-30490477Y-28542857D01*
X-30490477Y-28638095D01*
X-30538096Y-28780952D01*
X-31109524Y-29352380D01*
X-30490477Y-29352380D01*
G04 #@! TO.C,U3*
X-17161905Y-28252380D02*
X-17161905Y-29061904D01*
X-17114286Y-29157142D01*
X-17066667Y-29204761D01*
X-16971429Y-29252380D01*
X-16780953Y-29252380D01*
X-16685715Y-29204761D01*
X-16638096Y-29157142D01*
X-16590477Y-29061904D01*
X-16590477Y-28252380D01*
X-16209524Y-28252380D02*
X-15590477Y-28252380D01*
X-15923810Y-28633333D01*
X-15780953Y-28633333D01*
X-15685715Y-28680952D01*
X-15638096Y-28728571D01*
X-15590477Y-28823809D01*
X-15590477Y-29061904D01*
X-15638096Y-29157142D01*
X-15685715Y-29204761D01*
X-15780953Y-29252380D01*
X-16066667Y-29252380D01*
X-16161905Y-29204761D01*
X-16209524Y-29157142D01*
G04 #@! TO.C,U1*
X-46961905Y-28252380D02*
X-46961905Y-29061904D01*
X-46914286Y-29157142D01*
X-46866667Y-29204761D01*
X-46771429Y-29252380D01*
X-46580953Y-29252380D01*
X-46485715Y-29204761D01*
X-46438096Y-29157142D01*
X-46390477Y-29061904D01*
X-46390477Y-28252380D01*
X-45390477Y-29252380D02*
X-45961905Y-29252380D01*
X-45676191Y-29252380D02*
X-45676191Y-28252380D01*
X-45771429Y-28395238D01*
X-45866667Y-28490476D01*
X-45961905Y-28538095D01*
G04 #@! TO.C,R28*
X-21147620Y-39542857D02*
X-21623810Y-39876190D01*
X-21147620Y-40114285D02*
X-22147620Y-40114285D01*
X-22147620Y-39733333D01*
X-22100000Y-39638095D01*
X-22052381Y-39590476D01*
X-21957143Y-39542857D01*
X-21814286Y-39542857D01*
X-21719048Y-39590476D01*
X-21671429Y-39638095D01*
X-21623810Y-39733333D01*
X-21623810Y-40114285D01*
X-22052381Y-39161904D02*
X-22100000Y-39114285D01*
X-22147620Y-39019047D01*
X-22147620Y-38780952D01*
X-22100000Y-38685714D01*
X-22052381Y-38638095D01*
X-21957143Y-38590476D01*
X-21861905Y-38590476D01*
X-21719048Y-38638095D01*
X-21147620Y-39209523D01*
X-21147620Y-38590476D01*
X-21719048Y-38019047D02*
X-21766667Y-38114285D01*
X-21814286Y-38161904D01*
X-21909524Y-38209523D01*
X-21957143Y-38209523D01*
X-22052381Y-38161904D01*
X-22100000Y-38114285D01*
X-22147620Y-38019047D01*
X-22147620Y-37828571D01*
X-22100000Y-37733333D01*
X-22052381Y-37685714D01*
X-21957143Y-37638095D01*
X-21909524Y-37638095D01*
X-21814286Y-37685714D01*
X-21766667Y-37733333D01*
X-21719048Y-37828571D01*
X-21719048Y-38019047D01*
X-21671429Y-38114285D01*
X-21623810Y-38161904D01*
X-21528572Y-38209523D01*
X-21338096Y-38209523D01*
X-21242858Y-38161904D01*
X-21195239Y-38114285D01*
X-21147620Y-38019047D01*
X-21147620Y-37828571D01*
X-21195239Y-37733333D01*
X-21242858Y-37685714D01*
X-21338096Y-37638095D01*
X-21528572Y-37638095D01*
X-21623810Y-37685714D01*
X-21671429Y-37733333D01*
X-21719048Y-37828571D01*
G04 #@! TO.C,R11*
X-40597620Y-39542857D02*
X-41073810Y-39876190D01*
X-40597620Y-40114285D02*
X-41597620Y-40114285D01*
X-41597620Y-39733333D01*
X-41550000Y-39638095D01*
X-41502381Y-39590476D01*
X-41407143Y-39542857D01*
X-41264286Y-39542857D01*
X-41169048Y-39590476D01*
X-41121429Y-39638095D01*
X-41073810Y-39733333D01*
X-41073810Y-40114285D01*
X-40597620Y-38590476D02*
X-40597620Y-39161904D01*
X-40597620Y-38876190D02*
X-41597620Y-38876190D01*
X-41454762Y-38971428D01*
X-41359524Y-39066666D01*
X-41311905Y-39161904D01*
X-40597620Y-37638095D02*
X-40597620Y-38209523D01*
X-40597620Y-37923809D02*
X-41597620Y-37923809D01*
X-41454762Y-38019047D01*
X-41359524Y-38114285D01*
X-41311905Y-38209523D01*
G04 #@! TO.C,R27*
X-24647620Y-39542857D02*
X-25123810Y-39876190D01*
X-24647620Y-40114285D02*
X-25647620Y-40114285D01*
X-25647620Y-39733333D01*
X-25600000Y-39638095D01*
X-25552381Y-39590476D01*
X-25457143Y-39542857D01*
X-25314286Y-39542857D01*
X-25219048Y-39590476D01*
X-25171429Y-39638095D01*
X-25123810Y-39733333D01*
X-25123810Y-40114285D01*
X-25552381Y-39161904D02*
X-25600000Y-39114285D01*
X-25647620Y-39019047D01*
X-25647620Y-38780952D01*
X-25600000Y-38685714D01*
X-25552381Y-38638095D01*
X-25457143Y-38590476D01*
X-25361905Y-38590476D01*
X-25219048Y-38638095D01*
X-24647620Y-39209523D01*
X-24647620Y-38590476D01*
X-25647620Y-38257142D02*
X-25647620Y-37590476D01*
X-24647620Y-38019047D01*
G04 #@! TO.C,R10*
X-44047620Y-39542857D02*
X-44523810Y-39876190D01*
X-44047620Y-40114285D02*
X-45047620Y-40114285D01*
X-45047620Y-39733333D01*
X-45000000Y-39638095D01*
X-44952381Y-39590476D01*
X-44857143Y-39542857D01*
X-44714286Y-39542857D01*
X-44619048Y-39590476D01*
X-44571429Y-39638095D01*
X-44523810Y-39733333D01*
X-44523810Y-40114285D01*
X-44047620Y-38590476D02*
X-44047620Y-39161904D01*
X-44047620Y-38876190D02*
X-45047620Y-38876190D01*
X-44904762Y-38971428D01*
X-44809524Y-39066666D01*
X-44761905Y-39161904D01*
X-45047620Y-37971428D02*
X-45047620Y-37876190D01*
X-45000000Y-37780952D01*
X-44952381Y-37733333D01*
X-44857143Y-37685714D01*
X-44666667Y-37638095D01*
X-44428572Y-37638095D01*
X-44238096Y-37685714D01*
X-44142858Y-37733333D01*
X-44095239Y-37780952D01*
X-44047620Y-37876190D01*
X-44047620Y-37971428D01*
X-44095239Y-38066666D01*
X-44142858Y-38114285D01*
X-44238096Y-38161904D01*
X-44428572Y-38209523D01*
X-44666667Y-38209523D01*
X-44857143Y-38161904D01*
X-44952381Y-38114285D01*
X-45000000Y-38066666D01*
X-45047620Y-37971428D01*
G04 #@! TO.C,R37*
X-5947620Y-39542857D02*
X-6423810Y-39876190D01*
X-5947620Y-40114285D02*
X-6947620Y-40114285D01*
X-6947620Y-39733333D01*
X-6900000Y-39638095D01*
X-6852381Y-39590476D01*
X-6757143Y-39542857D01*
X-6614286Y-39542857D01*
X-6519048Y-39590476D01*
X-6471429Y-39638095D01*
X-6423810Y-39733333D01*
X-6423810Y-40114285D01*
X-6947620Y-39209523D02*
X-6947620Y-38590476D01*
X-6566667Y-38923809D01*
X-6566667Y-38780952D01*
X-6519048Y-38685714D01*
X-6471429Y-38638095D01*
X-6376191Y-38590476D01*
X-6138096Y-38590476D01*
X-6042858Y-38638095D01*
X-5995239Y-38685714D01*
X-5947620Y-38780952D01*
X-5947620Y-39066666D01*
X-5995239Y-39161904D01*
X-6042858Y-39209523D01*
X-6947620Y-38257142D02*
X-6947620Y-37590476D01*
X-5947620Y-38019047D01*
G04 #@! TO.C,R26*
X-28197620Y-39542857D02*
X-28673810Y-39876190D01*
X-28197620Y-40114285D02*
X-29197620Y-40114285D01*
X-29197620Y-39733333D01*
X-29150000Y-39638095D01*
X-29102381Y-39590476D01*
X-29007143Y-39542857D01*
X-28864286Y-39542857D01*
X-28769048Y-39590476D01*
X-28721429Y-39638095D01*
X-28673810Y-39733333D01*
X-28673810Y-40114285D01*
X-29102381Y-39161904D02*
X-29150000Y-39114285D01*
X-29197620Y-39019047D01*
X-29197620Y-38780952D01*
X-29150000Y-38685714D01*
X-29102381Y-38638095D01*
X-29007143Y-38590476D01*
X-28911905Y-38590476D01*
X-28769048Y-38638095D01*
X-28197620Y-39209523D01*
X-28197620Y-38590476D01*
X-29197620Y-37733333D02*
X-29197620Y-37923809D01*
X-29150000Y-38019047D01*
X-29102381Y-38066666D01*
X-28959524Y-38161904D01*
X-28769048Y-38209523D01*
X-28388096Y-38209523D01*
X-28292858Y-38161904D01*
X-28245239Y-38114285D01*
X-28197620Y-38019047D01*
X-28197620Y-37828571D01*
X-28245239Y-37733333D01*
X-28292858Y-37685714D01*
X-28388096Y-37638095D01*
X-28626191Y-37638095D01*
X-28721429Y-37685714D01*
X-28769048Y-37733333D01*
X-28816667Y-37828571D01*
X-28816667Y-38019047D01*
X-28769048Y-38114285D01*
X-28721429Y-38161904D01*
X-28626191Y-38209523D01*
G04 #@! TO.C,R9*
X-47547620Y-39066666D02*
X-48023810Y-39400000D01*
X-47547620Y-39638095D02*
X-48547620Y-39638095D01*
X-48547620Y-39257142D01*
X-48500000Y-39161904D01*
X-48452381Y-39114285D01*
X-48357143Y-39066666D01*
X-48214286Y-39066666D01*
X-48119048Y-39114285D01*
X-48071429Y-39161904D01*
X-48023810Y-39257142D01*
X-48023810Y-39638095D01*
X-47547620Y-38590476D02*
X-47547620Y-38400000D01*
X-47595239Y-38304761D01*
X-47642858Y-38257142D01*
X-47785715Y-38161904D01*
X-47976191Y-38114285D01*
X-48357143Y-38114285D01*
X-48452381Y-38161904D01*
X-48500000Y-38209523D01*
X-48547620Y-38304761D01*
X-48547620Y-38495238D01*
X-48500000Y-38590476D01*
X-48452381Y-38638095D01*
X-48357143Y-38685714D01*
X-48119048Y-38685714D01*
X-48023810Y-38638095D01*
X-47976191Y-38590476D01*
X-47928572Y-38495238D01*
X-47928572Y-38304761D01*
X-47976191Y-38209523D01*
X-48023810Y-38161904D01*
X-48119048Y-38114285D01*
G04 #@! TO.C,R36*
X-9597620Y-39542857D02*
X-10073810Y-39876190D01*
X-9597620Y-40114285D02*
X-10597620Y-40114285D01*
X-10597620Y-39733333D01*
X-10550000Y-39638095D01*
X-10502381Y-39590476D01*
X-10407143Y-39542857D01*
X-10264286Y-39542857D01*
X-10169048Y-39590476D01*
X-10121429Y-39638095D01*
X-10073810Y-39733333D01*
X-10073810Y-40114285D01*
X-10597620Y-39209523D02*
X-10597620Y-38590476D01*
X-10216667Y-38923809D01*
X-10216667Y-38780952D01*
X-10169048Y-38685714D01*
X-10121429Y-38638095D01*
X-10026191Y-38590476D01*
X-9788096Y-38590476D01*
X-9692858Y-38638095D01*
X-9645239Y-38685714D01*
X-9597620Y-38780952D01*
X-9597620Y-39066666D01*
X-9645239Y-39161904D01*
X-9692858Y-39209523D01*
X-10597620Y-37733333D02*
X-10597620Y-37923809D01*
X-10550000Y-38019047D01*
X-10502381Y-38066666D01*
X-10359524Y-38161904D01*
X-10169048Y-38209523D01*
X-9788096Y-38209523D01*
X-9692858Y-38161904D01*
X-9645239Y-38114285D01*
X-9597620Y-38019047D01*
X-9597620Y-37828571D01*
X-9645239Y-37733333D01*
X-9692858Y-37685714D01*
X-9788096Y-37638095D01*
X-10026191Y-37638095D01*
X-10121429Y-37685714D01*
X-10169048Y-37733333D01*
X-10216667Y-37828571D01*
X-10216667Y-38019047D01*
X-10169048Y-38114285D01*
X-10121429Y-38161904D01*
X-10026191Y-38209523D01*
G04 #@! TO.C,R25*
X-33697620Y-39542857D02*
X-34173810Y-39876190D01*
X-33697620Y-40114285D02*
X-34697620Y-40114285D01*
X-34697620Y-39733333D01*
X-34650000Y-39638095D01*
X-34602381Y-39590476D01*
X-34507143Y-39542857D01*
X-34364286Y-39542857D01*
X-34269048Y-39590476D01*
X-34221429Y-39638095D01*
X-34173810Y-39733333D01*
X-34173810Y-40114285D01*
X-34602381Y-39161904D02*
X-34650000Y-39114285D01*
X-34697620Y-39019047D01*
X-34697620Y-38780952D01*
X-34650000Y-38685714D01*
X-34602381Y-38638095D01*
X-34507143Y-38590476D01*
X-34411905Y-38590476D01*
X-34269048Y-38638095D01*
X-33697620Y-39209523D01*
X-33697620Y-38590476D01*
X-34697620Y-37685714D02*
X-34697620Y-38161904D01*
X-34221429Y-38209523D01*
X-34269048Y-38161904D01*
X-34316667Y-38066666D01*
X-34316667Y-37828571D01*
X-34269048Y-37733333D01*
X-34221429Y-37685714D01*
X-34126191Y-37638095D01*
X-33888096Y-37638095D01*
X-33792858Y-37685714D01*
X-33745239Y-37733333D01*
X-33697620Y-37828571D01*
X-33697620Y-38066666D01*
X-33745239Y-38161904D01*
X-33792858Y-38209523D01*
G04 #@! TO.C,R8*
X-52797620Y-39066666D02*
X-53273810Y-39400000D01*
X-52797620Y-39638095D02*
X-53797620Y-39638095D01*
X-53797620Y-39257142D01*
X-53750000Y-39161904D01*
X-53702381Y-39114285D01*
X-53607143Y-39066666D01*
X-53464286Y-39066666D01*
X-53369048Y-39114285D01*
X-53321429Y-39161904D01*
X-53273810Y-39257142D01*
X-53273810Y-39638095D01*
X-53369048Y-38495238D02*
X-53416667Y-38590476D01*
X-53464286Y-38638095D01*
X-53559524Y-38685714D01*
X-53607143Y-38685714D01*
X-53702381Y-38638095D01*
X-53750000Y-38590476D01*
X-53797620Y-38495238D01*
X-53797620Y-38304761D01*
X-53750000Y-38209523D01*
X-53702381Y-38161904D01*
X-53607143Y-38114285D01*
X-53559524Y-38114285D01*
X-53464286Y-38161904D01*
X-53416667Y-38209523D01*
X-53369048Y-38304761D01*
X-53369048Y-38495238D01*
X-53321429Y-38590476D01*
X-53273810Y-38638095D01*
X-53178572Y-38685714D01*
X-52988096Y-38685714D01*
X-52892858Y-38638095D01*
X-52845239Y-38590476D01*
X-52797620Y-38495238D01*
X-52797620Y-38304761D01*
X-52845239Y-38209523D01*
X-52892858Y-38161904D01*
X-52988096Y-38114285D01*
X-53178572Y-38114285D01*
X-53273810Y-38161904D01*
X-53321429Y-38209523D01*
X-53369048Y-38304761D01*
G04 #@! TO.C,R35*
X-13297620Y-39542857D02*
X-13773810Y-39876190D01*
X-13297620Y-40114285D02*
X-14297620Y-40114285D01*
X-14297620Y-39733333D01*
X-14250000Y-39638095D01*
X-14202381Y-39590476D01*
X-14107143Y-39542857D01*
X-13964286Y-39542857D01*
X-13869048Y-39590476D01*
X-13821429Y-39638095D01*
X-13773810Y-39733333D01*
X-13773810Y-40114285D01*
X-14297620Y-39209523D02*
X-14297620Y-38590476D01*
X-13916667Y-38923809D01*
X-13916667Y-38780952D01*
X-13869048Y-38685714D01*
X-13821429Y-38638095D01*
X-13726191Y-38590476D01*
X-13488096Y-38590476D01*
X-13392858Y-38638095D01*
X-13345239Y-38685714D01*
X-13297620Y-38780952D01*
X-13297620Y-39066666D01*
X-13345239Y-39161904D01*
X-13392858Y-39209523D01*
X-14297620Y-37685714D02*
X-14297620Y-38161904D01*
X-13821429Y-38209523D01*
X-13869048Y-38161904D01*
X-13916667Y-38066666D01*
X-13916667Y-37828571D01*
X-13869048Y-37733333D01*
X-13821429Y-37685714D01*
X-13726191Y-37638095D01*
X-13488096Y-37638095D01*
X-13392858Y-37685714D01*
X-13345239Y-37733333D01*
X-13297620Y-37828571D01*
X-13297620Y-38066666D01*
X-13345239Y-38161904D01*
X-13392858Y-38209523D01*
G04 #@! TO.C,R24*
X-37197620Y-39542857D02*
X-37673810Y-39876190D01*
X-37197620Y-40114285D02*
X-38197620Y-40114285D01*
X-38197620Y-39733333D01*
X-38150000Y-39638095D01*
X-38102381Y-39590476D01*
X-38007143Y-39542857D01*
X-37864286Y-39542857D01*
X-37769048Y-39590476D01*
X-37721429Y-39638095D01*
X-37673810Y-39733333D01*
X-37673810Y-40114285D01*
X-38102381Y-39161904D02*
X-38150000Y-39114285D01*
X-38197620Y-39019047D01*
X-38197620Y-38780952D01*
X-38150000Y-38685714D01*
X-38102381Y-38638095D01*
X-38007143Y-38590476D01*
X-37911905Y-38590476D01*
X-37769048Y-38638095D01*
X-37197620Y-39209523D01*
X-37197620Y-38590476D01*
X-37864286Y-37733333D02*
X-37197620Y-37733333D01*
X-38245239Y-37971428D02*
X-37530953Y-38209523D01*
X-37530953Y-37590476D01*
G04 #@! TO.C,R7*
X-56297620Y-39066666D02*
X-56773810Y-39400000D01*
X-56297620Y-39638095D02*
X-57297620Y-39638095D01*
X-57297620Y-39257142D01*
X-57250000Y-39161904D01*
X-57202381Y-39114285D01*
X-57107143Y-39066666D01*
X-56964286Y-39066666D01*
X-56869048Y-39114285D01*
X-56821429Y-39161904D01*
X-56773810Y-39257142D01*
X-56773810Y-39638095D01*
X-57297620Y-38733333D02*
X-57297620Y-38066666D01*
X-56297620Y-38495238D01*
G04 #@! TO.C,R34*
X-17697620Y-39542857D02*
X-18173810Y-39876190D01*
X-17697620Y-40114285D02*
X-18697620Y-40114285D01*
X-18697620Y-39733333D01*
X-18650000Y-39638095D01*
X-18602381Y-39590476D01*
X-18507143Y-39542857D01*
X-18364286Y-39542857D01*
X-18269048Y-39590476D01*
X-18221429Y-39638095D01*
X-18173810Y-39733333D01*
X-18173810Y-40114285D01*
X-18697620Y-39209523D02*
X-18697620Y-38590476D01*
X-18316667Y-38923809D01*
X-18316667Y-38780952D01*
X-18269048Y-38685714D01*
X-18221429Y-38638095D01*
X-18126191Y-38590476D01*
X-17888096Y-38590476D01*
X-17792858Y-38638095D01*
X-17745239Y-38685714D01*
X-17697620Y-38780952D01*
X-17697620Y-39066666D01*
X-17745239Y-39161904D01*
X-17792858Y-39209523D01*
X-18364286Y-37733333D02*
X-17697620Y-37733333D01*
X-18745239Y-37971428D02*
X-18030953Y-38209523D01*
X-18030953Y-37590476D01*
G04 #@! TO.C,R23*
X-21147620Y-33792857D02*
X-21623810Y-34126190D01*
X-21147620Y-34364285D02*
X-22147620Y-34364285D01*
X-22147620Y-33983333D01*
X-22100000Y-33888095D01*
X-22052381Y-33840476D01*
X-21957143Y-33792857D01*
X-21814286Y-33792857D01*
X-21719048Y-33840476D01*
X-21671429Y-33888095D01*
X-21623810Y-33983333D01*
X-21623810Y-34364285D01*
X-22052381Y-33411904D02*
X-22100000Y-33364285D01*
X-22147620Y-33269047D01*
X-22147620Y-33030952D01*
X-22100000Y-32935714D01*
X-22052381Y-32888095D01*
X-21957143Y-32840476D01*
X-21861905Y-32840476D01*
X-21719048Y-32888095D01*
X-21147620Y-33459523D01*
X-21147620Y-32840476D01*
X-22147620Y-32507142D02*
X-22147620Y-31888095D01*
X-21766667Y-32221428D01*
X-21766667Y-32078571D01*
X-21719048Y-31983333D01*
X-21671429Y-31935714D01*
X-21576191Y-31888095D01*
X-21338096Y-31888095D01*
X-21242858Y-31935714D01*
X-21195239Y-31983333D01*
X-21147620Y-32078571D01*
X-21147620Y-32364285D01*
X-21195239Y-32459523D01*
X-21242858Y-32507142D01*
G04 #@! TO.C,R6*
X-47547620Y-33316666D02*
X-48023810Y-33650000D01*
X-47547620Y-33888095D02*
X-48547620Y-33888095D01*
X-48547620Y-33507142D01*
X-48500000Y-33411904D01*
X-48452381Y-33364285D01*
X-48357143Y-33316666D01*
X-48214286Y-33316666D01*
X-48119048Y-33364285D01*
X-48071429Y-33411904D01*
X-48023810Y-33507142D01*
X-48023810Y-33888095D01*
X-48547620Y-32459523D02*
X-48547620Y-32650000D01*
X-48500000Y-32745238D01*
X-48452381Y-32792857D01*
X-48309524Y-32888095D01*
X-48119048Y-32935714D01*
X-47738096Y-32935714D01*
X-47642858Y-32888095D01*
X-47595239Y-32840476D01*
X-47547620Y-32745238D01*
X-47547620Y-32554761D01*
X-47595239Y-32459523D01*
X-47642858Y-32411904D01*
X-47738096Y-32364285D01*
X-47976191Y-32364285D01*
X-48071429Y-32411904D01*
X-48119048Y-32459523D01*
X-48166667Y-32554761D01*
X-48166667Y-32745238D01*
X-48119048Y-32840476D01*
X-48071429Y-32888095D01*
X-47976191Y-32935714D01*
G04 #@! TO.C,R33*
X-9597620Y-33792857D02*
X-10073810Y-34126190D01*
X-9597620Y-34364285D02*
X-10597620Y-34364285D01*
X-10597620Y-33983333D01*
X-10550000Y-33888095D01*
X-10502381Y-33840476D01*
X-10407143Y-33792857D01*
X-10264286Y-33792857D01*
X-10169048Y-33840476D01*
X-10121429Y-33888095D01*
X-10073810Y-33983333D01*
X-10073810Y-34364285D01*
X-10597620Y-33459523D02*
X-10597620Y-32840476D01*
X-10216667Y-33173809D01*
X-10216667Y-33030952D01*
X-10169048Y-32935714D01*
X-10121429Y-32888095D01*
X-10026191Y-32840476D01*
X-9788096Y-32840476D01*
X-9692858Y-32888095D01*
X-9645239Y-32935714D01*
X-9597620Y-33030952D01*
X-9597620Y-33316666D01*
X-9645239Y-33411904D01*
X-9692858Y-33459523D01*
X-10597620Y-32507142D02*
X-10597620Y-31888095D01*
X-10216667Y-32221428D01*
X-10216667Y-32078571D01*
X-10169048Y-31983333D01*
X-10121429Y-31935714D01*
X-10026191Y-31888095D01*
X-9788096Y-31888095D01*
X-9692858Y-31935714D01*
X-9645239Y-31983333D01*
X-9597620Y-32078571D01*
X-9597620Y-32364285D01*
X-9645239Y-32459523D01*
X-9692858Y-32507142D01*
G04 #@! TO.C,R22*
X-28197620Y-33792857D02*
X-28673810Y-34126190D01*
X-28197620Y-34364285D02*
X-29197620Y-34364285D01*
X-29197620Y-33983333D01*
X-29150000Y-33888095D01*
X-29102381Y-33840476D01*
X-29007143Y-33792857D01*
X-28864286Y-33792857D01*
X-28769048Y-33840476D01*
X-28721429Y-33888095D01*
X-28673810Y-33983333D01*
X-28673810Y-34364285D01*
X-29102381Y-33411904D02*
X-29150000Y-33364285D01*
X-29197620Y-33269047D01*
X-29197620Y-33030952D01*
X-29150000Y-32935714D01*
X-29102381Y-32888095D01*
X-29007143Y-32840476D01*
X-28911905Y-32840476D01*
X-28769048Y-32888095D01*
X-28197620Y-33459523D01*
X-28197620Y-32840476D01*
X-29102381Y-32459523D02*
X-29150000Y-32411904D01*
X-29197620Y-32316666D01*
X-29197620Y-32078571D01*
X-29150000Y-31983333D01*
X-29102381Y-31935714D01*
X-29007143Y-31888095D01*
X-28911905Y-31888095D01*
X-28769048Y-31935714D01*
X-28197620Y-32507142D01*
X-28197620Y-31888095D01*
G04 #@! TO.C,R5*
X-44047620Y-33266666D02*
X-44523810Y-33600000D01*
X-44047620Y-33838095D02*
X-45047620Y-33838095D01*
X-45047620Y-33457142D01*
X-45000000Y-33361904D01*
X-44952381Y-33314285D01*
X-44857143Y-33266666D01*
X-44714286Y-33266666D01*
X-44619048Y-33314285D01*
X-44571429Y-33361904D01*
X-44523810Y-33457142D01*
X-44523810Y-33838095D01*
X-45047620Y-32361904D02*
X-45047620Y-32838095D01*
X-44571429Y-32885714D01*
X-44619048Y-32838095D01*
X-44666667Y-32742857D01*
X-44666667Y-32504761D01*
X-44619048Y-32409523D01*
X-44571429Y-32361904D01*
X-44476191Y-32314285D01*
X-44238096Y-32314285D01*
X-44142858Y-32361904D01*
X-44095239Y-32409523D01*
X-44047620Y-32504761D01*
X-44047620Y-32742857D01*
X-44095239Y-32838095D01*
X-44142858Y-32885714D01*
G04 #@! TO.C,R32*
X-5947620Y-33792857D02*
X-6423810Y-34126190D01*
X-5947620Y-34364285D02*
X-6947620Y-34364285D01*
X-6947620Y-33983333D01*
X-6900000Y-33888095D01*
X-6852381Y-33840476D01*
X-6757143Y-33792857D01*
X-6614286Y-33792857D01*
X-6519048Y-33840476D01*
X-6471429Y-33888095D01*
X-6423810Y-33983333D01*
X-6423810Y-34364285D01*
X-6947620Y-33459523D02*
X-6947620Y-32840476D01*
X-6566667Y-33173809D01*
X-6566667Y-33030952D01*
X-6519048Y-32935714D01*
X-6471429Y-32888095D01*
X-6376191Y-32840476D01*
X-6138096Y-32840476D01*
X-6042858Y-32888095D01*
X-5995239Y-32935714D01*
X-5947620Y-33030952D01*
X-5947620Y-33316666D01*
X-5995239Y-33411904D01*
X-6042858Y-33459523D01*
X-6852381Y-32459523D02*
X-6900000Y-32411904D01*
X-6947620Y-32316666D01*
X-6947620Y-32078571D01*
X-6900000Y-31983333D01*
X-6852381Y-31935714D01*
X-6757143Y-31888095D01*
X-6661905Y-31888095D01*
X-6519048Y-31935714D01*
X-5947620Y-32507142D01*
X-5947620Y-31888095D01*
G04 #@! TO.C,R21*
X-24647620Y-33792857D02*
X-25123810Y-34126190D01*
X-24647620Y-34364285D02*
X-25647620Y-34364285D01*
X-25647620Y-33983333D01*
X-25600000Y-33888095D01*
X-25552381Y-33840476D01*
X-25457143Y-33792857D01*
X-25314286Y-33792857D01*
X-25219048Y-33840476D01*
X-25171429Y-33888095D01*
X-25123810Y-33983333D01*
X-25123810Y-34364285D01*
X-25552381Y-33411904D02*
X-25600000Y-33364285D01*
X-25647620Y-33269047D01*
X-25647620Y-33030952D01*
X-25600000Y-32935714D01*
X-25552381Y-32888095D01*
X-25457143Y-32840476D01*
X-25361905Y-32840476D01*
X-25219048Y-32888095D01*
X-24647620Y-33459523D01*
X-24647620Y-32840476D01*
X-24647620Y-31888095D02*
X-24647620Y-32459523D01*
X-24647620Y-32173809D02*
X-25647620Y-32173809D01*
X-25504762Y-32269047D01*
X-25409524Y-32364285D01*
X-25361905Y-32459523D01*
G04 #@! TO.C,R4*
X-40597620Y-33266666D02*
X-41073810Y-33600000D01*
X-40597620Y-33838095D02*
X-41597620Y-33838095D01*
X-41597620Y-33457142D01*
X-41550000Y-33361904D01*
X-41502381Y-33314285D01*
X-41407143Y-33266666D01*
X-41264286Y-33266666D01*
X-41169048Y-33314285D01*
X-41121429Y-33361904D01*
X-41073810Y-33457142D01*
X-41073810Y-33838095D01*
X-41264286Y-32409523D02*
X-40597620Y-32409523D01*
X-41645239Y-32647619D02*
X-40930953Y-32885714D01*
X-40930953Y-32266666D01*
G04 #@! TO.C,R29*
X-7297620Y-21192857D02*
X-7773810Y-21526190D01*
X-7297620Y-21764285D02*
X-8297620Y-21764285D01*
X-8297620Y-21383333D01*
X-8250000Y-21288095D01*
X-8202381Y-21240476D01*
X-8107143Y-21192857D01*
X-7964286Y-21192857D01*
X-7869048Y-21240476D01*
X-7821429Y-21288095D01*
X-7773810Y-21383333D01*
X-7773810Y-21764285D01*
X-8202381Y-20811904D02*
X-8250000Y-20764285D01*
X-8297620Y-20669047D01*
X-8297620Y-20430952D01*
X-8250000Y-20335714D01*
X-8202381Y-20288095D01*
X-8107143Y-20240476D01*
X-8011905Y-20240476D01*
X-7869048Y-20288095D01*
X-7297620Y-20859523D01*
X-7297620Y-20240476D01*
X-7297620Y-19764285D02*
X-7297620Y-19573809D01*
X-7345239Y-19478571D01*
X-7392858Y-19430952D01*
X-7535715Y-19335714D01*
X-7726191Y-19288095D01*
X-8107143Y-19288095D01*
X-8202381Y-19335714D01*
X-8250000Y-19383333D01*
X-8297620Y-19478571D01*
X-8297620Y-19669047D01*
X-8250000Y-19764285D01*
X-8202381Y-19811904D01*
X-8107143Y-19859523D01*
X-7869048Y-19859523D01*
X-7773810Y-19811904D01*
X-7726191Y-19764285D01*
X-7678572Y-19669047D01*
X-7678572Y-19478571D01*
X-7726191Y-19383333D01*
X-7773810Y-19335714D01*
X-7869048Y-19288095D01*
G04 #@! TO.C,R18*
X-17872620Y-21192857D02*
X-18348810Y-21526190D01*
X-17872620Y-21764285D02*
X-18872620Y-21764285D01*
X-18872620Y-21383333D01*
X-18825000Y-21288095D01*
X-18777381Y-21240476D01*
X-18682143Y-21192857D01*
X-18539286Y-21192857D01*
X-18444048Y-21240476D01*
X-18396429Y-21288095D01*
X-18348810Y-21383333D01*
X-18348810Y-21764285D01*
X-17872620Y-20240476D02*
X-17872620Y-20811904D01*
X-17872620Y-20526190D02*
X-18872620Y-20526190D01*
X-18729762Y-20621428D01*
X-18634524Y-20716666D01*
X-18586905Y-20811904D01*
X-18444048Y-19669047D02*
X-18491667Y-19764285D01*
X-18539286Y-19811904D01*
X-18634524Y-19859523D01*
X-18682143Y-19859523D01*
X-18777381Y-19811904D01*
X-18825000Y-19764285D01*
X-18872620Y-19669047D01*
X-18872620Y-19478571D01*
X-18825000Y-19383333D01*
X-18777381Y-19335714D01*
X-18682143Y-19288095D01*
X-18634524Y-19288095D01*
X-18539286Y-19335714D01*
X-18491667Y-19383333D01*
X-18444048Y-19478571D01*
X-18444048Y-19669047D01*
X-18396429Y-19764285D01*
X-18348810Y-19811904D01*
X-18253572Y-19859523D01*
X-18063096Y-19859523D01*
X-17967858Y-19811904D01*
X-17920239Y-19764285D01*
X-17872620Y-19669047D01*
X-17872620Y-19478571D01*
X-17920239Y-19383333D01*
X-17967858Y-19335714D01*
X-18063096Y-19288095D01*
X-18253572Y-19288095D01*
X-18348810Y-19335714D01*
X-18396429Y-19383333D01*
X-18444048Y-19478571D01*
G04 #@! TO.C,R1*
X-33097620Y-20716666D02*
X-33573810Y-21050000D01*
X-33097620Y-21288095D02*
X-34097620Y-21288095D01*
X-34097620Y-20907142D01*
X-34050000Y-20811904D01*
X-34002381Y-20764285D01*
X-33907143Y-20716666D01*
X-33764286Y-20716666D01*
X-33669048Y-20764285D01*
X-33621429Y-20811904D01*
X-33573810Y-20907142D01*
X-33573810Y-21288095D01*
X-33097620Y-19764285D02*
X-33097620Y-20335714D01*
X-33097620Y-20050000D02*
X-34097620Y-20050000D01*
X-33954762Y-20145238D01*
X-33859524Y-20240476D01*
X-33811905Y-20335714D01*
G04 #@! TO.C,R31*
X-13297620Y-33792857D02*
X-13773810Y-34126190D01*
X-13297620Y-34364285D02*
X-14297620Y-34364285D01*
X-14297620Y-33983333D01*
X-14250000Y-33888095D01*
X-14202381Y-33840476D01*
X-14107143Y-33792857D01*
X-13964286Y-33792857D01*
X-13869048Y-33840476D01*
X-13821429Y-33888095D01*
X-13773810Y-33983333D01*
X-13773810Y-34364285D01*
X-14297620Y-33459523D02*
X-14297620Y-32840476D01*
X-13916667Y-33173809D01*
X-13916667Y-33030952D01*
X-13869048Y-32935714D01*
X-13821429Y-32888095D01*
X-13726191Y-32840476D01*
X-13488096Y-32840476D01*
X-13392858Y-32888095D01*
X-13345239Y-32935714D01*
X-13297620Y-33030952D01*
X-13297620Y-33316666D01*
X-13345239Y-33411904D01*
X-13392858Y-33459523D01*
X-13297620Y-31888095D02*
X-13297620Y-32459523D01*
X-13297620Y-32173809D02*
X-14297620Y-32173809D01*
X-14154762Y-32269047D01*
X-14059524Y-32364285D01*
X-14011905Y-32459523D01*
G04 #@! TO.C,R20*
X-33697620Y-33792857D02*
X-34173810Y-34126190D01*
X-33697620Y-34364285D02*
X-34697620Y-34364285D01*
X-34697620Y-33983333D01*
X-34650000Y-33888095D01*
X-34602381Y-33840476D01*
X-34507143Y-33792857D01*
X-34364286Y-33792857D01*
X-34269048Y-33840476D01*
X-34221429Y-33888095D01*
X-34173810Y-33983333D01*
X-34173810Y-34364285D01*
X-34602381Y-33411904D02*
X-34650000Y-33364285D01*
X-34697620Y-33269047D01*
X-34697620Y-33030952D01*
X-34650000Y-32935714D01*
X-34602381Y-32888095D01*
X-34507143Y-32840476D01*
X-34411905Y-32840476D01*
X-34269048Y-32888095D01*
X-33697620Y-33459523D01*
X-33697620Y-32840476D01*
X-34697620Y-32221428D02*
X-34697620Y-32126190D01*
X-34650000Y-32030952D01*
X-34602381Y-31983333D01*
X-34507143Y-31935714D01*
X-34316667Y-31888095D01*
X-34078572Y-31888095D01*
X-33888096Y-31935714D01*
X-33792858Y-31983333D01*
X-33745239Y-32030952D01*
X-33697620Y-32126190D01*
X-33697620Y-32221428D01*
X-33745239Y-32316666D01*
X-33792858Y-32364285D01*
X-33888096Y-32411904D01*
X-34078572Y-32459523D01*
X-34316667Y-32459523D01*
X-34507143Y-32411904D01*
X-34602381Y-32364285D01*
X-34650000Y-32316666D01*
X-34697620Y-32221428D01*
G04 #@! TO.C,R3*
X-52797620Y-33316666D02*
X-53273810Y-33650000D01*
X-52797620Y-33888095D02*
X-53797620Y-33888095D01*
X-53797620Y-33507142D01*
X-53750000Y-33411904D01*
X-53702381Y-33364285D01*
X-53607143Y-33316666D01*
X-53464286Y-33316666D01*
X-53369048Y-33364285D01*
X-53321429Y-33411904D01*
X-53273810Y-33507142D01*
X-53273810Y-33888095D01*
X-53797620Y-32983333D02*
X-53797620Y-32364285D01*
X-53416667Y-32697619D01*
X-53416667Y-32554761D01*
X-53369048Y-32459523D01*
X-53321429Y-32411904D01*
X-53226191Y-32364285D01*
X-52988096Y-32364285D01*
X-52892858Y-32411904D01*
X-52845239Y-32459523D01*
X-52797620Y-32554761D01*
X-52797620Y-32840476D01*
X-52845239Y-32935714D01*
X-52892858Y-32983333D01*
G04 #@! TO.C,R30*
X-17697620Y-33792857D02*
X-18173810Y-34126190D01*
X-17697620Y-34364285D02*
X-18697620Y-34364285D01*
X-18697620Y-33983333D01*
X-18650000Y-33888095D01*
X-18602381Y-33840476D01*
X-18507143Y-33792857D01*
X-18364286Y-33792857D01*
X-18269048Y-33840476D01*
X-18221429Y-33888095D01*
X-18173810Y-33983333D01*
X-18173810Y-34364285D01*
X-18697620Y-33459523D02*
X-18697620Y-32840476D01*
X-18316667Y-33173809D01*
X-18316667Y-33030952D01*
X-18269048Y-32935714D01*
X-18221429Y-32888095D01*
X-18126191Y-32840476D01*
X-17888096Y-32840476D01*
X-17792858Y-32888095D01*
X-17745239Y-32935714D01*
X-17697620Y-33030952D01*
X-17697620Y-33316666D01*
X-17745239Y-33411904D01*
X-17792858Y-33459523D01*
X-18697620Y-32221428D02*
X-18697620Y-32126190D01*
X-18650000Y-32030952D01*
X-18602381Y-31983333D01*
X-18507143Y-31935714D01*
X-18316667Y-31888095D01*
X-18078572Y-31888095D01*
X-17888096Y-31935714D01*
X-17792858Y-31983333D01*
X-17745239Y-32030952D01*
X-17697620Y-32126190D01*
X-17697620Y-32221428D01*
X-17745239Y-32316666D01*
X-17792858Y-32364285D01*
X-17888096Y-32411904D01*
X-18078572Y-32459523D01*
X-18316667Y-32459523D01*
X-18507143Y-32411904D01*
X-18602381Y-32364285D01*
X-18650000Y-32316666D01*
X-18697620Y-32221428D01*
G04 #@! TO.C,R19*
X-37197620Y-33792857D02*
X-37673810Y-34126190D01*
X-37197620Y-34364285D02*
X-38197620Y-34364285D01*
X-38197620Y-33983333D01*
X-38150000Y-33888095D01*
X-38102381Y-33840476D01*
X-38007143Y-33792857D01*
X-37864286Y-33792857D01*
X-37769048Y-33840476D01*
X-37721429Y-33888095D01*
X-37673810Y-33983333D01*
X-37673810Y-34364285D01*
X-37197620Y-32840476D02*
X-37197620Y-33411904D01*
X-37197620Y-33126190D02*
X-38197620Y-33126190D01*
X-38054762Y-33221428D01*
X-37959524Y-33316666D01*
X-37911905Y-33411904D01*
X-37197620Y-32364285D02*
X-37197620Y-32173809D01*
X-37245239Y-32078571D01*
X-37292858Y-32030952D01*
X-37435715Y-31935714D01*
X-37626191Y-31888095D01*
X-38007143Y-31888095D01*
X-38102381Y-31935714D01*
X-38150000Y-31983333D01*
X-38197620Y-32078571D01*
X-38197620Y-32269047D01*
X-38150000Y-32364285D01*
X-38102381Y-32411904D01*
X-38007143Y-32459523D01*
X-37769048Y-32459523D01*
X-37673810Y-32411904D01*
X-37626191Y-32364285D01*
X-37578572Y-32269047D01*
X-37578572Y-32078571D01*
X-37626191Y-31983333D01*
X-37673810Y-31935714D01*
X-37769048Y-31888095D01*
G04 #@! TO.C,R2*
X-56297620Y-33316666D02*
X-56773810Y-33650000D01*
X-56297620Y-33888095D02*
X-57297620Y-33888095D01*
X-57297620Y-33507142D01*
X-57250000Y-33411904D01*
X-57202381Y-33364285D01*
X-57107143Y-33316666D01*
X-56964286Y-33316666D01*
X-56869048Y-33364285D01*
X-56821429Y-33411904D01*
X-56773810Y-33507142D01*
X-56773810Y-33888095D01*
X-57202381Y-32935714D02*
X-57250000Y-32888095D01*
X-57297620Y-32792857D01*
X-57297620Y-32554761D01*
X-57250000Y-32459523D01*
X-57202381Y-32411904D01*
X-57107143Y-32364285D01*
X-57011905Y-32364285D01*
X-56869048Y-32411904D01*
X-56297620Y-32983333D01*
X-56297620Y-32364285D01*
G04 #@! TO.C,J2*
X-59258334Y-30502380D02*
X-59258334Y-31216666D01*
X-59305953Y-31359523D01*
X-59401191Y-31454761D01*
X-59544048Y-31502380D01*
X-59639286Y-31502380D01*
X-58829762Y-30597619D02*
X-58782143Y-30550000D01*
X-58686905Y-30502380D01*
X-58448810Y-30502380D01*
X-58353572Y-30550000D01*
X-58305953Y-30597619D01*
X-58258334Y-30692857D01*
X-58258334Y-30788095D01*
X-58305953Y-30930952D01*
X-58877381Y-31502380D01*
X-58258334Y-31502380D01*
G04 #@! TO.C,C3*
X-7442858Y-23466666D02*
X-7395239Y-23514285D01*
X-7347620Y-23657142D01*
X-7347620Y-23752380D01*
X-7395239Y-23895238D01*
X-7490477Y-23990476D01*
X-7585715Y-24038095D01*
X-7776191Y-24085714D01*
X-7919048Y-24085714D01*
X-8109524Y-24038095D01*
X-8204762Y-23990476D01*
X-8300000Y-23895238D01*
X-8347620Y-23752380D01*
X-8347620Y-23657142D01*
X-8300000Y-23514285D01*
X-8252381Y-23466666D01*
X-8347620Y-23133333D02*
X-8347620Y-22514285D01*
X-7966667Y-22847619D01*
X-7966667Y-22704761D01*
X-7919048Y-22609523D01*
X-7871429Y-22561904D01*
X-7776191Y-22514285D01*
X-7538096Y-22514285D01*
X-7442858Y-22561904D01*
X-7395239Y-22609523D01*
X-7347620Y-22704761D01*
X-7347620Y-22990476D01*
X-7395239Y-23085714D01*
X-7442858Y-23133333D01*
G04 #@! TO.C,C2*
X-23267858Y-23141666D02*
X-23220239Y-23189285D01*
X-23172620Y-23332142D01*
X-23172620Y-23427380D01*
X-23220239Y-23570238D01*
X-23315477Y-23665476D01*
X-23410715Y-23713095D01*
X-23601191Y-23760714D01*
X-23744048Y-23760714D01*
X-23934524Y-23713095D01*
X-24029762Y-23665476D01*
X-24125000Y-23570238D01*
X-24172620Y-23427380D01*
X-24172620Y-23332142D01*
X-24125000Y-23189285D01*
X-24077381Y-23141666D01*
X-24077381Y-22760714D02*
X-24125000Y-22713095D01*
X-24172620Y-22617857D01*
X-24172620Y-22379761D01*
X-24125000Y-22284523D01*
X-24077381Y-22236904D01*
X-23982143Y-22189285D01*
X-23886905Y-22189285D01*
X-23744048Y-22236904D01*
X-23172620Y-22808333D01*
X-23172620Y-22189285D01*
G04 #@! TO.C,C1*
X-38717858Y-23066666D02*
X-38670239Y-23114285D01*
X-38622620Y-23257142D01*
X-38622620Y-23352380D01*
X-38670239Y-23495238D01*
X-38765477Y-23590476D01*
X-38860715Y-23638095D01*
X-39051191Y-23685714D01*
X-39194048Y-23685714D01*
X-39384524Y-23638095D01*
X-39479762Y-23590476D01*
X-39575000Y-23495238D01*
X-39622620Y-23352380D01*
X-39622620Y-23257142D01*
X-39575000Y-23114285D01*
X-39527381Y-23066666D01*
X-38622620Y-22114285D02*
X-38622620Y-22685714D01*
X-38622620Y-22400000D02*
X-39622620Y-22400000D01*
X-39479762Y-22495238D01*
X-39384524Y-22590476D01*
X-39336905Y-22685714D01*
G04 #@! TD*
M02*
