M48
; DRILL file {KiCad 5.1.6} date Thu May 21 19:25:12 2020
; FORMAT={-:-/ absolute / inch / decimal}
; #@! TF.CreationDate,2020-05-21T19:25:12+02:00
; #@! TF.GenerationSoftware,Kicad,Pcbnew,5.1.6
; #@! TF.FileFunction,Plated,1,2,PTH
FMAT,2
INCH
T1C0.0157
T2C0.0394
T3C0.0433
%
G90
G05
T1
X-2.2323Y-0.3661
X-2.1467Y-1.7116
X-2.1014Y-1.3455
X-2.0994Y-1.5719
X-2.0276Y-1.1447
X-1.9075Y-0.8189
X-1.9055Y-0.4695
X-1.9055Y-0.7441
X-1.9026Y-1.001
X-1.9026Y-1.0797
X-1.8976Y-0.9272
X-1.8553Y-1.4026
X-1.7549Y-1.5719
X-1.7382Y-1.7018
X-1.6949Y-0.4764
X-1.6223Y-1.2379
X-1.6033Y-1.1467
X-1.5512Y-1.2106
X-1.4833Y-1.2628
X-1.4606Y-1.7077
X-1.4547Y-0.7421
X-1.435Y-1.0551
X-1.4144Y-0.4764
X-1.3898Y-0.5433
X-1.3502Y-1.2384
X-1.3169Y-0.8189
X-1.3169Y-1.1378
X-1.3071Y-0.9715
X-1.2795Y-1.6339
X-1.2707Y-0.6624
X-1.2441Y-0.7421
X-1.189Y-1.0453
X-1.1821Y-0.6112
X-1.1791Y-1.7126
X-1.1102Y-0.1909
X-1.0945Y-0.437
X-1.0482Y-1.9744
X-1.0443Y-1.6309
X-1.0315Y-1.1772
X-1.0005Y-1.2298
X-0.9567Y-1.6368
X-0.9232Y-1.2028
X-0.9104Y-0.6339
X-0.815Y-1.7116
X-0.7894Y-0.5433
X-0.7854Y-1.1772
X-0.7854Y-1.6417
X-0.7165Y-0.563
X-0.7146Y-1.0
X-0.7047Y-0.8209
X-0.7008Y-0.7421
X-0.6496Y-1.4075
X-0.6496Y-1.6417
X-0.6486Y-1.1909
X-0.5984Y-0.9488
X-0.4764Y-1.6299
X-0.4616Y-1.1427
X-0.4114Y-1.2618
X-0.3996Y-0.6398
X-0.3484Y-0.9114
X-0.3307Y-0.7717
X-0.3307Y-1.6299
X-0.2795Y-1.4026
X-0.2559Y-1.6969
X-0.2549Y-1.3455
X-0.2362Y-1.0827
X-0.187Y-1.2028
X-0.0866Y-1.1142
X-0.0866Y-1.1732
X-0.0591Y-1.4094
X0.0472Y-1.815
T2
X-2.1742Y-0.4646
X-2.0945Y0.0291
X-2.0945Y-0.0709
X-1.9945Y0.0291
X-1.9945Y-0.0709
X-1.8945Y0.0291
X-1.8945Y-0.0709
X-1.7945Y0.0291
X-1.7945Y-0.0709
X-1.6945Y0.0291
X-1.6945Y-0.0709
X-1.5945Y0.0291
X-1.5945Y-0.0709
X-1.4945Y0.0291
X-1.4945Y-0.0709
X-1.3945Y0.0291
X-1.3945Y-0.0709
X-1.2945Y0.0291
X-1.2945Y-0.0709
X-1.1945Y0.0291
X-1.1945Y-0.0709
X-1.0945Y0.0291
X-1.0945Y-0.0709
X-0.9945Y0.0291
X-0.9945Y-0.0709
X-0.8945Y0.0291
X-0.8945Y-0.0709
X-0.7945Y0.0291
X-0.7945Y-0.0709
X-0.6945Y0.0291
X-0.6945Y-0.0709
X-0.5945Y0.0291
X-0.5945Y-0.0709
X-0.4945Y0.0291
X-0.4945Y-0.0709
X-0.3945Y0.0291
X-0.3945Y-0.0709
X-0.2945Y0.0291
X-0.2945Y-0.0709
X-0.1945Y0.0291
X-0.1945Y-0.0709
X-2.0945Y-0.2661
X-2.0945Y-0.3661
X-1.9945Y-0.2661
X-1.9945Y-0.3661
X-1.8945Y-0.2661
X-1.8945Y-0.3661
X-1.7945Y-0.2661
X-1.7945Y-0.3661
X-1.6945Y-0.2661
X-1.6945Y-0.3661
X-1.5945Y-0.2661
X-1.5945Y-0.3661
X-1.4945Y-0.2661
X-1.4945Y-0.3661
X-1.3945Y-0.2661
X-1.3945Y-0.3661
X-1.2945Y-0.2661
X-1.2945Y-0.3661
X-1.1945Y-0.2661
X-1.1945Y-0.3661
X-1.0945Y-0.2661
X-1.0945Y-0.3661
X-0.9945Y-0.2661
X-0.9945Y-0.3661
X-0.8945Y-0.2661
X-0.8945Y-0.3661
X-0.7945Y-0.2661
X-0.7945Y-0.3661
X-0.6945Y-0.2661
X-0.6945Y-0.3661
X-0.5945Y-0.2661
X-0.5945Y-0.3661
X-0.4945Y-0.2661
X-0.4945Y-0.3661
X-0.3945Y-0.2661
X-0.3945Y-0.3661
X-0.2945Y-0.2661
X-0.2945Y-0.3661
X-0.1945Y-0.2661
X-0.1945Y-0.3661
X-2.0984Y-1.8291
X-2.0984Y-1.9291
X-1.9984Y-1.8291
X-1.9984Y-1.9291
X-1.8984Y-1.8291
X-1.8984Y-1.9291
X-1.7984Y-1.8291
X-1.7984Y-1.9291
X-1.6984Y-1.8291
X-1.6984Y-1.9291
X-1.5984Y-1.8291
X-1.5984Y-1.9291
X-1.4984Y-1.8291
X-1.4984Y-1.9291
X-1.3984Y-1.8291
X-1.3984Y-1.9291
X-1.2984Y-1.8291
X-1.2984Y-1.9291
X-1.1984Y-1.8291
X-1.1984Y-1.9291
X-1.0984Y-1.8291
X-1.0984Y-1.9291
X-0.9984Y-1.8291
X-0.9984Y-1.9291
X-0.8984Y-1.8291
X-0.8984Y-1.9291
X-0.7984Y-1.8291
X-0.7984Y-1.9291
X-0.6984Y-1.8291
X-0.6984Y-1.9291
X-0.5984Y-1.8291
X-0.5984Y-1.9291
X-0.4984Y-1.8291
X-0.4984Y-1.9291
X-0.3984Y-1.8291
X-0.3984Y-1.9291
X-0.2984Y-1.8291
X-0.2984Y-1.9291
X-0.1984Y-1.8291
X-0.1984Y-1.9291
T3
X-2.2283Y-0.8691
X-2.2283Y-1.0659
T0
M30
