G04 #@! TF.GenerationSoftware,KiCad,Pcbnew,5.1.6*
G04 #@! TF.CreationDate,2020-08-13T10:41:13+02:00*
G04 #@! TF.ProjectId,F010_rpi_logic_level_shifter_hat,46303130-5f72-4706-995f-6c6f6769635f,rev?*
G04 #@! TF.SameCoordinates,PXa52d280PY2b953a0*
G04 #@! TF.FileFunction,Legend,Bot*
G04 #@! TF.FilePolarity,Positive*
%FSLAX46Y46*%
G04 Gerber Fmt 4.6, Leading zero omitted, Abs format (unit mm)*
G04 Created by KiCad (PCBNEW 5.1.6) date 2020-08-13 10:41:13*
%MOMM*%
%LPD*%
G01*
G04 APERTURE LIST*
%ADD10C,0.150000*%
%ADD11C,0.300000*%
%ADD12C,0.120000*%
G04 APERTURE END LIST*
D10*
X-5628572Y-27558571D02*
X-5628572Y-28772857D01*
X-5700000Y-28915714D01*
X-5771429Y-28987142D01*
X-5914286Y-29058571D01*
X-6200000Y-29058571D01*
X-6342858Y-28987142D01*
X-6414286Y-28915714D01*
X-6485715Y-28772857D01*
X-6485715Y-27558571D01*
X-7128572Y-28987142D02*
X-7271429Y-29058571D01*
X-7557143Y-29058571D01*
X-7700000Y-28987142D01*
X-7771429Y-28844285D01*
X-7771429Y-28772857D01*
X-7700000Y-28630000D01*
X-7557143Y-28558571D01*
X-7342858Y-28558571D01*
X-7200000Y-28487142D01*
X-7128572Y-28344285D01*
X-7128572Y-28272857D01*
X-7200000Y-28130000D01*
X-7342858Y-28058571D01*
X-7557143Y-28058571D01*
X-7700000Y-28130000D01*
X-8985715Y-28987142D02*
X-8842858Y-29058571D01*
X-8557143Y-29058571D01*
X-8414286Y-28987142D01*
X-8342858Y-28844285D01*
X-8342858Y-28272857D01*
X-8414286Y-28130000D01*
X-8557143Y-28058571D01*
X-8842858Y-28058571D01*
X-8985715Y-28130000D01*
X-9057143Y-28272857D01*
X-9057143Y-28415714D01*
X-8342858Y-28558571D01*
X-11628572Y-27630000D02*
X-11485715Y-27558571D01*
X-11271429Y-27558571D01*
X-11057143Y-27630000D01*
X-10914286Y-27772857D01*
X-10842858Y-27915714D01*
X-10771429Y-28201428D01*
X-10771429Y-28415714D01*
X-10842858Y-28701428D01*
X-10914286Y-28844285D01*
X-11057143Y-28987142D01*
X-11271429Y-29058571D01*
X-11414286Y-29058571D01*
X-11628572Y-28987142D01*
X-11700000Y-28915714D01*
X-11700000Y-28415714D01*
X-11414286Y-28415714D01*
X-12342858Y-29058571D02*
X-12342858Y-27558571D01*
X-12914286Y-27558571D01*
X-13057143Y-27630000D01*
X-13128572Y-27701428D01*
X-13200000Y-27844285D01*
X-13200000Y-28058571D01*
X-13128572Y-28201428D01*
X-13057143Y-28272857D01*
X-12914286Y-28344285D01*
X-12342858Y-28344285D01*
X-13842858Y-29058571D02*
X-13842858Y-27558571D01*
X-14842858Y-27558571D02*
X-15128572Y-27558571D01*
X-15271429Y-27630000D01*
X-15414286Y-27772857D01*
X-15485715Y-28058571D01*
X-15485715Y-28558571D01*
X-15414286Y-28844285D01*
X-15271429Y-28987142D01*
X-15128572Y-29058571D01*
X-14842858Y-29058571D01*
X-14700000Y-28987142D01*
X-14557143Y-28844285D01*
X-14485715Y-28558571D01*
X-14485715Y-28058571D01*
X-14557143Y-27772857D01*
X-14700000Y-27630000D01*
X-14842858Y-27558571D01*
X-17200000Y-27701428D02*
X-17271429Y-27630000D01*
X-17414286Y-27558571D01*
X-17771429Y-27558571D01*
X-17914286Y-27630000D01*
X-17985715Y-27701428D01*
X-18057143Y-27844285D01*
X-18057143Y-27987142D01*
X-17985715Y-28201428D01*
X-17128572Y-29058571D01*
X-18057143Y-29058571D01*
X-19342858Y-27558571D02*
X-19057143Y-27558571D01*
X-18914286Y-27630000D01*
X-18842858Y-27701428D01*
X-18700000Y-27915714D01*
X-18628572Y-28201428D01*
X-18628572Y-28772857D01*
X-18700000Y-28915714D01*
X-18771429Y-28987142D01*
X-18914286Y-29058571D01*
X-19200000Y-29058571D01*
X-19342858Y-28987142D01*
X-19414286Y-28915714D01*
X-19485715Y-28772857D01*
X-19485715Y-28415714D01*
X-19414286Y-28272857D01*
X-19342858Y-28201428D01*
X-19200000Y-28130000D01*
X-18914286Y-28130000D01*
X-18771429Y-28201428D01*
X-18700000Y-28272857D01*
X-18628572Y-28415714D01*
X-21700000Y-29630000D02*
X-21628572Y-29558571D01*
X-21485715Y-29344285D01*
X-21414286Y-29201428D01*
X-21342858Y-28987142D01*
X-21271429Y-28630000D01*
X-21271429Y-28344285D01*
X-21342858Y-27987142D01*
X-21414286Y-27772857D01*
X-21485715Y-27630000D01*
X-21628572Y-27415714D01*
X-21700000Y-27344285D01*
X-23128572Y-29058571D02*
X-22628572Y-28344285D01*
X-22271429Y-29058571D02*
X-22271429Y-27558571D01*
X-22842858Y-27558571D01*
X-22985715Y-27630000D01*
X-23057143Y-27701428D01*
X-23128572Y-27844285D01*
X-23128572Y-28058571D01*
X-23057143Y-28201428D01*
X-22985715Y-28272857D01*
X-22842858Y-28344285D01*
X-22271429Y-28344285D01*
X-23771429Y-29058571D02*
X-23771429Y-27558571D01*
X-24342858Y-27558571D01*
X-24485715Y-27630000D01*
X-24557143Y-27701428D01*
X-24628572Y-27844285D01*
X-24628572Y-28058571D01*
X-24557143Y-28201428D01*
X-24485715Y-28272857D01*
X-24342858Y-28344285D01*
X-23771429Y-28344285D01*
X-25271429Y-29058571D02*
X-25271429Y-27558571D01*
X-26985715Y-27558571D02*
X-27914286Y-27558571D01*
X-27414286Y-28130000D01*
X-27628572Y-28130000D01*
X-27771429Y-28201428D01*
X-27842858Y-28272857D01*
X-27914286Y-28415714D01*
X-27914286Y-28772857D01*
X-27842858Y-28915714D01*
X-27771429Y-28987142D01*
X-27628572Y-29058571D01*
X-27200000Y-29058571D01*
X-27057143Y-28987142D01*
X-26985715Y-28915714D01*
X-28414286Y-27558571D02*
X-29414286Y-27558571D01*
X-28771429Y-29058571D01*
X-29842858Y-29630000D02*
X-29914286Y-29558571D01*
X-30057143Y-29344285D01*
X-30128572Y-29201428D01*
X-30200000Y-28987142D01*
X-30271429Y-28630000D01*
X-30271429Y-28344285D01*
X-30200000Y-27987142D01*
X-30128572Y-27772857D01*
X-30057143Y-27630000D01*
X-29914286Y-27415714D01*
X-29842858Y-27344285D01*
X-31914286Y-28058571D02*
X-32485715Y-28058571D01*
X-32128572Y-27558571D02*
X-32128572Y-28844285D01*
X-32200000Y-28987142D01*
X-32342858Y-29058571D01*
X-32485715Y-29058571D01*
X-33200000Y-29058571D02*
X-33057143Y-28987142D01*
X-32985715Y-28915714D01*
X-32914286Y-28772857D01*
X-32914286Y-28344285D01*
X-32985715Y-28201428D01*
X-33057143Y-28130000D01*
X-33200000Y-28058571D01*
X-33414286Y-28058571D01*
X-33557143Y-28130000D01*
X-33628572Y-28201428D01*
X-33700000Y-28344285D01*
X-33700000Y-28772857D01*
X-33628572Y-28915714D01*
X-33557143Y-28987142D01*
X-33414286Y-29058571D01*
X-33200000Y-29058571D01*
X-35485715Y-28272857D02*
X-35985715Y-28272857D01*
X-36200000Y-29058571D02*
X-35485715Y-29058571D01*
X-35485715Y-27558571D01*
X-36200000Y-27558571D01*
X-36842858Y-29058571D02*
X-36842858Y-27558571D01*
X-37700000Y-29058571D01*
X-37700000Y-27558571D01*
X-38342858Y-28630000D02*
X-39057143Y-28630000D01*
X-38200000Y-29058571D02*
X-38700000Y-27558571D01*
X-39200000Y-29058571D01*
X-40200000Y-28272857D02*
X-40414286Y-28344285D01*
X-40485715Y-28415714D01*
X-40557143Y-28558571D01*
X-40557143Y-28772857D01*
X-40485715Y-28915714D01*
X-40414286Y-28987142D01*
X-40271429Y-29058571D01*
X-39700000Y-29058571D01*
X-39700000Y-27558571D01*
X-40200000Y-27558571D01*
X-40342858Y-27630000D01*
X-40414286Y-27701428D01*
X-40485715Y-27844285D01*
X-40485715Y-27987142D01*
X-40414286Y-28130000D01*
X-40342858Y-28201428D01*
X-40200000Y-28272857D01*
X-39700000Y-28272857D01*
X-41914286Y-29058571D02*
X-41200000Y-29058571D01*
X-41200000Y-27558571D01*
X-42414286Y-28272857D02*
X-42914286Y-28272857D01*
X-43128572Y-29058571D02*
X-42414286Y-29058571D01*
X-42414286Y-27558571D01*
X-43128572Y-27558571D01*
X-45557143Y-29058571D02*
X-45557143Y-27558571D01*
X-45557143Y-28987142D02*
X-45414286Y-29058571D01*
X-45128572Y-29058571D01*
X-44985715Y-28987142D01*
X-44914286Y-28915714D01*
X-44842858Y-28772857D01*
X-44842858Y-28344285D01*
X-44914286Y-28201428D01*
X-44985715Y-28130000D01*
X-45128572Y-28058571D01*
X-45414286Y-28058571D01*
X-45557143Y-28130000D01*
X-46842858Y-28987142D02*
X-46700000Y-29058571D01*
X-46414286Y-29058571D01*
X-46271429Y-28987142D01*
X-46200000Y-28844285D01*
X-46200000Y-28272857D01*
X-46271429Y-28130000D01*
X-46414286Y-28058571D01*
X-46700000Y-28058571D01*
X-46842858Y-28130000D01*
X-46914286Y-28272857D01*
X-46914286Y-28415714D01*
X-46200000Y-28558571D01*
X-47414286Y-28058571D02*
X-47771429Y-29058571D01*
X-48128572Y-28058571D01*
X-48700000Y-29058571D02*
X-48700000Y-28058571D01*
X-48700000Y-27558571D02*
X-48628572Y-27630000D01*
X-48700000Y-27701428D01*
X-48771429Y-27630000D01*
X-48700000Y-27558571D01*
X-48700000Y-27701428D01*
X-50057143Y-28987142D02*
X-49914286Y-29058571D01*
X-49628572Y-29058571D01*
X-49485715Y-28987142D01*
X-49414286Y-28915714D01*
X-49342858Y-28772857D01*
X-49342858Y-28344285D01*
X-49414286Y-28201428D01*
X-49485715Y-28130000D01*
X-49628572Y-28058571D01*
X-49914286Y-28058571D01*
X-50057143Y-28130000D01*
X-51271429Y-28987142D02*
X-51128572Y-29058571D01*
X-50842858Y-29058571D01*
X-50700000Y-28987142D01*
X-50628572Y-28844285D01*
X-50628572Y-28272857D01*
X-50700000Y-28130000D01*
X-50842858Y-28058571D01*
X-51128572Y-28058571D01*
X-51271429Y-28130000D01*
X-51342858Y-28272857D01*
X-51342858Y-28415714D01*
X-50628572Y-28558571D01*
X-19155953Y-4602380D02*
X-18822620Y-4126190D01*
X-18584524Y-4602380D02*
X-18584524Y-3602380D01*
X-18965477Y-3602380D01*
X-19060715Y-3650000D01*
X-19108334Y-3697619D01*
X-19155953Y-3792857D01*
X-19155953Y-3935714D01*
X-19108334Y-4030952D01*
X-19060715Y-4078571D01*
X-18965477Y-4126190D01*
X-18584524Y-4126190D01*
X-19584524Y-4602380D02*
X-19584524Y-3602380D01*
X-19965477Y-3602380D01*
X-20060715Y-3650000D01*
X-20108334Y-3697619D01*
X-20155953Y-3792857D01*
X-20155953Y-3935714D01*
X-20108334Y-4030952D01*
X-20060715Y-4078571D01*
X-19965477Y-4126190D01*
X-19584524Y-4126190D01*
X-20584524Y-4602380D02*
X-20584524Y-3602380D01*
X-22346429Y-3650000D02*
X-22251191Y-3602380D01*
X-22108334Y-3602380D01*
X-21965477Y-3650000D01*
X-21870239Y-3745238D01*
X-21822620Y-3840476D01*
X-21775000Y-4030952D01*
X-21775000Y-4173809D01*
X-21822620Y-4364285D01*
X-21870239Y-4459523D01*
X-21965477Y-4554761D01*
X-22108334Y-4602380D01*
X-22203572Y-4602380D01*
X-22346429Y-4554761D01*
X-22394048Y-4507142D01*
X-22394048Y-4173809D01*
X-22203572Y-4173809D01*
X-22822620Y-4602380D02*
X-22822620Y-3602380D01*
X-23203572Y-3602380D01*
X-23298810Y-3650000D01*
X-23346429Y-3697619D01*
X-23394048Y-3792857D01*
X-23394048Y-3935714D01*
X-23346429Y-4030952D01*
X-23298810Y-4078571D01*
X-23203572Y-4126190D01*
X-22822620Y-4126190D01*
X-23822620Y-4602380D02*
X-23822620Y-3602380D01*
X-24489286Y-3602380D02*
X-24679762Y-3602380D01*
X-24775000Y-3650000D01*
X-24870239Y-3745238D01*
X-24917858Y-3935714D01*
X-24917858Y-4269047D01*
X-24870239Y-4459523D01*
X-24775000Y-4554761D01*
X-24679762Y-4602380D01*
X-24489286Y-4602380D01*
X-24394048Y-4554761D01*
X-24298810Y-4459523D01*
X-24251191Y-4269047D01*
X-24251191Y-3935714D01*
X-24298810Y-3745238D01*
X-24394048Y-3650000D01*
X-24489286Y-3602380D01*
X-26108334Y-4602380D02*
X-26108334Y-3602380D01*
X-26108334Y-4078571D02*
X-26679762Y-4078571D01*
X-26679762Y-4602380D02*
X-26679762Y-3602380D01*
X-27536905Y-4554761D02*
X-27441667Y-4602380D01*
X-27251191Y-4602380D01*
X-27155953Y-4554761D01*
X-27108334Y-4459523D01*
X-27108334Y-4078571D01*
X-27155953Y-3983333D01*
X-27251191Y-3935714D01*
X-27441667Y-3935714D01*
X-27536905Y-3983333D01*
X-27584524Y-4078571D01*
X-27584524Y-4173809D01*
X-27108334Y-4269047D01*
X-28441667Y-4602380D02*
X-28441667Y-4078571D01*
X-28394048Y-3983333D01*
X-28298810Y-3935714D01*
X-28108334Y-3935714D01*
X-28013096Y-3983333D01*
X-28441667Y-4554761D02*
X-28346429Y-4602380D01*
X-28108334Y-4602380D01*
X-28013096Y-4554761D01*
X-27965477Y-4459523D01*
X-27965477Y-4364285D01*
X-28013096Y-4269047D01*
X-28108334Y-4221428D01*
X-28346429Y-4221428D01*
X-28441667Y-4173809D01*
X-29346429Y-4602380D02*
X-29346429Y-3602380D01*
X-29346429Y-4554761D02*
X-29251191Y-4602380D01*
X-29060715Y-4602380D01*
X-28965477Y-4554761D01*
X-28917858Y-4507142D01*
X-28870239Y-4411904D01*
X-28870239Y-4126190D01*
X-28917858Y-4030952D01*
X-28965477Y-3983333D01*
X-29060715Y-3935714D01*
X-29251191Y-3935714D01*
X-29346429Y-3983333D01*
X-30203572Y-4554761D02*
X-30108334Y-4602380D01*
X-29917858Y-4602380D01*
X-29822620Y-4554761D01*
X-29775000Y-4459523D01*
X-29775000Y-4078571D01*
X-29822620Y-3983333D01*
X-29917858Y-3935714D01*
X-30108334Y-3935714D01*
X-30203572Y-3983333D01*
X-30251191Y-4078571D01*
X-30251191Y-4173809D01*
X-29775000Y-4269047D01*
X-30679762Y-4602380D02*
X-30679762Y-3935714D01*
X-30679762Y-4126190D02*
X-30727381Y-4030952D01*
X-30775000Y-3983333D01*
X-30870239Y-3935714D01*
X-30965477Y-3935714D01*
X-32346429Y-4983333D02*
X-32298810Y-4935714D01*
X-32203572Y-4792857D01*
X-32155953Y-4697619D01*
X-32108334Y-4554761D01*
X-32060715Y-4316666D01*
X-32060715Y-4126190D01*
X-32108334Y-3888095D01*
X-32155953Y-3745238D01*
X-32203572Y-3650000D01*
X-32298810Y-3507142D01*
X-32346429Y-3459523D01*
X-33298810Y-4602380D02*
X-32965477Y-4126190D01*
X-32727381Y-4602380D02*
X-32727381Y-3602380D01*
X-33108334Y-3602380D01*
X-33203572Y-3650000D01*
X-33251191Y-3697619D01*
X-33298810Y-3792857D01*
X-33298810Y-3935714D01*
X-33251191Y-4030952D01*
X-33203572Y-4078571D01*
X-33108334Y-4126190D01*
X-32727381Y-4126190D01*
X-33727381Y-4602380D02*
X-33727381Y-3602380D01*
X-34108334Y-3602380D01*
X-34203572Y-3650000D01*
X-34251191Y-3697619D01*
X-34298810Y-3792857D01*
X-34298810Y-3935714D01*
X-34251191Y-4030952D01*
X-34203572Y-4078571D01*
X-34108334Y-4126190D01*
X-33727381Y-4126190D01*
X-34727381Y-4602380D02*
X-34727381Y-3602380D01*
X-35917858Y-3697619D02*
X-35965477Y-3650000D01*
X-36060715Y-3602380D01*
X-36298810Y-3602380D01*
X-36394048Y-3650000D01*
X-36441667Y-3697619D01*
X-36489286Y-3792857D01*
X-36489286Y-3888095D01*
X-36441667Y-4030952D01*
X-35870239Y-4602380D01*
X-36489286Y-4602380D01*
X-36965477Y-4554761D02*
X-36965477Y-4602380D01*
X-36917858Y-4697619D01*
X-36870239Y-4745238D01*
X-37298810Y-3602380D02*
X-37917858Y-3602380D01*
X-37584524Y-3983333D01*
X-37727381Y-3983333D01*
X-37822620Y-4030952D01*
X-37870239Y-4078571D01*
X-37917858Y-4173809D01*
X-37917858Y-4411904D01*
X-37870239Y-4507142D01*
X-37822620Y-4554761D01*
X-37727381Y-4602380D01*
X-37441667Y-4602380D01*
X-37346429Y-4554761D01*
X-37298810Y-4507142D01*
X-38394048Y-4554761D02*
X-38394048Y-4602380D01*
X-38346429Y-4697619D01*
X-38298810Y-4745238D01*
X-39251191Y-3935714D02*
X-39251191Y-4602380D01*
X-39013096Y-3554761D02*
X-38775000Y-4269047D01*
X-39394048Y-4269047D01*
X-39679762Y-4983333D02*
X-39727381Y-4935714D01*
X-39822620Y-4792857D01*
X-39870239Y-4697619D01*
X-39917858Y-4554761D01*
X-39965477Y-4316666D01*
X-39965477Y-4126190D01*
X-39917858Y-3888095D01*
X-39870239Y-3745238D01*
X-39822620Y-3650000D01*
X-39727381Y-3507142D01*
X-39679762Y-3459523D01*
X-3950000Y-32078571D02*
X-3950000Y-33292857D01*
X-3878572Y-33435714D01*
X-3807143Y-33507142D01*
X-3664286Y-33578571D01*
X-3450000Y-33578571D01*
X-3307143Y-33507142D01*
X-3950000Y-33007142D02*
X-3807143Y-33078571D01*
X-3521429Y-33078571D01*
X-3378572Y-33007142D01*
X-3307143Y-32935714D01*
X-3235715Y-32792857D01*
X-3235715Y-32364285D01*
X-3307143Y-32221428D01*
X-3378572Y-32150000D01*
X-3521429Y-32078571D01*
X-3807143Y-32078571D01*
X-3950000Y-32150000D01*
X-4664286Y-33078571D02*
X-4664286Y-32078571D01*
X-4664286Y-31578571D02*
X-4592858Y-31650000D01*
X-4664286Y-31721428D01*
X-4735715Y-31650000D01*
X-4664286Y-31578571D01*
X-4664286Y-31721428D01*
X-5164286Y-32078571D02*
X-5735715Y-32078571D01*
X-5378572Y-31578571D02*
X-5378572Y-32864285D01*
X-5450000Y-33007142D01*
X-5592858Y-33078571D01*
X-5735715Y-33078571D01*
X-6235715Y-33078571D02*
X-6235715Y-31578571D01*
X-6878572Y-33078571D02*
X-6878572Y-32292857D01*
X-6807143Y-32150000D01*
X-6664286Y-32078571D01*
X-6450000Y-32078571D01*
X-6307143Y-32150000D01*
X-6235715Y-32221428D01*
X-8235715Y-32078571D02*
X-8235715Y-33078571D01*
X-7592858Y-32078571D02*
X-7592858Y-32864285D01*
X-7664286Y-33007142D01*
X-7807143Y-33078571D01*
X-8021429Y-33078571D01*
X-8164286Y-33007142D01*
X-8235715Y-32935714D01*
X-8950000Y-33078571D02*
X-8950000Y-31578571D01*
X-8950000Y-32150000D02*
X-9092858Y-32078571D01*
X-9378572Y-32078571D01*
X-9521429Y-32150000D01*
X-9592858Y-32221428D01*
X-9664286Y-32364285D01*
X-9664286Y-32792857D01*
X-9592858Y-32935714D01*
X-9521429Y-33007142D01*
X-9378572Y-33078571D01*
X-9092858Y-33078571D01*
X-8950000Y-33007142D01*
X-10307143Y-32935714D02*
X-10378572Y-33007142D01*
X-10307143Y-33078571D01*
X-10235715Y-33007142D01*
X-10307143Y-32935714D01*
X-10307143Y-33078571D01*
X-11664286Y-33007142D02*
X-11521429Y-33078571D01*
X-11235715Y-33078571D01*
X-11092858Y-33007142D01*
X-11021429Y-32935714D01*
X-10950000Y-32792857D01*
X-10950000Y-32364285D01*
X-11021429Y-32221428D01*
X-11092858Y-32150000D01*
X-11235715Y-32078571D01*
X-11521429Y-32078571D01*
X-11664286Y-32150000D01*
X-12521429Y-33078571D02*
X-12378572Y-33007142D01*
X-12307143Y-32935714D01*
X-12235715Y-32792857D01*
X-12235715Y-32364285D01*
X-12307143Y-32221428D01*
X-12378572Y-32150000D01*
X-12521429Y-32078571D01*
X-12735715Y-32078571D01*
X-12878572Y-32150000D01*
X-12950000Y-32221428D01*
X-13021429Y-32364285D01*
X-13021429Y-32792857D01*
X-12950000Y-32935714D01*
X-12878572Y-33007142D01*
X-12735715Y-33078571D01*
X-12521429Y-33078571D01*
X-13664286Y-33078571D02*
X-13664286Y-32078571D01*
X-13664286Y-32221428D02*
X-13735715Y-32150000D01*
X-13878572Y-32078571D01*
X-14092858Y-32078571D01*
X-14235715Y-32150000D01*
X-14307143Y-32292857D01*
X-14307143Y-33078571D01*
X-14307143Y-32292857D02*
X-14378572Y-32150000D01*
X-14521429Y-32078571D01*
X-14735715Y-32078571D01*
X-14878572Y-32150000D01*
X-14950000Y-32292857D01*
X-14950000Y-33078571D01*
X-16735715Y-31507142D02*
X-15450000Y-33435714D01*
X-18092858Y-32935714D02*
X-18021429Y-33007142D01*
X-17807143Y-33078571D01*
X-17664286Y-33078571D01*
X-17450000Y-33007142D01*
X-17307143Y-32864285D01*
X-17235715Y-32721428D01*
X-17164286Y-32435714D01*
X-17164286Y-32221428D01*
X-17235715Y-31935714D01*
X-17307143Y-31792857D01*
X-17450000Y-31650000D01*
X-17664286Y-31578571D01*
X-17807143Y-31578571D01*
X-18021429Y-31650000D01*
X-18092858Y-31721428D01*
X-18735715Y-33078571D02*
X-18735715Y-31578571D01*
X-19378572Y-33078571D02*
X-19378572Y-32292857D01*
X-19307143Y-32150000D01*
X-19164286Y-32078571D01*
X-18950000Y-32078571D01*
X-18807143Y-32150000D01*
X-18735715Y-32221428D01*
X-20092858Y-33078571D02*
X-20092858Y-32078571D01*
X-20092858Y-32364285D02*
X-20164286Y-32221428D01*
X-20235715Y-32150000D01*
X-20378572Y-32078571D01*
X-20521429Y-32078571D01*
X-21021429Y-33078571D02*
X-21021429Y-32078571D01*
X-21021429Y-31578571D02*
X-20950000Y-31650000D01*
X-21021429Y-31721428D01*
X-21092858Y-31650000D01*
X-21021429Y-31578571D01*
X-21021429Y-31721428D01*
X-21664286Y-33007142D02*
X-21807143Y-33078571D01*
X-22092858Y-33078571D01*
X-22235715Y-33007142D01*
X-22307143Y-32864285D01*
X-22307143Y-32792857D01*
X-22235715Y-32650000D01*
X-22092858Y-32578571D01*
X-21878572Y-32578571D01*
X-21735715Y-32507142D01*
X-21664286Y-32364285D01*
X-21664286Y-32292857D01*
X-21735715Y-32150000D01*
X-21878572Y-32078571D01*
X-22092858Y-32078571D01*
X-22235715Y-32150000D01*
X-22807143Y-31578571D02*
X-23164286Y-33078571D01*
X-23450000Y-32007142D01*
X-23735715Y-33078571D01*
X-24092858Y-31578571D01*
X-25307143Y-33078571D02*
X-25307143Y-32292857D01*
X-25235715Y-32150000D01*
X-25092858Y-32078571D01*
X-24807143Y-32078571D01*
X-24664286Y-32150000D01*
X-25307143Y-33007142D02*
X-25164286Y-33078571D01*
X-24807143Y-33078571D01*
X-24664286Y-33007142D01*
X-24592858Y-32864285D01*
X-24592858Y-32721428D01*
X-24664286Y-32578571D01*
X-24807143Y-32507142D01*
X-25164286Y-32507142D01*
X-25307143Y-32435714D01*
X-26664286Y-32078571D02*
X-26664286Y-33292857D01*
X-26592858Y-33435714D01*
X-26521429Y-33507142D01*
X-26378572Y-33578571D01*
X-26164286Y-33578571D01*
X-26021429Y-33507142D01*
X-26664286Y-33007142D02*
X-26521429Y-33078571D01*
X-26235715Y-33078571D01*
X-26092858Y-33007142D01*
X-26021429Y-32935714D01*
X-25950000Y-32792857D01*
X-25950000Y-32364285D01*
X-26021429Y-32221428D01*
X-26092858Y-32150000D01*
X-26235715Y-32078571D01*
X-26521429Y-32078571D01*
X-26664286Y-32150000D01*
X-27450000Y-33078571D02*
X-27735715Y-33078571D01*
X-27878572Y-33007142D01*
X-27950000Y-32935714D01*
X-28092858Y-32721428D01*
X-28164286Y-32435714D01*
X-28164286Y-31864285D01*
X-28092858Y-31721428D01*
X-28021429Y-31650000D01*
X-27878572Y-31578571D01*
X-27592858Y-31578571D01*
X-27450000Y-31650000D01*
X-27378572Y-31721428D01*
X-27307143Y-31864285D01*
X-27307143Y-32221428D01*
X-27378572Y-32364285D01*
X-27450000Y-32435714D01*
X-27592858Y-32507142D01*
X-27878572Y-32507142D01*
X-28021429Y-32435714D01*
X-28092858Y-32364285D01*
X-28164286Y-32221428D01*
X-29592858Y-33078571D02*
X-28735715Y-33078571D01*
X-29164286Y-33078571D02*
X-29164286Y-31578571D01*
X-29021429Y-31792857D01*
X-28878572Y-31935714D01*
X-28735715Y-32007142D01*
X-31307143Y-31507142D02*
X-30021429Y-33435714D01*
X-31807143Y-33078571D02*
X-31807143Y-32078571D01*
X-31807143Y-32364285D02*
X-31878572Y-32221428D01*
X-31950000Y-32150000D01*
X-32092858Y-32078571D01*
X-32235715Y-32078571D01*
X-32735715Y-32078571D02*
X-32735715Y-33578571D01*
X-32735715Y-32150000D02*
X-32878572Y-32078571D01*
X-33164286Y-32078571D01*
X-33307143Y-32150000D01*
X-33378572Y-32221428D01*
X-33450000Y-32364285D01*
X-33450000Y-32792857D01*
X-33378572Y-32935714D01*
X-33307143Y-33007142D01*
X-33164286Y-33078571D01*
X-32878572Y-33078571D01*
X-32735715Y-33007142D01*
X-34092858Y-33078571D02*
X-34092858Y-32078571D01*
X-34092858Y-31578571D02*
X-34021429Y-31650000D01*
X-34092858Y-31721428D01*
X-34164286Y-31650000D01*
X-34092858Y-31578571D01*
X-34092858Y-31721428D01*
X-34450000Y-33221428D02*
X-35592858Y-33221428D01*
X-36164286Y-33078571D02*
X-36021429Y-33007142D01*
X-35950000Y-32864285D01*
X-35950000Y-31578571D01*
X-37307143Y-33007142D02*
X-37164286Y-33078571D01*
X-36878572Y-33078571D01*
X-36735715Y-33007142D01*
X-36664286Y-32864285D01*
X-36664286Y-32292857D01*
X-36735715Y-32150000D01*
X-36878572Y-32078571D01*
X-37164286Y-32078571D01*
X-37307143Y-32150000D01*
X-37378572Y-32292857D01*
X-37378572Y-32435714D01*
X-36664286Y-32578571D01*
X-37878572Y-32078571D02*
X-38235715Y-33078571D01*
X-38592858Y-32078571D01*
X-39735715Y-33007142D02*
X-39592858Y-33078571D01*
X-39307143Y-33078571D01*
X-39164286Y-33007142D01*
X-39092858Y-32864285D01*
X-39092858Y-32292857D01*
X-39164286Y-32150000D01*
X-39307143Y-32078571D01*
X-39592858Y-32078571D01*
X-39735715Y-32150000D01*
X-39807143Y-32292857D01*
X-39807143Y-32435714D01*
X-39092858Y-32578571D01*
X-40664286Y-33078571D02*
X-40521429Y-33007142D01*
X-40450001Y-32864285D01*
X-40450001Y-31578571D01*
X-40878572Y-33221428D02*
X-42021429Y-33221428D01*
X-42307143Y-33007142D02*
X-42450001Y-33078571D01*
X-42735715Y-33078571D01*
X-42878572Y-33007142D01*
X-42950001Y-32864285D01*
X-42950001Y-32792857D01*
X-42878572Y-32650000D01*
X-42735715Y-32578571D01*
X-42521429Y-32578571D01*
X-42378572Y-32507142D01*
X-42307143Y-32364285D01*
X-42307143Y-32292857D01*
X-42378572Y-32150000D01*
X-42521429Y-32078571D01*
X-42735715Y-32078571D01*
X-42878572Y-32150000D01*
X-43592858Y-33078571D02*
X-43592858Y-31578571D01*
X-44235715Y-33078571D02*
X-44235715Y-32292857D01*
X-44164286Y-32150000D01*
X-44021429Y-32078571D01*
X-43807143Y-32078571D01*
X-43664286Y-32150000D01*
X-43592858Y-32221428D01*
X-44950001Y-33078571D02*
X-44950001Y-32078571D01*
X-44950001Y-31578571D02*
X-44878572Y-31650000D01*
X-44950001Y-31721428D01*
X-45021429Y-31650000D01*
X-44950001Y-31578571D01*
X-44950001Y-31721428D01*
X-45450001Y-32078571D02*
X-46021429Y-32078571D01*
X-45664286Y-33078571D02*
X-45664286Y-31792857D01*
X-45735715Y-31650000D01*
X-45878572Y-31578571D01*
X-46021429Y-31578571D01*
X-46307143Y-32078571D02*
X-46878572Y-32078571D01*
X-46521429Y-31578571D02*
X-46521429Y-32864285D01*
X-46592858Y-33007142D01*
X-46735715Y-33078571D01*
X-46878572Y-33078571D01*
X-47950001Y-33007142D02*
X-47807143Y-33078571D01*
X-47521429Y-33078571D01*
X-47378572Y-33007142D01*
X-47307143Y-32864285D01*
X-47307143Y-32292857D01*
X-47378572Y-32150000D01*
X-47521429Y-32078571D01*
X-47807143Y-32078571D01*
X-47950001Y-32150000D01*
X-48021429Y-32292857D01*
X-48021429Y-32435714D01*
X-47307143Y-32578571D01*
X-48664286Y-33078571D02*
X-48664286Y-32078571D01*
X-48664286Y-32364285D02*
X-48735715Y-32221428D01*
X-48807143Y-32150000D01*
X-48950001Y-32078571D01*
X-49092858Y-32078571D01*
X-49235715Y-33221428D02*
X-50378572Y-33221428D01*
X-50735715Y-33078571D02*
X-50735715Y-31578571D01*
X-51378572Y-33078571D02*
X-51378572Y-32292857D01*
X-51307143Y-32150000D01*
X-51164286Y-32078571D01*
X-50950001Y-32078571D01*
X-50807143Y-32150000D01*
X-50735715Y-32221428D01*
X-52735715Y-33078571D02*
X-52735715Y-32292857D01*
X-52664286Y-32150000D01*
X-52521429Y-32078571D01*
X-52235715Y-32078571D01*
X-52092858Y-32150000D01*
X-52735715Y-33007142D02*
X-52592858Y-33078571D01*
X-52235715Y-33078571D01*
X-52092858Y-33007142D01*
X-52021429Y-32864285D01*
X-52021429Y-32721428D01*
X-52092858Y-32578571D01*
X-52235715Y-32507142D01*
X-52592858Y-32507142D01*
X-52735715Y-32435714D01*
X-53235715Y-32078571D02*
X-53807143Y-32078571D01*
X-53450001Y-31578571D02*
X-53450001Y-32864285D01*
X-53521429Y-33007142D01*
X-53664286Y-33078571D01*
X-53807143Y-33078571D01*
D11*
X-10414286Y-23880952D02*
X-9580953Y-22690476D01*
X-8985715Y-23880952D02*
X-8985715Y-21380952D01*
X-9938096Y-21380952D01*
X-10176191Y-21500000D01*
X-10295239Y-21619047D01*
X-10414286Y-21857142D01*
X-10414286Y-22214285D01*
X-10295239Y-22452380D01*
X-10176191Y-22571428D01*
X-9938096Y-22690476D01*
X-8985715Y-22690476D01*
X-11485715Y-23880952D02*
X-11485715Y-21380952D01*
X-12438096Y-21380952D01*
X-12676191Y-21500000D01*
X-12795239Y-21619047D01*
X-12914286Y-21857142D01*
X-12914286Y-22214285D01*
X-12795239Y-22452380D01*
X-12676191Y-22571428D01*
X-12438096Y-22690476D01*
X-11485715Y-22690476D01*
X-13985715Y-23880952D02*
X-13985715Y-21380952D01*
X-18271429Y-23880952D02*
X-17080953Y-23880952D01*
X-17080953Y-21380952D01*
X-20057143Y-23761904D02*
X-19819048Y-23880952D01*
X-19342858Y-23880952D01*
X-19104762Y-23761904D01*
X-18985715Y-23523809D01*
X-18985715Y-22571428D01*
X-19104762Y-22333333D01*
X-19342858Y-22214285D01*
X-19819048Y-22214285D01*
X-20057143Y-22333333D01*
X-20176191Y-22571428D01*
X-20176191Y-22809523D01*
X-18985715Y-23047619D01*
X-21009524Y-22214285D02*
X-21604762Y-23880952D01*
X-22200000Y-22214285D01*
X-24104762Y-23761904D02*
X-23866667Y-23880952D01*
X-23390477Y-23880952D01*
X-23152381Y-23761904D01*
X-23033334Y-23523809D01*
X-23033334Y-22571428D01*
X-23152381Y-22333333D01*
X-23390477Y-22214285D01*
X-23866667Y-22214285D01*
X-24104762Y-22333333D01*
X-24223810Y-22571428D01*
X-24223810Y-22809523D01*
X-23033334Y-23047619D01*
X-25652381Y-23880952D02*
X-25414286Y-23761904D01*
X-25295239Y-23523809D01*
X-25295239Y-21380952D01*
X-28390477Y-23761904D02*
X-28747620Y-23880952D01*
X-29342858Y-23880952D01*
X-29580953Y-23761904D01*
X-29700000Y-23642857D01*
X-29819048Y-23404761D01*
X-29819048Y-23166666D01*
X-29700000Y-22928571D01*
X-29580953Y-22809523D01*
X-29342858Y-22690476D01*
X-28866667Y-22571428D01*
X-28628572Y-22452380D01*
X-28509524Y-22333333D01*
X-28390477Y-22095238D01*
X-28390477Y-21857142D01*
X-28509524Y-21619047D01*
X-28628572Y-21500000D01*
X-28866667Y-21380952D01*
X-29461905Y-21380952D01*
X-29819048Y-21500000D01*
X-30890477Y-23880952D02*
X-30890477Y-21380952D01*
X-31961905Y-23880952D02*
X-31961905Y-22571428D01*
X-31842858Y-22333333D01*
X-31604762Y-22214285D01*
X-31247620Y-22214285D01*
X-31009524Y-22333333D01*
X-30890477Y-22452380D01*
X-33152381Y-23880952D02*
X-33152381Y-22214285D01*
X-33152381Y-21380952D02*
X-33033334Y-21500000D01*
X-33152381Y-21619047D01*
X-33271429Y-21500000D01*
X-33152381Y-21380952D01*
X-33152381Y-21619047D01*
X-33985715Y-22214285D02*
X-34938096Y-22214285D01*
X-34342858Y-23880952D02*
X-34342858Y-21738095D01*
X-34461905Y-21500000D01*
X-34700000Y-21380952D01*
X-34938096Y-21380952D01*
X-35414286Y-22214285D02*
X-36366667Y-22214285D01*
X-35771429Y-21380952D02*
X-35771429Y-23523809D01*
X-35890477Y-23761904D01*
X-36128572Y-23880952D01*
X-36366667Y-23880952D01*
X-38152381Y-23761904D02*
X-37914286Y-23880952D01*
X-37438096Y-23880952D01*
X-37200000Y-23761904D01*
X-37080953Y-23523809D01*
X-37080953Y-22571428D01*
X-37200000Y-22333333D01*
X-37438096Y-22214285D01*
X-37914286Y-22214285D01*
X-38152381Y-22333333D01*
X-38271429Y-22571428D01*
X-38271429Y-22809523D01*
X-37080953Y-23047619D01*
X-39342858Y-23880952D02*
X-39342858Y-22214285D01*
X-39342858Y-22690476D02*
X-39461905Y-22452380D01*
X-39580953Y-22333333D01*
X-39819048Y-22214285D01*
X-40057143Y-22214285D01*
X-42795239Y-23880952D02*
X-42795239Y-21380952D01*
X-42795239Y-22571428D02*
X-44223810Y-22571428D01*
X-44223810Y-23880952D02*
X-44223810Y-21380952D01*
X-46485715Y-23880952D02*
X-46485715Y-22571428D01*
X-46366667Y-22333333D01*
X-46128572Y-22214285D01*
X-45652381Y-22214285D01*
X-45414286Y-22333333D01*
X-46485715Y-23761904D02*
X-46247620Y-23880952D01*
X-45652381Y-23880952D01*
X-45414286Y-23761904D01*
X-45295239Y-23523809D01*
X-45295239Y-23285714D01*
X-45414286Y-23047619D01*
X-45652381Y-22928571D01*
X-46247620Y-22928571D01*
X-46485715Y-22809523D01*
X-47319048Y-22214285D02*
X-48271429Y-22214285D01*
X-47676191Y-21380952D02*
X-47676191Y-23523809D01*
X-47795239Y-23761904D01*
X-48033334Y-23880952D01*
X-48271429Y-23880952D01*
D10*
X-2725000Y-34675000D02*
X-54700000Y-34675000D01*
D11*
X-24259524Y-37054761D02*
X-23307143Y-37054761D01*
X-23211905Y-38007142D01*
X-23307143Y-37911904D01*
X-23497620Y-37816666D01*
X-23973810Y-37816666D01*
X-24164286Y-37911904D01*
X-24259524Y-38007142D01*
X-24354762Y-38197619D01*
X-24354762Y-38673809D01*
X-24259524Y-38864285D01*
X-24164286Y-38959523D01*
X-23973810Y-39054761D01*
X-23497620Y-39054761D01*
X-23307143Y-38959523D01*
X-23211905Y-38864285D01*
X-24926191Y-37054761D02*
X-25592858Y-39054761D01*
X-26259524Y-37054761D01*
X-28354762Y-38959523D02*
X-28545239Y-39054761D01*
X-28926191Y-39054761D01*
X-29116667Y-38959523D01*
X-29211905Y-38769047D01*
X-29211905Y-38673809D01*
X-29116667Y-38483333D01*
X-28926191Y-38388095D01*
X-28640477Y-38388095D01*
X-28450000Y-38292857D01*
X-28354762Y-38102380D01*
X-28354762Y-38007142D01*
X-28450000Y-37816666D01*
X-28640477Y-37721428D01*
X-28926191Y-37721428D01*
X-29116667Y-37816666D01*
X-30069048Y-39054761D02*
X-30069048Y-37721428D01*
X-30069048Y-37054761D02*
X-29973810Y-37150000D01*
X-30069048Y-37245238D01*
X-30164286Y-37150000D01*
X-30069048Y-37054761D01*
X-30069048Y-37245238D01*
X-31878572Y-39054761D02*
X-31878572Y-37054761D01*
X-31878572Y-38959523D02*
X-31688096Y-39054761D01*
X-31307143Y-39054761D01*
X-31116667Y-38959523D01*
X-31021429Y-38864285D01*
X-30926191Y-38673809D01*
X-30926191Y-38102380D01*
X-31021429Y-37911904D01*
X-31116667Y-37816666D01*
X-31307143Y-37721428D01*
X-31688096Y-37721428D01*
X-31878572Y-37816666D01*
X-33592858Y-38959523D02*
X-33402381Y-39054761D01*
X-33021429Y-39054761D01*
X-32830953Y-38959523D01*
X-32735715Y-38769047D01*
X-32735715Y-38007142D01*
X-32830953Y-37816666D01*
X-33021429Y-37721428D01*
X-33402381Y-37721428D01*
X-33592858Y-37816666D01*
X-33688096Y-38007142D01*
X-33688096Y-38197619D01*
X-32735715Y-38388095D01*
D10*
X-2800000Y-19400000D02*
X-54700000Y-19400000D01*
X-19775000Y-12377380D02*
X-19441667Y-11901190D01*
X-19203572Y-12377380D02*
X-19203572Y-11377380D01*
X-19584524Y-11377380D01*
X-19679762Y-11425000D01*
X-19727381Y-11472619D01*
X-19775000Y-11567857D01*
X-19775000Y-11710714D01*
X-19727381Y-11805952D01*
X-19679762Y-11853571D01*
X-19584524Y-11901190D01*
X-19203572Y-11901190D01*
X-20203572Y-12377380D02*
X-20203572Y-11377380D01*
X-20584524Y-11377380D01*
X-20679762Y-11425000D01*
X-20727381Y-11472619D01*
X-20775000Y-11567857D01*
X-20775000Y-11710714D01*
X-20727381Y-11805952D01*
X-20679762Y-11853571D01*
X-20584524Y-11901190D01*
X-20203572Y-11901190D01*
X-21203572Y-12377380D02*
X-21203572Y-11377380D01*
X-22965477Y-11425000D02*
X-22870239Y-11377380D01*
X-22727381Y-11377380D01*
X-22584524Y-11425000D01*
X-22489286Y-11520238D01*
X-22441667Y-11615476D01*
X-22394048Y-11805952D01*
X-22394048Y-11948809D01*
X-22441667Y-12139285D01*
X-22489286Y-12234523D01*
X-22584524Y-12329761D01*
X-22727381Y-12377380D01*
X-22822620Y-12377380D01*
X-22965477Y-12329761D01*
X-23013096Y-12282142D01*
X-23013096Y-11948809D01*
X-22822620Y-11948809D01*
X-23441667Y-12377380D02*
X-23441667Y-11377380D01*
X-23822620Y-11377380D01*
X-23917858Y-11425000D01*
X-23965477Y-11472619D01*
X-24013096Y-11567857D01*
X-24013096Y-11710714D01*
X-23965477Y-11805952D01*
X-23917858Y-11853571D01*
X-23822620Y-11901190D01*
X-23441667Y-11901190D01*
X-24441667Y-12377380D02*
X-24441667Y-11377380D01*
X-25108334Y-11377380D02*
X-25298810Y-11377380D01*
X-25394048Y-11425000D01*
X-25489286Y-11520238D01*
X-25536905Y-11710714D01*
X-25536905Y-12044047D01*
X-25489286Y-12234523D01*
X-25394048Y-12329761D01*
X-25298810Y-12377380D01*
X-25108334Y-12377380D01*
X-25013096Y-12329761D01*
X-24917858Y-12234523D01*
X-24870239Y-12044047D01*
X-24870239Y-11710714D01*
X-24917858Y-11520238D01*
X-25013096Y-11425000D01*
X-25108334Y-11377380D01*
X-26727381Y-11853571D02*
X-27060715Y-11853571D01*
X-27203572Y-12377380D02*
X-26727381Y-12377380D01*
X-26727381Y-11377380D01*
X-27203572Y-11377380D01*
X-27536905Y-12377380D02*
X-28060715Y-11710714D01*
X-27536905Y-11710714D02*
X-28060715Y-12377380D01*
X-28298810Y-11710714D02*
X-28679762Y-11710714D01*
X-28441667Y-11377380D02*
X-28441667Y-12234523D01*
X-28489286Y-12329761D01*
X-28584524Y-12377380D01*
X-28679762Y-12377380D01*
X-29394048Y-12329761D02*
X-29298810Y-12377380D01*
X-29108334Y-12377380D01*
X-29013096Y-12329761D01*
X-28965477Y-12234523D01*
X-28965477Y-11853571D01*
X-29013096Y-11758333D01*
X-29108334Y-11710714D01*
X-29298810Y-11710714D01*
X-29394048Y-11758333D01*
X-29441667Y-11853571D01*
X-29441667Y-11948809D01*
X-28965477Y-12044047D01*
X-29870239Y-11710714D02*
X-29870239Y-12377380D01*
X-29870239Y-11805952D02*
X-29917858Y-11758333D01*
X-30013096Y-11710714D01*
X-30155953Y-11710714D01*
X-30251191Y-11758333D01*
X-30298810Y-11853571D01*
X-30298810Y-12377380D01*
X-30727381Y-12329761D02*
X-30822620Y-12377380D01*
X-31013096Y-12377380D01*
X-31108334Y-12329761D01*
X-31155953Y-12234523D01*
X-31155953Y-12186904D01*
X-31108334Y-12091666D01*
X-31013096Y-12044047D01*
X-30870239Y-12044047D01*
X-30775000Y-11996428D01*
X-30727381Y-11901190D01*
X-30727381Y-11853571D01*
X-30775000Y-11758333D01*
X-30870239Y-11710714D01*
X-31013096Y-11710714D01*
X-31108334Y-11758333D01*
X-31584524Y-12377380D02*
X-31584524Y-11710714D01*
X-31584524Y-11377380D02*
X-31536905Y-11425000D01*
X-31584524Y-11472619D01*
X-31632143Y-11425000D01*
X-31584524Y-11377380D01*
X-31584524Y-11472619D01*
X-32203572Y-12377380D02*
X-32108334Y-12329761D01*
X-32060715Y-12282142D01*
X-32013096Y-12186904D01*
X-32013096Y-11901190D01*
X-32060715Y-11805952D01*
X-32108334Y-11758333D01*
X-32203572Y-11710714D01*
X-32346429Y-11710714D01*
X-32441667Y-11758333D01*
X-32489286Y-11805952D01*
X-32536905Y-11901190D01*
X-32536905Y-12186904D01*
X-32489286Y-12282142D01*
X-32441667Y-12329761D01*
X-32346429Y-12377380D01*
X-32203572Y-12377380D01*
X-32965477Y-11710714D02*
X-32965477Y-12377380D01*
X-32965477Y-11805952D02*
X-33013096Y-11758333D01*
X-33108334Y-11710714D01*
X-33251191Y-11710714D01*
X-33346429Y-11758333D01*
X-33394048Y-11853571D01*
X-33394048Y-12377380D01*
X-34632143Y-12377380D02*
X-34632143Y-11377380D01*
X-34632143Y-11853571D02*
X-35203572Y-11853571D01*
X-35203572Y-12377380D02*
X-35203572Y-11377380D01*
X-36060715Y-12329761D02*
X-35965477Y-12377380D01*
X-35775000Y-12377380D01*
X-35679762Y-12329761D01*
X-35632143Y-12234523D01*
X-35632143Y-11853571D01*
X-35679762Y-11758333D01*
X-35775000Y-11710714D01*
X-35965477Y-11710714D01*
X-36060715Y-11758333D01*
X-36108334Y-11853571D01*
X-36108334Y-11948809D01*
X-35632143Y-12044047D01*
X-36965477Y-12377380D02*
X-36965477Y-11853571D01*
X-36917858Y-11758333D01*
X-36822620Y-11710714D01*
X-36632143Y-11710714D01*
X-36536905Y-11758333D01*
X-36965477Y-12329761D02*
X-36870239Y-12377380D01*
X-36632143Y-12377380D01*
X-36536905Y-12329761D01*
X-36489286Y-12234523D01*
X-36489286Y-12139285D01*
X-36536905Y-12044047D01*
X-36632143Y-11996428D01*
X-36870239Y-11996428D01*
X-36965477Y-11948809D01*
X-37870239Y-12377380D02*
X-37870239Y-11377380D01*
X-37870239Y-12329761D02*
X-37775000Y-12377380D01*
X-37584524Y-12377380D01*
X-37489286Y-12329761D01*
X-37441667Y-12282142D01*
X-37394048Y-12186904D01*
X-37394048Y-11901190D01*
X-37441667Y-11805952D01*
X-37489286Y-11758333D01*
X-37584524Y-11710714D01*
X-37775000Y-11710714D01*
X-37870239Y-11758333D01*
X-38727381Y-12329761D02*
X-38632143Y-12377380D01*
X-38441667Y-12377380D01*
X-38346429Y-12329761D01*
X-38298810Y-12234523D01*
X-38298810Y-11853571D01*
X-38346429Y-11758333D01*
X-38441667Y-11710714D01*
X-38632143Y-11710714D01*
X-38727381Y-11758333D01*
X-38775000Y-11853571D01*
X-38775000Y-11948809D01*
X-38298810Y-12044047D01*
X-39203572Y-12377380D02*
X-39203572Y-11710714D01*
X-39203572Y-11901190D02*
X-39251191Y-11805952D01*
X-39298810Y-11758333D01*
X-39394048Y-11710714D01*
X-39489286Y-11710714D01*
D11*
X-22134286Y-14824761D02*
X-23372381Y-14824761D01*
X-22705715Y-15586666D01*
X-22991429Y-15586666D01*
X-23181905Y-15681904D01*
X-23277143Y-15777142D01*
X-23372381Y-15967619D01*
X-23372381Y-16443809D01*
X-23277143Y-16634285D01*
X-23181905Y-16729523D01*
X-22991429Y-16824761D01*
X-22420000Y-16824761D01*
X-22229524Y-16729523D01*
X-22134286Y-16634285D01*
X-23943810Y-14824761D02*
X-24610477Y-16824761D01*
X-25277143Y-14824761D01*
X-25753334Y-14824761D02*
X-26991429Y-14824761D01*
X-26324762Y-15586666D01*
X-26610477Y-15586666D01*
X-26800953Y-15681904D01*
X-26896191Y-15777142D01*
X-26991429Y-15967619D01*
X-26991429Y-16443809D01*
X-26896191Y-16634285D01*
X-26800953Y-16729523D01*
X-26610477Y-16824761D01*
X-26039048Y-16824761D01*
X-25848572Y-16729523D01*
X-25753334Y-16634285D01*
X-29277143Y-16729523D02*
X-29467620Y-16824761D01*
X-29848572Y-16824761D01*
X-30039048Y-16729523D01*
X-30134286Y-16539047D01*
X-30134286Y-16443809D01*
X-30039048Y-16253333D01*
X-29848572Y-16158095D01*
X-29562858Y-16158095D01*
X-29372381Y-16062857D01*
X-29277143Y-15872380D01*
X-29277143Y-15777142D01*
X-29372381Y-15586666D01*
X-29562858Y-15491428D01*
X-29848572Y-15491428D01*
X-30039048Y-15586666D01*
X-30991429Y-16824761D02*
X-30991429Y-15491428D01*
X-30991429Y-14824761D02*
X-30896191Y-14920000D01*
X-30991429Y-15015238D01*
X-31086667Y-14920000D01*
X-30991429Y-14824761D01*
X-30991429Y-15015238D01*
X-32800953Y-16824761D02*
X-32800953Y-14824761D01*
X-32800953Y-16729523D02*
X-32610477Y-16824761D01*
X-32229524Y-16824761D01*
X-32039048Y-16729523D01*
X-31943810Y-16634285D01*
X-31848572Y-16443809D01*
X-31848572Y-15872380D01*
X-31943810Y-15681904D01*
X-32039048Y-15586666D01*
X-32229524Y-15491428D01*
X-32610477Y-15491428D01*
X-32800953Y-15586666D01*
X-34515239Y-16729523D02*
X-34324762Y-16824761D01*
X-33943810Y-16824761D01*
X-33753334Y-16729523D01*
X-33658096Y-16539047D01*
X-33658096Y-15777142D01*
X-33753334Y-15586666D01*
X-33943810Y-15491428D01*
X-34324762Y-15491428D01*
X-34515239Y-15586666D01*
X-34610477Y-15777142D01*
X-34610477Y-15967619D01*
X-33658096Y-16158095D01*
D10*
X-4190358Y-43547380D02*
X-4226072Y-43495000D01*
X-4297500Y-43442619D01*
X-4476072Y-43442619D01*
X-4547500Y-43495000D01*
X-4583215Y-43547380D01*
X-4618929Y-43652142D01*
X-4618929Y-43756904D01*
X-4583215Y-43914047D01*
X-4154643Y-44542619D01*
X-4618929Y-44542619D01*
X-5333215Y-44542619D02*
X-4904643Y-44542619D01*
X-5118929Y-44542619D02*
X-5118929Y-43442619D01*
X-5047500Y-43599761D01*
X-4976072Y-43704523D01*
X-4904643Y-43756904D01*
X-6761786Y-43547380D02*
X-6797500Y-43495000D01*
X-6868929Y-43442619D01*
X-7047500Y-43442619D01*
X-7118929Y-43495000D01*
X-7154643Y-43547380D01*
X-7190358Y-43652142D01*
X-7190358Y-43756904D01*
X-7154643Y-43914047D01*
X-6726072Y-44542619D01*
X-7190358Y-44542619D01*
X-7654643Y-43442619D02*
X-7726072Y-43442619D01*
X-7797500Y-43495000D01*
X-7833215Y-43547380D01*
X-7868929Y-43652142D01*
X-7904643Y-43861666D01*
X-7904643Y-44123571D01*
X-7868929Y-44333095D01*
X-7833215Y-44437857D01*
X-7797500Y-44490238D01*
X-7726072Y-44542619D01*
X-7654643Y-44542619D01*
X-7583215Y-44490238D01*
X-7547500Y-44437857D01*
X-7511786Y-44333095D01*
X-7476072Y-44123571D01*
X-7476072Y-43861666D01*
X-7511786Y-43652142D01*
X-7547500Y-43547380D01*
X-7583215Y-43495000D01*
X-7654643Y-43442619D01*
X-9761786Y-44542619D02*
X-9333215Y-44542619D01*
X-9547501Y-44542619D02*
X-9547501Y-43442619D01*
X-9476072Y-43599761D01*
X-9404643Y-43704523D01*
X-9333215Y-43756904D01*
X-10404643Y-43442619D02*
X-10261786Y-43442619D01*
X-10190358Y-43495000D01*
X-10154643Y-43547380D01*
X-10083215Y-43704523D01*
X-10047501Y-43914047D01*
X-10047501Y-44333095D01*
X-10083215Y-44437857D01*
X-10118929Y-44490238D01*
X-10190358Y-44542619D01*
X-10333215Y-44542619D01*
X-10404643Y-44490238D01*
X-10440358Y-44437857D01*
X-10476072Y-44333095D01*
X-10476072Y-44071190D01*
X-10440358Y-43966428D01*
X-10404643Y-43914047D01*
X-10333215Y-43861666D01*
X-10190358Y-43861666D01*
X-10118929Y-43914047D01*
X-10083215Y-43966428D01*
X-10047501Y-44071190D01*
X-12333215Y-43495000D02*
X-12261786Y-43442619D01*
X-12154643Y-43442619D01*
X-12047501Y-43495000D01*
X-11976072Y-43599761D01*
X-11940358Y-43704523D01*
X-11904643Y-43914047D01*
X-11904643Y-44071190D01*
X-11940358Y-44280714D01*
X-11976072Y-44385476D01*
X-12047501Y-44490238D01*
X-12154643Y-44542619D01*
X-12226072Y-44542619D01*
X-12333215Y-44490238D01*
X-12368929Y-44437857D01*
X-12368929Y-44071190D01*
X-12226072Y-44071190D01*
X-12690358Y-44542619D02*
X-12690358Y-43442619D01*
X-13118929Y-44542619D01*
X-13118929Y-43442619D01*
X-13476072Y-44542619D02*
X-13476072Y-43442619D01*
X-13654643Y-43442619D01*
X-13761786Y-43495000D01*
X-13833215Y-43599761D01*
X-13868929Y-43704523D01*
X-13904643Y-43914047D01*
X-13904643Y-44071190D01*
X-13868929Y-44280714D01*
X-13833215Y-44385476D01*
X-13761786Y-44490238D01*
X-13654643Y-44542619D01*
X-13476072Y-44542619D01*
X-15190358Y-44542619D02*
X-14761786Y-44542619D01*
X-14976072Y-44542619D02*
X-14976072Y-43442619D01*
X-14904643Y-43599761D01*
X-14833215Y-43704523D01*
X-14761786Y-43756904D01*
X-15476072Y-43547380D02*
X-15511786Y-43495000D01*
X-15583215Y-43442619D01*
X-15761786Y-43442619D01*
X-15833215Y-43495000D01*
X-15868929Y-43547380D01*
X-15904643Y-43652142D01*
X-15904643Y-43756904D01*
X-15868929Y-43914047D01*
X-15440358Y-44542619D01*
X-15904643Y-44542619D01*
X-17761786Y-43495000D02*
X-17690358Y-43442619D01*
X-17583215Y-43442619D01*
X-17476072Y-43495000D01*
X-17404643Y-43599761D01*
X-17368929Y-43704523D01*
X-17333215Y-43914047D01*
X-17333215Y-44071190D01*
X-17368929Y-44280714D01*
X-17404643Y-44385476D01*
X-17476072Y-44490238D01*
X-17583215Y-44542619D01*
X-17654643Y-44542619D01*
X-17761786Y-44490238D01*
X-17797501Y-44437857D01*
X-17797501Y-44071190D01*
X-17654643Y-44071190D01*
X-18118929Y-44542619D02*
X-18118929Y-43442619D01*
X-18547501Y-44542619D01*
X-18547501Y-43442619D01*
X-18904643Y-44542619D02*
X-18904643Y-43442619D01*
X-19083215Y-43442619D01*
X-19190358Y-43495000D01*
X-19261786Y-43599761D01*
X-19297501Y-43704523D01*
X-19333215Y-43914047D01*
X-19333215Y-44071190D01*
X-19297501Y-44280714D01*
X-19261786Y-44385476D01*
X-19190358Y-44490238D01*
X-19083215Y-44542619D01*
X-18904643Y-44542619D01*
X-20368929Y-43442619D02*
X-20440358Y-43442619D01*
X-20511786Y-43495000D01*
X-20547501Y-43547380D01*
X-20583215Y-43652142D01*
X-20618929Y-43861666D01*
X-20618929Y-44123571D01*
X-20583215Y-44333095D01*
X-20547501Y-44437857D01*
X-20511786Y-44490238D01*
X-20440358Y-44542619D01*
X-20368929Y-44542619D01*
X-20297501Y-44490238D01*
X-20261786Y-44437857D01*
X-20226072Y-44333095D01*
X-20190358Y-44123571D01*
X-20190358Y-43861666D01*
X-20226072Y-43652142D01*
X-20261786Y-43547380D01*
X-20297501Y-43495000D01*
X-20368929Y-43442619D01*
X-21333215Y-44542619D02*
X-20904643Y-44542619D01*
X-21118929Y-44542619D02*
X-21118929Y-43442619D01*
X-21047501Y-43599761D01*
X-20976072Y-43704523D01*
X-20904643Y-43756904D01*
X-22368929Y-43442619D02*
X-22440358Y-43442619D01*
X-22511786Y-43495000D01*
X-22547501Y-43547380D01*
X-22583215Y-43652142D01*
X-22618929Y-43861666D01*
X-22618929Y-44123571D01*
X-22583215Y-44333095D01*
X-22547501Y-44437857D01*
X-22511786Y-44490238D01*
X-22440358Y-44542619D01*
X-22368929Y-44542619D01*
X-22297501Y-44490238D01*
X-22261786Y-44437857D01*
X-22226072Y-44333095D01*
X-22190358Y-44123571D01*
X-22190358Y-43861666D01*
X-22226072Y-43652142D01*
X-22261786Y-43547380D01*
X-22297501Y-43495000D01*
X-22368929Y-43442619D01*
X-22868929Y-43442619D02*
X-23368929Y-43442619D01*
X-23047501Y-44542619D01*
X-24940358Y-43442619D02*
X-25011786Y-43442619D01*
X-25083215Y-43495000D01*
X-25118929Y-43547380D01*
X-25154643Y-43652142D01*
X-25190358Y-43861666D01*
X-25190358Y-44123571D01*
X-25154643Y-44333095D01*
X-25118929Y-44437857D01*
X-25083215Y-44490238D01*
X-25011786Y-44542619D01*
X-24940358Y-44542619D01*
X-24868929Y-44490238D01*
X-24833215Y-44437857D01*
X-24797501Y-44333095D01*
X-24761786Y-44123571D01*
X-24761786Y-43861666D01*
X-24797501Y-43652142D01*
X-24833215Y-43547380D01*
X-24868929Y-43495000D01*
X-24940358Y-43442619D01*
X-25618929Y-43914047D02*
X-25547501Y-43861666D01*
X-25511786Y-43809285D01*
X-25476072Y-43704523D01*
X-25476072Y-43652142D01*
X-25511786Y-43547380D01*
X-25547501Y-43495000D01*
X-25618929Y-43442619D01*
X-25761786Y-43442619D01*
X-25833215Y-43495000D01*
X-25868929Y-43547380D01*
X-25904643Y-43652142D01*
X-25904643Y-43704523D01*
X-25868929Y-43809285D01*
X-25833215Y-43861666D01*
X-25761786Y-43914047D01*
X-25618929Y-43914047D01*
X-25547501Y-43966428D01*
X-25511786Y-44018809D01*
X-25476072Y-44123571D01*
X-25476072Y-44333095D01*
X-25511786Y-44437857D01*
X-25547501Y-44490238D01*
X-25618929Y-44542619D01*
X-25761786Y-44542619D01*
X-25833215Y-44490238D01*
X-25868929Y-44437857D01*
X-25904643Y-44333095D01*
X-25904643Y-44123571D01*
X-25868929Y-44018809D01*
X-25833215Y-43966428D01*
X-25761786Y-43914047D01*
X-27333215Y-43547380D02*
X-27368929Y-43495000D01*
X-27440358Y-43442619D01*
X-27618929Y-43442619D01*
X-27690358Y-43495000D01*
X-27726072Y-43547380D01*
X-27761786Y-43652142D01*
X-27761786Y-43756904D01*
X-27726072Y-43914047D01*
X-27297501Y-44542619D01*
X-27761786Y-44542619D01*
X-28440358Y-43442619D02*
X-28083215Y-43442619D01*
X-28047501Y-43966428D01*
X-28083215Y-43914047D01*
X-28154643Y-43861666D01*
X-28333215Y-43861666D01*
X-28404643Y-43914047D01*
X-28440358Y-43966428D01*
X-28476072Y-44071190D01*
X-28476072Y-44333095D01*
X-28440358Y-44437857D01*
X-28404643Y-44490238D01*
X-28333215Y-44542619D01*
X-28154643Y-44542619D01*
X-28083215Y-44490238D01*
X-28047501Y-44437857D01*
X-29761786Y-43495000D02*
X-29690358Y-43442619D01*
X-29583215Y-43442619D01*
X-29476072Y-43495000D01*
X-29404643Y-43599761D01*
X-29368929Y-43704523D01*
X-29333215Y-43914047D01*
X-29333215Y-44071190D01*
X-29368929Y-44280714D01*
X-29404643Y-44385476D01*
X-29476072Y-44490238D01*
X-29583215Y-44542619D01*
X-29654643Y-44542619D01*
X-29761786Y-44490238D01*
X-29797501Y-44437857D01*
X-29797501Y-44071190D01*
X-29654643Y-44071190D01*
X-30118929Y-44542619D02*
X-30118929Y-43442619D01*
X-30547501Y-44542619D01*
X-30547501Y-43442619D01*
X-30904643Y-44542619D02*
X-30904643Y-43442619D01*
X-31083215Y-43442619D01*
X-31190358Y-43495000D01*
X-31261786Y-43599761D01*
X-31297501Y-43704523D01*
X-31333215Y-43914047D01*
X-31333215Y-44071190D01*
X-31297501Y-44280714D01*
X-31261786Y-44385476D01*
X-31190358Y-44490238D01*
X-31083215Y-44542619D01*
X-30904643Y-44542619D01*
X-32190358Y-43547380D02*
X-32226072Y-43495000D01*
X-32297501Y-43442619D01*
X-32476072Y-43442619D01*
X-32547501Y-43495000D01*
X-32583215Y-43547380D01*
X-32618929Y-43652142D01*
X-32618929Y-43756904D01*
X-32583215Y-43914047D01*
X-32154643Y-44542619D01*
X-32618929Y-44542619D01*
X-33261786Y-43809285D02*
X-33261786Y-44542619D01*
X-33083215Y-43390238D02*
X-32904643Y-44175952D01*
X-33368929Y-44175952D01*
X-34761786Y-43547380D02*
X-34797501Y-43495000D01*
X-34868929Y-43442619D01*
X-35047501Y-43442619D01*
X-35118929Y-43495000D01*
X-35154643Y-43547380D01*
X-35190358Y-43652142D01*
X-35190358Y-43756904D01*
X-35154643Y-43914047D01*
X-34726072Y-44542619D01*
X-35190358Y-44542619D01*
X-35440358Y-43442619D02*
X-35904643Y-43442619D01*
X-35654643Y-43861666D01*
X-35761786Y-43861666D01*
X-35833215Y-43914047D01*
X-35868929Y-43966428D01*
X-35904643Y-44071190D01*
X-35904643Y-44333095D01*
X-35868929Y-44437857D01*
X-35833215Y-44490238D01*
X-35761786Y-44542619D01*
X-35547501Y-44542619D01*
X-35476072Y-44490238D01*
X-35440358Y-44437857D01*
X-37761786Y-43495000D02*
X-37690358Y-43442619D01*
X-37583215Y-43442619D01*
X-37476072Y-43495000D01*
X-37404643Y-43599761D01*
X-37368929Y-43704523D01*
X-37333215Y-43914047D01*
X-37333215Y-44071190D01*
X-37368929Y-44280714D01*
X-37404643Y-44385476D01*
X-37476072Y-44490238D01*
X-37583215Y-44542619D01*
X-37654643Y-44542619D01*
X-37761786Y-44490238D01*
X-37797501Y-44437857D01*
X-37797501Y-44071190D01*
X-37654643Y-44071190D01*
X-38118929Y-44542619D02*
X-38118929Y-43442619D01*
X-38547501Y-44542619D01*
X-38547501Y-43442619D01*
X-38904643Y-44542619D02*
X-38904643Y-43442619D01*
X-39083215Y-43442619D01*
X-39190358Y-43495000D01*
X-39261786Y-43599761D01*
X-39297501Y-43704523D01*
X-39333215Y-43914047D01*
X-39333215Y-44071190D01*
X-39297501Y-44280714D01*
X-39261786Y-44385476D01*
X-39190358Y-44490238D01*
X-39083215Y-44542619D01*
X-38904643Y-44542619D01*
X-40618929Y-44542619D02*
X-40190358Y-44542619D01*
X-40404643Y-44542619D02*
X-40404643Y-43442619D01*
X-40333215Y-43599761D01*
X-40261786Y-43704523D01*
X-40190358Y-43756904D01*
X-41047501Y-43914047D02*
X-40976072Y-43861666D01*
X-40940358Y-43809285D01*
X-40904643Y-43704523D01*
X-40904643Y-43652142D01*
X-40940358Y-43547380D01*
X-40976072Y-43495000D01*
X-41047501Y-43442619D01*
X-41190358Y-43442619D01*
X-41261786Y-43495000D01*
X-41297501Y-43547380D01*
X-41333215Y-43652142D01*
X-41333215Y-43704523D01*
X-41297501Y-43809285D01*
X-41261786Y-43861666D01*
X-41190358Y-43914047D01*
X-41047501Y-43914047D01*
X-40976072Y-43966428D01*
X-40940358Y-44018809D01*
X-40904643Y-44123571D01*
X-40904643Y-44333095D01*
X-40940358Y-44437857D01*
X-40976072Y-44490238D01*
X-41047501Y-44542619D01*
X-41190358Y-44542619D01*
X-41261786Y-44490238D01*
X-41297501Y-44437857D01*
X-41333215Y-44333095D01*
X-41333215Y-44123571D01*
X-41297501Y-44018809D01*
X-41261786Y-43966428D01*
X-41190358Y-43914047D01*
X-43190358Y-44542619D02*
X-42761786Y-44542619D01*
X-42976072Y-44542619D02*
X-42976072Y-43442619D01*
X-42904643Y-43599761D01*
X-42833215Y-43704523D01*
X-42761786Y-43756904D01*
X-43868929Y-43442619D02*
X-43511786Y-43442619D01*
X-43476072Y-43966428D01*
X-43511786Y-43914047D01*
X-43583215Y-43861666D01*
X-43761786Y-43861666D01*
X-43833215Y-43914047D01*
X-43868929Y-43966428D01*
X-43904643Y-44071190D01*
X-43904643Y-44333095D01*
X-43868929Y-44437857D01*
X-43833215Y-44490238D01*
X-43761786Y-44542619D01*
X-43583215Y-44542619D01*
X-43511786Y-44490238D01*
X-43476072Y-44437857D01*
X-45761786Y-44542619D02*
X-45333215Y-44542619D01*
X-45547501Y-44542619D02*
X-45547501Y-43442619D01*
X-45476072Y-43599761D01*
X-45404643Y-43704523D01*
X-45333215Y-43756904D01*
X-46404643Y-43809285D02*
X-46404643Y-44542619D01*
X-46226072Y-43390238D02*
X-46047501Y-44175952D01*
X-46511786Y-44175952D01*
X-47761786Y-43495000D02*
X-47690358Y-43442619D01*
X-47583215Y-43442619D01*
X-47476072Y-43495000D01*
X-47404643Y-43599761D01*
X-47368929Y-43704523D01*
X-47333215Y-43914047D01*
X-47333215Y-44071190D01*
X-47368929Y-44280714D01*
X-47404643Y-44385476D01*
X-47476072Y-44490238D01*
X-47583215Y-44542619D01*
X-47654643Y-44542619D01*
X-47761786Y-44490238D01*
X-47797501Y-44437857D01*
X-47797501Y-44071190D01*
X-47654643Y-44071190D01*
X-48118929Y-44542619D02*
X-48118929Y-43442619D01*
X-48547501Y-44542619D01*
X-48547501Y-43442619D01*
X-48904643Y-44542619D02*
X-48904643Y-43442619D01*
X-49083215Y-43442619D01*
X-49190358Y-43495000D01*
X-49261786Y-43599761D01*
X-49297501Y-43704523D01*
X-49333215Y-43914047D01*
X-49333215Y-44071190D01*
X-49297501Y-44280714D01*
X-49261786Y-44385476D01*
X-49190358Y-44490238D01*
X-49083215Y-44542619D01*
X-48904643Y-44542619D01*
X-50583215Y-43442619D02*
X-50226072Y-43442619D01*
X-50190358Y-43966428D01*
X-50226072Y-43914047D01*
X-50297501Y-43861666D01*
X-50476072Y-43861666D01*
X-50547501Y-43914047D01*
X-50583215Y-43966428D01*
X-50618929Y-44071190D01*
X-50618929Y-44333095D01*
X-50583215Y-44437857D01*
X-50547501Y-44490238D01*
X-50476072Y-44542619D01*
X-50297501Y-44542619D01*
X-50226072Y-44490238D01*
X-50190358Y-44437857D01*
X-50833215Y-43442619D02*
X-51083215Y-44542619D01*
X-51333215Y-43442619D01*
X-52511786Y-43442619D02*
X-52154643Y-43442619D01*
X-52118929Y-43966428D01*
X-52154643Y-43914047D01*
X-52226072Y-43861666D01*
X-52404643Y-43861666D01*
X-52476072Y-43914047D01*
X-52511786Y-43966428D01*
X-52547501Y-44071190D01*
X-52547501Y-44333095D01*
X-52511786Y-44437857D01*
X-52476072Y-44490238D01*
X-52404643Y-44542619D01*
X-52226072Y-44542619D01*
X-52154643Y-44490238D01*
X-52118929Y-44437857D01*
X-52761786Y-43442619D02*
X-53011786Y-44542619D01*
X-53261786Y-43442619D01*
X-4618929Y-45295000D02*
X-4547500Y-45242619D01*
X-4440358Y-45242619D01*
X-4333215Y-45295000D01*
X-4261786Y-45399761D01*
X-4226072Y-45504523D01*
X-4190358Y-45714047D01*
X-4190358Y-45871190D01*
X-4226072Y-46080714D01*
X-4261786Y-46185476D01*
X-4333215Y-46290238D01*
X-4440358Y-46342619D01*
X-4511786Y-46342619D01*
X-4618929Y-46290238D01*
X-4654643Y-46237857D01*
X-4654643Y-45871190D01*
X-4511786Y-45871190D01*
X-4976072Y-46342619D02*
X-4976072Y-45242619D01*
X-5404643Y-46342619D01*
X-5404643Y-45242619D01*
X-5761786Y-46342619D02*
X-5761786Y-45242619D01*
X-5940358Y-45242619D01*
X-6047500Y-45295000D01*
X-6118929Y-45399761D01*
X-6154643Y-45504523D01*
X-6190358Y-45714047D01*
X-6190358Y-45871190D01*
X-6154643Y-46080714D01*
X-6118929Y-46185476D01*
X-6047500Y-46290238D01*
X-5940358Y-46342619D01*
X-5761786Y-46342619D01*
X-7047500Y-45347380D02*
X-7083215Y-45295000D01*
X-7154643Y-45242619D01*
X-7333215Y-45242619D01*
X-7404643Y-45295000D01*
X-7440358Y-45347380D01*
X-7476072Y-45452142D01*
X-7476072Y-45556904D01*
X-7440358Y-45714047D01*
X-7011786Y-46342619D01*
X-7476072Y-46342619D01*
X-8118929Y-45242619D02*
X-7976072Y-45242619D01*
X-7904643Y-45295000D01*
X-7868929Y-45347380D01*
X-7797500Y-45504523D01*
X-7761786Y-45714047D01*
X-7761786Y-46133095D01*
X-7797500Y-46237857D01*
X-7833215Y-46290238D01*
X-7904643Y-46342619D01*
X-8047500Y-46342619D01*
X-8118929Y-46290238D01*
X-8154643Y-46237857D01*
X-8190358Y-46133095D01*
X-8190358Y-45871190D01*
X-8154643Y-45766428D01*
X-8118929Y-45714047D01*
X-8047500Y-45661666D01*
X-7904643Y-45661666D01*
X-7833215Y-45714047D01*
X-7797500Y-45766428D01*
X-7761786Y-45871190D01*
X-10047500Y-46342619D02*
X-9618929Y-46342619D01*
X-9833215Y-46342619D02*
X-9833215Y-45242619D01*
X-9761786Y-45399761D01*
X-9690358Y-45504523D01*
X-9618929Y-45556904D01*
X-10297500Y-45242619D02*
X-10761786Y-45242619D01*
X-10511786Y-45661666D01*
X-10618929Y-45661666D01*
X-10690358Y-45714047D01*
X-10726072Y-45766428D01*
X-10761786Y-45871190D01*
X-10761786Y-46133095D01*
X-10726072Y-46237857D01*
X-10690358Y-46290238D01*
X-10618929Y-46342619D01*
X-10404643Y-46342619D01*
X-10333215Y-46290238D01*
X-10297500Y-46237857D01*
X-12618929Y-46342619D02*
X-12190358Y-46342619D01*
X-12404643Y-46342619D02*
X-12404643Y-45242619D01*
X-12333215Y-45399761D01*
X-12261786Y-45504523D01*
X-12190358Y-45556904D01*
X-12976072Y-46342619D02*
X-13118929Y-46342619D01*
X-13190358Y-46290238D01*
X-13226072Y-46237857D01*
X-13297500Y-46080714D01*
X-13333215Y-45871190D01*
X-13333215Y-45452142D01*
X-13297500Y-45347380D01*
X-13261786Y-45295000D01*
X-13190358Y-45242619D01*
X-13047500Y-45242619D01*
X-12976072Y-45295000D01*
X-12940358Y-45347380D01*
X-12904643Y-45452142D01*
X-12904643Y-45714047D01*
X-12940358Y-45818809D01*
X-12976072Y-45871190D01*
X-13047500Y-45923571D01*
X-13190358Y-45923571D01*
X-13261786Y-45871190D01*
X-13297500Y-45818809D01*
X-13333215Y-45714047D01*
X-14940358Y-45242619D02*
X-15011786Y-45242619D01*
X-15083215Y-45295000D01*
X-15118929Y-45347380D01*
X-15154643Y-45452142D01*
X-15190358Y-45661666D01*
X-15190358Y-45923571D01*
X-15154643Y-46133095D01*
X-15118929Y-46237857D01*
X-15083215Y-46290238D01*
X-15011786Y-46342619D01*
X-14940358Y-46342619D01*
X-14868929Y-46290238D01*
X-14833215Y-46237857D01*
X-14797501Y-46133095D01*
X-14761786Y-45923571D01*
X-14761786Y-45661666D01*
X-14797501Y-45452142D01*
X-14833215Y-45347380D01*
X-14868929Y-45295000D01*
X-14940358Y-45242619D01*
X-15833215Y-45242619D02*
X-15690358Y-45242619D01*
X-15618929Y-45295000D01*
X-15583215Y-45347380D01*
X-15511786Y-45504523D01*
X-15476072Y-45714047D01*
X-15476072Y-46133095D01*
X-15511786Y-46237857D01*
X-15547501Y-46290238D01*
X-15618929Y-46342619D01*
X-15761786Y-46342619D01*
X-15833215Y-46290238D01*
X-15868929Y-46237857D01*
X-15904643Y-46133095D01*
X-15904643Y-45871190D01*
X-15868929Y-45766428D01*
X-15833215Y-45714047D01*
X-15761786Y-45661666D01*
X-15618929Y-45661666D01*
X-15547501Y-45714047D01*
X-15511786Y-45766428D01*
X-15476072Y-45871190D01*
X-17511786Y-45242619D02*
X-17583215Y-45242619D01*
X-17654643Y-45295000D01*
X-17690358Y-45347380D01*
X-17726072Y-45452142D01*
X-17761786Y-45661666D01*
X-17761786Y-45923571D01*
X-17726072Y-46133095D01*
X-17690358Y-46237857D01*
X-17654643Y-46290238D01*
X-17583215Y-46342619D01*
X-17511786Y-46342619D01*
X-17440358Y-46290238D01*
X-17404643Y-46237857D01*
X-17368929Y-46133095D01*
X-17333215Y-45923571D01*
X-17333215Y-45661666D01*
X-17368929Y-45452142D01*
X-17404643Y-45347380D01*
X-17440358Y-45295000D01*
X-17511786Y-45242619D01*
X-18440358Y-45242619D02*
X-18083215Y-45242619D01*
X-18047501Y-45766428D01*
X-18083215Y-45714047D01*
X-18154643Y-45661666D01*
X-18333215Y-45661666D01*
X-18404643Y-45714047D01*
X-18440358Y-45766428D01*
X-18476072Y-45871190D01*
X-18476072Y-46133095D01*
X-18440358Y-46237857D01*
X-18404643Y-46290238D01*
X-18333215Y-46342619D01*
X-18154643Y-46342619D01*
X-18083215Y-46290238D01*
X-18047501Y-46237857D01*
X-20083215Y-45242619D02*
X-20154643Y-45242619D01*
X-20226072Y-45295000D01*
X-20261786Y-45347380D01*
X-20297501Y-45452142D01*
X-20333215Y-45661666D01*
X-20333215Y-45923571D01*
X-20297501Y-46133095D01*
X-20261786Y-46237857D01*
X-20226072Y-46290238D01*
X-20154643Y-46342619D01*
X-20083215Y-46342619D01*
X-20011786Y-46290238D01*
X-19976072Y-46237857D01*
X-19940358Y-46133095D01*
X-19904643Y-45923571D01*
X-19904643Y-45661666D01*
X-19940358Y-45452142D01*
X-19976072Y-45347380D01*
X-20011786Y-45295000D01*
X-20083215Y-45242619D01*
X-20797501Y-45242619D02*
X-20868929Y-45242619D01*
X-20940358Y-45295000D01*
X-20976072Y-45347380D01*
X-21011786Y-45452142D01*
X-21047501Y-45661666D01*
X-21047501Y-45923571D01*
X-21011786Y-46133095D01*
X-20976072Y-46237857D01*
X-20940358Y-46290238D01*
X-20868929Y-46342619D01*
X-20797501Y-46342619D01*
X-20726072Y-46290238D01*
X-20690358Y-46237857D01*
X-20654643Y-46133095D01*
X-20618929Y-45923571D01*
X-20618929Y-45661666D01*
X-20654643Y-45452142D01*
X-20690358Y-45347380D01*
X-20726072Y-45295000D01*
X-20797501Y-45242619D01*
X-22333215Y-45295000D02*
X-22261786Y-45242619D01*
X-22154643Y-45242619D01*
X-22047501Y-45295000D01*
X-21976072Y-45399761D01*
X-21940358Y-45504523D01*
X-21904643Y-45714047D01*
X-21904643Y-45871190D01*
X-21940358Y-46080714D01*
X-21976072Y-46185476D01*
X-22047501Y-46290238D01*
X-22154643Y-46342619D01*
X-22226072Y-46342619D01*
X-22333215Y-46290238D01*
X-22368929Y-46237857D01*
X-22368929Y-45871190D01*
X-22226072Y-45871190D01*
X-22690358Y-46342619D02*
X-22690358Y-45242619D01*
X-23118929Y-46342619D01*
X-23118929Y-45242619D01*
X-23476072Y-46342619D02*
X-23476072Y-45242619D01*
X-23654643Y-45242619D01*
X-23761786Y-45295000D01*
X-23833215Y-45399761D01*
X-23868929Y-45504523D01*
X-23904643Y-45714047D01*
X-23904643Y-45871190D01*
X-23868929Y-46080714D01*
X-23833215Y-46185476D01*
X-23761786Y-46290238D01*
X-23654643Y-46342619D01*
X-23476072Y-46342619D01*
X-25190358Y-46342619D02*
X-24761786Y-46342619D01*
X-24976072Y-46342619D02*
X-24976072Y-45242619D01*
X-24904643Y-45399761D01*
X-24833215Y-45504523D01*
X-24761786Y-45556904D01*
X-25904643Y-46342619D02*
X-25476072Y-46342619D01*
X-25690358Y-46342619D02*
X-25690358Y-45242619D01*
X-25618929Y-45399761D01*
X-25547501Y-45504523D01*
X-25476072Y-45556904D01*
X-27511786Y-45242619D02*
X-27583215Y-45242619D01*
X-27654643Y-45295000D01*
X-27690358Y-45347380D01*
X-27726072Y-45452142D01*
X-27761786Y-45661666D01*
X-27761786Y-45923571D01*
X-27726072Y-46133095D01*
X-27690358Y-46237857D01*
X-27654643Y-46290238D01*
X-27583215Y-46342619D01*
X-27511786Y-46342619D01*
X-27440358Y-46290238D01*
X-27404643Y-46237857D01*
X-27368929Y-46133095D01*
X-27333215Y-45923571D01*
X-27333215Y-45661666D01*
X-27368929Y-45452142D01*
X-27404643Y-45347380D01*
X-27440358Y-45295000D01*
X-27511786Y-45242619D01*
X-28118929Y-46342619D02*
X-28261786Y-46342619D01*
X-28333215Y-46290238D01*
X-28368929Y-46237857D01*
X-28440358Y-46080714D01*
X-28476072Y-45871190D01*
X-28476072Y-45452142D01*
X-28440358Y-45347380D01*
X-28404643Y-45295000D01*
X-28333215Y-45242619D01*
X-28190358Y-45242619D01*
X-28118929Y-45295000D01*
X-28083215Y-45347380D01*
X-28047501Y-45452142D01*
X-28047501Y-45714047D01*
X-28083215Y-45818809D01*
X-28118929Y-45871190D01*
X-28190358Y-45923571D01*
X-28333215Y-45923571D01*
X-28404643Y-45871190D01*
X-28440358Y-45818809D01*
X-28476072Y-45714047D01*
X-30333215Y-46342619D02*
X-29904643Y-46342619D01*
X-30118929Y-46342619D02*
X-30118929Y-45242619D01*
X-30047501Y-45399761D01*
X-29976072Y-45504523D01*
X-29904643Y-45556904D01*
X-30797501Y-45242619D02*
X-30868929Y-45242619D01*
X-30940358Y-45295000D01*
X-30976072Y-45347380D01*
X-31011786Y-45452142D01*
X-31047501Y-45661666D01*
X-31047501Y-45923571D01*
X-31011786Y-46133095D01*
X-30976072Y-46237857D01*
X-30940358Y-46290238D01*
X-30868929Y-46342619D01*
X-30797501Y-46342619D01*
X-30726072Y-46290238D01*
X-30690358Y-46237857D01*
X-30654643Y-46133095D01*
X-30618929Y-45923571D01*
X-30618929Y-45661666D01*
X-30654643Y-45452142D01*
X-30690358Y-45347380D01*
X-30726072Y-45295000D01*
X-30797501Y-45242619D01*
X-32868929Y-45242619D02*
X-32511786Y-45242619D01*
X-32476072Y-45766428D01*
X-32511786Y-45714047D01*
X-32583215Y-45661666D01*
X-32761786Y-45661666D01*
X-32833215Y-45714047D01*
X-32868929Y-45766428D01*
X-32904643Y-45871190D01*
X-32904643Y-46133095D01*
X-32868929Y-46237857D01*
X-32833215Y-46290238D01*
X-32761786Y-46342619D01*
X-32583215Y-46342619D01*
X-32511786Y-46290238D01*
X-32476072Y-46237857D01*
X-33118929Y-45242619D02*
X-33368929Y-46342619D01*
X-33618929Y-45242619D01*
X-34976072Y-45347380D02*
X-35011786Y-45295000D01*
X-35083215Y-45242619D01*
X-35261786Y-45242619D01*
X-35333215Y-45295000D01*
X-35368929Y-45347380D01*
X-35404643Y-45452142D01*
X-35404643Y-45556904D01*
X-35368929Y-45714047D01*
X-34940358Y-46342619D01*
X-35404643Y-46342619D01*
X-35690358Y-45347380D02*
X-35726072Y-45295000D01*
X-35797501Y-45242619D01*
X-35976072Y-45242619D01*
X-36047501Y-45295000D01*
X-36083215Y-45347380D01*
X-36118929Y-45452142D01*
X-36118929Y-45556904D01*
X-36083215Y-45714047D01*
X-35654643Y-46342619D01*
X-36118929Y-46342619D01*
X-37547501Y-45347380D02*
X-37583215Y-45295000D01*
X-37654643Y-45242619D01*
X-37833215Y-45242619D01*
X-37904643Y-45295000D01*
X-37940358Y-45347380D01*
X-37976072Y-45452142D01*
X-37976072Y-45556904D01*
X-37940358Y-45714047D01*
X-37511786Y-46342619D01*
X-37976072Y-46342619D01*
X-38226072Y-45242619D02*
X-38726072Y-45242619D01*
X-38404643Y-46342619D01*
X-40547501Y-46342619D02*
X-40118929Y-46342619D01*
X-40333215Y-46342619D02*
X-40333215Y-45242619D01*
X-40261786Y-45399761D01*
X-40190358Y-45504523D01*
X-40118929Y-45556904D01*
X-40797501Y-45242619D02*
X-41297501Y-45242619D01*
X-40976072Y-46342619D01*
X-42547501Y-45295000D02*
X-42476072Y-45242619D01*
X-42368929Y-45242619D01*
X-42261786Y-45295000D01*
X-42190358Y-45399761D01*
X-42154643Y-45504523D01*
X-42118929Y-45714047D01*
X-42118929Y-45871190D01*
X-42154643Y-46080714D01*
X-42190358Y-46185476D01*
X-42261786Y-46290238D01*
X-42368929Y-46342619D01*
X-42440358Y-46342619D01*
X-42547501Y-46290238D01*
X-42583215Y-46237857D01*
X-42583215Y-45871190D01*
X-42440358Y-45871190D01*
X-42904643Y-46342619D02*
X-42904643Y-45242619D01*
X-43333215Y-46342619D01*
X-43333215Y-45242619D01*
X-43690358Y-46342619D02*
X-43690358Y-45242619D01*
X-43868929Y-45242619D01*
X-43976072Y-45295000D01*
X-44047501Y-45399761D01*
X-44083215Y-45504523D01*
X-44118929Y-45714047D01*
X-44118929Y-45871190D01*
X-44083215Y-46080714D01*
X-44047501Y-46185476D01*
X-43976072Y-46290238D01*
X-43868929Y-46342619D01*
X-43690358Y-46342619D01*
X-45726072Y-45242619D02*
X-45797501Y-45242619D01*
X-45868929Y-45295000D01*
X-45904643Y-45347380D01*
X-45940358Y-45452142D01*
X-45976072Y-45661666D01*
X-45976072Y-45923571D01*
X-45940358Y-46133095D01*
X-45904643Y-46237857D01*
X-45868929Y-46290238D01*
X-45797501Y-46342619D01*
X-45726072Y-46342619D01*
X-45654643Y-46290238D01*
X-45618929Y-46237857D01*
X-45583215Y-46133095D01*
X-45547501Y-45923571D01*
X-45547501Y-45661666D01*
X-45583215Y-45452142D01*
X-45618929Y-45347380D01*
X-45654643Y-45295000D01*
X-45726072Y-45242619D01*
X-46618929Y-45609285D02*
X-46618929Y-46342619D01*
X-46440358Y-45190238D02*
X-46261786Y-45975952D01*
X-46726072Y-45975952D01*
X-48297501Y-45242619D02*
X-48368929Y-45242619D01*
X-48440358Y-45295000D01*
X-48476072Y-45347380D01*
X-48511786Y-45452142D01*
X-48547501Y-45661666D01*
X-48547501Y-45923571D01*
X-48511786Y-46133095D01*
X-48476072Y-46237857D01*
X-48440358Y-46290238D01*
X-48368929Y-46342619D01*
X-48297501Y-46342619D01*
X-48226072Y-46290238D01*
X-48190358Y-46237857D01*
X-48154643Y-46133095D01*
X-48118929Y-45923571D01*
X-48118929Y-45661666D01*
X-48154643Y-45452142D01*
X-48190358Y-45347380D01*
X-48226072Y-45295000D01*
X-48297501Y-45242619D01*
X-48797501Y-45242619D02*
X-49261786Y-45242619D01*
X-49011786Y-45661666D01*
X-49118929Y-45661666D01*
X-49190358Y-45714047D01*
X-49226072Y-45766428D01*
X-49261786Y-45871190D01*
X-49261786Y-46133095D01*
X-49226072Y-46237857D01*
X-49190358Y-46290238D01*
X-49118929Y-46342619D01*
X-48904643Y-46342619D01*
X-48833215Y-46290238D01*
X-48797501Y-46237857D01*
X-50297501Y-45242619D02*
X-50368929Y-45242619D01*
X-50440358Y-45295000D01*
X-50476072Y-45347380D01*
X-50511786Y-45452142D01*
X-50547501Y-45661666D01*
X-50547501Y-45923571D01*
X-50511786Y-46133095D01*
X-50476072Y-46237857D01*
X-50440358Y-46290238D01*
X-50368929Y-46342619D01*
X-50297501Y-46342619D01*
X-50226072Y-46290238D01*
X-50190358Y-46237857D01*
X-50154643Y-46133095D01*
X-50118929Y-45923571D01*
X-50118929Y-45661666D01*
X-50154643Y-45452142D01*
X-50190358Y-45347380D01*
X-50226072Y-45295000D01*
X-50297501Y-45242619D01*
X-50833215Y-45347380D02*
X-50868929Y-45295000D01*
X-50940358Y-45242619D01*
X-51118929Y-45242619D01*
X-51190358Y-45295000D01*
X-51226072Y-45347380D01*
X-51261786Y-45452142D01*
X-51261786Y-45556904D01*
X-51226072Y-45714047D01*
X-50797501Y-46342619D01*
X-51261786Y-46342619D01*
X-52511786Y-45242619D02*
X-52154643Y-45242619D01*
X-52118929Y-45766428D01*
X-52154643Y-45714047D01*
X-52226072Y-45661666D01*
X-52404643Y-45661666D01*
X-52476072Y-45714047D01*
X-52511786Y-45766428D01*
X-52547501Y-45871190D01*
X-52547501Y-46133095D01*
X-52511786Y-46237857D01*
X-52476072Y-46290238D01*
X-52404643Y-46342619D01*
X-52226072Y-46342619D01*
X-52154643Y-46290238D01*
X-52118929Y-46237857D01*
X-52761786Y-45242619D02*
X-53011786Y-46342619D01*
X-53261786Y-45242619D01*
X65595Y-43570000D02*
X160833Y-43522380D01*
X303690Y-43522380D01*
X446547Y-43570000D01*
X541785Y-43665238D01*
X589404Y-43760476D01*
X637023Y-43950952D01*
X637023Y-44093809D01*
X589404Y-44284285D01*
X541785Y-44379523D01*
X446547Y-44474761D01*
X303690Y-44522380D01*
X208452Y-44522380D01*
X65595Y-44474761D01*
X17976Y-44427142D01*
X17976Y-44093809D01*
X208452Y-44093809D01*
X-410596Y-44522380D02*
X-410596Y-43522380D01*
X-791548Y-43522380D01*
X-886786Y-43570000D01*
X-934405Y-43617619D01*
X-982024Y-43712857D01*
X-982024Y-43855714D01*
X-934405Y-43950952D01*
X-886786Y-43998571D01*
X-791548Y-44046190D01*
X-410596Y-44046190D01*
X-1410596Y-44522380D02*
X-1410596Y-43522380D01*
X-2077262Y-43522380D02*
X-2267739Y-43522380D01*
X-2362977Y-43570000D01*
X-2458215Y-43665238D01*
X-2505834Y-43855714D01*
X-2505834Y-44189047D01*
X-2458215Y-44379523D01*
X-2362977Y-44474761D01*
X-2267739Y-44522380D01*
X-2077262Y-44522380D01*
X-1982024Y-44474761D01*
X-1886786Y-44379523D01*
X-1839167Y-44189047D01*
X-1839167Y-43855714D01*
X-1886786Y-43665238D01*
X-1982024Y-43570000D01*
X-2077262Y-43522380D01*
X589404Y-46172380D02*
X589404Y-45172380D01*
X208452Y-45172380D01*
X113214Y-45220000D01*
X65595Y-45267619D01*
X17976Y-45362857D01*
X17976Y-45505714D01*
X65595Y-45600952D01*
X113214Y-45648571D01*
X208452Y-45696190D01*
X589404Y-45696190D01*
X-410596Y-46172380D02*
X-410596Y-45172380D01*
X-886786Y-46172380D02*
X-886786Y-45172380D01*
X-1458215Y-46172380D01*
X-1458215Y-45172380D01*
X-56235715Y-2752380D02*
X-55664286Y-2752380D01*
X-55950000Y-2752380D02*
X-55950000Y-1752380D01*
X-55854762Y-1895238D01*
X-55759524Y-1990476D01*
X-55664286Y-2038095D01*
X36904Y-30477380D02*
X655952Y-30910714D01*
X36904Y-31220238D02*
X1336904Y-31220238D01*
X1336904Y-30725000D01*
X1275000Y-30601190D01*
X1213095Y-30539285D01*
X1089285Y-30477380D01*
X903571Y-30477380D01*
X779761Y-30539285D01*
X717857Y-30601190D01*
X655952Y-30725000D01*
X655952Y-31220238D01*
X98809Y-29425000D02*
X36904Y-29548809D01*
X36904Y-29796428D01*
X98809Y-29920238D01*
X222619Y-29982142D01*
X717857Y-29982142D01*
X841666Y-29920238D01*
X903571Y-29796428D01*
X903571Y-29548809D01*
X841666Y-29425000D01*
X717857Y-29363095D01*
X594047Y-29363095D01*
X470238Y-29982142D01*
X903571Y-28929761D02*
X36904Y-28620238D01*
X903571Y-28310714D01*
X160714Y-27815476D02*
X98809Y-27753571D01*
X36904Y-27815476D01*
X98809Y-27877380D01*
X160714Y-27815476D01*
X36904Y-27815476D01*
X160714Y-27196428D02*
X98809Y-27134523D01*
X36904Y-27196428D01*
X98809Y-27258333D01*
X160714Y-27196428D01*
X36904Y-27196428D01*
X841666Y-27196428D02*
X779761Y-27134523D01*
X717857Y-27196428D01*
X779761Y-27258333D01*
X841666Y-27196428D01*
X717857Y-27196428D01*
X1336904Y-25339285D02*
X1336904Y-25215476D01*
X1275000Y-25091666D01*
X1213095Y-25029761D01*
X1089285Y-24967857D01*
X841666Y-24905952D01*
X532142Y-24905952D01*
X284523Y-24967857D01*
X160714Y-25029761D01*
X98809Y-25091666D01*
X36904Y-25215476D01*
X36904Y-25339285D01*
X98809Y-25463095D01*
X160714Y-25525000D01*
X284523Y-25586904D01*
X532142Y-25648809D01*
X841666Y-25648809D01*
X1089285Y-25586904D01*
X1213095Y-25525000D01*
X1275000Y-25463095D01*
X1336904Y-25339285D01*
X36904Y-23667857D02*
X36904Y-24410714D01*
X36904Y-24039285D02*
X1336904Y-24039285D01*
X1151190Y-24163095D01*
X1027380Y-24286904D01*
X965476Y-24410714D01*
D12*
G04 #@! TO.C,J1*
X-54530000Y-1800000D02*
X-54530000Y-3130000D01*
X-54530000Y-3130000D02*
X-53200000Y-3130000D01*
X-54530000Y-530000D02*
X-51930000Y-530000D01*
X-51930000Y-530000D02*
X-51930000Y-3130000D01*
X-51930000Y-3130000D02*
X-3610000Y-3130000D01*
X-3610000Y2070000D02*
X-3610000Y-3130000D01*
X-54530000Y2070000D02*
X-3610000Y2070000D01*
X-54530000Y2070000D02*
X-54530000Y-530000D01*
D10*
X-56497620Y1533334D02*
X-55783334Y1533334D01*
X-55640477Y1580953D01*
X-55545239Y1676191D01*
X-55497620Y1819048D01*
X-55497620Y1914286D01*
X-55497620Y533334D02*
X-55497620Y1104762D01*
X-55497620Y819048D02*
X-56497620Y819048D01*
X-56354762Y914286D01*
X-56259524Y1009524D01*
X-56211905Y1104762D01*
G04 #@! TD*
M02*
