G04 #@! TF.GenerationSoftware,KiCad,Pcbnew,5.1.6*
G04 #@! TF.CreationDate,2020-09-18T18:11:00+02:00*
G04 #@! TF.ProjectId,F010_rpi_logic_level_shifter_hat,46303130-5f72-4706-995f-6c6f6769635f,rev?*
G04 #@! TF.SameCoordinates,PXa52d280PY2b953a0*
G04 #@! TF.FileFunction,Legend,Top*
G04 #@! TF.FilePolarity,Positive*
%FSLAX46Y46*%
G04 Gerber Fmt 4.6, Leading zero omitted, Abs format (unit mm)*
G04 Created by KiCad (PCBNEW 5.1.6) date 2020-09-18 18:11:00*
%MOMM*%
%LPD*%
G01*
G04 APERTURE LIST*
%ADD10C,0.150000*%
%ADD11C,0.100000*%
%ADD12C,0.120000*%
%ADD13C,0.200000*%
%ADD14C,0.300000*%
G04 APERTURE END LIST*
D10*
X-46707143Y-36642857D02*
X-46707143Y-37614285D01*
X-46650000Y-37728571D01*
X-46592858Y-37785714D01*
X-46478572Y-37842857D01*
X-46250000Y-37842857D01*
X-46135715Y-37785714D01*
X-46078572Y-37728571D01*
X-46021429Y-37614285D01*
X-46021429Y-36642857D01*
X-45507143Y-37785714D02*
X-45392858Y-37842857D01*
X-45164286Y-37842857D01*
X-45050000Y-37785714D01*
X-44992858Y-37671428D01*
X-44992858Y-37614285D01*
X-45050000Y-37500000D01*
X-45164286Y-37442857D01*
X-45335715Y-37442857D01*
X-45450000Y-37385714D01*
X-45507143Y-37271428D01*
X-45507143Y-37214285D01*
X-45450000Y-37100000D01*
X-45335715Y-37042857D01*
X-45164286Y-37042857D01*
X-45050000Y-37100000D01*
X-44021429Y-37785714D02*
X-44135715Y-37842857D01*
X-44364286Y-37842857D01*
X-44478572Y-37785714D01*
X-44535715Y-37671428D01*
X-44535715Y-37214285D01*
X-44478572Y-37100000D01*
X-44364286Y-37042857D01*
X-44135715Y-37042857D01*
X-44021429Y-37100000D01*
X-43964286Y-37214285D01*
X-43964286Y-37328571D01*
X-44535715Y-37442857D01*
X-41907143Y-36700000D02*
X-42021429Y-36642857D01*
X-42192858Y-36642857D01*
X-42364286Y-36700000D01*
X-42478572Y-36814285D01*
X-42535715Y-36928571D01*
X-42592858Y-37157142D01*
X-42592858Y-37328571D01*
X-42535715Y-37557142D01*
X-42478572Y-37671428D01*
X-42364286Y-37785714D01*
X-42192858Y-37842857D01*
X-42078572Y-37842857D01*
X-41907143Y-37785714D01*
X-41850000Y-37728571D01*
X-41850000Y-37328571D01*
X-42078572Y-37328571D01*
X-41335715Y-37842857D02*
X-41335715Y-36642857D01*
X-40878572Y-36642857D01*
X-40764286Y-36700000D01*
X-40707143Y-36757142D01*
X-40650000Y-36871428D01*
X-40650000Y-37042857D01*
X-40707143Y-37157142D01*
X-40764286Y-37214285D01*
X-40878572Y-37271428D01*
X-41335715Y-37271428D01*
X-40135715Y-37842857D02*
X-40135715Y-36642857D01*
X-39335715Y-36642857D02*
X-39107143Y-36642857D01*
X-38992858Y-36700000D01*
X-38878572Y-36814285D01*
X-38821429Y-37042857D01*
X-38821429Y-37442857D01*
X-38878572Y-37671428D01*
X-38992858Y-37785714D01*
X-39107143Y-37842857D01*
X-39335715Y-37842857D01*
X-39450000Y-37785714D01*
X-39564286Y-37671428D01*
X-39621429Y-37442857D01*
X-39621429Y-37042857D01*
X-39564286Y-36814285D01*
X-39450000Y-36700000D01*
X-39335715Y-36642857D01*
X-37450000Y-36757142D02*
X-37392858Y-36700000D01*
X-37278572Y-36642857D01*
X-36992858Y-36642857D01*
X-36878572Y-36700000D01*
X-36821429Y-36757142D01*
X-36764286Y-36871428D01*
X-36764286Y-36985714D01*
X-36821429Y-37157142D01*
X-37507143Y-37842857D01*
X-36764286Y-37842857D01*
X-35735715Y-36642857D02*
X-35964286Y-36642857D01*
X-36078572Y-36700000D01*
X-36135715Y-36757142D01*
X-36250000Y-36928571D01*
X-36307143Y-37157142D01*
X-36307143Y-37614285D01*
X-36250000Y-37728571D01*
X-36192858Y-37785714D01*
X-36078572Y-37842857D01*
X-35850000Y-37842857D01*
X-35735715Y-37785714D01*
X-35678572Y-37728571D01*
X-35621429Y-37614285D01*
X-35621429Y-37328571D01*
X-35678572Y-37214285D01*
X-35735715Y-37157142D01*
X-35850000Y-37100000D01*
X-36078572Y-37100000D01*
X-36192858Y-37157142D01*
X-36250000Y-37214285D01*
X-36307143Y-37328571D01*
X-33850000Y-38300000D02*
X-33907143Y-38242857D01*
X-34021429Y-38071428D01*
X-34078572Y-37957142D01*
X-34135715Y-37785714D01*
X-34192858Y-37500000D01*
X-34192858Y-37271428D01*
X-34135715Y-36985714D01*
X-34078572Y-36814285D01*
X-34021429Y-36700000D01*
X-33907143Y-36528571D01*
X-33850000Y-36471428D01*
X-32707143Y-37842857D02*
X-33107143Y-37271428D01*
X-33392858Y-37842857D02*
X-33392858Y-36642857D01*
X-32935715Y-36642857D01*
X-32821429Y-36700000D01*
X-32764286Y-36757142D01*
X-32707143Y-36871428D01*
X-32707143Y-37042857D01*
X-32764286Y-37157142D01*
X-32821429Y-37214285D01*
X-32935715Y-37271428D01*
X-33392858Y-37271428D01*
X-32192858Y-37842857D02*
X-32192858Y-36642857D01*
X-31735715Y-36642857D01*
X-31621429Y-36700000D01*
X-31564286Y-36757142D01*
X-31507143Y-36871428D01*
X-31507143Y-37042857D01*
X-31564286Y-37157142D01*
X-31621429Y-37214285D01*
X-31735715Y-37271428D01*
X-32192858Y-37271428D01*
X-30992858Y-37842857D02*
X-30992858Y-36642857D01*
X-29621429Y-36642857D02*
X-28878572Y-36642857D01*
X-29278572Y-37100000D01*
X-29107143Y-37100000D01*
X-28992858Y-37157142D01*
X-28935715Y-37214285D01*
X-28878572Y-37328571D01*
X-28878572Y-37614285D01*
X-28935715Y-37728571D01*
X-28992858Y-37785714D01*
X-29107143Y-37842857D01*
X-29450000Y-37842857D01*
X-29564286Y-37785714D01*
X-29621429Y-37728571D01*
X-28478572Y-36642857D02*
X-27678572Y-36642857D01*
X-28192858Y-37842857D01*
X-27335715Y-38300000D02*
X-27278572Y-38242857D01*
X-27164286Y-38071428D01*
X-27107143Y-37957142D01*
X-27050000Y-37785714D01*
X-26992858Y-37500000D01*
X-26992858Y-37271428D01*
X-27050000Y-36985714D01*
X-27107143Y-36814285D01*
X-27164286Y-36700000D01*
X-27278572Y-36528571D01*
X-27335715Y-36471428D01*
X-25678572Y-37042857D02*
X-25221429Y-37042857D01*
X-25507143Y-36642857D02*
X-25507143Y-37671428D01*
X-25450000Y-37785714D01*
X-25335715Y-37842857D01*
X-25221429Y-37842857D01*
X-24650000Y-37842857D02*
X-24764286Y-37785714D01*
X-24821429Y-37728571D01*
X-24878572Y-37614285D01*
X-24878572Y-37271428D01*
X-24821429Y-37157142D01*
X-24764286Y-37100000D01*
X-24650000Y-37042857D01*
X-24478572Y-37042857D01*
X-24364286Y-37100000D01*
X-24307143Y-37157142D01*
X-24250000Y-37271428D01*
X-24250000Y-37614285D01*
X-24307143Y-37728571D01*
X-24364286Y-37785714D01*
X-24478572Y-37842857D01*
X-24650000Y-37842857D01*
X-22821429Y-37214285D02*
X-22421429Y-37214285D01*
X-22250000Y-37842857D02*
X-22821429Y-37842857D01*
X-22821429Y-36642857D01*
X-22250000Y-36642857D01*
X-21735715Y-37842857D02*
X-21735715Y-36642857D01*
X-21050000Y-37842857D01*
X-21050000Y-36642857D01*
X-20535715Y-37500000D02*
X-19964286Y-37500000D01*
X-20650000Y-37842857D02*
X-20250000Y-36642857D01*
X-19850000Y-37842857D01*
X-19050000Y-37214285D02*
X-18878572Y-37271428D01*
X-18821429Y-37328571D01*
X-18764286Y-37442857D01*
X-18764286Y-37614285D01*
X-18821429Y-37728571D01*
X-18878572Y-37785714D01*
X-18992858Y-37842857D01*
X-19450000Y-37842857D01*
X-19450000Y-36642857D01*
X-19050000Y-36642857D01*
X-18935715Y-36700000D01*
X-18878572Y-36757142D01*
X-18821429Y-36871428D01*
X-18821429Y-36985714D01*
X-18878572Y-37100000D01*
X-18935715Y-37157142D01*
X-19050000Y-37214285D01*
X-19450000Y-37214285D01*
X-17678572Y-37842857D02*
X-18250000Y-37842857D01*
X-18250000Y-36642857D01*
X-17278572Y-37214285D02*
X-16878572Y-37214285D01*
X-16707143Y-37842857D02*
X-17278572Y-37842857D01*
X-17278572Y-36642857D01*
X-16707143Y-36642857D01*
X-14764286Y-37842857D02*
X-14764286Y-36642857D01*
X-14764286Y-37785714D02*
X-14878572Y-37842857D01*
X-15107143Y-37842857D01*
X-15221429Y-37785714D01*
X-15278572Y-37728571D01*
X-15335715Y-37614285D01*
X-15335715Y-37271428D01*
X-15278572Y-37157142D01*
X-15221429Y-37100000D01*
X-15107143Y-37042857D01*
X-14878572Y-37042857D01*
X-14764286Y-37100000D01*
X-13735715Y-37785714D02*
X-13850000Y-37842857D01*
X-14078572Y-37842857D01*
X-14192858Y-37785714D01*
X-14250000Y-37671428D01*
X-14250000Y-37214285D01*
X-14192858Y-37100000D01*
X-14078572Y-37042857D01*
X-13850000Y-37042857D01*
X-13735715Y-37100000D01*
X-13678572Y-37214285D01*
X-13678572Y-37328571D01*
X-14250000Y-37442857D01*
X-13278572Y-37042857D02*
X-12992858Y-37842857D01*
X-12707143Y-37042857D01*
X-12250000Y-37842857D02*
X-12250000Y-37042857D01*
X-12250000Y-36642857D02*
X-12307143Y-36700000D01*
X-12250000Y-36757142D01*
X-12192858Y-36700000D01*
X-12250000Y-36642857D01*
X-12250000Y-36757142D01*
X-11164286Y-37785714D02*
X-11278572Y-37842857D01*
X-11507143Y-37842857D01*
X-11621429Y-37785714D01*
X-11678572Y-37728571D01*
X-11735715Y-37614285D01*
X-11735715Y-37271428D01*
X-11678572Y-37157142D01*
X-11621429Y-37100000D01*
X-11507143Y-37042857D01*
X-11278572Y-37042857D01*
X-11164286Y-37100000D01*
X-10192858Y-37785714D02*
X-10307143Y-37842857D01*
X-10535715Y-37842857D01*
X-10650000Y-37785714D01*
X-10707143Y-37671428D01*
X-10707143Y-37214285D01*
X-10650000Y-37100000D01*
X-10535715Y-37042857D01*
X-10307143Y-37042857D01*
X-10192858Y-37100000D01*
X-10135715Y-37214285D01*
X-10135715Y-37328571D01*
X-10707143Y-37442857D01*
X-1808572Y-10650595D02*
X-1808572Y-10283928D01*
X-1232381Y-10126785D02*
X-1232381Y-10650595D01*
X-2332381Y-10650595D01*
X-2332381Y-10126785D01*
X-1232381Y-9760119D02*
X-1965715Y-9183928D01*
X-1965715Y-9760119D02*
X-1232381Y-9183928D01*
X-1965715Y-8922023D02*
X-1965715Y-8502976D01*
X-2332381Y-8764880D02*
X-1389524Y-8764880D01*
X-1284762Y-8712500D01*
X-1232381Y-8607738D01*
X-1232381Y-8502976D01*
X-1284762Y-7717261D02*
X-1232381Y-7822023D01*
X-1232381Y-8031547D01*
X-1284762Y-8136309D01*
X-1389524Y-8188690D01*
X-1808572Y-8188690D01*
X-1913334Y-8136309D01*
X-1965715Y-8031547D01*
X-1965715Y-7822023D01*
X-1913334Y-7717261D01*
X-1808572Y-7664880D01*
X-1703810Y-7664880D01*
X-1599048Y-8188690D01*
X-1232381Y-7193452D02*
X-1965715Y-7193452D01*
X-1756191Y-7193452D02*
X-1860953Y-7141071D01*
X-1913334Y-7088690D01*
X-1965715Y-6983928D01*
X-1965715Y-6879166D01*
X-1965715Y-6512500D02*
X-1232381Y-6512500D01*
X-1860953Y-6512500D02*
X-1913334Y-6460119D01*
X-1965715Y-6355357D01*
X-1965715Y-6198214D01*
X-1913334Y-6093452D01*
X-1808572Y-6041071D01*
X-1232381Y-6041071D01*
X-1232381Y-5045833D02*
X-1808572Y-5045833D01*
X-1913334Y-5098214D01*
X-1965715Y-5202976D01*
X-1965715Y-5412500D01*
X-1913334Y-5517261D01*
X-1284762Y-5045833D02*
X-1232381Y-5150595D01*
X-1232381Y-5412500D01*
X-1284762Y-5517261D01*
X-1389524Y-5569642D01*
X-1494286Y-5569642D01*
X-1599048Y-5517261D01*
X-1651429Y-5412500D01*
X-1651429Y-5150595D01*
X-1703810Y-5045833D01*
X-1232381Y-4364880D02*
X-1284762Y-4469642D01*
X-1389524Y-4522023D01*
X-2332381Y-4522023D01*
X-8572Y-10650595D02*
X-8572Y-10283928D01*
X567619Y-10126785D02*
X567619Y-10650595D01*
X-532381Y-10650595D01*
X-532381Y-10126785D01*
X567619Y-9655357D02*
X-532381Y-9655357D01*
X567619Y-9026785D01*
X-532381Y-9026785D01*
X986666Y-7350595D02*
X934285Y-7402976D01*
X777142Y-7507738D01*
X672380Y-7560119D01*
X515238Y-7612500D01*
X253333Y-7664880D01*
X43809Y-7664880D01*
X-218096Y-7612500D01*
X-375239Y-7560119D01*
X-480000Y-7507738D01*
X-637143Y-7402976D01*
X-689524Y-7350595D01*
X-532381Y-7036309D02*
X-532381Y-6355357D01*
X-113334Y-6722023D01*
X-113334Y-6564880D01*
X-60953Y-6460119D01*
X-8572Y-6407738D01*
X96190Y-6355357D01*
X358095Y-6355357D01*
X462857Y-6407738D01*
X515238Y-6460119D01*
X567619Y-6564880D01*
X567619Y-6879166D01*
X515238Y-6983928D01*
X462857Y-7036309D01*
X-532381Y-6041071D02*
X567619Y-5674404D01*
X-532381Y-5307738D01*
X-532381Y-5045833D02*
X-532381Y-4364880D01*
X-113334Y-4731547D01*
X-113334Y-4574404D01*
X-60953Y-4469642D01*
X-8572Y-4417261D01*
X96190Y-4364880D01*
X358095Y-4364880D01*
X462857Y-4417261D01*
X515238Y-4469642D01*
X567619Y-4574404D01*
X567619Y-4888690D01*
X515238Y-4993452D01*
X462857Y-5045833D01*
X986666Y-3998214D02*
X934285Y-3945833D01*
X777142Y-3841071D01*
X672380Y-3788690D01*
X515238Y-3736309D01*
X253333Y-3683928D01*
X43809Y-3683928D01*
X-218096Y-3736309D01*
X-375239Y-3788690D01*
X-480000Y-3841071D01*
X-637143Y-3945833D01*
X-689524Y-3998214D01*
D11*
G36*
X-45640000Y-35200000D02*
G01*
X-45990000Y-34100000D01*
X-45290000Y-34100000D01*
X-45640000Y-35200000D01*
G37*
X-45640000Y-35200000D02*
X-45990000Y-34100000D01*
X-45290000Y-34100000D01*
X-45640000Y-35200000D01*
G36*
X-45290000Y-29400000D02*
G01*
X-45990000Y-29400000D01*
X-45640000Y-28300000D01*
X-45290000Y-29400000D01*
G37*
X-45290000Y-29400000D02*
X-45990000Y-29400000D01*
X-45640000Y-28300000D01*
X-45290000Y-29400000D01*
D12*
X-45640000Y-34950000D02*
X-45640000Y-28450000D01*
X-45590000Y-31700000D02*
X-40390000Y-31700000D01*
D10*
X-59192977Y-44537619D02*
X-59526310Y-44013809D01*
X-59764405Y-44537619D02*
X-59764405Y-43437619D01*
X-59383453Y-43437619D01*
X-59288215Y-43490000D01*
X-59240596Y-43542380D01*
X-59192977Y-43647142D01*
X-59192977Y-43804285D01*
X-59240596Y-43909047D01*
X-59288215Y-43961428D01*
X-59383453Y-44013809D01*
X-59764405Y-44013809D01*
X-58764405Y-44537619D02*
X-58764405Y-43437619D01*
X-58383453Y-43437619D01*
X-58288215Y-43490000D01*
X-58240596Y-43542380D01*
X-58192977Y-43647142D01*
X-58192977Y-43804285D01*
X-58240596Y-43909047D01*
X-58288215Y-43961428D01*
X-58383453Y-44013809D01*
X-58764405Y-44013809D01*
X-57764405Y-44537619D02*
X-57764405Y-43437619D01*
X-59764405Y-46337619D02*
X-59764405Y-45237619D01*
X-59383453Y-45237619D01*
X-59288215Y-45290000D01*
X-59240596Y-45342380D01*
X-59192977Y-45447142D01*
X-59192977Y-45604285D01*
X-59240596Y-45709047D01*
X-59288215Y-45761428D01*
X-59383453Y-45813809D01*
X-59764405Y-45813809D01*
X-58764405Y-46337619D02*
X-58764405Y-45237619D01*
X-58288215Y-46337619D02*
X-58288215Y-45237619D01*
X-57716786Y-46337619D01*
X-57716786Y-45237619D01*
X-59415596Y-39490000D02*
X-59510834Y-39437619D01*
X-59653691Y-39437619D01*
X-59796548Y-39490000D01*
X-59891786Y-39594761D01*
X-59939405Y-39699523D01*
X-59987024Y-39909047D01*
X-59987024Y-40066190D01*
X-59939405Y-40275714D01*
X-59891786Y-40380476D01*
X-59796548Y-40485238D01*
X-59653691Y-40537619D01*
X-59558453Y-40537619D01*
X-59415596Y-40485238D01*
X-59367977Y-40432857D01*
X-59367977Y-40066190D01*
X-59558453Y-40066190D01*
X-58939405Y-40537619D02*
X-58939405Y-39437619D01*
X-58558453Y-39437619D01*
X-58463215Y-39490000D01*
X-58415596Y-39542380D01*
X-58367977Y-39647142D01*
X-58367977Y-39804285D01*
X-58415596Y-39909047D01*
X-58463215Y-39961428D01*
X-58558453Y-40013809D01*
X-58939405Y-40013809D01*
X-57939405Y-40537619D02*
X-57939405Y-39437619D01*
X-57272739Y-39437619D02*
X-57082262Y-39437619D01*
X-56987024Y-39490000D01*
X-56891786Y-39594761D01*
X-56844167Y-39804285D01*
X-56844167Y-40170952D01*
X-56891786Y-40380476D01*
X-56987024Y-40485238D01*
X-57082262Y-40537619D01*
X-57272739Y-40537619D01*
X-57367977Y-40485238D01*
X-57463215Y-40380476D01*
X-57510834Y-40170952D01*
X-57510834Y-39804285D01*
X-57463215Y-39594761D01*
X-57367977Y-39490000D01*
X-57272739Y-39437619D01*
X-59939405Y-42337619D02*
X-59939405Y-41237619D01*
X-59558453Y-41237619D01*
X-59463215Y-41290000D01*
X-59415596Y-41342380D01*
X-59367977Y-41447142D01*
X-59367977Y-41604285D01*
X-59415596Y-41709047D01*
X-59463215Y-41761428D01*
X-59558453Y-41813809D01*
X-59939405Y-41813809D01*
X-58939405Y-42337619D02*
X-58939405Y-41237619D01*
X-58463215Y-42337619D02*
X-58463215Y-41237619D01*
X-57891786Y-42337619D01*
X-57891786Y-41237619D01*
X-54191786Y-39437619D02*
X-54548929Y-39437619D01*
X-54584643Y-39961428D01*
X-54548929Y-39909047D01*
X-54477500Y-39856666D01*
X-54298929Y-39856666D01*
X-54227500Y-39909047D01*
X-54191786Y-39961428D01*
X-54156072Y-40066190D01*
X-54156072Y-40328095D01*
X-54191786Y-40432857D01*
X-54227500Y-40485238D01*
X-54298929Y-40537619D01*
X-54477500Y-40537619D01*
X-54548929Y-40485238D01*
X-54584643Y-40432857D01*
X-53941786Y-39437619D02*
X-53691786Y-40537619D01*
X-53441786Y-39437619D01*
X-51691786Y-39437619D02*
X-52048929Y-39437619D01*
X-52084643Y-39961428D01*
X-52048929Y-39909047D01*
X-51977500Y-39856666D01*
X-51798929Y-39856666D01*
X-51727500Y-39909047D01*
X-51691786Y-39961428D01*
X-51656072Y-40066190D01*
X-51656072Y-40328095D01*
X-51691786Y-40432857D01*
X-51727500Y-40485238D01*
X-51798929Y-40537619D01*
X-51977500Y-40537619D01*
X-52048929Y-40485238D01*
X-52084643Y-40432857D01*
X-51441786Y-39437619D02*
X-51191786Y-40537619D01*
X-50941786Y-39437619D01*
X-49156072Y-39490000D02*
X-49227500Y-39437619D01*
X-49334643Y-39437619D01*
X-49441786Y-39490000D01*
X-49513215Y-39594761D01*
X-49548929Y-39699523D01*
X-49584643Y-39909047D01*
X-49584643Y-40066190D01*
X-49548929Y-40275714D01*
X-49513215Y-40380476D01*
X-49441786Y-40485238D01*
X-49334643Y-40537619D01*
X-49263215Y-40537619D01*
X-49156072Y-40485238D01*
X-49120358Y-40432857D01*
X-49120358Y-40066190D01*
X-49263215Y-40066190D01*
X-48798929Y-40537619D02*
X-48798929Y-39437619D01*
X-48370358Y-40537619D01*
X-48370358Y-39437619D01*
X-48013215Y-40537619D02*
X-48013215Y-39437619D01*
X-47834643Y-39437619D01*
X-47727500Y-39490000D01*
X-47656072Y-39594761D01*
X-47620358Y-39699523D01*
X-47584643Y-39909047D01*
X-47584643Y-40066190D01*
X-47620358Y-40275714D01*
X-47656072Y-40380476D01*
X-47727500Y-40485238D01*
X-47834643Y-40537619D01*
X-48013215Y-40537619D01*
X-46298929Y-40537619D02*
X-46727500Y-40537619D01*
X-46513215Y-40537619D02*
X-46513215Y-39437619D01*
X-46584643Y-39594761D01*
X-46656072Y-39699523D01*
X-46727500Y-39751904D01*
X-45656072Y-39804285D02*
X-45656072Y-40537619D01*
X-45834643Y-39385238D02*
X-46013215Y-40170952D01*
X-45548929Y-40170952D01*
X-43727500Y-40537619D02*
X-44156072Y-40537619D01*
X-43941786Y-40537619D02*
X-43941786Y-39437619D01*
X-44013215Y-39594761D01*
X-44084643Y-39699523D01*
X-44156072Y-39751904D01*
X-43048929Y-39437619D02*
X-43406072Y-39437619D01*
X-43441786Y-39961428D01*
X-43406072Y-39909047D01*
X-43334643Y-39856666D01*
X-43156072Y-39856666D01*
X-43084643Y-39909047D01*
X-43048929Y-39961428D01*
X-43013215Y-40066190D01*
X-43013215Y-40328095D01*
X-43048929Y-40432857D01*
X-43084643Y-40485238D01*
X-43156072Y-40537619D01*
X-43334643Y-40537619D01*
X-43406072Y-40485238D01*
X-43441786Y-40432857D01*
X-41156072Y-40537619D02*
X-41584643Y-40537619D01*
X-41370358Y-40537619D02*
X-41370358Y-39437619D01*
X-41441786Y-39594761D01*
X-41513215Y-39699523D01*
X-41584643Y-39751904D01*
X-40727500Y-39909047D02*
X-40798929Y-39856666D01*
X-40834643Y-39804285D01*
X-40870358Y-39699523D01*
X-40870358Y-39647142D01*
X-40834643Y-39542380D01*
X-40798929Y-39490000D01*
X-40727500Y-39437619D01*
X-40584643Y-39437619D01*
X-40513215Y-39490000D01*
X-40477500Y-39542380D01*
X-40441786Y-39647142D01*
X-40441786Y-39699523D01*
X-40477500Y-39804285D01*
X-40513215Y-39856666D01*
X-40584643Y-39909047D01*
X-40727500Y-39909047D01*
X-40798929Y-39961428D01*
X-40834643Y-40013809D01*
X-40870358Y-40118571D01*
X-40870358Y-40328095D01*
X-40834643Y-40432857D01*
X-40798929Y-40485238D01*
X-40727500Y-40537619D01*
X-40584643Y-40537619D01*
X-40513215Y-40485238D01*
X-40477500Y-40432857D01*
X-40441786Y-40328095D01*
X-40441786Y-40118571D01*
X-40477500Y-40013809D01*
X-40513215Y-39961428D01*
X-40584643Y-39909047D01*
X-38584643Y-39490000D02*
X-38656072Y-39437619D01*
X-38763215Y-39437619D01*
X-38870358Y-39490000D01*
X-38941786Y-39594761D01*
X-38977500Y-39699523D01*
X-39013215Y-39909047D01*
X-39013215Y-40066190D01*
X-38977500Y-40275714D01*
X-38941786Y-40380476D01*
X-38870358Y-40485238D01*
X-38763215Y-40537619D01*
X-38691786Y-40537619D01*
X-38584643Y-40485238D01*
X-38548929Y-40432857D01*
X-38548929Y-40066190D01*
X-38691786Y-40066190D01*
X-38227500Y-40537619D02*
X-38227500Y-39437619D01*
X-37798929Y-40537619D01*
X-37798929Y-39437619D01*
X-37441786Y-40537619D02*
X-37441786Y-39437619D01*
X-37263215Y-39437619D01*
X-37156072Y-39490000D01*
X-37084643Y-39594761D01*
X-37048929Y-39699523D01*
X-37013215Y-39909047D01*
X-37013215Y-40066190D01*
X-37048929Y-40275714D01*
X-37084643Y-40380476D01*
X-37156072Y-40485238D01*
X-37263215Y-40537619D01*
X-37441786Y-40537619D01*
X-36156072Y-39542380D02*
X-36120358Y-39490000D01*
X-36048929Y-39437619D01*
X-35870358Y-39437619D01*
X-35798929Y-39490000D01*
X-35763215Y-39542380D01*
X-35727500Y-39647142D01*
X-35727500Y-39751904D01*
X-35763215Y-39909047D01*
X-36191786Y-40537619D01*
X-35727500Y-40537619D01*
X-35477500Y-39437619D02*
X-35013215Y-39437619D01*
X-35263215Y-39856666D01*
X-35156072Y-39856666D01*
X-35084643Y-39909047D01*
X-35048929Y-39961428D01*
X-35013215Y-40066190D01*
X-35013215Y-40328095D01*
X-35048929Y-40432857D01*
X-35084643Y-40485238D01*
X-35156072Y-40537619D01*
X-35370358Y-40537619D01*
X-35441786Y-40485238D01*
X-35477500Y-40432857D01*
X-33584643Y-39542380D02*
X-33548929Y-39490000D01*
X-33477500Y-39437619D01*
X-33298929Y-39437619D01*
X-33227500Y-39490000D01*
X-33191786Y-39542380D01*
X-33156072Y-39647142D01*
X-33156072Y-39751904D01*
X-33191786Y-39909047D01*
X-33620358Y-40537619D01*
X-33156072Y-40537619D01*
X-32513215Y-39804285D02*
X-32513215Y-40537619D01*
X-32691786Y-39385238D02*
X-32870358Y-40170952D01*
X-32406072Y-40170952D01*
X-30584643Y-39490000D02*
X-30656072Y-39437619D01*
X-30763215Y-39437619D01*
X-30870358Y-39490000D01*
X-30941786Y-39594761D01*
X-30977500Y-39699523D01*
X-31013215Y-39909047D01*
X-31013215Y-40066190D01*
X-30977500Y-40275714D01*
X-30941786Y-40380476D01*
X-30870358Y-40485238D01*
X-30763215Y-40537619D01*
X-30691786Y-40537619D01*
X-30584643Y-40485238D01*
X-30548929Y-40432857D01*
X-30548929Y-40066190D01*
X-30691786Y-40066190D01*
X-30227500Y-40537619D02*
X-30227500Y-39437619D01*
X-29798929Y-40537619D01*
X-29798929Y-39437619D01*
X-29441786Y-40537619D02*
X-29441786Y-39437619D01*
X-29263215Y-39437619D01*
X-29156072Y-39490000D01*
X-29084643Y-39594761D01*
X-29048929Y-39699523D01*
X-29013215Y-39909047D01*
X-29013215Y-40066190D01*
X-29048929Y-40275714D01*
X-29084643Y-40380476D01*
X-29156072Y-40485238D01*
X-29263215Y-40537619D01*
X-29441786Y-40537619D01*
X-28156072Y-39542380D02*
X-28120358Y-39490000D01*
X-28048929Y-39437619D01*
X-27870358Y-39437619D01*
X-27798929Y-39490000D01*
X-27763215Y-39542380D01*
X-27727500Y-39647142D01*
X-27727500Y-39751904D01*
X-27763215Y-39909047D01*
X-28191786Y-40537619D01*
X-27727500Y-40537619D01*
X-27048929Y-39437619D02*
X-27406072Y-39437619D01*
X-27441786Y-39961428D01*
X-27406072Y-39909047D01*
X-27334643Y-39856666D01*
X-27156072Y-39856666D01*
X-27084643Y-39909047D01*
X-27048929Y-39961428D01*
X-27013215Y-40066190D01*
X-27013215Y-40328095D01*
X-27048929Y-40432857D01*
X-27084643Y-40485238D01*
X-27156072Y-40537619D01*
X-27334643Y-40537619D01*
X-27406072Y-40485238D01*
X-27441786Y-40432857D01*
X-25406072Y-39437619D02*
X-25334643Y-39437619D01*
X-25263215Y-39490000D01*
X-25227500Y-39542380D01*
X-25191786Y-39647142D01*
X-25156072Y-39856666D01*
X-25156072Y-40118571D01*
X-25191786Y-40328095D01*
X-25227500Y-40432857D01*
X-25263215Y-40485238D01*
X-25334643Y-40537619D01*
X-25406072Y-40537619D01*
X-25477500Y-40485238D01*
X-25513215Y-40432857D01*
X-25548929Y-40328095D01*
X-25584643Y-40118571D01*
X-25584643Y-39856666D01*
X-25548929Y-39647142D01*
X-25513215Y-39542380D01*
X-25477500Y-39490000D01*
X-25406072Y-39437619D01*
X-24727500Y-39909047D02*
X-24798929Y-39856666D01*
X-24834643Y-39804285D01*
X-24870358Y-39699523D01*
X-24870358Y-39647142D01*
X-24834643Y-39542380D01*
X-24798929Y-39490000D01*
X-24727500Y-39437619D01*
X-24584643Y-39437619D01*
X-24513215Y-39490000D01*
X-24477500Y-39542380D01*
X-24441786Y-39647142D01*
X-24441786Y-39699523D01*
X-24477500Y-39804285D01*
X-24513215Y-39856666D01*
X-24584643Y-39909047D01*
X-24727500Y-39909047D01*
X-24798929Y-39961428D01*
X-24834643Y-40013809D01*
X-24870358Y-40118571D01*
X-24870358Y-40328095D01*
X-24834643Y-40432857D01*
X-24798929Y-40485238D01*
X-24727500Y-40537619D01*
X-24584643Y-40537619D01*
X-24513215Y-40485238D01*
X-24477500Y-40432857D01*
X-24441786Y-40328095D01*
X-24441786Y-40118571D01*
X-24477500Y-40013809D01*
X-24513215Y-39961428D01*
X-24584643Y-39909047D01*
X-22834643Y-39437619D02*
X-22763215Y-39437619D01*
X-22691786Y-39490000D01*
X-22656072Y-39542380D01*
X-22620358Y-39647142D01*
X-22584643Y-39856666D01*
X-22584643Y-40118571D01*
X-22620358Y-40328095D01*
X-22656072Y-40432857D01*
X-22691786Y-40485238D01*
X-22763215Y-40537619D01*
X-22834643Y-40537619D01*
X-22906072Y-40485238D01*
X-22941786Y-40432857D01*
X-22977501Y-40328095D01*
X-23013215Y-40118571D01*
X-23013215Y-39856666D01*
X-22977501Y-39647142D01*
X-22941786Y-39542380D01*
X-22906072Y-39490000D01*
X-22834643Y-39437619D01*
X-22334643Y-39437619D02*
X-21834643Y-39437619D01*
X-22156072Y-40537619D01*
X-20263215Y-39437619D02*
X-20191786Y-39437619D01*
X-20120358Y-39490000D01*
X-20084643Y-39542380D01*
X-20048929Y-39647142D01*
X-20013215Y-39856666D01*
X-20013215Y-40118571D01*
X-20048929Y-40328095D01*
X-20084643Y-40432857D01*
X-20120358Y-40485238D01*
X-20191786Y-40537619D01*
X-20263215Y-40537619D01*
X-20334643Y-40485238D01*
X-20370358Y-40432857D01*
X-20406072Y-40328095D01*
X-20441786Y-40118571D01*
X-20441786Y-39856666D01*
X-20406072Y-39647142D01*
X-20370358Y-39542380D01*
X-20334643Y-39490000D01*
X-20263215Y-39437619D01*
X-19298929Y-40537619D02*
X-19727500Y-40537619D01*
X-19513215Y-40537619D02*
X-19513215Y-39437619D01*
X-19584643Y-39594761D01*
X-19656072Y-39699523D01*
X-19727500Y-39751904D01*
X-18013215Y-39490000D02*
X-18084643Y-39437619D01*
X-18191786Y-39437619D01*
X-18298929Y-39490000D01*
X-18370358Y-39594761D01*
X-18406072Y-39699523D01*
X-18441786Y-39909047D01*
X-18441786Y-40066190D01*
X-18406072Y-40275714D01*
X-18370358Y-40380476D01*
X-18298929Y-40485238D01*
X-18191786Y-40537619D01*
X-18120358Y-40537619D01*
X-18013215Y-40485238D01*
X-17977500Y-40432857D01*
X-17977500Y-40066190D01*
X-18120358Y-40066190D01*
X-17656072Y-40537619D02*
X-17656072Y-39437619D01*
X-17227500Y-40537619D01*
X-17227500Y-39437619D01*
X-16870358Y-40537619D02*
X-16870358Y-39437619D01*
X-16691786Y-39437619D01*
X-16584643Y-39490000D01*
X-16513215Y-39594761D01*
X-16477500Y-39699523D01*
X-16441786Y-39909047D01*
X-16441786Y-40066190D01*
X-16477500Y-40275714D01*
X-16513215Y-40380476D01*
X-16584643Y-40485238D01*
X-16691786Y-40537619D01*
X-16870358Y-40537619D01*
X-15156072Y-40537619D02*
X-15584643Y-40537619D01*
X-15370358Y-40537619D02*
X-15370358Y-39437619D01*
X-15441786Y-39594761D01*
X-15513215Y-39699523D01*
X-15584643Y-39751904D01*
X-14870358Y-39542380D02*
X-14834643Y-39490000D01*
X-14763215Y-39437619D01*
X-14584643Y-39437619D01*
X-14513215Y-39490000D01*
X-14477500Y-39542380D01*
X-14441786Y-39647142D01*
X-14441786Y-39751904D01*
X-14477500Y-39909047D01*
X-14906072Y-40537619D01*
X-14441786Y-40537619D01*
X-12584643Y-39490000D02*
X-12656072Y-39437619D01*
X-12763215Y-39437619D01*
X-12870358Y-39490000D01*
X-12941786Y-39594761D01*
X-12977500Y-39699523D01*
X-13013215Y-39909047D01*
X-13013215Y-40066190D01*
X-12977500Y-40275714D01*
X-12941786Y-40380476D01*
X-12870358Y-40485238D01*
X-12763215Y-40537619D01*
X-12691786Y-40537619D01*
X-12584643Y-40485238D01*
X-12548929Y-40432857D01*
X-12548929Y-40066190D01*
X-12691786Y-40066190D01*
X-12227500Y-40537619D02*
X-12227500Y-39437619D01*
X-11798929Y-40537619D01*
X-11798929Y-39437619D01*
X-11441786Y-40537619D02*
X-11441786Y-39437619D01*
X-11263215Y-39437619D01*
X-11156072Y-39490000D01*
X-11084643Y-39594761D01*
X-11048929Y-39699523D01*
X-11013215Y-39909047D01*
X-11013215Y-40066190D01*
X-11048929Y-40275714D01*
X-11084643Y-40380476D01*
X-11156072Y-40485238D01*
X-11263215Y-40537619D01*
X-11441786Y-40537619D01*
X-9727500Y-40537619D02*
X-10156072Y-40537619D01*
X-9941786Y-40537619D02*
X-9941786Y-39437619D01*
X-10013215Y-39594761D01*
X-10084643Y-39699523D01*
X-10156072Y-39751904D01*
X-9084643Y-39437619D02*
X-9227500Y-39437619D01*
X-9298929Y-39490000D01*
X-9334643Y-39542380D01*
X-9406072Y-39699523D01*
X-9441786Y-39909047D01*
X-9441786Y-40328095D01*
X-9406072Y-40432857D01*
X-9370358Y-40485238D01*
X-9298929Y-40537619D01*
X-9156072Y-40537619D01*
X-9084643Y-40485238D01*
X-9048929Y-40432857D01*
X-9013215Y-40328095D01*
X-9013215Y-40066190D01*
X-9048929Y-39961428D01*
X-9084643Y-39909047D01*
X-9156072Y-39856666D01*
X-9298929Y-39856666D01*
X-9370358Y-39909047D01*
X-9406072Y-39961428D01*
X-9441786Y-40066190D01*
X-7584643Y-39542380D02*
X-7548929Y-39490000D01*
X-7477500Y-39437619D01*
X-7298929Y-39437619D01*
X-7227500Y-39490000D01*
X-7191786Y-39542380D01*
X-7156072Y-39647142D01*
X-7156072Y-39751904D01*
X-7191786Y-39909047D01*
X-7620358Y-40537619D01*
X-7156072Y-40537619D01*
X-6691786Y-39437619D02*
X-6620358Y-39437619D01*
X-6548929Y-39490000D01*
X-6513215Y-39542380D01*
X-6477500Y-39647142D01*
X-6441786Y-39856666D01*
X-6441786Y-40118571D01*
X-6477500Y-40328095D01*
X-6513215Y-40432857D01*
X-6548929Y-40485238D01*
X-6620358Y-40537619D01*
X-6691786Y-40537619D01*
X-6763215Y-40485238D01*
X-6798929Y-40432857D01*
X-6834643Y-40328095D01*
X-6870358Y-40118571D01*
X-6870358Y-39856666D01*
X-6834643Y-39647142D01*
X-6798929Y-39542380D01*
X-6763215Y-39490000D01*
X-6691786Y-39437619D01*
X-5013215Y-39542380D02*
X-4977500Y-39490000D01*
X-4906072Y-39437619D01*
X-4727500Y-39437619D01*
X-4656072Y-39490000D01*
X-4620358Y-39542380D01*
X-4584643Y-39647142D01*
X-4584643Y-39751904D01*
X-4620358Y-39909047D01*
X-5048929Y-40537619D01*
X-4584643Y-40537619D01*
X-3870358Y-40537619D02*
X-4298929Y-40537619D01*
X-4084643Y-40537619D02*
X-4084643Y-39437619D01*
X-4156072Y-39594761D01*
X-4227500Y-39699523D01*
X-4298929Y-39751904D01*
X-54191786Y-41237619D02*
X-54548929Y-41237619D01*
X-54584643Y-41761428D01*
X-54548929Y-41709047D01*
X-54477500Y-41656666D01*
X-54298929Y-41656666D01*
X-54227500Y-41709047D01*
X-54191786Y-41761428D01*
X-54156072Y-41866190D01*
X-54156072Y-42128095D01*
X-54191786Y-42232857D01*
X-54227500Y-42285238D01*
X-54298929Y-42337619D01*
X-54477500Y-42337619D01*
X-54548929Y-42285238D01*
X-54584643Y-42232857D01*
X-53941786Y-41237619D02*
X-53691786Y-42337619D01*
X-53441786Y-41237619D01*
X-51906072Y-41237619D02*
X-51834643Y-41237619D01*
X-51763215Y-41290000D01*
X-51727500Y-41342380D01*
X-51691786Y-41447142D01*
X-51656072Y-41656666D01*
X-51656072Y-41918571D01*
X-51691786Y-42128095D01*
X-51727500Y-42232857D01*
X-51763215Y-42285238D01*
X-51834643Y-42337619D01*
X-51906072Y-42337619D01*
X-51977500Y-42285238D01*
X-52013215Y-42232857D01*
X-52048929Y-42128095D01*
X-52084643Y-41918571D01*
X-52084643Y-41656666D01*
X-52048929Y-41447142D01*
X-52013215Y-41342380D01*
X-51977500Y-41290000D01*
X-51906072Y-41237619D01*
X-51370358Y-41342380D02*
X-51334643Y-41290000D01*
X-51263215Y-41237619D01*
X-51084643Y-41237619D01*
X-51013215Y-41290000D01*
X-50977500Y-41342380D01*
X-50941786Y-41447142D01*
X-50941786Y-41551904D01*
X-50977500Y-41709047D01*
X-51406072Y-42337619D01*
X-50941786Y-42337619D01*
X-49334643Y-41237619D02*
X-49263215Y-41237619D01*
X-49191786Y-41290000D01*
X-49156072Y-41342380D01*
X-49120358Y-41447142D01*
X-49084643Y-41656666D01*
X-49084643Y-41918571D01*
X-49120358Y-42128095D01*
X-49156072Y-42232857D01*
X-49191786Y-42285238D01*
X-49263215Y-42337619D01*
X-49334643Y-42337619D01*
X-49406072Y-42285238D01*
X-49441786Y-42232857D01*
X-49477500Y-42128095D01*
X-49513215Y-41918571D01*
X-49513215Y-41656666D01*
X-49477500Y-41447142D01*
X-49441786Y-41342380D01*
X-49406072Y-41290000D01*
X-49334643Y-41237619D01*
X-48834643Y-41237619D02*
X-48370358Y-41237619D01*
X-48620358Y-41656666D01*
X-48513215Y-41656666D01*
X-48441786Y-41709047D01*
X-48406072Y-41761428D01*
X-48370358Y-41866190D01*
X-48370358Y-42128095D01*
X-48406072Y-42232857D01*
X-48441786Y-42285238D01*
X-48513215Y-42337619D01*
X-48727500Y-42337619D01*
X-48798929Y-42285238D01*
X-48834643Y-42232857D01*
X-46763215Y-41237619D02*
X-46691786Y-41237619D01*
X-46620358Y-41290000D01*
X-46584643Y-41342380D01*
X-46548929Y-41447142D01*
X-46513215Y-41656666D01*
X-46513215Y-41918571D01*
X-46548929Y-42128095D01*
X-46584643Y-42232857D01*
X-46620358Y-42285238D01*
X-46691786Y-42337619D01*
X-46763215Y-42337619D01*
X-46834643Y-42285238D01*
X-46870358Y-42232857D01*
X-46906072Y-42128095D01*
X-46941786Y-41918571D01*
X-46941786Y-41656666D01*
X-46906072Y-41447142D01*
X-46870358Y-41342380D01*
X-46834643Y-41290000D01*
X-46763215Y-41237619D01*
X-45870358Y-41604285D02*
X-45870358Y-42337619D01*
X-46048929Y-41185238D02*
X-46227500Y-41970952D01*
X-45763215Y-41970952D01*
X-43941786Y-41290000D02*
X-44013215Y-41237619D01*
X-44120358Y-41237619D01*
X-44227500Y-41290000D01*
X-44298929Y-41394761D01*
X-44334643Y-41499523D01*
X-44370358Y-41709047D01*
X-44370358Y-41866190D01*
X-44334643Y-42075714D01*
X-44298929Y-42180476D01*
X-44227500Y-42285238D01*
X-44120358Y-42337619D01*
X-44048929Y-42337619D01*
X-43941786Y-42285238D01*
X-43906072Y-42232857D01*
X-43906072Y-41866190D01*
X-44048929Y-41866190D01*
X-43584643Y-42337619D02*
X-43584643Y-41237619D01*
X-43156072Y-42337619D01*
X-43156072Y-41237619D01*
X-42798929Y-42337619D02*
X-42798929Y-41237619D01*
X-42620358Y-41237619D01*
X-42513215Y-41290000D01*
X-42441786Y-41394761D01*
X-42406072Y-41499523D01*
X-42370358Y-41709047D01*
X-42370358Y-41866190D01*
X-42406072Y-42075714D01*
X-42441786Y-42180476D01*
X-42513215Y-42285238D01*
X-42620358Y-42337619D01*
X-42798929Y-42337619D01*
X-41084643Y-42337619D02*
X-41513215Y-42337619D01*
X-41298929Y-42337619D02*
X-41298929Y-41237619D01*
X-41370358Y-41394761D01*
X-41441786Y-41499523D01*
X-41513215Y-41551904D01*
X-40834643Y-41237619D02*
X-40334643Y-41237619D01*
X-40656072Y-42337619D01*
X-38941786Y-41342380D02*
X-38906072Y-41290000D01*
X-38834643Y-41237619D01*
X-38656072Y-41237619D01*
X-38584643Y-41290000D01*
X-38548929Y-41342380D01*
X-38513215Y-41447142D01*
X-38513215Y-41551904D01*
X-38548929Y-41709047D01*
X-38977500Y-42337619D01*
X-38513215Y-42337619D01*
X-38263215Y-41237619D02*
X-37763215Y-41237619D01*
X-38084643Y-42337619D01*
X-36370358Y-41342380D02*
X-36334643Y-41290000D01*
X-36263215Y-41237619D01*
X-36084643Y-41237619D01*
X-36013215Y-41290000D01*
X-35977500Y-41342380D01*
X-35941786Y-41447142D01*
X-35941786Y-41551904D01*
X-35977500Y-41709047D01*
X-36406072Y-42337619D01*
X-35941786Y-42337619D01*
X-35656072Y-41342380D02*
X-35620358Y-41290000D01*
X-35548929Y-41237619D01*
X-35370358Y-41237619D01*
X-35298929Y-41290000D01*
X-35263215Y-41342380D01*
X-35227500Y-41447142D01*
X-35227500Y-41551904D01*
X-35263215Y-41709047D01*
X-35691786Y-42337619D01*
X-35227500Y-42337619D01*
X-33406072Y-41237619D02*
X-33763215Y-41237619D01*
X-33798929Y-41761428D01*
X-33763215Y-41709047D01*
X-33691786Y-41656666D01*
X-33513215Y-41656666D01*
X-33441786Y-41709047D01*
X-33406072Y-41761428D01*
X-33370358Y-41866190D01*
X-33370358Y-42128095D01*
X-33406072Y-42232857D01*
X-33441786Y-42285238D01*
X-33513215Y-42337619D01*
X-33691786Y-42337619D01*
X-33763215Y-42285238D01*
X-33798929Y-42232857D01*
X-33156072Y-41237619D02*
X-32906072Y-42337619D01*
X-32656072Y-41237619D01*
X-30870358Y-42337619D02*
X-31298929Y-42337619D01*
X-31084643Y-42337619D02*
X-31084643Y-41237619D01*
X-31156072Y-41394761D01*
X-31227500Y-41499523D01*
X-31298929Y-41551904D01*
X-30406072Y-41237619D02*
X-30334643Y-41237619D01*
X-30263215Y-41290000D01*
X-30227500Y-41342380D01*
X-30191786Y-41447142D01*
X-30156072Y-41656666D01*
X-30156072Y-41918571D01*
X-30191786Y-42128095D01*
X-30227500Y-42232857D01*
X-30263215Y-42285238D01*
X-30334643Y-42337619D01*
X-30406072Y-42337619D01*
X-30477500Y-42285238D01*
X-30513215Y-42232857D01*
X-30548929Y-42128095D01*
X-30584643Y-41918571D01*
X-30584643Y-41656666D01*
X-30548929Y-41447142D01*
X-30513215Y-41342380D01*
X-30477500Y-41290000D01*
X-30406072Y-41237619D01*
X-28548929Y-41237619D02*
X-28477501Y-41237619D01*
X-28406072Y-41290000D01*
X-28370358Y-41342380D01*
X-28334643Y-41447142D01*
X-28298929Y-41656666D01*
X-28298929Y-41918571D01*
X-28334643Y-42128095D01*
X-28370358Y-42232857D01*
X-28406072Y-42285238D01*
X-28477501Y-42337619D01*
X-28548929Y-42337619D01*
X-28620358Y-42285238D01*
X-28656072Y-42232857D01*
X-28691786Y-42128095D01*
X-28727501Y-41918571D01*
X-28727501Y-41656666D01*
X-28691786Y-41447142D01*
X-28656072Y-41342380D01*
X-28620358Y-41290000D01*
X-28548929Y-41237619D01*
X-27941786Y-42337619D02*
X-27798929Y-42337619D01*
X-27727501Y-42285238D01*
X-27691786Y-42232857D01*
X-27620358Y-42075714D01*
X-27584643Y-41866190D01*
X-27584643Y-41447142D01*
X-27620358Y-41342380D01*
X-27656072Y-41290000D01*
X-27727501Y-41237619D01*
X-27870358Y-41237619D01*
X-27941786Y-41290000D01*
X-27977501Y-41342380D01*
X-28013215Y-41447142D01*
X-28013215Y-41709047D01*
X-27977501Y-41813809D01*
X-27941786Y-41866190D01*
X-27870358Y-41918571D01*
X-27727501Y-41918571D01*
X-27656072Y-41866190D01*
X-27620358Y-41813809D01*
X-27584643Y-41709047D01*
X-25727501Y-42337619D02*
X-26156072Y-42337619D01*
X-25941786Y-42337619D02*
X-25941786Y-41237619D01*
X-26013215Y-41394761D01*
X-26084643Y-41499523D01*
X-26156072Y-41551904D01*
X-25013215Y-42337619D02*
X-25441786Y-42337619D01*
X-25227501Y-42337619D02*
X-25227501Y-41237619D01*
X-25298929Y-41394761D01*
X-25370358Y-41499523D01*
X-25441786Y-41551904D01*
X-23156072Y-41290000D02*
X-23227501Y-41237619D01*
X-23334643Y-41237619D01*
X-23441786Y-41290000D01*
X-23513215Y-41394761D01*
X-23548929Y-41499523D01*
X-23584643Y-41709047D01*
X-23584643Y-41866190D01*
X-23548929Y-42075714D01*
X-23513215Y-42180476D01*
X-23441786Y-42285238D01*
X-23334643Y-42337619D01*
X-23263215Y-42337619D01*
X-23156072Y-42285238D01*
X-23120358Y-42232857D01*
X-23120358Y-41866190D01*
X-23263215Y-41866190D01*
X-22798929Y-42337619D02*
X-22798929Y-41237619D01*
X-22370358Y-42337619D01*
X-22370358Y-41237619D01*
X-22013215Y-42337619D02*
X-22013215Y-41237619D01*
X-21834643Y-41237619D01*
X-21727501Y-41290000D01*
X-21656072Y-41394761D01*
X-21620358Y-41499523D01*
X-21584643Y-41709047D01*
X-21584643Y-41866190D01*
X-21620358Y-42075714D01*
X-21656072Y-42180476D01*
X-21727501Y-42285238D01*
X-21834643Y-42337619D01*
X-22013215Y-42337619D01*
X-20548929Y-41237619D02*
X-20477501Y-41237619D01*
X-20406072Y-41290000D01*
X-20370358Y-41342380D01*
X-20334643Y-41447142D01*
X-20298929Y-41656666D01*
X-20298929Y-41918571D01*
X-20334643Y-42128095D01*
X-20370358Y-42232857D01*
X-20406072Y-42285238D01*
X-20477501Y-42337619D01*
X-20548929Y-42337619D01*
X-20620358Y-42285238D01*
X-20656072Y-42232857D01*
X-20691786Y-42128095D01*
X-20727501Y-41918571D01*
X-20727501Y-41656666D01*
X-20691786Y-41447142D01*
X-20656072Y-41342380D01*
X-20620358Y-41290000D01*
X-20548929Y-41237619D01*
X-19834643Y-41237619D02*
X-19763215Y-41237619D01*
X-19691786Y-41290000D01*
X-19656072Y-41342380D01*
X-19620358Y-41447142D01*
X-19584643Y-41656666D01*
X-19584643Y-41918571D01*
X-19620358Y-42128095D01*
X-19656072Y-42232857D01*
X-19691786Y-42285238D01*
X-19763215Y-42337619D01*
X-19834643Y-42337619D01*
X-19906072Y-42285238D01*
X-19941786Y-42232857D01*
X-19977501Y-42128095D01*
X-20013215Y-41918571D01*
X-20013215Y-41656666D01*
X-19977501Y-41447142D01*
X-19941786Y-41342380D01*
X-19906072Y-41290000D01*
X-19834643Y-41237619D01*
X-17977500Y-41237619D02*
X-17906072Y-41237619D01*
X-17834643Y-41290000D01*
X-17798929Y-41342380D01*
X-17763215Y-41447142D01*
X-17727500Y-41656666D01*
X-17727500Y-41918571D01*
X-17763215Y-42128095D01*
X-17798929Y-42232857D01*
X-17834643Y-42285238D01*
X-17906072Y-42337619D01*
X-17977500Y-42337619D01*
X-18048929Y-42285238D01*
X-18084643Y-42232857D01*
X-18120358Y-42128095D01*
X-18156072Y-41918571D01*
X-18156072Y-41656666D01*
X-18120358Y-41447142D01*
X-18084643Y-41342380D01*
X-18048929Y-41290000D01*
X-17977500Y-41237619D01*
X-17048929Y-41237619D02*
X-17406072Y-41237619D01*
X-17441786Y-41761428D01*
X-17406072Y-41709047D01*
X-17334643Y-41656666D01*
X-17156072Y-41656666D01*
X-17084643Y-41709047D01*
X-17048929Y-41761428D01*
X-17013215Y-41866190D01*
X-17013215Y-42128095D01*
X-17048929Y-42232857D01*
X-17084643Y-42285238D01*
X-17156072Y-42337619D01*
X-17334643Y-42337619D01*
X-17406072Y-42285238D01*
X-17441786Y-42232857D01*
X-15406072Y-41237619D02*
X-15334643Y-41237619D01*
X-15263215Y-41290000D01*
X-15227500Y-41342380D01*
X-15191786Y-41447142D01*
X-15156072Y-41656666D01*
X-15156072Y-41918571D01*
X-15191786Y-42128095D01*
X-15227500Y-42232857D01*
X-15263215Y-42285238D01*
X-15334643Y-42337619D01*
X-15406072Y-42337619D01*
X-15477500Y-42285238D01*
X-15513215Y-42232857D01*
X-15548929Y-42128095D01*
X-15584643Y-41918571D01*
X-15584643Y-41656666D01*
X-15548929Y-41447142D01*
X-15513215Y-41342380D01*
X-15477500Y-41290000D01*
X-15406072Y-41237619D01*
X-14513215Y-41237619D02*
X-14656072Y-41237619D01*
X-14727500Y-41290000D01*
X-14763215Y-41342380D01*
X-14834643Y-41499523D01*
X-14870358Y-41709047D01*
X-14870358Y-42128095D01*
X-14834643Y-42232857D01*
X-14798929Y-42285238D01*
X-14727500Y-42337619D01*
X-14584643Y-42337619D01*
X-14513215Y-42285238D01*
X-14477500Y-42232857D01*
X-14441786Y-42128095D01*
X-14441786Y-41866190D01*
X-14477500Y-41761428D01*
X-14513215Y-41709047D01*
X-14584643Y-41656666D01*
X-14727500Y-41656666D01*
X-14798929Y-41709047D01*
X-14834643Y-41761428D01*
X-14870358Y-41866190D01*
X-12584643Y-42337619D02*
X-13013215Y-42337619D01*
X-12798929Y-42337619D02*
X-12798929Y-41237619D01*
X-12870358Y-41394761D01*
X-12941786Y-41499523D01*
X-13013215Y-41551904D01*
X-12334643Y-41237619D02*
X-11870358Y-41237619D01*
X-12120358Y-41656666D01*
X-12013215Y-41656666D01*
X-11941786Y-41709047D01*
X-11906072Y-41761428D01*
X-11870358Y-41866190D01*
X-11870358Y-42128095D01*
X-11906072Y-42232857D01*
X-11941786Y-42285238D01*
X-12013215Y-42337619D01*
X-12227500Y-42337619D01*
X-12298929Y-42285238D01*
X-12334643Y-42232857D01*
X-10013215Y-42337619D02*
X-10441786Y-42337619D01*
X-10227500Y-42337619D02*
X-10227500Y-41237619D01*
X-10298929Y-41394761D01*
X-10370358Y-41499523D01*
X-10441786Y-41551904D01*
X-9656072Y-42337619D02*
X-9513215Y-42337619D01*
X-9441786Y-42285238D01*
X-9406072Y-42232857D01*
X-9334643Y-42075714D01*
X-9298929Y-41866190D01*
X-9298929Y-41447142D01*
X-9334643Y-41342380D01*
X-9370358Y-41290000D01*
X-9441786Y-41237619D01*
X-9584643Y-41237619D01*
X-9656072Y-41290000D01*
X-9691786Y-41342380D01*
X-9727500Y-41447142D01*
X-9727500Y-41709047D01*
X-9691786Y-41813809D01*
X-9656072Y-41866190D01*
X-9584643Y-41918571D01*
X-9441786Y-41918571D01*
X-9370358Y-41866190D01*
X-9334643Y-41813809D01*
X-9298929Y-41709047D01*
X-7870358Y-41342380D02*
X-7834643Y-41290000D01*
X-7763215Y-41237619D01*
X-7584643Y-41237619D01*
X-7513215Y-41290000D01*
X-7477500Y-41342380D01*
X-7441786Y-41447142D01*
X-7441786Y-41551904D01*
X-7477500Y-41709047D01*
X-7906072Y-42337619D01*
X-7441786Y-42337619D01*
X-6798929Y-41237619D02*
X-6941786Y-41237619D01*
X-7013215Y-41290000D01*
X-7048929Y-41342380D01*
X-7120358Y-41499523D01*
X-7156072Y-41709047D01*
X-7156072Y-42128095D01*
X-7120358Y-42232857D01*
X-7084643Y-42285238D01*
X-7013215Y-42337619D01*
X-6870358Y-42337619D01*
X-6798929Y-42285238D01*
X-6763215Y-42232857D01*
X-6727500Y-42128095D01*
X-6727500Y-41866190D01*
X-6763215Y-41761428D01*
X-6798929Y-41709047D01*
X-6870358Y-41656666D01*
X-7013215Y-41656666D01*
X-7084643Y-41709047D01*
X-7120358Y-41761428D01*
X-7156072Y-41866190D01*
X-4870358Y-41290000D02*
X-4941786Y-41237619D01*
X-5048929Y-41237619D01*
X-5156072Y-41290000D01*
X-5227500Y-41394761D01*
X-5263215Y-41499523D01*
X-5298929Y-41709047D01*
X-5298929Y-41866190D01*
X-5263215Y-42075714D01*
X-5227500Y-42180476D01*
X-5156072Y-42285238D01*
X-5048929Y-42337619D01*
X-4977500Y-42337619D01*
X-4870358Y-42285238D01*
X-4834643Y-42232857D01*
X-4834643Y-41866190D01*
X-4977500Y-41866190D01*
X-4513215Y-42337619D02*
X-4513215Y-41237619D01*
X-4084643Y-42337619D01*
X-4084643Y-41237619D01*
X-3727500Y-42337619D02*
X-3727500Y-41237619D01*
X-3548929Y-41237619D01*
X-3441786Y-41290000D01*
X-3370358Y-41394761D01*
X-3334643Y-41499523D01*
X-3298929Y-41709047D01*
X-3298929Y-41866190D01*
X-3334643Y-42075714D01*
X-3370358Y-42180476D01*
X-3441786Y-42285238D01*
X-3548929Y-42337619D01*
X-3727500Y-42337619D01*
D12*
X-60050000Y-42940000D02*
X-3300000Y-42940000D01*
D10*
X-55464286Y-9777380D02*
X-56035715Y-9777380D01*
X-55750000Y-9777380D02*
X-55750000Y-8777380D01*
X-55845239Y-8920238D01*
X-55940477Y-9015476D01*
X-56035715Y-9063095D01*
D13*
X-4720477Y-29257142D02*
X-4287143Y-29257142D01*
X-4101429Y-29938095D02*
X-4720477Y-29938095D01*
X-4720477Y-28638095D01*
X-4101429Y-28638095D01*
X-3544286Y-29938095D02*
X-3544286Y-28638095D01*
X-2801429Y-29938095D01*
X-2801429Y-28638095D01*
X-6270477Y-32488095D02*
X-6270477Y-31188095D01*
X-5775239Y-31188095D01*
X-5651429Y-31250000D01*
X-5589524Y-31311904D01*
X-5527620Y-31435714D01*
X-5527620Y-31621428D01*
X-5589524Y-31745238D01*
X-5651429Y-31807142D01*
X-5775239Y-31869047D01*
X-6270477Y-31869047D01*
X-5094286Y-31188095D02*
X-4784762Y-32488095D01*
X-4537143Y-31559523D01*
X-4289524Y-32488095D01*
X-3980000Y-31188095D01*
X-2741905Y-32488095D02*
X-3175239Y-31869047D01*
X-3484762Y-32488095D02*
X-3484762Y-31188095D01*
X-2989524Y-31188095D01*
X-2865715Y-31250000D01*
X-2803810Y-31311904D01*
X-2741905Y-31435714D01*
X-2741905Y-31621428D01*
X-2803810Y-31745238D01*
X-2865715Y-31807142D01*
X-2989524Y-31869047D01*
X-3484762Y-31869047D01*
D10*
X-56081548Y-25507380D02*
X-56176786Y-25459761D01*
X-56224405Y-25412142D01*
X-56272024Y-25316904D01*
X-56272024Y-25031190D01*
X-56224405Y-24935952D01*
X-56176786Y-24888333D01*
X-56081548Y-24840714D01*
X-55938691Y-24840714D01*
X-55843453Y-24888333D01*
X-55795834Y-24935952D01*
X-55748215Y-25031190D01*
X-55748215Y-25316904D01*
X-55795834Y-25412142D01*
X-55843453Y-25459761D01*
X-55938691Y-25507380D01*
X-56081548Y-25507380D01*
X-55319643Y-24840714D02*
X-55319643Y-25840714D01*
X-55319643Y-24888333D02*
X-55224405Y-24840714D01*
X-55033929Y-24840714D01*
X-54938691Y-24888333D01*
X-54891072Y-24935952D01*
X-54843453Y-25031190D01*
X-54843453Y-25316904D01*
X-54891072Y-25412142D01*
X-54938691Y-25459761D01*
X-55033929Y-25507380D01*
X-55224405Y-25507380D01*
X-55319643Y-25459761D01*
X-54557739Y-24840714D02*
X-54176786Y-24840714D01*
X-54414881Y-24507380D02*
X-54414881Y-25364523D01*
X-54367262Y-25459761D01*
X-54272024Y-25507380D01*
X-54176786Y-25507380D01*
X-53843453Y-25507380D02*
X-53843453Y-24840714D01*
X-53843453Y-24507380D02*
X-53891072Y-24555000D01*
X-53843453Y-24602619D01*
X-53795834Y-24555000D01*
X-53843453Y-24507380D01*
X-53843453Y-24602619D01*
X-53224405Y-25507380D02*
X-53319643Y-25459761D01*
X-53367262Y-25412142D01*
X-53414881Y-25316904D01*
X-53414881Y-25031190D01*
X-53367262Y-24935952D01*
X-53319643Y-24888333D01*
X-53224405Y-24840714D01*
X-53081548Y-24840714D01*
X-52986310Y-24888333D01*
X-52938691Y-24935952D01*
X-52891072Y-25031190D01*
X-52891072Y-25316904D01*
X-52938691Y-25412142D01*
X-52986310Y-25459761D01*
X-53081548Y-25507380D01*
X-53224405Y-25507380D01*
X-52462500Y-24840714D02*
X-52462500Y-25507380D01*
X-52462500Y-24935952D02*
X-52414881Y-24888333D01*
X-52319643Y-24840714D01*
X-52176786Y-24840714D01*
X-52081548Y-24888333D01*
X-52033929Y-24983571D01*
X-52033929Y-25507380D01*
X-51129167Y-25507380D02*
X-51129167Y-24983571D01*
X-51176786Y-24888333D01*
X-51272024Y-24840714D01*
X-51462500Y-24840714D01*
X-51557739Y-24888333D01*
X-51129167Y-25459761D02*
X-51224405Y-25507380D01*
X-51462500Y-25507380D01*
X-51557739Y-25459761D01*
X-51605358Y-25364523D01*
X-51605358Y-25269285D01*
X-51557739Y-25174047D01*
X-51462500Y-25126428D01*
X-51224405Y-25126428D01*
X-51129167Y-25078809D01*
X-50510120Y-25507380D02*
X-50605358Y-25459761D01*
X-50652977Y-25364523D01*
X-50652977Y-24507380D01*
X-55748215Y-26157380D02*
X-56224405Y-26157380D01*
X-56272024Y-26633571D01*
X-56224405Y-26585952D01*
X-56129167Y-26538333D01*
X-55891072Y-26538333D01*
X-55795834Y-26585952D01*
X-55748215Y-26633571D01*
X-55700596Y-26728809D01*
X-55700596Y-26966904D01*
X-55748215Y-27062142D01*
X-55795834Y-27109761D01*
X-55891072Y-27157380D01*
X-56129167Y-27157380D01*
X-56224405Y-27109761D01*
X-56272024Y-27062142D01*
X-55414881Y-26157380D02*
X-55081548Y-27157380D01*
X-54748215Y-26157380D01*
X-53652977Y-27157380D02*
X-53652977Y-26157380D01*
X-53176786Y-27157380D02*
X-53176786Y-26157380D01*
X-52605358Y-27157380D01*
X-52605358Y-26157380D01*
X-51414881Y-26109761D02*
X-52272024Y-27395476D01*
X-50891072Y-26157380D02*
X-50700596Y-26157380D01*
X-50605358Y-26205000D01*
X-50510120Y-26300238D01*
X-50462500Y-26490714D01*
X-50462500Y-26824047D01*
X-50510120Y-27014523D01*
X-50605358Y-27109761D01*
X-50700596Y-27157380D01*
X-50891072Y-27157380D01*
X-50986310Y-27109761D01*
X-51081548Y-27014523D01*
X-51129167Y-26824047D01*
X-51129167Y-26490714D01*
X-51081548Y-26300238D01*
X-50986310Y-26205000D01*
X-50891072Y-26157380D01*
X-50033929Y-26157380D02*
X-50033929Y-26966904D01*
X-49986310Y-27062142D01*
X-49938691Y-27109761D01*
X-49843453Y-27157380D01*
X-49652977Y-27157380D01*
X-49557739Y-27109761D01*
X-49510120Y-27062142D01*
X-49462500Y-26966904D01*
X-49462500Y-26157380D01*
X-49129167Y-26157380D02*
X-48557739Y-26157380D01*
X-48843453Y-27157380D02*
X-48843453Y-26157380D01*
X-53991786Y-15797619D02*
X-54348929Y-15797619D01*
X-54384643Y-16321428D01*
X-54348929Y-16269047D01*
X-54277500Y-16216666D01*
X-54098929Y-16216666D01*
X-54027500Y-16269047D01*
X-53991786Y-16321428D01*
X-53956072Y-16426190D01*
X-53956072Y-16688095D01*
X-53991786Y-16792857D01*
X-54027500Y-16845238D01*
X-54098929Y-16897619D01*
X-54277500Y-16897619D01*
X-54348929Y-16845238D01*
X-54384643Y-16792857D01*
X-53741786Y-15797619D02*
X-53491786Y-16897619D01*
X-53241786Y-15797619D01*
X-51491786Y-15797619D02*
X-51848929Y-15797619D01*
X-51884643Y-16321428D01*
X-51848929Y-16269047D01*
X-51777500Y-16216666D01*
X-51598929Y-16216666D01*
X-51527500Y-16269047D01*
X-51491786Y-16321428D01*
X-51456072Y-16426190D01*
X-51456072Y-16688095D01*
X-51491786Y-16792857D01*
X-51527500Y-16845238D01*
X-51598929Y-16897619D01*
X-51777500Y-16897619D01*
X-51848929Y-16845238D01*
X-51884643Y-16792857D01*
X-51241786Y-15797619D02*
X-50991786Y-16897619D01*
X-50741786Y-15797619D01*
X-48956072Y-15850000D02*
X-49027500Y-15797619D01*
X-49134643Y-15797619D01*
X-49241786Y-15850000D01*
X-49313215Y-15954761D01*
X-49348929Y-16059523D01*
X-49384643Y-16269047D01*
X-49384643Y-16426190D01*
X-49348929Y-16635714D01*
X-49313215Y-16740476D01*
X-49241786Y-16845238D01*
X-49134643Y-16897619D01*
X-49063215Y-16897619D01*
X-48956072Y-16845238D01*
X-48920358Y-16792857D01*
X-48920358Y-16426190D01*
X-49063215Y-16426190D01*
X-48598929Y-16897619D02*
X-48598929Y-15797619D01*
X-48170358Y-16897619D01*
X-48170358Y-15797619D01*
X-47813215Y-16897619D02*
X-47813215Y-15797619D01*
X-47634643Y-15797619D01*
X-47527500Y-15850000D01*
X-47456072Y-15954761D01*
X-47420358Y-16059523D01*
X-47384643Y-16269047D01*
X-47384643Y-16426190D01*
X-47420358Y-16635714D01*
X-47456072Y-16740476D01*
X-47527500Y-16845238D01*
X-47634643Y-16897619D01*
X-47813215Y-16897619D01*
X-46098929Y-16897619D02*
X-46527500Y-16897619D01*
X-46313215Y-16897619D02*
X-46313215Y-15797619D01*
X-46384643Y-15954761D01*
X-46456072Y-16059523D01*
X-46527500Y-16111904D01*
X-45456072Y-16164285D02*
X-45456072Y-16897619D01*
X-45634643Y-15745238D02*
X-45813215Y-16530952D01*
X-45348929Y-16530952D01*
X-43527500Y-16897619D02*
X-43956072Y-16897619D01*
X-43741786Y-16897619D02*
X-43741786Y-15797619D01*
X-43813215Y-15954761D01*
X-43884643Y-16059523D01*
X-43956072Y-16111904D01*
X-42848929Y-15797619D02*
X-43206072Y-15797619D01*
X-43241786Y-16321428D01*
X-43206072Y-16269047D01*
X-43134643Y-16216666D01*
X-42956072Y-16216666D01*
X-42884643Y-16269047D01*
X-42848929Y-16321428D01*
X-42813215Y-16426190D01*
X-42813215Y-16688095D01*
X-42848929Y-16792857D01*
X-42884643Y-16845238D01*
X-42956072Y-16897619D01*
X-43134643Y-16897619D01*
X-43206072Y-16845238D01*
X-43241786Y-16792857D01*
X-40956072Y-16897619D02*
X-41384643Y-16897619D01*
X-41170358Y-16897619D02*
X-41170358Y-15797619D01*
X-41241786Y-15954761D01*
X-41313215Y-16059523D01*
X-41384643Y-16111904D01*
X-40527500Y-16269047D02*
X-40598929Y-16216666D01*
X-40634643Y-16164285D01*
X-40670358Y-16059523D01*
X-40670358Y-16007142D01*
X-40634643Y-15902380D01*
X-40598929Y-15850000D01*
X-40527500Y-15797619D01*
X-40384643Y-15797619D01*
X-40313215Y-15850000D01*
X-40277500Y-15902380D01*
X-40241786Y-16007142D01*
X-40241786Y-16059523D01*
X-40277500Y-16164285D01*
X-40313215Y-16216666D01*
X-40384643Y-16269047D01*
X-40527500Y-16269047D01*
X-40598929Y-16321428D01*
X-40634643Y-16373809D01*
X-40670358Y-16478571D01*
X-40670358Y-16688095D01*
X-40634643Y-16792857D01*
X-40598929Y-16845238D01*
X-40527500Y-16897619D01*
X-40384643Y-16897619D01*
X-40313215Y-16845238D01*
X-40277500Y-16792857D01*
X-40241786Y-16688095D01*
X-40241786Y-16478571D01*
X-40277500Y-16373809D01*
X-40313215Y-16321428D01*
X-40384643Y-16269047D01*
X-38384643Y-15850000D02*
X-38456072Y-15797619D01*
X-38563215Y-15797619D01*
X-38670358Y-15850000D01*
X-38741786Y-15954761D01*
X-38777500Y-16059523D01*
X-38813215Y-16269047D01*
X-38813215Y-16426190D01*
X-38777500Y-16635714D01*
X-38741786Y-16740476D01*
X-38670358Y-16845238D01*
X-38563215Y-16897619D01*
X-38491786Y-16897619D01*
X-38384643Y-16845238D01*
X-38348929Y-16792857D01*
X-38348929Y-16426190D01*
X-38491786Y-16426190D01*
X-38027500Y-16897619D02*
X-38027500Y-15797619D01*
X-37598929Y-16897619D01*
X-37598929Y-15797619D01*
X-37241786Y-16897619D02*
X-37241786Y-15797619D01*
X-37063215Y-15797619D01*
X-36956072Y-15850000D01*
X-36884643Y-15954761D01*
X-36848929Y-16059523D01*
X-36813215Y-16269047D01*
X-36813215Y-16426190D01*
X-36848929Y-16635714D01*
X-36884643Y-16740476D01*
X-36956072Y-16845238D01*
X-37063215Y-16897619D01*
X-37241786Y-16897619D01*
X-35956072Y-15902380D02*
X-35920358Y-15850000D01*
X-35848929Y-15797619D01*
X-35670358Y-15797619D01*
X-35598929Y-15850000D01*
X-35563215Y-15902380D01*
X-35527500Y-16007142D01*
X-35527500Y-16111904D01*
X-35563215Y-16269047D01*
X-35991786Y-16897619D01*
X-35527500Y-16897619D01*
X-35277500Y-15797619D02*
X-34813215Y-15797619D01*
X-35063215Y-16216666D01*
X-34956072Y-16216666D01*
X-34884643Y-16269047D01*
X-34848929Y-16321428D01*
X-34813215Y-16426190D01*
X-34813215Y-16688095D01*
X-34848929Y-16792857D01*
X-34884643Y-16845238D01*
X-34956072Y-16897619D01*
X-35170358Y-16897619D01*
X-35241786Y-16845238D01*
X-35277500Y-16792857D01*
X-33384643Y-15902380D02*
X-33348929Y-15850000D01*
X-33277500Y-15797619D01*
X-33098929Y-15797619D01*
X-33027500Y-15850000D01*
X-32991786Y-15902380D01*
X-32956072Y-16007142D01*
X-32956072Y-16111904D01*
X-32991786Y-16269047D01*
X-33420358Y-16897619D01*
X-32956072Y-16897619D01*
X-32313215Y-16164285D02*
X-32313215Y-16897619D01*
X-32491786Y-15745238D02*
X-32670358Y-16530952D01*
X-32206072Y-16530952D01*
X-30384643Y-15850000D02*
X-30456072Y-15797619D01*
X-30563215Y-15797619D01*
X-30670358Y-15850000D01*
X-30741786Y-15954761D01*
X-30777500Y-16059523D01*
X-30813215Y-16269047D01*
X-30813215Y-16426190D01*
X-30777500Y-16635714D01*
X-30741786Y-16740476D01*
X-30670358Y-16845238D01*
X-30563215Y-16897619D01*
X-30491786Y-16897619D01*
X-30384643Y-16845238D01*
X-30348929Y-16792857D01*
X-30348929Y-16426190D01*
X-30491786Y-16426190D01*
X-30027500Y-16897619D02*
X-30027500Y-15797619D01*
X-29598929Y-16897619D01*
X-29598929Y-15797619D01*
X-29241786Y-16897619D02*
X-29241786Y-15797619D01*
X-29063215Y-15797619D01*
X-28956072Y-15850000D01*
X-28884643Y-15954761D01*
X-28848929Y-16059523D01*
X-28813215Y-16269047D01*
X-28813215Y-16426190D01*
X-28848929Y-16635714D01*
X-28884643Y-16740476D01*
X-28956072Y-16845238D01*
X-29063215Y-16897619D01*
X-29241786Y-16897619D01*
X-27956072Y-15902380D02*
X-27920358Y-15850000D01*
X-27848929Y-15797619D01*
X-27670358Y-15797619D01*
X-27598929Y-15850000D01*
X-27563215Y-15902380D01*
X-27527500Y-16007142D01*
X-27527500Y-16111904D01*
X-27563215Y-16269047D01*
X-27991786Y-16897619D01*
X-27527500Y-16897619D01*
X-26848929Y-15797619D02*
X-27206072Y-15797619D01*
X-27241786Y-16321428D01*
X-27206072Y-16269047D01*
X-27134643Y-16216666D01*
X-26956072Y-16216666D01*
X-26884643Y-16269047D01*
X-26848929Y-16321428D01*
X-26813215Y-16426190D01*
X-26813215Y-16688095D01*
X-26848929Y-16792857D01*
X-26884643Y-16845238D01*
X-26956072Y-16897619D01*
X-27134643Y-16897619D01*
X-27206072Y-16845238D01*
X-27241786Y-16792857D01*
X-25206072Y-15797619D02*
X-25134643Y-15797619D01*
X-25063215Y-15850000D01*
X-25027500Y-15902380D01*
X-24991786Y-16007142D01*
X-24956072Y-16216666D01*
X-24956072Y-16478571D01*
X-24991786Y-16688095D01*
X-25027500Y-16792857D01*
X-25063215Y-16845238D01*
X-25134643Y-16897619D01*
X-25206072Y-16897619D01*
X-25277500Y-16845238D01*
X-25313215Y-16792857D01*
X-25348929Y-16688095D01*
X-25384643Y-16478571D01*
X-25384643Y-16216666D01*
X-25348929Y-16007142D01*
X-25313215Y-15902380D01*
X-25277500Y-15850000D01*
X-25206072Y-15797619D01*
X-24527500Y-16269047D02*
X-24598929Y-16216666D01*
X-24634643Y-16164285D01*
X-24670358Y-16059523D01*
X-24670358Y-16007142D01*
X-24634643Y-15902380D01*
X-24598929Y-15850000D01*
X-24527500Y-15797619D01*
X-24384643Y-15797619D01*
X-24313215Y-15850000D01*
X-24277500Y-15902380D01*
X-24241786Y-16007142D01*
X-24241786Y-16059523D01*
X-24277500Y-16164285D01*
X-24313215Y-16216666D01*
X-24384643Y-16269047D01*
X-24527500Y-16269047D01*
X-24598929Y-16321428D01*
X-24634643Y-16373809D01*
X-24670358Y-16478571D01*
X-24670358Y-16688095D01*
X-24634643Y-16792857D01*
X-24598929Y-16845238D01*
X-24527500Y-16897619D01*
X-24384643Y-16897619D01*
X-24313215Y-16845238D01*
X-24277500Y-16792857D01*
X-24241786Y-16688095D01*
X-24241786Y-16478571D01*
X-24277500Y-16373809D01*
X-24313215Y-16321428D01*
X-24384643Y-16269047D01*
X-22634643Y-15797619D02*
X-22563215Y-15797619D01*
X-22491786Y-15850000D01*
X-22456072Y-15902380D01*
X-22420358Y-16007142D01*
X-22384643Y-16216666D01*
X-22384643Y-16478571D01*
X-22420358Y-16688095D01*
X-22456072Y-16792857D01*
X-22491786Y-16845238D01*
X-22563215Y-16897619D01*
X-22634643Y-16897619D01*
X-22706072Y-16845238D01*
X-22741786Y-16792857D01*
X-22777501Y-16688095D01*
X-22813215Y-16478571D01*
X-22813215Y-16216666D01*
X-22777501Y-16007142D01*
X-22741786Y-15902380D01*
X-22706072Y-15850000D01*
X-22634643Y-15797619D01*
X-22134643Y-15797619D02*
X-21634643Y-15797619D01*
X-21956072Y-16897619D01*
X-20063215Y-15797619D02*
X-19991786Y-15797619D01*
X-19920358Y-15850000D01*
X-19884643Y-15902380D01*
X-19848929Y-16007142D01*
X-19813215Y-16216666D01*
X-19813215Y-16478571D01*
X-19848929Y-16688095D01*
X-19884643Y-16792857D01*
X-19920358Y-16845238D01*
X-19991786Y-16897619D01*
X-20063215Y-16897619D01*
X-20134643Y-16845238D01*
X-20170358Y-16792857D01*
X-20206072Y-16688095D01*
X-20241786Y-16478571D01*
X-20241786Y-16216666D01*
X-20206072Y-16007142D01*
X-20170358Y-15902380D01*
X-20134643Y-15850000D01*
X-20063215Y-15797619D01*
X-19098929Y-16897619D02*
X-19527500Y-16897619D01*
X-19313215Y-16897619D02*
X-19313215Y-15797619D01*
X-19384643Y-15954761D01*
X-19456072Y-16059523D01*
X-19527500Y-16111904D01*
X-17813215Y-15850000D02*
X-17884643Y-15797619D01*
X-17991786Y-15797619D01*
X-18098929Y-15850000D01*
X-18170358Y-15954761D01*
X-18206072Y-16059523D01*
X-18241786Y-16269047D01*
X-18241786Y-16426190D01*
X-18206072Y-16635714D01*
X-18170358Y-16740476D01*
X-18098929Y-16845238D01*
X-17991786Y-16897619D01*
X-17920358Y-16897619D01*
X-17813215Y-16845238D01*
X-17777500Y-16792857D01*
X-17777500Y-16426190D01*
X-17920358Y-16426190D01*
X-17456072Y-16897619D02*
X-17456072Y-15797619D01*
X-17027500Y-16897619D01*
X-17027500Y-15797619D01*
X-16670358Y-16897619D02*
X-16670358Y-15797619D01*
X-16491786Y-15797619D01*
X-16384643Y-15850000D01*
X-16313215Y-15954761D01*
X-16277500Y-16059523D01*
X-16241786Y-16269047D01*
X-16241786Y-16426190D01*
X-16277500Y-16635714D01*
X-16313215Y-16740476D01*
X-16384643Y-16845238D01*
X-16491786Y-16897619D01*
X-16670358Y-16897619D01*
X-14956072Y-16897619D02*
X-15384643Y-16897619D01*
X-15170358Y-16897619D02*
X-15170358Y-15797619D01*
X-15241786Y-15954761D01*
X-15313215Y-16059523D01*
X-15384643Y-16111904D01*
X-14670358Y-15902380D02*
X-14634643Y-15850000D01*
X-14563215Y-15797619D01*
X-14384643Y-15797619D01*
X-14313215Y-15850000D01*
X-14277500Y-15902380D01*
X-14241786Y-16007142D01*
X-14241786Y-16111904D01*
X-14277500Y-16269047D01*
X-14706072Y-16897619D01*
X-14241786Y-16897619D01*
X-12384643Y-15850000D02*
X-12456072Y-15797619D01*
X-12563215Y-15797619D01*
X-12670358Y-15850000D01*
X-12741786Y-15954761D01*
X-12777500Y-16059523D01*
X-12813215Y-16269047D01*
X-12813215Y-16426190D01*
X-12777500Y-16635714D01*
X-12741786Y-16740476D01*
X-12670358Y-16845238D01*
X-12563215Y-16897619D01*
X-12491786Y-16897619D01*
X-12384643Y-16845238D01*
X-12348929Y-16792857D01*
X-12348929Y-16426190D01*
X-12491786Y-16426190D01*
X-12027500Y-16897619D02*
X-12027500Y-15797619D01*
X-11598929Y-16897619D01*
X-11598929Y-15797619D01*
X-11241786Y-16897619D02*
X-11241786Y-15797619D01*
X-11063215Y-15797619D01*
X-10956072Y-15850000D01*
X-10884643Y-15954761D01*
X-10848929Y-16059523D01*
X-10813215Y-16269047D01*
X-10813215Y-16426190D01*
X-10848929Y-16635714D01*
X-10884643Y-16740476D01*
X-10956072Y-16845238D01*
X-11063215Y-16897619D01*
X-11241786Y-16897619D01*
X-9527500Y-16897619D02*
X-9956072Y-16897619D01*
X-9741786Y-16897619D02*
X-9741786Y-15797619D01*
X-9813215Y-15954761D01*
X-9884643Y-16059523D01*
X-9956072Y-16111904D01*
X-8884643Y-15797619D02*
X-9027500Y-15797619D01*
X-9098929Y-15850000D01*
X-9134643Y-15902380D01*
X-9206072Y-16059523D01*
X-9241786Y-16269047D01*
X-9241786Y-16688095D01*
X-9206072Y-16792857D01*
X-9170358Y-16845238D01*
X-9098929Y-16897619D01*
X-8956072Y-16897619D01*
X-8884643Y-16845238D01*
X-8848929Y-16792857D01*
X-8813215Y-16688095D01*
X-8813215Y-16426190D01*
X-8848929Y-16321428D01*
X-8884643Y-16269047D01*
X-8956072Y-16216666D01*
X-9098929Y-16216666D01*
X-9170358Y-16269047D01*
X-9206072Y-16321428D01*
X-9241786Y-16426190D01*
X-7384643Y-15902380D02*
X-7348929Y-15850000D01*
X-7277500Y-15797619D01*
X-7098929Y-15797619D01*
X-7027500Y-15850000D01*
X-6991786Y-15902380D01*
X-6956072Y-16007142D01*
X-6956072Y-16111904D01*
X-6991786Y-16269047D01*
X-7420358Y-16897619D01*
X-6956072Y-16897619D01*
X-6491786Y-15797619D02*
X-6420358Y-15797619D01*
X-6348929Y-15850000D01*
X-6313215Y-15902380D01*
X-6277500Y-16007142D01*
X-6241786Y-16216666D01*
X-6241786Y-16478571D01*
X-6277500Y-16688095D01*
X-6313215Y-16792857D01*
X-6348929Y-16845238D01*
X-6420358Y-16897619D01*
X-6491786Y-16897619D01*
X-6563215Y-16845238D01*
X-6598929Y-16792857D01*
X-6634643Y-16688095D01*
X-6670358Y-16478571D01*
X-6670358Y-16216666D01*
X-6634643Y-16007142D01*
X-6598929Y-15902380D01*
X-6563215Y-15850000D01*
X-6491786Y-15797619D01*
X-4813215Y-15902380D02*
X-4777500Y-15850000D01*
X-4706072Y-15797619D01*
X-4527500Y-15797619D01*
X-4456072Y-15850000D01*
X-4420358Y-15902380D01*
X-4384643Y-16007142D01*
X-4384643Y-16111904D01*
X-4420358Y-16269047D01*
X-4848929Y-16897619D01*
X-4384643Y-16897619D01*
X-3670358Y-16897619D02*
X-4098929Y-16897619D01*
X-3884643Y-16897619D02*
X-3884643Y-15797619D01*
X-3956072Y-15954761D01*
X-4027500Y-16059523D01*
X-4098929Y-16111904D01*
X-54420358Y-17597619D02*
X-53956072Y-17597619D01*
X-54206072Y-18016666D01*
X-54098929Y-18016666D01*
X-54027500Y-18069047D01*
X-53991786Y-18121428D01*
X-53956072Y-18226190D01*
X-53956072Y-18488095D01*
X-53991786Y-18592857D01*
X-54027500Y-18645238D01*
X-54098929Y-18697619D01*
X-54313215Y-18697619D01*
X-54384643Y-18645238D01*
X-54420358Y-18592857D01*
X-53741786Y-17597619D02*
X-53491786Y-18697619D01*
X-53241786Y-17597619D01*
X-53063215Y-17597619D02*
X-52598929Y-17597619D01*
X-52848929Y-18016666D01*
X-52741786Y-18016666D01*
X-52670358Y-18069047D01*
X-52634643Y-18121428D01*
X-52598929Y-18226190D01*
X-52598929Y-18488095D01*
X-52634643Y-18592857D01*
X-52670358Y-18645238D01*
X-52741786Y-18697619D01*
X-52956072Y-18697619D01*
X-53027500Y-18645238D01*
X-53063215Y-18592857D01*
X-51563215Y-17597619D02*
X-51491786Y-17597619D01*
X-51420358Y-17650000D01*
X-51384643Y-17702380D01*
X-51348929Y-17807142D01*
X-51313215Y-18016666D01*
X-51313215Y-18278571D01*
X-51348929Y-18488095D01*
X-51384643Y-18592857D01*
X-51420358Y-18645238D01*
X-51491786Y-18697619D01*
X-51563215Y-18697619D01*
X-51634643Y-18645238D01*
X-51670358Y-18592857D01*
X-51706072Y-18488095D01*
X-51741786Y-18278571D01*
X-51741786Y-18016666D01*
X-51706072Y-17807142D01*
X-51670358Y-17702380D01*
X-51634643Y-17650000D01*
X-51563215Y-17597619D01*
X-51027500Y-17702380D02*
X-50991786Y-17650000D01*
X-50920358Y-17597619D01*
X-50741786Y-17597619D01*
X-50670358Y-17650000D01*
X-50634643Y-17702380D01*
X-50598929Y-17807142D01*
X-50598929Y-17911904D01*
X-50634643Y-18069047D01*
X-51063215Y-18697619D01*
X-50598929Y-18697619D01*
X-48991786Y-17597619D02*
X-48920358Y-17597619D01*
X-48848929Y-17650000D01*
X-48813215Y-17702380D01*
X-48777500Y-17807142D01*
X-48741786Y-18016666D01*
X-48741786Y-18278571D01*
X-48777500Y-18488095D01*
X-48813215Y-18592857D01*
X-48848929Y-18645238D01*
X-48920358Y-18697619D01*
X-48991786Y-18697619D01*
X-49063215Y-18645238D01*
X-49098929Y-18592857D01*
X-49134643Y-18488095D01*
X-49170358Y-18278571D01*
X-49170358Y-18016666D01*
X-49134643Y-17807142D01*
X-49098929Y-17702380D01*
X-49063215Y-17650000D01*
X-48991786Y-17597619D01*
X-48491786Y-17597619D02*
X-48027500Y-17597619D01*
X-48277500Y-18016666D01*
X-48170358Y-18016666D01*
X-48098929Y-18069047D01*
X-48063215Y-18121428D01*
X-48027500Y-18226190D01*
X-48027500Y-18488095D01*
X-48063215Y-18592857D01*
X-48098929Y-18645238D01*
X-48170358Y-18697619D01*
X-48384643Y-18697619D01*
X-48456072Y-18645238D01*
X-48491786Y-18592857D01*
X-46420358Y-17597619D02*
X-46348929Y-17597619D01*
X-46277500Y-17650000D01*
X-46241786Y-17702380D01*
X-46206072Y-17807142D01*
X-46170358Y-18016666D01*
X-46170358Y-18278571D01*
X-46206072Y-18488095D01*
X-46241786Y-18592857D01*
X-46277500Y-18645238D01*
X-46348929Y-18697619D01*
X-46420358Y-18697619D01*
X-46491786Y-18645238D01*
X-46527500Y-18592857D01*
X-46563215Y-18488095D01*
X-46598929Y-18278571D01*
X-46598929Y-18016666D01*
X-46563215Y-17807142D01*
X-46527500Y-17702380D01*
X-46491786Y-17650000D01*
X-46420358Y-17597619D01*
X-45527500Y-17964285D02*
X-45527500Y-18697619D01*
X-45706072Y-17545238D02*
X-45884643Y-18330952D01*
X-45420358Y-18330952D01*
X-43598929Y-17650000D02*
X-43670358Y-17597619D01*
X-43777500Y-17597619D01*
X-43884643Y-17650000D01*
X-43956072Y-17754761D01*
X-43991786Y-17859523D01*
X-44027500Y-18069047D01*
X-44027500Y-18226190D01*
X-43991786Y-18435714D01*
X-43956072Y-18540476D01*
X-43884643Y-18645238D01*
X-43777500Y-18697619D01*
X-43706072Y-18697619D01*
X-43598929Y-18645238D01*
X-43563215Y-18592857D01*
X-43563215Y-18226190D01*
X-43706072Y-18226190D01*
X-43241786Y-18697619D02*
X-43241786Y-17597619D01*
X-42813215Y-18697619D01*
X-42813215Y-17597619D01*
X-42456072Y-18697619D02*
X-42456072Y-17597619D01*
X-42277500Y-17597619D01*
X-42170358Y-17650000D01*
X-42098929Y-17754761D01*
X-42063215Y-17859523D01*
X-42027500Y-18069047D01*
X-42027500Y-18226190D01*
X-42063215Y-18435714D01*
X-42098929Y-18540476D01*
X-42170358Y-18645238D01*
X-42277500Y-18697619D01*
X-42456072Y-18697619D01*
X-40741786Y-18697619D02*
X-41170358Y-18697619D01*
X-40956072Y-18697619D02*
X-40956072Y-17597619D01*
X-41027500Y-17754761D01*
X-41098929Y-17859523D01*
X-41170358Y-17911904D01*
X-40491786Y-17597619D02*
X-39991786Y-17597619D01*
X-40313215Y-18697619D01*
X-38598929Y-17702380D02*
X-38563215Y-17650000D01*
X-38491786Y-17597619D01*
X-38313215Y-17597619D01*
X-38241786Y-17650000D01*
X-38206072Y-17702380D01*
X-38170358Y-17807142D01*
X-38170358Y-17911904D01*
X-38206072Y-18069047D01*
X-38634643Y-18697619D01*
X-38170358Y-18697619D01*
X-37920358Y-17597619D02*
X-37420358Y-17597619D01*
X-37741786Y-18697619D01*
X-36027500Y-17702380D02*
X-35991786Y-17650000D01*
X-35920358Y-17597619D01*
X-35741786Y-17597619D01*
X-35670358Y-17650000D01*
X-35634643Y-17702380D01*
X-35598929Y-17807142D01*
X-35598929Y-17911904D01*
X-35634643Y-18069047D01*
X-36063215Y-18697619D01*
X-35598929Y-18697619D01*
X-35313215Y-17702380D02*
X-35277500Y-17650000D01*
X-35206072Y-17597619D01*
X-35027500Y-17597619D01*
X-34956072Y-17650000D01*
X-34920358Y-17702380D01*
X-34884643Y-17807142D01*
X-34884643Y-17911904D01*
X-34920358Y-18069047D01*
X-35348929Y-18697619D01*
X-34884643Y-18697619D01*
X-33491786Y-17597619D02*
X-33027500Y-17597619D01*
X-33277500Y-18016666D01*
X-33170358Y-18016666D01*
X-33098929Y-18069047D01*
X-33063215Y-18121428D01*
X-33027500Y-18226190D01*
X-33027500Y-18488095D01*
X-33063215Y-18592857D01*
X-33098929Y-18645238D01*
X-33170358Y-18697619D01*
X-33384643Y-18697619D01*
X-33456072Y-18645238D01*
X-33491786Y-18592857D01*
X-32813215Y-17597619D02*
X-32563215Y-18697619D01*
X-32313215Y-17597619D01*
X-32134643Y-17597619D02*
X-31670358Y-17597619D01*
X-31920358Y-18016666D01*
X-31813215Y-18016666D01*
X-31741786Y-18069047D01*
X-31706072Y-18121428D01*
X-31670358Y-18226190D01*
X-31670358Y-18488095D01*
X-31706072Y-18592857D01*
X-31741786Y-18645238D01*
X-31813215Y-18697619D01*
X-32027500Y-18697619D01*
X-32098929Y-18645238D01*
X-32134643Y-18592857D01*
X-30384643Y-18697619D02*
X-30813215Y-18697619D01*
X-30598929Y-18697619D02*
X-30598929Y-17597619D01*
X-30670358Y-17754761D01*
X-30741786Y-17859523D01*
X-30813215Y-17911904D01*
X-29920358Y-17597619D02*
X-29848929Y-17597619D01*
X-29777501Y-17650000D01*
X-29741786Y-17702380D01*
X-29706072Y-17807142D01*
X-29670358Y-18016666D01*
X-29670358Y-18278571D01*
X-29706072Y-18488095D01*
X-29741786Y-18592857D01*
X-29777501Y-18645238D01*
X-29848929Y-18697619D01*
X-29920358Y-18697619D01*
X-29991786Y-18645238D01*
X-30027501Y-18592857D01*
X-30063215Y-18488095D01*
X-30098929Y-18278571D01*
X-30098929Y-18016666D01*
X-30063215Y-17807142D01*
X-30027501Y-17702380D01*
X-29991786Y-17650000D01*
X-29920358Y-17597619D01*
X-28063215Y-17597619D02*
X-27991786Y-17597619D01*
X-27920358Y-17650000D01*
X-27884643Y-17702380D01*
X-27848929Y-17807142D01*
X-27813215Y-18016666D01*
X-27813215Y-18278571D01*
X-27848929Y-18488095D01*
X-27884643Y-18592857D01*
X-27920358Y-18645238D01*
X-27991786Y-18697619D01*
X-28063215Y-18697619D01*
X-28134643Y-18645238D01*
X-28170358Y-18592857D01*
X-28206072Y-18488095D01*
X-28241786Y-18278571D01*
X-28241786Y-18016666D01*
X-28206072Y-17807142D01*
X-28170358Y-17702380D01*
X-28134643Y-17650000D01*
X-28063215Y-17597619D01*
X-27456072Y-18697619D02*
X-27313215Y-18697619D01*
X-27241786Y-18645238D01*
X-27206072Y-18592857D01*
X-27134643Y-18435714D01*
X-27098929Y-18226190D01*
X-27098929Y-17807142D01*
X-27134643Y-17702380D01*
X-27170358Y-17650000D01*
X-27241786Y-17597619D01*
X-27384643Y-17597619D01*
X-27456072Y-17650000D01*
X-27491786Y-17702380D01*
X-27527501Y-17807142D01*
X-27527501Y-18069047D01*
X-27491786Y-18173809D01*
X-27456072Y-18226190D01*
X-27384643Y-18278571D01*
X-27241786Y-18278571D01*
X-27170358Y-18226190D01*
X-27134643Y-18173809D01*
X-27098929Y-18069047D01*
X-25241786Y-18697619D02*
X-25670358Y-18697619D01*
X-25456072Y-18697619D02*
X-25456072Y-17597619D01*
X-25527501Y-17754761D01*
X-25598929Y-17859523D01*
X-25670358Y-17911904D01*
X-24527501Y-18697619D02*
X-24956072Y-18697619D01*
X-24741786Y-18697619D02*
X-24741786Y-17597619D01*
X-24813215Y-17754761D01*
X-24884643Y-17859523D01*
X-24956072Y-17911904D01*
X-22670358Y-17650000D02*
X-22741786Y-17597619D01*
X-22848929Y-17597619D01*
X-22956072Y-17650000D01*
X-23027501Y-17754761D01*
X-23063215Y-17859523D01*
X-23098929Y-18069047D01*
X-23098929Y-18226190D01*
X-23063215Y-18435714D01*
X-23027501Y-18540476D01*
X-22956072Y-18645238D01*
X-22848929Y-18697619D01*
X-22777501Y-18697619D01*
X-22670358Y-18645238D01*
X-22634643Y-18592857D01*
X-22634643Y-18226190D01*
X-22777501Y-18226190D01*
X-22313215Y-18697619D02*
X-22313215Y-17597619D01*
X-21884643Y-18697619D01*
X-21884643Y-17597619D01*
X-21527501Y-18697619D02*
X-21527501Y-17597619D01*
X-21348929Y-17597619D01*
X-21241786Y-17650000D01*
X-21170358Y-17754761D01*
X-21134643Y-17859523D01*
X-21098929Y-18069047D01*
X-21098929Y-18226190D01*
X-21134643Y-18435714D01*
X-21170358Y-18540476D01*
X-21241786Y-18645238D01*
X-21348929Y-18697619D01*
X-21527501Y-18697619D01*
X-20063215Y-17597619D02*
X-19991786Y-17597619D01*
X-19920358Y-17650000D01*
X-19884643Y-17702380D01*
X-19848929Y-17807142D01*
X-19813215Y-18016666D01*
X-19813215Y-18278571D01*
X-19848929Y-18488095D01*
X-19884643Y-18592857D01*
X-19920358Y-18645238D01*
X-19991786Y-18697619D01*
X-20063215Y-18697619D01*
X-20134643Y-18645238D01*
X-20170358Y-18592857D01*
X-20206072Y-18488095D01*
X-20241786Y-18278571D01*
X-20241786Y-18016666D01*
X-20206072Y-17807142D01*
X-20170358Y-17702380D01*
X-20134643Y-17650000D01*
X-20063215Y-17597619D01*
X-19348929Y-17597619D02*
X-19277501Y-17597619D01*
X-19206072Y-17650000D01*
X-19170358Y-17702380D01*
X-19134643Y-17807142D01*
X-19098929Y-18016666D01*
X-19098929Y-18278571D01*
X-19134643Y-18488095D01*
X-19170358Y-18592857D01*
X-19206072Y-18645238D01*
X-19277501Y-18697619D01*
X-19348929Y-18697619D01*
X-19420358Y-18645238D01*
X-19456072Y-18592857D01*
X-19491786Y-18488095D01*
X-19527501Y-18278571D01*
X-19527501Y-18016666D01*
X-19491786Y-17807142D01*
X-19456072Y-17702380D01*
X-19420358Y-17650000D01*
X-19348929Y-17597619D01*
X-17491786Y-17597619D02*
X-17420358Y-17597619D01*
X-17348929Y-17650000D01*
X-17313215Y-17702380D01*
X-17277500Y-17807142D01*
X-17241786Y-18016666D01*
X-17241786Y-18278571D01*
X-17277500Y-18488095D01*
X-17313215Y-18592857D01*
X-17348929Y-18645238D01*
X-17420358Y-18697619D01*
X-17491786Y-18697619D01*
X-17563215Y-18645238D01*
X-17598929Y-18592857D01*
X-17634643Y-18488095D01*
X-17670358Y-18278571D01*
X-17670358Y-18016666D01*
X-17634643Y-17807142D01*
X-17598929Y-17702380D01*
X-17563215Y-17650000D01*
X-17491786Y-17597619D01*
X-16563215Y-17597619D02*
X-16920358Y-17597619D01*
X-16956072Y-18121428D01*
X-16920358Y-18069047D01*
X-16848929Y-18016666D01*
X-16670358Y-18016666D01*
X-16598929Y-18069047D01*
X-16563215Y-18121428D01*
X-16527500Y-18226190D01*
X-16527500Y-18488095D01*
X-16563215Y-18592857D01*
X-16598929Y-18645238D01*
X-16670358Y-18697619D01*
X-16848929Y-18697619D01*
X-16920358Y-18645238D01*
X-16956072Y-18592857D01*
X-14920358Y-17597619D02*
X-14848929Y-17597619D01*
X-14777500Y-17650000D01*
X-14741786Y-17702380D01*
X-14706072Y-17807142D01*
X-14670358Y-18016666D01*
X-14670358Y-18278571D01*
X-14706072Y-18488095D01*
X-14741786Y-18592857D01*
X-14777500Y-18645238D01*
X-14848929Y-18697619D01*
X-14920358Y-18697619D01*
X-14991786Y-18645238D01*
X-15027500Y-18592857D01*
X-15063215Y-18488095D01*
X-15098929Y-18278571D01*
X-15098929Y-18016666D01*
X-15063215Y-17807142D01*
X-15027500Y-17702380D01*
X-14991786Y-17650000D01*
X-14920358Y-17597619D01*
X-14027500Y-17597619D02*
X-14170358Y-17597619D01*
X-14241786Y-17650000D01*
X-14277500Y-17702380D01*
X-14348929Y-17859523D01*
X-14384643Y-18069047D01*
X-14384643Y-18488095D01*
X-14348929Y-18592857D01*
X-14313215Y-18645238D01*
X-14241786Y-18697619D01*
X-14098929Y-18697619D01*
X-14027500Y-18645238D01*
X-13991786Y-18592857D01*
X-13956072Y-18488095D01*
X-13956072Y-18226190D01*
X-13991786Y-18121428D01*
X-14027500Y-18069047D01*
X-14098929Y-18016666D01*
X-14241786Y-18016666D01*
X-14313215Y-18069047D01*
X-14348929Y-18121428D01*
X-14384643Y-18226190D01*
X-12098929Y-18697619D02*
X-12527500Y-18697619D01*
X-12313215Y-18697619D02*
X-12313215Y-17597619D01*
X-12384643Y-17754761D01*
X-12456072Y-17859523D01*
X-12527500Y-17911904D01*
X-11848929Y-17597619D02*
X-11384643Y-17597619D01*
X-11634643Y-18016666D01*
X-11527500Y-18016666D01*
X-11456072Y-18069047D01*
X-11420358Y-18121428D01*
X-11384643Y-18226190D01*
X-11384643Y-18488095D01*
X-11420358Y-18592857D01*
X-11456072Y-18645238D01*
X-11527500Y-18697619D01*
X-11741786Y-18697619D01*
X-11813215Y-18645238D01*
X-11848929Y-18592857D01*
X-9527500Y-18697619D02*
X-9956072Y-18697619D01*
X-9741786Y-18697619D02*
X-9741786Y-17597619D01*
X-9813215Y-17754761D01*
X-9884643Y-17859523D01*
X-9956072Y-17911904D01*
X-9170358Y-18697619D02*
X-9027500Y-18697619D01*
X-8956072Y-18645238D01*
X-8920358Y-18592857D01*
X-8848929Y-18435714D01*
X-8813215Y-18226190D01*
X-8813215Y-17807142D01*
X-8848929Y-17702380D01*
X-8884643Y-17650000D01*
X-8956072Y-17597619D01*
X-9098929Y-17597619D01*
X-9170358Y-17650000D01*
X-9206072Y-17702380D01*
X-9241786Y-17807142D01*
X-9241786Y-18069047D01*
X-9206072Y-18173809D01*
X-9170358Y-18226190D01*
X-9098929Y-18278571D01*
X-8956072Y-18278571D01*
X-8884643Y-18226190D01*
X-8848929Y-18173809D01*
X-8813215Y-18069047D01*
X-7384643Y-17702380D02*
X-7348929Y-17650000D01*
X-7277500Y-17597619D01*
X-7098929Y-17597619D01*
X-7027500Y-17650000D01*
X-6991786Y-17702380D01*
X-6956072Y-17807142D01*
X-6956072Y-17911904D01*
X-6991786Y-18069047D01*
X-7420358Y-18697619D01*
X-6956072Y-18697619D01*
X-6313215Y-17597619D02*
X-6456072Y-17597619D01*
X-6527500Y-17650000D01*
X-6563215Y-17702380D01*
X-6634643Y-17859523D01*
X-6670358Y-18069047D01*
X-6670358Y-18488095D01*
X-6634643Y-18592857D01*
X-6598929Y-18645238D01*
X-6527500Y-18697619D01*
X-6384643Y-18697619D01*
X-6313215Y-18645238D01*
X-6277500Y-18592857D01*
X-6241786Y-18488095D01*
X-6241786Y-18226190D01*
X-6277500Y-18121428D01*
X-6313215Y-18069047D01*
X-6384643Y-18016666D01*
X-6527500Y-18016666D01*
X-6598929Y-18069047D01*
X-6634643Y-18121428D01*
X-6670358Y-18226190D01*
X-4384643Y-17650000D02*
X-4456072Y-17597619D01*
X-4563215Y-17597619D01*
X-4670358Y-17650000D01*
X-4741786Y-17754761D01*
X-4777500Y-17859523D01*
X-4813215Y-18069047D01*
X-4813215Y-18226190D01*
X-4777500Y-18435714D01*
X-4741786Y-18540476D01*
X-4670358Y-18645238D01*
X-4563215Y-18697619D01*
X-4491786Y-18697619D01*
X-4384643Y-18645238D01*
X-4348929Y-18592857D01*
X-4348929Y-18226190D01*
X-4491786Y-18226190D01*
X-4027500Y-18697619D02*
X-4027500Y-17597619D01*
X-3598929Y-18697619D01*
X-3598929Y-17597619D01*
X-3241786Y-18697619D02*
X-3241786Y-17597619D01*
X-3063215Y-17597619D01*
X-2956072Y-17650000D01*
X-2884643Y-17754761D01*
X-2848929Y-17859523D01*
X-2813215Y-18069047D01*
X-2813215Y-18226190D01*
X-2848929Y-18435714D01*
X-2884643Y-18540476D01*
X-2956072Y-18645238D01*
X-3063215Y-18697619D01*
X-3241786Y-18697619D01*
D12*
X-59600000Y-15100000D02*
X-3150000Y-15100000D01*
D10*
X-59042977Y-12547619D02*
X-59376310Y-12023809D01*
X-59614405Y-12547619D02*
X-59614405Y-11447619D01*
X-59233453Y-11447619D01*
X-59138215Y-11500000D01*
X-59090596Y-11552380D01*
X-59042977Y-11657142D01*
X-59042977Y-11814285D01*
X-59090596Y-11919047D01*
X-59138215Y-11971428D01*
X-59233453Y-12023809D01*
X-59614405Y-12023809D01*
X-58614405Y-12547619D02*
X-58614405Y-11447619D01*
X-58233453Y-11447619D01*
X-58138215Y-11500000D01*
X-58090596Y-11552380D01*
X-58042977Y-11657142D01*
X-58042977Y-11814285D01*
X-58090596Y-11919047D01*
X-58138215Y-11971428D01*
X-58233453Y-12023809D01*
X-58614405Y-12023809D01*
X-57614405Y-12547619D02*
X-57614405Y-11447619D01*
X-59614405Y-14347619D02*
X-59614405Y-13247619D01*
X-59233453Y-13247619D01*
X-59138215Y-13300000D01*
X-59090596Y-13352380D01*
X-59042977Y-13457142D01*
X-59042977Y-13614285D01*
X-59090596Y-13719047D01*
X-59138215Y-13771428D01*
X-59233453Y-13823809D01*
X-59614405Y-13823809D01*
X-58614405Y-14347619D02*
X-58614405Y-13247619D01*
X-58138215Y-14347619D02*
X-58138215Y-13247619D01*
X-57566786Y-14347619D01*
X-57566786Y-13247619D01*
X-59215596Y-15850000D02*
X-59310834Y-15797619D01*
X-59453691Y-15797619D01*
X-59596548Y-15850000D01*
X-59691786Y-15954761D01*
X-59739405Y-16059523D01*
X-59787024Y-16269047D01*
X-59787024Y-16426190D01*
X-59739405Y-16635714D01*
X-59691786Y-16740476D01*
X-59596548Y-16845238D01*
X-59453691Y-16897619D01*
X-59358453Y-16897619D01*
X-59215596Y-16845238D01*
X-59167977Y-16792857D01*
X-59167977Y-16426190D01*
X-59358453Y-16426190D01*
X-58739405Y-16897619D02*
X-58739405Y-15797619D01*
X-58358453Y-15797619D01*
X-58263215Y-15850000D01*
X-58215596Y-15902380D01*
X-58167977Y-16007142D01*
X-58167977Y-16164285D01*
X-58215596Y-16269047D01*
X-58263215Y-16321428D01*
X-58358453Y-16373809D01*
X-58739405Y-16373809D01*
X-57739405Y-16897619D02*
X-57739405Y-15797619D01*
X-57072739Y-15797619D02*
X-56882262Y-15797619D01*
X-56787024Y-15850000D01*
X-56691786Y-15954761D01*
X-56644167Y-16164285D01*
X-56644167Y-16530952D01*
X-56691786Y-16740476D01*
X-56787024Y-16845238D01*
X-56882262Y-16897619D01*
X-57072739Y-16897619D01*
X-57167977Y-16845238D01*
X-57263215Y-16740476D01*
X-57310834Y-16530952D01*
X-57310834Y-16164285D01*
X-57263215Y-15954761D01*
X-57167977Y-15850000D01*
X-57072739Y-15797619D01*
X-59739405Y-18697619D02*
X-59739405Y-17597619D01*
X-59358453Y-17597619D01*
X-59263215Y-17650000D01*
X-59215596Y-17702380D01*
X-59167977Y-17807142D01*
X-59167977Y-17964285D01*
X-59215596Y-18069047D01*
X-59263215Y-18121428D01*
X-59358453Y-18173809D01*
X-59739405Y-18173809D01*
X-58739405Y-18697619D02*
X-58739405Y-17597619D01*
X-58263215Y-18697619D02*
X-58263215Y-17597619D01*
X-57691786Y-18697619D01*
X-57691786Y-17597619D01*
X-53539286Y-11502380D02*
X-53493334Y-11450000D01*
X-53401429Y-11397619D01*
X-53171667Y-11397619D01*
X-53079762Y-11450000D01*
X-53033810Y-11502380D01*
X-52987858Y-11607142D01*
X-52987858Y-11711904D01*
X-53033810Y-11869047D01*
X-53585239Y-12497619D01*
X-52987858Y-12497619D01*
X-50690239Y-11764285D02*
X-50690239Y-12497619D01*
X-50920000Y-11345238D02*
X-51149762Y-12130952D01*
X-50552381Y-12130952D01*
X-48300715Y-11397619D02*
X-48484524Y-11397619D01*
X-48576429Y-11450000D01*
X-48622381Y-11502380D01*
X-48714286Y-11659523D01*
X-48760239Y-11869047D01*
X-48760239Y-12288095D01*
X-48714286Y-12392857D01*
X-48668334Y-12445238D01*
X-48576429Y-12497619D01*
X-48392620Y-12497619D01*
X-48300715Y-12445238D01*
X-48254762Y-12392857D01*
X-48208810Y-12288095D01*
X-48208810Y-12026190D01*
X-48254762Y-11921428D01*
X-48300715Y-11869047D01*
X-48392620Y-11816666D01*
X-48576429Y-11816666D01*
X-48668334Y-11869047D01*
X-48714286Y-11921428D01*
X-48760239Y-12026190D01*
X-46186905Y-11869047D02*
X-46278810Y-11816666D01*
X-46324762Y-11764285D01*
X-46370715Y-11659523D01*
X-46370715Y-11607142D01*
X-46324762Y-11502380D01*
X-46278810Y-11450000D01*
X-46186905Y-11397619D01*
X-46003096Y-11397619D01*
X-45911191Y-11450000D01*
X-45865239Y-11502380D01*
X-45819286Y-11607142D01*
X-45819286Y-11659523D01*
X-45865239Y-11764285D01*
X-45911191Y-11816666D01*
X-46003096Y-11869047D01*
X-46186905Y-11869047D01*
X-46278810Y-11921428D01*
X-46324762Y-11973809D01*
X-46370715Y-12078571D01*
X-46370715Y-12288095D01*
X-46324762Y-12392857D01*
X-46278810Y-12445238D01*
X-46186905Y-12497619D01*
X-46003096Y-12497619D01*
X-45911191Y-12445238D01*
X-45865239Y-12392857D01*
X-45819286Y-12288095D01*
X-45819286Y-12078571D01*
X-45865239Y-11973809D01*
X-45911191Y-11921428D01*
X-46003096Y-11869047D01*
X-43429762Y-12497619D02*
X-43981191Y-12497619D01*
X-43705477Y-12497619D02*
X-43705477Y-11397619D01*
X-43797381Y-11554761D01*
X-43889286Y-11659523D01*
X-43981191Y-11711904D01*
X-42832381Y-11397619D02*
X-42740477Y-11397619D01*
X-42648572Y-11450000D01*
X-42602620Y-11502380D01*
X-42556667Y-11607142D01*
X-42510715Y-11816666D01*
X-42510715Y-12078571D01*
X-42556667Y-12288095D01*
X-42602620Y-12392857D01*
X-42648572Y-12445238D01*
X-42740477Y-12497619D01*
X-42832381Y-12497619D01*
X-42924286Y-12445238D01*
X-42970239Y-12392857D01*
X-43016191Y-12288095D01*
X-43062143Y-12078571D01*
X-43062143Y-11816666D01*
X-43016191Y-11607142D01*
X-42970239Y-11502380D01*
X-42924286Y-11450000D01*
X-42832381Y-11397619D01*
X-40856429Y-12497619D02*
X-41407858Y-12497619D01*
X-41132143Y-12497619D02*
X-41132143Y-11397619D01*
X-41224048Y-11554761D01*
X-41315953Y-11659523D01*
X-41407858Y-11711904D01*
X-40488810Y-11502380D02*
X-40442858Y-11450000D01*
X-40350953Y-11397619D01*
X-40121191Y-11397619D01*
X-40029286Y-11450000D01*
X-39983334Y-11502380D01*
X-39937381Y-11607142D01*
X-39937381Y-11711904D01*
X-39983334Y-11869047D01*
X-40534762Y-12497619D01*
X-39937381Y-12497619D01*
X-38283096Y-12497619D02*
X-38834524Y-12497619D01*
X-38558810Y-12497619D02*
X-38558810Y-11397619D01*
X-38650715Y-11554761D01*
X-38742620Y-11659523D01*
X-38834524Y-11711904D01*
X-37455953Y-11764285D02*
X-37455953Y-12497619D01*
X-37685715Y-11345238D02*
X-37915477Y-12130952D01*
X-37318096Y-12130952D01*
X-35709762Y-12497619D02*
X-36261191Y-12497619D01*
X-35985477Y-12497619D02*
X-35985477Y-11397619D01*
X-36077381Y-11554761D01*
X-36169286Y-11659523D01*
X-36261191Y-11711904D01*
X-34882620Y-11397619D02*
X-35066429Y-11397619D01*
X-35158334Y-11450000D01*
X-35204286Y-11502380D01*
X-35296191Y-11659523D01*
X-35342143Y-11869047D01*
X-35342143Y-12288095D01*
X-35296191Y-12392857D01*
X-35250239Y-12445238D01*
X-35158334Y-12497619D01*
X-34974524Y-12497619D01*
X-34882620Y-12445238D01*
X-34836667Y-12392857D01*
X-34790715Y-12288095D01*
X-34790715Y-12026190D01*
X-34836667Y-11921428D01*
X-34882620Y-11869047D01*
X-34974524Y-11816666D01*
X-35158334Y-11816666D01*
X-35250239Y-11869047D01*
X-35296191Y-11921428D01*
X-35342143Y-12026190D01*
X-33136429Y-12497619D02*
X-33687858Y-12497619D01*
X-33412143Y-12497619D02*
X-33412143Y-11397619D01*
X-33504048Y-11554761D01*
X-33595953Y-11659523D01*
X-33687858Y-11711904D01*
X-32585000Y-11869047D02*
X-32676905Y-11816666D01*
X-32722858Y-11764285D01*
X-32768810Y-11659523D01*
X-32768810Y-11607142D01*
X-32722858Y-11502380D01*
X-32676905Y-11450000D01*
X-32585000Y-11397619D01*
X-32401191Y-11397619D01*
X-32309286Y-11450000D01*
X-32263334Y-11502380D01*
X-32217381Y-11607142D01*
X-32217381Y-11659523D01*
X-32263334Y-11764285D01*
X-32309286Y-11816666D01*
X-32401191Y-11869047D01*
X-32585000Y-11869047D01*
X-32676905Y-11921428D01*
X-32722858Y-11973809D01*
X-32768810Y-12078571D01*
X-32768810Y-12288095D01*
X-32722858Y-12392857D01*
X-32676905Y-12445238D01*
X-32585000Y-12497619D01*
X-32401191Y-12497619D01*
X-32309286Y-12445238D01*
X-32263334Y-12392857D01*
X-32217381Y-12288095D01*
X-32217381Y-12078571D01*
X-32263334Y-11973809D01*
X-32309286Y-11921428D01*
X-32401191Y-11869047D01*
X-31114524Y-11502380D02*
X-31068572Y-11450000D01*
X-30976667Y-11397619D01*
X-30746905Y-11397619D01*
X-30655000Y-11450000D01*
X-30609048Y-11502380D01*
X-30563096Y-11607142D01*
X-30563096Y-11711904D01*
X-30609048Y-11869047D01*
X-31160477Y-12497619D01*
X-30563096Y-12497619D01*
X-29965715Y-11397619D02*
X-29873810Y-11397619D01*
X-29781905Y-11450000D01*
X-29735953Y-11502380D01*
X-29690000Y-11607142D01*
X-29644048Y-11816666D01*
X-29644048Y-12078571D01*
X-29690000Y-12288095D01*
X-29735953Y-12392857D01*
X-29781905Y-12445238D01*
X-29873810Y-12497619D01*
X-29965715Y-12497619D01*
X-30057620Y-12445238D01*
X-30103572Y-12392857D01*
X-30149524Y-12288095D01*
X-30195477Y-12078571D01*
X-30195477Y-11816666D01*
X-30149524Y-11607142D01*
X-30103572Y-11502380D01*
X-30057620Y-11450000D01*
X-29965715Y-11397619D01*
X-28541191Y-11502380D02*
X-28495239Y-11450000D01*
X-28403334Y-11397619D01*
X-28173572Y-11397619D01*
X-28081667Y-11450000D01*
X-28035715Y-11502380D01*
X-27989762Y-11607142D01*
X-27989762Y-11711904D01*
X-28035715Y-11869047D01*
X-28587143Y-12497619D01*
X-27989762Y-12497619D01*
X-27622143Y-11502380D02*
X-27576191Y-11450000D01*
X-27484286Y-11397619D01*
X-27254524Y-11397619D01*
X-27162620Y-11450000D01*
X-27116667Y-11502380D01*
X-27070715Y-11607142D01*
X-27070715Y-11711904D01*
X-27116667Y-11869047D01*
X-27668096Y-12497619D01*
X-27070715Y-12497619D01*
X-25967858Y-11502380D02*
X-25921905Y-11450000D01*
X-25830000Y-11397619D01*
X-25600239Y-11397619D01*
X-25508334Y-11450000D01*
X-25462381Y-11502380D01*
X-25416429Y-11607142D01*
X-25416429Y-11711904D01*
X-25462381Y-11869047D01*
X-26013810Y-12497619D01*
X-25416429Y-12497619D01*
X-24589286Y-11764285D02*
X-24589286Y-12497619D01*
X-24819048Y-11345238D02*
X-25048810Y-12130952D01*
X-24451429Y-12130952D01*
X-23394524Y-11502380D02*
X-23348572Y-11450000D01*
X-23256667Y-11397619D01*
X-23026905Y-11397619D01*
X-22935000Y-11450000D01*
X-22889048Y-11502380D01*
X-22843096Y-11607142D01*
X-22843096Y-11711904D01*
X-22889048Y-11869047D01*
X-23440477Y-12497619D01*
X-22843096Y-12497619D01*
X-22015953Y-11397619D02*
X-22199762Y-11397619D01*
X-22291667Y-11450000D01*
X-22337620Y-11502380D01*
X-22429524Y-11659523D01*
X-22475477Y-11869047D01*
X-22475477Y-12288095D01*
X-22429524Y-12392857D01*
X-22383572Y-12445238D01*
X-22291667Y-12497619D01*
X-22107858Y-12497619D01*
X-22015953Y-12445238D01*
X-21970000Y-12392857D01*
X-21924048Y-12288095D01*
X-21924048Y-12026190D01*
X-21970000Y-11921428D01*
X-22015953Y-11869047D01*
X-22107858Y-11816666D01*
X-22291667Y-11816666D01*
X-22383572Y-11869047D01*
X-22429524Y-11921428D01*
X-22475477Y-12026190D01*
X-20821191Y-11502380D02*
X-20775239Y-11450000D01*
X-20683334Y-11397619D01*
X-20453572Y-11397619D01*
X-20361667Y-11450000D01*
X-20315715Y-11502380D01*
X-20269762Y-11607142D01*
X-20269762Y-11711904D01*
X-20315715Y-11869047D01*
X-20867143Y-12497619D01*
X-20269762Y-12497619D01*
X-19718334Y-11869047D02*
X-19810239Y-11816666D01*
X-19856191Y-11764285D01*
X-19902143Y-11659523D01*
X-19902143Y-11607142D01*
X-19856191Y-11502380D01*
X-19810239Y-11450000D01*
X-19718334Y-11397619D01*
X-19534524Y-11397619D01*
X-19442620Y-11450000D01*
X-19396667Y-11502380D01*
X-19350715Y-11607142D01*
X-19350715Y-11659523D01*
X-19396667Y-11764285D01*
X-19442620Y-11816666D01*
X-19534524Y-11869047D01*
X-19718334Y-11869047D01*
X-19810239Y-11921428D01*
X-19856191Y-11973809D01*
X-19902143Y-12078571D01*
X-19902143Y-12288095D01*
X-19856191Y-12392857D01*
X-19810239Y-12445238D01*
X-19718334Y-12497619D01*
X-19534524Y-12497619D01*
X-19442620Y-12445238D01*
X-19396667Y-12392857D01*
X-19350715Y-12288095D01*
X-19350715Y-12078571D01*
X-19396667Y-11973809D01*
X-19442620Y-11921428D01*
X-19534524Y-11869047D01*
X-18293810Y-11397619D02*
X-17696429Y-11397619D01*
X-18018096Y-11816666D01*
X-17880239Y-11816666D01*
X-17788334Y-11869047D01*
X-17742381Y-11921428D01*
X-17696429Y-12026190D01*
X-17696429Y-12288095D01*
X-17742381Y-12392857D01*
X-17788334Y-12445238D01*
X-17880239Y-12497619D01*
X-18155953Y-12497619D01*
X-18247858Y-12445238D01*
X-18293810Y-12392857D01*
X-17099048Y-11397619D02*
X-17007143Y-11397619D01*
X-16915239Y-11450000D01*
X-16869286Y-11502380D01*
X-16823334Y-11607142D01*
X-16777381Y-11816666D01*
X-16777381Y-12078571D01*
X-16823334Y-12288095D01*
X-16869286Y-12392857D01*
X-16915239Y-12445238D01*
X-17007143Y-12497619D01*
X-17099048Y-12497619D01*
X-17190953Y-12445238D01*
X-17236905Y-12392857D01*
X-17282858Y-12288095D01*
X-17328810Y-12078571D01*
X-17328810Y-11816666D01*
X-17282858Y-11607142D01*
X-17236905Y-11502380D01*
X-17190953Y-11450000D01*
X-17099048Y-11397619D01*
X-15720477Y-11397619D02*
X-15123096Y-11397619D01*
X-15444762Y-11816666D01*
X-15306905Y-11816666D01*
X-15215000Y-11869047D01*
X-15169048Y-11921428D01*
X-15123096Y-12026190D01*
X-15123096Y-12288095D01*
X-15169048Y-12392857D01*
X-15215000Y-12445238D01*
X-15306905Y-12497619D01*
X-15582620Y-12497619D01*
X-15674524Y-12445238D01*
X-15720477Y-12392857D01*
X-14755477Y-11502380D02*
X-14709524Y-11450000D01*
X-14617620Y-11397619D01*
X-14387858Y-11397619D01*
X-14295953Y-11450000D01*
X-14250000Y-11502380D01*
X-14204048Y-11607142D01*
X-14204048Y-11711904D01*
X-14250000Y-11869047D01*
X-14801429Y-12497619D01*
X-14204048Y-12497619D01*
X-13147143Y-11397619D02*
X-12549762Y-11397619D01*
X-12871429Y-11816666D01*
X-12733572Y-11816666D01*
X-12641667Y-11869047D01*
X-12595715Y-11921428D01*
X-12549762Y-12026190D01*
X-12549762Y-12288095D01*
X-12595715Y-12392857D01*
X-12641667Y-12445238D01*
X-12733572Y-12497619D01*
X-13009286Y-12497619D01*
X-13101191Y-12445238D01*
X-13147143Y-12392857D01*
X-11722620Y-11764285D02*
X-11722620Y-12497619D01*
X-11952381Y-11345238D02*
X-12182143Y-12130952D01*
X-11584762Y-12130952D01*
X-10573810Y-11397619D02*
X-9976429Y-11397619D01*
X-10298096Y-11816666D01*
X-10160239Y-11816666D01*
X-10068334Y-11869047D01*
X-10022381Y-11921428D01*
X-9976429Y-12026190D01*
X-9976429Y-12288095D01*
X-10022381Y-12392857D01*
X-10068334Y-12445238D01*
X-10160239Y-12497619D01*
X-10435953Y-12497619D01*
X-10527858Y-12445238D01*
X-10573810Y-12392857D01*
X-9149286Y-11397619D02*
X-9333096Y-11397619D01*
X-9425000Y-11450000D01*
X-9470953Y-11502380D01*
X-9562858Y-11659523D01*
X-9608810Y-11869047D01*
X-9608810Y-12288095D01*
X-9562858Y-12392857D01*
X-9516905Y-12445238D01*
X-9425000Y-12497619D01*
X-9241191Y-12497619D01*
X-9149286Y-12445238D01*
X-9103334Y-12392857D01*
X-9057381Y-12288095D01*
X-9057381Y-12026190D01*
X-9103334Y-11921428D01*
X-9149286Y-11869047D01*
X-9241191Y-11816666D01*
X-9425000Y-11816666D01*
X-9516905Y-11869047D01*
X-9562858Y-11921428D01*
X-9608810Y-12026190D01*
X-8000477Y-11397619D02*
X-7403096Y-11397619D01*
X-7724762Y-11816666D01*
X-7586905Y-11816666D01*
X-7495000Y-11869047D01*
X-7449048Y-11921428D01*
X-7403096Y-12026190D01*
X-7403096Y-12288095D01*
X-7449048Y-12392857D01*
X-7495000Y-12445238D01*
X-7586905Y-12497619D01*
X-7862620Y-12497619D01*
X-7954524Y-12445238D01*
X-8000477Y-12392857D01*
X-6851667Y-11869047D02*
X-6943572Y-11816666D01*
X-6989524Y-11764285D01*
X-7035477Y-11659523D01*
X-7035477Y-11607142D01*
X-6989524Y-11502380D01*
X-6943572Y-11450000D01*
X-6851667Y-11397619D01*
X-6667858Y-11397619D01*
X-6575953Y-11450000D01*
X-6530000Y-11502380D01*
X-6484048Y-11607142D01*
X-6484048Y-11659523D01*
X-6530000Y-11764285D01*
X-6575953Y-11816666D01*
X-6667858Y-11869047D01*
X-6851667Y-11869047D01*
X-6943572Y-11921428D01*
X-6989524Y-11973809D01*
X-7035477Y-12078571D01*
X-7035477Y-12288095D01*
X-6989524Y-12392857D01*
X-6943572Y-12445238D01*
X-6851667Y-12497619D01*
X-6667858Y-12497619D01*
X-6575953Y-12445238D01*
X-6530000Y-12392857D01*
X-6484048Y-12288095D01*
X-6484048Y-12078571D01*
X-6530000Y-11973809D01*
X-6575953Y-11921428D01*
X-6667858Y-11869047D01*
X-4921667Y-11764285D02*
X-4921667Y-12497619D01*
X-5151429Y-11345238D02*
X-5381191Y-12130952D01*
X-4783810Y-12130952D01*
X-4232381Y-11397619D02*
X-4140477Y-11397619D01*
X-4048572Y-11450000D01*
X-4002620Y-11502380D01*
X-3956667Y-11607142D01*
X-3910715Y-11816666D01*
X-3910715Y-12078571D01*
X-3956667Y-12288095D01*
X-4002620Y-12392857D01*
X-4048572Y-12445238D01*
X-4140477Y-12497619D01*
X-4232381Y-12497619D01*
X-4324286Y-12445238D01*
X-4370239Y-12392857D01*
X-4416191Y-12288095D01*
X-4462143Y-12078571D01*
X-4462143Y-11816666D01*
X-4416191Y-11607142D01*
X-4370239Y-11502380D01*
X-4324286Y-11450000D01*
X-4232381Y-11397619D01*
X-52895953Y-14297619D02*
X-53447381Y-14297619D01*
X-53171667Y-14297619D02*
X-53171667Y-13197619D01*
X-53263572Y-13354761D01*
X-53355477Y-13459523D01*
X-53447381Y-13511904D01*
X-51103810Y-13197619D02*
X-50506429Y-13197619D01*
X-50828096Y-13616666D01*
X-50690239Y-13616666D01*
X-50598334Y-13669047D01*
X-50552381Y-13721428D01*
X-50506429Y-13826190D01*
X-50506429Y-14088095D01*
X-50552381Y-14192857D01*
X-50598334Y-14245238D01*
X-50690239Y-14297619D01*
X-50965953Y-14297619D01*
X-51057858Y-14245238D01*
X-51103810Y-14192857D01*
X-48162858Y-13197619D02*
X-48622381Y-13197619D01*
X-48668334Y-13721428D01*
X-48622381Y-13669047D01*
X-48530477Y-13616666D01*
X-48300715Y-13616666D01*
X-48208810Y-13669047D01*
X-48162858Y-13721428D01*
X-48116905Y-13826190D01*
X-48116905Y-14088095D01*
X-48162858Y-14192857D01*
X-48208810Y-14245238D01*
X-48300715Y-14297619D01*
X-48530477Y-14297619D01*
X-48622381Y-14245238D01*
X-48668334Y-14192857D01*
X-46324762Y-13197619D02*
X-45681429Y-13197619D01*
X-46095000Y-14297619D01*
X-43797381Y-14297619D02*
X-43613572Y-14297619D01*
X-43521667Y-14245238D01*
X-43475715Y-14192857D01*
X-43383810Y-14035714D01*
X-43337858Y-13826190D01*
X-43337858Y-13407142D01*
X-43383810Y-13302380D01*
X-43429762Y-13250000D01*
X-43521667Y-13197619D01*
X-43705477Y-13197619D01*
X-43797381Y-13250000D01*
X-43843334Y-13302380D01*
X-43889286Y-13407142D01*
X-43889286Y-13669047D01*
X-43843334Y-13773809D01*
X-43797381Y-13826190D01*
X-43705477Y-13878571D01*
X-43521667Y-13878571D01*
X-43429762Y-13826190D01*
X-43383810Y-13773809D01*
X-43337858Y-13669047D01*
X-40948334Y-14297619D02*
X-41499762Y-14297619D01*
X-41224048Y-14297619D02*
X-41224048Y-13197619D01*
X-41315953Y-13354761D01*
X-41407858Y-13459523D01*
X-41499762Y-13511904D01*
X-40029286Y-14297619D02*
X-40580715Y-14297619D01*
X-40305000Y-14297619D02*
X-40305000Y-13197619D01*
X-40396905Y-13354761D01*
X-40488810Y-13459523D01*
X-40580715Y-13511904D01*
X-38375000Y-14297619D02*
X-38926429Y-14297619D01*
X-38650715Y-14297619D02*
X-38650715Y-13197619D01*
X-38742620Y-13354761D01*
X-38834524Y-13459523D01*
X-38926429Y-13511904D01*
X-38053334Y-13197619D02*
X-37455953Y-13197619D01*
X-37777620Y-13616666D01*
X-37639762Y-13616666D01*
X-37547858Y-13669047D01*
X-37501905Y-13721428D01*
X-37455953Y-13826190D01*
X-37455953Y-14088095D01*
X-37501905Y-14192857D01*
X-37547858Y-14245238D01*
X-37639762Y-14297619D01*
X-37915477Y-14297619D01*
X-38007381Y-14245238D01*
X-38053334Y-14192857D01*
X-35801667Y-14297619D02*
X-36353096Y-14297619D01*
X-36077381Y-14297619D02*
X-36077381Y-13197619D01*
X-36169286Y-13354761D01*
X-36261191Y-13459523D01*
X-36353096Y-13511904D01*
X-34928572Y-13197619D02*
X-35388096Y-13197619D01*
X-35434048Y-13721428D01*
X-35388096Y-13669047D01*
X-35296191Y-13616666D01*
X-35066429Y-13616666D01*
X-34974524Y-13669047D01*
X-34928572Y-13721428D01*
X-34882620Y-13826190D01*
X-34882620Y-14088095D01*
X-34928572Y-14192857D01*
X-34974524Y-14245238D01*
X-35066429Y-14297619D01*
X-35296191Y-14297619D01*
X-35388096Y-14245238D01*
X-35434048Y-14192857D01*
X-33228334Y-14297619D02*
X-33779762Y-14297619D01*
X-33504048Y-14297619D02*
X-33504048Y-13197619D01*
X-33595953Y-13354761D01*
X-33687858Y-13459523D01*
X-33779762Y-13511904D01*
X-32906667Y-13197619D02*
X-32263334Y-13197619D01*
X-32676905Y-14297619D01*
X-30655000Y-14297619D02*
X-31206429Y-14297619D01*
X-30930715Y-14297619D02*
X-30930715Y-13197619D01*
X-31022620Y-13354761D01*
X-31114524Y-13459523D01*
X-31206429Y-13511904D01*
X-30195477Y-14297619D02*
X-30011667Y-14297619D01*
X-29919762Y-14245238D01*
X-29873810Y-14192857D01*
X-29781905Y-14035714D01*
X-29735953Y-13826190D01*
X-29735953Y-13407142D01*
X-29781905Y-13302380D01*
X-29827858Y-13250000D01*
X-29919762Y-13197619D01*
X-30103572Y-13197619D01*
X-30195477Y-13250000D01*
X-30241429Y-13302380D01*
X-30287381Y-13407142D01*
X-30287381Y-13669047D01*
X-30241429Y-13773809D01*
X-30195477Y-13826190D01*
X-30103572Y-13878571D01*
X-29919762Y-13878571D01*
X-29827858Y-13826190D01*
X-29781905Y-13773809D01*
X-29735953Y-13669047D01*
X-28633096Y-13302380D02*
X-28587143Y-13250000D01*
X-28495239Y-13197619D01*
X-28265477Y-13197619D01*
X-28173572Y-13250000D01*
X-28127620Y-13302380D01*
X-28081667Y-13407142D01*
X-28081667Y-13511904D01*
X-28127620Y-13669047D01*
X-28679048Y-14297619D01*
X-28081667Y-14297619D01*
X-27162620Y-14297619D02*
X-27714048Y-14297619D01*
X-27438334Y-14297619D02*
X-27438334Y-13197619D01*
X-27530239Y-13354761D01*
X-27622143Y-13459523D01*
X-27714048Y-13511904D01*
X-26059762Y-13302380D02*
X-26013810Y-13250000D01*
X-25921905Y-13197619D01*
X-25692143Y-13197619D01*
X-25600239Y-13250000D01*
X-25554286Y-13302380D01*
X-25508334Y-13407142D01*
X-25508334Y-13511904D01*
X-25554286Y-13669047D01*
X-26105715Y-14297619D01*
X-25508334Y-14297619D01*
X-25186667Y-13197619D02*
X-24589286Y-13197619D01*
X-24910953Y-13616666D01*
X-24773096Y-13616666D01*
X-24681191Y-13669047D01*
X-24635239Y-13721428D01*
X-24589286Y-13826190D01*
X-24589286Y-14088095D01*
X-24635239Y-14192857D01*
X-24681191Y-14245238D01*
X-24773096Y-14297619D01*
X-25048810Y-14297619D01*
X-25140715Y-14245238D01*
X-25186667Y-14192857D01*
X-23486429Y-13302380D02*
X-23440477Y-13250000D01*
X-23348572Y-13197619D01*
X-23118810Y-13197619D01*
X-23026905Y-13250000D01*
X-22980953Y-13302380D01*
X-22935000Y-13407142D01*
X-22935000Y-13511904D01*
X-22980953Y-13669047D01*
X-23532381Y-14297619D01*
X-22935000Y-14297619D01*
X-22061905Y-13197619D02*
X-22521429Y-13197619D01*
X-22567381Y-13721428D01*
X-22521429Y-13669047D01*
X-22429524Y-13616666D01*
X-22199762Y-13616666D01*
X-22107858Y-13669047D01*
X-22061905Y-13721428D01*
X-22015953Y-13826190D01*
X-22015953Y-14088095D01*
X-22061905Y-14192857D01*
X-22107858Y-14245238D01*
X-22199762Y-14297619D01*
X-22429524Y-14297619D01*
X-22521429Y-14245238D01*
X-22567381Y-14192857D01*
X-20913096Y-13302380D02*
X-20867143Y-13250000D01*
X-20775239Y-13197619D01*
X-20545477Y-13197619D01*
X-20453572Y-13250000D01*
X-20407620Y-13302380D01*
X-20361667Y-13407142D01*
X-20361667Y-13511904D01*
X-20407620Y-13669047D01*
X-20959048Y-14297619D01*
X-20361667Y-14297619D01*
X-20040000Y-13197619D02*
X-19396667Y-13197619D01*
X-19810239Y-14297619D01*
X-18339762Y-13302380D02*
X-18293810Y-13250000D01*
X-18201905Y-13197619D01*
X-17972143Y-13197619D01*
X-17880239Y-13250000D01*
X-17834286Y-13302380D01*
X-17788334Y-13407142D01*
X-17788334Y-13511904D01*
X-17834286Y-13669047D01*
X-18385715Y-14297619D01*
X-17788334Y-14297619D01*
X-17328810Y-14297619D02*
X-17145000Y-14297619D01*
X-17053096Y-14245238D01*
X-17007143Y-14192857D01*
X-16915239Y-14035714D01*
X-16869286Y-13826190D01*
X-16869286Y-13407142D01*
X-16915239Y-13302380D01*
X-16961191Y-13250000D01*
X-17053096Y-13197619D01*
X-17236905Y-13197619D01*
X-17328810Y-13250000D01*
X-17374762Y-13302380D01*
X-17420715Y-13407142D01*
X-17420715Y-13669047D01*
X-17374762Y-13773809D01*
X-17328810Y-13826190D01*
X-17236905Y-13878571D01*
X-17053096Y-13878571D01*
X-16961191Y-13826190D01*
X-16915239Y-13773809D01*
X-16869286Y-13669047D01*
X-15812381Y-13197619D02*
X-15215000Y-13197619D01*
X-15536667Y-13616666D01*
X-15398810Y-13616666D01*
X-15306905Y-13669047D01*
X-15260953Y-13721428D01*
X-15215000Y-13826190D01*
X-15215000Y-14088095D01*
X-15260953Y-14192857D01*
X-15306905Y-14245238D01*
X-15398810Y-14297619D01*
X-15674524Y-14297619D01*
X-15766429Y-14245238D01*
X-15812381Y-14192857D01*
X-14295953Y-14297619D02*
X-14847381Y-14297619D01*
X-14571667Y-14297619D02*
X-14571667Y-13197619D01*
X-14663572Y-13354761D01*
X-14755477Y-13459523D01*
X-14847381Y-13511904D01*
X-13239048Y-13197619D02*
X-12641667Y-13197619D01*
X-12963334Y-13616666D01*
X-12825477Y-13616666D01*
X-12733572Y-13669047D01*
X-12687620Y-13721428D01*
X-12641667Y-13826190D01*
X-12641667Y-14088095D01*
X-12687620Y-14192857D01*
X-12733572Y-14245238D01*
X-12825477Y-14297619D01*
X-13101191Y-14297619D01*
X-13193096Y-14245238D01*
X-13239048Y-14192857D01*
X-12320000Y-13197619D02*
X-11722620Y-13197619D01*
X-12044286Y-13616666D01*
X-11906429Y-13616666D01*
X-11814524Y-13669047D01*
X-11768572Y-13721428D01*
X-11722620Y-13826190D01*
X-11722620Y-14088095D01*
X-11768572Y-14192857D01*
X-11814524Y-14245238D01*
X-11906429Y-14297619D01*
X-12182143Y-14297619D01*
X-12274048Y-14245238D01*
X-12320000Y-14192857D01*
X-10665715Y-13197619D02*
X-10068334Y-13197619D01*
X-10390000Y-13616666D01*
X-10252143Y-13616666D01*
X-10160239Y-13669047D01*
X-10114286Y-13721428D01*
X-10068334Y-13826190D01*
X-10068334Y-14088095D01*
X-10114286Y-14192857D01*
X-10160239Y-14245238D01*
X-10252143Y-14297619D01*
X-10527858Y-14297619D01*
X-10619762Y-14245238D01*
X-10665715Y-14192857D01*
X-9195239Y-13197619D02*
X-9654762Y-13197619D01*
X-9700715Y-13721428D01*
X-9654762Y-13669047D01*
X-9562858Y-13616666D01*
X-9333096Y-13616666D01*
X-9241191Y-13669047D01*
X-9195239Y-13721428D01*
X-9149286Y-13826190D01*
X-9149286Y-14088095D01*
X-9195239Y-14192857D01*
X-9241191Y-14245238D01*
X-9333096Y-14297619D01*
X-9562858Y-14297619D01*
X-9654762Y-14245238D01*
X-9700715Y-14192857D01*
X-8092381Y-13197619D02*
X-7495000Y-13197619D01*
X-7816667Y-13616666D01*
X-7678810Y-13616666D01*
X-7586905Y-13669047D01*
X-7540953Y-13721428D01*
X-7495000Y-13826190D01*
X-7495000Y-14088095D01*
X-7540953Y-14192857D01*
X-7586905Y-14245238D01*
X-7678810Y-14297619D01*
X-7954524Y-14297619D01*
X-8046429Y-14245238D01*
X-8092381Y-14192857D01*
X-7173334Y-13197619D02*
X-6530000Y-13197619D01*
X-6943572Y-14297619D01*
X-5519048Y-13197619D02*
X-4921667Y-13197619D01*
X-5243334Y-13616666D01*
X-5105477Y-13616666D01*
X-5013572Y-13669047D01*
X-4967620Y-13721428D01*
X-4921667Y-13826190D01*
X-4921667Y-14088095D01*
X-4967620Y-14192857D01*
X-5013572Y-14245238D01*
X-5105477Y-14297619D01*
X-5381191Y-14297619D01*
X-5473096Y-14245238D01*
X-5519048Y-14192857D01*
X-4462143Y-14297619D02*
X-4278334Y-14297619D01*
X-4186429Y-14245238D01*
X-4140477Y-14192857D01*
X-4048572Y-14035714D01*
X-4002620Y-13826190D01*
X-4002620Y-13407142D01*
X-4048572Y-13302380D01*
X-4094524Y-13250000D01*
X-4186429Y-13197619D01*
X-4370239Y-13197619D01*
X-4462143Y-13250000D01*
X-4508096Y-13302380D01*
X-4554048Y-13407142D01*
X-4554048Y-13669047D01*
X-4508096Y-13773809D01*
X-4462143Y-13826190D01*
X-4370239Y-13878571D01*
X-4186429Y-13878571D01*
X-4094524Y-13826190D01*
X-4048572Y-13773809D01*
X-4002620Y-13669047D01*
D13*
X-44704286Y-29478571D02*
X-43775715Y-29478571D01*
X-44275715Y-30050000D01*
X-44061429Y-30050000D01*
X-43918572Y-30121428D01*
X-43847143Y-30192857D01*
X-43775715Y-30335714D01*
X-43775715Y-30692857D01*
X-43847143Y-30835714D01*
X-43918572Y-30907142D01*
X-44061429Y-30978571D01*
X-44490000Y-30978571D01*
X-44632858Y-30907142D01*
X-44704286Y-30835714D01*
X-43347143Y-29478571D02*
X-42847143Y-30978571D01*
X-42347143Y-29478571D01*
X-41990000Y-29478571D02*
X-41061429Y-29478571D01*
X-41561429Y-30050000D01*
X-41347143Y-30050000D01*
X-41204286Y-30121428D01*
X-41132858Y-30192857D01*
X-41061429Y-30335714D01*
X-41061429Y-30692857D01*
X-41132858Y-30835714D01*
X-41204286Y-30907142D01*
X-41347143Y-30978571D01*
X-41775715Y-30978571D01*
X-41918572Y-30907142D01*
X-41990000Y-30835714D01*
X-39347143Y-30907142D02*
X-39204286Y-30978571D01*
X-38918572Y-30978571D01*
X-38775715Y-30907142D01*
X-38704286Y-30764285D01*
X-38704286Y-30692857D01*
X-38775715Y-30550000D01*
X-38918572Y-30478571D01*
X-39132858Y-30478571D01*
X-39275715Y-30407142D01*
X-39347143Y-30264285D01*
X-39347143Y-30192857D01*
X-39275715Y-30050000D01*
X-39132858Y-29978571D01*
X-38918572Y-29978571D01*
X-38775715Y-30050000D01*
X-38061429Y-30978571D02*
X-38061429Y-29978571D01*
X-38061429Y-29478571D02*
X-38132858Y-29550000D01*
X-38061429Y-29621428D01*
X-37990000Y-29550000D01*
X-38061429Y-29478571D01*
X-38061429Y-29621428D01*
X-36704286Y-30978571D02*
X-36704286Y-29478571D01*
X-36704286Y-30907142D02*
X-36847143Y-30978571D01*
X-37132858Y-30978571D01*
X-37275715Y-30907142D01*
X-37347143Y-30835714D01*
X-37418572Y-30692857D01*
X-37418572Y-30264285D01*
X-37347143Y-30121428D01*
X-37275715Y-30050000D01*
X-37132858Y-29978571D01*
X-36847143Y-29978571D01*
X-36704286Y-30050000D01*
X-35418572Y-30907142D02*
X-35561429Y-30978571D01*
X-35847143Y-30978571D01*
X-35990000Y-30907142D01*
X-36061429Y-30764285D01*
X-36061429Y-30192857D01*
X-35990000Y-30050000D01*
X-35847143Y-29978571D01*
X-35561429Y-29978571D01*
X-35418572Y-30050000D01*
X-35347143Y-30192857D01*
X-35347143Y-30335714D01*
X-36061429Y-30478571D01*
X-43832858Y-32728571D02*
X-44547143Y-32728571D01*
X-44618572Y-33442857D01*
X-44547143Y-33371428D01*
X-44404286Y-33300000D01*
X-44047143Y-33300000D01*
X-43904286Y-33371428D01*
X-43832858Y-33442857D01*
X-43761429Y-33585714D01*
X-43761429Y-33942857D01*
X-43832858Y-34085714D01*
X-43904286Y-34157142D01*
X-44047143Y-34228571D01*
X-44404286Y-34228571D01*
X-44547143Y-34157142D01*
X-44618572Y-34085714D01*
X-43332858Y-32728571D02*
X-42832858Y-34228571D01*
X-42332858Y-32728571D01*
X-40761429Y-34157142D02*
X-40618572Y-34228571D01*
X-40332858Y-34228571D01*
X-40190000Y-34157142D01*
X-40118572Y-34014285D01*
X-40118572Y-33942857D01*
X-40190000Y-33800000D01*
X-40332858Y-33728571D01*
X-40547143Y-33728571D01*
X-40690000Y-33657142D01*
X-40761429Y-33514285D01*
X-40761429Y-33442857D01*
X-40690000Y-33300000D01*
X-40547143Y-33228571D01*
X-40332858Y-33228571D01*
X-40190000Y-33300000D01*
X-39475715Y-34228571D02*
X-39475715Y-33228571D01*
X-39475715Y-32728571D02*
X-39547143Y-32800000D01*
X-39475715Y-32871428D01*
X-39404286Y-32800000D01*
X-39475715Y-32728571D01*
X-39475715Y-32871428D01*
X-38118572Y-34228571D02*
X-38118572Y-32728571D01*
X-38118572Y-34157142D02*
X-38261429Y-34228571D01*
X-38547143Y-34228571D01*
X-38690000Y-34157142D01*
X-38761429Y-34085714D01*
X-38832858Y-33942857D01*
X-38832858Y-33514285D01*
X-38761429Y-33371428D01*
X-38690000Y-33300000D01*
X-38547143Y-33228571D01*
X-38261429Y-33228571D01*
X-38118572Y-33300000D01*
X-36832858Y-34157142D02*
X-36975715Y-34228571D01*
X-37261429Y-34228571D01*
X-37404286Y-34157142D01*
X-37475715Y-34014285D01*
X-37475715Y-33442857D01*
X-37404286Y-33300000D01*
X-37261429Y-33228571D01*
X-36975715Y-33228571D01*
X-36832858Y-33300000D01*
X-36761429Y-33442857D01*
X-36761429Y-33585714D01*
X-37475715Y-33728571D01*
D14*
X-30175953Y-31114761D02*
X-30842620Y-30162380D01*
X-31318810Y-31114761D02*
X-31318810Y-29114761D01*
X-30556905Y-29114761D01*
X-30366429Y-29210000D01*
X-30271191Y-29305238D01*
X-30175953Y-29495714D01*
X-30175953Y-29781428D01*
X-30271191Y-29971904D01*
X-30366429Y-30067142D01*
X-30556905Y-30162380D01*
X-31318810Y-30162380D01*
X-29318810Y-31114761D02*
X-29318810Y-29114761D01*
X-28556905Y-29114761D01*
X-28366429Y-29210000D01*
X-28271191Y-29305238D01*
X-28175953Y-29495714D01*
X-28175953Y-29781428D01*
X-28271191Y-29971904D01*
X-28366429Y-30067142D01*
X-28556905Y-30162380D01*
X-29318810Y-30162380D01*
X-27318810Y-31114761D02*
X-27318810Y-29114761D01*
X-23890239Y-31114761D02*
X-24842620Y-31114761D01*
X-24842620Y-29114761D01*
X-22461667Y-31019523D02*
X-22652143Y-31114761D01*
X-23033096Y-31114761D01*
X-23223572Y-31019523D01*
X-23318810Y-30829047D01*
X-23318810Y-30067142D01*
X-23223572Y-29876666D01*
X-23033096Y-29781428D01*
X-22652143Y-29781428D01*
X-22461667Y-29876666D01*
X-22366429Y-30067142D01*
X-22366429Y-30257619D01*
X-23318810Y-30448095D01*
X-21699762Y-29781428D02*
X-21223572Y-31114761D01*
X-20747381Y-29781428D01*
X-19223572Y-31019523D02*
X-19414048Y-31114761D01*
X-19795000Y-31114761D01*
X-19985477Y-31019523D01*
X-20080715Y-30829047D01*
X-20080715Y-30067142D01*
X-19985477Y-29876666D01*
X-19795000Y-29781428D01*
X-19414048Y-29781428D01*
X-19223572Y-29876666D01*
X-19128334Y-30067142D01*
X-19128334Y-30257619D01*
X-20080715Y-30448095D01*
X-17985477Y-31114761D02*
X-18175953Y-31019523D01*
X-18271191Y-30829047D01*
X-18271191Y-29114761D01*
X-17223572Y-30352857D02*
X-15699762Y-30352857D01*
X-31414048Y-34319523D02*
X-31128334Y-34414761D01*
X-30652143Y-34414761D01*
X-30461667Y-34319523D01*
X-30366429Y-34224285D01*
X-30271191Y-34033809D01*
X-30271191Y-33843333D01*
X-30366429Y-33652857D01*
X-30461667Y-33557619D01*
X-30652143Y-33462380D01*
X-31033096Y-33367142D01*
X-31223572Y-33271904D01*
X-31318810Y-33176666D01*
X-31414048Y-32986190D01*
X-31414048Y-32795714D01*
X-31318810Y-32605238D01*
X-31223572Y-32510000D01*
X-31033096Y-32414761D01*
X-30556905Y-32414761D01*
X-30271191Y-32510000D01*
X-29414048Y-34414761D02*
X-29414048Y-32414761D01*
X-28556905Y-34414761D02*
X-28556905Y-33367142D01*
X-28652143Y-33176666D01*
X-28842620Y-33081428D01*
X-29128334Y-33081428D01*
X-29318810Y-33176666D01*
X-29414048Y-33271904D01*
X-27604524Y-34414761D02*
X-27604524Y-33081428D01*
X-27604524Y-32414761D02*
X-27699762Y-32510000D01*
X-27604524Y-32605238D01*
X-27509286Y-32510000D01*
X-27604524Y-32414761D01*
X-27604524Y-32605238D01*
X-26937858Y-33081428D02*
X-26175953Y-33081428D01*
X-26652143Y-34414761D02*
X-26652143Y-32700476D01*
X-26556905Y-32510000D01*
X-26366429Y-32414761D01*
X-26175953Y-32414761D01*
X-25795000Y-33081428D02*
X-25033096Y-33081428D01*
X-25509286Y-32414761D02*
X-25509286Y-34129047D01*
X-25414048Y-34319523D01*
X-25223572Y-34414761D01*
X-25033096Y-34414761D01*
X-23604524Y-34319523D02*
X-23795000Y-34414761D01*
X-24175953Y-34414761D01*
X-24366429Y-34319523D01*
X-24461667Y-34129047D01*
X-24461667Y-33367142D01*
X-24366429Y-33176666D01*
X-24175953Y-33081428D01*
X-23795000Y-33081428D01*
X-23604524Y-33176666D01*
X-23509286Y-33367142D01*
X-23509286Y-33557619D01*
X-24461667Y-33748095D01*
X-22652143Y-34414761D02*
X-22652143Y-33081428D01*
X-22652143Y-33462380D02*
X-22556905Y-33271904D01*
X-22461667Y-33176666D01*
X-22271191Y-33081428D01*
X-22080715Y-33081428D01*
X-19890239Y-34414761D02*
X-19890239Y-32414761D01*
X-19890239Y-33367142D02*
X-18747381Y-33367142D01*
X-18747381Y-34414761D02*
X-18747381Y-32414761D01*
X-16937858Y-34414761D02*
X-16937858Y-33367142D01*
X-17033096Y-33176666D01*
X-17223572Y-33081428D01*
X-17604524Y-33081428D01*
X-17795000Y-33176666D01*
X-16937858Y-34319523D02*
X-17128334Y-34414761D01*
X-17604524Y-34414761D01*
X-17795000Y-34319523D01*
X-17890239Y-34129047D01*
X-17890239Y-33938571D01*
X-17795000Y-33748095D01*
X-17604524Y-33652857D01*
X-17128334Y-33652857D01*
X-16937858Y-33557619D01*
X-16271191Y-33081428D02*
X-15509286Y-33081428D01*
X-15985477Y-32414761D02*
X-15985477Y-34129047D01*
X-15890239Y-34319523D01*
X-15699762Y-34414761D01*
X-15509286Y-34414761D01*
D10*
X-53814286Y-43442380D02*
X-53768334Y-43390000D01*
X-53676429Y-43337619D01*
X-53446667Y-43337619D01*
X-53354762Y-43390000D01*
X-53308810Y-43442380D01*
X-53262858Y-43547142D01*
X-53262858Y-43651904D01*
X-53308810Y-43809047D01*
X-53860239Y-44437619D01*
X-53262858Y-44437619D01*
X-50965239Y-43704285D02*
X-50965239Y-44437619D01*
X-51195000Y-43285238D02*
X-51424762Y-44070952D01*
X-50827381Y-44070952D01*
X-48575715Y-43337619D02*
X-48759524Y-43337619D01*
X-48851429Y-43390000D01*
X-48897381Y-43442380D01*
X-48989286Y-43599523D01*
X-49035239Y-43809047D01*
X-49035239Y-44228095D01*
X-48989286Y-44332857D01*
X-48943334Y-44385238D01*
X-48851429Y-44437619D01*
X-48667620Y-44437619D01*
X-48575715Y-44385238D01*
X-48529762Y-44332857D01*
X-48483810Y-44228095D01*
X-48483810Y-43966190D01*
X-48529762Y-43861428D01*
X-48575715Y-43809047D01*
X-48667620Y-43756666D01*
X-48851429Y-43756666D01*
X-48943334Y-43809047D01*
X-48989286Y-43861428D01*
X-49035239Y-43966190D01*
X-46461905Y-43809047D02*
X-46553810Y-43756666D01*
X-46599762Y-43704285D01*
X-46645715Y-43599523D01*
X-46645715Y-43547142D01*
X-46599762Y-43442380D01*
X-46553810Y-43390000D01*
X-46461905Y-43337619D01*
X-46278096Y-43337619D01*
X-46186191Y-43390000D01*
X-46140239Y-43442380D01*
X-46094286Y-43547142D01*
X-46094286Y-43599523D01*
X-46140239Y-43704285D01*
X-46186191Y-43756666D01*
X-46278096Y-43809047D01*
X-46461905Y-43809047D01*
X-46553810Y-43861428D01*
X-46599762Y-43913809D01*
X-46645715Y-44018571D01*
X-46645715Y-44228095D01*
X-46599762Y-44332857D01*
X-46553810Y-44385238D01*
X-46461905Y-44437619D01*
X-46278096Y-44437619D01*
X-46186191Y-44385238D01*
X-46140239Y-44332857D01*
X-46094286Y-44228095D01*
X-46094286Y-44018571D01*
X-46140239Y-43913809D01*
X-46186191Y-43861428D01*
X-46278096Y-43809047D01*
X-43704762Y-44437619D02*
X-44256191Y-44437619D01*
X-43980477Y-44437619D02*
X-43980477Y-43337619D01*
X-44072381Y-43494761D01*
X-44164286Y-43599523D01*
X-44256191Y-43651904D01*
X-43107381Y-43337619D02*
X-43015477Y-43337619D01*
X-42923572Y-43390000D01*
X-42877620Y-43442380D01*
X-42831667Y-43547142D01*
X-42785715Y-43756666D01*
X-42785715Y-44018571D01*
X-42831667Y-44228095D01*
X-42877620Y-44332857D01*
X-42923572Y-44385238D01*
X-43015477Y-44437619D01*
X-43107381Y-44437619D01*
X-43199286Y-44385238D01*
X-43245239Y-44332857D01*
X-43291191Y-44228095D01*
X-43337143Y-44018571D01*
X-43337143Y-43756666D01*
X-43291191Y-43547142D01*
X-43245239Y-43442380D01*
X-43199286Y-43390000D01*
X-43107381Y-43337619D01*
X-41131429Y-44437619D02*
X-41682858Y-44437619D01*
X-41407143Y-44437619D02*
X-41407143Y-43337619D01*
X-41499048Y-43494761D01*
X-41590953Y-43599523D01*
X-41682858Y-43651904D01*
X-40763810Y-43442380D02*
X-40717858Y-43390000D01*
X-40625953Y-43337619D01*
X-40396191Y-43337619D01*
X-40304286Y-43390000D01*
X-40258334Y-43442380D01*
X-40212381Y-43547142D01*
X-40212381Y-43651904D01*
X-40258334Y-43809047D01*
X-40809762Y-44437619D01*
X-40212381Y-44437619D01*
X-38558096Y-44437619D02*
X-39109524Y-44437619D01*
X-38833810Y-44437619D02*
X-38833810Y-43337619D01*
X-38925715Y-43494761D01*
X-39017620Y-43599523D01*
X-39109524Y-43651904D01*
X-37730953Y-43704285D02*
X-37730953Y-44437619D01*
X-37960715Y-43285238D02*
X-38190477Y-44070952D01*
X-37593096Y-44070952D01*
X-35984762Y-44437619D02*
X-36536191Y-44437619D01*
X-36260477Y-44437619D02*
X-36260477Y-43337619D01*
X-36352381Y-43494761D01*
X-36444286Y-43599523D01*
X-36536191Y-43651904D01*
X-35157620Y-43337619D02*
X-35341429Y-43337619D01*
X-35433334Y-43390000D01*
X-35479286Y-43442380D01*
X-35571191Y-43599523D01*
X-35617143Y-43809047D01*
X-35617143Y-44228095D01*
X-35571191Y-44332857D01*
X-35525239Y-44385238D01*
X-35433334Y-44437619D01*
X-35249524Y-44437619D01*
X-35157620Y-44385238D01*
X-35111667Y-44332857D01*
X-35065715Y-44228095D01*
X-35065715Y-43966190D01*
X-35111667Y-43861428D01*
X-35157620Y-43809047D01*
X-35249524Y-43756666D01*
X-35433334Y-43756666D01*
X-35525239Y-43809047D01*
X-35571191Y-43861428D01*
X-35617143Y-43966190D01*
X-33411429Y-44437619D02*
X-33962858Y-44437619D01*
X-33687143Y-44437619D02*
X-33687143Y-43337619D01*
X-33779048Y-43494761D01*
X-33870953Y-43599523D01*
X-33962858Y-43651904D01*
X-32860000Y-43809047D02*
X-32951905Y-43756666D01*
X-32997858Y-43704285D01*
X-33043810Y-43599523D01*
X-33043810Y-43547142D01*
X-32997858Y-43442380D01*
X-32951905Y-43390000D01*
X-32860000Y-43337619D01*
X-32676191Y-43337619D01*
X-32584286Y-43390000D01*
X-32538334Y-43442380D01*
X-32492381Y-43547142D01*
X-32492381Y-43599523D01*
X-32538334Y-43704285D01*
X-32584286Y-43756666D01*
X-32676191Y-43809047D01*
X-32860000Y-43809047D01*
X-32951905Y-43861428D01*
X-32997858Y-43913809D01*
X-33043810Y-44018571D01*
X-33043810Y-44228095D01*
X-32997858Y-44332857D01*
X-32951905Y-44385238D01*
X-32860000Y-44437619D01*
X-32676191Y-44437619D01*
X-32584286Y-44385238D01*
X-32538334Y-44332857D01*
X-32492381Y-44228095D01*
X-32492381Y-44018571D01*
X-32538334Y-43913809D01*
X-32584286Y-43861428D01*
X-32676191Y-43809047D01*
X-31389524Y-43442380D02*
X-31343572Y-43390000D01*
X-31251667Y-43337619D01*
X-31021905Y-43337619D01*
X-30930000Y-43390000D01*
X-30884048Y-43442380D01*
X-30838096Y-43547142D01*
X-30838096Y-43651904D01*
X-30884048Y-43809047D01*
X-31435477Y-44437619D01*
X-30838096Y-44437619D01*
X-30240715Y-43337619D02*
X-30148810Y-43337619D01*
X-30056905Y-43390000D01*
X-30010953Y-43442380D01*
X-29965000Y-43547142D01*
X-29919048Y-43756666D01*
X-29919048Y-44018571D01*
X-29965000Y-44228095D01*
X-30010953Y-44332857D01*
X-30056905Y-44385238D01*
X-30148810Y-44437619D01*
X-30240715Y-44437619D01*
X-30332620Y-44385238D01*
X-30378572Y-44332857D01*
X-30424524Y-44228095D01*
X-30470477Y-44018571D01*
X-30470477Y-43756666D01*
X-30424524Y-43547142D01*
X-30378572Y-43442380D01*
X-30332620Y-43390000D01*
X-30240715Y-43337619D01*
X-28816191Y-43442380D02*
X-28770239Y-43390000D01*
X-28678334Y-43337619D01*
X-28448572Y-43337619D01*
X-28356667Y-43390000D01*
X-28310715Y-43442380D01*
X-28264762Y-43547142D01*
X-28264762Y-43651904D01*
X-28310715Y-43809047D01*
X-28862143Y-44437619D01*
X-28264762Y-44437619D01*
X-27897143Y-43442380D02*
X-27851191Y-43390000D01*
X-27759286Y-43337619D01*
X-27529524Y-43337619D01*
X-27437620Y-43390000D01*
X-27391667Y-43442380D01*
X-27345715Y-43547142D01*
X-27345715Y-43651904D01*
X-27391667Y-43809047D01*
X-27943096Y-44437619D01*
X-27345715Y-44437619D01*
X-26242858Y-43442380D02*
X-26196905Y-43390000D01*
X-26105000Y-43337619D01*
X-25875239Y-43337619D01*
X-25783334Y-43390000D01*
X-25737381Y-43442380D01*
X-25691429Y-43547142D01*
X-25691429Y-43651904D01*
X-25737381Y-43809047D01*
X-26288810Y-44437619D01*
X-25691429Y-44437619D01*
X-24864286Y-43704285D02*
X-24864286Y-44437619D01*
X-25094048Y-43285238D02*
X-25323810Y-44070952D01*
X-24726429Y-44070952D01*
X-23669524Y-43442380D02*
X-23623572Y-43390000D01*
X-23531667Y-43337619D01*
X-23301905Y-43337619D01*
X-23210000Y-43390000D01*
X-23164048Y-43442380D01*
X-23118096Y-43547142D01*
X-23118096Y-43651904D01*
X-23164048Y-43809047D01*
X-23715477Y-44437619D01*
X-23118096Y-44437619D01*
X-22290953Y-43337619D02*
X-22474762Y-43337619D01*
X-22566667Y-43390000D01*
X-22612620Y-43442380D01*
X-22704524Y-43599523D01*
X-22750477Y-43809047D01*
X-22750477Y-44228095D01*
X-22704524Y-44332857D01*
X-22658572Y-44385238D01*
X-22566667Y-44437619D01*
X-22382858Y-44437619D01*
X-22290953Y-44385238D01*
X-22245000Y-44332857D01*
X-22199048Y-44228095D01*
X-22199048Y-43966190D01*
X-22245000Y-43861428D01*
X-22290953Y-43809047D01*
X-22382858Y-43756666D01*
X-22566667Y-43756666D01*
X-22658572Y-43809047D01*
X-22704524Y-43861428D01*
X-22750477Y-43966190D01*
X-21096191Y-43442380D02*
X-21050239Y-43390000D01*
X-20958334Y-43337619D01*
X-20728572Y-43337619D01*
X-20636667Y-43390000D01*
X-20590715Y-43442380D01*
X-20544762Y-43547142D01*
X-20544762Y-43651904D01*
X-20590715Y-43809047D01*
X-21142143Y-44437619D01*
X-20544762Y-44437619D01*
X-19993334Y-43809047D02*
X-20085239Y-43756666D01*
X-20131191Y-43704285D01*
X-20177143Y-43599523D01*
X-20177143Y-43547142D01*
X-20131191Y-43442380D01*
X-20085239Y-43390000D01*
X-19993334Y-43337619D01*
X-19809524Y-43337619D01*
X-19717620Y-43390000D01*
X-19671667Y-43442380D01*
X-19625715Y-43547142D01*
X-19625715Y-43599523D01*
X-19671667Y-43704285D01*
X-19717620Y-43756666D01*
X-19809524Y-43809047D01*
X-19993334Y-43809047D01*
X-20085239Y-43861428D01*
X-20131191Y-43913809D01*
X-20177143Y-44018571D01*
X-20177143Y-44228095D01*
X-20131191Y-44332857D01*
X-20085239Y-44385238D01*
X-19993334Y-44437619D01*
X-19809524Y-44437619D01*
X-19717620Y-44385238D01*
X-19671667Y-44332857D01*
X-19625715Y-44228095D01*
X-19625715Y-44018571D01*
X-19671667Y-43913809D01*
X-19717620Y-43861428D01*
X-19809524Y-43809047D01*
X-18568810Y-43337619D02*
X-17971429Y-43337619D01*
X-18293096Y-43756666D01*
X-18155239Y-43756666D01*
X-18063334Y-43809047D01*
X-18017381Y-43861428D01*
X-17971429Y-43966190D01*
X-17971429Y-44228095D01*
X-18017381Y-44332857D01*
X-18063334Y-44385238D01*
X-18155239Y-44437619D01*
X-18430953Y-44437619D01*
X-18522858Y-44385238D01*
X-18568810Y-44332857D01*
X-17374048Y-43337619D02*
X-17282143Y-43337619D01*
X-17190239Y-43390000D01*
X-17144286Y-43442380D01*
X-17098334Y-43547142D01*
X-17052381Y-43756666D01*
X-17052381Y-44018571D01*
X-17098334Y-44228095D01*
X-17144286Y-44332857D01*
X-17190239Y-44385238D01*
X-17282143Y-44437619D01*
X-17374048Y-44437619D01*
X-17465953Y-44385238D01*
X-17511905Y-44332857D01*
X-17557858Y-44228095D01*
X-17603810Y-44018571D01*
X-17603810Y-43756666D01*
X-17557858Y-43547142D01*
X-17511905Y-43442380D01*
X-17465953Y-43390000D01*
X-17374048Y-43337619D01*
X-15995477Y-43337619D02*
X-15398096Y-43337619D01*
X-15719762Y-43756666D01*
X-15581905Y-43756666D01*
X-15490000Y-43809047D01*
X-15444048Y-43861428D01*
X-15398096Y-43966190D01*
X-15398096Y-44228095D01*
X-15444048Y-44332857D01*
X-15490000Y-44385238D01*
X-15581905Y-44437619D01*
X-15857620Y-44437619D01*
X-15949524Y-44385238D01*
X-15995477Y-44332857D01*
X-15030477Y-43442380D02*
X-14984524Y-43390000D01*
X-14892620Y-43337619D01*
X-14662858Y-43337619D01*
X-14570953Y-43390000D01*
X-14525000Y-43442380D01*
X-14479048Y-43547142D01*
X-14479048Y-43651904D01*
X-14525000Y-43809047D01*
X-15076429Y-44437619D01*
X-14479048Y-44437619D01*
X-13422143Y-43337619D02*
X-12824762Y-43337619D01*
X-13146429Y-43756666D01*
X-13008572Y-43756666D01*
X-12916667Y-43809047D01*
X-12870715Y-43861428D01*
X-12824762Y-43966190D01*
X-12824762Y-44228095D01*
X-12870715Y-44332857D01*
X-12916667Y-44385238D01*
X-13008572Y-44437619D01*
X-13284286Y-44437619D01*
X-13376191Y-44385238D01*
X-13422143Y-44332857D01*
X-11997620Y-43704285D02*
X-11997620Y-44437619D01*
X-12227381Y-43285238D02*
X-12457143Y-44070952D01*
X-11859762Y-44070952D01*
X-10848810Y-43337619D02*
X-10251429Y-43337619D01*
X-10573096Y-43756666D01*
X-10435239Y-43756666D01*
X-10343334Y-43809047D01*
X-10297381Y-43861428D01*
X-10251429Y-43966190D01*
X-10251429Y-44228095D01*
X-10297381Y-44332857D01*
X-10343334Y-44385238D01*
X-10435239Y-44437619D01*
X-10710953Y-44437619D01*
X-10802858Y-44385238D01*
X-10848810Y-44332857D01*
X-9424286Y-43337619D02*
X-9608096Y-43337619D01*
X-9700000Y-43390000D01*
X-9745953Y-43442380D01*
X-9837858Y-43599523D01*
X-9883810Y-43809047D01*
X-9883810Y-44228095D01*
X-9837858Y-44332857D01*
X-9791905Y-44385238D01*
X-9700000Y-44437619D01*
X-9516191Y-44437619D01*
X-9424286Y-44385238D01*
X-9378334Y-44332857D01*
X-9332381Y-44228095D01*
X-9332381Y-43966190D01*
X-9378334Y-43861428D01*
X-9424286Y-43809047D01*
X-9516191Y-43756666D01*
X-9700000Y-43756666D01*
X-9791905Y-43809047D01*
X-9837858Y-43861428D01*
X-9883810Y-43966190D01*
X-8275477Y-43337619D02*
X-7678096Y-43337619D01*
X-7999762Y-43756666D01*
X-7861905Y-43756666D01*
X-7770000Y-43809047D01*
X-7724048Y-43861428D01*
X-7678096Y-43966190D01*
X-7678096Y-44228095D01*
X-7724048Y-44332857D01*
X-7770000Y-44385238D01*
X-7861905Y-44437619D01*
X-8137620Y-44437619D01*
X-8229524Y-44385238D01*
X-8275477Y-44332857D01*
X-7126667Y-43809047D02*
X-7218572Y-43756666D01*
X-7264524Y-43704285D01*
X-7310477Y-43599523D01*
X-7310477Y-43547142D01*
X-7264524Y-43442380D01*
X-7218572Y-43390000D01*
X-7126667Y-43337619D01*
X-6942858Y-43337619D01*
X-6850953Y-43390000D01*
X-6805000Y-43442380D01*
X-6759048Y-43547142D01*
X-6759048Y-43599523D01*
X-6805000Y-43704285D01*
X-6850953Y-43756666D01*
X-6942858Y-43809047D01*
X-7126667Y-43809047D01*
X-7218572Y-43861428D01*
X-7264524Y-43913809D01*
X-7310477Y-44018571D01*
X-7310477Y-44228095D01*
X-7264524Y-44332857D01*
X-7218572Y-44385238D01*
X-7126667Y-44437619D01*
X-6942858Y-44437619D01*
X-6850953Y-44385238D01*
X-6805000Y-44332857D01*
X-6759048Y-44228095D01*
X-6759048Y-44018571D01*
X-6805000Y-43913809D01*
X-6850953Y-43861428D01*
X-6942858Y-43809047D01*
X-5196667Y-43704285D02*
X-5196667Y-44437619D01*
X-5426429Y-43285238D02*
X-5656191Y-44070952D01*
X-5058810Y-44070952D01*
X-4507381Y-43337619D02*
X-4415477Y-43337619D01*
X-4323572Y-43390000D01*
X-4277620Y-43442380D01*
X-4231667Y-43547142D01*
X-4185715Y-43756666D01*
X-4185715Y-44018571D01*
X-4231667Y-44228095D01*
X-4277620Y-44332857D01*
X-4323572Y-44385238D01*
X-4415477Y-44437619D01*
X-4507381Y-44437619D01*
X-4599286Y-44385238D01*
X-4645239Y-44332857D01*
X-4691191Y-44228095D01*
X-4737143Y-44018571D01*
X-4737143Y-43756666D01*
X-4691191Y-43547142D01*
X-4645239Y-43442380D01*
X-4599286Y-43390000D01*
X-4507381Y-43337619D01*
X-53170953Y-46237619D02*
X-53722381Y-46237619D01*
X-53446667Y-46237619D02*
X-53446667Y-45137619D01*
X-53538572Y-45294761D01*
X-53630477Y-45399523D01*
X-53722381Y-45451904D01*
X-51378810Y-45137619D02*
X-50781429Y-45137619D01*
X-51103096Y-45556666D01*
X-50965239Y-45556666D01*
X-50873334Y-45609047D01*
X-50827381Y-45661428D01*
X-50781429Y-45766190D01*
X-50781429Y-46028095D01*
X-50827381Y-46132857D01*
X-50873334Y-46185238D01*
X-50965239Y-46237619D01*
X-51240953Y-46237619D01*
X-51332858Y-46185238D01*
X-51378810Y-46132857D01*
X-48437858Y-45137619D02*
X-48897381Y-45137619D01*
X-48943334Y-45661428D01*
X-48897381Y-45609047D01*
X-48805477Y-45556666D01*
X-48575715Y-45556666D01*
X-48483810Y-45609047D01*
X-48437858Y-45661428D01*
X-48391905Y-45766190D01*
X-48391905Y-46028095D01*
X-48437858Y-46132857D01*
X-48483810Y-46185238D01*
X-48575715Y-46237619D01*
X-48805477Y-46237619D01*
X-48897381Y-46185238D01*
X-48943334Y-46132857D01*
X-46599762Y-45137619D02*
X-45956429Y-45137619D01*
X-46370000Y-46237619D01*
X-44072381Y-46237619D02*
X-43888572Y-46237619D01*
X-43796667Y-46185238D01*
X-43750715Y-46132857D01*
X-43658810Y-45975714D01*
X-43612858Y-45766190D01*
X-43612858Y-45347142D01*
X-43658810Y-45242380D01*
X-43704762Y-45190000D01*
X-43796667Y-45137619D01*
X-43980477Y-45137619D01*
X-44072381Y-45190000D01*
X-44118334Y-45242380D01*
X-44164286Y-45347142D01*
X-44164286Y-45609047D01*
X-44118334Y-45713809D01*
X-44072381Y-45766190D01*
X-43980477Y-45818571D01*
X-43796667Y-45818571D01*
X-43704762Y-45766190D01*
X-43658810Y-45713809D01*
X-43612858Y-45609047D01*
X-41223334Y-46237619D02*
X-41774762Y-46237619D01*
X-41499048Y-46237619D02*
X-41499048Y-45137619D01*
X-41590953Y-45294761D01*
X-41682858Y-45399523D01*
X-41774762Y-45451904D01*
X-40304286Y-46237619D02*
X-40855715Y-46237619D01*
X-40580000Y-46237619D02*
X-40580000Y-45137619D01*
X-40671905Y-45294761D01*
X-40763810Y-45399523D01*
X-40855715Y-45451904D01*
X-38650000Y-46237619D02*
X-39201429Y-46237619D01*
X-38925715Y-46237619D02*
X-38925715Y-45137619D01*
X-39017620Y-45294761D01*
X-39109524Y-45399523D01*
X-39201429Y-45451904D01*
X-38328334Y-45137619D02*
X-37730953Y-45137619D01*
X-38052620Y-45556666D01*
X-37914762Y-45556666D01*
X-37822858Y-45609047D01*
X-37776905Y-45661428D01*
X-37730953Y-45766190D01*
X-37730953Y-46028095D01*
X-37776905Y-46132857D01*
X-37822858Y-46185238D01*
X-37914762Y-46237619D01*
X-38190477Y-46237619D01*
X-38282381Y-46185238D01*
X-38328334Y-46132857D01*
X-36076667Y-46237619D02*
X-36628096Y-46237619D01*
X-36352381Y-46237619D02*
X-36352381Y-45137619D01*
X-36444286Y-45294761D01*
X-36536191Y-45399523D01*
X-36628096Y-45451904D01*
X-35203572Y-45137619D02*
X-35663096Y-45137619D01*
X-35709048Y-45661428D01*
X-35663096Y-45609047D01*
X-35571191Y-45556666D01*
X-35341429Y-45556666D01*
X-35249524Y-45609047D01*
X-35203572Y-45661428D01*
X-35157620Y-45766190D01*
X-35157620Y-46028095D01*
X-35203572Y-46132857D01*
X-35249524Y-46185238D01*
X-35341429Y-46237619D01*
X-35571191Y-46237619D01*
X-35663096Y-46185238D01*
X-35709048Y-46132857D01*
X-33503334Y-46237619D02*
X-34054762Y-46237619D01*
X-33779048Y-46237619D02*
X-33779048Y-45137619D01*
X-33870953Y-45294761D01*
X-33962858Y-45399523D01*
X-34054762Y-45451904D01*
X-33181667Y-45137619D02*
X-32538334Y-45137619D01*
X-32951905Y-46237619D01*
X-30930000Y-46237619D02*
X-31481429Y-46237619D01*
X-31205715Y-46237619D02*
X-31205715Y-45137619D01*
X-31297620Y-45294761D01*
X-31389524Y-45399523D01*
X-31481429Y-45451904D01*
X-30470477Y-46237619D02*
X-30286667Y-46237619D01*
X-30194762Y-46185238D01*
X-30148810Y-46132857D01*
X-30056905Y-45975714D01*
X-30010953Y-45766190D01*
X-30010953Y-45347142D01*
X-30056905Y-45242380D01*
X-30102858Y-45190000D01*
X-30194762Y-45137619D01*
X-30378572Y-45137619D01*
X-30470477Y-45190000D01*
X-30516429Y-45242380D01*
X-30562381Y-45347142D01*
X-30562381Y-45609047D01*
X-30516429Y-45713809D01*
X-30470477Y-45766190D01*
X-30378572Y-45818571D01*
X-30194762Y-45818571D01*
X-30102858Y-45766190D01*
X-30056905Y-45713809D01*
X-30010953Y-45609047D01*
X-28908096Y-45242380D02*
X-28862143Y-45190000D01*
X-28770239Y-45137619D01*
X-28540477Y-45137619D01*
X-28448572Y-45190000D01*
X-28402620Y-45242380D01*
X-28356667Y-45347142D01*
X-28356667Y-45451904D01*
X-28402620Y-45609047D01*
X-28954048Y-46237619D01*
X-28356667Y-46237619D01*
X-27437620Y-46237619D02*
X-27989048Y-46237619D01*
X-27713334Y-46237619D02*
X-27713334Y-45137619D01*
X-27805239Y-45294761D01*
X-27897143Y-45399523D01*
X-27989048Y-45451904D01*
X-26334762Y-45242380D02*
X-26288810Y-45190000D01*
X-26196905Y-45137619D01*
X-25967143Y-45137619D01*
X-25875239Y-45190000D01*
X-25829286Y-45242380D01*
X-25783334Y-45347142D01*
X-25783334Y-45451904D01*
X-25829286Y-45609047D01*
X-26380715Y-46237619D01*
X-25783334Y-46237619D01*
X-25461667Y-45137619D02*
X-24864286Y-45137619D01*
X-25185953Y-45556666D01*
X-25048096Y-45556666D01*
X-24956191Y-45609047D01*
X-24910239Y-45661428D01*
X-24864286Y-45766190D01*
X-24864286Y-46028095D01*
X-24910239Y-46132857D01*
X-24956191Y-46185238D01*
X-25048096Y-46237619D01*
X-25323810Y-46237619D01*
X-25415715Y-46185238D01*
X-25461667Y-46132857D01*
X-23761429Y-45242380D02*
X-23715477Y-45190000D01*
X-23623572Y-45137619D01*
X-23393810Y-45137619D01*
X-23301905Y-45190000D01*
X-23255953Y-45242380D01*
X-23210000Y-45347142D01*
X-23210000Y-45451904D01*
X-23255953Y-45609047D01*
X-23807381Y-46237619D01*
X-23210000Y-46237619D01*
X-22336905Y-45137619D02*
X-22796429Y-45137619D01*
X-22842381Y-45661428D01*
X-22796429Y-45609047D01*
X-22704524Y-45556666D01*
X-22474762Y-45556666D01*
X-22382858Y-45609047D01*
X-22336905Y-45661428D01*
X-22290953Y-45766190D01*
X-22290953Y-46028095D01*
X-22336905Y-46132857D01*
X-22382858Y-46185238D01*
X-22474762Y-46237619D01*
X-22704524Y-46237619D01*
X-22796429Y-46185238D01*
X-22842381Y-46132857D01*
X-21188096Y-45242380D02*
X-21142143Y-45190000D01*
X-21050239Y-45137619D01*
X-20820477Y-45137619D01*
X-20728572Y-45190000D01*
X-20682620Y-45242380D01*
X-20636667Y-45347142D01*
X-20636667Y-45451904D01*
X-20682620Y-45609047D01*
X-21234048Y-46237619D01*
X-20636667Y-46237619D01*
X-20315000Y-45137619D02*
X-19671667Y-45137619D01*
X-20085239Y-46237619D01*
X-18614762Y-45242380D02*
X-18568810Y-45190000D01*
X-18476905Y-45137619D01*
X-18247143Y-45137619D01*
X-18155239Y-45190000D01*
X-18109286Y-45242380D01*
X-18063334Y-45347142D01*
X-18063334Y-45451904D01*
X-18109286Y-45609047D01*
X-18660715Y-46237619D01*
X-18063334Y-46237619D01*
X-17603810Y-46237619D02*
X-17420000Y-46237619D01*
X-17328096Y-46185238D01*
X-17282143Y-46132857D01*
X-17190239Y-45975714D01*
X-17144286Y-45766190D01*
X-17144286Y-45347142D01*
X-17190239Y-45242380D01*
X-17236191Y-45190000D01*
X-17328096Y-45137619D01*
X-17511905Y-45137619D01*
X-17603810Y-45190000D01*
X-17649762Y-45242380D01*
X-17695715Y-45347142D01*
X-17695715Y-45609047D01*
X-17649762Y-45713809D01*
X-17603810Y-45766190D01*
X-17511905Y-45818571D01*
X-17328096Y-45818571D01*
X-17236191Y-45766190D01*
X-17190239Y-45713809D01*
X-17144286Y-45609047D01*
X-16087381Y-45137619D02*
X-15490000Y-45137619D01*
X-15811667Y-45556666D01*
X-15673810Y-45556666D01*
X-15581905Y-45609047D01*
X-15535953Y-45661428D01*
X-15490000Y-45766190D01*
X-15490000Y-46028095D01*
X-15535953Y-46132857D01*
X-15581905Y-46185238D01*
X-15673810Y-46237619D01*
X-15949524Y-46237619D01*
X-16041429Y-46185238D01*
X-16087381Y-46132857D01*
X-14570953Y-46237619D02*
X-15122381Y-46237619D01*
X-14846667Y-46237619D02*
X-14846667Y-45137619D01*
X-14938572Y-45294761D01*
X-15030477Y-45399523D01*
X-15122381Y-45451904D01*
X-13514048Y-45137619D02*
X-12916667Y-45137619D01*
X-13238334Y-45556666D01*
X-13100477Y-45556666D01*
X-13008572Y-45609047D01*
X-12962620Y-45661428D01*
X-12916667Y-45766190D01*
X-12916667Y-46028095D01*
X-12962620Y-46132857D01*
X-13008572Y-46185238D01*
X-13100477Y-46237619D01*
X-13376191Y-46237619D01*
X-13468096Y-46185238D01*
X-13514048Y-46132857D01*
X-12595000Y-45137619D02*
X-11997620Y-45137619D01*
X-12319286Y-45556666D01*
X-12181429Y-45556666D01*
X-12089524Y-45609047D01*
X-12043572Y-45661428D01*
X-11997620Y-45766190D01*
X-11997620Y-46028095D01*
X-12043572Y-46132857D01*
X-12089524Y-46185238D01*
X-12181429Y-46237619D01*
X-12457143Y-46237619D01*
X-12549048Y-46185238D01*
X-12595000Y-46132857D01*
X-10940715Y-45137619D02*
X-10343334Y-45137619D01*
X-10665000Y-45556666D01*
X-10527143Y-45556666D01*
X-10435239Y-45609047D01*
X-10389286Y-45661428D01*
X-10343334Y-45766190D01*
X-10343334Y-46028095D01*
X-10389286Y-46132857D01*
X-10435239Y-46185238D01*
X-10527143Y-46237619D01*
X-10802858Y-46237619D01*
X-10894762Y-46185238D01*
X-10940715Y-46132857D01*
X-9470239Y-45137619D02*
X-9929762Y-45137619D01*
X-9975715Y-45661428D01*
X-9929762Y-45609047D01*
X-9837858Y-45556666D01*
X-9608096Y-45556666D01*
X-9516191Y-45609047D01*
X-9470239Y-45661428D01*
X-9424286Y-45766190D01*
X-9424286Y-46028095D01*
X-9470239Y-46132857D01*
X-9516191Y-46185238D01*
X-9608096Y-46237619D01*
X-9837858Y-46237619D01*
X-9929762Y-46185238D01*
X-9975715Y-46132857D01*
X-8367381Y-45137619D02*
X-7770000Y-45137619D01*
X-8091667Y-45556666D01*
X-7953810Y-45556666D01*
X-7861905Y-45609047D01*
X-7815953Y-45661428D01*
X-7770000Y-45766190D01*
X-7770000Y-46028095D01*
X-7815953Y-46132857D01*
X-7861905Y-46185238D01*
X-7953810Y-46237619D01*
X-8229524Y-46237619D01*
X-8321429Y-46185238D01*
X-8367381Y-46132857D01*
X-7448334Y-45137619D02*
X-6805000Y-45137619D01*
X-7218572Y-46237619D01*
X-5794048Y-45137619D02*
X-5196667Y-45137619D01*
X-5518334Y-45556666D01*
X-5380477Y-45556666D01*
X-5288572Y-45609047D01*
X-5242620Y-45661428D01*
X-5196667Y-45766190D01*
X-5196667Y-46028095D01*
X-5242620Y-46132857D01*
X-5288572Y-46185238D01*
X-5380477Y-46237619D01*
X-5656191Y-46237619D01*
X-5748096Y-46185238D01*
X-5794048Y-46132857D01*
X-4737143Y-46237619D02*
X-4553334Y-46237619D01*
X-4461429Y-46185238D01*
X-4415477Y-46132857D01*
X-4323572Y-45975714D01*
X-4277620Y-45766190D01*
X-4277620Y-45347142D01*
X-4323572Y-45242380D01*
X-4369524Y-45190000D01*
X-4461429Y-45137619D01*
X-4645239Y-45137619D01*
X-4737143Y-45190000D01*
X-4783096Y-45242380D01*
X-4829048Y-45347142D01*
X-4829048Y-45609047D01*
X-4783096Y-45713809D01*
X-4737143Y-45766190D01*
X-4645239Y-45818571D01*
X-4461429Y-45818571D01*
X-4369524Y-45766190D01*
X-4323572Y-45713809D01*
X-4277620Y-45609047D01*
X-50961429Y-29672857D02*
X-49818572Y-29672857D01*
X-50675715Y-31584761D02*
X-51390000Y-31584761D01*
X-51461429Y-32537142D01*
X-51390000Y-32441904D01*
X-51247143Y-32346666D01*
X-50890000Y-32346666D01*
X-50747143Y-32441904D01*
X-50675715Y-32537142D01*
X-50604286Y-32727619D01*
X-50604286Y-33203809D01*
X-50675715Y-33394285D01*
X-50747143Y-33489523D01*
X-50890000Y-33584761D01*
X-51247143Y-33584761D01*
X-51390000Y-33489523D01*
X-51461429Y-33394285D01*
X-50175715Y-31584761D02*
X-49675715Y-33584761D01*
X-49175715Y-31584761D01*
X-50961429Y-35972857D02*
X-49818572Y-35972857D01*
X-50390000Y-36734761D02*
X-50390000Y-35210952D01*
X-58782381Y-9822023D02*
X-59306191Y-10188690D01*
X-58782381Y-10450595D02*
X-59882381Y-10450595D01*
X-59882381Y-10031547D01*
X-59830000Y-9926785D01*
X-59777620Y-9874404D01*
X-59672858Y-9822023D01*
X-59515715Y-9822023D01*
X-59410953Y-9874404D01*
X-59358572Y-9926785D01*
X-59306191Y-10031547D01*
X-59306191Y-10450595D01*
X-58782381Y-9350595D02*
X-59882381Y-9350595D01*
X-59882381Y-8931547D01*
X-59830000Y-8826785D01*
X-59777620Y-8774404D01*
X-59672858Y-8722023D01*
X-59515715Y-8722023D01*
X-59410953Y-8774404D01*
X-59358572Y-8826785D01*
X-59306191Y-8931547D01*
X-59306191Y-9350595D01*
X-58782381Y-8250595D02*
X-59882381Y-8250595D01*
X-59830000Y-6312500D02*
X-59882381Y-6417261D01*
X-59882381Y-6574404D01*
X-59830000Y-6731547D01*
X-59725239Y-6836309D01*
X-59620477Y-6888690D01*
X-59410953Y-6941071D01*
X-59253810Y-6941071D01*
X-59044286Y-6888690D01*
X-58939524Y-6836309D01*
X-58834762Y-6731547D01*
X-58782381Y-6574404D01*
X-58782381Y-6469642D01*
X-58834762Y-6312500D01*
X-58887143Y-6260119D01*
X-59253810Y-6260119D01*
X-59253810Y-6469642D01*
X-58782381Y-5788690D02*
X-59882381Y-5788690D01*
X-59882381Y-5369642D01*
X-59830000Y-5264880D01*
X-59777620Y-5212500D01*
X-59672858Y-5160119D01*
X-59515715Y-5160119D01*
X-59410953Y-5212500D01*
X-59358572Y-5264880D01*
X-59306191Y-5369642D01*
X-59306191Y-5788690D01*
X-58782381Y-4688690D02*
X-59882381Y-4688690D01*
X-59882381Y-3955357D02*
X-59882381Y-3745833D01*
X-59830000Y-3641071D01*
X-59725239Y-3536309D01*
X-59515715Y-3483928D01*
X-59149048Y-3483928D01*
X-58939524Y-3536309D01*
X-58834762Y-3641071D01*
X-58782381Y-3745833D01*
X-58782381Y-3955357D01*
X-58834762Y-4060119D01*
X-58939524Y-4164880D01*
X-59149048Y-4217261D01*
X-59515715Y-4217261D01*
X-59725239Y-4164880D01*
X-59830000Y-4060119D01*
X-59882381Y-3955357D01*
X-57558572Y-10450595D02*
X-57558572Y-10083928D01*
X-56982381Y-9926785D02*
X-56982381Y-10450595D01*
X-58082381Y-10450595D01*
X-58082381Y-9926785D01*
X-56982381Y-9560119D02*
X-57715715Y-8983928D01*
X-57715715Y-9560119D02*
X-56982381Y-8983928D01*
X-57715715Y-8722023D02*
X-57715715Y-8302976D01*
X-58082381Y-8564880D02*
X-57139524Y-8564880D01*
X-57034762Y-8512500D01*
X-56982381Y-8407738D01*
X-56982381Y-8302976D01*
X-57034762Y-7517261D02*
X-56982381Y-7622023D01*
X-56982381Y-7831547D01*
X-57034762Y-7936309D01*
X-57139524Y-7988690D01*
X-57558572Y-7988690D01*
X-57663334Y-7936309D01*
X-57715715Y-7831547D01*
X-57715715Y-7622023D01*
X-57663334Y-7517261D01*
X-57558572Y-7464880D01*
X-57453810Y-7464880D01*
X-57349048Y-7988690D01*
X-57715715Y-6993452D02*
X-56982381Y-6993452D01*
X-57610953Y-6993452D02*
X-57663334Y-6941071D01*
X-57715715Y-6836309D01*
X-57715715Y-6679166D01*
X-57663334Y-6574404D01*
X-57558572Y-6522023D01*
X-56982381Y-6522023D01*
X-57034762Y-6050595D02*
X-56982381Y-5945833D01*
X-56982381Y-5736309D01*
X-57034762Y-5631547D01*
X-57139524Y-5579166D01*
X-57191905Y-5579166D01*
X-57296667Y-5631547D01*
X-57349048Y-5736309D01*
X-57349048Y-5893452D01*
X-57401429Y-5998214D01*
X-57506191Y-6050595D01*
X-57558572Y-6050595D01*
X-57663334Y-5998214D01*
X-57715715Y-5893452D01*
X-57715715Y-5736309D01*
X-57663334Y-5631547D01*
X-56982381Y-5107738D02*
X-57715715Y-5107738D01*
X-58082381Y-5107738D02*
X-58030000Y-5160119D01*
X-57977620Y-5107738D01*
X-58030000Y-5055357D01*
X-58082381Y-5107738D01*
X-57977620Y-5107738D01*
X-56982381Y-4426785D02*
X-57034762Y-4531547D01*
X-57087143Y-4583928D01*
X-57191905Y-4636309D01*
X-57506191Y-4636309D01*
X-57610953Y-4583928D01*
X-57663334Y-4531547D01*
X-57715715Y-4426785D01*
X-57715715Y-4269642D01*
X-57663334Y-4164880D01*
X-57610953Y-4112500D01*
X-57506191Y-4060119D01*
X-57191905Y-4060119D01*
X-57087143Y-4112500D01*
X-57034762Y-4164880D01*
X-56982381Y-4269642D01*
X-56982381Y-4426785D01*
X-57715715Y-3588690D02*
X-56982381Y-3588690D01*
X-57610953Y-3588690D02*
X-57663334Y-3536309D01*
X-57715715Y-3431547D01*
X-57715715Y-3274404D01*
X-57663334Y-3169642D01*
X-57558572Y-3117261D01*
X-56982381Y-3117261D01*
D11*
G04 #@! TO.C,U4*
X-9300000Y-26800000D02*
X-9600000Y-26800000D01*
X-9300000Y-26500000D02*
X-9300000Y-26800000D01*
X-9300000Y-19800000D02*
X-9600000Y-19800000D01*
X-9300000Y-20100000D02*
X-9300000Y-19800000D01*
X-14100000Y-26800000D02*
X-13800000Y-26800000D01*
X-14100000Y-26800000D02*
X-14100000Y-26500000D01*
X-13900000Y-20100000D02*
X-14500000Y-20100000D01*
X-13600000Y-19800000D02*
X-13900000Y-20100000D01*
X-13300000Y-19800000D02*
X-13600000Y-19800000D01*
G04 #@! TO.C,U3*
X-20300000Y-26800000D02*
X-20600000Y-26800000D01*
X-20300000Y-26500000D02*
X-20300000Y-26800000D01*
X-20300000Y-19800000D02*
X-20600000Y-19800000D01*
X-20300000Y-20100000D02*
X-20300000Y-19800000D01*
X-25100000Y-26800000D02*
X-24800000Y-26800000D01*
X-25100000Y-26800000D02*
X-25100000Y-26500000D01*
X-24900000Y-20100000D02*
X-25500000Y-20100000D01*
X-24600000Y-19800000D02*
X-24900000Y-20100000D01*
X-24300000Y-19800000D02*
X-24600000Y-19800000D01*
G04 #@! TO.C,U2*
X-30800000Y-26800000D02*
X-31100000Y-26800000D01*
X-30800000Y-26500000D02*
X-30800000Y-26800000D01*
X-30800000Y-19800000D02*
X-31100000Y-19800000D01*
X-30800000Y-20100000D02*
X-30800000Y-19800000D01*
X-35600000Y-26800000D02*
X-35300000Y-26800000D01*
X-35600000Y-26800000D02*
X-35600000Y-26500000D01*
X-35400000Y-20100000D02*
X-36000000Y-20100000D01*
X-35100000Y-19800000D02*
X-35400000Y-20100000D01*
X-34800000Y-19800000D02*
X-35100000Y-19800000D01*
G04 #@! TO.C,U1*
X-41800000Y-26800000D02*
X-42100000Y-26800000D01*
X-41800000Y-26500000D02*
X-41800000Y-26800000D01*
X-41800000Y-19800000D02*
X-42100000Y-19800000D01*
X-41800000Y-20100000D02*
X-41800000Y-19800000D01*
X-46600000Y-26800000D02*
X-46300000Y-26800000D01*
X-46600000Y-26800000D02*
X-46600000Y-26500000D01*
X-46400000Y-20100000D02*
X-47000000Y-20100000D01*
X-46100000Y-19800000D02*
X-46400000Y-20100000D01*
X-45800000Y-19800000D02*
X-46100000Y-19800000D01*
D12*
G04 #@! TO.C,R2*
X-160000Y-42288748D02*
X-160000Y-42811252D01*
X1260000Y-42288748D02*
X1260000Y-42811252D01*
G04 #@! TO.C,C2*
X-2410000Y-35988748D02*
X-2410000Y-36511252D01*
X-990000Y-35988748D02*
X-990000Y-36511252D01*
G04 #@! TO.C,R3*
X-990000Y-42288748D02*
X-990000Y-42811252D01*
X-2410000Y-42288748D02*
X-2410000Y-42811252D01*
G04 #@! TO.C,D3*
X-280000Y-30150000D02*
X320000Y-30150000D01*
X-260000Y-28550000D02*
X340000Y-28550000D01*
G04 #@! TO.C,D1*
X-11790000Y-30500000D02*
X-11790000Y-32500000D01*
X-11790000Y-32500000D02*
X-7940000Y-32500000D01*
X-11790000Y-30500000D02*
X-7940000Y-30500000D01*
G04 #@! TO.C,D2*
X-11790000Y-33350000D02*
X-11790000Y-35350000D01*
X-11790000Y-35350000D02*
X-7940000Y-35350000D01*
X-11790000Y-33350000D02*
X-7940000Y-33350000D01*
G04 #@! TO.C,R1*
X1260000Y-35988748D02*
X1260000Y-36511252D01*
X-160000Y-35988748D02*
X-160000Y-36511252D01*
G04 #@! TO.C,D4*
X-280000Y-32525000D02*
X320000Y-32525000D01*
X-260000Y-30925000D02*
X340000Y-30925000D01*
G04 #@! TO.C,J4*
X-54530000Y-10630000D02*
X-54530000Y-9300000D01*
X-53200000Y-10630000D02*
X-54530000Y-10630000D01*
X-54530000Y-8030000D02*
X-54530000Y-5430000D01*
X-51930000Y-8030000D02*
X-54530000Y-8030000D01*
X-51930000Y-10630000D02*
X-51930000Y-8030000D01*
X-54530000Y-5430000D02*
X-3610000Y-5430000D01*
X-51930000Y-10630000D02*
X-3610000Y-10630000D01*
X-3610000Y-10630000D02*
X-3610000Y-5430000D01*
G04 #@! TO.C,J5*
X-54530000Y-52140000D02*
X-54530000Y-50810000D01*
X-53200000Y-52140000D02*
X-54530000Y-52140000D01*
X-54530000Y-49540000D02*
X-54530000Y-46940000D01*
X-51930000Y-49540000D02*
X-54530000Y-49540000D01*
X-51930000Y-52140000D02*
X-51930000Y-49540000D01*
X-54530000Y-46940000D02*
X-3610000Y-46940000D01*
X-51930000Y-52140000D02*
X-3610000Y-52140000D01*
X-3610000Y-52140000D02*
X-3610000Y-46940000D01*
G04 #@! TO.C,J3*
X-52310000Y-38270000D02*
X-52310000Y-37670000D01*
X-53150000Y-38270000D02*
X-52310000Y-38270000D01*
X-60710000Y-29220000D02*
X-59710000Y-29220000D01*
X-60710000Y-31720000D02*
X-59710000Y-31720000D01*
X-59710000Y-31720000D02*
X-59710000Y-29220000D01*
X-60710000Y-31720000D02*
X-60710000Y-29220000D01*
X-55837000Y-31498000D02*
X-55591000Y-31744000D01*
X-57935000Y-29400000D02*
X-57724000Y-29611000D01*
X-55585000Y-31340000D02*
X-55386000Y-31539000D01*
X-57729000Y-29195000D02*
X-57483000Y-29441000D01*
X-60710000Y-34220000D02*
X-59710000Y-34220000D01*
X-60710000Y-36720000D02*
X-59710000Y-36720000D01*
X-59710000Y-36720000D02*
X-59710000Y-34220000D01*
X-60710000Y-36720000D02*
X-60710000Y-34220000D01*
X-60770000Y-27910000D02*
X-52550000Y-27910000D01*
X-60770000Y-38030000D02*
X-52550000Y-38030000D01*
X-52550000Y-38030000D02*
X-52550000Y-27910000D01*
X-60770000Y-38030000D02*
X-60770000Y-27910000D01*
X-58710000Y-38030000D02*
X-58710000Y-27910000D01*
X-53810000Y-38030000D02*
X-53810000Y-27910000D01*
X-53210000Y-38030000D02*
X-53210000Y-27910000D01*
X-54980000Y-30470000D02*
G75*
G03*
X-54980000Y-30470000I-1680000J0D01*
G01*
X-54979489Y-35441493D02*
G75*
G02*
X-55373000Y-36551000I-1680511J-28507D01*
G01*
X-55580266Y-36758063D02*
G75*
G02*
X-57741000Y-36757000I-1079734J1288063D01*
G01*
X-57947078Y-36549908D02*
G75*
G02*
X-57947000Y-34390000I1287078J1079908D01*
G01*
X-57739908Y-34182922D02*
G75*
G02*
X-55580000Y-34183000I1079908J-1287078D01*
G01*
X-55373045Y-34390117D02*
G75*
G02*
X-54980000Y-35470000I-1286955J-1079883D01*
G01*
G04 #@! TO.C,C1*
X-9688748Y-28090000D02*
X-10211252Y-28090000D01*
X-9688748Y-29510000D02*
X-10211252Y-29510000D01*
G04 #@! TO.C,J2*
D10*
X-1173334Y-15002380D02*
X-1173334Y-15716666D01*
X-1220953Y-15859523D01*
X-1316191Y-15954761D01*
X-1459048Y-16002380D01*
X-1554286Y-16002380D01*
X-744762Y-15097619D02*
X-697143Y-15050000D01*
X-601905Y-15002380D01*
X-363810Y-15002380D01*
X-268572Y-15050000D01*
X-220953Y-15097619D01*
X-173334Y-15192857D01*
X-173334Y-15288095D01*
X-220953Y-15430952D01*
X-792381Y-16002380D01*
X-173334Y-16002380D01*
G04 #@! TO.C,U4*
X-7247620Y-21561904D02*
X-6438096Y-21561904D01*
X-6342858Y-21514285D01*
X-6295239Y-21466666D01*
X-6247620Y-21371428D01*
X-6247620Y-21180952D01*
X-6295239Y-21085714D01*
X-6342858Y-21038095D01*
X-6438096Y-20990476D01*
X-7247620Y-20990476D01*
X-6914286Y-20085714D02*
X-6247620Y-20085714D01*
X-7295239Y-20323809D02*
X-6580953Y-20561904D01*
X-6580953Y-19942857D01*
G04 #@! TO.C,U3*
X-18457620Y-21561904D02*
X-17648096Y-21561904D01*
X-17552858Y-21514285D01*
X-17505239Y-21466666D01*
X-17457620Y-21371428D01*
X-17457620Y-21180952D01*
X-17505239Y-21085714D01*
X-17552858Y-21038095D01*
X-17648096Y-20990476D01*
X-18457620Y-20990476D01*
X-18457620Y-20609523D02*
X-18457620Y-19990476D01*
X-18076667Y-20323809D01*
X-18076667Y-20180952D01*
X-18029048Y-20085714D01*
X-17981429Y-20038095D01*
X-17886191Y-19990476D01*
X-17648096Y-19990476D01*
X-17552858Y-20038095D01*
X-17505239Y-20085714D01*
X-17457620Y-20180952D01*
X-17457620Y-20466666D01*
X-17505239Y-20561904D01*
X-17552858Y-20609523D01*
G04 #@! TO.C,U2*
X-28957620Y-21561904D02*
X-28148096Y-21561904D01*
X-28052858Y-21514285D01*
X-28005239Y-21466666D01*
X-27957620Y-21371428D01*
X-27957620Y-21180952D01*
X-28005239Y-21085714D01*
X-28052858Y-21038095D01*
X-28148096Y-20990476D01*
X-28957620Y-20990476D01*
X-28862381Y-20561904D02*
X-28910000Y-20514285D01*
X-28957620Y-20419047D01*
X-28957620Y-20180952D01*
X-28910000Y-20085714D01*
X-28862381Y-20038095D01*
X-28767143Y-19990476D01*
X-28671905Y-19990476D01*
X-28529048Y-20038095D01*
X-27957620Y-20609523D01*
X-27957620Y-19990476D01*
G04 #@! TO.C,U1*
X-39747620Y-21061904D02*
X-38938096Y-21061904D01*
X-38842858Y-21014285D01*
X-38795239Y-20966666D01*
X-38747620Y-20871428D01*
X-38747620Y-20680952D01*
X-38795239Y-20585714D01*
X-38842858Y-20538095D01*
X-38938096Y-20490476D01*
X-39747620Y-20490476D01*
X-38747620Y-19490476D02*
X-38747620Y-20061904D01*
X-38747620Y-19776190D02*
X-39747620Y-19776190D01*
X-39604762Y-19871428D01*
X-39509524Y-19966666D01*
X-39461905Y-20061904D01*
G04 #@! TO.C,R2*
X383333Y-46002380D02*
X50000Y-45526190D01*
X-188096Y-46002380D02*
X-188096Y-45002380D01*
X192857Y-45002380D01*
X288095Y-45050000D01*
X335714Y-45097619D01*
X383333Y-45192857D01*
X383333Y-45335714D01*
X335714Y-45430952D01*
X288095Y-45478571D01*
X192857Y-45526190D01*
X-188096Y-45526190D01*
X764285Y-45097619D02*
X811904Y-45050000D01*
X907142Y-45002380D01*
X1145238Y-45002380D01*
X1240476Y-45050000D01*
X1288095Y-45097619D01*
X1335714Y-45192857D01*
X1335714Y-45288095D01*
X1288095Y-45430952D01*
X716666Y-46002380D01*
X1335714Y-46002380D01*
G04 #@! TO.C,C2*
X-1866667Y-39657142D02*
X-1914286Y-39704761D01*
X-2057143Y-39752380D01*
X-2152381Y-39752380D01*
X-2295239Y-39704761D01*
X-2390477Y-39609523D01*
X-2438096Y-39514285D01*
X-2485715Y-39323809D01*
X-2485715Y-39180952D01*
X-2438096Y-38990476D01*
X-2390477Y-38895238D01*
X-2295239Y-38800000D01*
X-2152381Y-38752380D01*
X-2057143Y-38752380D01*
X-1914286Y-38800000D01*
X-1866667Y-38847619D01*
X-1485715Y-38847619D02*
X-1438096Y-38800000D01*
X-1342858Y-38752380D01*
X-1104762Y-38752380D01*
X-1009524Y-38800000D01*
X-961905Y-38847619D01*
X-914286Y-38942857D01*
X-914286Y-39038095D01*
X-961905Y-39180952D01*
X-1533334Y-39752380D01*
X-914286Y-39752380D01*
G04 #@! TO.C,R3*
X-1866667Y-46002380D02*
X-2200000Y-45526190D01*
X-2438096Y-46002380D02*
X-2438096Y-45002380D01*
X-2057143Y-45002380D01*
X-1961905Y-45050000D01*
X-1914286Y-45097619D01*
X-1866667Y-45192857D01*
X-1866667Y-45335714D01*
X-1914286Y-45430952D01*
X-1961905Y-45478571D01*
X-2057143Y-45526190D01*
X-2438096Y-45526190D01*
X-1533334Y-45002380D02*
X-914286Y-45002380D01*
X-1247620Y-45383333D01*
X-1104762Y-45383333D01*
X-1009524Y-45430952D01*
X-961905Y-45478571D01*
X-914286Y-45573809D01*
X-914286Y-45811904D01*
X-961905Y-45907142D01*
X-1009524Y-45954761D01*
X-1104762Y-46002380D01*
X-1390477Y-46002380D01*
X-1485715Y-45954761D01*
X-1533334Y-45907142D01*
G04 #@! TO.C,D3*
X-698096Y-28002380D02*
X-698096Y-27002380D01*
X-460000Y-27002380D01*
X-317143Y-27050000D01*
X-221905Y-27145238D01*
X-174286Y-27240476D01*
X-126667Y-27430952D01*
X-126667Y-27573809D01*
X-174286Y-27764285D01*
X-221905Y-27859523D01*
X-317143Y-27954761D01*
X-460000Y-28002380D01*
X-698096Y-28002380D01*
X206666Y-27002380D02*
X825714Y-27002380D01*
X492380Y-27383333D01*
X635238Y-27383333D01*
X730476Y-27430952D01*
X778095Y-27478571D01*
X825714Y-27573809D01*
X825714Y-27811904D01*
X778095Y-27907142D01*
X730476Y-27954761D01*
X635238Y-28002380D01*
X349523Y-28002380D01*
X254285Y-27954761D01*
X206666Y-27907142D01*
G04 #@! TO.C,D1*
X-12247620Y-32238095D02*
X-13247620Y-32238095D01*
X-13247620Y-32000000D01*
X-13200000Y-31857142D01*
X-13104762Y-31761904D01*
X-13009524Y-31714285D01*
X-12819048Y-31666666D01*
X-12676191Y-31666666D01*
X-12485715Y-31714285D01*
X-12390477Y-31761904D01*
X-12295239Y-31857142D01*
X-12247620Y-32000000D01*
X-12247620Y-32238095D01*
X-12247620Y-30714285D02*
X-12247620Y-31285714D01*
X-12247620Y-31000000D02*
X-13247620Y-31000000D01*
X-13104762Y-31095238D01*
X-13009524Y-31190476D01*
X-12961905Y-31285714D01*
G04 #@! TO.C,D2*
X-12247620Y-35038095D02*
X-13247620Y-35038095D01*
X-13247620Y-34800000D01*
X-13200000Y-34657142D01*
X-13104762Y-34561904D01*
X-13009524Y-34514285D01*
X-12819048Y-34466666D01*
X-12676191Y-34466666D01*
X-12485715Y-34514285D01*
X-12390477Y-34561904D01*
X-12295239Y-34657142D01*
X-12247620Y-34800000D01*
X-12247620Y-35038095D01*
X-13152381Y-34085714D02*
X-13200000Y-34038095D01*
X-13247620Y-33942857D01*
X-13247620Y-33704761D01*
X-13200000Y-33609523D01*
X-13152381Y-33561904D01*
X-13057143Y-33514285D01*
X-12961905Y-33514285D01*
X-12819048Y-33561904D01*
X-12247620Y-34133333D01*
X-12247620Y-33514285D01*
G04 #@! TO.C,R1*
X383333Y-39702380D02*
X50000Y-39226190D01*
X-188096Y-39702380D02*
X-188096Y-38702380D01*
X192857Y-38702380D01*
X288095Y-38750000D01*
X335714Y-38797619D01*
X383333Y-38892857D01*
X383333Y-39035714D01*
X335714Y-39130952D01*
X288095Y-39178571D01*
X192857Y-39226190D01*
X-188096Y-39226190D01*
X1335714Y-39702380D02*
X764285Y-39702380D01*
X1050000Y-39702380D02*
X1050000Y-38702380D01*
X954761Y-38845238D01*
X859523Y-38940476D01*
X764285Y-38988095D01*
G04 #@! TO.C,D4*
X-698096Y-34102380D02*
X-698096Y-33102380D01*
X-460000Y-33102380D01*
X-317143Y-33150000D01*
X-221905Y-33245238D01*
X-174286Y-33340476D01*
X-126667Y-33530952D01*
X-126667Y-33673809D01*
X-174286Y-33864285D01*
X-221905Y-33959523D01*
X-317143Y-34054761D01*
X-460000Y-34102380D01*
X-698096Y-34102380D01*
X730476Y-33435714D02*
X730476Y-34102380D01*
X492380Y-33054761D02*
X254285Y-33769047D01*
X873333Y-33769047D01*
G04 #@! TO.C,J4*
X-56297620Y-7133333D02*
X-55583334Y-7133333D01*
X-55440477Y-7180952D01*
X-55345239Y-7276190D01*
X-55297620Y-7419047D01*
X-55297620Y-7514285D01*
X-55964286Y-6228571D02*
X-55297620Y-6228571D01*
X-56345239Y-6466666D02*
X-55630953Y-6704761D01*
X-55630953Y-6085714D01*
G04 #@! TO.C,J5*
X-56547620Y-51923333D02*
X-55833334Y-51923333D01*
X-55690477Y-51970952D01*
X-55595239Y-52066190D01*
X-55547620Y-52209047D01*
X-55547620Y-52304285D01*
X-56547620Y-50970952D02*
X-56547620Y-51447142D01*
X-56071429Y-51494761D01*
X-56119048Y-51447142D01*
X-56166667Y-51351904D01*
X-56166667Y-51113809D01*
X-56119048Y-51018571D01*
X-56071429Y-50970952D01*
X-55976191Y-50923333D01*
X-55738096Y-50923333D01*
X-55642858Y-50970952D01*
X-55595239Y-51018571D01*
X-55547620Y-51113809D01*
X-55547620Y-51351904D01*
X-55595239Y-51447142D01*
X-55642858Y-51494761D01*
G04 #@! TO.C,J3*
X-59833334Y-26122380D02*
X-59833334Y-26836666D01*
X-59880953Y-26979523D01*
X-59976191Y-27074761D01*
X-60119048Y-27122380D01*
X-60214286Y-27122380D01*
X-59452381Y-26122380D02*
X-58833334Y-26122380D01*
X-59166667Y-26503333D01*
X-59023810Y-26503333D01*
X-58928572Y-26550952D01*
X-58880953Y-26598571D01*
X-58833334Y-26693809D01*
X-58833334Y-26931904D01*
X-58880953Y-27027142D01*
X-58928572Y-27074761D01*
X-59023810Y-27122380D01*
X-59309524Y-27122380D01*
X-59404762Y-27074761D01*
X-59452381Y-27027142D01*
G04 #@! TO.C,C1*
X-12342858Y-28966666D02*
X-12295239Y-29014285D01*
X-12247620Y-29157142D01*
X-12247620Y-29252380D01*
X-12295239Y-29395238D01*
X-12390477Y-29490476D01*
X-12485715Y-29538095D01*
X-12676191Y-29585714D01*
X-12819048Y-29585714D01*
X-13009524Y-29538095D01*
X-13104762Y-29490476D01*
X-13200000Y-29395238D01*
X-13247620Y-29252380D01*
X-13247620Y-29157142D01*
X-13200000Y-29014285D01*
X-13152381Y-28966666D01*
X-12247620Y-28014285D02*
X-12247620Y-28585714D01*
X-12247620Y-28300000D02*
X-13247620Y-28300000D01*
X-13104762Y-28395238D01*
X-13009524Y-28490476D01*
X-12961905Y-28585714D01*
G04 #@! TD*
M02*
