G04 #@! TF.GenerationSoftware,KiCad,Pcbnew,5.1.6*
G04 #@! TF.CreationDate,2020-09-18T18:11:00+02:00*
G04 #@! TF.ProjectId,F010_rpi_logic_level_shifter_hat,46303130-5f72-4706-995f-6c6f6769635f,rev?*
G04 #@! TF.SameCoordinates,PXa52d280PY2b953a0*
G04 #@! TF.FileFunction,Soldermask,Bot*
G04 #@! TF.FilePolarity,Negative*
%FSLAX46Y46*%
G04 Gerber Fmt 4.6, Leading zero omitted, Abs format (unit mm)*
G04 Created by KiCad (PCBNEW 5.1.6) date 2020-09-18 18:11:00*
%MOMM*%
%LPD*%
G01*
G04 APERTURE LIST*
%ADD10C,0.100000*%
G04 APERTURE END LIST*
D10*
G36*
X-4826488Y-49913927D02*
G01*
X-4677188Y-49943624D01*
X-4513216Y-50011544D01*
X-4365646Y-50110147D01*
X-4240147Y-50235646D01*
X-4141544Y-50383216D01*
X-4073624Y-50547188D01*
X-4039000Y-50721259D01*
X-4039000Y-50898741D01*
X-4073624Y-51072812D01*
X-4141544Y-51236784D01*
X-4240147Y-51384354D01*
X-4365646Y-51509853D01*
X-4513216Y-51608456D01*
X-4677188Y-51676376D01*
X-4826488Y-51706073D01*
X-4851258Y-51711000D01*
X-5028742Y-51711000D01*
X-5053512Y-51706073D01*
X-5202812Y-51676376D01*
X-5366784Y-51608456D01*
X-5514354Y-51509853D01*
X-5639853Y-51384354D01*
X-5738456Y-51236784D01*
X-5806376Y-51072812D01*
X-5841000Y-50898741D01*
X-5841000Y-50721259D01*
X-5806376Y-50547188D01*
X-5738456Y-50383216D01*
X-5639853Y-50235646D01*
X-5514354Y-50110147D01*
X-5366784Y-50011544D01*
X-5202812Y-49943624D01*
X-5053512Y-49913927D01*
X-5028742Y-49909000D01*
X-4851258Y-49909000D01*
X-4826488Y-49913927D01*
G37*
G36*
X-30226488Y-49913927D02*
G01*
X-30077188Y-49943624D01*
X-29913216Y-50011544D01*
X-29765646Y-50110147D01*
X-29640147Y-50235646D01*
X-29541544Y-50383216D01*
X-29473624Y-50547188D01*
X-29439000Y-50721259D01*
X-29439000Y-50898741D01*
X-29473624Y-51072812D01*
X-29541544Y-51236784D01*
X-29640147Y-51384354D01*
X-29765646Y-51509853D01*
X-29913216Y-51608456D01*
X-30077188Y-51676376D01*
X-30226488Y-51706073D01*
X-30251258Y-51711000D01*
X-30428742Y-51711000D01*
X-30453512Y-51706073D01*
X-30602812Y-51676376D01*
X-30766784Y-51608456D01*
X-30914354Y-51509853D01*
X-31039853Y-51384354D01*
X-31138456Y-51236784D01*
X-31206376Y-51072812D01*
X-31241000Y-50898741D01*
X-31241000Y-50721259D01*
X-31206376Y-50547188D01*
X-31138456Y-50383216D01*
X-31039853Y-50235646D01*
X-30914354Y-50110147D01*
X-30766784Y-50011544D01*
X-30602812Y-49943624D01*
X-30453512Y-49913927D01*
X-30428742Y-49909000D01*
X-30251258Y-49909000D01*
X-30226488Y-49913927D01*
G37*
G36*
X-9906488Y-49913927D02*
G01*
X-9757188Y-49943624D01*
X-9593216Y-50011544D01*
X-9445646Y-50110147D01*
X-9320147Y-50235646D01*
X-9221544Y-50383216D01*
X-9153624Y-50547188D01*
X-9119000Y-50721259D01*
X-9119000Y-50898741D01*
X-9153624Y-51072812D01*
X-9221544Y-51236784D01*
X-9320147Y-51384354D01*
X-9445646Y-51509853D01*
X-9593216Y-51608456D01*
X-9757188Y-51676376D01*
X-9906488Y-51706073D01*
X-9931258Y-51711000D01*
X-10108742Y-51711000D01*
X-10133512Y-51706073D01*
X-10282812Y-51676376D01*
X-10446784Y-51608456D01*
X-10594354Y-51509853D01*
X-10719853Y-51384354D01*
X-10818456Y-51236784D01*
X-10886376Y-51072812D01*
X-10921000Y-50898741D01*
X-10921000Y-50721259D01*
X-10886376Y-50547188D01*
X-10818456Y-50383216D01*
X-10719853Y-50235646D01*
X-10594354Y-50110147D01*
X-10446784Y-50011544D01*
X-10282812Y-49943624D01*
X-10133512Y-49913927D01*
X-10108742Y-49909000D01*
X-9931258Y-49909000D01*
X-9906488Y-49913927D01*
G37*
G36*
X-12446488Y-49913927D02*
G01*
X-12297188Y-49943624D01*
X-12133216Y-50011544D01*
X-11985646Y-50110147D01*
X-11860147Y-50235646D01*
X-11761544Y-50383216D01*
X-11693624Y-50547188D01*
X-11659000Y-50721259D01*
X-11659000Y-50898741D01*
X-11693624Y-51072812D01*
X-11761544Y-51236784D01*
X-11860147Y-51384354D01*
X-11985646Y-51509853D01*
X-12133216Y-51608456D01*
X-12297188Y-51676376D01*
X-12446488Y-51706073D01*
X-12471258Y-51711000D01*
X-12648742Y-51711000D01*
X-12673512Y-51706073D01*
X-12822812Y-51676376D01*
X-12986784Y-51608456D01*
X-13134354Y-51509853D01*
X-13259853Y-51384354D01*
X-13358456Y-51236784D01*
X-13426376Y-51072812D01*
X-13461000Y-50898741D01*
X-13461000Y-50721259D01*
X-13426376Y-50547188D01*
X-13358456Y-50383216D01*
X-13259853Y-50235646D01*
X-13134354Y-50110147D01*
X-12986784Y-50011544D01*
X-12822812Y-49943624D01*
X-12673512Y-49913927D01*
X-12648742Y-49909000D01*
X-12471258Y-49909000D01*
X-12446488Y-49913927D01*
G37*
G36*
X-14986488Y-49913927D02*
G01*
X-14837188Y-49943624D01*
X-14673216Y-50011544D01*
X-14525646Y-50110147D01*
X-14400147Y-50235646D01*
X-14301544Y-50383216D01*
X-14233624Y-50547188D01*
X-14199000Y-50721259D01*
X-14199000Y-50898741D01*
X-14233624Y-51072812D01*
X-14301544Y-51236784D01*
X-14400147Y-51384354D01*
X-14525646Y-51509853D01*
X-14673216Y-51608456D01*
X-14837188Y-51676376D01*
X-14986488Y-51706073D01*
X-15011258Y-51711000D01*
X-15188742Y-51711000D01*
X-15213512Y-51706073D01*
X-15362812Y-51676376D01*
X-15526784Y-51608456D01*
X-15674354Y-51509853D01*
X-15799853Y-51384354D01*
X-15898456Y-51236784D01*
X-15966376Y-51072812D01*
X-16001000Y-50898741D01*
X-16001000Y-50721259D01*
X-15966376Y-50547188D01*
X-15898456Y-50383216D01*
X-15799853Y-50235646D01*
X-15674354Y-50110147D01*
X-15526784Y-50011544D01*
X-15362812Y-49943624D01*
X-15213512Y-49913927D01*
X-15188742Y-49909000D01*
X-15011258Y-49909000D01*
X-14986488Y-49913927D01*
G37*
G36*
X-17526488Y-49913927D02*
G01*
X-17377188Y-49943624D01*
X-17213216Y-50011544D01*
X-17065646Y-50110147D01*
X-16940147Y-50235646D01*
X-16841544Y-50383216D01*
X-16773624Y-50547188D01*
X-16739000Y-50721259D01*
X-16739000Y-50898741D01*
X-16773624Y-51072812D01*
X-16841544Y-51236784D01*
X-16940147Y-51384354D01*
X-17065646Y-51509853D01*
X-17213216Y-51608456D01*
X-17377188Y-51676376D01*
X-17526488Y-51706073D01*
X-17551258Y-51711000D01*
X-17728742Y-51711000D01*
X-17753512Y-51706073D01*
X-17902812Y-51676376D01*
X-18066784Y-51608456D01*
X-18214354Y-51509853D01*
X-18339853Y-51384354D01*
X-18438456Y-51236784D01*
X-18506376Y-51072812D01*
X-18541000Y-50898741D01*
X-18541000Y-50721259D01*
X-18506376Y-50547188D01*
X-18438456Y-50383216D01*
X-18339853Y-50235646D01*
X-18214354Y-50110147D01*
X-18066784Y-50011544D01*
X-17902812Y-49943624D01*
X-17753512Y-49913927D01*
X-17728742Y-49909000D01*
X-17551258Y-49909000D01*
X-17526488Y-49913927D01*
G37*
G36*
X-20066488Y-49913927D02*
G01*
X-19917188Y-49943624D01*
X-19753216Y-50011544D01*
X-19605646Y-50110147D01*
X-19480147Y-50235646D01*
X-19381544Y-50383216D01*
X-19313624Y-50547188D01*
X-19279000Y-50721259D01*
X-19279000Y-50898741D01*
X-19313624Y-51072812D01*
X-19381544Y-51236784D01*
X-19480147Y-51384354D01*
X-19605646Y-51509853D01*
X-19753216Y-51608456D01*
X-19917188Y-51676376D01*
X-20066488Y-51706073D01*
X-20091258Y-51711000D01*
X-20268742Y-51711000D01*
X-20293512Y-51706073D01*
X-20442812Y-51676376D01*
X-20606784Y-51608456D01*
X-20754354Y-51509853D01*
X-20879853Y-51384354D01*
X-20978456Y-51236784D01*
X-21046376Y-51072812D01*
X-21081000Y-50898741D01*
X-21081000Y-50721259D01*
X-21046376Y-50547188D01*
X-20978456Y-50383216D01*
X-20879853Y-50235646D01*
X-20754354Y-50110147D01*
X-20606784Y-50011544D01*
X-20442812Y-49943624D01*
X-20293512Y-49913927D01*
X-20268742Y-49909000D01*
X-20091258Y-49909000D01*
X-20066488Y-49913927D01*
G37*
G36*
X-22606488Y-49913927D02*
G01*
X-22457188Y-49943624D01*
X-22293216Y-50011544D01*
X-22145646Y-50110147D01*
X-22020147Y-50235646D01*
X-21921544Y-50383216D01*
X-21853624Y-50547188D01*
X-21819000Y-50721259D01*
X-21819000Y-50898741D01*
X-21853624Y-51072812D01*
X-21921544Y-51236784D01*
X-22020147Y-51384354D01*
X-22145646Y-51509853D01*
X-22293216Y-51608456D01*
X-22457188Y-51676376D01*
X-22606488Y-51706073D01*
X-22631258Y-51711000D01*
X-22808742Y-51711000D01*
X-22833512Y-51706073D01*
X-22982812Y-51676376D01*
X-23146784Y-51608456D01*
X-23294354Y-51509853D01*
X-23419853Y-51384354D01*
X-23518456Y-51236784D01*
X-23586376Y-51072812D01*
X-23621000Y-50898741D01*
X-23621000Y-50721259D01*
X-23586376Y-50547188D01*
X-23518456Y-50383216D01*
X-23419853Y-50235646D01*
X-23294354Y-50110147D01*
X-23146784Y-50011544D01*
X-22982812Y-49943624D01*
X-22833512Y-49913927D01*
X-22808742Y-49909000D01*
X-22631258Y-49909000D01*
X-22606488Y-49913927D01*
G37*
G36*
X-25146488Y-49913927D02*
G01*
X-24997188Y-49943624D01*
X-24833216Y-50011544D01*
X-24685646Y-50110147D01*
X-24560147Y-50235646D01*
X-24461544Y-50383216D01*
X-24393624Y-50547188D01*
X-24359000Y-50721259D01*
X-24359000Y-50898741D01*
X-24393624Y-51072812D01*
X-24461544Y-51236784D01*
X-24560147Y-51384354D01*
X-24685646Y-51509853D01*
X-24833216Y-51608456D01*
X-24997188Y-51676376D01*
X-25146488Y-51706073D01*
X-25171258Y-51711000D01*
X-25348742Y-51711000D01*
X-25373512Y-51706073D01*
X-25522812Y-51676376D01*
X-25686784Y-51608456D01*
X-25834354Y-51509853D01*
X-25959853Y-51384354D01*
X-26058456Y-51236784D01*
X-26126376Y-51072812D01*
X-26161000Y-50898741D01*
X-26161000Y-50721259D01*
X-26126376Y-50547188D01*
X-26058456Y-50383216D01*
X-25959853Y-50235646D01*
X-25834354Y-50110147D01*
X-25686784Y-50011544D01*
X-25522812Y-49943624D01*
X-25373512Y-49913927D01*
X-25348742Y-49909000D01*
X-25171258Y-49909000D01*
X-25146488Y-49913927D01*
G37*
G36*
X-27686488Y-49913927D02*
G01*
X-27537188Y-49943624D01*
X-27373216Y-50011544D01*
X-27225646Y-50110147D01*
X-27100147Y-50235646D01*
X-27001544Y-50383216D01*
X-26933624Y-50547188D01*
X-26899000Y-50721259D01*
X-26899000Y-50898741D01*
X-26933624Y-51072812D01*
X-27001544Y-51236784D01*
X-27100147Y-51384354D01*
X-27225646Y-51509853D01*
X-27373216Y-51608456D01*
X-27537188Y-51676376D01*
X-27686488Y-51706073D01*
X-27711258Y-51711000D01*
X-27888742Y-51711000D01*
X-27913512Y-51706073D01*
X-28062812Y-51676376D01*
X-28226784Y-51608456D01*
X-28374354Y-51509853D01*
X-28499853Y-51384354D01*
X-28598456Y-51236784D01*
X-28666376Y-51072812D01*
X-28701000Y-50898741D01*
X-28701000Y-50721259D01*
X-28666376Y-50547188D01*
X-28598456Y-50383216D01*
X-28499853Y-50235646D01*
X-28374354Y-50110147D01*
X-28226784Y-50011544D01*
X-28062812Y-49943624D01*
X-27913512Y-49913927D01*
X-27888742Y-49909000D01*
X-27711258Y-49909000D01*
X-27686488Y-49913927D01*
G37*
G36*
X-7366488Y-49913927D02*
G01*
X-7217188Y-49943624D01*
X-7053216Y-50011544D01*
X-6905646Y-50110147D01*
X-6780147Y-50235646D01*
X-6681544Y-50383216D01*
X-6613624Y-50547188D01*
X-6579000Y-50721259D01*
X-6579000Y-50898741D01*
X-6613624Y-51072812D01*
X-6681544Y-51236784D01*
X-6780147Y-51384354D01*
X-6905646Y-51509853D01*
X-7053216Y-51608456D01*
X-7217188Y-51676376D01*
X-7366488Y-51706073D01*
X-7391258Y-51711000D01*
X-7568742Y-51711000D01*
X-7593512Y-51706073D01*
X-7742812Y-51676376D01*
X-7906784Y-51608456D01*
X-8054354Y-51509853D01*
X-8179853Y-51384354D01*
X-8278456Y-51236784D01*
X-8346376Y-51072812D01*
X-8381000Y-50898741D01*
X-8381000Y-50721259D01*
X-8346376Y-50547188D01*
X-8278456Y-50383216D01*
X-8179853Y-50235646D01*
X-8054354Y-50110147D01*
X-7906784Y-50011544D01*
X-7742812Y-49943624D01*
X-7593512Y-49913927D01*
X-7568742Y-49909000D01*
X-7391258Y-49909000D01*
X-7366488Y-49913927D01*
G37*
G36*
X-35306488Y-49913927D02*
G01*
X-35157188Y-49943624D01*
X-34993216Y-50011544D01*
X-34845646Y-50110147D01*
X-34720147Y-50235646D01*
X-34621544Y-50383216D01*
X-34553624Y-50547188D01*
X-34519000Y-50721259D01*
X-34519000Y-50898741D01*
X-34553624Y-51072812D01*
X-34621544Y-51236784D01*
X-34720147Y-51384354D01*
X-34845646Y-51509853D01*
X-34993216Y-51608456D01*
X-35157188Y-51676376D01*
X-35306488Y-51706073D01*
X-35331258Y-51711000D01*
X-35508742Y-51711000D01*
X-35533512Y-51706073D01*
X-35682812Y-51676376D01*
X-35846784Y-51608456D01*
X-35994354Y-51509853D01*
X-36119853Y-51384354D01*
X-36218456Y-51236784D01*
X-36286376Y-51072812D01*
X-36321000Y-50898741D01*
X-36321000Y-50721259D01*
X-36286376Y-50547188D01*
X-36218456Y-50383216D01*
X-36119853Y-50235646D01*
X-35994354Y-50110147D01*
X-35846784Y-50011544D01*
X-35682812Y-49943624D01*
X-35533512Y-49913927D01*
X-35508742Y-49909000D01*
X-35331258Y-49909000D01*
X-35306488Y-49913927D01*
G37*
G36*
X-37846488Y-49913927D02*
G01*
X-37697188Y-49943624D01*
X-37533216Y-50011544D01*
X-37385646Y-50110147D01*
X-37260147Y-50235646D01*
X-37161544Y-50383216D01*
X-37093624Y-50547188D01*
X-37059000Y-50721259D01*
X-37059000Y-50898741D01*
X-37093624Y-51072812D01*
X-37161544Y-51236784D01*
X-37260147Y-51384354D01*
X-37385646Y-51509853D01*
X-37533216Y-51608456D01*
X-37697188Y-51676376D01*
X-37846488Y-51706073D01*
X-37871258Y-51711000D01*
X-38048742Y-51711000D01*
X-38073512Y-51706073D01*
X-38222812Y-51676376D01*
X-38386784Y-51608456D01*
X-38534354Y-51509853D01*
X-38659853Y-51384354D01*
X-38758456Y-51236784D01*
X-38826376Y-51072812D01*
X-38861000Y-50898741D01*
X-38861000Y-50721259D01*
X-38826376Y-50547188D01*
X-38758456Y-50383216D01*
X-38659853Y-50235646D01*
X-38534354Y-50110147D01*
X-38386784Y-50011544D01*
X-38222812Y-49943624D01*
X-38073512Y-49913927D01*
X-38048742Y-49909000D01*
X-37871258Y-49909000D01*
X-37846488Y-49913927D01*
G37*
G36*
X-40386488Y-49913927D02*
G01*
X-40237188Y-49943624D01*
X-40073216Y-50011544D01*
X-39925646Y-50110147D01*
X-39800147Y-50235646D01*
X-39701544Y-50383216D01*
X-39633624Y-50547188D01*
X-39599000Y-50721259D01*
X-39599000Y-50898741D01*
X-39633624Y-51072812D01*
X-39701544Y-51236784D01*
X-39800147Y-51384354D01*
X-39925646Y-51509853D01*
X-40073216Y-51608456D01*
X-40237188Y-51676376D01*
X-40386488Y-51706073D01*
X-40411258Y-51711000D01*
X-40588742Y-51711000D01*
X-40613512Y-51706073D01*
X-40762812Y-51676376D01*
X-40926784Y-51608456D01*
X-41074354Y-51509853D01*
X-41199853Y-51384354D01*
X-41298456Y-51236784D01*
X-41366376Y-51072812D01*
X-41401000Y-50898741D01*
X-41401000Y-50721259D01*
X-41366376Y-50547188D01*
X-41298456Y-50383216D01*
X-41199853Y-50235646D01*
X-41074354Y-50110147D01*
X-40926784Y-50011544D01*
X-40762812Y-49943624D01*
X-40613512Y-49913927D01*
X-40588742Y-49909000D01*
X-40411258Y-49909000D01*
X-40386488Y-49913927D01*
G37*
G36*
X-42926488Y-49913927D02*
G01*
X-42777188Y-49943624D01*
X-42613216Y-50011544D01*
X-42465646Y-50110147D01*
X-42340147Y-50235646D01*
X-42241544Y-50383216D01*
X-42173624Y-50547188D01*
X-42139000Y-50721259D01*
X-42139000Y-50898741D01*
X-42173624Y-51072812D01*
X-42241544Y-51236784D01*
X-42340147Y-51384354D01*
X-42465646Y-51509853D01*
X-42613216Y-51608456D01*
X-42777188Y-51676376D01*
X-42926488Y-51706073D01*
X-42951258Y-51711000D01*
X-43128742Y-51711000D01*
X-43153512Y-51706073D01*
X-43302812Y-51676376D01*
X-43466784Y-51608456D01*
X-43614354Y-51509853D01*
X-43739853Y-51384354D01*
X-43838456Y-51236784D01*
X-43906376Y-51072812D01*
X-43941000Y-50898741D01*
X-43941000Y-50721259D01*
X-43906376Y-50547188D01*
X-43838456Y-50383216D01*
X-43739853Y-50235646D01*
X-43614354Y-50110147D01*
X-43466784Y-50011544D01*
X-43302812Y-49943624D01*
X-43153512Y-49913927D01*
X-43128742Y-49909000D01*
X-42951258Y-49909000D01*
X-42926488Y-49913927D01*
G37*
G36*
X-45466488Y-49913927D02*
G01*
X-45317188Y-49943624D01*
X-45153216Y-50011544D01*
X-45005646Y-50110147D01*
X-44880147Y-50235646D01*
X-44781544Y-50383216D01*
X-44713624Y-50547188D01*
X-44679000Y-50721259D01*
X-44679000Y-50898741D01*
X-44713624Y-51072812D01*
X-44781544Y-51236784D01*
X-44880147Y-51384354D01*
X-45005646Y-51509853D01*
X-45153216Y-51608456D01*
X-45317188Y-51676376D01*
X-45466488Y-51706073D01*
X-45491258Y-51711000D01*
X-45668742Y-51711000D01*
X-45693512Y-51706073D01*
X-45842812Y-51676376D01*
X-46006784Y-51608456D01*
X-46154354Y-51509853D01*
X-46279853Y-51384354D01*
X-46378456Y-51236784D01*
X-46446376Y-51072812D01*
X-46481000Y-50898741D01*
X-46481000Y-50721259D01*
X-46446376Y-50547188D01*
X-46378456Y-50383216D01*
X-46279853Y-50235646D01*
X-46154354Y-50110147D01*
X-46006784Y-50011544D01*
X-45842812Y-49943624D01*
X-45693512Y-49913927D01*
X-45668742Y-49909000D01*
X-45491258Y-49909000D01*
X-45466488Y-49913927D01*
G37*
G36*
X-48006488Y-49913927D02*
G01*
X-47857188Y-49943624D01*
X-47693216Y-50011544D01*
X-47545646Y-50110147D01*
X-47420147Y-50235646D01*
X-47321544Y-50383216D01*
X-47253624Y-50547188D01*
X-47219000Y-50721259D01*
X-47219000Y-50898741D01*
X-47253624Y-51072812D01*
X-47321544Y-51236784D01*
X-47420147Y-51384354D01*
X-47545646Y-51509853D01*
X-47693216Y-51608456D01*
X-47857188Y-51676376D01*
X-48006488Y-51706073D01*
X-48031258Y-51711000D01*
X-48208742Y-51711000D01*
X-48233512Y-51706073D01*
X-48382812Y-51676376D01*
X-48546784Y-51608456D01*
X-48694354Y-51509853D01*
X-48819853Y-51384354D01*
X-48918456Y-51236784D01*
X-48986376Y-51072812D01*
X-49021000Y-50898741D01*
X-49021000Y-50721259D01*
X-48986376Y-50547188D01*
X-48918456Y-50383216D01*
X-48819853Y-50235646D01*
X-48694354Y-50110147D01*
X-48546784Y-50011544D01*
X-48382812Y-49943624D01*
X-48233512Y-49913927D01*
X-48208742Y-49909000D01*
X-48031258Y-49909000D01*
X-48006488Y-49913927D01*
G37*
G36*
X-50546488Y-49913927D02*
G01*
X-50397188Y-49943624D01*
X-50233216Y-50011544D01*
X-50085646Y-50110147D01*
X-49960147Y-50235646D01*
X-49861544Y-50383216D01*
X-49793624Y-50547188D01*
X-49759000Y-50721259D01*
X-49759000Y-50898741D01*
X-49793624Y-51072812D01*
X-49861544Y-51236784D01*
X-49960147Y-51384354D01*
X-50085646Y-51509853D01*
X-50233216Y-51608456D01*
X-50397188Y-51676376D01*
X-50546488Y-51706073D01*
X-50571258Y-51711000D01*
X-50748742Y-51711000D01*
X-50773512Y-51706073D01*
X-50922812Y-51676376D01*
X-51086784Y-51608456D01*
X-51234354Y-51509853D01*
X-51359853Y-51384354D01*
X-51458456Y-51236784D01*
X-51526376Y-51072812D01*
X-51561000Y-50898741D01*
X-51561000Y-50721259D01*
X-51526376Y-50547188D01*
X-51458456Y-50383216D01*
X-51359853Y-50235646D01*
X-51234354Y-50110147D01*
X-51086784Y-50011544D01*
X-50922812Y-49943624D01*
X-50773512Y-49913927D01*
X-50748742Y-49909000D01*
X-50571258Y-49909000D01*
X-50546488Y-49913927D01*
G37*
G36*
X-52299000Y-51711000D02*
G01*
X-54101000Y-51711000D01*
X-54101000Y-49909000D01*
X-52299000Y-49909000D01*
X-52299000Y-51711000D01*
G37*
G36*
X-32766488Y-49913927D02*
G01*
X-32617188Y-49943624D01*
X-32453216Y-50011544D01*
X-32305646Y-50110147D01*
X-32180147Y-50235646D01*
X-32081544Y-50383216D01*
X-32013624Y-50547188D01*
X-31979000Y-50721259D01*
X-31979000Y-50898741D01*
X-32013624Y-51072812D01*
X-32081544Y-51236784D01*
X-32180147Y-51384354D01*
X-32305646Y-51509853D01*
X-32453216Y-51608456D01*
X-32617188Y-51676376D01*
X-32766488Y-51706073D01*
X-32791258Y-51711000D01*
X-32968742Y-51711000D01*
X-32993512Y-51706073D01*
X-33142812Y-51676376D01*
X-33306784Y-51608456D01*
X-33454354Y-51509853D01*
X-33579853Y-51384354D01*
X-33678456Y-51236784D01*
X-33746376Y-51072812D01*
X-33781000Y-50898741D01*
X-33781000Y-50721259D01*
X-33746376Y-50547188D01*
X-33678456Y-50383216D01*
X-33579853Y-50235646D01*
X-33454354Y-50110147D01*
X-33306784Y-50011544D01*
X-33142812Y-49943624D01*
X-32993512Y-49913927D01*
X-32968742Y-49909000D01*
X-32791258Y-49909000D01*
X-32766488Y-49913927D01*
G37*
G36*
X-9906488Y-47373927D02*
G01*
X-9757188Y-47403624D01*
X-9593216Y-47471544D01*
X-9445646Y-47570147D01*
X-9320147Y-47695646D01*
X-9221544Y-47843216D01*
X-9153624Y-48007188D01*
X-9119000Y-48181259D01*
X-9119000Y-48358741D01*
X-9153624Y-48532812D01*
X-9221544Y-48696784D01*
X-9320147Y-48844354D01*
X-9445646Y-48969853D01*
X-9593216Y-49068456D01*
X-9757188Y-49136376D01*
X-9906488Y-49166073D01*
X-9931258Y-49171000D01*
X-10108742Y-49171000D01*
X-10133512Y-49166073D01*
X-10282812Y-49136376D01*
X-10446784Y-49068456D01*
X-10594354Y-48969853D01*
X-10719853Y-48844354D01*
X-10818456Y-48696784D01*
X-10886376Y-48532812D01*
X-10921000Y-48358741D01*
X-10921000Y-48181259D01*
X-10886376Y-48007188D01*
X-10818456Y-47843216D01*
X-10719853Y-47695646D01*
X-10594354Y-47570147D01*
X-10446784Y-47471544D01*
X-10282812Y-47403624D01*
X-10133512Y-47373927D01*
X-10108742Y-47369000D01*
X-9931258Y-47369000D01*
X-9906488Y-47373927D01*
G37*
G36*
X-7366488Y-47373927D02*
G01*
X-7217188Y-47403624D01*
X-7053216Y-47471544D01*
X-6905646Y-47570147D01*
X-6780147Y-47695646D01*
X-6681544Y-47843216D01*
X-6613624Y-48007188D01*
X-6579000Y-48181259D01*
X-6579000Y-48358741D01*
X-6613624Y-48532812D01*
X-6681544Y-48696784D01*
X-6780147Y-48844354D01*
X-6905646Y-48969853D01*
X-7053216Y-49068456D01*
X-7217188Y-49136376D01*
X-7366488Y-49166073D01*
X-7391258Y-49171000D01*
X-7568742Y-49171000D01*
X-7593512Y-49166073D01*
X-7742812Y-49136376D01*
X-7906784Y-49068456D01*
X-8054354Y-48969853D01*
X-8179853Y-48844354D01*
X-8278456Y-48696784D01*
X-8346376Y-48532812D01*
X-8381000Y-48358741D01*
X-8381000Y-48181259D01*
X-8346376Y-48007188D01*
X-8278456Y-47843216D01*
X-8179853Y-47695646D01*
X-8054354Y-47570147D01*
X-7906784Y-47471544D01*
X-7742812Y-47403624D01*
X-7593512Y-47373927D01*
X-7568742Y-47369000D01*
X-7391258Y-47369000D01*
X-7366488Y-47373927D01*
G37*
G36*
X-42926488Y-47373927D02*
G01*
X-42777188Y-47403624D01*
X-42613216Y-47471544D01*
X-42465646Y-47570147D01*
X-42340147Y-47695646D01*
X-42241544Y-47843216D01*
X-42173624Y-48007188D01*
X-42139000Y-48181259D01*
X-42139000Y-48358741D01*
X-42173624Y-48532812D01*
X-42241544Y-48696784D01*
X-42340147Y-48844354D01*
X-42465646Y-48969853D01*
X-42613216Y-49068456D01*
X-42777188Y-49136376D01*
X-42926488Y-49166073D01*
X-42951258Y-49171000D01*
X-43128742Y-49171000D01*
X-43153512Y-49166073D01*
X-43302812Y-49136376D01*
X-43466784Y-49068456D01*
X-43614354Y-48969853D01*
X-43739853Y-48844354D01*
X-43838456Y-48696784D01*
X-43906376Y-48532812D01*
X-43941000Y-48358741D01*
X-43941000Y-48181259D01*
X-43906376Y-48007188D01*
X-43838456Y-47843216D01*
X-43739853Y-47695646D01*
X-43614354Y-47570147D01*
X-43466784Y-47471544D01*
X-43302812Y-47403624D01*
X-43153512Y-47373927D01*
X-43128742Y-47369000D01*
X-42951258Y-47369000D01*
X-42926488Y-47373927D01*
G37*
G36*
X-37846488Y-47373927D02*
G01*
X-37697188Y-47403624D01*
X-37533216Y-47471544D01*
X-37385646Y-47570147D01*
X-37260147Y-47695646D01*
X-37161544Y-47843216D01*
X-37093624Y-48007188D01*
X-37059000Y-48181259D01*
X-37059000Y-48358741D01*
X-37093624Y-48532812D01*
X-37161544Y-48696784D01*
X-37260147Y-48844354D01*
X-37385646Y-48969853D01*
X-37533216Y-49068456D01*
X-37697188Y-49136376D01*
X-37846488Y-49166073D01*
X-37871258Y-49171000D01*
X-38048742Y-49171000D01*
X-38073512Y-49166073D01*
X-38222812Y-49136376D01*
X-38386784Y-49068456D01*
X-38534354Y-48969853D01*
X-38659853Y-48844354D01*
X-38758456Y-48696784D01*
X-38826376Y-48532812D01*
X-38861000Y-48358741D01*
X-38861000Y-48181259D01*
X-38826376Y-48007188D01*
X-38758456Y-47843216D01*
X-38659853Y-47695646D01*
X-38534354Y-47570147D01*
X-38386784Y-47471544D01*
X-38222812Y-47403624D01*
X-38073512Y-47373927D01*
X-38048742Y-47369000D01*
X-37871258Y-47369000D01*
X-37846488Y-47373927D01*
G37*
G36*
X-40386488Y-47373927D02*
G01*
X-40237188Y-47403624D01*
X-40073216Y-47471544D01*
X-39925646Y-47570147D01*
X-39800147Y-47695646D01*
X-39701544Y-47843216D01*
X-39633624Y-48007188D01*
X-39599000Y-48181259D01*
X-39599000Y-48358741D01*
X-39633624Y-48532812D01*
X-39701544Y-48696784D01*
X-39800147Y-48844354D01*
X-39925646Y-48969853D01*
X-40073216Y-49068456D01*
X-40237188Y-49136376D01*
X-40386488Y-49166073D01*
X-40411258Y-49171000D01*
X-40588742Y-49171000D01*
X-40613512Y-49166073D01*
X-40762812Y-49136376D01*
X-40926784Y-49068456D01*
X-41074354Y-48969853D01*
X-41199853Y-48844354D01*
X-41298456Y-48696784D01*
X-41366376Y-48532812D01*
X-41401000Y-48358741D01*
X-41401000Y-48181259D01*
X-41366376Y-48007188D01*
X-41298456Y-47843216D01*
X-41199853Y-47695646D01*
X-41074354Y-47570147D01*
X-40926784Y-47471544D01*
X-40762812Y-47403624D01*
X-40613512Y-47373927D01*
X-40588742Y-47369000D01*
X-40411258Y-47369000D01*
X-40386488Y-47373927D01*
G37*
G36*
X-45466488Y-47373927D02*
G01*
X-45317188Y-47403624D01*
X-45153216Y-47471544D01*
X-45005646Y-47570147D01*
X-44880147Y-47695646D01*
X-44781544Y-47843216D01*
X-44713624Y-48007188D01*
X-44679000Y-48181259D01*
X-44679000Y-48358741D01*
X-44713624Y-48532812D01*
X-44781544Y-48696784D01*
X-44880147Y-48844354D01*
X-45005646Y-48969853D01*
X-45153216Y-49068456D01*
X-45317188Y-49136376D01*
X-45466488Y-49166073D01*
X-45491258Y-49171000D01*
X-45668742Y-49171000D01*
X-45693512Y-49166073D01*
X-45842812Y-49136376D01*
X-46006784Y-49068456D01*
X-46154354Y-48969853D01*
X-46279853Y-48844354D01*
X-46378456Y-48696784D01*
X-46446376Y-48532812D01*
X-46481000Y-48358741D01*
X-46481000Y-48181259D01*
X-46446376Y-48007188D01*
X-46378456Y-47843216D01*
X-46279853Y-47695646D01*
X-46154354Y-47570147D01*
X-46006784Y-47471544D01*
X-45842812Y-47403624D01*
X-45693512Y-47373927D01*
X-45668742Y-47369000D01*
X-45491258Y-47369000D01*
X-45466488Y-47373927D01*
G37*
G36*
X-48006488Y-47373927D02*
G01*
X-47857188Y-47403624D01*
X-47693216Y-47471544D01*
X-47545646Y-47570147D01*
X-47420147Y-47695646D01*
X-47321544Y-47843216D01*
X-47253624Y-48007188D01*
X-47219000Y-48181259D01*
X-47219000Y-48358741D01*
X-47253624Y-48532812D01*
X-47321544Y-48696784D01*
X-47420147Y-48844354D01*
X-47545646Y-48969853D01*
X-47693216Y-49068456D01*
X-47857188Y-49136376D01*
X-48006488Y-49166073D01*
X-48031258Y-49171000D01*
X-48208742Y-49171000D01*
X-48233512Y-49166073D01*
X-48382812Y-49136376D01*
X-48546784Y-49068456D01*
X-48694354Y-48969853D01*
X-48819853Y-48844354D01*
X-48918456Y-48696784D01*
X-48986376Y-48532812D01*
X-49021000Y-48358741D01*
X-49021000Y-48181259D01*
X-48986376Y-48007188D01*
X-48918456Y-47843216D01*
X-48819853Y-47695646D01*
X-48694354Y-47570147D01*
X-48546784Y-47471544D01*
X-48382812Y-47403624D01*
X-48233512Y-47373927D01*
X-48208742Y-47369000D01*
X-48031258Y-47369000D01*
X-48006488Y-47373927D01*
G37*
G36*
X-50546488Y-47373927D02*
G01*
X-50397188Y-47403624D01*
X-50233216Y-47471544D01*
X-50085646Y-47570147D01*
X-49960147Y-47695646D01*
X-49861544Y-47843216D01*
X-49793624Y-48007188D01*
X-49759000Y-48181259D01*
X-49759000Y-48358741D01*
X-49793624Y-48532812D01*
X-49861544Y-48696784D01*
X-49960147Y-48844354D01*
X-50085646Y-48969853D01*
X-50233216Y-49068456D01*
X-50397188Y-49136376D01*
X-50546488Y-49166073D01*
X-50571258Y-49171000D01*
X-50748742Y-49171000D01*
X-50773512Y-49166073D01*
X-50922812Y-49136376D01*
X-51086784Y-49068456D01*
X-51234354Y-48969853D01*
X-51359853Y-48844354D01*
X-51458456Y-48696784D01*
X-51526376Y-48532812D01*
X-51561000Y-48358741D01*
X-51561000Y-48181259D01*
X-51526376Y-48007188D01*
X-51458456Y-47843216D01*
X-51359853Y-47695646D01*
X-51234354Y-47570147D01*
X-51086784Y-47471544D01*
X-50922812Y-47403624D01*
X-50773512Y-47373927D01*
X-50748742Y-47369000D01*
X-50571258Y-47369000D01*
X-50546488Y-47373927D01*
G37*
G36*
X-53086488Y-47373927D02*
G01*
X-52937188Y-47403624D01*
X-52773216Y-47471544D01*
X-52625646Y-47570147D01*
X-52500147Y-47695646D01*
X-52401544Y-47843216D01*
X-52333624Y-48007188D01*
X-52299000Y-48181259D01*
X-52299000Y-48358741D01*
X-52333624Y-48532812D01*
X-52401544Y-48696784D01*
X-52500147Y-48844354D01*
X-52625646Y-48969853D01*
X-52773216Y-49068456D01*
X-52937188Y-49136376D01*
X-53086488Y-49166073D01*
X-53111258Y-49171000D01*
X-53288742Y-49171000D01*
X-53313512Y-49166073D01*
X-53462812Y-49136376D01*
X-53626784Y-49068456D01*
X-53774354Y-48969853D01*
X-53899853Y-48844354D01*
X-53998456Y-48696784D01*
X-54066376Y-48532812D01*
X-54101000Y-48358741D01*
X-54101000Y-48181259D01*
X-54066376Y-48007188D01*
X-53998456Y-47843216D01*
X-53899853Y-47695646D01*
X-53774354Y-47570147D01*
X-53626784Y-47471544D01*
X-53462812Y-47403624D01*
X-53313512Y-47373927D01*
X-53288742Y-47369000D01*
X-53111258Y-47369000D01*
X-53086488Y-47373927D01*
G37*
G36*
X-22606488Y-47373927D02*
G01*
X-22457188Y-47403624D01*
X-22293216Y-47471544D01*
X-22145646Y-47570147D01*
X-22020147Y-47695646D01*
X-21921544Y-47843216D01*
X-21853624Y-48007188D01*
X-21819000Y-48181259D01*
X-21819000Y-48358741D01*
X-21853624Y-48532812D01*
X-21921544Y-48696784D01*
X-22020147Y-48844354D01*
X-22145646Y-48969853D01*
X-22293216Y-49068456D01*
X-22457188Y-49136376D01*
X-22606488Y-49166073D01*
X-22631258Y-49171000D01*
X-22808742Y-49171000D01*
X-22833512Y-49166073D01*
X-22982812Y-49136376D01*
X-23146784Y-49068456D01*
X-23294354Y-48969853D01*
X-23419853Y-48844354D01*
X-23518456Y-48696784D01*
X-23586376Y-48532812D01*
X-23621000Y-48358741D01*
X-23621000Y-48181259D01*
X-23586376Y-48007188D01*
X-23518456Y-47843216D01*
X-23419853Y-47695646D01*
X-23294354Y-47570147D01*
X-23146784Y-47471544D01*
X-22982812Y-47403624D01*
X-22833512Y-47373927D01*
X-22808742Y-47369000D01*
X-22631258Y-47369000D01*
X-22606488Y-47373927D01*
G37*
G36*
X-14986488Y-47373927D02*
G01*
X-14837188Y-47403624D01*
X-14673216Y-47471544D01*
X-14525646Y-47570147D01*
X-14400147Y-47695646D01*
X-14301544Y-47843216D01*
X-14233624Y-48007188D01*
X-14199000Y-48181259D01*
X-14199000Y-48358741D01*
X-14233624Y-48532812D01*
X-14301544Y-48696784D01*
X-14400147Y-48844354D01*
X-14525646Y-48969853D01*
X-14673216Y-49068456D01*
X-14837188Y-49136376D01*
X-14986488Y-49166073D01*
X-15011258Y-49171000D01*
X-15188742Y-49171000D01*
X-15213512Y-49166073D01*
X-15362812Y-49136376D01*
X-15526784Y-49068456D01*
X-15674354Y-48969853D01*
X-15799853Y-48844354D01*
X-15898456Y-48696784D01*
X-15966376Y-48532812D01*
X-16001000Y-48358741D01*
X-16001000Y-48181259D01*
X-15966376Y-48007188D01*
X-15898456Y-47843216D01*
X-15799853Y-47695646D01*
X-15674354Y-47570147D01*
X-15526784Y-47471544D01*
X-15362812Y-47403624D01*
X-15213512Y-47373927D01*
X-15188742Y-47369000D01*
X-15011258Y-47369000D01*
X-14986488Y-47373927D01*
G37*
G36*
X-17526488Y-47373927D02*
G01*
X-17377188Y-47403624D01*
X-17213216Y-47471544D01*
X-17065646Y-47570147D01*
X-16940147Y-47695646D01*
X-16841544Y-47843216D01*
X-16773624Y-48007188D01*
X-16739000Y-48181259D01*
X-16739000Y-48358741D01*
X-16773624Y-48532812D01*
X-16841544Y-48696784D01*
X-16940147Y-48844354D01*
X-17065646Y-48969853D01*
X-17213216Y-49068456D01*
X-17377188Y-49136376D01*
X-17526488Y-49166073D01*
X-17551258Y-49171000D01*
X-17728742Y-49171000D01*
X-17753512Y-49166073D01*
X-17902812Y-49136376D01*
X-18066784Y-49068456D01*
X-18214354Y-48969853D01*
X-18339853Y-48844354D01*
X-18438456Y-48696784D01*
X-18506376Y-48532812D01*
X-18541000Y-48358741D01*
X-18541000Y-48181259D01*
X-18506376Y-48007188D01*
X-18438456Y-47843216D01*
X-18339853Y-47695646D01*
X-18214354Y-47570147D01*
X-18066784Y-47471544D01*
X-17902812Y-47403624D01*
X-17753512Y-47373927D01*
X-17728742Y-47369000D01*
X-17551258Y-47369000D01*
X-17526488Y-47373927D01*
G37*
G36*
X-20066488Y-47373927D02*
G01*
X-19917188Y-47403624D01*
X-19753216Y-47471544D01*
X-19605646Y-47570147D01*
X-19480147Y-47695646D01*
X-19381544Y-47843216D01*
X-19313624Y-48007188D01*
X-19279000Y-48181259D01*
X-19279000Y-48358741D01*
X-19313624Y-48532812D01*
X-19381544Y-48696784D01*
X-19480147Y-48844354D01*
X-19605646Y-48969853D01*
X-19753216Y-49068456D01*
X-19917188Y-49136376D01*
X-20066488Y-49166073D01*
X-20091258Y-49171000D01*
X-20268742Y-49171000D01*
X-20293512Y-49166073D01*
X-20442812Y-49136376D01*
X-20606784Y-49068456D01*
X-20754354Y-48969853D01*
X-20879853Y-48844354D01*
X-20978456Y-48696784D01*
X-21046376Y-48532812D01*
X-21081000Y-48358741D01*
X-21081000Y-48181259D01*
X-21046376Y-48007188D01*
X-20978456Y-47843216D01*
X-20879853Y-47695646D01*
X-20754354Y-47570147D01*
X-20606784Y-47471544D01*
X-20442812Y-47403624D01*
X-20293512Y-47373927D01*
X-20268742Y-47369000D01*
X-20091258Y-47369000D01*
X-20066488Y-47373927D01*
G37*
G36*
X-25146488Y-47373927D02*
G01*
X-24997188Y-47403624D01*
X-24833216Y-47471544D01*
X-24685646Y-47570147D01*
X-24560147Y-47695646D01*
X-24461544Y-47843216D01*
X-24393624Y-48007188D01*
X-24359000Y-48181259D01*
X-24359000Y-48358741D01*
X-24393624Y-48532812D01*
X-24461544Y-48696784D01*
X-24560147Y-48844354D01*
X-24685646Y-48969853D01*
X-24833216Y-49068456D01*
X-24997188Y-49136376D01*
X-25146488Y-49166073D01*
X-25171258Y-49171000D01*
X-25348742Y-49171000D01*
X-25373512Y-49166073D01*
X-25522812Y-49136376D01*
X-25686784Y-49068456D01*
X-25834354Y-48969853D01*
X-25959853Y-48844354D01*
X-26058456Y-48696784D01*
X-26126376Y-48532812D01*
X-26161000Y-48358741D01*
X-26161000Y-48181259D01*
X-26126376Y-48007188D01*
X-26058456Y-47843216D01*
X-25959853Y-47695646D01*
X-25834354Y-47570147D01*
X-25686784Y-47471544D01*
X-25522812Y-47403624D01*
X-25373512Y-47373927D01*
X-25348742Y-47369000D01*
X-25171258Y-47369000D01*
X-25146488Y-47373927D01*
G37*
G36*
X-4826488Y-47373927D02*
G01*
X-4677188Y-47403624D01*
X-4513216Y-47471544D01*
X-4365646Y-47570147D01*
X-4240147Y-47695646D01*
X-4141544Y-47843216D01*
X-4073624Y-48007188D01*
X-4039000Y-48181259D01*
X-4039000Y-48358741D01*
X-4073624Y-48532812D01*
X-4141544Y-48696784D01*
X-4240147Y-48844354D01*
X-4365646Y-48969853D01*
X-4513216Y-49068456D01*
X-4677188Y-49136376D01*
X-4826488Y-49166073D01*
X-4851258Y-49171000D01*
X-5028742Y-49171000D01*
X-5053512Y-49166073D01*
X-5202812Y-49136376D01*
X-5366784Y-49068456D01*
X-5514354Y-48969853D01*
X-5639853Y-48844354D01*
X-5738456Y-48696784D01*
X-5806376Y-48532812D01*
X-5841000Y-48358741D01*
X-5841000Y-48181259D01*
X-5806376Y-48007188D01*
X-5738456Y-47843216D01*
X-5639853Y-47695646D01*
X-5514354Y-47570147D01*
X-5366784Y-47471544D01*
X-5202812Y-47403624D01*
X-5053512Y-47373927D01*
X-5028742Y-47369000D01*
X-4851258Y-47369000D01*
X-4826488Y-47373927D01*
G37*
G36*
X-27686488Y-47373927D02*
G01*
X-27537188Y-47403624D01*
X-27373216Y-47471544D01*
X-27225646Y-47570147D01*
X-27100147Y-47695646D01*
X-27001544Y-47843216D01*
X-26933624Y-48007188D01*
X-26899000Y-48181259D01*
X-26899000Y-48358741D01*
X-26933624Y-48532812D01*
X-27001544Y-48696784D01*
X-27100147Y-48844354D01*
X-27225646Y-48969853D01*
X-27373216Y-49068456D01*
X-27537188Y-49136376D01*
X-27686488Y-49166073D01*
X-27711258Y-49171000D01*
X-27888742Y-49171000D01*
X-27913512Y-49166073D01*
X-28062812Y-49136376D01*
X-28226784Y-49068456D01*
X-28374354Y-48969853D01*
X-28499853Y-48844354D01*
X-28598456Y-48696784D01*
X-28666376Y-48532812D01*
X-28701000Y-48358741D01*
X-28701000Y-48181259D01*
X-28666376Y-48007188D01*
X-28598456Y-47843216D01*
X-28499853Y-47695646D01*
X-28374354Y-47570147D01*
X-28226784Y-47471544D01*
X-28062812Y-47403624D01*
X-27913512Y-47373927D01*
X-27888742Y-47369000D01*
X-27711258Y-47369000D01*
X-27686488Y-47373927D01*
G37*
G36*
X-30226488Y-47373927D02*
G01*
X-30077188Y-47403624D01*
X-29913216Y-47471544D01*
X-29765646Y-47570147D01*
X-29640147Y-47695646D01*
X-29541544Y-47843216D01*
X-29473624Y-48007188D01*
X-29439000Y-48181259D01*
X-29439000Y-48358741D01*
X-29473624Y-48532812D01*
X-29541544Y-48696784D01*
X-29640147Y-48844354D01*
X-29765646Y-48969853D01*
X-29913216Y-49068456D01*
X-30077188Y-49136376D01*
X-30226488Y-49166073D01*
X-30251258Y-49171000D01*
X-30428742Y-49171000D01*
X-30453512Y-49166073D01*
X-30602812Y-49136376D01*
X-30766784Y-49068456D01*
X-30914354Y-48969853D01*
X-31039853Y-48844354D01*
X-31138456Y-48696784D01*
X-31206376Y-48532812D01*
X-31241000Y-48358741D01*
X-31241000Y-48181259D01*
X-31206376Y-48007188D01*
X-31138456Y-47843216D01*
X-31039853Y-47695646D01*
X-30914354Y-47570147D01*
X-30766784Y-47471544D01*
X-30602812Y-47403624D01*
X-30453512Y-47373927D01*
X-30428742Y-47369000D01*
X-30251258Y-47369000D01*
X-30226488Y-47373927D01*
G37*
G36*
X-35306488Y-47373927D02*
G01*
X-35157188Y-47403624D01*
X-34993216Y-47471544D01*
X-34845646Y-47570147D01*
X-34720147Y-47695646D01*
X-34621544Y-47843216D01*
X-34553624Y-48007188D01*
X-34519000Y-48181259D01*
X-34519000Y-48358741D01*
X-34553624Y-48532812D01*
X-34621544Y-48696784D01*
X-34720147Y-48844354D01*
X-34845646Y-48969853D01*
X-34993216Y-49068456D01*
X-35157188Y-49136376D01*
X-35306488Y-49166073D01*
X-35331258Y-49171000D01*
X-35508742Y-49171000D01*
X-35533512Y-49166073D01*
X-35682812Y-49136376D01*
X-35846784Y-49068456D01*
X-35994354Y-48969853D01*
X-36119853Y-48844354D01*
X-36218456Y-48696784D01*
X-36286376Y-48532812D01*
X-36321000Y-48358741D01*
X-36321000Y-48181259D01*
X-36286376Y-48007188D01*
X-36218456Y-47843216D01*
X-36119853Y-47695646D01*
X-35994354Y-47570147D01*
X-35846784Y-47471544D01*
X-35682812Y-47403624D01*
X-35533512Y-47373927D01*
X-35508742Y-47369000D01*
X-35331258Y-47369000D01*
X-35306488Y-47373927D01*
G37*
G36*
X-32766488Y-47373927D02*
G01*
X-32617188Y-47403624D01*
X-32453216Y-47471544D01*
X-32305646Y-47570147D01*
X-32180147Y-47695646D01*
X-32081544Y-47843216D01*
X-32013624Y-48007188D01*
X-31979000Y-48181259D01*
X-31979000Y-48358741D01*
X-32013624Y-48532812D01*
X-32081544Y-48696784D01*
X-32180147Y-48844354D01*
X-32305646Y-48969853D01*
X-32453216Y-49068456D01*
X-32617188Y-49136376D01*
X-32766488Y-49166073D01*
X-32791258Y-49171000D01*
X-32968742Y-49171000D01*
X-32993512Y-49166073D01*
X-33142812Y-49136376D01*
X-33306784Y-49068456D01*
X-33454354Y-48969853D01*
X-33579853Y-48844354D01*
X-33678456Y-48696784D01*
X-33746376Y-48532812D01*
X-33781000Y-48358741D01*
X-33781000Y-48181259D01*
X-33746376Y-48007188D01*
X-33678456Y-47843216D01*
X-33579853Y-47695646D01*
X-33454354Y-47570147D01*
X-33306784Y-47471544D01*
X-33142812Y-47403624D01*
X-32993512Y-47373927D01*
X-32968742Y-47369000D01*
X-32791258Y-47369000D01*
X-32766488Y-47373927D01*
G37*
G36*
X-12446488Y-47373927D02*
G01*
X-12297188Y-47403624D01*
X-12133216Y-47471544D01*
X-11985646Y-47570147D01*
X-11860147Y-47695646D01*
X-11761544Y-47843216D01*
X-11693624Y-48007188D01*
X-11659000Y-48181259D01*
X-11659000Y-48358741D01*
X-11693624Y-48532812D01*
X-11761544Y-48696784D01*
X-11860147Y-48844354D01*
X-11985646Y-48969853D01*
X-12133216Y-49068456D01*
X-12297188Y-49136376D01*
X-12446488Y-49166073D01*
X-12471258Y-49171000D01*
X-12648742Y-49171000D01*
X-12673512Y-49166073D01*
X-12822812Y-49136376D01*
X-12986784Y-49068456D01*
X-13134354Y-48969853D01*
X-13259853Y-48844354D01*
X-13358456Y-48696784D01*
X-13426376Y-48532812D01*
X-13461000Y-48358741D01*
X-13461000Y-48181259D01*
X-13426376Y-48007188D01*
X-13358456Y-47843216D01*
X-13259853Y-47695646D01*
X-13134354Y-47570147D01*
X-12986784Y-47471544D01*
X-12822812Y-47403624D01*
X-12673512Y-47373927D01*
X-12648742Y-47369000D01*
X-12471258Y-47369000D01*
X-12446488Y-47373927D01*
G37*
G36*
X-55559000Y-36571000D02*
G01*
X-57761000Y-36571000D01*
X-57761000Y-34369000D01*
X-55559000Y-34369000D01*
X-55559000Y-36571000D01*
G37*
G36*
X-56445206Y-29390155D02*
G01*
X-56338850Y-29411311D01*
X-56238666Y-29452809D01*
X-56138480Y-29494307D01*
X-55958156Y-29614795D01*
X-55804795Y-29768156D01*
X-55684307Y-29948480D01*
X-55601311Y-30148851D01*
X-55559000Y-30361560D01*
X-55559000Y-30578440D01*
X-55601311Y-30791149D01*
X-55684307Y-30991520D01*
X-55804795Y-31171844D01*
X-55958156Y-31325205D01*
X-56138480Y-31445693D01*
X-56238666Y-31487191D01*
X-56338850Y-31528689D01*
X-56445205Y-31549844D01*
X-56551560Y-31571000D01*
X-56768440Y-31571000D01*
X-56874795Y-31549844D01*
X-56981150Y-31528689D01*
X-57181520Y-31445693D01*
X-57361844Y-31325205D01*
X-57515205Y-31171844D01*
X-57635693Y-30991520D01*
X-57718689Y-30791149D01*
X-57761000Y-30578440D01*
X-57761000Y-30361560D01*
X-57718689Y-30148851D01*
X-57635693Y-29948480D01*
X-57515205Y-29768156D01*
X-57361844Y-29614795D01*
X-57181520Y-29494307D01*
X-56981150Y-29411311D01*
X-56874794Y-29390155D01*
X-56768440Y-29369000D01*
X-56551560Y-29369000D01*
X-56445206Y-29390155D01*
G37*
G36*
X347490Y-11547658D02*
G01*
X377302Y-11556701D01*
X404775Y-11571386D01*
X428854Y-11591146D01*
X448614Y-11615225D01*
X463299Y-11642698D01*
X472342Y-11672510D01*
X476000Y-11709650D01*
X476000Y-14030350D01*
X472342Y-14067490D01*
X463299Y-14097302D01*
X448614Y-14124775D01*
X428854Y-14148854D01*
X404775Y-14168614D01*
X377302Y-14183299D01*
X347490Y-14192342D01*
X310350Y-14196000D01*
X-2010350Y-14196000D01*
X-2047490Y-14192342D01*
X-2077302Y-14183299D01*
X-2104775Y-14168614D01*
X-2128854Y-14148854D01*
X-2148614Y-14124775D01*
X-2163299Y-14097302D01*
X-2172342Y-14067490D01*
X-2176000Y-14030350D01*
X-2176000Y-11709650D01*
X-2172342Y-11672510D01*
X-2163299Y-11642698D01*
X-2148614Y-11615225D01*
X-2128854Y-11591146D01*
X-2104775Y-11571386D01*
X-2077302Y-11556701D01*
X-2047490Y-11547658D01*
X-2010350Y-11544000D01*
X310350Y-11544000D01*
X347490Y-11547658D01*
G37*
G36*
X-4826488Y-8403927D02*
G01*
X-4677188Y-8433624D01*
X-4513216Y-8501544D01*
X-4365646Y-8600147D01*
X-4240147Y-8725646D01*
X-4141544Y-8873216D01*
X-4073624Y-9037188D01*
X-4039000Y-9211259D01*
X-4039000Y-9388741D01*
X-4073624Y-9562812D01*
X-4141544Y-9726784D01*
X-4240147Y-9874354D01*
X-4365646Y-9999853D01*
X-4513216Y-10098456D01*
X-4677188Y-10166376D01*
X-4826488Y-10196073D01*
X-4851258Y-10201000D01*
X-5028742Y-10201000D01*
X-5053512Y-10196073D01*
X-5202812Y-10166376D01*
X-5366784Y-10098456D01*
X-5514354Y-9999853D01*
X-5639853Y-9874354D01*
X-5738456Y-9726784D01*
X-5806376Y-9562812D01*
X-5841000Y-9388741D01*
X-5841000Y-9211259D01*
X-5806376Y-9037188D01*
X-5738456Y-8873216D01*
X-5639853Y-8725646D01*
X-5514354Y-8600147D01*
X-5366784Y-8501544D01*
X-5202812Y-8433624D01*
X-5053512Y-8403927D01*
X-5028742Y-8399000D01*
X-4851258Y-8399000D01*
X-4826488Y-8403927D01*
G37*
G36*
X-52299000Y-10201000D02*
G01*
X-54101000Y-10201000D01*
X-54101000Y-8399000D01*
X-52299000Y-8399000D01*
X-52299000Y-10201000D01*
G37*
G36*
X-9906488Y-8403927D02*
G01*
X-9757188Y-8433624D01*
X-9593216Y-8501544D01*
X-9445646Y-8600147D01*
X-9320147Y-8725646D01*
X-9221544Y-8873216D01*
X-9153624Y-9037188D01*
X-9119000Y-9211259D01*
X-9119000Y-9388741D01*
X-9153624Y-9562812D01*
X-9221544Y-9726784D01*
X-9320147Y-9874354D01*
X-9445646Y-9999853D01*
X-9593216Y-10098456D01*
X-9757188Y-10166376D01*
X-9906488Y-10196073D01*
X-9931258Y-10201000D01*
X-10108742Y-10201000D01*
X-10133512Y-10196073D01*
X-10282812Y-10166376D01*
X-10446784Y-10098456D01*
X-10594354Y-9999853D01*
X-10719853Y-9874354D01*
X-10818456Y-9726784D01*
X-10886376Y-9562812D01*
X-10921000Y-9388741D01*
X-10921000Y-9211259D01*
X-10886376Y-9037188D01*
X-10818456Y-8873216D01*
X-10719853Y-8725646D01*
X-10594354Y-8600147D01*
X-10446784Y-8501544D01*
X-10282812Y-8433624D01*
X-10133512Y-8403927D01*
X-10108742Y-8399000D01*
X-9931258Y-8399000D01*
X-9906488Y-8403927D01*
G37*
G36*
X-12446488Y-8403927D02*
G01*
X-12297188Y-8433624D01*
X-12133216Y-8501544D01*
X-11985646Y-8600147D01*
X-11860147Y-8725646D01*
X-11761544Y-8873216D01*
X-11693624Y-9037188D01*
X-11659000Y-9211259D01*
X-11659000Y-9388741D01*
X-11693624Y-9562812D01*
X-11761544Y-9726784D01*
X-11860147Y-9874354D01*
X-11985646Y-9999853D01*
X-12133216Y-10098456D01*
X-12297188Y-10166376D01*
X-12446488Y-10196073D01*
X-12471258Y-10201000D01*
X-12648742Y-10201000D01*
X-12673512Y-10196073D01*
X-12822812Y-10166376D01*
X-12986784Y-10098456D01*
X-13134354Y-9999853D01*
X-13259853Y-9874354D01*
X-13358456Y-9726784D01*
X-13426376Y-9562812D01*
X-13461000Y-9388741D01*
X-13461000Y-9211259D01*
X-13426376Y-9037188D01*
X-13358456Y-8873216D01*
X-13259853Y-8725646D01*
X-13134354Y-8600147D01*
X-12986784Y-8501544D01*
X-12822812Y-8433624D01*
X-12673512Y-8403927D01*
X-12648742Y-8399000D01*
X-12471258Y-8399000D01*
X-12446488Y-8403927D01*
G37*
G36*
X-14986488Y-8403927D02*
G01*
X-14837188Y-8433624D01*
X-14673216Y-8501544D01*
X-14525646Y-8600147D01*
X-14400147Y-8725646D01*
X-14301544Y-8873216D01*
X-14233624Y-9037188D01*
X-14199000Y-9211259D01*
X-14199000Y-9388741D01*
X-14233624Y-9562812D01*
X-14301544Y-9726784D01*
X-14400147Y-9874354D01*
X-14525646Y-9999853D01*
X-14673216Y-10098456D01*
X-14837188Y-10166376D01*
X-14986488Y-10196073D01*
X-15011258Y-10201000D01*
X-15188742Y-10201000D01*
X-15213512Y-10196073D01*
X-15362812Y-10166376D01*
X-15526784Y-10098456D01*
X-15674354Y-9999853D01*
X-15799853Y-9874354D01*
X-15898456Y-9726784D01*
X-15966376Y-9562812D01*
X-16001000Y-9388741D01*
X-16001000Y-9211259D01*
X-15966376Y-9037188D01*
X-15898456Y-8873216D01*
X-15799853Y-8725646D01*
X-15674354Y-8600147D01*
X-15526784Y-8501544D01*
X-15362812Y-8433624D01*
X-15213512Y-8403927D01*
X-15188742Y-8399000D01*
X-15011258Y-8399000D01*
X-14986488Y-8403927D01*
G37*
G36*
X-17526488Y-8403927D02*
G01*
X-17377188Y-8433624D01*
X-17213216Y-8501544D01*
X-17065646Y-8600147D01*
X-16940147Y-8725646D01*
X-16841544Y-8873216D01*
X-16773624Y-9037188D01*
X-16739000Y-9211259D01*
X-16739000Y-9388741D01*
X-16773624Y-9562812D01*
X-16841544Y-9726784D01*
X-16940147Y-9874354D01*
X-17065646Y-9999853D01*
X-17213216Y-10098456D01*
X-17377188Y-10166376D01*
X-17526488Y-10196073D01*
X-17551258Y-10201000D01*
X-17728742Y-10201000D01*
X-17753512Y-10196073D01*
X-17902812Y-10166376D01*
X-18066784Y-10098456D01*
X-18214354Y-9999853D01*
X-18339853Y-9874354D01*
X-18438456Y-9726784D01*
X-18506376Y-9562812D01*
X-18541000Y-9388741D01*
X-18541000Y-9211259D01*
X-18506376Y-9037188D01*
X-18438456Y-8873216D01*
X-18339853Y-8725646D01*
X-18214354Y-8600147D01*
X-18066784Y-8501544D01*
X-17902812Y-8433624D01*
X-17753512Y-8403927D01*
X-17728742Y-8399000D01*
X-17551258Y-8399000D01*
X-17526488Y-8403927D01*
G37*
G36*
X-20066488Y-8403927D02*
G01*
X-19917188Y-8433624D01*
X-19753216Y-8501544D01*
X-19605646Y-8600147D01*
X-19480147Y-8725646D01*
X-19381544Y-8873216D01*
X-19313624Y-9037188D01*
X-19279000Y-9211259D01*
X-19279000Y-9388741D01*
X-19313624Y-9562812D01*
X-19381544Y-9726784D01*
X-19480147Y-9874354D01*
X-19605646Y-9999853D01*
X-19753216Y-10098456D01*
X-19917188Y-10166376D01*
X-20066488Y-10196073D01*
X-20091258Y-10201000D01*
X-20268742Y-10201000D01*
X-20293512Y-10196073D01*
X-20442812Y-10166376D01*
X-20606784Y-10098456D01*
X-20754354Y-9999853D01*
X-20879853Y-9874354D01*
X-20978456Y-9726784D01*
X-21046376Y-9562812D01*
X-21081000Y-9388741D01*
X-21081000Y-9211259D01*
X-21046376Y-9037188D01*
X-20978456Y-8873216D01*
X-20879853Y-8725646D01*
X-20754354Y-8600147D01*
X-20606784Y-8501544D01*
X-20442812Y-8433624D01*
X-20293512Y-8403927D01*
X-20268742Y-8399000D01*
X-20091258Y-8399000D01*
X-20066488Y-8403927D01*
G37*
G36*
X-22606488Y-8403927D02*
G01*
X-22457188Y-8433624D01*
X-22293216Y-8501544D01*
X-22145646Y-8600147D01*
X-22020147Y-8725646D01*
X-21921544Y-8873216D01*
X-21853624Y-9037188D01*
X-21819000Y-9211259D01*
X-21819000Y-9388741D01*
X-21853624Y-9562812D01*
X-21921544Y-9726784D01*
X-22020147Y-9874354D01*
X-22145646Y-9999853D01*
X-22293216Y-10098456D01*
X-22457188Y-10166376D01*
X-22606488Y-10196073D01*
X-22631258Y-10201000D01*
X-22808742Y-10201000D01*
X-22833512Y-10196073D01*
X-22982812Y-10166376D01*
X-23146784Y-10098456D01*
X-23294354Y-9999853D01*
X-23419853Y-9874354D01*
X-23518456Y-9726784D01*
X-23586376Y-9562812D01*
X-23621000Y-9388741D01*
X-23621000Y-9211259D01*
X-23586376Y-9037188D01*
X-23518456Y-8873216D01*
X-23419853Y-8725646D01*
X-23294354Y-8600147D01*
X-23146784Y-8501544D01*
X-22982812Y-8433624D01*
X-22833512Y-8403927D01*
X-22808742Y-8399000D01*
X-22631258Y-8399000D01*
X-22606488Y-8403927D01*
G37*
G36*
X-25146488Y-8403927D02*
G01*
X-24997188Y-8433624D01*
X-24833216Y-8501544D01*
X-24685646Y-8600147D01*
X-24560147Y-8725646D01*
X-24461544Y-8873216D01*
X-24393624Y-9037188D01*
X-24359000Y-9211259D01*
X-24359000Y-9388741D01*
X-24393624Y-9562812D01*
X-24461544Y-9726784D01*
X-24560147Y-9874354D01*
X-24685646Y-9999853D01*
X-24833216Y-10098456D01*
X-24997188Y-10166376D01*
X-25146488Y-10196073D01*
X-25171258Y-10201000D01*
X-25348742Y-10201000D01*
X-25373512Y-10196073D01*
X-25522812Y-10166376D01*
X-25686784Y-10098456D01*
X-25834354Y-9999853D01*
X-25959853Y-9874354D01*
X-26058456Y-9726784D01*
X-26126376Y-9562812D01*
X-26161000Y-9388741D01*
X-26161000Y-9211259D01*
X-26126376Y-9037188D01*
X-26058456Y-8873216D01*
X-25959853Y-8725646D01*
X-25834354Y-8600147D01*
X-25686784Y-8501544D01*
X-25522812Y-8433624D01*
X-25373512Y-8403927D01*
X-25348742Y-8399000D01*
X-25171258Y-8399000D01*
X-25146488Y-8403927D01*
G37*
G36*
X-27686488Y-8403927D02*
G01*
X-27537188Y-8433624D01*
X-27373216Y-8501544D01*
X-27225646Y-8600147D01*
X-27100147Y-8725646D01*
X-27001544Y-8873216D01*
X-26933624Y-9037188D01*
X-26899000Y-9211259D01*
X-26899000Y-9388741D01*
X-26933624Y-9562812D01*
X-27001544Y-9726784D01*
X-27100147Y-9874354D01*
X-27225646Y-9999853D01*
X-27373216Y-10098456D01*
X-27537188Y-10166376D01*
X-27686488Y-10196073D01*
X-27711258Y-10201000D01*
X-27888742Y-10201000D01*
X-27913512Y-10196073D01*
X-28062812Y-10166376D01*
X-28226784Y-10098456D01*
X-28374354Y-9999853D01*
X-28499853Y-9874354D01*
X-28598456Y-9726784D01*
X-28666376Y-9562812D01*
X-28701000Y-9388741D01*
X-28701000Y-9211259D01*
X-28666376Y-9037188D01*
X-28598456Y-8873216D01*
X-28499853Y-8725646D01*
X-28374354Y-8600147D01*
X-28226784Y-8501544D01*
X-28062812Y-8433624D01*
X-27913512Y-8403927D01*
X-27888742Y-8399000D01*
X-27711258Y-8399000D01*
X-27686488Y-8403927D01*
G37*
G36*
X-32766488Y-8403927D02*
G01*
X-32617188Y-8433624D01*
X-32453216Y-8501544D01*
X-32305646Y-8600147D01*
X-32180147Y-8725646D01*
X-32081544Y-8873216D01*
X-32013624Y-9037188D01*
X-31979000Y-9211259D01*
X-31979000Y-9388741D01*
X-32013624Y-9562812D01*
X-32081544Y-9726784D01*
X-32180147Y-9874354D01*
X-32305646Y-9999853D01*
X-32453216Y-10098456D01*
X-32617188Y-10166376D01*
X-32766488Y-10196073D01*
X-32791258Y-10201000D01*
X-32968742Y-10201000D01*
X-32993512Y-10196073D01*
X-33142812Y-10166376D01*
X-33306784Y-10098456D01*
X-33454354Y-9999853D01*
X-33579853Y-9874354D01*
X-33678456Y-9726784D01*
X-33746376Y-9562812D01*
X-33781000Y-9388741D01*
X-33781000Y-9211259D01*
X-33746376Y-9037188D01*
X-33678456Y-8873216D01*
X-33579853Y-8725646D01*
X-33454354Y-8600147D01*
X-33306784Y-8501544D01*
X-33142812Y-8433624D01*
X-32993512Y-8403927D01*
X-32968742Y-8399000D01*
X-32791258Y-8399000D01*
X-32766488Y-8403927D01*
G37*
G36*
X-30226488Y-8403927D02*
G01*
X-30077188Y-8433624D01*
X-29913216Y-8501544D01*
X-29765646Y-8600147D01*
X-29640147Y-8725646D01*
X-29541544Y-8873216D01*
X-29473624Y-9037188D01*
X-29439000Y-9211259D01*
X-29439000Y-9388741D01*
X-29473624Y-9562812D01*
X-29541544Y-9726784D01*
X-29640147Y-9874354D01*
X-29765646Y-9999853D01*
X-29913216Y-10098456D01*
X-30077188Y-10166376D01*
X-30226488Y-10196073D01*
X-30251258Y-10201000D01*
X-30428742Y-10201000D01*
X-30453512Y-10196073D01*
X-30602812Y-10166376D01*
X-30766784Y-10098456D01*
X-30914354Y-9999853D01*
X-31039853Y-9874354D01*
X-31138456Y-9726784D01*
X-31206376Y-9562812D01*
X-31241000Y-9388741D01*
X-31241000Y-9211259D01*
X-31206376Y-9037188D01*
X-31138456Y-8873216D01*
X-31039853Y-8725646D01*
X-30914354Y-8600147D01*
X-30766784Y-8501544D01*
X-30602812Y-8433624D01*
X-30453512Y-8403927D01*
X-30428742Y-8399000D01*
X-30251258Y-8399000D01*
X-30226488Y-8403927D01*
G37*
G36*
X-50546488Y-8403927D02*
G01*
X-50397188Y-8433624D01*
X-50233216Y-8501544D01*
X-50085646Y-8600147D01*
X-49960147Y-8725646D01*
X-49861544Y-8873216D01*
X-49793624Y-9037188D01*
X-49759000Y-9211259D01*
X-49759000Y-9388741D01*
X-49793624Y-9562812D01*
X-49861544Y-9726784D01*
X-49960147Y-9874354D01*
X-50085646Y-9999853D01*
X-50233216Y-10098456D01*
X-50397188Y-10166376D01*
X-50546488Y-10196073D01*
X-50571258Y-10201000D01*
X-50748742Y-10201000D01*
X-50773512Y-10196073D01*
X-50922812Y-10166376D01*
X-51086784Y-10098456D01*
X-51234354Y-9999853D01*
X-51359853Y-9874354D01*
X-51458456Y-9726784D01*
X-51526376Y-9562812D01*
X-51561000Y-9388741D01*
X-51561000Y-9211259D01*
X-51526376Y-9037188D01*
X-51458456Y-8873216D01*
X-51359853Y-8725646D01*
X-51234354Y-8600147D01*
X-51086784Y-8501544D01*
X-50922812Y-8433624D01*
X-50773512Y-8403927D01*
X-50748742Y-8399000D01*
X-50571258Y-8399000D01*
X-50546488Y-8403927D01*
G37*
G36*
X-7366488Y-8403927D02*
G01*
X-7217188Y-8433624D01*
X-7053216Y-8501544D01*
X-6905646Y-8600147D01*
X-6780147Y-8725646D01*
X-6681544Y-8873216D01*
X-6613624Y-9037188D01*
X-6579000Y-9211259D01*
X-6579000Y-9388741D01*
X-6613624Y-9562812D01*
X-6681544Y-9726784D01*
X-6780147Y-9874354D01*
X-6905646Y-9999853D01*
X-7053216Y-10098456D01*
X-7217188Y-10166376D01*
X-7366488Y-10196073D01*
X-7391258Y-10201000D01*
X-7568742Y-10201000D01*
X-7593512Y-10196073D01*
X-7742812Y-10166376D01*
X-7906784Y-10098456D01*
X-8054354Y-9999853D01*
X-8179853Y-9874354D01*
X-8278456Y-9726784D01*
X-8346376Y-9562812D01*
X-8381000Y-9388741D01*
X-8381000Y-9211259D01*
X-8346376Y-9037188D01*
X-8278456Y-8873216D01*
X-8179853Y-8725646D01*
X-8054354Y-8600147D01*
X-7906784Y-8501544D01*
X-7742812Y-8433624D01*
X-7593512Y-8403927D01*
X-7568742Y-8399000D01*
X-7391258Y-8399000D01*
X-7366488Y-8403927D01*
G37*
G36*
X-48006488Y-8403927D02*
G01*
X-47857188Y-8433624D01*
X-47693216Y-8501544D01*
X-47545646Y-8600147D01*
X-47420147Y-8725646D01*
X-47321544Y-8873216D01*
X-47253624Y-9037188D01*
X-47219000Y-9211259D01*
X-47219000Y-9388741D01*
X-47253624Y-9562812D01*
X-47321544Y-9726784D01*
X-47420147Y-9874354D01*
X-47545646Y-9999853D01*
X-47693216Y-10098456D01*
X-47857188Y-10166376D01*
X-48006488Y-10196073D01*
X-48031258Y-10201000D01*
X-48208742Y-10201000D01*
X-48233512Y-10196073D01*
X-48382812Y-10166376D01*
X-48546784Y-10098456D01*
X-48694354Y-9999853D01*
X-48819853Y-9874354D01*
X-48918456Y-9726784D01*
X-48986376Y-9562812D01*
X-49021000Y-9388741D01*
X-49021000Y-9211259D01*
X-48986376Y-9037188D01*
X-48918456Y-8873216D01*
X-48819853Y-8725646D01*
X-48694354Y-8600147D01*
X-48546784Y-8501544D01*
X-48382812Y-8433624D01*
X-48233512Y-8403927D01*
X-48208742Y-8399000D01*
X-48031258Y-8399000D01*
X-48006488Y-8403927D01*
G37*
G36*
X-45466488Y-8403927D02*
G01*
X-45317188Y-8433624D01*
X-45153216Y-8501544D01*
X-45005646Y-8600147D01*
X-44880147Y-8725646D01*
X-44781544Y-8873216D01*
X-44713624Y-9037188D01*
X-44679000Y-9211259D01*
X-44679000Y-9388741D01*
X-44713624Y-9562812D01*
X-44781544Y-9726784D01*
X-44880147Y-9874354D01*
X-45005646Y-9999853D01*
X-45153216Y-10098456D01*
X-45317188Y-10166376D01*
X-45466488Y-10196073D01*
X-45491258Y-10201000D01*
X-45668742Y-10201000D01*
X-45693512Y-10196073D01*
X-45842812Y-10166376D01*
X-46006784Y-10098456D01*
X-46154354Y-9999853D01*
X-46279853Y-9874354D01*
X-46378456Y-9726784D01*
X-46446376Y-9562812D01*
X-46481000Y-9388741D01*
X-46481000Y-9211259D01*
X-46446376Y-9037188D01*
X-46378456Y-8873216D01*
X-46279853Y-8725646D01*
X-46154354Y-8600147D01*
X-46006784Y-8501544D01*
X-45842812Y-8433624D01*
X-45693512Y-8403927D01*
X-45668742Y-8399000D01*
X-45491258Y-8399000D01*
X-45466488Y-8403927D01*
G37*
G36*
X-42926488Y-8403927D02*
G01*
X-42777188Y-8433624D01*
X-42613216Y-8501544D01*
X-42465646Y-8600147D01*
X-42340147Y-8725646D01*
X-42241544Y-8873216D01*
X-42173624Y-9037188D01*
X-42139000Y-9211259D01*
X-42139000Y-9388741D01*
X-42173624Y-9562812D01*
X-42241544Y-9726784D01*
X-42340147Y-9874354D01*
X-42465646Y-9999853D01*
X-42613216Y-10098456D01*
X-42777188Y-10166376D01*
X-42926488Y-10196073D01*
X-42951258Y-10201000D01*
X-43128742Y-10201000D01*
X-43153512Y-10196073D01*
X-43302812Y-10166376D01*
X-43466784Y-10098456D01*
X-43614354Y-9999853D01*
X-43739853Y-9874354D01*
X-43838456Y-9726784D01*
X-43906376Y-9562812D01*
X-43941000Y-9388741D01*
X-43941000Y-9211259D01*
X-43906376Y-9037188D01*
X-43838456Y-8873216D01*
X-43739853Y-8725646D01*
X-43614354Y-8600147D01*
X-43466784Y-8501544D01*
X-43302812Y-8433624D01*
X-43153512Y-8403927D01*
X-43128742Y-8399000D01*
X-42951258Y-8399000D01*
X-42926488Y-8403927D01*
G37*
G36*
X-40386488Y-8403927D02*
G01*
X-40237188Y-8433624D01*
X-40073216Y-8501544D01*
X-39925646Y-8600147D01*
X-39800147Y-8725646D01*
X-39701544Y-8873216D01*
X-39633624Y-9037188D01*
X-39599000Y-9211259D01*
X-39599000Y-9388741D01*
X-39633624Y-9562812D01*
X-39701544Y-9726784D01*
X-39800147Y-9874354D01*
X-39925646Y-9999853D01*
X-40073216Y-10098456D01*
X-40237188Y-10166376D01*
X-40386488Y-10196073D01*
X-40411258Y-10201000D01*
X-40588742Y-10201000D01*
X-40613512Y-10196073D01*
X-40762812Y-10166376D01*
X-40926784Y-10098456D01*
X-41074354Y-9999853D01*
X-41199853Y-9874354D01*
X-41298456Y-9726784D01*
X-41366376Y-9562812D01*
X-41401000Y-9388741D01*
X-41401000Y-9211259D01*
X-41366376Y-9037188D01*
X-41298456Y-8873216D01*
X-41199853Y-8725646D01*
X-41074354Y-8600147D01*
X-40926784Y-8501544D01*
X-40762812Y-8433624D01*
X-40613512Y-8403927D01*
X-40588742Y-8399000D01*
X-40411258Y-8399000D01*
X-40386488Y-8403927D01*
G37*
G36*
X-37846488Y-8403927D02*
G01*
X-37697188Y-8433624D01*
X-37533216Y-8501544D01*
X-37385646Y-8600147D01*
X-37260147Y-8725646D01*
X-37161544Y-8873216D01*
X-37093624Y-9037188D01*
X-37059000Y-9211259D01*
X-37059000Y-9388741D01*
X-37093624Y-9562812D01*
X-37161544Y-9726784D01*
X-37260147Y-9874354D01*
X-37385646Y-9999853D01*
X-37533216Y-10098456D01*
X-37697188Y-10166376D01*
X-37846488Y-10196073D01*
X-37871258Y-10201000D01*
X-38048742Y-10201000D01*
X-38073512Y-10196073D01*
X-38222812Y-10166376D01*
X-38386784Y-10098456D01*
X-38534354Y-9999853D01*
X-38659853Y-9874354D01*
X-38758456Y-9726784D01*
X-38826376Y-9562812D01*
X-38861000Y-9388741D01*
X-38861000Y-9211259D01*
X-38826376Y-9037188D01*
X-38758456Y-8873216D01*
X-38659853Y-8725646D01*
X-38534354Y-8600147D01*
X-38386784Y-8501544D01*
X-38222812Y-8433624D01*
X-38073512Y-8403927D01*
X-38048742Y-8399000D01*
X-37871258Y-8399000D01*
X-37846488Y-8403927D01*
G37*
G36*
X-35306488Y-8403927D02*
G01*
X-35157188Y-8433624D01*
X-34993216Y-8501544D01*
X-34845646Y-8600147D01*
X-34720147Y-8725646D01*
X-34621544Y-8873216D01*
X-34553624Y-9037188D01*
X-34519000Y-9211259D01*
X-34519000Y-9388741D01*
X-34553624Y-9562812D01*
X-34621544Y-9726784D01*
X-34720147Y-9874354D01*
X-34845646Y-9999853D01*
X-34993216Y-10098456D01*
X-35157188Y-10166376D01*
X-35306488Y-10196073D01*
X-35331258Y-10201000D01*
X-35508742Y-10201000D01*
X-35533512Y-10196073D01*
X-35682812Y-10166376D01*
X-35846784Y-10098456D01*
X-35994354Y-9999853D01*
X-36119853Y-9874354D01*
X-36218456Y-9726784D01*
X-36286376Y-9562812D01*
X-36321000Y-9388741D01*
X-36321000Y-9211259D01*
X-36286376Y-9037188D01*
X-36218456Y-8873216D01*
X-36119853Y-8725646D01*
X-35994354Y-8600147D01*
X-35846784Y-8501544D01*
X-35682812Y-8433624D01*
X-35533512Y-8403927D01*
X-35508742Y-8399000D01*
X-35331258Y-8399000D01*
X-35306488Y-8403927D01*
G37*
G36*
X-30226488Y-5863927D02*
G01*
X-30077188Y-5893624D01*
X-29913216Y-5961544D01*
X-29765646Y-6060147D01*
X-29640147Y-6185646D01*
X-29541544Y-6333216D01*
X-29473624Y-6497188D01*
X-29439000Y-6671259D01*
X-29439000Y-6848741D01*
X-29473624Y-7022812D01*
X-29541544Y-7186784D01*
X-29640147Y-7334354D01*
X-29765646Y-7459853D01*
X-29913216Y-7558456D01*
X-30077188Y-7626376D01*
X-30226488Y-7656073D01*
X-30251258Y-7661000D01*
X-30428742Y-7661000D01*
X-30453512Y-7656073D01*
X-30602812Y-7626376D01*
X-30766784Y-7558456D01*
X-30914354Y-7459853D01*
X-31039853Y-7334354D01*
X-31138456Y-7186784D01*
X-31206376Y-7022812D01*
X-31241000Y-6848741D01*
X-31241000Y-6671259D01*
X-31206376Y-6497188D01*
X-31138456Y-6333216D01*
X-31039853Y-6185646D01*
X-30914354Y-6060147D01*
X-30766784Y-5961544D01*
X-30602812Y-5893624D01*
X-30453512Y-5863927D01*
X-30428742Y-5859000D01*
X-30251258Y-5859000D01*
X-30226488Y-5863927D01*
G37*
G36*
X-4826488Y-5863927D02*
G01*
X-4677188Y-5893624D01*
X-4513216Y-5961544D01*
X-4365646Y-6060147D01*
X-4240147Y-6185646D01*
X-4141544Y-6333216D01*
X-4073624Y-6497188D01*
X-4039000Y-6671259D01*
X-4039000Y-6848741D01*
X-4073624Y-7022812D01*
X-4141544Y-7186784D01*
X-4240147Y-7334354D01*
X-4365646Y-7459853D01*
X-4513216Y-7558456D01*
X-4677188Y-7626376D01*
X-4826488Y-7656073D01*
X-4851258Y-7661000D01*
X-5028742Y-7661000D01*
X-5053512Y-7656073D01*
X-5202812Y-7626376D01*
X-5366784Y-7558456D01*
X-5514354Y-7459853D01*
X-5639853Y-7334354D01*
X-5738456Y-7186784D01*
X-5806376Y-7022812D01*
X-5841000Y-6848741D01*
X-5841000Y-6671259D01*
X-5806376Y-6497188D01*
X-5738456Y-6333216D01*
X-5639853Y-6185646D01*
X-5514354Y-6060147D01*
X-5366784Y-5961544D01*
X-5202812Y-5893624D01*
X-5053512Y-5863927D01*
X-5028742Y-5859000D01*
X-4851258Y-5859000D01*
X-4826488Y-5863927D01*
G37*
G36*
X-9906488Y-5863927D02*
G01*
X-9757188Y-5893624D01*
X-9593216Y-5961544D01*
X-9445646Y-6060147D01*
X-9320147Y-6185646D01*
X-9221544Y-6333216D01*
X-9153624Y-6497188D01*
X-9119000Y-6671259D01*
X-9119000Y-6848741D01*
X-9153624Y-7022812D01*
X-9221544Y-7186784D01*
X-9320147Y-7334354D01*
X-9445646Y-7459853D01*
X-9593216Y-7558456D01*
X-9757188Y-7626376D01*
X-9906488Y-7656073D01*
X-9931258Y-7661000D01*
X-10108742Y-7661000D01*
X-10133512Y-7656073D01*
X-10282812Y-7626376D01*
X-10446784Y-7558456D01*
X-10594354Y-7459853D01*
X-10719853Y-7334354D01*
X-10818456Y-7186784D01*
X-10886376Y-7022812D01*
X-10921000Y-6848741D01*
X-10921000Y-6671259D01*
X-10886376Y-6497188D01*
X-10818456Y-6333216D01*
X-10719853Y-6185646D01*
X-10594354Y-6060147D01*
X-10446784Y-5961544D01*
X-10282812Y-5893624D01*
X-10133512Y-5863927D01*
X-10108742Y-5859000D01*
X-9931258Y-5859000D01*
X-9906488Y-5863927D01*
G37*
G36*
X-12446488Y-5863927D02*
G01*
X-12297188Y-5893624D01*
X-12133216Y-5961544D01*
X-11985646Y-6060147D01*
X-11860147Y-6185646D01*
X-11761544Y-6333216D01*
X-11693624Y-6497188D01*
X-11659000Y-6671259D01*
X-11659000Y-6848741D01*
X-11693624Y-7022812D01*
X-11761544Y-7186784D01*
X-11860147Y-7334354D01*
X-11985646Y-7459853D01*
X-12133216Y-7558456D01*
X-12297188Y-7626376D01*
X-12446488Y-7656073D01*
X-12471258Y-7661000D01*
X-12648742Y-7661000D01*
X-12673512Y-7656073D01*
X-12822812Y-7626376D01*
X-12986784Y-7558456D01*
X-13134354Y-7459853D01*
X-13259853Y-7334354D01*
X-13358456Y-7186784D01*
X-13426376Y-7022812D01*
X-13461000Y-6848741D01*
X-13461000Y-6671259D01*
X-13426376Y-6497188D01*
X-13358456Y-6333216D01*
X-13259853Y-6185646D01*
X-13134354Y-6060147D01*
X-12986784Y-5961544D01*
X-12822812Y-5893624D01*
X-12673512Y-5863927D01*
X-12648742Y-5859000D01*
X-12471258Y-5859000D01*
X-12446488Y-5863927D01*
G37*
G36*
X-14986488Y-5863927D02*
G01*
X-14837188Y-5893624D01*
X-14673216Y-5961544D01*
X-14525646Y-6060147D01*
X-14400147Y-6185646D01*
X-14301544Y-6333216D01*
X-14233624Y-6497188D01*
X-14199000Y-6671259D01*
X-14199000Y-6848741D01*
X-14233624Y-7022812D01*
X-14301544Y-7186784D01*
X-14400147Y-7334354D01*
X-14525646Y-7459853D01*
X-14673216Y-7558456D01*
X-14837188Y-7626376D01*
X-14986488Y-7656073D01*
X-15011258Y-7661000D01*
X-15188742Y-7661000D01*
X-15213512Y-7656073D01*
X-15362812Y-7626376D01*
X-15526784Y-7558456D01*
X-15674354Y-7459853D01*
X-15799853Y-7334354D01*
X-15898456Y-7186784D01*
X-15966376Y-7022812D01*
X-16001000Y-6848741D01*
X-16001000Y-6671259D01*
X-15966376Y-6497188D01*
X-15898456Y-6333216D01*
X-15799853Y-6185646D01*
X-15674354Y-6060147D01*
X-15526784Y-5961544D01*
X-15362812Y-5893624D01*
X-15213512Y-5863927D01*
X-15188742Y-5859000D01*
X-15011258Y-5859000D01*
X-14986488Y-5863927D01*
G37*
G36*
X-17526488Y-5863927D02*
G01*
X-17377188Y-5893624D01*
X-17213216Y-5961544D01*
X-17065646Y-6060147D01*
X-16940147Y-6185646D01*
X-16841544Y-6333216D01*
X-16773624Y-6497188D01*
X-16739000Y-6671259D01*
X-16739000Y-6848741D01*
X-16773624Y-7022812D01*
X-16841544Y-7186784D01*
X-16940147Y-7334354D01*
X-17065646Y-7459853D01*
X-17213216Y-7558456D01*
X-17377188Y-7626376D01*
X-17526488Y-7656073D01*
X-17551258Y-7661000D01*
X-17728742Y-7661000D01*
X-17753512Y-7656073D01*
X-17902812Y-7626376D01*
X-18066784Y-7558456D01*
X-18214354Y-7459853D01*
X-18339853Y-7334354D01*
X-18438456Y-7186784D01*
X-18506376Y-7022812D01*
X-18541000Y-6848741D01*
X-18541000Y-6671259D01*
X-18506376Y-6497188D01*
X-18438456Y-6333216D01*
X-18339853Y-6185646D01*
X-18214354Y-6060147D01*
X-18066784Y-5961544D01*
X-17902812Y-5893624D01*
X-17753512Y-5863927D01*
X-17728742Y-5859000D01*
X-17551258Y-5859000D01*
X-17526488Y-5863927D01*
G37*
G36*
X-20066488Y-5863927D02*
G01*
X-19917188Y-5893624D01*
X-19753216Y-5961544D01*
X-19605646Y-6060147D01*
X-19480147Y-6185646D01*
X-19381544Y-6333216D01*
X-19313624Y-6497188D01*
X-19279000Y-6671259D01*
X-19279000Y-6848741D01*
X-19313624Y-7022812D01*
X-19381544Y-7186784D01*
X-19480147Y-7334354D01*
X-19605646Y-7459853D01*
X-19753216Y-7558456D01*
X-19917188Y-7626376D01*
X-20066488Y-7656073D01*
X-20091258Y-7661000D01*
X-20268742Y-7661000D01*
X-20293512Y-7656073D01*
X-20442812Y-7626376D01*
X-20606784Y-7558456D01*
X-20754354Y-7459853D01*
X-20879853Y-7334354D01*
X-20978456Y-7186784D01*
X-21046376Y-7022812D01*
X-21081000Y-6848741D01*
X-21081000Y-6671259D01*
X-21046376Y-6497188D01*
X-20978456Y-6333216D01*
X-20879853Y-6185646D01*
X-20754354Y-6060147D01*
X-20606784Y-5961544D01*
X-20442812Y-5893624D01*
X-20293512Y-5863927D01*
X-20268742Y-5859000D01*
X-20091258Y-5859000D01*
X-20066488Y-5863927D01*
G37*
G36*
X-22606488Y-5863927D02*
G01*
X-22457188Y-5893624D01*
X-22293216Y-5961544D01*
X-22145646Y-6060147D01*
X-22020147Y-6185646D01*
X-21921544Y-6333216D01*
X-21853624Y-6497188D01*
X-21819000Y-6671259D01*
X-21819000Y-6848741D01*
X-21853624Y-7022812D01*
X-21921544Y-7186784D01*
X-22020147Y-7334354D01*
X-22145646Y-7459853D01*
X-22293216Y-7558456D01*
X-22457188Y-7626376D01*
X-22606488Y-7656073D01*
X-22631258Y-7661000D01*
X-22808742Y-7661000D01*
X-22833512Y-7656073D01*
X-22982812Y-7626376D01*
X-23146784Y-7558456D01*
X-23294354Y-7459853D01*
X-23419853Y-7334354D01*
X-23518456Y-7186784D01*
X-23586376Y-7022812D01*
X-23621000Y-6848741D01*
X-23621000Y-6671259D01*
X-23586376Y-6497188D01*
X-23518456Y-6333216D01*
X-23419853Y-6185646D01*
X-23294354Y-6060147D01*
X-23146784Y-5961544D01*
X-22982812Y-5893624D01*
X-22833512Y-5863927D01*
X-22808742Y-5859000D01*
X-22631258Y-5859000D01*
X-22606488Y-5863927D01*
G37*
G36*
X-25146488Y-5863927D02*
G01*
X-24997188Y-5893624D01*
X-24833216Y-5961544D01*
X-24685646Y-6060147D01*
X-24560147Y-6185646D01*
X-24461544Y-6333216D01*
X-24393624Y-6497188D01*
X-24359000Y-6671259D01*
X-24359000Y-6848741D01*
X-24393624Y-7022812D01*
X-24461544Y-7186784D01*
X-24560147Y-7334354D01*
X-24685646Y-7459853D01*
X-24833216Y-7558456D01*
X-24997188Y-7626376D01*
X-25146488Y-7656073D01*
X-25171258Y-7661000D01*
X-25348742Y-7661000D01*
X-25373512Y-7656073D01*
X-25522812Y-7626376D01*
X-25686784Y-7558456D01*
X-25834354Y-7459853D01*
X-25959853Y-7334354D01*
X-26058456Y-7186784D01*
X-26126376Y-7022812D01*
X-26161000Y-6848741D01*
X-26161000Y-6671259D01*
X-26126376Y-6497188D01*
X-26058456Y-6333216D01*
X-25959853Y-6185646D01*
X-25834354Y-6060147D01*
X-25686784Y-5961544D01*
X-25522812Y-5893624D01*
X-25373512Y-5863927D01*
X-25348742Y-5859000D01*
X-25171258Y-5859000D01*
X-25146488Y-5863927D01*
G37*
G36*
X-27686488Y-5863927D02*
G01*
X-27537188Y-5893624D01*
X-27373216Y-5961544D01*
X-27225646Y-6060147D01*
X-27100147Y-6185646D01*
X-27001544Y-6333216D01*
X-26933624Y-6497188D01*
X-26899000Y-6671259D01*
X-26899000Y-6848741D01*
X-26933624Y-7022812D01*
X-27001544Y-7186784D01*
X-27100147Y-7334354D01*
X-27225646Y-7459853D01*
X-27373216Y-7558456D01*
X-27537188Y-7626376D01*
X-27686488Y-7656073D01*
X-27711258Y-7661000D01*
X-27888742Y-7661000D01*
X-27913512Y-7656073D01*
X-28062812Y-7626376D01*
X-28226784Y-7558456D01*
X-28374354Y-7459853D01*
X-28499853Y-7334354D01*
X-28598456Y-7186784D01*
X-28666376Y-7022812D01*
X-28701000Y-6848741D01*
X-28701000Y-6671259D01*
X-28666376Y-6497188D01*
X-28598456Y-6333216D01*
X-28499853Y-6185646D01*
X-28374354Y-6060147D01*
X-28226784Y-5961544D01*
X-28062812Y-5893624D01*
X-27913512Y-5863927D01*
X-27888742Y-5859000D01*
X-27711258Y-5859000D01*
X-27686488Y-5863927D01*
G37*
G36*
X-32766488Y-5863927D02*
G01*
X-32617188Y-5893624D01*
X-32453216Y-5961544D01*
X-32305646Y-6060147D01*
X-32180147Y-6185646D01*
X-32081544Y-6333216D01*
X-32013624Y-6497188D01*
X-31979000Y-6671259D01*
X-31979000Y-6848741D01*
X-32013624Y-7022812D01*
X-32081544Y-7186784D01*
X-32180147Y-7334354D01*
X-32305646Y-7459853D01*
X-32453216Y-7558456D01*
X-32617188Y-7626376D01*
X-32766488Y-7656073D01*
X-32791258Y-7661000D01*
X-32968742Y-7661000D01*
X-32993512Y-7656073D01*
X-33142812Y-7626376D01*
X-33306784Y-7558456D01*
X-33454354Y-7459853D01*
X-33579853Y-7334354D01*
X-33678456Y-7186784D01*
X-33746376Y-7022812D01*
X-33781000Y-6848741D01*
X-33781000Y-6671259D01*
X-33746376Y-6497188D01*
X-33678456Y-6333216D01*
X-33579853Y-6185646D01*
X-33454354Y-6060147D01*
X-33306784Y-5961544D01*
X-33142812Y-5893624D01*
X-32993512Y-5863927D01*
X-32968742Y-5859000D01*
X-32791258Y-5859000D01*
X-32766488Y-5863927D01*
G37*
G36*
X-35306488Y-5863927D02*
G01*
X-35157188Y-5893624D01*
X-34993216Y-5961544D01*
X-34845646Y-6060147D01*
X-34720147Y-6185646D01*
X-34621544Y-6333216D01*
X-34553624Y-6497188D01*
X-34519000Y-6671259D01*
X-34519000Y-6848741D01*
X-34553624Y-7022812D01*
X-34621544Y-7186784D01*
X-34720147Y-7334354D01*
X-34845646Y-7459853D01*
X-34993216Y-7558456D01*
X-35157188Y-7626376D01*
X-35306488Y-7656073D01*
X-35331258Y-7661000D01*
X-35508742Y-7661000D01*
X-35533512Y-7656073D01*
X-35682812Y-7626376D01*
X-35846784Y-7558456D01*
X-35994354Y-7459853D01*
X-36119853Y-7334354D01*
X-36218456Y-7186784D01*
X-36286376Y-7022812D01*
X-36321000Y-6848741D01*
X-36321000Y-6671259D01*
X-36286376Y-6497188D01*
X-36218456Y-6333216D01*
X-36119853Y-6185646D01*
X-35994354Y-6060147D01*
X-35846784Y-5961544D01*
X-35682812Y-5893624D01*
X-35533512Y-5863927D01*
X-35508742Y-5859000D01*
X-35331258Y-5859000D01*
X-35306488Y-5863927D01*
G37*
G36*
X-37846488Y-5863927D02*
G01*
X-37697188Y-5893624D01*
X-37533216Y-5961544D01*
X-37385646Y-6060147D01*
X-37260147Y-6185646D01*
X-37161544Y-6333216D01*
X-37093624Y-6497188D01*
X-37059000Y-6671259D01*
X-37059000Y-6848741D01*
X-37093624Y-7022812D01*
X-37161544Y-7186784D01*
X-37260147Y-7334354D01*
X-37385646Y-7459853D01*
X-37533216Y-7558456D01*
X-37697188Y-7626376D01*
X-37846488Y-7656073D01*
X-37871258Y-7661000D01*
X-38048742Y-7661000D01*
X-38073512Y-7656073D01*
X-38222812Y-7626376D01*
X-38386784Y-7558456D01*
X-38534354Y-7459853D01*
X-38659853Y-7334354D01*
X-38758456Y-7186784D01*
X-38826376Y-7022812D01*
X-38861000Y-6848741D01*
X-38861000Y-6671259D01*
X-38826376Y-6497188D01*
X-38758456Y-6333216D01*
X-38659853Y-6185646D01*
X-38534354Y-6060147D01*
X-38386784Y-5961544D01*
X-38222812Y-5893624D01*
X-38073512Y-5863927D01*
X-38048742Y-5859000D01*
X-37871258Y-5859000D01*
X-37846488Y-5863927D01*
G37*
G36*
X-40386488Y-5863927D02*
G01*
X-40237188Y-5893624D01*
X-40073216Y-5961544D01*
X-39925646Y-6060147D01*
X-39800147Y-6185646D01*
X-39701544Y-6333216D01*
X-39633624Y-6497188D01*
X-39599000Y-6671259D01*
X-39599000Y-6848741D01*
X-39633624Y-7022812D01*
X-39701544Y-7186784D01*
X-39800147Y-7334354D01*
X-39925646Y-7459853D01*
X-40073216Y-7558456D01*
X-40237188Y-7626376D01*
X-40386488Y-7656073D01*
X-40411258Y-7661000D01*
X-40588742Y-7661000D01*
X-40613512Y-7656073D01*
X-40762812Y-7626376D01*
X-40926784Y-7558456D01*
X-41074354Y-7459853D01*
X-41199853Y-7334354D01*
X-41298456Y-7186784D01*
X-41366376Y-7022812D01*
X-41401000Y-6848741D01*
X-41401000Y-6671259D01*
X-41366376Y-6497188D01*
X-41298456Y-6333216D01*
X-41199853Y-6185646D01*
X-41074354Y-6060147D01*
X-40926784Y-5961544D01*
X-40762812Y-5893624D01*
X-40613512Y-5863927D01*
X-40588742Y-5859000D01*
X-40411258Y-5859000D01*
X-40386488Y-5863927D01*
G37*
G36*
X-53086488Y-5863927D02*
G01*
X-52937188Y-5893624D01*
X-52773216Y-5961544D01*
X-52625646Y-6060147D01*
X-52500147Y-6185646D01*
X-52401544Y-6333216D01*
X-52333624Y-6497188D01*
X-52299000Y-6671259D01*
X-52299000Y-6848741D01*
X-52333624Y-7022812D01*
X-52401544Y-7186784D01*
X-52500147Y-7334354D01*
X-52625646Y-7459853D01*
X-52773216Y-7558456D01*
X-52937188Y-7626376D01*
X-53086488Y-7656073D01*
X-53111258Y-7661000D01*
X-53288742Y-7661000D01*
X-53313512Y-7656073D01*
X-53462812Y-7626376D01*
X-53626784Y-7558456D01*
X-53774354Y-7459853D01*
X-53899853Y-7334354D01*
X-53998456Y-7186784D01*
X-54066376Y-7022812D01*
X-54101000Y-6848741D01*
X-54101000Y-6671259D01*
X-54066376Y-6497188D01*
X-53998456Y-6333216D01*
X-53899853Y-6185646D01*
X-53774354Y-6060147D01*
X-53626784Y-5961544D01*
X-53462812Y-5893624D01*
X-53313512Y-5863927D01*
X-53288742Y-5859000D01*
X-53111258Y-5859000D01*
X-53086488Y-5863927D01*
G37*
G36*
X-50546488Y-5863927D02*
G01*
X-50397188Y-5893624D01*
X-50233216Y-5961544D01*
X-50085646Y-6060147D01*
X-49960147Y-6185646D01*
X-49861544Y-6333216D01*
X-49793624Y-6497188D01*
X-49759000Y-6671259D01*
X-49759000Y-6848741D01*
X-49793624Y-7022812D01*
X-49861544Y-7186784D01*
X-49960147Y-7334354D01*
X-50085646Y-7459853D01*
X-50233216Y-7558456D01*
X-50397188Y-7626376D01*
X-50546488Y-7656073D01*
X-50571258Y-7661000D01*
X-50748742Y-7661000D01*
X-50773512Y-7656073D01*
X-50922812Y-7626376D01*
X-51086784Y-7558456D01*
X-51234354Y-7459853D01*
X-51359853Y-7334354D01*
X-51458456Y-7186784D01*
X-51526376Y-7022812D01*
X-51561000Y-6848741D01*
X-51561000Y-6671259D01*
X-51526376Y-6497188D01*
X-51458456Y-6333216D01*
X-51359853Y-6185646D01*
X-51234354Y-6060147D01*
X-51086784Y-5961544D01*
X-50922812Y-5893624D01*
X-50773512Y-5863927D01*
X-50748742Y-5859000D01*
X-50571258Y-5859000D01*
X-50546488Y-5863927D01*
G37*
G36*
X-48006488Y-5863927D02*
G01*
X-47857188Y-5893624D01*
X-47693216Y-5961544D01*
X-47545646Y-6060147D01*
X-47420147Y-6185646D01*
X-47321544Y-6333216D01*
X-47253624Y-6497188D01*
X-47219000Y-6671259D01*
X-47219000Y-6848741D01*
X-47253624Y-7022812D01*
X-47321544Y-7186784D01*
X-47420147Y-7334354D01*
X-47545646Y-7459853D01*
X-47693216Y-7558456D01*
X-47857188Y-7626376D01*
X-48006488Y-7656073D01*
X-48031258Y-7661000D01*
X-48208742Y-7661000D01*
X-48233512Y-7656073D01*
X-48382812Y-7626376D01*
X-48546784Y-7558456D01*
X-48694354Y-7459853D01*
X-48819853Y-7334354D01*
X-48918456Y-7186784D01*
X-48986376Y-7022812D01*
X-49021000Y-6848741D01*
X-49021000Y-6671259D01*
X-48986376Y-6497188D01*
X-48918456Y-6333216D01*
X-48819853Y-6185646D01*
X-48694354Y-6060147D01*
X-48546784Y-5961544D01*
X-48382812Y-5893624D01*
X-48233512Y-5863927D01*
X-48208742Y-5859000D01*
X-48031258Y-5859000D01*
X-48006488Y-5863927D01*
G37*
G36*
X-45466488Y-5863927D02*
G01*
X-45317188Y-5893624D01*
X-45153216Y-5961544D01*
X-45005646Y-6060147D01*
X-44880147Y-6185646D01*
X-44781544Y-6333216D01*
X-44713624Y-6497188D01*
X-44679000Y-6671259D01*
X-44679000Y-6848741D01*
X-44713624Y-7022812D01*
X-44781544Y-7186784D01*
X-44880147Y-7334354D01*
X-45005646Y-7459853D01*
X-45153216Y-7558456D01*
X-45317188Y-7626376D01*
X-45466488Y-7656073D01*
X-45491258Y-7661000D01*
X-45668742Y-7661000D01*
X-45693512Y-7656073D01*
X-45842812Y-7626376D01*
X-46006784Y-7558456D01*
X-46154354Y-7459853D01*
X-46279853Y-7334354D01*
X-46378456Y-7186784D01*
X-46446376Y-7022812D01*
X-46481000Y-6848741D01*
X-46481000Y-6671259D01*
X-46446376Y-6497188D01*
X-46378456Y-6333216D01*
X-46279853Y-6185646D01*
X-46154354Y-6060147D01*
X-46006784Y-5961544D01*
X-45842812Y-5893624D01*
X-45693512Y-5863927D01*
X-45668742Y-5859000D01*
X-45491258Y-5859000D01*
X-45466488Y-5863927D01*
G37*
G36*
X-7366488Y-5863927D02*
G01*
X-7217188Y-5893624D01*
X-7053216Y-5961544D01*
X-6905646Y-6060147D01*
X-6780147Y-6185646D01*
X-6681544Y-6333216D01*
X-6613624Y-6497188D01*
X-6579000Y-6671259D01*
X-6579000Y-6848741D01*
X-6613624Y-7022812D01*
X-6681544Y-7186784D01*
X-6780147Y-7334354D01*
X-6905646Y-7459853D01*
X-7053216Y-7558456D01*
X-7217188Y-7626376D01*
X-7366488Y-7656073D01*
X-7391258Y-7661000D01*
X-7568742Y-7661000D01*
X-7593512Y-7656073D01*
X-7742812Y-7626376D01*
X-7906784Y-7558456D01*
X-8054354Y-7459853D01*
X-8179853Y-7334354D01*
X-8278456Y-7186784D01*
X-8346376Y-7022812D01*
X-8381000Y-6848741D01*
X-8381000Y-6671259D01*
X-8346376Y-6497188D01*
X-8278456Y-6333216D01*
X-8179853Y-6185646D01*
X-8054354Y-6060147D01*
X-7906784Y-5961544D01*
X-7742812Y-5893624D01*
X-7593512Y-5863927D01*
X-7568742Y-5859000D01*
X-7391258Y-5859000D01*
X-7366488Y-5863927D01*
G37*
G36*
X-42926488Y-5863927D02*
G01*
X-42777188Y-5893624D01*
X-42613216Y-5961544D01*
X-42465646Y-6060147D01*
X-42340147Y-6185646D01*
X-42241544Y-6333216D01*
X-42173624Y-6497188D01*
X-42139000Y-6671259D01*
X-42139000Y-6848741D01*
X-42173624Y-7022812D01*
X-42241544Y-7186784D01*
X-42340147Y-7334354D01*
X-42465646Y-7459853D01*
X-42613216Y-7558456D01*
X-42777188Y-7626376D01*
X-42926488Y-7656073D01*
X-42951258Y-7661000D01*
X-43128742Y-7661000D01*
X-43153512Y-7656073D01*
X-43302812Y-7626376D01*
X-43466784Y-7558456D01*
X-43614354Y-7459853D01*
X-43739853Y-7334354D01*
X-43838456Y-7186784D01*
X-43906376Y-7022812D01*
X-43941000Y-6848741D01*
X-43941000Y-6671259D01*
X-43906376Y-6497188D01*
X-43838456Y-6333216D01*
X-43739853Y-6185646D01*
X-43614354Y-6060147D01*
X-43466784Y-5961544D01*
X-43302812Y-5893624D01*
X-43153512Y-5863927D01*
X-43128742Y-5859000D01*
X-42951258Y-5859000D01*
X-42926488Y-5863927D01*
G37*
G36*
X-48006488Y-903927D02*
G01*
X-47857188Y-933624D01*
X-47693216Y-1001544D01*
X-47545646Y-1100147D01*
X-47420147Y-1225646D01*
X-47321544Y-1373216D01*
X-47253624Y-1537188D01*
X-47219000Y-1711259D01*
X-47219000Y-1888741D01*
X-47253624Y-2062812D01*
X-47321544Y-2226784D01*
X-47420147Y-2374354D01*
X-47545646Y-2499853D01*
X-47693216Y-2598456D01*
X-47857188Y-2666376D01*
X-48006488Y-2696073D01*
X-48031258Y-2701000D01*
X-48208742Y-2701000D01*
X-48233512Y-2696073D01*
X-48382812Y-2666376D01*
X-48546784Y-2598456D01*
X-48694354Y-2499853D01*
X-48819853Y-2374354D01*
X-48918456Y-2226784D01*
X-48986376Y-2062812D01*
X-49021000Y-1888741D01*
X-49021000Y-1711259D01*
X-48986376Y-1537188D01*
X-48918456Y-1373216D01*
X-48819853Y-1225646D01*
X-48694354Y-1100147D01*
X-48546784Y-1001544D01*
X-48382812Y-933624D01*
X-48233512Y-903927D01*
X-48208742Y-899000D01*
X-48031258Y-899000D01*
X-48006488Y-903927D01*
G37*
G36*
X-52299000Y-2701000D02*
G01*
X-54101000Y-2701000D01*
X-54101000Y-899000D01*
X-52299000Y-899000D01*
X-52299000Y-2701000D01*
G37*
G36*
X-27686488Y-903927D02*
G01*
X-27537188Y-933624D01*
X-27373216Y-1001544D01*
X-27225646Y-1100147D01*
X-27100147Y-1225646D01*
X-27001544Y-1373216D01*
X-26933624Y-1537188D01*
X-26899000Y-1711259D01*
X-26899000Y-1888741D01*
X-26933624Y-2062812D01*
X-27001544Y-2226784D01*
X-27100147Y-2374354D01*
X-27225646Y-2499853D01*
X-27373216Y-2598456D01*
X-27537188Y-2666376D01*
X-27686488Y-2696073D01*
X-27711258Y-2701000D01*
X-27888742Y-2701000D01*
X-27913512Y-2696073D01*
X-28062812Y-2666376D01*
X-28226784Y-2598456D01*
X-28374354Y-2499853D01*
X-28499853Y-2374354D01*
X-28598456Y-2226784D01*
X-28666376Y-2062812D01*
X-28701000Y-1888741D01*
X-28701000Y-1711259D01*
X-28666376Y-1537188D01*
X-28598456Y-1373216D01*
X-28499853Y-1225646D01*
X-28374354Y-1100147D01*
X-28226784Y-1001544D01*
X-28062812Y-933624D01*
X-27913512Y-903927D01*
X-27888742Y-899000D01*
X-27711258Y-899000D01*
X-27686488Y-903927D01*
G37*
G36*
X-45466488Y-903927D02*
G01*
X-45317188Y-933624D01*
X-45153216Y-1001544D01*
X-45005646Y-1100147D01*
X-44880147Y-1225646D01*
X-44781544Y-1373216D01*
X-44713624Y-1537188D01*
X-44679000Y-1711259D01*
X-44679000Y-1888741D01*
X-44713624Y-2062812D01*
X-44781544Y-2226784D01*
X-44880147Y-2374354D01*
X-45005646Y-2499853D01*
X-45153216Y-2598456D01*
X-45317188Y-2666376D01*
X-45466488Y-2696073D01*
X-45491258Y-2701000D01*
X-45668742Y-2701000D01*
X-45693512Y-2696073D01*
X-45842812Y-2666376D01*
X-46006784Y-2598456D01*
X-46154354Y-2499853D01*
X-46279853Y-2374354D01*
X-46378456Y-2226784D01*
X-46446376Y-2062812D01*
X-46481000Y-1888741D01*
X-46481000Y-1711259D01*
X-46446376Y-1537188D01*
X-46378456Y-1373216D01*
X-46279853Y-1225646D01*
X-46154354Y-1100147D01*
X-46006784Y-1001544D01*
X-45842812Y-933624D01*
X-45693512Y-903927D01*
X-45668742Y-899000D01*
X-45491258Y-899000D01*
X-45466488Y-903927D01*
G37*
G36*
X-30226488Y-903927D02*
G01*
X-30077188Y-933624D01*
X-29913216Y-1001544D01*
X-29765646Y-1100147D01*
X-29640147Y-1225646D01*
X-29541544Y-1373216D01*
X-29473624Y-1537188D01*
X-29439000Y-1711259D01*
X-29439000Y-1888741D01*
X-29473624Y-2062812D01*
X-29541544Y-2226784D01*
X-29640147Y-2374354D01*
X-29765646Y-2499853D01*
X-29913216Y-2598456D01*
X-30077188Y-2666376D01*
X-30226488Y-2696073D01*
X-30251258Y-2701000D01*
X-30428742Y-2701000D01*
X-30453512Y-2696073D01*
X-30602812Y-2666376D01*
X-30766784Y-2598456D01*
X-30914354Y-2499853D01*
X-31039853Y-2374354D01*
X-31138456Y-2226784D01*
X-31206376Y-2062812D01*
X-31241000Y-1888741D01*
X-31241000Y-1711259D01*
X-31206376Y-1537188D01*
X-31138456Y-1373216D01*
X-31039853Y-1225646D01*
X-30914354Y-1100147D01*
X-30766784Y-1001544D01*
X-30602812Y-933624D01*
X-30453512Y-903927D01*
X-30428742Y-899000D01*
X-30251258Y-899000D01*
X-30226488Y-903927D01*
G37*
G36*
X-32766488Y-903927D02*
G01*
X-32617188Y-933624D01*
X-32453216Y-1001544D01*
X-32305646Y-1100147D01*
X-32180147Y-1225646D01*
X-32081544Y-1373216D01*
X-32013624Y-1537188D01*
X-31979000Y-1711259D01*
X-31979000Y-1888741D01*
X-32013624Y-2062812D01*
X-32081544Y-2226784D01*
X-32180147Y-2374354D01*
X-32305646Y-2499853D01*
X-32453216Y-2598456D01*
X-32617188Y-2666376D01*
X-32766488Y-2696073D01*
X-32791258Y-2701000D01*
X-32968742Y-2701000D01*
X-32993512Y-2696073D01*
X-33142812Y-2666376D01*
X-33306784Y-2598456D01*
X-33454354Y-2499853D01*
X-33579853Y-2374354D01*
X-33678456Y-2226784D01*
X-33746376Y-2062812D01*
X-33781000Y-1888741D01*
X-33781000Y-1711259D01*
X-33746376Y-1537188D01*
X-33678456Y-1373216D01*
X-33579853Y-1225646D01*
X-33454354Y-1100147D01*
X-33306784Y-1001544D01*
X-33142812Y-933624D01*
X-32993512Y-903927D01*
X-32968742Y-899000D01*
X-32791258Y-899000D01*
X-32766488Y-903927D01*
G37*
G36*
X-42926488Y-903927D02*
G01*
X-42777188Y-933624D01*
X-42613216Y-1001544D01*
X-42465646Y-1100147D01*
X-42340147Y-1225646D01*
X-42241544Y-1373216D01*
X-42173624Y-1537188D01*
X-42139000Y-1711259D01*
X-42139000Y-1888741D01*
X-42173624Y-2062812D01*
X-42241544Y-2226784D01*
X-42340147Y-2374354D01*
X-42465646Y-2499853D01*
X-42613216Y-2598456D01*
X-42777188Y-2666376D01*
X-42926488Y-2696073D01*
X-42951258Y-2701000D01*
X-43128742Y-2701000D01*
X-43153512Y-2696073D01*
X-43302812Y-2666376D01*
X-43466784Y-2598456D01*
X-43614354Y-2499853D01*
X-43739853Y-2374354D01*
X-43838456Y-2226784D01*
X-43906376Y-2062812D01*
X-43941000Y-1888741D01*
X-43941000Y-1711259D01*
X-43906376Y-1537188D01*
X-43838456Y-1373216D01*
X-43739853Y-1225646D01*
X-43614354Y-1100147D01*
X-43466784Y-1001544D01*
X-43302812Y-933624D01*
X-43153512Y-903927D01*
X-43128742Y-899000D01*
X-42951258Y-899000D01*
X-42926488Y-903927D01*
G37*
G36*
X-35306488Y-903927D02*
G01*
X-35157188Y-933624D01*
X-34993216Y-1001544D01*
X-34845646Y-1100147D01*
X-34720147Y-1225646D01*
X-34621544Y-1373216D01*
X-34553624Y-1537188D01*
X-34519000Y-1711259D01*
X-34519000Y-1888741D01*
X-34553624Y-2062812D01*
X-34621544Y-2226784D01*
X-34720147Y-2374354D01*
X-34845646Y-2499853D01*
X-34993216Y-2598456D01*
X-35157188Y-2666376D01*
X-35306488Y-2696073D01*
X-35331258Y-2701000D01*
X-35508742Y-2701000D01*
X-35533512Y-2696073D01*
X-35682812Y-2666376D01*
X-35846784Y-2598456D01*
X-35994354Y-2499853D01*
X-36119853Y-2374354D01*
X-36218456Y-2226784D01*
X-36286376Y-2062812D01*
X-36321000Y-1888741D01*
X-36321000Y-1711259D01*
X-36286376Y-1537188D01*
X-36218456Y-1373216D01*
X-36119853Y-1225646D01*
X-35994354Y-1100147D01*
X-35846784Y-1001544D01*
X-35682812Y-933624D01*
X-35533512Y-903927D01*
X-35508742Y-899000D01*
X-35331258Y-899000D01*
X-35306488Y-903927D01*
G37*
G36*
X-40386488Y-903927D02*
G01*
X-40237188Y-933624D01*
X-40073216Y-1001544D01*
X-39925646Y-1100147D01*
X-39800147Y-1225646D01*
X-39701544Y-1373216D01*
X-39633624Y-1537188D01*
X-39599000Y-1711259D01*
X-39599000Y-1888741D01*
X-39633624Y-2062812D01*
X-39701544Y-2226784D01*
X-39800147Y-2374354D01*
X-39925646Y-2499853D01*
X-40073216Y-2598456D01*
X-40237188Y-2666376D01*
X-40386488Y-2696073D01*
X-40411258Y-2701000D01*
X-40588742Y-2701000D01*
X-40613512Y-2696073D01*
X-40762812Y-2666376D01*
X-40926784Y-2598456D01*
X-41074354Y-2499853D01*
X-41199853Y-2374354D01*
X-41298456Y-2226784D01*
X-41366376Y-2062812D01*
X-41401000Y-1888741D01*
X-41401000Y-1711259D01*
X-41366376Y-1537188D01*
X-41298456Y-1373216D01*
X-41199853Y-1225646D01*
X-41074354Y-1100147D01*
X-40926784Y-1001544D01*
X-40762812Y-933624D01*
X-40613512Y-903927D01*
X-40588742Y-899000D01*
X-40411258Y-899000D01*
X-40386488Y-903927D01*
G37*
G36*
X-37846488Y-903927D02*
G01*
X-37697188Y-933624D01*
X-37533216Y-1001544D01*
X-37385646Y-1100147D01*
X-37260147Y-1225646D01*
X-37161544Y-1373216D01*
X-37093624Y-1537188D01*
X-37059000Y-1711259D01*
X-37059000Y-1888741D01*
X-37093624Y-2062812D01*
X-37161544Y-2226784D01*
X-37260147Y-2374354D01*
X-37385646Y-2499853D01*
X-37533216Y-2598456D01*
X-37697188Y-2666376D01*
X-37846488Y-2696073D01*
X-37871258Y-2701000D01*
X-38048742Y-2701000D01*
X-38073512Y-2696073D01*
X-38222812Y-2666376D01*
X-38386784Y-2598456D01*
X-38534354Y-2499853D01*
X-38659853Y-2374354D01*
X-38758456Y-2226784D01*
X-38826376Y-2062812D01*
X-38861000Y-1888741D01*
X-38861000Y-1711259D01*
X-38826376Y-1537188D01*
X-38758456Y-1373216D01*
X-38659853Y-1225646D01*
X-38534354Y-1100147D01*
X-38386784Y-1001544D01*
X-38222812Y-933624D01*
X-38073512Y-903927D01*
X-38048742Y-899000D01*
X-37871258Y-899000D01*
X-37846488Y-903927D01*
G37*
G36*
X-25146488Y-903927D02*
G01*
X-24997188Y-933624D01*
X-24833216Y-1001544D01*
X-24685646Y-1100147D01*
X-24560147Y-1225646D01*
X-24461544Y-1373216D01*
X-24393624Y-1537188D01*
X-24359000Y-1711259D01*
X-24359000Y-1888741D01*
X-24393624Y-2062812D01*
X-24461544Y-2226784D01*
X-24560147Y-2374354D01*
X-24685646Y-2499853D01*
X-24833216Y-2598456D01*
X-24997188Y-2666376D01*
X-25146488Y-2696073D01*
X-25171258Y-2701000D01*
X-25348742Y-2701000D01*
X-25373512Y-2696073D01*
X-25522812Y-2666376D01*
X-25686784Y-2598456D01*
X-25834354Y-2499853D01*
X-25959853Y-2374354D01*
X-26058456Y-2226784D01*
X-26126376Y-2062812D01*
X-26161000Y-1888741D01*
X-26161000Y-1711259D01*
X-26126376Y-1537188D01*
X-26058456Y-1373216D01*
X-25959853Y-1225646D01*
X-25834354Y-1100147D01*
X-25686784Y-1001544D01*
X-25522812Y-933624D01*
X-25373512Y-903927D01*
X-25348742Y-899000D01*
X-25171258Y-899000D01*
X-25146488Y-903927D01*
G37*
G36*
X-50546488Y-903927D02*
G01*
X-50397188Y-933624D01*
X-50233216Y-1001544D01*
X-50085646Y-1100147D01*
X-49960147Y-1225646D01*
X-49861544Y-1373216D01*
X-49793624Y-1537188D01*
X-49759000Y-1711259D01*
X-49759000Y-1888741D01*
X-49793624Y-2062812D01*
X-49861544Y-2226784D01*
X-49960147Y-2374354D01*
X-50085646Y-2499853D01*
X-50233216Y-2598456D01*
X-50397188Y-2666376D01*
X-50546488Y-2696073D01*
X-50571258Y-2701000D01*
X-50748742Y-2701000D01*
X-50773512Y-2696073D01*
X-50922812Y-2666376D01*
X-51086784Y-2598456D01*
X-51234354Y-2499853D01*
X-51359853Y-2374354D01*
X-51458456Y-2226784D01*
X-51526376Y-2062812D01*
X-51561000Y-1888741D01*
X-51561000Y-1711259D01*
X-51526376Y-1537188D01*
X-51458456Y-1373216D01*
X-51359853Y-1225646D01*
X-51234354Y-1100147D01*
X-51086784Y-1001544D01*
X-50922812Y-933624D01*
X-50773512Y-903927D01*
X-50748742Y-899000D01*
X-50571258Y-899000D01*
X-50546488Y-903927D01*
G37*
G36*
X-7366488Y-903927D02*
G01*
X-7217188Y-933624D01*
X-7053216Y-1001544D01*
X-6905646Y-1100147D01*
X-6780147Y-1225646D01*
X-6681544Y-1373216D01*
X-6613624Y-1537188D01*
X-6579000Y-1711259D01*
X-6579000Y-1888741D01*
X-6613624Y-2062812D01*
X-6681544Y-2226784D01*
X-6780147Y-2374354D01*
X-6905646Y-2499853D01*
X-7053216Y-2598456D01*
X-7217188Y-2666376D01*
X-7366488Y-2696073D01*
X-7391258Y-2701000D01*
X-7568742Y-2701000D01*
X-7593512Y-2696073D01*
X-7742812Y-2666376D01*
X-7906784Y-2598456D01*
X-8054354Y-2499853D01*
X-8179853Y-2374354D01*
X-8278456Y-2226784D01*
X-8346376Y-2062812D01*
X-8381000Y-1888741D01*
X-8381000Y-1711259D01*
X-8346376Y-1537188D01*
X-8278456Y-1373216D01*
X-8179853Y-1225646D01*
X-8054354Y-1100147D01*
X-7906784Y-1001544D01*
X-7742812Y-933624D01*
X-7593512Y-903927D01*
X-7568742Y-899000D01*
X-7391258Y-899000D01*
X-7366488Y-903927D01*
G37*
G36*
X-4826488Y-903927D02*
G01*
X-4677188Y-933624D01*
X-4513216Y-1001544D01*
X-4365646Y-1100147D01*
X-4240147Y-1225646D01*
X-4141544Y-1373216D01*
X-4073624Y-1537188D01*
X-4039000Y-1711259D01*
X-4039000Y-1888741D01*
X-4073624Y-2062812D01*
X-4141544Y-2226784D01*
X-4240147Y-2374354D01*
X-4365646Y-2499853D01*
X-4513216Y-2598456D01*
X-4677188Y-2666376D01*
X-4826488Y-2696073D01*
X-4851258Y-2701000D01*
X-5028742Y-2701000D01*
X-5053512Y-2696073D01*
X-5202812Y-2666376D01*
X-5366784Y-2598456D01*
X-5514354Y-2499853D01*
X-5639853Y-2374354D01*
X-5738456Y-2226784D01*
X-5806376Y-2062812D01*
X-5841000Y-1888741D01*
X-5841000Y-1711259D01*
X-5806376Y-1537188D01*
X-5738456Y-1373216D01*
X-5639853Y-1225646D01*
X-5514354Y-1100147D01*
X-5366784Y-1001544D01*
X-5202812Y-933624D01*
X-5053512Y-903927D01*
X-5028742Y-899000D01*
X-4851258Y-899000D01*
X-4826488Y-903927D01*
G37*
G36*
X-14986488Y-903927D02*
G01*
X-14837188Y-933624D01*
X-14673216Y-1001544D01*
X-14525646Y-1100147D01*
X-14400147Y-1225646D01*
X-14301544Y-1373216D01*
X-14233624Y-1537188D01*
X-14199000Y-1711259D01*
X-14199000Y-1888741D01*
X-14233624Y-2062812D01*
X-14301544Y-2226784D01*
X-14400147Y-2374354D01*
X-14525646Y-2499853D01*
X-14673216Y-2598456D01*
X-14837188Y-2666376D01*
X-14986488Y-2696073D01*
X-15011258Y-2701000D01*
X-15188742Y-2701000D01*
X-15213512Y-2696073D01*
X-15362812Y-2666376D01*
X-15526784Y-2598456D01*
X-15674354Y-2499853D01*
X-15799853Y-2374354D01*
X-15898456Y-2226784D01*
X-15966376Y-2062812D01*
X-16001000Y-1888741D01*
X-16001000Y-1711259D01*
X-15966376Y-1537188D01*
X-15898456Y-1373216D01*
X-15799853Y-1225646D01*
X-15674354Y-1100147D01*
X-15526784Y-1001544D01*
X-15362812Y-933624D01*
X-15213512Y-903927D01*
X-15188742Y-899000D01*
X-15011258Y-899000D01*
X-14986488Y-903927D01*
G37*
G36*
X-12446488Y-903927D02*
G01*
X-12297188Y-933624D01*
X-12133216Y-1001544D01*
X-11985646Y-1100147D01*
X-11860147Y-1225646D01*
X-11761544Y-1373216D01*
X-11693624Y-1537188D01*
X-11659000Y-1711259D01*
X-11659000Y-1888741D01*
X-11693624Y-2062812D01*
X-11761544Y-2226784D01*
X-11860147Y-2374354D01*
X-11985646Y-2499853D01*
X-12133216Y-2598456D01*
X-12297188Y-2666376D01*
X-12446488Y-2696073D01*
X-12471258Y-2701000D01*
X-12648742Y-2701000D01*
X-12673512Y-2696073D01*
X-12822812Y-2666376D01*
X-12986784Y-2598456D01*
X-13134354Y-2499853D01*
X-13259853Y-2374354D01*
X-13358456Y-2226784D01*
X-13426376Y-2062812D01*
X-13461000Y-1888741D01*
X-13461000Y-1711259D01*
X-13426376Y-1537188D01*
X-13358456Y-1373216D01*
X-13259853Y-1225646D01*
X-13134354Y-1100147D01*
X-12986784Y-1001544D01*
X-12822812Y-933624D01*
X-12673512Y-903927D01*
X-12648742Y-899000D01*
X-12471258Y-899000D01*
X-12446488Y-903927D01*
G37*
G36*
X-9906488Y-903927D02*
G01*
X-9757188Y-933624D01*
X-9593216Y-1001544D01*
X-9445646Y-1100147D01*
X-9320147Y-1225646D01*
X-9221544Y-1373216D01*
X-9153624Y-1537188D01*
X-9119000Y-1711259D01*
X-9119000Y-1888741D01*
X-9153624Y-2062812D01*
X-9221544Y-2226784D01*
X-9320147Y-2374354D01*
X-9445646Y-2499853D01*
X-9593216Y-2598456D01*
X-9757188Y-2666376D01*
X-9906488Y-2696073D01*
X-9931258Y-2701000D01*
X-10108742Y-2701000D01*
X-10133512Y-2696073D01*
X-10282812Y-2666376D01*
X-10446784Y-2598456D01*
X-10594354Y-2499853D01*
X-10719853Y-2374354D01*
X-10818456Y-2226784D01*
X-10886376Y-2062812D01*
X-10921000Y-1888741D01*
X-10921000Y-1711259D01*
X-10886376Y-1537188D01*
X-10818456Y-1373216D01*
X-10719853Y-1225646D01*
X-10594354Y-1100147D01*
X-10446784Y-1001544D01*
X-10282812Y-933624D01*
X-10133512Y-903927D01*
X-10108742Y-899000D01*
X-9931258Y-899000D01*
X-9906488Y-903927D01*
G37*
G36*
X-17526488Y-903927D02*
G01*
X-17377188Y-933624D01*
X-17213216Y-1001544D01*
X-17065646Y-1100147D01*
X-16940147Y-1225646D01*
X-16841544Y-1373216D01*
X-16773624Y-1537188D01*
X-16739000Y-1711259D01*
X-16739000Y-1888741D01*
X-16773624Y-2062812D01*
X-16841544Y-2226784D01*
X-16940147Y-2374354D01*
X-17065646Y-2499853D01*
X-17213216Y-2598456D01*
X-17377188Y-2666376D01*
X-17526488Y-2696073D01*
X-17551258Y-2701000D01*
X-17728742Y-2701000D01*
X-17753512Y-2696073D01*
X-17902812Y-2666376D01*
X-18066784Y-2598456D01*
X-18214354Y-2499853D01*
X-18339853Y-2374354D01*
X-18438456Y-2226784D01*
X-18506376Y-2062812D01*
X-18541000Y-1888741D01*
X-18541000Y-1711259D01*
X-18506376Y-1537188D01*
X-18438456Y-1373216D01*
X-18339853Y-1225646D01*
X-18214354Y-1100147D01*
X-18066784Y-1001544D01*
X-17902812Y-933624D01*
X-17753512Y-903927D01*
X-17728742Y-899000D01*
X-17551258Y-899000D01*
X-17526488Y-903927D01*
G37*
G36*
X-20066488Y-903927D02*
G01*
X-19917188Y-933624D01*
X-19753216Y-1001544D01*
X-19605646Y-1100147D01*
X-19480147Y-1225646D01*
X-19381544Y-1373216D01*
X-19313624Y-1537188D01*
X-19279000Y-1711259D01*
X-19279000Y-1888741D01*
X-19313624Y-2062812D01*
X-19381544Y-2226784D01*
X-19480147Y-2374354D01*
X-19605646Y-2499853D01*
X-19753216Y-2598456D01*
X-19917188Y-2666376D01*
X-20066488Y-2696073D01*
X-20091258Y-2701000D01*
X-20268742Y-2701000D01*
X-20293512Y-2696073D01*
X-20442812Y-2666376D01*
X-20606784Y-2598456D01*
X-20754354Y-2499853D01*
X-20879853Y-2374354D01*
X-20978456Y-2226784D01*
X-21046376Y-2062812D01*
X-21081000Y-1888741D01*
X-21081000Y-1711259D01*
X-21046376Y-1537188D01*
X-20978456Y-1373216D01*
X-20879853Y-1225646D01*
X-20754354Y-1100147D01*
X-20606784Y-1001544D01*
X-20442812Y-933624D01*
X-20293512Y-903927D01*
X-20268742Y-899000D01*
X-20091258Y-899000D01*
X-20066488Y-903927D01*
G37*
G36*
X-22606488Y-903927D02*
G01*
X-22457188Y-933624D01*
X-22293216Y-1001544D01*
X-22145646Y-1100147D01*
X-22020147Y-1225646D01*
X-21921544Y-1373216D01*
X-21853624Y-1537188D01*
X-21819000Y-1711259D01*
X-21819000Y-1888741D01*
X-21853624Y-2062812D01*
X-21921544Y-2226784D01*
X-22020147Y-2374354D01*
X-22145646Y-2499853D01*
X-22293216Y-2598456D01*
X-22457188Y-2666376D01*
X-22606488Y-2696073D01*
X-22631258Y-2701000D01*
X-22808742Y-2701000D01*
X-22833512Y-2696073D01*
X-22982812Y-2666376D01*
X-23146784Y-2598456D01*
X-23294354Y-2499853D01*
X-23419853Y-2374354D01*
X-23518456Y-2226784D01*
X-23586376Y-2062812D01*
X-23621000Y-1888741D01*
X-23621000Y-1711259D01*
X-23586376Y-1537188D01*
X-23518456Y-1373216D01*
X-23419853Y-1225646D01*
X-23294354Y-1100147D01*
X-23146784Y-1001544D01*
X-22982812Y-933624D01*
X-22833512Y-903927D01*
X-22808742Y-899000D01*
X-22631258Y-899000D01*
X-22606488Y-903927D01*
G37*
G36*
X-9906488Y1636073D02*
G01*
X-9757188Y1606376D01*
X-9593216Y1538456D01*
X-9445646Y1439853D01*
X-9320147Y1314354D01*
X-9221544Y1166784D01*
X-9153624Y1002812D01*
X-9119000Y828741D01*
X-9119000Y651259D01*
X-9153624Y477188D01*
X-9221544Y313216D01*
X-9320147Y165646D01*
X-9445646Y40147D01*
X-9593216Y-58456D01*
X-9757188Y-126376D01*
X-9906488Y-156073D01*
X-9931258Y-161000D01*
X-10108742Y-161000D01*
X-10133512Y-156073D01*
X-10282812Y-126376D01*
X-10446784Y-58456D01*
X-10594354Y40147D01*
X-10719853Y165646D01*
X-10818456Y313216D01*
X-10886376Y477188D01*
X-10921000Y651259D01*
X-10921000Y828741D01*
X-10886376Y1002812D01*
X-10818456Y1166784D01*
X-10719853Y1314354D01*
X-10594354Y1439853D01*
X-10446784Y1538456D01*
X-10282812Y1606376D01*
X-10133512Y1636073D01*
X-10108742Y1641000D01*
X-9931258Y1641000D01*
X-9906488Y1636073D01*
G37*
G36*
X-7366488Y1636073D02*
G01*
X-7217188Y1606376D01*
X-7053216Y1538456D01*
X-6905646Y1439853D01*
X-6780147Y1314354D01*
X-6681544Y1166784D01*
X-6613624Y1002812D01*
X-6579000Y828741D01*
X-6579000Y651259D01*
X-6613624Y477188D01*
X-6681544Y313216D01*
X-6780147Y165646D01*
X-6905646Y40147D01*
X-7053216Y-58456D01*
X-7217188Y-126376D01*
X-7366488Y-156073D01*
X-7391258Y-161000D01*
X-7568742Y-161000D01*
X-7593512Y-156073D01*
X-7742812Y-126376D01*
X-7906784Y-58456D01*
X-8054354Y40147D01*
X-8179853Y165646D01*
X-8278456Y313216D01*
X-8346376Y477188D01*
X-8381000Y651259D01*
X-8381000Y828741D01*
X-8346376Y1002812D01*
X-8278456Y1166784D01*
X-8179853Y1314354D01*
X-8054354Y1439853D01*
X-7906784Y1538456D01*
X-7742812Y1606376D01*
X-7593512Y1636073D01*
X-7568742Y1641000D01*
X-7391258Y1641000D01*
X-7366488Y1636073D01*
G37*
G36*
X-4826488Y1636073D02*
G01*
X-4677188Y1606376D01*
X-4513216Y1538456D01*
X-4365646Y1439853D01*
X-4240147Y1314354D01*
X-4141544Y1166784D01*
X-4073624Y1002812D01*
X-4039000Y828741D01*
X-4039000Y651259D01*
X-4073624Y477188D01*
X-4141544Y313216D01*
X-4240147Y165646D01*
X-4365646Y40147D01*
X-4513216Y-58456D01*
X-4677188Y-126376D01*
X-4826488Y-156073D01*
X-4851258Y-161000D01*
X-5028742Y-161000D01*
X-5053512Y-156073D01*
X-5202812Y-126376D01*
X-5366784Y-58456D01*
X-5514354Y40147D01*
X-5639853Y165646D01*
X-5738456Y313216D01*
X-5806376Y477188D01*
X-5841000Y651259D01*
X-5841000Y828741D01*
X-5806376Y1002812D01*
X-5738456Y1166784D01*
X-5639853Y1314354D01*
X-5514354Y1439853D01*
X-5366784Y1538456D01*
X-5202812Y1606376D01*
X-5053512Y1636073D01*
X-5028742Y1641000D01*
X-4851258Y1641000D01*
X-4826488Y1636073D01*
G37*
G36*
X-25146488Y1636073D02*
G01*
X-24997188Y1606376D01*
X-24833216Y1538456D01*
X-24685646Y1439853D01*
X-24560147Y1314354D01*
X-24461544Y1166784D01*
X-24393624Y1002812D01*
X-24359000Y828741D01*
X-24359000Y651259D01*
X-24393624Y477188D01*
X-24461544Y313216D01*
X-24560147Y165646D01*
X-24685646Y40147D01*
X-24833216Y-58456D01*
X-24997188Y-126376D01*
X-25146488Y-156073D01*
X-25171258Y-161000D01*
X-25348742Y-161000D01*
X-25373512Y-156073D01*
X-25522812Y-126376D01*
X-25686784Y-58456D01*
X-25834354Y40147D01*
X-25959853Y165646D01*
X-26058456Y313216D01*
X-26126376Y477188D01*
X-26161000Y651259D01*
X-26161000Y828741D01*
X-26126376Y1002812D01*
X-26058456Y1166784D01*
X-25959853Y1314354D01*
X-25834354Y1439853D01*
X-25686784Y1538456D01*
X-25522812Y1606376D01*
X-25373512Y1636073D01*
X-25348742Y1641000D01*
X-25171258Y1641000D01*
X-25146488Y1636073D01*
G37*
G36*
X-20066488Y1636073D02*
G01*
X-19917188Y1606376D01*
X-19753216Y1538456D01*
X-19605646Y1439853D01*
X-19480147Y1314354D01*
X-19381544Y1166784D01*
X-19313624Y1002812D01*
X-19279000Y828741D01*
X-19279000Y651259D01*
X-19313624Y477188D01*
X-19381544Y313216D01*
X-19480147Y165646D01*
X-19605646Y40147D01*
X-19753216Y-58456D01*
X-19917188Y-126376D01*
X-20066488Y-156073D01*
X-20091258Y-161000D01*
X-20268742Y-161000D01*
X-20293512Y-156073D01*
X-20442812Y-126376D01*
X-20606784Y-58456D01*
X-20754354Y40147D01*
X-20879853Y165646D01*
X-20978456Y313216D01*
X-21046376Y477188D01*
X-21081000Y651259D01*
X-21081000Y828741D01*
X-21046376Y1002812D01*
X-20978456Y1166784D01*
X-20879853Y1314354D01*
X-20754354Y1439853D01*
X-20606784Y1538456D01*
X-20442812Y1606376D01*
X-20293512Y1636073D01*
X-20268742Y1641000D01*
X-20091258Y1641000D01*
X-20066488Y1636073D01*
G37*
G36*
X-53086488Y1636073D02*
G01*
X-52937188Y1606376D01*
X-52773216Y1538456D01*
X-52625646Y1439853D01*
X-52500147Y1314354D01*
X-52401544Y1166784D01*
X-52333624Y1002812D01*
X-52299000Y828741D01*
X-52299000Y651259D01*
X-52333624Y477188D01*
X-52401544Y313216D01*
X-52500147Y165646D01*
X-52625646Y40147D01*
X-52773216Y-58456D01*
X-52937188Y-126376D01*
X-53086488Y-156073D01*
X-53111258Y-161000D01*
X-53288742Y-161000D01*
X-53313512Y-156073D01*
X-53462812Y-126376D01*
X-53626784Y-58456D01*
X-53774354Y40147D01*
X-53899853Y165646D01*
X-53998456Y313216D01*
X-54066376Y477188D01*
X-54101000Y651259D01*
X-54101000Y828741D01*
X-54066376Y1002812D01*
X-53998456Y1166784D01*
X-53899853Y1314354D01*
X-53774354Y1439853D01*
X-53626784Y1538456D01*
X-53462812Y1606376D01*
X-53313512Y1636073D01*
X-53288742Y1641000D01*
X-53111258Y1641000D01*
X-53086488Y1636073D01*
G37*
G36*
X-17526488Y1636073D02*
G01*
X-17377188Y1606376D01*
X-17213216Y1538456D01*
X-17065646Y1439853D01*
X-16940147Y1314354D01*
X-16841544Y1166784D01*
X-16773624Y1002812D01*
X-16739000Y828741D01*
X-16739000Y651259D01*
X-16773624Y477188D01*
X-16841544Y313216D01*
X-16940147Y165646D01*
X-17065646Y40147D01*
X-17213216Y-58456D01*
X-17377188Y-126376D01*
X-17526488Y-156073D01*
X-17551258Y-161000D01*
X-17728742Y-161000D01*
X-17753512Y-156073D01*
X-17902812Y-126376D01*
X-18066784Y-58456D01*
X-18214354Y40147D01*
X-18339853Y165646D01*
X-18438456Y313216D01*
X-18506376Y477188D01*
X-18541000Y651259D01*
X-18541000Y828741D01*
X-18506376Y1002812D01*
X-18438456Y1166784D01*
X-18339853Y1314354D01*
X-18214354Y1439853D01*
X-18066784Y1538456D01*
X-17902812Y1606376D01*
X-17753512Y1636073D01*
X-17728742Y1641000D01*
X-17551258Y1641000D01*
X-17526488Y1636073D01*
G37*
G36*
X-50546488Y1636073D02*
G01*
X-50397188Y1606376D01*
X-50233216Y1538456D01*
X-50085646Y1439853D01*
X-49960147Y1314354D01*
X-49861544Y1166784D01*
X-49793624Y1002812D01*
X-49759000Y828741D01*
X-49759000Y651259D01*
X-49793624Y477188D01*
X-49861544Y313216D01*
X-49960147Y165646D01*
X-50085646Y40147D01*
X-50233216Y-58456D01*
X-50397188Y-126376D01*
X-50546488Y-156073D01*
X-50571258Y-161000D01*
X-50748742Y-161000D01*
X-50773512Y-156073D01*
X-50922812Y-126376D01*
X-51086784Y-58456D01*
X-51234354Y40147D01*
X-51359853Y165646D01*
X-51458456Y313216D01*
X-51526376Y477188D01*
X-51561000Y651259D01*
X-51561000Y828741D01*
X-51526376Y1002812D01*
X-51458456Y1166784D01*
X-51359853Y1314354D01*
X-51234354Y1439853D01*
X-51086784Y1538456D01*
X-50922812Y1606376D01*
X-50773512Y1636073D01*
X-50748742Y1641000D01*
X-50571258Y1641000D01*
X-50546488Y1636073D01*
G37*
G36*
X-27686488Y1636073D02*
G01*
X-27537188Y1606376D01*
X-27373216Y1538456D01*
X-27225646Y1439853D01*
X-27100147Y1314354D01*
X-27001544Y1166784D01*
X-26933624Y1002812D01*
X-26899000Y828741D01*
X-26899000Y651259D01*
X-26933624Y477188D01*
X-27001544Y313216D01*
X-27100147Y165646D01*
X-27225646Y40147D01*
X-27373216Y-58456D01*
X-27537188Y-126376D01*
X-27686488Y-156073D01*
X-27711258Y-161000D01*
X-27888742Y-161000D01*
X-27913512Y-156073D01*
X-28062812Y-126376D01*
X-28226784Y-58456D01*
X-28374354Y40147D01*
X-28499853Y165646D01*
X-28598456Y313216D01*
X-28666376Y477188D01*
X-28701000Y651259D01*
X-28701000Y828741D01*
X-28666376Y1002812D01*
X-28598456Y1166784D01*
X-28499853Y1314354D01*
X-28374354Y1439853D01*
X-28226784Y1538456D01*
X-28062812Y1606376D01*
X-27913512Y1636073D01*
X-27888742Y1641000D01*
X-27711258Y1641000D01*
X-27686488Y1636073D01*
G37*
G36*
X-48006488Y1636073D02*
G01*
X-47857188Y1606376D01*
X-47693216Y1538456D01*
X-47545646Y1439853D01*
X-47420147Y1314354D01*
X-47321544Y1166784D01*
X-47253624Y1002812D01*
X-47219000Y828741D01*
X-47219000Y651259D01*
X-47253624Y477188D01*
X-47321544Y313216D01*
X-47420147Y165646D01*
X-47545646Y40147D01*
X-47693216Y-58456D01*
X-47857188Y-126376D01*
X-48006488Y-156073D01*
X-48031258Y-161000D01*
X-48208742Y-161000D01*
X-48233512Y-156073D01*
X-48382812Y-126376D01*
X-48546784Y-58456D01*
X-48694354Y40147D01*
X-48819853Y165646D01*
X-48918456Y313216D01*
X-48986376Y477188D01*
X-49021000Y651259D01*
X-49021000Y828741D01*
X-48986376Y1002812D01*
X-48918456Y1166784D01*
X-48819853Y1314354D01*
X-48694354Y1439853D01*
X-48546784Y1538456D01*
X-48382812Y1606376D01*
X-48233512Y1636073D01*
X-48208742Y1641000D01*
X-48031258Y1641000D01*
X-48006488Y1636073D01*
G37*
G36*
X-14986488Y1636073D02*
G01*
X-14837188Y1606376D01*
X-14673216Y1538456D01*
X-14525646Y1439853D01*
X-14400147Y1314354D01*
X-14301544Y1166784D01*
X-14233624Y1002812D01*
X-14199000Y828741D01*
X-14199000Y651259D01*
X-14233624Y477188D01*
X-14301544Y313216D01*
X-14400147Y165646D01*
X-14525646Y40147D01*
X-14673216Y-58456D01*
X-14837188Y-126376D01*
X-14986488Y-156073D01*
X-15011258Y-161000D01*
X-15188742Y-161000D01*
X-15213512Y-156073D01*
X-15362812Y-126376D01*
X-15526784Y-58456D01*
X-15674354Y40147D01*
X-15799853Y165646D01*
X-15898456Y313216D01*
X-15966376Y477188D01*
X-16001000Y651259D01*
X-16001000Y828741D01*
X-15966376Y1002812D01*
X-15898456Y1166784D01*
X-15799853Y1314354D01*
X-15674354Y1439853D01*
X-15526784Y1538456D01*
X-15362812Y1606376D01*
X-15213512Y1636073D01*
X-15188742Y1641000D01*
X-15011258Y1641000D01*
X-14986488Y1636073D01*
G37*
G36*
X-45466488Y1636073D02*
G01*
X-45317188Y1606376D01*
X-45153216Y1538456D01*
X-45005646Y1439853D01*
X-44880147Y1314354D01*
X-44781544Y1166784D01*
X-44713624Y1002812D01*
X-44679000Y828741D01*
X-44679000Y651259D01*
X-44713624Y477188D01*
X-44781544Y313216D01*
X-44880147Y165646D01*
X-45005646Y40147D01*
X-45153216Y-58456D01*
X-45317188Y-126376D01*
X-45466488Y-156073D01*
X-45491258Y-161000D01*
X-45668742Y-161000D01*
X-45693512Y-156073D01*
X-45842812Y-126376D01*
X-46006784Y-58456D01*
X-46154354Y40147D01*
X-46279853Y165646D01*
X-46378456Y313216D01*
X-46446376Y477188D01*
X-46481000Y651259D01*
X-46481000Y828741D01*
X-46446376Y1002812D01*
X-46378456Y1166784D01*
X-46279853Y1314354D01*
X-46154354Y1439853D01*
X-46006784Y1538456D01*
X-45842812Y1606376D01*
X-45693512Y1636073D01*
X-45668742Y1641000D01*
X-45491258Y1641000D01*
X-45466488Y1636073D01*
G37*
G36*
X-12446488Y1636073D02*
G01*
X-12297188Y1606376D01*
X-12133216Y1538456D01*
X-11985646Y1439853D01*
X-11860147Y1314354D01*
X-11761544Y1166784D01*
X-11693624Y1002812D01*
X-11659000Y828741D01*
X-11659000Y651259D01*
X-11693624Y477188D01*
X-11761544Y313216D01*
X-11860147Y165646D01*
X-11985646Y40147D01*
X-12133216Y-58456D01*
X-12297188Y-126376D01*
X-12446488Y-156073D01*
X-12471258Y-161000D01*
X-12648742Y-161000D01*
X-12673512Y-156073D01*
X-12822812Y-126376D01*
X-12986784Y-58456D01*
X-13134354Y40147D01*
X-13259853Y165646D01*
X-13358456Y313216D01*
X-13426376Y477188D01*
X-13461000Y651259D01*
X-13461000Y828741D01*
X-13426376Y1002812D01*
X-13358456Y1166784D01*
X-13259853Y1314354D01*
X-13134354Y1439853D01*
X-12986784Y1538456D01*
X-12822812Y1606376D01*
X-12673512Y1636073D01*
X-12648742Y1641000D01*
X-12471258Y1641000D01*
X-12446488Y1636073D01*
G37*
G36*
X-42926488Y1636073D02*
G01*
X-42777188Y1606376D01*
X-42613216Y1538456D01*
X-42465646Y1439853D01*
X-42340147Y1314354D01*
X-42241544Y1166784D01*
X-42173624Y1002812D01*
X-42139000Y828741D01*
X-42139000Y651259D01*
X-42173624Y477188D01*
X-42241544Y313216D01*
X-42340147Y165646D01*
X-42465646Y40147D01*
X-42613216Y-58456D01*
X-42777188Y-126376D01*
X-42926488Y-156073D01*
X-42951258Y-161000D01*
X-43128742Y-161000D01*
X-43153512Y-156073D01*
X-43302812Y-126376D01*
X-43466784Y-58456D01*
X-43614354Y40147D01*
X-43739853Y165646D01*
X-43838456Y313216D01*
X-43906376Y477188D01*
X-43941000Y651259D01*
X-43941000Y828741D01*
X-43906376Y1002812D01*
X-43838456Y1166784D01*
X-43739853Y1314354D01*
X-43614354Y1439853D01*
X-43466784Y1538456D01*
X-43302812Y1606376D01*
X-43153512Y1636073D01*
X-43128742Y1641000D01*
X-42951258Y1641000D01*
X-42926488Y1636073D01*
G37*
G36*
X-30226488Y1636073D02*
G01*
X-30077188Y1606376D01*
X-29913216Y1538456D01*
X-29765646Y1439853D01*
X-29640147Y1314354D01*
X-29541544Y1166784D01*
X-29473624Y1002812D01*
X-29439000Y828741D01*
X-29439000Y651259D01*
X-29473624Y477188D01*
X-29541544Y313216D01*
X-29640147Y165646D01*
X-29765646Y40147D01*
X-29913216Y-58456D01*
X-30077188Y-126376D01*
X-30226488Y-156073D01*
X-30251258Y-161000D01*
X-30428742Y-161000D01*
X-30453512Y-156073D01*
X-30602812Y-126376D01*
X-30766784Y-58456D01*
X-30914354Y40147D01*
X-31039853Y165646D01*
X-31138456Y313216D01*
X-31206376Y477188D01*
X-31241000Y651259D01*
X-31241000Y828741D01*
X-31206376Y1002812D01*
X-31138456Y1166784D01*
X-31039853Y1314354D01*
X-30914354Y1439853D01*
X-30766784Y1538456D01*
X-30602812Y1606376D01*
X-30453512Y1636073D01*
X-30428742Y1641000D01*
X-30251258Y1641000D01*
X-30226488Y1636073D01*
G37*
G36*
X-40386488Y1636073D02*
G01*
X-40237188Y1606376D01*
X-40073216Y1538456D01*
X-39925646Y1439853D01*
X-39800147Y1314354D01*
X-39701544Y1166784D01*
X-39633624Y1002812D01*
X-39599000Y828741D01*
X-39599000Y651259D01*
X-39633624Y477188D01*
X-39701544Y313216D01*
X-39800147Y165646D01*
X-39925646Y40147D01*
X-40073216Y-58456D01*
X-40237188Y-126376D01*
X-40386488Y-156073D01*
X-40411258Y-161000D01*
X-40588742Y-161000D01*
X-40613512Y-156073D01*
X-40762812Y-126376D01*
X-40926784Y-58456D01*
X-41074354Y40147D01*
X-41199853Y165646D01*
X-41298456Y313216D01*
X-41366376Y477188D01*
X-41401000Y651259D01*
X-41401000Y828741D01*
X-41366376Y1002812D01*
X-41298456Y1166784D01*
X-41199853Y1314354D01*
X-41074354Y1439853D01*
X-40926784Y1538456D01*
X-40762812Y1606376D01*
X-40613512Y1636073D01*
X-40588742Y1641000D01*
X-40411258Y1641000D01*
X-40386488Y1636073D01*
G37*
G36*
X-35306488Y1636073D02*
G01*
X-35157188Y1606376D01*
X-34993216Y1538456D01*
X-34845646Y1439853D01*
X-34720147Y1314354D01*
X-34621544Y1166784D01*
X-34553624Y1002812D01*
X-34519000Y828741D01*
X-34519000Y651259D01*
X-34553624Y477188D01*
X-34621544Y313216D01*
X-34720147Y165646D01*
X-34845646Y40147D01*
X-34993216Y-58456D01*
X-35157188Y-126376D01*
X-35306488Y-156073D01*
X-35331258Y-161000D01*
X-35508742Y-161000D01*
X-35533512Y-156073D01*
X-35682812Y-126376D01*
X-35846784Y-58456D01*
X-35994354Y40147D01*
X-36119853Y165646D01*
X-36218456Y313216D01*
X-36286376Y477188D01*
X-36321000Y651259D01*
X-36321000Y828741D01*
X-36286376Y1002812D01*
X-36218456Y1166784D01*
X-36119853Y1314354D01*
X-35994354Y1439853D01*
X-35846784Y1538456D01*
X-35682812Y1606376D01*
X-35533512Y1636073D01*
X-35508742Y1641000D01*
X-35331258Y1641000D01*
X-35306488Y1636073D01*
G37*
G36*
X-37846488Y1636073D02*
G01*
X-37697188Y1606376D01*
X-37533216Y1538456D01*
X-37385646Y1439853D01*
X-37260147Y1314354D01*
X-37161544Y1166784D01*
X-37093624Y1002812D01*
X-37059000Y828741D01*
X-37059000Y651259D01*
X-37093624Y477188D01*
X-37161544Y313216D01*
X-37260147Y165646D01*
X-37385646Y40147D01*
X-37533216Y-58456D01*
X-37697188Y-126376D01*
X-37846488Y-156073D01*
X-37871258Y-161000D01*
X-38048742Y-161000D01*
X-38073512Y-156073D01*
X-38222812Y-126376D01*
X-38386784Y-58456D01*
X-38534354Y40147D01*
X-38659853Y165646D01*
X-38758456Y313216D01*
X-38826376Y477188D01*
X-38861000Y651259D01*
X-38861000Y828741D01*
X-38826376Y1002812D01*
X-38758456Y1166784D01*
X-38659853Y1314354D01*
X-38534354Y1439853D01*
X-38386784Y1538456D01*
X-38222812Y1606376D01*
X-38073512Y1636073D01*
X-38048742Y1641000D01*
X-37871258Y1641000D01*
X-37846488Y1636073D01*
G37*
G36*
X-32766488Y1636073D02*
G01*
X-32617188Y1606376D01*
X-32453216Y1538456D01*
X-32305646Y1439853D01*
X-32180147Y1314354D01*
X-32081544Y1166784D01*
X-32013624Y1002812D01*
X-31979000Y828741D01*
X-31979000Y651259D01*
X-32013624Y477188D01*
X-32081544Y313216D01*
X-32180147Y165646D01*
X-32305646Y40147D01*
X-32453216Y-58456D01*
X-32617188Y-126376D01*
X-32766488Y-156073D01*
X-32791258Y-161000D01*
X-32968742Y-161000D01*
X-32993512Y-156073D01*
X-33142812Y-126376D01*
X-33306784Y-58456D01*
X-33454354Y40147D01*
X-33579853Y165646D01*
X-33678456Y313216D01*
X-33746376Y477188D01*
X-33781000Y651259D01*
X-33781000Y828741D01*
X-33746376Y1002812D01*
X-33678456Y1166784D01*
X-33579853Y1314354D01*
X-33454354Y1439853D01*
X-33306784Y1538456D01*
X-33142812Y1606376D01*
X-32993512Y1636073D01*
X-32968742Y1641000D01*
X-32791258Y1641000D01*
X-32766488Y1636073D01*
G37*
G36*
X-22606488Y1636073D02*
G01*
X-22457188Y1606376D01*
X-22293216Y1538456D01*
X-22145646Y1439853D01*
X-22020147Y1314354D01*
X-21921544Y1166784D01*
X-21853624Y1002812D01*
X-21819000Y828741D01*
X-21819000Y651259D01*
X-21853624Y477188D01*
X-21921544Y313216D01*
X-22020147Y165646D01*
X-22145646Y40147D01*
X-22293216Y-58456D01*
X-22457188Y-126376D01*
X-22606488Y-156073D01*
X-22631258Y-161000D01*
X-22808742Y-161000D01*
X-22833512Y-156073D01*
X-22982812Y-126376D01*
X-23146784Y-58456D01*
X-23294354Y40147D01*
X-23419853Y165646D01*
X-23518456Y313216D01*
X-23586376Y477188D01*
X-23621000Y651259D01*
X-23621000Y828741D01*
X-23586376Y1002812D01*
X-23518456Y1166784D01*
X-23419853Y1314354D01*
X-23294354Y1439853D01*
X-23146784Y1538456D01*
X-22982812Y1606376D01*
X-22833512Y1636073D01*
X-22808742Y1641000D01*
X-22631258Y1641000D01*
X-22606488Y1636073D01*
G37*
M02*
