M48
; DRILL file {KiCad 5.1.6} date Fri Jun 26 19:26:33 2020
; FORMAT={-:-/ absolute / inch / decimal}
; #@! TF.CreationDate,2020-06-26T19:26:33+02:00
; #@! TF.GenerationSoftware,Kicad,Pcbnew,5.1.6
; #@! TF.FileFunction,Plated,1,2,PTH
FMAT,2
INCH
T1C0.0157
T2C0.0394
T3C0.0433
%
G90
G05
T1
X-1.9872Y-0.8858
X-1.9685Y-0.5472
X-1.9409Y-0.6693
X-1.8504Y-1.0748
X-1.8028Y-1.4126
X-1.6821Y-1.625
X-1.6319Y-1.1319
X-1.6102Y-1.7283
X-1.563Y-0.7441
X-1.5587Y-0.5142
X-1.5Y-0.6693
X-1.4843Y-1.685
X-1.4819Y-1.4126
X-1.4173Y-1.0748
X-1.3937Y-0.6693
X-1.2283Y-1.128
X-1.1508Y-0.5752
X-1.1378Y-0.7441
X-1.1102Y-0.1909
X-1.0945Y-0.5276
X-1.063Y-0.6693
X-1.063Y-1.5039
X-1.063Y-1.5866
X-1.0551Y-0.5906
X-1.0512Y-1.2366
X-1.0512Y-1.4094
X-1.0039Y-1.0748
X-0.8937Y-0.5512
X-0.8465Y-1.7008
X-0.8071Y-1.1398
X-0.8071Y-1.4488
X-0.7638Y-1.5157
X-0.748Y-1.5984
X-0.7402Y-1.6575
X-0.7205Y-0.7441
X-0.6457Y-0.6693
X-0.5709Y-1.0748
X-0.5649Y-0.5021
X-0.5118Y-0.5197
X-0.4291Y-0.9744
X-0.2945Y-0.1528
X-0.2835Y-0.7441
X-0.2323Y-0.6693
X-0.1909Y-0.1516
X-0.1693Y-0.7441
X-0.1654Y-1.0748
T2
X-2.1742Y-0.4646
X-2.0945Y0.0291
X-2.0945Y-0.0709
X-1.9945Y0.0291
X-1.9945Y-0.0709
X-1.8945Y0.0291
X-1.8945Y-0.0709
X-1.7945Y0.0291
X-1.7945Y-0.0709
X-1.6945Y0.0291
X-1.6945Y-0.0709
X-1.5945Y0.0291
X-1.5945Y-0.0709
X-1.4945Y0.0291
X-1.4945Y-0.0709
X-1.3945Y0.0291
X-1.3945Y-0.0709
X-1.2945Y0.0291
X-1.2945Y-0.0709
X-1.1945Y0.0291
X-1.1945Y-0.0709
X-1.0945Y0.0291
X-1.0945Y-0.0709
X-0.9945Y0.0291
X-0.9945Y-0.0709
X-0.8945Y0.0291
X-0.8945Y-0.0709
X-0.7945Y0.0291
X-0.7945Y-0.0709
X-0.6945Y0.0291
X-0.6945Y-0.0709
X-0.5945Y0.0291
X-0.5945Y-0.0709
X-0.4945Y0.0291
X-0.4945Y-0.0709
X-0.3945Y0.0291
X-0.3945Y-0.0709
X-0.2945Y0.0291
X-0.2945Y-0.0709
X-0.1945Y0.0291
X-0.1945Y-0.0709
X-2.0945Y-1.9004
X-2.0945Y-2.0004
X-1.9945Y-1.9004
X-1.9945Y-2.0004
X-1.8945Y-1.9004
X-1.8945Y-2.0004
X-1.7945Y-1.9004
X-1.7945Y-2.0004
X-1.6945Y-1.9004
X-1.6945Y-2.0004
X-1.5945Y-1.9004
X-1.5945Y-2.0004
X-1.4945Y-1.9004
X-1.4945Y-2.0004
X-1.3945Y-1.9004
X-1.3945Y-2.0004
X-1.2945Y-1.9004
X-1.2945Y-2.0004
X-1.1945Y-1.9004
X-1.1945Y-2.0004
X-1.0945Y-1.9004
X-1.0945Y-2.0004
X-0.9945Y-1.9004
X-0.9945Y-2.0004
X-0.8945Y-1.9004
X-0.8945Y-2.0004
X-0.7945Y-1.9004
X-0.7945Y-2.0004
X-0.6945Y-1.9004
X-0.6945Y-2.0004
X-0.5945Y-1.9004
X-0.5945Y-2.0004
X-0.4945Y-1.9004
X-0.4945Y-2.0004
X-0.3945Y-1.9004
X-0.3945Y-2.0004
X-0.2945Y-1.9004
X-0.2945Y-2.0004
X-0.1945Y-1.9004
X-0.1945Y-2.0004
X-2.0945Y-0.2661
X-2.0945Y-0.3661
X-1.9945Y-0.2661
X-1.9945Y-0.3661
X-1.8945Y-0.2661
X-1.8945Y-0.3661
X-1.7945Y-0.2661
X-1.7945Y-0.3661
X-1.6945Y-0.2661
X-1.6945Y-0.3661
X-1.5945Y-0.2661
X-1.5945Y-0.3661
X-1.4945Y-0.2661
X-1.4945Y-0.3661
X-1.3945Y-0.2661
X-1.3945Y-0.3661
X-1.2945Y-0.2661
X-1.2945Y-0.3661
X-1.1945Y-0.2661
X-1.1945Y-0.3661
X-1.0945Y-0.2661
X-1.0945Y-0.3661
X-0.9945Y-0.2661
X-0.9945Y-0.3661
X-0.8945Y-0.2661
X-0.8945Y-0.3661
X-0.7945Y-0.2661
X-0.7945Y-0.3661
X-0.6945Y-0.2661
X-0.6945Y-0.3661
X-0.5945Y-0.2661
X-0.5945Y-0.3661
X-0.4945Y-0.2661
X-0.4945Y-0.3661
X-0.3945Y-0.2661
X-0.3945Y-0.3661
X-0.2945Y-0.2661
X-0.2945Y-0.3661
X-0.1945Y-0.2661
X-0.1945Y-0.3661
T3
X-2.2283Y-0.8691
X-2.2283Y-1.0659
T0
M30
